<svg xmlns="http://www.w3.org/2000/svg" xmlns:xlink="http://www.w3.org/1999/xlink" viewBox="0 0 25.906 30"><defs><path id="a" d="M0 0h25.906v30H0z"/></defs><clipPath id="b"><use xlink:href="#a" overflow="visible"/></clipPath><path clip-path="url(#b)" fill="none" stroke="#C8C8C8" stroke-miterlimit="10" d="M12.953.578L.5 7.788v14.423l12.453 7.212 12.453-7.21V7.788z"/><path clip-path="url(#b)" fill="#C8C8C8" d="M19.238 15.654h-2.675v.903h2.675v2.663h.903v-2.663h2.664v-.903H20.14v-2.662h-.902v2.662zm-3.825-2.8c-.04-.716-.3-1.28-.777-1.69-.478-.412-1.062-.618-1.753-.618-1.068 0-1.87.432-2.403 1.295-.534.864-.8 1.98-.8 3.344 0 1.418.26 2.484.782 3.2.522.713 1.285 1.07 2.29 1.07.87 0 1.563-.285 2.077-.858.513-.572.77-1.29.77-2.153 0-.87-.27-1.548-.814-2.03-.542-.482-1.176-.723-1.903-.723-.912 0-1.598.356-2.06 1.066l-.024-.024c.007-.84.186-1.584.535-2.234.35-.65.857-.976 1.524-.976.42 0 .755.11 1.002.334.247.223.41.555.49.997h1.06zm-3.982 2.324c.323-.34.754-.512 1.296-.512.56 0 .99.175 1.292.524.304.35.455.783.455 1.3 0 .595-.153 1.075-.46 1.44-.308.366-.72.55-1.238.55-.542 0-.982-.18-1.32-.537-.337-.358-.505-.82-.505-1.386 0-.578.16-1.038.48-1.38m-4.408-4.63h-.85c-.156.674-.407 1.112-.752 1.315-.346.203-.872.316-1.578.34v.862h2.023v6.156h1.157v-8.674z"/></svg>