<svg xmlns="http://www.w3.org/2000/svg" xmlns:xlink="http://www.w3.org/1999/xlink" viewBox="0 100 400 400"><path d="M261.5 219.8l-61.2 104.6-61.4-104.6-39.7 23.3 101.1 172.3 100.9-172.3"/><defs><path id="a" d="M0 100h400v400H0z"/></defs><clipPath id="b"><use xlink:href="#a" overflow="visible"/></clipPath><path clip-path="url(#b)" d="M91.1 408.9c-14.2-14.1-25.3-30.6-33-48.9-8-19-12.1-39.2-12.1-60s4.1-41 12.1-59.9c7.8-18.3 18.9-34.8 33-48.9 14.1-14.2 30.6-25.3 48.9-33 19-8 39.1-12.1 59.9-12.1s41 4.1 59.9 12.1c18.3 7.8 34.8 18.9 48.9 33 14.2 14.1 25.3 30.6 33 48.9 8 19 12.1 39.1 12.1 59.9s-4.1 41-12.1 59.9c-7.8 18.3-18.9 34.8-33 48.9-14.1 14.2-30.6 25.3-48.9 33-19 8-39.1 12.1-59.9 12.1s-41-4.1-59.9-12.1c-18.2-7.7-34.7-18.8-48.9-32.9M400 300c0-110.5-89.5-200-200-200S0 189.5 0 300s89.5 200 200 200 200-89.5 200-200"/></svg>