<svg xmlns="http://www.w3.org/2000/svg" xmlns:xlink="http://www.w3.org/1999/xlink" viewBox="0 0 10 10"><path fill="#3D21DE" d="M3.076 3.512l2.613 1.53-2.614 1.533.582.993L7.966 5.04l-4.31-2.52"/><defs><path id="a" d="M.08.05h10v10h-10z"/></defs><clipPath id="b"><use xlink:href="#a" overflow="visible"/></clipPath><path clip-path="url(#b)" fill="#3D21DE" d="M7.803 7.77c-.354.355-.766.632-1.224.826-.475.2-.98.302-1.5.302s-1.023-.102-1.497-.302c-.458-.194-.87-.47-1.224-.825-.354-.353-.632-.765-.826-1.223-.2-.474-.302-.978-.302-1.498s.102-1.025.302-1.5c.194-.457.472-.87.825-1.223.353-.353.765-.63 1.223-.825.474-.2.978-.302 1.498-.302s1.025.102 1.5.302c.457.194.87.472 1.223.825.353.354.63.766.825 1.224.2.475.302.98.302 1.5s-.102 1.023-.302 1.497c-.194.458-.472.87-.825 1.224M5.08.05c-2.76 0-5 2.238-5 5s2.24 5 5 5 5-2.24 5-5-2.238-5-5-5"/></svg>