<svg xmlns="http://www.w3.org/2000/svg" xmlns:xlink="http://www.w3.org/1999/xlink" viewBox="0 0 20 23.163"><defs><path id="a" d="M0 0h20v23.163H0z"/></defs><clipPath id="b"><use xlink:href="#a" overflow="visible"/></clipPath><path clip-path="url(#b)" fill="#3D21DE" d="M14.35 6.75c-.408-.002-.817-.002-1.226 0-.214.003-.354.14-.358.353-.005.212 0 .424 0 .637 0 .214-.004.43 0 .643.004.21.153.348.362.348.406.002.81.002 1.217 0 .216 0 .368-.148.37-.364V7.12c-.003-.22-.147-.367-.364-.37"/><path clip-path="url(#b)" fill="#3D21DE" d="M15.763 9.492c0 .064-.018.08-.083.082h-.04c-1.146 0-2.29 0-3.436.002-.076 0-.135-.022-.19-.074-.15-.144-.316-.27-.494-.378-.637-.383-1.322-.517-2.055-.383-.57.106-1.064.367-1.488.76-.057.052-.117.076-.194.075H4.327c-.07 0-.087-.017-.087-.088l.002-.31c-.003-.436-.02-.872.013-1.308.02-.265.08-.52.193-.76.17-.364.43-.652.745-.895l.018-.008.002.013c0 .688 0 1.375-.002 2.063 0 .095-.002.19.002.286.003.064.03.09.094.09.086.002.173-.003.258-.012.058-.005.086-.04.093-.1.005-.035.008-.073.008-.11V6.105c0-.016 0-.033-.002-.05-.01-.078-.006-.087.064-.12s.14-.06.218-.067c.056-.004.07.01.062.065-.003.02-.005.04-.005.06v2.573c0 .065.025.094.09.096.084 0 .167 0 .25-.007.077-.006.11-.04.12-.117.006-.043.008-.087.008-.13 0-.413.003-.826.002-1.238 0-.41-.003-.818-.005-1.227 0-.11.01-.125.108-.152h.135c.063.018.083.064.083.123v.054L6.79 7.05v1.188c0 .11-.003.218 0 .327.002.066.03.095.094.096.09.002.18-.004.268-.012.05-.004.084-.037.093-.088.005-.034.01-.067.01-.1.002-.126.002-.252.002-.378V5.925c0-.075 0-.113.087-.134h5.233c.012.003.024.005.036.005l.934.002c.158 0 .314.016.467.052.484.115.883.37 1.207.744.26.3.43.642.5 1.033.04.21.043.42.044.63.003.412 0 .824 0 1.235m-8.04 2.14c0-1.25 1.026-2.268 2.284-2.267 1.254 0 2.27 1.02 2.268 2.275-.002 1.26-1.015 2.266-2.28 2.266-1.255 0-2.272-1.02-2.272-2.274m8.037.01c0 1.167.002 2.334-.002 3.502-.002.573-.21 1.07-.596 1.49-.34.372-.76.607-1.255.698-.125.024-.254.037-.382.037-2.342 0-4.684.006-7.026-.002-1.058-.004-1.936-.706-2.19-1.714-.05-.2-.07-.404-.07-.61v-3.268l-.003-1.672c0-.024 0-.05.004-.074.008-.07.04-.1.11-.104.073-.004.147-.003.222-.002.992 0 1.984 0 2.976.002h.047c-.447.666-.637 1.386-.506 2.178.114.692.426 1.276.958 1.74 1.065.924 2.593.985 3.71.142.636-.478 1.018-1.116 1.142-1.9.124-.784-.066-1.5-.51-2.16h.04c.957 0 1.914 0 2.87-.002h.317c.02 0 .04 0 .06.002.05.006.077.03.08.08.006.066.006.133.006.2l-.002 1.435M10 0L0 5.79v11.583l10 5.79 10-5.79V5.79L10 0z"/><path clip-path="url(#b)" fill="#3D21DE" d="M10.056 13.312c.89-.024 1.635-.776 1.626-1.65.005-.93-.72-1.714-1.697-1.7-.927.013-1.677.785-1.65 1.704.03.928.778 1.67 1.72 1.646"/></svg>