<svg xmlns="http://www.w3.org/2000/svg" xmlns:xlink="http://www.w3.org/1999/xlink" viewBox="0 0 20 23.163"><defs><path id="a" d="M0 0h20v23.163H0z"/></defs><clipPath id="b"><use xlink:href="#a" overflow="visible"/></clipPath><path clip-path="url(#b)" fill="#3D21DE" d="M15.543 16.97c-.14.608-.64 1.057-1.238 1.124-1.42.16-2.86.16-4.29.16-1.432 0-2.87 0-4.29-.16-.6-.067-1.098-.516-1.238-1.125-.2-.87-.2-1.816-.2-2.71 0-.893.003-1.84.203-2.707.14-.61.638-1.058 1.238-1.125 1.42-.16 2.858-.16 4.29-.16 1.43 0 2.87 0 4.29.16.6.067 1.097.516 1.237 1.125.2.868.2 1.814.2 2.708 0 .894-.002 1.84-.202 2.71M6.953 4.393l.55 2.034.53-2.034h.783l-.933 3.083v2.098h-.776V7.477c-.07-.372-.225-.917-.474-1.64-.164-.48-.334-.963-.498-1.443h.817zm1.87 2.58c0-.414.07-.716.22-.91.192-.265.465-.397.813-.397.35 0 .623.132.817.396.146.195.217.497.217.91v1.352c0 .41-.07.714-.217.908-.194.263-.466.395-.817.395-.348 0-.62-.132-.814-.395-.15-.194-.22-.498-.22-.908V6.973zm2.643-1.26h.697v2.842c0 .165 0 .25.008.273.017.107.072.163.166.163.14 0 .287-.11.44-.328v-2.95h.7v3.86h-.7v-.42c-.277.318-.543.473-.798.473-.225 0-.38-.09-.45-.287-.04-.115-.062-.3-.062-.573V5.714zM10 0L0 5.79v11.583l10 5.79 10-5.79V5.79L10 0z"/><path clip-path="url(#b)" fill="#3D21DE" d="M9.856 8.993c.226 0 .334-.18.334-.536V6.833c0-.358-.108-.535-.334-.535-.226 0-.334.177-.334.535v1.624c0 .357.108.536.334.536M11.585 15.647c0 .345-.1.516-.3.516-.115 0-.23-.055-.346-.17v-2.33c.115-.113.23-.168.344-.168.2 0 .3.177.3.522v1.63zm.07-2.775c-.256 0-.493.14-.716.415V11.61h-.693v5.13h.692v-.37c.23.285.468.422.714.422.276 0 .46-.145.554-.43.046-.16.07-.416.07-.77v-1.52c0-.362-.024-.615-.07-.77-.093-.285-.278-.43-.554-.43M14.198 14.38h-.692v-.354c0-.354.115-.53.347-.53.23 0 .345.176.345.53v.353zm-.34-1.508c-.352 0-.628.13-.828.392-.147.193-.214.492-.214.9v1.338c0 .406.076.708.223.9.2.26.474.39.836.39s.646-.137.838-.414c.083-.123.138-.262.16-.415.008-.07.016-.223.016-.446v-.1h-.707c0 .277-.008.43-.015.468-.04.185-.138.278-.31.278-.237 0-.352-.177-.352-.53v-.678h1.384v-.79c0-.41-.07-.708-.214-.9-.194-.263-.47-.393-.817-.393M8.954 15.84c-.154.216-.3.323-.438.323-.092 0-.145-.055-.162-.162-.006-.02-.006-.106-.006-.268V12.92h-.692v3.02c0 .27.023.452.06.568.07.194.224.284.447.284.255 0 .516-.153.79-.47v.418h.694v-3.82h-.693v2.92z"/><path fill="#3D21DE" d="M5.142 12.333h.814v4.406h.77v-4.407h.83v-.722H5.142"/></svg>