<svg xmlns="http://www.w3.org/2000/svg" xmlns:xlink="http://www.w3.org/1999/xlink" viewBox="0 0 14.8 20"><defs><path id="a" d="M0 0h14.8v20H0z"/></defs><clipPath id="b"><use xlink:href="#a" overflow="visible"/></clipPath><path clip-path="url(#b)" fill="#3D21DE" d="M7.4 9c-.9 0-1.6-.7-1.6-1.5s.7-1.6 1.6-1.6c.9 0 1.6.7 1.6 1.6S8.2 9 7.4 9m0-5.4c-2.1 0-3.9 1.7-3.9 3.9 0 2.1 1.7 3.9 3.9 3.9s3.9-1.7 3.9-3.9c-.1-2.2-1.8-3.9-3.9-3.9"/><path clip-path="url(#b)" fill="#3D21DE" d="M9.8 12.3c-.9.8-1.6 1.8-2.3 2.9-.1.1-.1.2-.2.3-.1-.1-.1-.2-.2-.3-.6-1.1-1.4-2-2.3-2.9C2.6 10 2.3 8.5 2.3 7.4c0-1.4.5-2.6 1.5-3.6S6 2.3 7.4 2.3s2.6.5 3.6 1.5 1.5 2.2 1.5 3.6c0 1.1-.3 2.6-2.7 4.9M7.4 0C3.3 0 0 3.3 0 7.4c0 2.1.9 4.2 3.4 6.6 2.3 2.2 3 4.8 3.1 6h1.7c.2-1.2.8-3.8 3.1-6 2.5-2.4 3.4-4.5 3.4-6.6.1-4.1-3.2-7.4-7.3-7.4"/></svg>