<svg xmlns="http://www.w3.org/2000/svg" xmlns:xlink="http://www.w3.org/1999/xlink" viewBox="0 29.7 400 540.5"><defs><path id="a" d="M0 29.7h400v540.5H0z"/></defs><clipPath id="b"><use xlink:href="#a" overflow="visible"/></clipPath><path clip-path="url(#b)" fill="#FF3B29" d="M200 273c-24.3 0-43.2-18.9-43.2-40.5s18.9-43.2 43.2-43.2 43.2 18.9 43.2 43.2S221.6 273 200 273m0-146c-56.8 0-105.4 46-105.4 105.4 0 56.8 45.9 105.4 105.4 105.4s105.4-45.9 105.4-105.4C302.7 173 256.8 127 200 127"/><g><defs><path id="c" d="M0 29.7h400v540.5H0z"/></defs><clipPath id="d"><use xlink:href="#c" overflow="visible"/></clipPath><path clip-path="url(#d)" fill="#FF3B29" d="M264.9 362.2c-24.3 21.6-43.2 48.6-62.2 78.4-2.7 2.7-2.7 5.4-5.4 8.1-2.7-2.7-2.7-5.4-5.4-8.1-16.2-29.7-37.8-54.1-62.2-78.4C70.3 300 62.2 259.5 62.2 229.7c0-37.8 13.5-70.3 40.5-97.3s59.5-40.5 97.3-40.5 70.3 13.5 97.3 40.5 40.5 59.5 40.5 97.3c0 29.8-8.1 70.3-72.9 132.5M200 29.7c-110.8 0-200 89.2-200 200 0 56.8 24.3 113.5 91.9 178.4 62.2 59.5 81.1 129.7 83.8 162.2h45.9c5.4-32.4 21.6-102.7 83.8-162.2 67.6-64.9 91.9-121.6 91.9-178.4 2.7-110.8-86.5-200-197.3-200"/></g></svg>