<svg xmlns="http://www.w3.org/2000/svg" xmlns:xlink="http://www.w3.org/1999/xlink" viewBox="0 0 205.417 30"><defs><path id="a" d="M0 0h205.417v30H0z"/></defs><clipPath id="b"><use xlink:href="#a" overflow="visible"/></clipPath><path clip-path="url(#b)" fill="#F0F0F0" d="M18.257 7.873h-2.13c-1.673 0-1.995.792-1.995 1.965v2.572h3.984l-.512 4.017h-3.472v10.347H9.97V16.427H6.49V12.41h3.48V9.434c0-3.444 2.102-5.327 5.178-5.327 1.478 0 2.745.11 3.11.165v3.6zM12.95 0L0 7.5v15L12.95 30l12.952-7.5v-15L12.952 0zM90.392 8.744c-.53-.004-1.06-.004-1.59 0-.276.002-.456.18-.463.456-.008.274-.002.55-.002.824 0 .278-.005.556 0 .834.007.27.2.45.47.45h1.576c.28 0 .477-.193.478-.473 0-.538.002-1.077 0-1.615-.002-.282-.188-.474-.47-.476"/><path clip-path="url(#b)" fill="#F0F0F0" d="M92.22 12.293c0 .084-.023.106-.107.107h-.052c-1.482 0-2.965 0-4.448.003-.1 0-.175-.03-.246-.097-.195-.187-.41-.35-.64-.49-.826-.496-1.713-.67-2.662-.495-.738.136-1.378.475-1.928.983-.073.068-.15.1-.25.1-1.493-.003-2.984-.003-4.476-.003-.09 0-.113-.02-.113-.114 0-.133.003-.267.002-.4-.004-.566-.028-1.13.017-1.694.027-.343.104-.672.25-.984.218-.47.556-.844.964-1.158.008-.005.016-.007.024-.01l.002.016-.002 2.672c0 .123-.003.247.002.37.004.084.04.12.12.12.113 0 .225-.006.336-.017.074-.007.11-.05.12-.128.007-.047.01-.095.01-.143l.002-3.023c0-.02 0-.043-.003-.065-.013-.1-.007-.113.083-.156.09-.042.18-.08.282-.086.072-.005.09.014.08.084-.003.026-.006.052-.006.078v3.332c0 .085.032.122.117.124.107.002.215 0 .322-.008.1-.008.14-.052.154-.152.008-.056.01-.113.01-.17.003-.534.005-1.068.004-1.602 0-.53-.005-1.06-.007-1.59 0-.14.014-.16.142-.195h.174c.082.022.107.08.107.158v.07c0 .467-.002.934-.003 1.4l-.002 1.542c0 .14-.002.282.002.423.003.085.038.123.12.124.117 0 .233-.006.35-.016.064-.005.107-.047.12-.114.006-.043.012-.087.013-.13.002-.163.002-.326.002-.49l-.002-2.792c0-.098 0-.146.114-.173h6.777c.016.002.03.006.047.006l1.21.002c.205 0 .407.02.606.068.626.15 1.144.48 1.562.964.335.387.556.832.648 1.338.05.27.055.544.057.818.003.532 0 1.065-.003 1.597m-10.41 2.772c0-1.618 1.328-2.937 2.957-2.936 1.624 0 2.94 1.32 2.938 2.946-.003 1.63-1.315 2.934-2.954 2.934-1.624 0-2.94-1.32-2.94-2.945m10.408.012c0 1.512.002 3.024-.004 4.537-.002.742-.272 1.385-.77 1.93-.442.48-.985.785-1.627.904-.162.03-.33.047-.494.047-3.033.003-6.067.01-9.1-.002-1.37-.004-2.506-.913-2.834-2.22-.066-.258-.093-.522-.092-.79v-4.23c0-.723-.004-1.445-.005-2.167 0-.032.002-.064.005-.095.01-.09.05-.13.14-.135.096-.004.192-.003.288-.003l3.856.003h.06c-.58.864-.825 1.796-.655 2.822.148.896.553 1.652 1.242 2.25 1.378 1.2 3.357 1.28 4.806.187.822-.62 1.316-1.445 1.477-2.46.16-1.017-.086-1.944-.66-2.8h3.768c.138 0 .275 0 .412-.002.026 0 .052 0 .078.004.064.008.1.04.104.104.007.085.007.17.007.257 0 .62 0 1.24-.002 1.86M84.758 0L71.805 7.5v15l12.95 7.5 12.952-7.5v-15L84.758 0z"/><path clip-path="url(#b)" fill="#F0F0F0" d="M84.83 17.24c1.152-.03 2.117-1.003 2.105-2.136.007-1.205-.93-2.22-2.197-2.202-1.2.017-2.172 1.017-2.135 2.207.037 1.2 1.005 2.164 2.227 2.13M55.015 19.876c-.28.562-.658 1.026-1.136 1.397-.563.442-1.18.755-1.857.944-.673.188-1.527.28-2.567.28h-5.993V7.528h5.29c1.098 0 1.93.04 2.497.128.567.082 1.1.257 1.593.525.535.288.937.676 1.2 1.156.266.484.4 1.04.4 1.672 0 .73-.182 1.38-.55 1.95-.363.57-.868.987-1.51 1.258v.08c.924.195 1.665.59 2.22 1.19.556.6.835 1.41.835 2.427 0 .744-.14 1.4-.423 1.963M48.855 0L35.902 7.5v15l12.95 7.5 12.952-7.5v-15L48.855 0z"/><path clip-path="url(#b)" fill="#F0F0F0" d="M49.03 13.42c.257-.013.525-.083.8-.21.298-.14.507-.336.62-.583.114-.25.172-.54.172-.865 0-.243-.06-.49-.185-.744s-.315-.44-.58-.553c-.247-.11-.538-.168-.878-.178-.34-.01-.846-.014-1.515-.014h-.26v3.168h.473c.64 0 1.094-.006 1.352-.02M50.44 16.166c-.226-.09-.54-.138-.94-.148-.397-.01-.933-.013-1.602-.013h-.694v3.747h.203c.978 0 1.654-.007 2.03-.02.372-.014.757-.103 1.145-.27.343-.15.59-.365.748-.65.158-.285.237-.608.237-.968 0-.463-.093-.824-.282-1.085-.188-.265-.47-.46-.844-.594M127.84 21.977c-.182.79-.828 1.37-1.605 1.458-1.84.205-3.702.207-5.556.205-1.855.002-3.717 0-5.557-.205-.777-.087-1.42-.67-1.603-1.458-.258-1.123-.258-2.35-.258-3.507s.003-2.383.26-3.508c.182-.788.828-1.37 1.604-1.457 1.84-.206 3.702-.206 5.557-.206 1.853 0 3.716 0 5.555.205.777.087 1.423.67 1.604 1.457.26 1.125.257 2.35.257 3.508 0 1.157-.002 2.384-.26 3.507M116.71 5.69l.714 2.636.685-2.635h1.017l-1.21 3.994V12.4h-1.004V9.685c-.09-.482-.292-1.188-.614-2.124-.213-.622-.434-1.248-.645-1.87h1.057zm2.423 3.34c0-.534.09-.925.284-1.178.25-.34.603-.512 1.054-.512.454 0 .806.17 1.057.512.19.253.282.644.282 1.18v1.75c0 .53-.09.925-.28 1.176-.252.34-.604.512-1.058.512-.45 0-.804-.17-1.055-.512-.194-.25-.285-.645-.285-1.176v-1.75zm3.423-1.63h.904v3.682c0 .213 0 .323.01.352.02.14.09.213.213.213.18 0 .372-.14.572-.425V7.4h.906v5h-.906v-.545c-.36.414-.705.615-1.035.615-.292 0-.493-.118-.584-.372-.05-.15-.08-.39-.08-.743V7.4zM120.66 0l-12.95 7.5v15l12.95 7.5 12.95-7.5v-15L120.66 0z"/><path clip-path="url(#b)" fill="#F0F0F0" d="M120.474 11.647c.292 0 .432-.232.432-.694V8.85c0-.464-.14-.694-.432-.694s-.433.23-.433.693v2.103c0 .462.142.694.434.694M122.713 20.266c0 .447-.13.667-.39.667-.148 0-.297-.07-.447-.22v-3.017c.15-.147.3-.218.447-.218.26 0 .39.23.39.676v2.112zm.09-3.595c-.33 0-.638.18-.927.538v-2.17h-.897v6.642h.896v-.48c.3.37.608.548.926.548.358 0 .597-.188.717-.556.06-.21.09-.54.09-.997v-1.97c0-.47-.03-.796-.09-.995-.12-.37-.36-.56-.718-.56M126.097 18.622h-.897v-.457c0-.458.15-.687.45-.687.297 0 .447.23.447.687v.457zm-.44-1.95c-.457 0-.814.168-1.073.507-.19.25-.277.635-.277 1.164v1.734c0 .525.098.916.29 1.163.257.34.614.508 1.083.508s.836-.177 1.085-.536c.108-.16.18-.34.21-.537.008-.09.018-.29.018-.578v-.13h-.915c0 .358-.01.558-.02.606-.05.24-.18.36-.4.36-.308 0-.458-.23-.458-.687v-.877h1.793v-1.026c0-.53-.09-.915-.277-1.165-.25-.34-.608-.51-1.058-.51M119.306 20.513c-.2.28-.387.42-.567.42-.12 0-.19-.07-.21-.21-.01-.03-.01-.14-.01-.35v-3.642h-.895v3.914c0 .35.03.586.08.735.088.25.288.368.577.368.33 0 .668-.2 1.024-.608v.54h.897v-4.95h-.897v3.783z"/><path fill="#F0F0F0" d="M114.368 15.974h1.055v5.706h.997v-5.706h1.074v-.935h-3.126"/><g><defs><path id="c" d="M0 0h205.417v30H0z"/></defs><clipPath id="d"><use xlink:href="#c" overflow="visible"/></clipPath><path clip-path="url(#d)" fill="#F0F0F0" d="M197.275 17.955c-1.154.74-2.736 1.022-3.77 1.128l.865.864 3.2 3.2c.485.485.485 1.273 0 1.76l-.148.146c-.486.486-1.274.486-1.76 0l-3.198-3.2-3.2 3.2c-.485.486-1.273.486-1.76 0l-.146-.147c-.486-.486-.486-1.274 0-1.76l3.2-3.198.86-.862c-1.032-.105-2.63-.384-3.794-1.13-1.362-.875-1.966-1.394-1.432-2.467.307-.617 1.155-1.13 2.284-.24 1.524 1.2 3.973 1.2 3.973 1.2s2.448 0 3.973-1.2c1.128-.89 1.977-.377 2.283.24.534 1.072-.07 1.59-1.43 2.465M192.448 3.97c2.997 0 5.427 2.43 5.427 5.43s-2.43 5.427-5.428 5.427-5.43-2.43-5.43-5.428 2.43-5.43 5.43-5.43m.016-3.97l-12.95 7.5v15l12.95 7.5 12.95-7.5v-15L192.467 0z"/><path clip-path="url(#d)" fill="#F0F0F0" d="M192.45 12.07c1.474 0 2.67-1.197 2.67-2.67 0-1.476-1.196-2.672-2.67-2.672-1.476 0-2.67 1.196-2.67 2.67 0 1.475 1.194 2.67 2.67 2.67M164.49 11.474c0 .188.014.36.014.53 0 5.34-4.067 11.49-11.49 11.49-2.284 0-4.4-.673-6.187-1.823.314.038.64.066.958.066 1.898 0 3.64-.652 5.017-1.73-1.77-.036-3.26-1.206-3.773-2.805.252.046.5.07.758.07.37 0 .726-.045 1.07-.134-1.85-.38-3.244-2-3.244-3.96v-.05c.546.298 1.17.477 1.828.502-1.082-.718-1.796-1.954-1.796-3.36 0-.735.2-1.428.552-2.028 1.99 2.443 4.96 4.046 8.315 4.214-.07-.294-.102-.596-.102-.914 0-2.24 1.813-4.034 4.04-4.034 1.157 0 2.202.49 2.944 1.272.918-.187 1.782-.513 2.56-.978-.304.942-.937 1.733-1.772 2.24.815-.11 1.593-.323 2.315-.64-.542.806-1.222 1.516-2.006 2.074M156.564 0l-12.95 7.5v15l12.95 7.5 12.95-7.5v-15L156.564 0z"/></g></svg>