<?xml version="1.0" encoding="utf-8"?>
<!-- Generator: Adobe Illustrator 17.1.0, SVG Export Plug-In . SVG Version: 6.00 Build 0)  -->
<!DOCTYPE svg PUBLIC "-//W3C//DTD SVG 1.1//EN" "http://www.w3.org/Graphics/SVG/1.1/DTD/svg11.dtd">
<svg version="1.1" id="Layer_1" xmlns="http://www.w3.org/2000/svg" xmlns:xlink="http://www.w3.org/1999/xlink" x="0px" y="0px"
	 viewBox="0 0 371.25 60.48" enable-background="new 0 0 371.25 60.48" xml:space="preserve">
<rect x="199.519" y="8.857" transform="matrix(0.7071 0.7071 -0.7071 0.7071 86.0841 -147.3443)" fill="#0066FF" width="42.766" height="42.767"/>
<polygon fill="#0066FF" points="25.284,59.436 0,44.838 0,15.643 25.284,1.043 50.568,15.643 50.568,44.838 "/>
<path fill="#0066FF" d="M90.364,55.699c-14.038,0-25.461-11.42-25.461-25.457c0-14.039,11.423-25.461,25.461-25.461
	c14.038,0,25.461,11.422,25.461,25.461C115.825,44.279,104.402,55.699,90.364,55.699"/>
<rect x="130.338" y="6.018" fill="#0066FF" width="48.444" height="48.445"/>
<path fill="#0066FF" d="M347.008,54.488h-61.296c-13.365,0-24.24-10.875-24.24-24.24c0-13.365,10.875-24.24,24.24-24.24h61.296
	c13.366,0,24.242,10.875,24.242,24.24C371.25,43.613,360.374,54.488,347.008,54.488"/>
<rect x="248.346" y="28.467" fill="#0066FF" width="14.908" height="3.562"/>
<rect x="177" y="28.467" fill="#0066FF" width="15.903" height="3.562"/>
<rect x="113.921" y="28.467" fill="#0066FF" width="18.198" height="3.562"/>
<rect x="47.487" y="28.467" fill="#0066FF" width="19.198" height="3.562"/>
<polygon fill="#FFFFFF" points="291.011,20.506 305.442,20.506 305.442,23.85 300.036,23.85 300.036,40.008 296.414,40.008 
	296.414,23.85 291.011,23.85 "/>
<polygon fill="#FFFFFF" points="321.215,20.506 321.215,23.85 312.774,23.85 312.774,27.945 319.544,27.945 319.544,31.287 
	312.774,31.287 312.774,36.662 321.494,36.662 321.494,40.008 309.15,40.008 309.15,20.506 "/>
<polygon fill="#FFFFFF" points="339.713,20.506 334.559,29.477 340.632,40.008 336.62,40.008 332.581,32.959 328.542,40.008 
	324.529,40.008 330.603,29.477 325.449,20.506 329.405,20.506 332.581,26.021 335.757,20.506 "/>
<polygon fill="#FFFFFF" points="19.015,20.723 33.278,20.723 33.278,40.225 29.658,40.225 29.658,24.176 22.636,24.176 
	22.636,40.225 19.015,40.225 "/>
<path fill="#FFFFFF" d="M149.335,20.5h11.755v19.502h-3.621V23.955h-4.875l-0.778,10.754c-0.281,3.73-2.426,5.293-6.159,5.293
	v-3.455c1.56,0,2.506-0.084,2.648-2.117L149.335,20.5z"/>
<polygon fill="#FFFFFF" points="216.674,20.723 216.674,33.592 223.832,20.723 227.648,20.723 227.648,40.225 224.027,40.225 
	224.027,27.354 216.867,40.225 213.05,40.225 213.05,20.723 "/>
<path fill="#FFFFFF" d="M99.566,30.242c0,6.773-4.266,9.98-9.204,9.98c-4.934,0-9.201-3.207-9.201-9.98
	c0-6.777,4.267-9.984,9.201-9.984C95.3,20.258,99.566,23.465,99.566,30.242 M84.843,30.242c0,4.627,2.592,6.635,5.519,6.635
	c2.929,0,5.523-2.008,5.523-6.635c0-4.631-2.594-6.639-5.523-6.639C87.436,23.604,84.843,25.611,84.843,30.242"/>
</svg>
