<?xml version="1.0" standalone="no"?>
<!DOCTYPE svg PUBLIC "-//W3C//DTD SVG 1.1//EN" "http://www.w3.org/Graphics/SVG/1.1/DTD/svg11.dtd" >
<svg xmlns="http://www.w3.org/2000/svg">
<metadata>
Generated by SVGconv.
Copyright   : Generated in 2014 by FontLab Studio. Copyright info pending.
</metadata>
<defs>
<font id="PolytechSans-Light" horiz-adv-x="565" >
<font-face units-per-em="1000" ascent="951" descent="249" />
<missing-glyph horiz-adv-x="500" />
<glyph unicode="&#13;" horiz-adv-x="268" />
<glyph unicode="&#32;" horiz-adv-x="268" />
<glyph unicode="&#33;" horiz-adv-x="311" d="M178 183h-52l-10 541h72zM103 41q0 20 14.5 35.5q14.5 15.5 34.5 15.5q20 0 35 -15.5q15 -15.5 15 -35.5q0 -20 -15 -34q-15 -14 -35 -14q-20 0 -34.5 14t-14.5 34z" />
<glyph unicode="&#34;" horiz-adv-x="278" d="M23 688q0 22 11.5 37q11.5 15 32.5 15q21 0 32.5 -15q11.5 -15 11.5 -37l-28 -202h-32zM173 688q0 22 11.5 37q11.5 15 32.5 15q21 0 32.5 -15q11.5 -15 11.5 -37l-28 -202l-32 0z" />
<glyph unicode="&#35;" horiz-adv-x="666" d="M111 497h137q11 48 25.5 103.5q14.5 55.5 26.5 104.5l51 0l-52 -208h149l53 208h51l-53 -208h115v-43h-126l-53 -212h128v-42h-139l-51 -200h-50l50 200h-149l-51 -200h-51l51 200h-115v42h126l53 212h-126zM234 242h150l54 212l-150 0z" />
<glyph unicode="&#36;" horiz-adv-x="594" d="M274 0q-42 0 -76 10q-34 10 -60.5 26.5q-26.5 16.5 -45.5 38q-19 21.5 -32 44.5l51 25q20 -41 60 -66q40 -25 103 -28l0 280l-45 15q-31 10 -58 24.5q-27 14.5 -46.5 35.5q-19.5 21 -31 49.5q-11.5 28.5 -11.5 66.5q0 34 10.5 65.5q10.5 31.5 33.5 56.5q23 25 59.5 41q36.5 16 88.5 19l0 93h49v-93q67 -3 110 -28q43 -25 75 -73l-50 -27q-18 29 -50 52.5q-32 23.5 -85 25.5l0 -272l43 -15q81 -26 121.5 -73q40.5 -47 40.5 -111q0 -35 -12 -66q-12 -31 -37.5 -55.5q-25.5 -24.5 -64 -40.5q-38.5 -16 -91.5 -20l0 -93h-49zM323 318v-268q43 2 70.5 14.5q27.5 12.5 43.5 31q16 18.5 22.5 41q6.5 22.5 6.5 44.5q0 24 -4 42.5q-4 18.5 -16.5 33.5q-12.5 15 -36 28q-23.5 13 -62.5 25zM141 533q0 -31 7.5 -52q7.5 -21 21 -36q13.5 -15 31.5 -24.5q18 -9.5 40 -16.5l33 -12v261q-38 -1 -63.5 -13q-25.5 -12 -41 -29.5q-15.5 -17.5 -22 -38t-6.5 -39.5z" />
<glyph unicode="&#37;" horiz-adv-x="665" d="M319 140q0 32 11.5 59.5q11.5 27.5 31.5 47.5q20 20 48.5 31.5q28.5 11.5 63.5 11.5q34 0 62.5 -11.5q28.5 -11.5 49 -31.5q20.5 -20 32 -47.5q11.5 -27.5 11.5 -59.5q0 -32 -11.5 -59.5q-11.5 -27.5 -32 -48q-20.5 -20.5 -49 -32q-28.5 -11.5 -62.5 -11.5q-35 0 -63.5 11.5q-28.5 11.5 -48.5 32q-20 20.5 -31.5 48q-11.5 27.5 -11.5 59.5zt0 0zM374 140q0 -44 26.5 -74.5q26.5 -30.5 73.5 -30.5q45 0 72.5 30.5q27.5 30.5 27.5 74.5q0 44 -27.5 74q-27.5 30 -72.5 30q-47 0 -73.5 -30q-26.5 -30 -26.5 -74zt0 0zM624 695l-546 -727l-39 29l547 728zM36 562q0 31 11.5 58.5q11.5 27.5 32 48q20.5 20.5 48.5 32q28 11.5 62 11.5q34 0 63 -11.5q29 -11.5 49.5 -32q20.5 -20.5 32 -48q11.5 -27.5 11.5 -58.5q0 -32 -11.5 -59.5q-11.5 -27.5 -32 -48q-20.5 -20.5 -49.5 -32q-29 -11.5 -63 -11.5q-34 0 -62 11.5q-28 11.5 -48.5 32q-20.5 20.5 -32 48q-11.5 27.5 -11.5 59.5zt0 0zM90 562q0 -44 26.5 -74q26.5 -30 73.5 -30q47 0 73.5 30q26.5 30 26.5 74q0 44 -26.5 74q-26.5 30 -73.5 30q-47 0 -73.5 -30t-26.5 -74z" />
<glyph unicode="&#38;" horiz-adv-x="657" d="M466 111q-28 -29 -54 -52q-26 -23 -52 -38.5q-26 -15.5 -53.5 -24q-27.5 -8.5 -59.5 -8.5q-53 0 -91 14.5q-38 14.5 -63 39q-25 24.5 -36.5 57q-11.5 32.5 -11.5 68.5q0 34 14 63.5q14 29.5 37.5 56q23.5 26.5 54.5 50q31 23.5 65 44.5l-44 44q-12 13 -24 29q-12 16 -21.5 35.5q-9.5 19.5 -15.5 41.5q-6 22 -5 46q4 81 54.5 122q50.5 41 135.5 41q38 0 70 -11.5q32 -11.5 55 -32.5q23 -21 36 -50.5q13 -29.5 13 -65.5q0 -26 -8.5 -48q-8.5 -22 -22.5 -41q-14 -19 -31.5 -34.5q-17.5 -15.5 -35.5 -29.5l-68 -52l168 -177q21 22 49.5 52q28.5 30 52.5 53q13 -13 21.5 -21.5q8.5 -8.5 18.5 -19.5l-103 -105l118 -126l-49 -44zM243 43q45 0 89.5 29q44.5 29 92.5 80l-178 193l-45 -35q-35 -26 -61 -58q-26 -32 -27 -82q-1 -21 6.5 -43.5q7.5 -22.5 23.5 -41q16 -18.5 40.5 -30.5q24.5 -12 58.5 -12zt0 0zM290 688q-22 0 -43 -5.5q-21 -5.5 -38 -18.5q-17 -13 -27.5 -34q-10.5 -21 -10.5 -52q0 -19 5.5 -36q5.5 -17 13.5 -31.5q8 -14.5 18 -26.5q10 -12 18 -21l44 -45l61 42q48 34 63.5 60.5q15.5 26.5 15.5 53.5q0 57 -31.5 85.5t-88.5 28.5z" />
<glyph unicode="&#39;" horiz-adv-x="168" d="M39 688q0 22 11.5 37q11.5 15 32.5 15q21 0 32.5 -15q11.5 -15 11.5 -37l-28 -202l-32 0z" />
<glyph unicode="&#40;" horiz-adv-x="341" d="M101 291q0 87 15 161q15 74 40 136q25 62 57 115q32 53 67 98l33 -16q-66 -99 -104 -219q-38 -120 -38 -275q0 -82 9.5 -151q9.5 -69 28 -128.5q18.5 -59.5 45 -112.5q26.5 -53 59.5 -102l-34 -16q-34 45 -66 97.5q-32 52.5 -57 115q-25 62.5 -40 136.5t-15 161z" />
<glyph unicode="&#41;" horiz-adv-x="341" d="M264 291q0 -87 -15 -161q-15 -74 -40 -136.5q-25 -62.5 -57 -115q-32 -52.5 -66 -97.5l-34 16q33 49 59.5 102q26.5 53 45 112.5q18.5 59.5 28 128.5q9.5 69 9.5 151q0 155 -38 275q-38 120 -104 219l33 16q34 -45 66.5 -98q32.5 -53 57.5 -115q25 -62 40 -136t15 -161z" />
<glyph unicode="&#42;" horiz-adv-x="477" d="M277 593q30 8 71.5 21.5q41.5 13.5 75.5 28.5l17 -48l-149 -51q6 -8 12.5 -17q6.5 -9 17 -22.5q10.5 -13.5 25.5 -34q15 -20.5 38 -51.5q-5 -4 -11 -8.5q-6 -4.5 -27 -21.5l-94 130q-22 -32 -45 -65q-23 -33 -45 -65h-41l91 156l-150 48l19 49l147 -50q0 38 -0.5 78q-0.5 40 -0.5 78l51 0z" />
<glyph unicode="&#43;" horiz-adv-x="576" d="M280 341v196h52v-196h200v-52h-200v-196h-52v196h-200l0 52z" />
<glyph unicode="&#44;" horiz-adv-x="183" d="M20 -150l58 102q6 11 8 17.5q2 6.5 2 12.5q0 5 -5.5 9q-5.5 4 -12.5 10q-8 6 -13.5 17q-5.5 11 -5.5 25q0 26 17 41.5q17 15.5 43 15.5q28 0 43 -18.5q15 -18.5 15 -38.5q0 -10 -3 -21q-3 -11 -11 -25l-85 -147z" />
<glyph unicode="&#45;" horiz-adv-x="331" d="M48 298v58h235l0 -58z" />
<glyph unicode="&#46;" horiz-adv-x="219" d="M53 42q0 24 15.5 40.5q15.5 16.5 38.5 16.5q25 0 41 -16.5q16 -16.5 16 -40.5q0 -23 -16 -38.5q-16 -15.5 -41 -15.5q-23 0 -38.5 15.5t-15.5 38.5z" />
<glyph unicode="&#47;" horiz-adv-x="541" d="M107 -31h-50q29 54 52 98q23 44 46.5 89.5q23.5 45.5 51 98q27.5 52.5 64 123.5q36.5 71 85.5 166q49 95 116 226l50 0z" />
<glyph unicode="&#48;" horiz-adv-x="582" d="M301 42q95 0 142.5 83.5q47.5 83.5 47.5 232.5q0 74 -12 133q-12 59 -35.5 100q-23.5 41 -59 62.5q-35.5 21.5 -83.5 21.5q-95 0 -142.5 -84q-47.5 -84 -47.5 -233q0 -149 47.5 -232.5q47.5 -83.5 142.5 -83.5zt0 0zM301 729q67 0 115.5 -30q48.5 -30 80.5 -80.5q32 -50.5 47.5 -118q15.5 -67.5 15.5 -142.5q0 -75 -15.5 -142q-15.5 -67 -47.5 -118q-32 -51 -80.5 -80.5q-48.5 -29.5 -115.5 -29.5q-67 0 -115.5 29.5q-48.5 29.5 -80.5 80.5q-32 51 -47.5 118q-15.5 67 -15.5 142q0 75 15.5 142.5q15.5 67.5 47.5 118q32 50.5 80.5 80.5t115.5 30z" />
<glyph unicode="&#49;" horiz-adv-x="582" d="M388 0h-62v643l-181 -200q-14 13 -20.5 18.5q-6.5 5.5 -18.5 17.5l216 235l66 0z" />
<glyph unicode="&#50;" horiz-adv-x="582" d="M77 0v65l293 306q15 15 28.5 31.5q13.5 16.5 24 35.5q10.5 19 17 41.5q6.5 22.5 6.5 49.5q0 31 -10 57.5q-10 26.5 -28.5 46q-18.5 19.5 -46 30.5q-27.5 11 -62.5 11q-26 0 -51.5 -7q-25.5 -7 -46.5 -22.5q-21 -15.5 -36.5 -39.5q-15.5 -24 -22.5 -58l-59 14q14 51 38.5 83q24.5 32 55 51q30.5 19 64.5 26q34 7 67 7q43 0 81 -12.5q38 -12.5 65.5 -37q27.5 -24.5 43.5 -62q16 -37.5 16 -88.5q0 -30 -10.5 -58q-10.5 -28 -26.5 -53.5q-16 -25.5 -35.5 -48.5q-19.5 -23 -37.5 -42l-265 -272h374l0 -54z" />
<glyph unicode="&#51;" horiz-adv-x="582" d="M110 142q16 -36 39 -56q23 -20 45.5 -29.5q22.5 -9.5 41 -12q18.5 -2.5 26.5 -2.5q45 0 76.5 14q31.5 14 51.5 36.5q20 22.5 29 50q9 27.5 9 54.5q0 72 -42 108.5q-42 36.5 -113 36.5h-51v56h38q45 0 73 15q28 15 43.5 36.5q15.5 21.5 21 46.5q5.5 25 5.5 46q0 27 -7.5 51q-7.5 24 -24 42q-16.5 18 -42.5 28.5q-26 10.5 -63 10.5q-17 0 -37 -3.5q-20 -3.5 -39 -15q-19 -11.5 -36 -33q-17 -21.5 -27 -57.5l-58 20q16 47 39.5 75q23.5 28 50.5 43q27 15 55.5 20q28.5 5 55.5 5q45 0 81.5 -13.5q36.5 -13.5 62.5 -37.5q26 -24 40.5 -57.5q14.5 -33.5 14.5 -74.5q0 -57 -25.5 -101q-25.5 -44 -82.5 -67q43 -11 70 -34q27 -23 41 -49.5q14 -26.5 19 -51.5q5 -25 5 -41q0 -52 -18.5 -91.5q-18.5 -39.5 -50.5 -66.5q-32 -27 -74.5 -41q-42.5 -14 -90.5 -14q-73 0 -128 31q-55 31 -82 93z" />
<glyph unicode="&#52;" horiz-adv-x="582" d="M443 201h80v-54h-80v-147h-62v147h-335v61l326 506h71zM381 201v433l-278 -433z" />
<glyph unicode="&#53;" horiz-adv-x="582" d="M471 714v-56h-269l-37 -230q12 10 24.5 18q12.5 8 28.5 14q16 6 36 9.5q20 3.5 46 3.5q55 0 98 -18.5q43 -18.5 71.5 -51q28.5 -32.5 43.5 -77q15 -44.5 15 -95.5q0 -48 -15.5 -92.5q-15.5 -44.5 -46 -78q-30.5 -33.5 -75 -53.5q-44.5 -20 -102.5 -20q-75 0 -131 32.5q-56 32.5 -87 96.5q20 8 32 12.5q12 4.5 29 11.5q21 -44 58 -71.5q37 -27.5 100 -27.5q36 0 67 14.5q31 14.5 54 39.5q23 25 36 59.5q13 34.5 13 73.5q0 40 -10.5 76q-10.5 36 -31.5 62.5q-21 26.5 -53 42q-32 15.5 -75 15.5q-32 0 -54.5 -7.5q-22.5 -7.5 -39 -19q-16.5 -11.5 -27.5 -24.5q-11 -13 -18 -24l-54 14q15 92 29.5 176q14.5 84 28.5 175z" />
<glyph unicode="&#54;" horiz-adv-x="582" d="M394 714l-181 -274q38 18 66.5 20q28.5 2 39.5 2q49 0 90.5 -17.5q41.5 -17.5 71.5 -48q30 -30.5 47 -72q17 -41.5 17 -89.5q0 -52 -17 -97.5q-17 -45.5 -48 -79q-31 -33.5 -76 -52.5q-45 -19 -100 -19q-66 0 -112.5 24q-46.5 24 -76 60q-29.5 36 -43 77q-13.5 41 -13.5 75q0 30 5.5 57q5.5 27 13.5 48.5q8 21.5 17 38.5q9 17 16 28l205 319zM127 231q0 -39 11.5 -73.5q11.5 -34.5 34 -60.5q22.5 -26 55.5 -41q33 -15 76 -15q43 0 75 15.5q32 15.5 54 41q22 25.5 33 58.5q11 33 11 68q0 40 -13.5 74q-13.5 34 -36.5 59q-23 25 -54.5 39.5q-31.5 14.5 -67.5 14.5q-43 0 -76.5 -14q-33.5 -14 -56 -38.5q-22.5 -24.5 -34 -57.5t-11.5 -70z" />
<glyph unicode="&#55;" horiz-adv-x="582" d="M520 714v-51l-300 -663h-70l299 657l-356 -1l0 58z" />
<glyph unicode="&#56;" horiz-adv-x="582" d="M496 545q0 -38 -15.5 -66.5q-15.5 -28.5 -33.5 -47.5q-21 -22 -48 -37q37 -17 63 -39q26 -22 42 -47q16 -25 23 -52.5q7 -27.5 7 -54.5q0 -49 -18.5 -88.5q-18.5 -39.5 -50 -67q-31.5 -27.5 -73.5 -42.5q-42 -15 -90 -15q-45 0 -87 13.5q-42 13.5 -74.5 40.5q-32.5 27 -52 66.5q-19.5 39.5 -19.5 91.5q0 42 13 74q13 32 33.5 55.5q20.5 23.5 44.5 39q24 15.5 45 25.5q-18 10 -35.5 24.5q-17.5 14.5 -31 34q-13.5 19.5 -22 43q-8.5 23.5 -8.5 51.5q0 41 15 74.5q15 33.5 41.5 57q26.5 23.5 61.5 36.5q35 13 76 13q41 0 76.5 -13.5q35.5 -13.5 61.5 -37.5q26 -24 41 -57.5q15 -33.5 15 -74.5zt0 0zM137 203q0 -33 11.5 -63q11.5 -30 33.5 -52q22 -22 52 -35q30 -13 68 -13q37 0 67.5 13q30.5 13 52 35q21.5 22 33 52q11.5 30 11.5 63q0 34 -12.5 63.5q-12.5 29.5 -34.5 51.5q-22 22 -52 34.5q-30 12.5 -65 12.5q-36 0 -66 -12.5q-30 -12.5 -52 -34.5q-22 -22 -34.5 -51.5q-12.5 -29.5 -12.5 -63.5zt0 0zM302 678q-33 0 -57.5 -11.5q-24.5 -11.5 -40.5 -29.5q-16 -18 -24 -41q-8 -23 -8 -47q0 -23 8 -46q8 -23 24.5 -41.5q16.5 -18.5 41 -30.5q24.5 -12 56.5 -12q32 0 56 11q24 11 40.5 29.5q16.5 18.5 25 42q8.5 23.5 8.5 47.5q0 24 -8 47q-8 23 -24.5 41q-16.5 18 -41 29.5t-56.5 11.5z" />
<glyph unicode="&#57;" horiz-adv-x="582" d="M201 0l181 274q-38 -18 -66.5 -20q-28.5 -2 -39.5 -2q-49 0 -90.5 17.5q-41.5 17.5 -71.5 48q-30 30.5 -47 72q-17 41.5 -17 89.5q0 52 17 97.5q17 45.5 48 79q31 33.5 75.5 52.5q44.5 19 100.5 19q66 0 112.5 -24q46.5 -24 76 -60q29.5 -36 43 -77q13.5 -41 13.5 -75q0 -30 -5.5 -57q-5.5 -27 -13.5 -48.5q-8 -21.5 -17 -38.5q-9 -17 -16 -28l-205 -319zM468 483q0 39 -11.5 73.5q-11.5 34.5 -34 60.5q-22.5 26 -55.5 41q-33 15 -76 15q-43 0 -75.5 -15.5q-32.5 -15.5 -54 -41q-21.5 -25.5 -32.5 -58.5q-11 -33 -11 -68q0 -40 13.5 -74q13.5 -34 36.5 -59q23 -25 54.5 -39.5q31.5 -14.5 67.5 -14.5q43 0 76.5 14q33.5 14 56 38.5q22.5 24.5 34 57.5t11.5 70z" />
<glyph unicode="&#58;" horiz-adv-x="274" d="M92 36q0 24 16 39.5q16 15.5 40 15.5q23 0 39.5 -15.5q16.5 -15.5 16.5 -39.5q0 -23 -16.5 -38.5q-16.5 -15.5 -39.5 -15.5q-24 0 -40 15.5q-16 15.5 -16 38.5zt0 0zM92 454q0 24 16 40q16 16 40 16q23 0 39.5 -16q16.5 -16 16.5 -40q0 -23 -16.5 -38.5q-16.5 -15.5 -39.5 -15.5q-24 0 -40 15.5t-16 38.5z" />
<glyph unicode="&#59;" horiz-adv-x="282" d="M94 453q0 24 16.5 40.5q16.5 16.5 40.5 16.5q25 0 42 -16.5q17 -16.5 17 -40.5q0 -23 -17 -39.5q-17 -16.5 -42 -16.5q-24 0 -40.5 16.5q-16.5 16.5 -16.5 39.5zt0 0zM63 -150l58 102q6 11 8 17.5q2 6.5 2 12.5q0 5 -5.5 9q-5.5 4 -12.5 10q-8 6 -13.5 17q-5.5 11 -5.5 25q0 26 17 41.5q17 15.5 43 15.5q28 0 43 -18.5q15 -18.5 15 -38.5q0 -10 -3 -21q-3 -11 -11 -25l-85 -147z" />
<glyph unicode="&#60;" horiz-adv-x="509" d="M40 341l417 231v-61l-348 -193q88 -48 174 -96q86 -48 174 -96l0 -62l-417 229z" />
<glyph unicode="&#61;" horiz-adv-x="613" d="M80 192v52h452v-52zM80 383v52h452l0 -52z" />
<glyph unicode="&#62;" horiz-adv-x="509" d="M469 293l-417 -229v62l348 192l-348 193v61l417 -231z" />
<glyph unicode="&#63;" horiz-adv-x="512" d="M49 655q36 53 85.5 75.5q49.5 22.5 112.5 22.5q62 0 105 -18.5q43 -18.5 70 -48.5q27 -30 39 -67.5q12 -37.5 12 -75.5q0 -44 -16.5 -80q-16.5 -36 -44 -62.5q-27.5 -26.5 -65 -43q-37.5 -16.5 -79.5 -22.5q0 -11 -1 -31.5q-1 -20.5 -1.5 -43q-0.5 -22.5 -1.5 -43.5q-1 -21 -1 -34l-53 0l-5 159q0 17 8.5 22.5q8.5 5.5 14.5 6.5q89 13 133.5 58q44.5 45 44.5 120q0 40 -12.5 68.5q-12.5 28.5 -34 46.5q-21.5 18 -50.5 26.5q-29 8.5 -62 8.5q-57 0 -93 -22q-36 -22 -57 -52zM187 41q0 20 14.5 35.5q14.5 15.5 34.5 15.5q20 0 35 -15.5q15 -15.5 15 -35.5q0 -20 -15 -34q-15 -14 -35 -14q-20 0 -34.5 14t-14.5 34z" />
<glyph unicode="&#64;" horiz-adv-x="955" d="M277 291q0 45 15 86.5q15 41.5 42.5 73q27.5 31.5 67 50q39.5 18.5 89.5 18.5q15 0 33 -3.5q18 -3.5 36.5 -13q18.5 -9.5 36 -26q17.5 -16.5 30.5 -41.5l10 71h48l-38 -236q0 -3 -1 -12.5q-1 -9.5 -1 -29.5q0 -34 14.5 -53.5q14.5 -19.5 46.5 -19.5q33 0 60 19.5q27 19.5 46.5 51q19.5 31.5 30 72q10.5 40.5 10.5 82.5q0 78 -26.5 138.5q-26.5 60.5 -74 102q-47.5 41.5 -112 63q-64.5 21.5 -139.5 21.5q-76 0 -144.5 -27q-68.5 -27 -120.5 -78q-52 -51 -82.5 -125.5q-30.5 -74.5 -30.5 -169.5q0 -88 29.5 -157q29.5 -69 81 -117q51.5 -48 120.5 -73.5q69 -25.5 148 -25.5q50 0 111 11.5q61 11.5 133 49.5l20 -43q-61 -31 -129.5 -48q-68.5 -17 -134.5 -17q-98 0 -179 31q-81 31 -139.5 87q-58.5 56 -91 133q-32.5 77 -32.5 169q0 99 34 181q34 82 93.5 140q59.5 58 140.5 90q81 32 175 32q92 0 166 -27.5q74 -27.5 126.5 -77q52.5 -49.5 80.5 -117q28 -67.5 28 -148.5q0 -55 -16 -103.5q-16 -48.5 -43 -85q-27 -36.5 -63.5 -57.5q-36.5 -21 -77.5 -21q-19 0 -35.5 3.5q-16.5 3.5 -30 12.5q-13.5 9 -23.5 24.5q-10 15.5 -16 40.5q-18 -29 -39 -45q-21 -16 -42 -24q-21 -8 -41.5 -10q-20.5 -2 -37.5 -2q-35 0 -65 13q-30 13 -51.5 37q-21.5 24 -33.5 57q-12 33 -12 73zt0 0zM489 470q-33 0 -60.5 -13.5q-27.5 -13.5 -47 -37q-19.5 -23.5 -30.5 -56q-11 -32.5 -11 -71.5q0 -63 30 -97.5q30 -34.5 84 -34.5q31 0 58 13q27 13 47.5 37q20.5 24 32.5 57q12 33 12 72q1 57 -27 94t-88 37z" />
<glyph unicode="&#65;" horiz-adv-x="651" d="M495 186h-340l-69 -186h-69q34 93 68 183q34 90 67.5 179q33.5 89 67 179q33.5 90 66.5 183l76 0l271 -724h-68zM174 241h302l-104 279q-10 26 -21.5 60.5q-11.5 34.5 -25.5 76.5q-11 -37 -22 -70q-11 -33 -25 -69z" />
<glyph unicode="&#66;" horiz-adv-x="617" d="M320 724q45 0 84.5 -12q39.5 -12 69 -35q29.5 -23 46 -56q16.5 -33 16.5 -75q0 -12 -2 -33.5q-2 -21.5 -12 -45.5q-10 -24 -32 -48q-22 -24 -62 -42q40 -13 67 -32q27 -19 42.5 -42.5q15.5 -23.5 22 -50q6.5 -26.5 6.5 -55.5q0 -45 -17.5 -81q-17.5 -36 -49 -62q-31.5 -26 -75.5 -40q-44 -14 -97 -14h-241v724zM315 401q69 0 111.5 36q42.5 36 42.5 102q0 68 -43.5 98.5q-43.5 30.5 -114.5 30.5h-161v-267zM312 56q86 0 134.5 35q48.5 35 48.5 110q0 28 -9.5 54q-9.5 26 -30 46.5q-20.5 20.5 -52 32.5q-31.5 12 -74.5 12h-179l0 -290z" />
<glyph unicode="&#67;" horiz-adv-x="747" d="M701 159q-18 -38 -45 -70q-27 -32 -63.5 -55.5q-36.5 -23.5 -83 -37q-46.5 -13.5 -101.5 -13.5q-72 0 -136.5 25.5q-64.5 25.5 -113 74q-48.5 48.5 -77.5 119q-29 70.5 -29 161.5q0 90 29 160.5q29 70.5 77.5 118.5q48.5 48 112.5 73q64 25 133 25q53 0 99 -13q46 -13 83.5 -36q37.5 -23 66 -54.5q28.5 -31.5 46.5 -68.5q-10 -3 -17 -6q-7 -3 -13.5 -5q-6.5 -2 -13 -4.5q-6.5 -2.5 -15.5 -5.5q-15 30 -38 55q-23 25 -53 44q-30 19 -66.5 29.5q-36.5 10.5 -79.5 10.5q-57 0 -108 -20.5q-51 -20.5 -89 -61q-38 -40.5 -60.5 -101q-22.5 -60.5 -22.5 -140.5q0 -79 24 -139.5q24 -60.5 63.5 -102q39.5 -41.5 91 -62.5q51.5 -21 106.5 -21q44 0 81 11q37 11 66.5 30q29.5 19 51.5 45q22 26 37 57z" />
<glyph unicode="&#68;" horiz-adv-x="730" d="M86 0v724h230q69 0 133 -22.5q64 -22.5 113.5 -67.5q49.5 -45 79 -113q29.5 -68 29.5 -159q0 -92 -29.5 -160q-29.5 -68 -79 -113q-49.5 -45 -113.5 -67q-64 -22 -133 -22zM299 56q57 0 111 15q54 15 96 50q42 35 67.5 94q25.5 59 25.5 147q0 88 -25.5 147q-25.5 59 -67 94q-41.5 35 -95 50q-53.5 15 -110.5 15h-151l0 -612z" />
<glyph unicode="&#69;" horiz-adv-x="549" d="M86 724h407v-56h-343v-266h317v-56h-317v-290h362v-56l-426 0z" />
<glyph unicode="&#70;" horiz-adv-x="533" d="M86 0v724h421v-56h-357v-278h303v-56h-303l0 -334z" />
<glyph unicode="&#71;" horiz-adv-x="785" d="M664 0v134h-2q-38 -74 -103.5 -112q-65.5 -38 -165.5 -38q-68 0 -130 24.5q-62 24.5 -109 72q-47 47.5 -74.5 117q-27.5 69.5 -27.5 158.5q0 94 29 166q29 72 78 120.5q49 48.5 112.5 73q63.5 24.5 132.5 24.5q104 0 177 -47.5q73 -47.5 113 -125.5q-19 -6 -32 -11.5q-13 -5.5 -27 -10.5q-16 30 -38 55q-22 25 -50.5 44q-28.5 19 -64 29.5q-35.5 10.5 -78.5 10.5q-56 0 -106.5 -19.5q-50.5 -19.5 -89 -59.5q-38.5 -40 -61.5 -100.5q-23 -60.5 -23 -141.5q0 -82 22.5 -143q22.5 -61 61 -102q38.5 -41 89 -61.5q50.5 -20.5 107.5 -20.5q52 0 97.5 18.5q45.5 18.5 79.5 51.5q34 33 53.5 79q19.5 46 19.5 101v17h-234v56h298l0 -359z" />
<glyph unicode="&#72;" horiz-adv-x="694" d="M544 0v351h-394v-351h-64v724h64v-317h394v317h64l0 -724z" />
<glyph unicode="&#73;" horiz-adv-x="242" d="M89 0v724h64l0 -724z" />
<glyph unicode="&#74;" horiz-adv-x="522" d="M96 156q13 -55 48.5 -85.5q35.5 -30.5 87.5 -30.5q68 0 103 40q35 40 35 135v509h64v-521q0 -107 -55.5 -163q-55.5 -56 -149.5 -56q-72 0 -124 38.5q-52 38.5 -72 117.5z" />
<glyph unicode="&#75;" horiz-adv-x="616" d="M530 0l-272 349l-106 -109v-240h-64v724h64v-406l362 406h81l-293 -326l310 -398z" />
<glyph unicode="&#76;" horiz-adv-x="521" d="M88 0v724h64v-668h351l0 -56z" />
<glyph unicode="&#77;" horiz-adv-x="850" d="M697 0v355q0 11 0.5 33.5q0.5 22.5 1 51q0.5 28.5 1.5 59.5q1 31 1.5 59q0.5 28 1 49.5q0.5 21.5 1.5 30.5l-4 0l-251 -550h-50l-251 551h-4q0 -26 1 -49q1 -23 2 -48q1 -25 1.5 -55q0.5 -30 0.5 -69v-418h-64v724h93l250 -550l249 550h84l0 -724z" />
<glyph unicode="&#78;" horiz-adv-x="738" d="M592 0l-440 630v-630h-64v724h73l425 -606v606h64l0 -724z" />
<glyph unicode="&#79;" horiz-adv-x="824" d="M412 40q60 0 112.5 20q52.5 20 91.5 60.5q39 40.5 61.5 100.5q22.5 60 22.5 141q0 81 -22.5 141.5q-22.5 60.5 -61.5 100.5q-39 40 -91.5 60q-52.5 20 -112.5 20q-60 0 -112.5 -20q-52.5 -20 -91.5 -60q-39 -40 -61.5 -100.5q-22.5 -60.5 -22.5 -141.5q0 -81 22.5 -141q22.5 -60 61.5 -100.5q39 -40.5 91.5 -60.5q52.5 -20 112.5 -20zt0 0zM412 740q73 0 138.5 -24.5q65.5 -24.5 114.5 -72.5q49 -48 78 -118.5q29 -70.5 29 -162.5q0 -92 -29 -162.5q-29 -70.5 -78 -118.5q-49 -48 -114.5 -72.5q-65.5 -24.5 -138.5 -24.5q-74 0 -139 24.5q-65 24.5 -114.5 72.5q-49.5 48 -78 118.5q-28.5 70.5 -28.5 162.5q0 92 28.5 162.5q28.5 70.5 78 118.5q49.5 48 114.5 72.5t139 24.5z" />
<glyph unicode="&#80;" horiz-adv-x="588" d="M151 315v-315h-64v724h235q52 0 93 -15q41 -15 69 -42q28 -27 42.5 -65q14.5 -38 14.5 -83q0 -45 -15 -82.5q-15 -37.5 -43 -64.5q-28 -27 -69 -42q-41 -15 -92 -15zM310 371q75 0 117 38.5q42 38.5 42 111.5q0 72 -42.5 109.5q-42.5 37.5 -116.5 37.5h-159l0 -297z" />
<glyph unicode="&#81;" horiz-adv-x="828" d="M412 740q73 0 138.5 -24.5q65.5 -24.5 114.5 -72.5q49 -48 78 -118.5q29 -70.5 29 -162.5q0 -87 -25 -153.5q-25 -66.5 -69 -114.5l83 -88q-14 -12 -23 -22q-9 -10 -20 -21l-85 90q-47 -35 -103 -52q-56 -17 -118 -17q-74 0 -139 24.5q-65 24.5 -114.5 72.5q-49.5 48 -78 118.5q-28.5 70.5 -28.5 162.5q0 92 28.5 162.5q28.5 70.5 78 118.5q49.5 48 114.5 72.5q65 24.5 139 24.5zt0 0zM412 40q51 0 96.5 14.5q45.5 14.5 82.5 43.5l-152 162q13 12 23.5 20.5q10.5 8.5 21.5 19.5l150 -159q31 40 48.5 94.5q17.5 54.5 17.5 126.5q0 81 -22.5 141.5q-22.5 60.5 -61.5 100.5q-39 40 -91.5 60q-52.5 20 -112.5 20q-60 0 -112.5 -20q-52.5 -20 -91.5 -60q-39 -40 -61.5 -100.5q-22.5 -60.5 -22.5 -141.5q0 -81 22.5 -141q22.5 -60 61.5 -100.5q39 -40.5 91.5 -60.5t112.5 -20z" />
<glyph unicode="&#82;" horiz-adv-x="601" d="M333 724q49 0 88 -15q39 -15 65 -41q26 -26 40 -62.5q14 -36.5 14 -78.5q0 -35 -11.5 -67q-11.5 -32 -35 -58q-23.5 -26 -58 -44.5q-34.5 -18.5 -79.5 -24.5l197 -333h-76l-192 328h-135v-328h-64v724zM317 384q68 0 109.5 36q41.5 36 41.5 107q0 72 -41.5 106.5q-41.5 34.5 -109.5 34.5h-167l0 -284z" />
<glyph unicode="&#83;" horiz-adv-x="554" d="M423 601q-25 41 -61 62q-36 21 -93 21q-38 0 -64.5 -12.5q-26.5 -12.5 -43 -31.5q-16.5 -19 -24 -42.5q-7.5 -23.5 -7.5 -45.5q0 -32 9.5 -55.5q9.5 -23.5 27.5 -40.5q18 -17 43.5 -29q25.5 -12 56.5 -22l84 -27q71 -23 114 -67q43 -44 43 -115q0 -45 -16.5 -84q-16.5 -39 -47 -67.5q-30.5 -28.5 -75 -45q-44.5 -16.5 -99.5 -16.5q-92 0 -144.5 30.5q-52.5 30.5 -83.5 83.5l57 34q25 -40 64.5 -65q39.5 -25 107.5 -25q77 0 121.5 37.5q44.5 37.5 44.5 105.5q0 29 -8.5 49.5q-8.5 20.5 -25.5 36q-17 15.5 -42.5 27.5q-25.5 12 -59.5 23l-84 28q-71 23 -114 71q-43 48 -43 124q0 42 14 78.5q14 36.5 41 63q27 26.5 66 41.5q39 15 89 15q83 0 129.5 -27q46.5 -27 78.5 -77z" />
<glyph unicode="&#84;" horiz-adv-x="572" d="M318 668v-668h-64v668h-240v56h544l0 -56z" />
<glyph unicode="&#85;" horiz-adv-x="681" d="M595 724v-475q0 -69 -19 -119q-19 -50 -52.5 -83q-33.5 -33 -80.5 -48.5q-47 -15.5 -103 -15.5q-55 0 -101.5 16q-46.5 16 -80.5 48.5q-34 32.5 -53 82.5q-19 50 -19 119v475h64v-481q0 -97 47 -150.5q47 -53.5 143 -53.5q96 0 143.5 49q47.5 49 47.5 155l0 481z" />
<glyph unicode="&#86;" horiz-adv-x="648" d="M322 91q55 158 118.5 316.5q63.5 158.5 120.5 316.5l70 0q-34 -93 -68.5 -183q-34.5 -90 -68.5 -179.5q-34 -89.5 -68 -179q-34 -89.5 -68 -182.5l-75 0l-269 724l71 0z" />
<glyph unicode="&#87;" horiz-adv-x="1017" d="M19 724h69l185 -624q45 150 95.5 311q50.5 161 95.5 313l81 0l193 -623l188 623h67l-217 -724h-70l-207 637l-195 -637l-70 0z" />
<glyph unicode="&#88;" horiz-adv-x="608" d="M339 379l259 -379h-79l-217 329l-221 -329h-73l257 378q-56 84 -115.5 172.5q-59.5 88.5 -116.5 173.5l78 0l194 -297l197 297l73 0z" />
<glyph unicode="&#89;" horiz-adv-x="605" d="M10 724h74l150 -243q8 -14 15.5 -25q7.5 -11 15.5 -24.5q8 -13.5 17.5 -30.5q9.5 -17 23.5 -42q20 38 38.5 68q18.5 30 41.5 70q35 57 70.5 113.5q35.5 56.5 69.5 113.5l69 0l-261 -416v-308h-64l0 308z" />
<glyph unicode="&#90;" horiz-adv-x="562" d="M24 0v51l422 617h-400v56h484v-46l-424 -622h422l0 -56z" />
<glyph unicode="&#91;" horiz-adv-x="351" d="M136 -188v928h181v-48h-126v-832h126l0 -48z" />
<glyph unicode="&#92;" horiz-adv-x="522" d="M449 -44l-423 822h52l424 -822z" />
<glyph unicode="&#93;" horiz-adv-x="351" d="M34 -188v48h126v832h-126v48h181l0 -928z" />
<glyph unicode="&#94;" horiz-adv-x="602" d="M483 429l-173 290l-175 -290h-52q3 5 5.5 9.5q2.5 4.5 9 14q6.5 9.5 17.5 28q11 18.5 31 51q20 32.5 50.5 83q30.5 50.5 75.5 124.5l76 0l185 -310z" />
<glyph unicode="&#95;" horiz-adv-x="557" d="M12 -188v36h534l0 -36z" />
<glyph unicode="&#96;" horiz-adv-x="238" d="M30 725h97l82 -145l-50 0z" />
<glyph unicode="&#97;" horiz-adv-x="555" d="M74 414q23 48 71 78q48 30 131 30q97 0 148 -44q51 -44 51 -129v-224q0 -37 1 -70q1 -33 3 -55l-56 0q-2 28 -3 47q-1 19 -1 35l-1 0q-22 -35 -49.5 -54q-27.5 -19 -54.5 -28q-27 -9 -51 -10.5q-24 -1.5 -39 -1.5q-82 0 -126.5 40q-44.5 40 -44.5 102q0 39 13.5 67.5q13.5 28.5 38 47q24.5 18.5 59.5 29.5q35 11 78 16l173 20v51q0 53 -36.5 81q-36.5 28 -106.5 28q-60 0 -91 -17.5q-31 -17.5 -47 -56.5zM415 263l-162 -19q-28 -3 -52.5 -10q-24.5 -7 -43 -19.5q-18.5 -12.5 -29.5 -32.5q-11 -20 -11 -50q0 -19 6 -36q6 -17 20 -30q14 -13 35.5 -20.5q21.5 -7.5 53.5 -7.5q43 0 77 12.5q34 12.5 57.5 34.5q23.5 22 36 51.5q12.5 29.5 12.5 63.5z" />
<glyph unicode="&#98;" horiz-adv-x="634" d="M82 766h60v-351q23 34 49 55.5q26 21.5 52 32.5q26 11 51.5 15q25.5 4 46.5 4q57 0 101 -21q44 -21 74 -57q30 -36 45 -84.5q15 -48.5 15 -104.5q0 -56 -16.5 -104.5q-16.5 -48.5 -47 -84.5q-30.5 -36 -74.5 -57q-44 -21 -99 -21q-23 0 -48.5 3q-25.5 3 -52 14q-26.5 11 -52 31.5q-25.5 20.5 -47.5 55.5l0 -92h-57zM331 470q-48 0 -83.5 -17.5q-35.5 -17.5 -59 -47q-23.5 -29.5 -35 -68.5q-11.5 -39 -11.5 -82q0 -45 12 -84q12 -39 35.5 -68.5q23.5 -29.5 57.5 -46q34 -16.5 79 -16.5q49 0 84 17.5q35 17.5 57 47q22 29.5 32.5 68.5q10.5 39 10.5 82q0 43 -10 82q-10 39 -31.5 68.5q-21.5 29.5 -55.5 47t-82 17.5z" />
<glyph unicode="&#99;" horiz-adv-x="564" d="M472 378q-25 43 -64 67.5q-39 24.5 -94 24.5q-44 0 -79.5 -15q-35.5 -15 -60.5 -43q-25 -28 -38.5 -68q-13.5 -40 -13.5 -89q0 -50 13.5 -89.5q13.5 -39.5 38.5 -67.5q25 -28 60.5 -43q35.5 -15 79.5 -15q57 0 96 23.5q39 23.5 65 66.5l52 -27q-32 -52 -85 -83.5q-53 -31.5 -134 -31.5q-56 0 -102 20.5q-46 20.5 -79 56q-33 35.5 -51 84.5q-18 49 -18 106q0 57 18 106q18 49 51 84.5q33 35.5 79 56q46 20.5 102 20.5q42 0 75 -8q33 -8 59 -22.5q26 -14.5 47 -36q21 -21.5 38 -48.5l-55 -29z" />
<glyph unicode="&#100;" horiz-adv-x="632" d="M550 0h-56v92q-22 -35 -47.5 -55.5q-25.5 -20.5 -51.5 -31.5q-26 -11 -52 -14q-26 -3 -48 -3q-56 0 -99.5 21q-43.5 21 -74.5 57q-31 36 -47 84.5q-16 48.5 -16 104.5q0 56 16.5 104.5q16.5 48.5 47 84.5q30.5 36 74 57q43.5 21 97.5 21q21 0 46 -2.5q25 -2.5 51 -13q26 -10.5 51.5 -30.5q25.5 -20 48.5 -54l0 344h60zM303 470q-48 0 -82.5 -17.5q-34.5 -17.5 -56 -47q-21.5 -29.5 -31.5 -68.5q-10 -39 -10 -82q0 -43 10.5 -82q10.5 -39 33 -68.5q22.5 -29.5 57.5 -47q35 -17.5 84 -17.5q45 0 79 16.5q34 16.5 57 46q23 29.5 34.5 68.5q11.5 39 11.5 84q0 43 -11 82q-11 39 -34.5 68.5q-23.5 29.5 -58.5 47t-83 17.5z" />
<glyph unicode="&#101;" horiz-adv-x="599" d="M482 292q-3 40 -15.5 73q-12.5 33 -34.5 56.5q-22 23.5 -53.5 36.5q-31.5 13 -72.5 13q-42 0 -74.5 -14q-32.5 -14 -55.5 -38q-23 -24 -36.5 -56.5q-13.5 -32.5 -16.5 -70.5zM517 88q-34 -45 -83.5 -72.5q-49.5 -27.5 -121.5 -27.5q-64 0 -112 22q-48 22 -79.5 58.5q-31.5 36.5 -47 85q-15.5 48.5 -15.5 101.5q0 53 17 101.5q17 48.5 48.5 85q31.5 36.5 77.5 58.5q46 22 104 22q62 0 107.5 -22q45.5 -22 75.5 -58.5q30 -36.5 44.5 -84q14.5 -47.5 14.5 -97.5v-18h-425q3 -94 52 -148q49 -54 142 -54q51 0 91.5 21.5q40.5 21.5 66.5 56.5z" />
<glyph unicode="&#102;" horiz-adv-x="297" d="M299 708q-10 2 -22 3q-12 1 -22 1q-23 0 -39.5 -5q-16.5 -5 -28 -18q-11.5 -13 -17 -35q-5.5 -22 -5.5 -55v-89h121v-50h-121v-460h-60v460h-87v50h87v88q0 168 143 168q12 0 29.5 -1.5q17.5 -1.5 29.5 -3.5z" />
<glyph unicode="&#103;" horiz-adv-x="529" d="M422 451q24 -27 29 -54.5q5 -27.5 5 -45.5q0 -34 -12 -64.5q-12 -30.5 -35 -53q-23 -22.5 -58 -35.5q-35 -13 -80 -13q-16 0 -35 3q-19 3 -34 6q-22 -10 -34 -21.5q-12 -11.5 -12 -29.5q0 -20 15 -31q15 -11 53 -13l120 -9q41 -3 69.5 -13.5q28.5 -10.5 46 -27q17.5 -16.5 25.5 -37.5q8 -21 8 -44q0 -32 -15 -60.5q-15 -28.5 -44 -49.5q-29 -21 -72 -33.5q-43 -12.5 -99 -12.5q-63 0 -104 13q-41 13 -64.5 32.5q-23.5 19.5 -33 41.5q-9.5 22 -9.5 41q0 14 3 29.5q3 15.5 12 31.5q9 16 26 31q17 15 46 27q-18 10 -28 21.5q-10 11.5 -14.5 22q-4.5 10.5 -5 19q-0.5 8.5 -0.5 13.5q0 19 12.5 40.5q12.5 21.5 50.5 43.5q-24 16 -38.5 34q-14.5 18 -22 36q-7.5 18 -10 35q-2.5 17 -2.5 32q0 35 12.5 65.5q12.5 30.5 37 53q24.5 22.5 60 35q35.5 12.5 81.5 12.5q32 0 58.5 -6q26.5 -6 49.5 -17l120 0v-48zM113 -58q0 -82 155 -82q46 0 77.5 9q31.5 9 50 22.5q18.5 13.5 26.5 30.5q8 17 8 33q0 12 -2.5 24.5q-2.5 12.5 -12.5 22q-10 9.5 -29.5 16.5q-19.5 7 -52.5 9l-128 9q-46 -8 -69 -35q-23 -27 -23 -59zt0 0zM143 357q0 -26 8.5 -48.5q8.5 -22.5 25 -39.5q16.5 -17 40.5 -26.5q24 -9.5 54 -9.5q67 0 95 36q28 36 28 88q0 54 -33 85.5q-33 31.5 -90 31.5q-58 0 -93 -31.5t-35 -85.5z" />
<glyph unicode="&#104;" horiz-adv-x="567" d="M134 0h-60v766h60v-339q19 31 43 50q24 19 48 29q24 10 46 13q22 3 37 3q89 0 139 -51q50 -51 50 -146v-325h-60v300q0 92 -35.5 131q-35.5 39 -110.5 39q-33 0 -62 -13q-29 -13 -50 -36.5q-21 -23.5 -33 -55.5q-12 -32 -12 -70z" />
<glyph unicode="&#105;" horiz-adv-x="212" d="M76 0v510h60v-510zM56 660q0 21 14 34.5q14 13.5 37 13.5q21 0 35 -13.5q14 -13.5 14 -34.5q0 -23 -14 -37.5q-14 -14.5 -35 -14.5q-23 0 -37 14.5t-14 37.5z" />
<glyph unicode="&#106;" horiz-adv-x="222" d="M86 510h60v-507q0 -42 -8.5 -77q-8.5 -35 -28.5 -60q-20 -25 -53.5 -39q-33.5 -14 -83.5 -14l0 51q54 1 84 26q30 25 30 92zM64 660q0 21 14 34.5q14 13.5 37 13.5q21 0 35 -13.5q14 -13.5 14 -34.5q0 -23 -14 -37.5q-14 -14.5 -35 -14.5q-23 0 -37 14.5t-14 37.5z" />
<glyph unicode="&#107;" horiz-adv-x="512" d="M270 295l223 -295h-76l-189 250l-89 -92l1 1v-159h-60v766h60v-538q10 11 17.5 19.5q7.5 8.5 17.5 20q10 11.5 25.5 28q15.5 16.5 41 44.5q25.5 28 63.5 69q38 41 93 101l74 0z" />
<glyph unicode="&#108;" horiz-adv-x="222" d="M82 0v766h60l0 -766z" />
<glyph unicode="&#109;" horiz-adv-x="888" d="M416 0v297q0 88 -30.5 129.5q-30.5 41.5 -106.5 42.5q-69 1 -103 -46q-34 -47 -34 -131v-292h-60v510h56v-77h2q17 31 39 49q22 18 44.5 27q22.5 9 43.5 11q21 2 36 2q30 0 52.5 -6q22.5 -6 40.5 -18q18 -12 32 -30q14 -18 27 -42q19 31 41 50q22 19 44.5 29.5q22.5 10.5 46 13.5q23.5 3 45.5 3q90 0 134 -51.5q44 -51.5 44 -145.5v-325h-60v297q0 88 -29 130q-29 42 -107 42q-69 0 -103.5 -45.5q-34.5 -45.5 -34.5 -125.5l0 -298z" />
<glyph unicode="&#110;" horiz-adv-x="576" d="M142 0h-60v510h55v-87h2q21 33 45 52.5q24 19.5 47.5 30q23.5 10.5 44.5 13.5q21 3 37 3q89 0 137 -51q48 -51 48 -146v-325h-60v300q0 92 -34 131q-34 39 -109 39q-33 0 -61.5 -13.5q-28.5 -13.5 -48.5 -37q-20 -23.5 -31.5 -56q-11.5 -32.5 -11.5 -70.5z" />
<glyph unicode="&#111;" horiz-adv-x="646" d="M58 255q0 57 19 106q19 49 54 85q35 36 84 56q49 20 108 20q60 0 108.5 -20q48.5 -20 83.5 -56q35 -36 54 -85q19 -49 19 -106q0 -57 -19 -106q-19 -49 -54 -85q-35 -36 -83.5 -56q-48.5 -20 -108.5 -20q-59 0 -108 20q-49 20 -84 56q-35 36 -54 85q-19 49 -19 106zt0 0zM122 254q0 -49 16 -88.5q16 -39.5 43.5 -67.5q27.5 -28 64 -43q36.5 -15 77.5 -15q41 0 77.5 15q36.5 15 64 43q27.5 28 43.5 68q16 40 16 89q0 49 -16 89q-16 40 -43.5 68q-27.5 28 -64 43q-36.5 15 -77.5 15q-41 0 -77.5 -15.5q-36.5 -15.5 -64 -43.5q-27.5 -28 -43.5 -68t-16 -89z" />
<glyph unicode="&#112;" horiz-adv-x="631" d="M82 510h56v-92q22 35 47.5 55.5q25.5 20.5 52 31.5q26.5 11 52 14q25.5 3 48.5 3q55 0 98.5 -21q43.5 -21 74 -57q30.5 -36 46.5 -85q16 -49 16 -104q0 -56 -15 -104.5q-15 -48.5 -45 -84.5q-30 -36 -74 -57q-44 -21 -101 -21q-21 0 -46 3q-25 3 -50.5 13.5q-25.5 10.5 -51 30.5q-25.5 20 -48.5 55l0 -278h-60zM332 40q47 0 80.5 17.5q33.5 17.5 55 47q21.5 29.5 31.5 68.5q10 39 10 82q0 43 -10.5 82q-10.5 39 -32.5 68.5q-22 29.5 -57 47q-35 17.5 -84 17.5q-45 0 -79 -16.5q-34 -16.5 -57 -46q-23 -29.5 -35 -68.5q-12 -39 -12 -84q0 -43 11.5 -82q11.5 -39 35.5 -68.5q24 -29.5 59.5 -47t83.5 -17.5z" />
<glyph unicode="&#113;" horiz-adv-x="638" d="M543 -188h-60v278q-23 -35 -48 -55q-25 -20 -50.5 -30.5q-25.5 -10.5 -50.5 -13.5q-25 -3 -46 -3q-54 0 -98 21q-44 21 -74.5 57q-30.5 36 -47 84.5q-16.5 48.5 -16.5 104.5q0 55 16 104q16 49 46.5 85q30.5 36 74 57q43.5 21 99.5 21q22 0 48 -3q26 -3 52 -14q26 -11 51.5 -31.5q25.5 -20.5 47.5 -55.5l0 92h56zM294 40q48 0 83.5 17.5q35.5 17.5 59 47q23.5 29.5 35 68.5q11.5 39 11.5 82q0 45 -11.5 84q-11.5 39 -34.5 68.5q-23 29.5 -57 46q-34 16.5 -79 16.5q-49 0 -84 -17.5q-35 -17.5 -57.5 -47q-22.5 -29.5 -33 -68.5q-10.5 -39 -10.5 -82q0 -43 10 -82q10 -39 31.5 -68.5q21.5 -29.5 55.5 -47t81 -17.5z" />
<glyph unicode="&#114;" horiz-adv-x="337" d="M139 417q24 46 66 73.5q42 27.5 108 27.5h11v-58h-12q-44 0 -76 -12.5q-32 -12.5 -53 -40.5q-21 -28 -31 -73.5q-10 -45.5 -10 -110.5v-223h-60v510l57 0z" />
<glyph unicode="&#115;" horiz-adv-x="460" d="M347 411q-19 26 -49 42.5q-30 16.5 -67 16.5q-29 0 -48.5 -7.5q-19.5 -7.5 -31.5 -19.5q-12 -12 -17 -27q-5 -15 -5 -30q0 -36 22.5 -54q22.5 -18 58.5 -31l73 -25q28 -11 52 -22.5q24 -11.5 40.5 -28q16.5 -16.5 26 -38.5q9.5 -22 9.5 -52q0 -28 -11 -54.5q-11 -26.5 -34 -47q-23 -20.5 -58 -33q-35 -12.5 -83 -12.5q-36 0 -64.5 9q-28.5 9 -51 23q-22.5 14 -39 32.5q-16.5 18.5 -28.5 37.5l54 29q21 -36 54.5 -57.5q33.5 -21.5 80.5 -21.5q51 0 83.5 22.5q32.5 22.5 32.5 65.5q0 35 -20 53q-20 18 -58 32l-87 30q-24 9 -45.5 20.5q-21.5 11.5 -37 28.5q-15.5 17 -24.5 40q-9 23 -9 55q0 28 11.5 52.5q11.5 24.5 33 43q21.5 18.5 52 29q30.5 10.5 68.5 10.5q32 0 58 -6.5q26 -6.5 46.5 -17.5q20.5 -11 36 -25q15.5 -14 27.5 -30z" />
<glyph unicode="&#116;" horiz-adv-x="273" d="M157 510h111v-50h-111v-460h-60v460h-98v50h98v145l60 0z" />
<glyph unicode="&#117;" horiz-adv-x="583" d="M441 510h60v-510h-55v87h-2q-21 -33 -45.5 -52.5q-24.5 -19.5 -48.5 -30q-24 -10.5 -45.5 -13.5q-21.5 -3 -37.5 -3q-89 0 -139 51q-50 51 -50 146v325h60v-300q0 -92 36 -131q36 -39 111 -39q33 0 61.5 13q28.5 13 49.5 36.5q21 23.5 33 55.5q12 32 12 70z" />
<glyph unicode="&#118;" horiz-adv-x="501" d="M83 510l130 -329q11 -26 20 -52q9 -26 19 -58q3 10 6.5 20.5q3.5 10.5 8 23.5q4.5 13 11 30.5q6.5 17.5 16.5 42.5l123 322h62l-198 -510h-60l-203 510z" />
<glyph unicode="&#119;" horiz-adv-x="787" d="M432 510l109 -335q6 -18 9.5 -30.5q3.5 -12.5 6 -22q2.5 -9.5 4.5 -18q2 -8.5 5 -20.5l4 17q4 16 8.5 34.5q4.5 18.5 13.5 46.5q26 80 53 164q27 84 53 164l66 0q-22 -66 -45.5 -134.5q-23.5 -68.5 -46.5 -135.5q-20 -60 -40.5 -120q-20.5 -60 -40.5 -120l-60 0l-137 433q-33 -108 -68 -216.5q-35 -108.5 -68 -216.5l-60 0l-176 510h67l114 -338q8 -21 12 -37q4 -16 9 -30q2 -6 4.5 -9.5q2.5 -3.5 4.5 -10.5q7 23 14 48q7 25 14 45q24 81 51 166q27 85 52 166z" />
<glyph unicode="&#120;" horiz-adv-x="503" d="M214 268q-43 58 -88 121q-45 63 -88 121l76 0l146 -200q35 50 72 100q37 50 72 100l69 0l-179 -245l78 -107l115 -158h-76l-163 222l-161 -222l-69 0z" />
<glyph unicode="&#121;" horiz-adv-x="498" d="M223 44l-205 466h67l174 -392l167 392h62l-301 -698l-68 0z" />
<glyph unicode="&#122;" horiz-adv-x="482" d="M44 0v41l314 417h-283v52h368v-40l-317 -418h314l0 -52z" />
<glyph unicode="&#123;" horiz-adv-x="391" d="M140 274q36 -10 60.5 -38q24.5 -28 24.5 -79v-194q0 -30 4 -50.5q4 -20.5 15.5 -33q11.5 -12.5 31.5 -18q20 -5.5 53 -5.5l0 -45q-75 1 -117.5 29.5q-42.5 28.5 -42.5 99.5v194q0 31 -6 51.5q-6 20.5 -18 33.5q-12 13 -31 20q-19 7 -44 11l0 51q25 4 44 11q19 7 31 20q12 13 18 33.5q6 20.5 6 51.5v194q0 36 11 60q11 24 31.5 39q20.5 15 50 22q29.5 7 67.5 8l0 -45q-33 0 -53 -5.5q-20 -5.5 -31.5 -18q-11.5 -12.5 -15.5 -33q-4 -20.5 -4 -50.5v-194q0 -51 -24.5 -79q-24.5 -28 -60.5 -38z" />
<glyph unicode="&#124;" horiz-adv-x="317" d="M141 -111v926h54l0 -926z" />
<glyph unicode="&#125;" horiz-adv-x="391" d="M259 277q-36 10 -60.5 38q-24.5 28 -24.5 79v194q0 30 -4 50.5q-4 20.5 -15.5 33q-11.5 12.5 -31.5 18q-20 5.5 -53 5.5l0 45q37 -1 67 -8q30 -7 50.5 -22q20.5 -15 31.5 -39q11 -24 11 -60v-194q0 -31 6 -51.5q6 -20.5 18 -33.5q12 -13 30.5 -20q18.5 -7 44.5 -11l0 -51q-26 -4 -44.5 -11q-18.5 -7 -30.5 -20q-12 -13 -18 -33.5q-6 -20.5 -6 -51.5v-194q0 -71 -42.5 -99.5q-42.5 -28.5 -117.5 -29.5l0 45q33 0 53 5.5q20 5.5 31.5 18q11.5 12.5 15.5 33q4 20.5 4 50.5v194q0 51 24.5 79q24.5 28 60.5 38z" />
<glyph unicode="&#126;" horiz-adv-x="650" d="M305 312q-14 6 -23 10.5q-9 4.5 -18.5 7.5q-9.5 3 -22.5 5q-13 2 -34 3q-28 -2 -54 -15q-26 -13 -46 -30l-27 27q25 34 60.5 56q35.5 22 76.5 22q31 0 60.5 -11q29.5 -11 55.5 -24q30 -15 60 -26.5q30 -11.5 62 -11.5q29 0 58.5 13q29.5 13 51.5 32q13 -11 16.5 -15.5q3.5 -4.5 8.5 -10.5q-23 -35 -58 -57q-35 -22 -76 -22q-23 0 -50 8q-27 8 -50 18z" />
<glyph unicode="&#166;" horiz-adv-x="317" d="M197 839v-367h-56v367zM197 246v-367h-56l0 367z" />
<glyph unicode="&#167;" horiz-adv-x="597" d="M518 261q0 -43 -28 -81.5q-28 -38.5 -71 -66.5q27 -19 43 -37.5q16 -18.5 24 -35.5q8 -17 10.5 -33.5q2.5 -16.5 2.5 -31.5q0 -41 -16 -73.5q-16 -32.5 -42.5 -56q-26.5 -23.5 -61 -36q-34.5 -12.5 -72.5 -12.5q-76 0 -126.5 33.5q-50.5 33.5 -69.5 92.5l57 15q17 -47 52.5 -71q35.5 -24 86.5 -24q57 0 92 32q35 32 35 92q0 34 -16 62.5q-16 28.5 -48 45.5l-101 53q-29 14 -59.5 32q-30.5 18 -55.5 40.5q-25 22.5 -41 49.5q-16 27 -16 60q0 45 27 83.5q27 38.5 72 59.5q-27 19 -43 37.5q-16 18.5 -24 36q-8 17.5 -10.5 34q-2.5 16.5 -2.5 30.5q0 41 16 73.5q16 32.5 42.5 55q26.5 22.5 61.5 34.5q35 12 73 12q161 0 195 -125q-19 -4 -30 -7q-11 -3 -27 -7q-18 46 -53.5 69.5q-35.5 23.5 -84.5 23.5q-28 0 -52 -8.5q-24 -8.5 -41 -25q-17 -16.5 -27 -39.5q-10 -23 -10 -51q0 -32 18.5 -59.5q18.5 -27.5 49.5 -48.5q21 -14 48 -27q27 -13 52 -25q30 -15 60.5 -32.5q30.5 -17.5 55 -38.5q24.5 -21 40 -46.5q15.5 -25.5 15.5 -57.5zt0 0zM235 427q-34 -22 -57.5 -49q-23.5 -27 -23.5 -61q0 -44 30 -74q30 -30 73 -51l122 -59q32 25 56 54q24 29 24 62q0 39 -25 65.5q-25 26.5 -58 43.5l-85 43z" />
<glyph unicode="&#169;" horiz-adv-x="892" d="M445 508q-26 0 -48 -10q-22 -10 -38 -29q-16 -19 -25.5 -46q-9.5 -27 -9.5 -61q0 -69 35 -108q35 -39 89 -39q40 0 67 18.5q27 18.5 43 50.5q12 -3 25.5 -7.5q13.5 -4.5 27.5 -9.5q-9 -21 -24 -40q-15 -19 -36 -33.5q-21 -14.5 -47 -23q-26 -8.5 -56 -8.5q-39 0 -73.5 14q-34.5 14 -60.5 39.5q-26 25.5 -41 62.5q-15 37 -15 84q0 46 15 83q15 37 40.5 63q25.5 26 59.5 39.5q34 13.5 72 13.5q60 0 103.5 -29.5q43.5 -29.5 60.5 -77.5q-8 -2 -19 -5.5q-11 -3.5 -37 -11.5q-34 71 -108 71zt0 0zM126 362q0 -71 24 -131q24 -60 67 -104q43 -44 101 -69q58 -25 126 -25q69 0 127.5 25q58.5 25 101 69q42.5 44 67 104q24.5 60 24.5 131q0 70 -24.5 130.5q-24.5 60.5 -67 104q-42.5 43.5 -101 68.5q-58.5 25 -127.5 25q-68 0 -126 -25q-58 -25 -101 -68.5q-43 -43.5 -67 -104q-24 -60.5 -24 -130.5zt0 0zM76 362q0 78 28.5 146.5q28.5 68.5 78 119q49.5 50.5 117 79.5q67.5 29 144.5 29q78 0 146 -29q68 -29 118 -79.5q50 -50.5 79 -119q29 -68.5 29 -146.5q0 -79 -29 -147q-29 -68 -79 -118.5q-50 -50.5 -118 -79.5q-68 -29 -146 -29q-77 0 -144.5 29q-67.5 29 -117 79.5q-49.5 50.5 -78 118.5t-28.5 147z" />
<glyph unicode="&#171;" horiz-adv-x="498" d="M427 93l-218 225l218 226l31 -24l-165 -202l165 -199zM247 93l-218 225l217 225l31 -23l-165 -202l165 -201z" />
<glyph unicode="&#172;" horiz-adv-x="630" d="M515 168v205h-426v48h483l0 -253z" />
<glyph unicode="&#173;" horiz-adv-x="473" d="M98 298v48h311l0 -48z" />
<glyph unicode="&#174;" horiz-adv-x="754" d="M361 409h-37v-137h-57v329h124q51 0 79 -26q28 -26 28 -69q0 -33 -20 -57.5q-20 -24.5 -59 -35.5q20 -34 41 -70.5q21 -36.5 40 -70.5l-67 0zM380 454q27 0 44 14.5q17 14.5 17 37.5q0 50 -61 50h-56v-102zM73 435q0 65 23.5 121q23.5 56 64 97.5q40.5 41.5 96 65.5q55.5 24 118.5 24q64 0 120 -24q56 -24 97.5 -65.5q41.5 -41.5 65 -97.5q23.5 -56 23.5 -121q0 -65 -23.5 -121q-23.5 -56 -65 -97.5q-41.5 -41.5 -97.5 -65q-56 -23.5 -120 -23.5q-63 0 -118.5 23.5q-55.5 23.5 -96 65q-40.5 41.5 -64 97.5q-23.5 56 -23.5 121zt0 0zM119 435q0 -57 19.5 -105q19.5 -48 54 -83.5q34.5 -35.5 81 -55.5q46.5 -20 101.5 -20q55 0 102.5 20q47.5 20 82 55.5q34.5 35.5 54 83.5q19.5 48 19.5 105q0 57 -19.5 105.5q-19.5 48.5 -54 84q-34.5 35.5 -82 55.5q-47.5 20 -102.5 20q-55 0 -101.5 -20q-46.5 -20 -81 -55.5q-34.5 -35.5 -54 -84t-19.5 -105.5z" />
<glyph unicode="&#176;" horiz-adv-x="387" d="M63 609q0 28 10 51.5q10 23.5 27.5 41q17.5 17.5 41.5 27.5q24 10 52 10q27 0 51 -10q24 -10 42.5 -27.5q18.5 -17.5 29 -41q10.5 -23.5 10.5 -51.5q0 -28 -10.5 -51.5q-10.5 -23.5 -29 -41q-18.5 -17.5 -43 -27q-24.5 -9.5 -51.5 -9.5q-27 0 -51 9.5q-24 9.5 -41.5 27q-17.5 17.5 -27.5 41q-10 23.5 -10 51.5zt0 0zM99 610q0 -42 26.5 -70.5q26.5 -28.5 68.5 -28.5q44 0 69.5 28.5q25.5 28.5 25.5 70.5q0 44 -25.5 71q-25.5 27 -69.5 27q-42 0 -68.5 -27t-26.5 -71z" />
<glyph unicode="&#177;" horiz-adv-x="627" d="M312 431v186h48v-186h214v-44h-214v-184h-48v184h-214v44zM574 73v-45h-476l0 45z" />
<glyph unicode="&#181;" horiz-adv-x="592" d="M457 90q-20 -36 -44 -56q-24 -20 -49 -30q-25 -10 -49 -12.5q-24 -2.5 -45 -2.5q-7 0 -21.5 2q-14.5 2 -32 8q-17.5 6 -35.5 16q-18 10 -30 27l1 -230h-56v698h56v-300q0 -85 31 -129.5q31 -44.5 108 -44.5q48 0 80 19.5q32 19.5 51 53.5q19 34 27 80q8 46 8 98v223h56v-510h-54l0 90z" />
<glyph unicode="&#182;" horiz-adv-x="659" d="M365 -188h-60v499q-50 0 -95 13q-45 13 -79.5 39q-34.5 26 -55 63.5q-20.5 37.5 -20.5 87.5q0 51 17.5 90q17.5 39 48.5 65.5q31 26.5 73.5 40q42.5 13.5 92.5 13.5h330v-49h-77v-862h-60v862l-115 0z" />
<glyph unicode="&#183;" horiz-adv-x="339" d="M123 355q0 25 17 42q17 17 40 17q26 0 43 -17q17 -17 17 -42q0 -24 -17 -40.5q-17 -16.5 -43 -16.5q-23 0 -40 16.5t-17 40.5z" />
<glyph unicode="&#187;" horiz-adv-x="479" d="M29 119l165 199l-165 202l31 24l218 -226l-218 -225zM210 117l165 201l-165 202l31 23l217 -225l-218 -225z" />
<glyph unicode="&#1025;" horiz-adv-x="549" d="M136 840q0 21 14 34.5q14 13.5 36 13.5q22 0 35.5 -13.5q13.5 -13.5 13.5 -34.5q0 -23 -13.5 -37q-13.5 -14 -35.5 -14q-22 0 -36 14q-14 14 -14 37zt0 0zM342 840q0 21 14 34.5q14 13.5 35 13.5q23 0 37 -13.5q14 -13.5 14 -34.5q0 -23 -14 -37q-14 -14 -37 -14q-21 0 -35 14q-14 14 -14 37zt0 0zM86 724h407v-56h-343v-266h317v-56h-317v-290h362v-56l-426 0z" />
<glyph unicode="&#1026;" horiz-adv-x="772" d="M497 39h9q33 0 59.5 8.5q26.5 8.5 44.5 28.5q18 20 28 53q10 33 10 83v28q0 38 -6.5 71q-6.5 33 -24.5 57q-18 24 -50 38q-32 14 -83 14q-41 0 -75 -8.5q-34 -8.5 -76 -25.5l0 -386h-64v669h-229v55h544v-55h-251v-229q30 9 52.5 15.5q22.5 6.5 42 10q19.5 3.5 38 5q18.5 1.5 41.5 1.5q56 0 95 -16q39 -16 63.5 -44.5q24.5 -28.5 35.5 -69q11 -40.5 11 -89.5v-57q0 -57 -14.5 -97q-14.5 -40 -41.5 -65q-27 -25 -65 -36q-38 -11 -85 -11l-9 0z" />
<glyph unicode="&#1027;" horiz-adv-x="505" d="M486 724v-56h-335v-668h-64v724zM328 756h-55l104 147l83 0z" />
<glyph unicode="&#1028;" horiz-adv-x="763" d="M648 562q-32 54 -89.5 88q-57.5 34 -138.5 34q-51 0 -98.5 -17.5q-47.5 -17.5 -85.5 -52q-38 -34.5 -63.5 -86.5q-25.5 -52 -32.5 -121l351 0v-56h-351q3 -78 27 -136.5q24 -58.5 63 -97q39 -38.5 89.5 -58q50.5 -19.5 105.5 -19.5q44 0 79 9.5q35 9.5 63 26.5q28 17 49 40q21 23 36 50l59 -23q-36 -72 -108 -115.5q-72 -43.5 -178 -43.5q-75 0 -140.5 25q-65.5 25 -113.5 73.5q-48 48.5 -75.5 119q-27.5 70.5 -27.5 161.5q0 90 29 160.5q29 70.5 78 118.5q49 48 113 73q64 25 133 25q103 0 174.5 -42.5q71.5 -42.5 109.5 -111.5z" />
<glyph unicode="&#1029;" horiz-adv-x="582" d="M446 601q-25 41 -61 62q-36 21 -93 21q-38 0 -64.5 -12.5q-26.5 -12.5 -43 -31.5q-16.5 -19 -24 -42.5q-7.5 -23.5 -7.5 -45.5q0 -32 10 -55q10 -23 28.5 -40q18.5 -17 44 -29q25.5 -12 56.5 -22l84 -27q71 -23 113 -67.5q42 -44.5 42 -115.5q0 -45 -16.5 -84q-16.5 -39 -47 -67.5q-30.5 -28.5 -75 -45q-44.5 -16.5 -99.5 -16.5q-92 0 -144.5 30.5q-52.5 30.5 -83.5 83.5l57 34q25 -40 64.5 -65q39.5 -25 107.5 -25q77 0 121.5 37.5q44.5 37.5 44.5 105.5q0 29 -8.5 49.5q-8.5 20.5 -25.5 36q-17 15.5 -42.5 27.5q-25.5 12 -59.5 23l-84 28q-71 23 -114 71q-43 48 -43 124q0 42 14 78.5q14 36.5 41 63q27 26.5 66 41.5q39 15 89 15q83 0 129.5 -27q46.5 -27 78.5 -77z" />
<glyph unicode="&#1030;" horiz-adv-x="306" d="M124 0v724h64l0 -724z" />
<glyph unicode="&#1031;" horiz-adv-x="306" d="M124 0v724h64v-724zM34 848q0 21 13.5 34q13.5 13 34.5 13q21 0 34.5 -13q13.5 -13 13.5 -34q0 -21 -13.5 -35q-13.5 -14 -34.5 -14q-21 0 -34.5 14q-13.5 14 -13.5 35zt0 0zM182 848q0 21 13.5 34q13.5 13 35.5 13q21 0 34.5 -13q13.5 -13 13.5 -34q0 -21 -13.5 -35q-13.5 -14 -34.5 -14q-22 0 -35.5 14t-13.5 35z" />
<glyph unicode="&#1032;" horiz-adv-x="556" d="M120 156q13 -55 48.5 -85.5q35.5 -30.5 87.5 -30.5q68 0 103 40q35 40 35 135v509h66v-521q0 -107 -56.5 -163q-56.5 -56 -150.5 -56q-72 0 -124 38.5q-52 38.5 -72 117.5z" />
<glyph unicode="&#1033;" horiz-adv-x="1031" d="M557 666h-252l-7 -119q0 -6 -1 -14.5q-1 -8.5 -1 -14.5q-7 -109 -17.5 -208.5q-10.5 -99.5 -34.5 -174.5q-23 -62 -71 -101.5q-48 -39.5 -125 -39.5h-11v57q47 1 77.5 22q30.5 21 49.5 52q19 31 28.5 66.5q9.5 35.5 14.5 65.5q4 27 8.5 64.5q4.5 37.5 8.5 80q4 42.5 7 87q3 44.5 5 86.5q2 38 4 74.5q2 36.5 4 74.5l377 0v-314h141q66 0 112.5 -15.5q46.5 -15.5 76 -42.5q29.5 -27 43 -64q13.5 -37 13.5 -81q0 -44 -13.5 -81.5q-13.5 -37.5 -43 -65.5q-29.5 -28 -76 -44q-46.5 -16 -112.5 -16h-205zM761 55q46 0 79.5 12q33.5 12 54.5 32.5q21 20.5 31 48q10 27.5 10 59.5q0 32 -10 59.5q-10 27.5 -31 47.5q-21 20 -54 31q-33 11 -79 11h-141l0 -301z" />
<glyph unicode="&#1034;" horiz-adv-x="1025" d="M605 724v-314h134q66 0 112.5 -15.5q46.5 -15.5 76 -42.5q29.5 -27 43 -64q13.5 -37 13.5 -81q0 -44 -13.5 -81.5q-13.5 -37.5 -43 -65.5q-29.5 -28 -76 -44q-46.5 -16 -112.5 -16h-198v356h-365v-356h-64v724h64v-314h365v314zM738 55q46 0 79.5 12q33.5 12 54.5 32.5q21 20.5 31 48q10 27.5 10 59.5q0 32 -10 59.5q-10 27.5 -31 47.5q-21 20 -54 31q-33 11 -79 11h-134l0 -301z" />
<glyph unicode="&#1035;" horiz-adv-x="780" d="M648 0v250q0 39 -5.5 70.5q-5.5 31.5 -23 53.5q-17.5 22 -49.5 34q-32 12 -86 12q-41 0 -75 -8.5q-34 -8.5 -76 -25.5l0 -386h-64v669h-229v55h544v-55h-251v-229q30 9 52.5 15.5q22.5 6.5 42 10q19.5 3.5 38 5q18.5 1.5 41.5 1.5q59 0 98.5 -13.5q39.5 -13.5 63 -39.5q23.5 -26 33.5 -64.5q10 -38.5 10 -87.5l0 -267z" />
<glyph unicode="&#1036;" horiz-adv-x="624" d="M317 756h-57l103 146h81zM158 374l349 350h82l-346 -345l369 -379h-92zM150 0h-64v724l64 0z" />
<glyph unicode="&#1038;" horiz-adv-x="598" d="M266 181l-253 543h71l217 -474l216 474h69l-345 -740h-70zM447 889q-8 -60 -48.5 -87.5q-40.5 -27.5 -100.5 -27.5q-60 0 -100.5 27.5q-40.5 27.5 -48.5 87.5l56 0q8 -39 35.5 -53q27.5 -14 57.5 -14q30 0 57.5 14q27.5 14 35.5 53z" />
<glyph unicode="&#1039;" horiz-adv-x="740" d="M346 0h-230v724h65v-669h395v669h64v-724h-229v-160l-65 0z" />
<glyph unicode="&#1040;" horiz-adv-x="651" d="M495 186h-340l-69 -186h-67q34 93 68 183q34 90 67.5 179q33.5 89 67 179q33.5 90 66.5 183l76 0l270 -724h-69zM174 241h302l-104 279q-10 26 -21.5 60.5q-11.5 34.5 -25.5 76.5q-11 -37 -22 -70q-11 -33 -25 -69z" />
<glyph unicode="&#1041;" horiz-adv-x="606" d="M494 724v-56h-344v-251h162q65 0 111.5 -16q46.5 -16 76 -44.5q29.5 -28.5 43.5 -66.5q14 -38 14 -82q0 -44 -14 -81.5q-14 -37.5 -43.5 -66q-29.5 -28.5 -76 -44.5q-46.5 -16 -111.5 -16h-226v724zM311 56q46 0 79 12q33 12 54 32.5q21 20.5 31 48q10 27.5 10 59.5q0 32 -9.5 60q-9.5 28 -30.5 49q-21 21 -54 33q-33 12 -79 12h-162l0 -306z" />
<glyph unicode="&#1042;" horiz-adv-x="617" d="M320 724q45 0 85 -12q40 -12 70 -35q30 -23 47 -56q17 -33 17 -75q0 -12 -2.5 -33.5q-2.5 -21.5 -13 -45.5q-10.5 -24 -33 -48q-22.5 -24 -62.5 -42q40 -13 67 -32q27 -19 43 -42.5q16 -23.5 22.5 -50q6.5 -26.5 6.5 -55.5q0 -45 -17.5 -81q-17.5 -36 -49 -62q-31.5 -26 -76 -40q-44.5 -14 -97.5 -14h-241v724zM315 401q69 0 111.5 36q42.5 36 42.5 102q0 68 -43.5 98.5q-43.5 30.5 -114.5 30.5h-161v-267zM312 56q86 0 134.5 35q48.5 35 48.5 110q0 28 -9.5 54q-9.5 26 -30 46.5q-20.5 20.5 -52 32.5q-31.5 12 -74.5 12h-179l0 -290z" />
<glyph unicode="&#1043;" horiz-adv-x="484" d="M86 0v724h384v-56h-320l0 -668z" />
<glyph unicode="&#1044;" horiz-adv-x="636" d="M546 53h89v-221h-61v168h-513v-168h-61v221h73q39 79 62 156.5q23 77.5 35 153.5q12 76 16 150q4 74 6 145q0 17 0.5 33q0.5 16 1.5 33l352 0zM251 572q-2 -41 -6.5 -97q-4.5 -56 -15.5 -123q-11 -67 -31 -143q-20 -76 -54 -156l338 0v615l-227 0z" />
<glyph unicode="&#1045;" horiz-adv-x="549" d="M86 724h407v-56h-343v-266h317v-56h-317v-290h362v-56l-426 0z" />
<glyph unicode="&#1046;" horiz-adv-x="902" d="M488 374l298 350h79l-297 -343l322 -381h-84zM483 0h-64v724h64zM96 0h-84l322 381l-297 343h79l298 -350z" />
<glyph unicode="&#1047;" horiz-adv-x="592" d="M233 407h43q74 0 121 36.5q47 36.5 47 107.5q0 65 -44 99q-44 34 -111 34q-27 0 -52.5 -4.5q-25.5 -4.5 -48 -16.5q-22.5 -12 -43 -34.5q-20.5 -22.5 -36.5 -58.5l-61 24q14 30 34 57q20 27 48.5 46.5q28.5 19.5 66.5 31q38 11.5 87 11.5q54 0 96.5 -13.5q42.5 -13.5 71.5 -38q29 -24.5 44 -57.5q15 -33 15 -72q0 -19 -3 -43q-3 -24 -14.5 -48q-11.5 -24 -33.5 -46q-22 -22 -61 -37q66 -18 102.5 -65.5q36.5 -47.5 36.5 -119.5q0 -24 -9.5 -61q-9.5 -37 -37 -71.5q-27.5 -34.5 -77.5 -59q-50 -24.5 -132 -24.5q-27 0 -61 5q-34 5 -67.5 20.5q-33.5 15.5 -64.5 45.5q-31 30 -52 80l61 26q11 -25 26 -47q15 -22 37 -38.5q22 -16.5 52.5 -26q30.5 -9.5 72.5 -9.5q88 0 134 42.5q46 42.5 46 113.5q0 77 -44 117q-44 40 -133 40l-56 0z" />
<glyph unicode="&#1048;" horiz-adv-x="708" d="M86 0v724h64v-625l402 625h70v-724h-64v625l-403 -625z" />
<glyph unicode="&#1049;" horiz-adv-x="708" d="M86 0v724h64v-625l402 625h70v-724h-64v625l-403 -625zM503 889q-8 -60 -48.5 -87.5q-40.5 -27.5 -100.5 -27.5q-60 0 -100.5 27.5q-40.5 27.5 -48.5 87.5l56 0q8 -39 35.5 -53q27.5 -14 57.5 -14q30 0 57.5 14q27.5 14 35.5 53z" />
<glyph unicode="&#1050;" horiz-adv-x="624" d="M158 374l349 350h82l-346 -345l369 -379h-92zM150 0h-64v724l64 0z" />
<glyph unicode="&#1051;" horiz-adv-x="665" d="M579 724v-724h-64v666h-244l-9 -148q-7 -109 -17.5 -208.5q-10.5 -99.5 -34.5 -174.5q-23 -62 -71.5 -101.5q-48.5 -39.5 -125.5 -39.5h-10v57q47 1 77.5 20.5q30.5 19.5 49.5 48.5q19 29 28 63q9 34 14 64q4 27 8.5 66q4.5 39 8.5 83.5q4 44.5 7.5 90.5q3.5 46 5.5 88q2 38 4 74.5q2 36.5 4 74.5z" />
<glyph unicode="&#1052;" horiz-adv-x="849" d="M697 0v355q0 11 0.5 33.5q0.5 22.5 1 51q0.5 28.5 1.5 59.5q1 31 1.5 59q0.5 28 1 49.5q0.5 21.5 1.5 30.5l-4 0l-251 -550h-50l-251 551h-4q0 -26 1 -49q1 -23 2 -48q1 -25 1.5 -55q0.5 -30 0.5 -69v-418h-64v724h93l250 -550l249 550h84l0 -724z" />
<glyph unicode="&#1053;" horiz-adv-x="694" d="M544 0v351h-394v-351h-64v724h64v-317h394v317h64l0 -724z" />
<glyph unicode="&#1054;" horiz-adv-x="824" d="M412 40q60 0 112.5 20q52.5 20 91.5 60.5q39 40.5 61.5 100.5q22.5 60 22.5 141q0 81 -22.5 141.5q-22.5 60.5 -61.5 100.5q-39 40 -91.5 60q-52.5 20 -112.5 20q-60 0 -112.5 -20q-52.5 -20 -91.5 -60q-39 -40 -61.5 -100.5q-22.5 -60.5 -22.5 -141.5q0 -81 22.5 -141q22.5 -60 61.5 -100.5q39 -40.5 91.5 -60.5q52.5 -20 112.5 -20zt0 0zM412 740q73 0 138.5 -24.5q65.5 -24.5 114.5 -72.5q49 -48 78 -118.5q29 -70.5 29 -162.5q0 -92 -29 -162.5q-29 -70.5 -78 -118.5q-49 -48 -114.5 -72.5q-65.5 -24.5 -138.5 -24.5q-74 0 -139 24.5q-65 24.5 -114.5 72.5q-49.5 48 -78 118.5q-28.5 70.5 -28.5 162.5q0 92 28.5 162.5q28.5 70.5 78 118.5q49.5 48 114.5 72.5t139 24.5z" />
<glyph unicode="&#1055;" horiz-adv-x="680" d="M530 0v668h-380v-668h-64v724h508l0 -724z" />
<glyph unicode="&#1056;" horiz-adv-x="588" d="M151 315v-315h-64v724h235q52 0 93 -15q41 -15 69 -42q28 -27 42.5 -65q14.5 -38 14.5 -83q0 -45 -15 -82.5q-15 -37.5 -43 -64.5q-28 -27 -69 -42q-41 -15 -92 -15zM310 371q75 0 117 38.5q42 38.5 42 111.5q0 72 -42.5 109.5q-42.5 37.5 -116.5 37.5h-159l0 -297z" />
<glyph unicode="&#1057;" horiz-adv-x="747" d="M701 159q-18 -38 -45 -70q-27 -32 -63.5 -55.5q-36.5 -23.5 -83 -37q-46.5 -13.5 -101.5 -13.5q-72 0 -136.5 25.5q-64.5 25.5 -113 74q-48.5 48.5 -77.5 119q-29 70.5 -29 161.5q0 90 29 160.5q29 70.5 77.5 118.5q48.5 48 112.5 73q64 25 133 25q53 0 99 -13q46 -13 83.5 -36q37.5 -23 66 -54.5q28.5 -31.5 46.5 -68.5q-10 -3 -17 -6q-7 -3 -13.5 -5q-6.5 -2 -13 -4.5q-6.5 -2.5 -15.5 -5.5q-15 30 -38 55q-23 25 -53 44q-30 19 -66.5 29.5q-36.5 10.5 -79.5 10.5q-57 0 -108 -20.5q-51 -20.5 -89 -61q-38 -40.5 -60.5 -101q-22.5 -60.5 -22.5 -140.5q0 -79 24 -139.5q24 -60.5 63.5 -102q39.5 -41.5 91 -62.5q51.5 -21 106.5 -21q44 0 81 11q37 11 66.5 30q29.5 19 51.5 45q22 26 37 57z" />
<glyph unicode="&#1058;" horiz-adv-x="572" d="M318 668v-668h-64v668h-240v56h544l0 -56z" />
<glyph unicode="&#1059;" horiz-adv-x="598" d="M266 181l-253 543h71l217 -474l216 474h69l-345 -740l-70 0z" />
<glyph unicode="&#1060;" horiz-adv-x="768" d="M416 639q75 0 131.5 -20q56.5 -20 95 -55q38.5 -35 58 -83q19.5 -48 19.5 -104q0 -56 -19.5 -104.5q-19.5 -48.5 -58 -83.5q-38.5 -35 -95 -55q-56.5 -20 -131.5 -20l0 -114h-64v114q-75 0 -131.5 20q-56.5 20 -95 55q-38.5 35 -58 83.5q-19.5 48.5 -19.5 104.5q0 56 19.5 104q19.5 48 58 83q38.5 35 95 55q56.5 20 131.5 20l0 113h64zM416 168q75 0 120.5 19q45.5 19 70.5 49q25 30 33 67.5q8 37.5 8 73.5q0 36 -8 73q-8 37 -33 67q-25 30 -70.5 49q-45.5 19 -120.5 19zM352 585q-75 0 -120.5 -19q-45.5 -19 -70.5 -49q-25 -30 -33 -67q-8 -37 -8 -73q0 -36 8 -73.5q8 -37.5 33 -67.5q25 -30 70.5 -49q45.5 -19 120.5 -19z" />
<glyph unicode="&#1061;" horiz-adv-x="608" d="M339 379l259 -379h-79l-217 329l-221 -329h-73l257 378q-56 84 -115.5 172.5q-59.5 88.5 -116.5 173.5l78 0l194 -297l197 297l73 0z" />
<glyph unicode="&#1062;" horiz-adv-x="700" d="M86 0v724h64v-668h389v668h64v-668h96v-224h-61l0 168z" />
<glyph unicode="&#1063;" horiz-adv-x="615" d="M121 724v-205q0 -46 8 -78.5q8 -32.5 28.5 -53.5q20.5 -21 56 -30.5q35.5 -9.5 91.5 -9.5q39 0 78 6q39 6 81 25l0 346h64v-724h-64v322q-48 -18 -90 -24.5q-42 -6.5 -77 -6.5q-60 0 -105 11q-45 11 -75 36q-30 25 -45 65q-15 40 -15 99l0 222z" />
<glyph unicode="&#1064;" horiz-adv-x="936" d="M150 724v-668h286v668h64v-668h286v668h64v-724h-764l0 724z" />
<glyph unicode="&#1065;" horiz-adv-x="946" d="M150 724v-668h286v668h64v-668h286v668h64v-668h95v-224h-61v168h-798l0 724z" />
<glyph unicode="&#1066;" horiz-adv-x="693" d="M7 724h273v-301h135q65 0 111.5 -17q46.5 -17 76 -46.5q29.5 -29.5 43.5 -68.5q14 -39 14 -83q0 -44 -14 -81.5q-14 -37.5 -43.5 -66q-29.5 -28.5 -76 -44.5q-46.5 -16 -111.5 -16h-199v668h-209zM414 56q46 0 79 12q33 12 54 32.5q21 20.5 31 48q10 27.5 10 59.5q0 32 -9.5 61q-9.5 29 -30.5 50.5q-21 21.5 -54 34.5q-33 13 -79 13h-135l0 -311z" />
<glyph unicode="&#1067;" horiz-adv-x="789" d="M639 -2v724h64v-724zM150 724v-301h135q65 0 111.5 -17q46.5 -17 76 -46.5q29.5 -29.5 43.5 -68.5q14 -39 14 -83q0 -44 -14 -81.5q-14 -37.5 -43.5 -66q-29.5 -28.5 -76 -44.5q-46.5 -16 -111.5 -16h-199v724zM284 56q46 0 79 12q33 12 54 32.5q21 20.5 31 48q10 27.5 10 59.5q0 32 -9.5 61q-9.5 29 -30.5 50.5q-21 21.5 -54 34.5q-33 13 -79 13h-135l0 -311z" />
<glyph unicode="&#1068;" horiz-adv-x="574" d="M150 724v-301h146q65 0 111.5 -17q46.5 -17 76 -46.5q29.5 -29.5 43.5 -68.5q14 -39 14 -83q0 -44 -14 -81.5q-14 -37.5 -43.5 -66q-29.5 -28.5 -76 -44.5q-46.5 -16 -111.5 -16h-210v724zM295 56q46 0 79 12q33 12 54 32.5q21 20.5 31 48q10 27.5 10 59.5q0 32 -9.5 61q-9.5 29 -30.5 50.5q-21 21.5 -54 34.5q-33 13 -79 13h-146l0 -311z" />
<glyph unicode="&#1069;" horiz-adv-x="740" d="M51 586q38 69 109.5 111.5q71.5 42.5 174.5 42.5q69 0 133 -25q64 -25 113 -73q49 -48 78 -118.5q29 -70.5 29 -160.5q0 -91 -27.5 -161.5q-27.5 -70.5 -75.5 -119q-48 -48.5 -113.5 -73.5q-65.5 -25 -140.5 -25q-106 0 -178 43.5q-72 43.5 -108 115.5l59 23q15 -27 36 -50q21 -23 49 -40q28 -17 63 -26.5q35 -9.5 79 -9.5q55 0 105.5 19.5q50.5 19.5 89.5 58q39 38.5 63 97q24 58.5 27 136.5l-351 0v56h351q-7 69 -32.5 121q-25.5 52 -63.5 86.5q-38 34.5 -85.5 52q-47.5 17.5 -98.5 17.5q-81 0 -138.5 -34q-57.5 -34 -89.5 -88z" />
<glyph unicode="&#1070;" horiz-adv-x="1017" d="M615 740q73 0 137 -24.5q64 -24.5 111 -72.5q47 -48 74 -118.5q27 -70.5 27 -162.5q0 -92 -27 -162.5q-27 -70.5 -74 -118q-47 -47.5 -111 -72q-64 -24.5 -137 -24.5q-71 0 -132.5 23.5q-61.5 23.5 -108.5 69.5q-47 46 -75.5 114q-28.5 68 -32.5 158l-117 0v-350h-64v724h64v-317h118q9 81 39.5 143.5q30.5 62.5 76.5 104.5q46 42 105 63.5q59 21.5 127 21.5zt0 0zM615 41q60 0 111 20q51 20 88 60q37 40 58 100q21 60 21 141q0 81 -21 141.5q-21 60.5 -58 100.5q-37 40 -88 60q-51 20 -111 20q-60 0 -111 -20q-51 -20 -88 -60q-37 -40 -58 -100.5q-21 -60.5 -21 -141.5q0 -81 21 -141q21 -60 58 -100q37 -40 88 -60t111 -20z" />
<glyph unicode="&#1071;" horiz-adv-x="629" d="M543 724v-724h-64v326h-147l-186 -326h-80l196 331q-53 7 -88 25.5q-35 18.5 -56 45q-21 26.5 -30 58.5q-9 32 -9 67q0 42 15 78.5q15 36.5 43 62.5q28 26 68 41q40 15 90 15zM479 668h-184q-30 0 -57 -8.5q-27 -8.5 -46.5 -26q-19.5 -17.5 -31 -44q-11.5 -26.5 -11.5 -62.5q0 -35 12 -62q12 -27 33.5 -45.5q21.5 -18.5 51 -28q29.5 -9.5 63.5 -9.5l170 0z" />
<glyph unicode="&#1072;" horiz-adv-x="555" d="M74 414q23 48 71 78q48 30 131 30q97 0 148 -44q51 -44 51 -129v-224q0 -37 1 -70q1 -33 3 -55l-56 0q-2 28 -3 47q-1 19 -1 35l-1 0q-22 -35 -49.5 -54q-27.5 -19 -54.5 -28q-27 -9 -51 -10.5q-24 -1.5 -39 -1.5q-82 0 -126.5 40q-44.5 40 -44.5 102q0 39 13.5 67.5q13.5 28.5 38 47q24.5 18.5 59.5 29.5q35 11 78 16l173 20v51q0 53 -36.5 81q-36.5 28 -106.5 28q-60 0 -91 -17.5q-31 -17.5 -47 -56.5zM415 263l-162 -19q-28 -3 -52.5 -10q-24.5 -7 -43 -19.5q-18.5 -12.5 -29.5 -32.5q-11 -20 -11 -50q0 -19 6 -36q6 -17 20 -30q14 -13 35.5 -20.5q21.5 -7.5 53.5 -7.5q43 0 77 12.5q34 12.5 57.5 34.5q23.5 22 36 51.5q12.5 29.5 12.5 63.5z" />
<glyph unicode="&#1073;" horiz-adv-x="633" d="M121 400q18 34 43 57.5q25 23.5 53 38q28 14.5 58 20.5q30 6 58 6q64 0 110 -22.5q46 -22.5 75.5 -59.5q29.5 -37 43 -84.5q13.5 -47.5 13.5 -97.5q0 -58 -19.5 -107.5q-19.5 -49.5 -54 -85.5q-34.5 -36 -81.5 -56.5q-47 -20.5 -103 -20.5q-70 0 -119 25.5q-49 25.5 -79.5 67.5q-30.5 42 -44.5 96.5q-14 54.5 -14 113.5q0 95 12.5 170q12.5 75 45.5 130q33 55 90.5 90.5q57.5 35.5 147.5 51.5l98 17q14 2 33.5 6q19.5 4 38.5 10l0 -59q-8 -3 -27.5 -8q-19.5 -5 -53.5 -10l-102 -18q-49 -9 -88.5 -26q-39.5 -17 -68.5 -48q-29 -31 -46.5 -79q-17.5 -48 -22.5 -118zM318 40q44 0 79.5 16.5q35.5 16.5 61 45q25.5 28.5 39 68q13.5 39.5 13.5 85.5q0 46 -11.5 85.5q-11.5 39.5 -34.5 68q-23 28.5 -59.5 45q-36.5 16.5 -85.5 16.5q-45 0 -81 -16.5q-36 -16.5 -61 -44.5q-25 -28 -38.5 -65.5q-13.5 -37.5 -13.5 -80.5q0 -52 14.5 -93q14.5 -41 40 -70q25.5 -29 60.5 -44.5t77 -15.5z" />
<glyph unicode="&#1074;" horiz-adv-x="558" d="M319 510q69 0 113 -34.5q44 -34.5 44 -95.5q0 -13 -2 -27q-2 -14 -8 -28.5q-6 -14.5 -18.5 -29q-12.5 -14.5 -33.5 -26.5q51 -17 68.5 -52.5q17.5 -35.5 17.5 -73.5q0 -33 -13 -59q-13 -26 -36 -45q-23 -19 -55 -29q-32 -10 -70 -10h-246v510zM313 290q49 0 75 22.5q26 22.5 26 65.5q0 42 -28 61q-28 19 -77 19h-169v-168zM318 52q118 0 118 91q0 45 -28.5 70q-28.5 25 -86.5 25h-181l0 -186z" />
<glyph unicode="&#1075;" horiz-adv-x="399" d="M389 510v-52h-247v-458h-60l0 510z" />
<glyph unicode="&#1076;" horiz-adv-x="521" d="M435 510v-458h71v-192h-58v140h-391v-140h-58v192h60q31 53 47 100.5q16 47.5 23.5 93q7.5 45.5 9 90.5q1.5 45 3.5 93l2 81zM196 392q-2 -38 -3 -78q-1 -40 -7 -82q-6 -42 -20.5 -87q-14.5 -45 -41.5 -93l251 0v406l-177 0z" />
<glyph unicode="&#1077;" horiz-adv-x="599" d="M482 292q-3 40 -15.5 73q-12.5 33 -34.5 56.5q-22 23.5 -53.5 36.5q-31.5 13 -72.5 13q-42 0 -74.5 -14q-32.5 -14 -55.5 -38q-23 -24 -36.5 -56.5q-13.5 -32.5 -16.5 -70.5zM517 88q-34 -45 -83.5 -72.5q-49.5 -27.5 -121.5 -27.5q-64 0 -112 22q-48 22 -79.5 58.5q-31.5 36.5 -47 85q-15.5 48.5 -15.5 101.5q0 53 17 101.5q17 48.5 48.5 85q31.5 36.5 77.5 58.5q46 22 104 22q62 0 107.5 -22q45.5 -22 75.5 -58.5q30 -36.5 44.5 -84q14.5 -47.5 14.5 -97.5v-18h-425q3 -94 52 -148q49 -54 142 -54q51 0 91.5 21.5q40.5 21.5 66.5 56.5z" />
<glyph unicode="&#1078;" horiz-adv-x="734" d="M397 0h-60v510h60zM635 510h79l-234 -238l251 -272h-84l-245 270zM332 270l-245 -270h-84l251 272l-234 238l79 0z" />
<glyph unicode="&#1079;" horiz-adv-x="485" d="M45 419q30 55 81.5 79q51.5 24 113.5 24q33 0 64.5 -7.5q31.5 -7.5 56.5 -24q25 -16.5 40.5 -43q15.5 -26.5 15.5 -63.5q0 -15 -2.5 -30.5q-2.5 -15.5 -11 -30.5q-8.5 -15 -23.5 -29q-15 -14 -40 -26q42 -14 67.5 -44.5q25.5 -30.5 25.5 -76.5q0 -41 -17 -70.5q-17 -29.5 -45 -49.5q-28 -20 -65 -29.5q-37 -9.5 -77 -9.5q-39 0 -69.5 7q-30.5 7 -54 20q-23.5 13 -41.5 31q-18 18 -33 41l56 30q49 -77 144 -77q26 0 51 6q25 6 44.5 19q19.5 13 31 33q11.5 20 11.5 48q0 45 -29 68q-29 23 -98 23h-60v52h51q26 0 48.5 5q22.5 5 39 16q16.5 11 25.5 28.5q9 17.5 9 42.5q0 46 -34.5 67.5q-34.5 21.5 -82.5 21.5q-56 0 -89 -21q-33 -21 -53 -55z" />
<glyph unicode="&#1080;" horiz-adv-x="578" d="M498 0h-60v422l-299 -422h-59v510h60v-422l299 422l59 0z" />
<glyph unicode="&#1081;" horiz-adv-x="578" d="M498 0h-60v422l-299 -422h-59v510h60v-422l299 422h59zM421 677q-6 -54 -39 -82.5q-33 -28.5 -92 -28.5q-119 0 -131 111l50 0q7 -35 25.5 -48q18.5 -13 55.5 -13q36 0 54 13.5q18 13.5 26 47.5z" />
<glyph unicode="&#1082;" horiz-adv-x="509" d="M140 0h-60v510h60zM403 510h84l-259 -235l279 -275h-87l-275 271z" />
<glyph unicode="&#1083;" horiz-adv-x="556" d="M476 0h-60v458h-189l-9 -161q-3 -44 -9.5 -96.5q-6.5 -52.5 -25.5 -98.5q-19 -46 -55 -76.5q-36 -30.5 -96 -30.5h-12v54h6q27 0 48 13q21 13 36 32.5q15 19.5 23.5 43q8.5 23.5 11.5 45.5q10 52 13.5 100.5q3.5 48.5 5.5 86.5l7 140l305 0z" />
<glyph unicode="&#1084;" horiz-adv-x="673" d="M533 0v292q0 20 1 58.5q1 38.5 4 80.5l-1 0l-178 -372h-48l-175 372h-1q2 -41 2.5 -73q0.5 -32 0.5 -71v-287h-58v510h81l176 -374l180 374h76l0 -510z" />
<glyph unicode="&#1085;" horiz-adv-x="576" d="M496 0h-60v238h-296v-238h-60v510h60v-220h296v220l60 0z" />
<glyph unicode="&#1086;" horiz-adv-x="646" d="M58 255q0 57 19 106q19 49 54 85q35 36 84 56q49 20 108 20q60 0 108.5 -20q48.5 -20 83.5 -56q35 -36 54 -85q19 -49 19 -106q0 -57 -19 -106q-19 -49 -54 -85q-35 -36 -83.5 -56q-48.5 -20 -108.5 -20q-59 0 -108 20q-49 20 -84 56q-35 36 -54 85q-19 49 -19 106zt0 0zM122 254q0 -49 16 -88.5q16 -39.5 43.5 -67.5q27.5 -28 64 -43q36.5 -15 77.5 -15q41 0 77.5 15q36.5 15 64 43q27.5 28 43.5 68q16 40 16 89q0 49 -16 89q-16 40 -43.5 68q-27.5 28 -64 43q-36.5 15 -77.5 15q-41 0 -77.5 -15.5q-36.5 -15.5 -64 -43.5q-27.5 -28 -43.5 -68t-16 -89z" />
<glyph unicode="&#1087;" horiz-adv-x="558" d="M478 0h-60v458h-278v-458h-60v510l398 0z" />
<glyph unicode="&#1088;" horiz-adv-x="631" d="M82 510h56v-92q22 35 47.5 55.5q25.5 20.5 52 31.5q26.5 11 52 14q25.5 3 48.5 3q55 0 98.5 -21q43.5 -21 74 -57q30.5 -36 46.5 -85q16 -49 16 -104q0 -56 -15 -104.5q-15 -48.5 -45 -84.5q-30 -36 -74 -57q-44 -21 -101 -21q-21 0 -46 3q-25 3 -50.5 13.5q-25.5 10.5 -51 30.5q-25.5 20 -48.5 55l0 -278h-60zM332 40q47 0 80.5 17.5q33.5 17.5 55 47q21.5 29.5 31.5 68.5q10 39 10 82q0 43 -10.5 82q-10.5 39 -32.5 68.5q-22 29.5 -57 47q-35 17.5 -84 17.5q-45 0 -79 -16.5q-34 -16.5 -57 -46q-23 -29.5 -35 -68.5q-12 -39 -12 -84q0 -43 11.5 -82q11.5 -39 35.5 -68.5q24 -29.5 59.5 -47t83.5 -17.5z" />
<glyph unicode="&#1089;" horiz-adv-x="564" d="M472 378q-25 43 -64 67.5q-39 24.5 -94 24.5q-44 0 -79.5 -15q-35.5 -15 -60.5 -43q-25 -28 -38.5 -68q-13.5 -40 -13.5 -89q0 -50 13.5 -89.5q13.5 -39.5 38.5 -67.5q25 -28 60.5 -43q35.5 -15 79.5 -15q57 0 96 23.5q39 23.5 65 66.5l52 -27q-32 -52 -85 -83.5q-53 -31.5 -134 -31.5q-56 0 -102 20.5q-46 20.5 -79 56q-33 35.5 -51 84.5q-18 49 -18 106q0 57 18 106q18 49 51 84.5q33 35.5 79 56q46 20.5 102 20.5q42 0 75 -8q33 -8 59 -22.5q26 -14.5 47 -36q21 -21.5 38 -48.5l-55 -29z" />
<glyph unicode="&#1090;" horiz-adv-x="444" d="M424 510v-52h-172v-458h-60v458h-172l0 52z" />
<glyph unicode="&#1091;" horiz-adv-x="498" d="M223 44l-205 466h67l174 -392l167 392h62l-301 -698l-68 0z" />
<glyph unicode="&#1092;" horiz-adv-x="700" d="M320 -4q-62 0 -111 19.5q-49 19.5 -83.5 53.5q-34.5 34 -53 81.5q-18.5 47.5 -18.5 104.5q0 56 19 103.5q19 47.5 53.5 82q34.5 34.5 83.5 54q49 19.5 110 19.5l0 210h60v-210q61 0 110 -19.5q49 -19.5 83.5 -54q34.5 -34.5 53.5 -82q19 -47.5 19 -103.5q0 -57 -18.5 -104.5q-18.5 -47.5 -53 -81.5q-34.5 -34 -83.5 -53.5q-49 -19.5 -111 -19.5l0 -184h-60zM118 255q0 -96 52 -152q52 -56 150 -56l0 416q-97 0 -149.5 -56q-52.5 -56 -52.5 -152zt0 0zM582 255q0 96 -52.5 152q-52.5 56 -149.5 56l0 -416q98 0 150 56t52 152z" />
<glyph unicode="&#1093;" horiz-adv-x="503" d="M214 268q-43 58 -88 121q-45 63 -88 121l76 0l146 -200q35 50 72 100q37 50 72 100l69 0l-179 -245l78 -107l115 -158h-76l-163 222l-161 -222l-69 0z" />
<glyph unicode="&#1094;" horiz-adv-x="544" d="M80 510h60v-459h262v459h59v-459h74v-191h-59v140l-396 0z" />
<glyph unicode="&#1095;" horiz-adv-x="503" d="M115 510v-143q0 -32 5.5 -54q5.5 -22 20 -36q14.5 -14 40.5 -20.5q26 -6.5 67 -6.5q22 0 50.5 4q28.5 4 64.5 14l0 242h60v-510h-60v214q-37 -11 -70 -13.5q-33 -2.5 -54 -2.5q-37 0 -70 5.5q-33 5.5 -58 22q-25 16.5 -40 46.5q-15 30 -16 78l0 160z" />
<glyph unicode="&#1096;" horiz-adv-x="744" d="M140 510v-458h202v458h60v-458h202v458h60v-510h-584l0 510z" />
<glyph unicode="&#1097;" horiz-adv-x="746" d="M140 510v-458h202v458h60v-458h202v458h60v-458h73v-192h-59v140h-598l0 510z" />
<glyph unicode="&#1098;" horiz-adv-x="546" d="M7 510h216v-196h115q85 0 134.5 -40q49.5 -40 49.5 -119q0 -28 -9.5 -56q-9.5 -28 -31.5 -50q-22 -22 -57 -35.5q-35 -13.5 -86 -13.5h-175v458h-156zM223 52h103q28 0 52.5 5.5q24.5 5.5 42 18q17.5 12.5 27.5 33.5q10 21 10 52q0 31 -10 50.5q-10 19.5 -27.5 31q-17.5 11.5 -41.5 15.5q-24 4 -52 4l-104 0z" />
<glyph unicode="&#1099;" horiz-adv-x="664" d="M584 0h-60v510h60zM140 510v-196h115q85 0 134.5 -40q49.5 -40 49.5 -119q0 -28 -9.5 -56q-9.5 -28 -31.5 -50q-22 -22 -57 -35.5q-35 -13.5 -86 -13.5h-175v510zM140 52h103q28 0 52.5 5.5q24.5 5.5 42 18q17.5 12.5 27.5 33.5q10 21 10 52q0 31 -10 50.5q-10 19.5 -27.5 31q-17.5 11.5 -41.5 15.5q-24 4 -52 4l-104 0z" />
<glyph unicode="&#1100;" horiz-adv-x="473" d="M140 510v-196h125q85 0 134.5 -40q49.5 -40 49.5 -119q0 -28 -9.5 -56q-9.5 -28 -31.5 -50q-22 -22 -57 -35.5q-35 -13.5 -86 -13.5h-185v510zM140 52h113q28 0 52.5 5.5q24.5 5.5 42 18q17.5 12.5 27.5 33.5q10 21 10 52q0 31 -10 50.5q-10 19.5 -27.5 31q-17.5 11.5 -41.5 15.5q-24 4 -52 4l-114 0z" />
<glyph unicode="&#1101;" horiz-adv-x="556" d="M190 289h244q-5 43 -21.5 77q-16.5 34 -41.5 57q-25 23 -56 35q-31 12 -66 12q-59 0 -95.5 -19q-36.5 -19 -64.5 -60l-51 29q32 47 82 74.5q50 27.5 127 27.5q55 0 101 -19.5q46 -19.5 79.5 -54.5q33.5 -35 52 -84q18.5 -49 18.5 -109q0 -59 -18.5 -108q-18.5 -49 -52.5 -84.5q-34 -35.5 -81 -55q-47 -19.5 -105 -19.5q-72 0 -123.5 29.5q-51.5 29.5 -80.5 77.5l51 25q23 -35 60 -57.5q37 -22.5 96 -22.5q38 0 72 12.5q34 12.5 60 37q26 24.5 41.5 61.5q15.5 37 16.5 86l-244 0z" />
<glyph unicode="&#1102;" horiz-adv-x="789" d="M140 290h87q6 51 26 94q20 43 52.5 73.5q32.5 30.5 76.5 47.5q44 17 97 17q60 0 106.5 -20q46.5 -20 79 -56q32.5 -36 49.5 -85q17 -49 17 -106q0 -57 -17 -106q-17 -49 -49.5 -85q-32.5 -36 -79 -56q-46.5 -20 -106.5 -20q-56 0 -101 18.5q-45 18.5 -77.5 51.5q-32.5 33 -51.5 79q-19 46 -23 101l-86 0v-238h-60v510h60zM289 254q0 -49 13 -88.5q13 -39.5 37.5 -68q24.5 -28.5 60 -44q35.5 -15.5 79.5 -15.5q44 0 79 15.5q35 15.5 59 44q24 28.5 37 68.5q13 40 13 89q0 49 -13 89q-13 40 -37 68.5q-24 28.5 -59 44q-35 15.5 -79 15.5q-44 0 -79.5 -15.5q-35.5 -15.5 -60 -44q-24.5 -28.5 -37.5 -69t-13 -89.5z" />
<glyph unicode="&#1103;" horiz-adv-x="494" d="M354 0v214h-99q-32 -51 -66.5 -106.5q-34.5 -55.5 -67.5 -107.5l-74 0l140 220q-70 10 -100.5 48q-30.5 38 -30.5 95q0 25 7.5 51q7.5 26 27.5 47.5q20 21.5 54.5 35q34.5 13.5 88.5 13.5h180v-510zM354 458h-113q-19 0 -40.5 -3q-21.5 -3 -40 -13.5q-18.5 -10.5 -30.5 -29.5q-12 -19 -12 -51q0 -31 11.5 -49.5q11.5 -18.5 29 -28.5q17.5 -10 38.5 -13.5q21 -3.5 40 -3.5l117 0z" />
<glyph unicode="&#1105;" horiz-adv-x="599" d="M152 647q0 21 14.5 35.5q14.5 14.5 37.5 14.5q22 0 37 -14.5q15 -14.5 15 -35.5q0 -23 -15 -38.5q-15 -15.5 -37 -15.5q-23 0 -37.5 15.5q-14.5 15.5 -14.5 38.5zt0 0zM355 647q0 21 14 35.5q14 14.5 37 14.5q23 0 38 -14.5q15 -14.5 15 -35.5q0 -23 -15 -38.5q-15 -15.5 -38 -15.5q-23 0 -37 15.5q-14 15.5 -14 38.5zt0 0zM482 292q-3 40 -15.5 73q-12.5 33 -34.5 56.5q-22 23.5 -53.5 36.5q-31.5 13 -72.5 13q-42 0 -74.5 -14q-32.5 -14 -55.5 -38q-23 -24 -36.5 -56.5q-13.5 -32.5 -16.5 -70.5zM517 88q-34 -45 -83.5 -72.5q-49.5 -27.5 -121.5 -27.5q-64 0 -112 22q-48 22 -79.5 58.5q-31.5 36.5 -47 85q-15.5 48.5 -15.5 101.5q0 53 17 101.5q17 48.5 48.5 85q31.5 36.5 77.5 58.5q46 22 104 22q62 0 107.5 -22q45.5 -22 75.5 -58.5q30 -36.5 44.5 -84q14.5 -47.5 14.5 -97.5v-18h-425q3 -94 52 -148q49 -54 142 -54q51 0 91.5 21.5q40.5 21.5 66.5 56.5z" />
<glyph unicode="&#1106;" horiz-adv-x="590" d="M461 300q0 93 -37 131.5q-37 38.5 -113 38.5q-34 0 -62.5 -13q-28.5 -13 -48.5 -36q-20 -23 -31.5 -55q-11.5 -32 -11.5 -71v-295h-60v627h-82v50h82v108h57v-108h221v-50h-221v-202q22 36 47 56q25 20 49.5 29q24.5 9 46.5 10.5q22 1.5 38 1.5q90 0 138 -50.5q48 -50.5 48 -145.5v-331q-1 -41 -10.5 -74.5q-9.5 -33.5 -30 -57.5q-20.5 -24 -53 -37.5q-32.5 -13.5 -80.5 -13.5l0 47q54 1 84 26.5q30 25.5 30 94.5z" />
<glyph unicode="&#1107;" horiz-adv-x="405" d="M390 510v-52h-250v-458h-60v510zM265 580h-50l82 145l97 0z" />
<glyph unicode="&#1108;" horiz-adv-x="548" d="M371 237h-246q0 -50 15.5 -87q15.5 -37 41.5 -61.5q26 -24.5 60 -36.5q34 -12 73 -12q61 0 98 22q37 22 60 57l48 -26q-29 -48 -80 -76.5q-51 -28.5 -123 -28.5q-58 0 -105.5 18.5q-47.5 18.5 -82 53q-34.5 34.5 -53.5 84q-19 49.5 -19 111.5q0 60 19 109q19 49 53 84q34 35 80.5 54.5q46.5 19.5 101.5 19.5q77 0 126.5 -27q49.5 -27 81.5 -73l-48 -30q-27 40 -64.5 59q-37.5 19 -97.5 19q-72 0 -123 -45.5q-51 -45.5 -62 -135.5l246 0z" />
<glyph unicode="&#1109;" horiz-adv-x="493" d="M384 425q-20 23 -48 39q-28 16 -66 16q-60 0 -88.5 -26.5q-28.5 -26.5 -28.5 -64.5q0 -38 23 -57.5q23 -19.5 60 -33.5l85 -29q31 -11 54.5 -22.5q23.5 -11.5 40 -27q16.5 -15.5 25 -37q8.5 -21.5 8.5 -51.5q0 -29 -11 -55q-11 -26 -34 -45.5q-23 -19.5 -58.5 -31.5q-35.5 -12 -85.5 -12q-36 0 -64.5 8.5q-28.5 8.5 -51 22.5q-22.5 14 -38.5 32q-16 18 -28 37l46 23q20 -35 58.5 -57.5q38.5 -22.5 86.5 -22.5q51 0 86.5 23.5q35.5 23.5 35.5 68.5q0 37 -21 57q-21 20 -61 34l-99 34q-24 9 -45.5 21q-21.5 12 -37 28.5q-15.5 16.5 -24.5 39.5q-9 23 -9 55q0 28 12 52q12 24 34.5 42q22.5 18 53.5 28q31 10 69 10q66 0 104.5 -20.5q38.5 -20.5 60.5 -50.5z" />
<glyph unicode="&#1110;" horiz-adv-x="257" d="M103 0v510h56v-510zM83 676q0 21 13.5 34q13.5 13 35.5 13q21 0 34.5 -13q13.5 -13 13.5 -34q0 -22 -13.5 -36q-13.5 -14 -34.5 -14q-22 0 -35.5 14t-13.5 36z" />
<glyph unicode="&#1111;" horiz-adv-x="257" d="M103 0v510h56v-510zM4 654q0 20 14.5 34q14.5 14 36.5 14q20 0 34 -14q14 -14 14 -34q0 -21 -14 -36q-14 -15 -34 -15q-22 0 -36.5 15q-14.5 15 -14.5 36zt0 0zM159 654q0 20 13.5 34q13.5 14 34.5 14q22 0 36.5 -14q14.5 -14 14.5 -34q0 -21 -14.5 -36q-14.5 -15 -36.5 -15q-21 0 -34.5 15t-13.5 36z" />
<glyph unicode="&#1112;" horiz-adv-x="255" d="M105 510h56v-509q0 -42 -8 -76.5q-8 -34.5 -27.5 -59.5q-19.5 -25 -52.5 -39q-33 -14 -82 -14l0 47q54 1 84 26.5q30 25.5 30 94.5zM85 676q0 21 13.5 34q13.5 13 35.5 13q21 0 34.5 -13q13.5 -13 13.5 -34q0 -22 -13.5 -36q-13.5 -14 -34.5 -14q-22 0 -35.5 14t-13.5 36z" />
<glyph unicode="&#1113;" horiz-adv-x="793" d="M476 312h116q85 0 136.5 -42.5q51.5 -42.5 51.5 -121.5q0 -26 -10.5 -52.5q-10.5 -26.5 -33 -47.5q-22.5 -21 -58 -34.5q-35.5 -13.5 -86.5 -13.5h-176v458h-189l-9 -161q-3 -44 -9.5 -96.5q-6.5 -52.5 -25.5 -98.5q-19 -46 -55 -76.5q-36 -30.5 -96 -30.5h-12v54h6q27 0 48 13q21 13 36 32.5q15 19.5 23.5 43q8.5 23.5 11.5 45.5q10 52 13.5 100.5q3.5 48.5 5.5 86.5l7 140h305zM476 264v-216h104q28 0 52.5 4.5q24.5 4.5 43 16.5q18.5 12 29 32.5q10.5 20.5 10.5 52.5q0 34 -11.5 55.5q-11.5 21.5 -30 33.5q-18.5 12 -42.5 16.5q-24 4.5 -49 4.5z" />
<glyph unicode="&#1114;" horiz-adv-x="777" d="M457 302h101q85 0 136 -40.5q51 -40.5 51 -118.5q0 -26 -10 -51.5q-10 -25.5 -32.5 -46q-22.5 -20.5 -58 -33q-35.5 -12.5 -86.5 -12.5h-161v250h-257v-250h-60v510h60v-207h257v207h60zM457 45h89q27 0 51.5 5q24.5 5 43 17q18.5 12 29 31.5q10.5 19.5 10.5 48.5q0 34 -11 54.5q-11 20.5 -30 31.5q-19 11 -43 14q-24 3 -49 3l-90 0z" />
<glyph unicode="&#1115;" horiz-adv-x="590" d="M461 300q0 93 -37 131.5q-37 38.5 -113 38.5q-34 0 -62.5 -13q-28.5 -13 -48.5 -36q-20 -23 -31.5 -55q-11.5 -32 -11.5 -71v-295h-60v627h-82v50h82v108h57v-108h222v-50h-222v-202q22 36 47 56q25 20 49.5 29q24.5 9 46.5 10.5q22 1.5 38 1.5q90 0 138 -50.5q48 -50.5 48 -145.5v-326l-60 0z" />
<glyph unicode="&#1116;" horiz-adv-x="512" d="M134 0h-60v510h60zM402 510h78l-259 -236l278 -274h-85l-275 271zM301 580h-50l82 145l97 0z" />
<glyph unicode="&#1118;" horiz-adv-x="498" d="M223 44l-205 466h67l174 -392l167 392h62l-301 -698h-68zM385 677q-6 -54 -39 -82.5q-33 -28.5 -92 -28.5q-119 0 -131 111l50 0q7 -35 25.5 -48q18.5 -13 55.5 -13q36 0 54 13.5q18 13.5 26 47.5z" />
<glyph unicode="&#1119;" horiz-adv-x="571" d="M254 0h-174v510h60v-458h291v458h60v-510h-173v-157l-64 0z" />
<glyph unicode="&#1168;" horiz-adv-x="543" d="M185 0h-64v724h336v162h63v-218l-335 0z" />
<glyph unicode="&#1169;" horiz-adv-x="385" d="M321 510v134h56v-182h-238v-462h-57l0 510z" />
<glyph unicode="&#8211;" horiz-adv-x="560" d="M22 294v52h516l0 -52z" />
<glyph unicode="&#8212;" horiz-adv-x="715" d="M0 294v50h715l0 -50z" />
<glyph unicode="&#8216;" horiz-adv-x="192" d="M180 740l-58 -102q-6 -11 -8 -17.5q-2 -6.5 -2 -12.5q0 -5 5.5 -9q5.5 -4 12.5 -10q8 -6 13.5 -17q5.5 -11 5.5 -25q0 -26 -17 -41.5q-17 -15.5 -43 -15.5q-28 0 -43 18.5q-15 18.5 -15 38.5q0 10 3 21q3 11 11 25l85 147z" />
<glyph unicode="&#8217;" horiz-adv-x="201" d="M22 490l58 102q6 11 8 17.5q2 6.5 2 12.5q0 5 -5.5 9q-5.5 4 -12.5 10q-8 6 -13.5 17q-5.5 11 -5.5 25q0 26 17 41.5q17 15.5 43 15.5q28 0 43 -18.5q15 -18.5 15 -38.5q0 -10 -3 -21q-3 -11 -11 -25l-85 -147z" />
<glyph unicode="&#8218;" horiz-adv-x="239" d="M22 -150l58 102q6 11 8 17.5q2 6.5 2 12.5q0 5 -5.5 9q-5.5 4 -12.5 10q-8 6 -13.5 17q-5.5 11 -5.5 25q0 26 17 41.5q17 15.5 43 15.5q28 0 43 -18.5q15 -18.5 15 -38.5q0 -10 -3 -21q-3 -11 -11 -25l-85 -147z" />
<glyph unicode="&#8220;" horiz-adv-x="347" d="M342 740l-58 -102q-6 -11 -8 -17.5q-2 -6.5 -2 -12.5q0 -5 5.5 -9q5.5 -4 12.5 -10q8 -6 13.5 -17q5.5 -11 5.5 -25q0 -26 -17 -41.5q-17 -15.5 -43 -15.5q-28 0 -43 18.5q-15 18.5 -15 38.5q0 10 3 21q3 11 11 25l85 147zM180 740l-58 -102q-6 -11 -8 -17.5q-2 -6.5 -2 -12.5q0 -5 5.5 -9q5.5 -4 12.5 -10q8 -6 13.5 -17q5.5 -11 5.5 -25q0 -26 -17 -41.5q-17 -15.5 -43 -15.5q-28 0 -43 18.5q-15 18.5 -15 38.5q0 10 3 21q3 11 11 25l85 147z" />
<glyph unicode="&#8221;" horiz-adv-x="367" d="M22 490l58 102q6 11 8 17.5q2 6.5 2 12.5q0 5 -5.5 9q-5.5 4 -12.5 10q-8 6 -13.5 17q-5.5 11 -5.5 25q0 26 17 41.5q17 15.5 43 15.5q28 0 43 -18.5q15 -18.5 15 -38.5q0 -10 -3 -21q-3 -11 -11 -25l-85 -147zM184 490l58 102q6 11 8 17.5q2 6.5 2 12.5q0 5 -5.5 9q-5.5 4 -12.5 10q-8 6 -13.5 17q-5.5 11 -5.5 25q0 26 17 41.5q17 15.5 43 15.5q28 0 43 -18.5q15 -18.5 15 -38.5q0 -10 -3 -21q-3 -11 -11 -25l-85 -147z" />
<glyph unicode="&#8222;" horiz-adv-x="393" d="M22 -150l58 102q6 11 8 17.5q2 6.5 2 12.5q0 5 -5.5 9q-5.5 4 -12.5 10q-8 6 -13.5 17q-5.5 11 -5.5 25q0 26 17 41.5q17 15.5 43 15.5q28 0 43 -18.5q15 -18.5 15 -38.5q0 -10 -3 -21q-3 -11 -11 -25l-85 -147zM184 -150l58 102q6 11 8 17.5q2 6.5 2 12.5q0 5 -5.5 9q-5.5 4 -12.5 10q-8 6 -13.5 17q-5.5 11 -5.5 25q0 26 17 41.5q17 15.5 43 15.5q28 0 43 -18.5q15 -18.5 15 -38.5q0 -10 -3 -21q-3 -11 -11 -25l-85 -147z" />
<glyph unicode="&#8224;" horiz-adv-x="512" d="M237 0v464h-161v46h161v230h54v-230h163v-46h-163l0 -464z" />
<glyph unicode="&#8225;" horiz-adv-x="512" d="M238 254v213h-162v43h162v214h54v-214h163v-43h-163v-213h163v-43h-163v-211h-54v211h-162l0 43z" />
<glyph unicode="&#8226;" horiz-adv-x="606" d="M148 357q0 32 12.5 60q12.5 28 33.5 49q21 21 49 33.5q28 12.5 60 12.5q32 0 60 -12.5q28 -12.5 49 -33.5q21 -21 33.5 -49q12.5 -28 12.5 -60q0 -32 -12.5 -60q-12.5 -28 -33.5 -49q-21 -21 -49 -33.5q-28 -12.5 -60 -12.5q-32 0 -60 12.5q-28 12.5 -49 33.5q-21 21 -33.5 49t-12.5 60z" />
<glyph unicode="&#8230;" horiz-adv-x="923" d="M108 46q0 23 16 39q16 16 40 16q23 0 39 -16q16 -16 16 -39q0 -23 -16 -38.5q-16 -15.5 -39 -15.5q-24 0 -40 15.5q-16 15.5 -16 38.5zt0 0zM423 46q0 23 16.5 39q16.5 16 39.5 16q24 0 40 -16q16 -16 16 -39q0 -23 -16 -38.5q-16 -15.5 -40 -15.5q-23 0 -39.5 15.5q-16.5 15.5 -16.5 38.5zt0 0zM739 46q0 23 16.5 39q16.5 16 39.5 16q25 0 40.5 -16q15.5 -16 15.5 -39q0 -23 -15.5 -38.5q-15.5 -15.5 -40.5 -15.5q-23 0 -39.5 15.5t-16.5 38.5z" />
<glyph unicode="&#8240;" horiz-adv-x="1017" d="M319 140q0 32 11.5 59.5q11.5 27.5 31.5 47.5q20 20 48.5 31.5q28.5 11.5 63.5 11.5q34 0 62.5 -11.5q28.5 -11.5 49 -31.5q20.5 -20 32 -47.5q11.5 -27.5 11.5 -59.5q0 -32 -11.5 -59.5q-11.5 -27.5 -32 -48q-20.5 -20.5 -49 -32q-28.5 -11.5 -62.5 -11.5q-35 0 -63.5 11.5q-28.5 11.5 -48.5 32q-20 20.5 -31.5 48q-11.5 27.5 -11.5 59.5zt0 0zM374 140q0 -44 26.5 -74.5q26.5 -30.5 73.5 -30.5q45 0 72.5 30.5q27.5 30.5 27.5 74.5q0 44 -27.5 74q-27.5 30 -72.5 30q-47 0 -73.5 -30q-26.5 -30 -26.5 -74zt0 0zM624 695l-546 -727l-39 29l547 728zM36 562q0 31 11.5 58.5q11.5 27.5 32 48q20.5 20.5 48.5 32q28 11.5 62 11.5q34 0 63 -11.5q29 -11.5 49.5 -32q20.5 -20.5 32 -48q11.5 -27.5 11.5 -58.5q0 -32 -11.5 -59.5q-11.5 -27.5 -32 -48q-20.5 -20.5 -49.5 -32q-29 -11.5 -63 -11.5q-34 0 -62 11.5q-28 11.5 -48.5 32q-20.5 20.5 -32 48q-11.5 27.5 -11.5 59.5zt0 0zM90 562q0 -44 26.5 -74q26.5 -30 73.5 -30q47 0 73.5 30q26.5 30 26.5 74q0 44 -26.5 74q-26.5 30 -73.5 30q-47 0 -73.5 -30q-26.5 -30 -26.5 -74zt0 0zM669 140q0 32 11.5 59.5q11.5 27.5 31.5 47.5q20 20 48.5 31.5q28.5 11.5 63.5 11.5q34 0 62.5 -11.5q28.5 -11.5 49 -31.5q20.5 -20 32 -47.5q11.5 -27.5 11.5 -59.5q0 -32 -11.5 -59.5q-11.5 -27.5 -32 -48q-20.5 -20.5 -49 -32q-28.5 -11.5 -62.5 -11.5q-35 0 -63.5 11.5q-28.5 11.5 -48.5 32q-20 20.5 -31.5 48q-11.5 27.5 -11.5 59.5zt0 0zM724 140q0 -44 26.5 -74.5q26.5 -30.5 73.5 -30.5q45 0 72.5 30.5q27.5 30.5 27.5 74.5q0 44 -27.5 74q-27.5 30 -72.5 30q-47 0 -73.5 -30t-26.5 -74z" />
<glyph unicode="&#8249;" horiz-adv-x="350" d="M269 93l-219 225l218 225q3 -4 12 -10q9 -6 17 -13l-164 -202q38 -47 82 -100q44 -53 82 -101z" />
<glyph unicode="&#8250;" horiz-adv-x="337" d="M58 119l163 199q-38 48 -81.5 101q-43.5 53 -81.5 102l30 23q57 -59 108.5 -113q51.5 -54 108.5 -113q-58 -59 -109 -113q-51 -54 -108 -112z" />
<glyph unicode="&#8364;" horiz-adv-x="627" d="M105 292q-2 27 -2.5 43.5q-0.5 16.5 -0.5 24.5q0 9 0.5 25q0.5 16 2.5 42l-90 0l9 46h86q36 131 115 198.5q79 67.5 194 67.5q58 0 102.5 -15q44.5 -15 79.5 -42l-40 -40q-30 23 -66.5 33q-36.5 10 -75.5 10q-38 0 -74 -10.5q-36 -10.5 -67.5 -35q-31.5 -24.5 -57.5 -65.5q-26 -41 -44 -101l325 0l-25 -46h-307q-2 -23 -3 -37.5q-1 -14.5 -1 -29.5q0 -15 1 -32.5q1 -17.5 3 -35.5l251 0q-6 -14 -11.5 -25.5q-5.5 -11.5 -10.5 -21.5l-223 0q19 -57 46 -96q27 -39 59.5 -62.5q32.5 -23.5 68.5 -34q36 -10.5 74 -10.5q45 0 84.5 12.5q39.5 12.5 69.5 38.5q10 -13 17 -21q7 -8 15 -17q-33 -31 -79.5 -49q-46.5 -18 -106.5 -18q-53 0 -102 15q-49 15 -90.5 46q-41.5 31 -72.5 79.5q-31 48.5 -48 116.5l-96 0l11 47z" />
<glyph unicode="&#8381;" horiz-adv-x="587" d="M9 242h98v80h-98v56h98v336h207q103 0 159.5 -52q56.5 -52 56.5 -142q0 -44 -15 -80.5q-15 -36.5 -42.5 -62.5q-27.5 -26 -67.5 -40.5q-40 -14.5 -91 -14.5h-144v-80h231v-56h-231v-186h-63v186h-98zM302 378q75 0 116 36q41 36 41 108q0 70 -42 103.5q-42 33.5 -115 33.5h-132l0 -281z" />
<glyph unicode="&#8470;" horiz-adv-x="1017" d="M934 285v-54h-272v54zM798 371q-72 0 -109 46q-37 46 -37 122q0 77 37 123q37 46 109 46q73 0 110 -46q37 -46 37 -123q0 -76 -37 -122q-37 -46 -110 -46zt0 0zM798 662q-24 0 -40.5 -10.5q-16.5 -10.5 -27.5 -28q-11 -17.5 -16 -39.5q-5 -22 -5 -45q0 -23 5 -44.5q5 -21.5 16 -39q11 -17.5 27.5 -28q16.5 -10.5 40.5 -10.5q24 0 40.5 10.5q16.5 10.5 27.5 28q11 17.5 16 39q5 21.5 5 44.5q0 23 -5 45q-5 22 -16 39.5q-11 17.5 -27.5 28q-16.5 10.5 -40.5 10.5zt0 0zM538 0l-387 652v-652h-64v740h86l352 -596v596h64l0 -740z" />
<glyph unicode="&#8482;" horiz-adv-x="963" d="M234 675v-376h-58v376h-139v49h335v-49zM831 299v352l-135 -275h-45l-134 277v-354h-56v425h83l131 -273l134 273h80l0 -425z" />
<glyph unicode="&#65279;" horiz-adv-x="0" />
</font>
</defs>
</svg>
