<?xml version="1.0" encoding="UTF-8"?>
<svg width="286px" height="167px" viewBox="0 0 286 167" version="1.1" xmlns="http://www.w3.org/2000/svg" xmlns:xlink="http://www.w3.org/1999/xlink">
    <!-- Generator: Sketch 40 (33762) - http://www.bohemiancoding.com/sketch -->
    <title>2.6-illustration anounce#3</title>
    <desc>Created with Sketch.</desc>
    <defs>
        <rect id="path-1" x="0" y="0" width="286" height="167"></rect>
    </defs>
    <g id="main" stroke="none" stroke-width="1" fill="none" fill-rule="evenodd">
        <g id="article-1" transform="translate(-1126.000000, -5548.000000)">
            <g id="2.6-illustration-anounce#3" transform="translate(1126.000000, 5548.000000)">
                <mask id="mask-2" fill="white">
                    <use xlink:href="#path-1"></use>
                </mask>
                <use id="Mask" fill="#B0DCE9" xlink:href="#path-1"></use>
                <g id="05" mask="url(#mask-2)">
                    <g transform="translate(62.000000, 9.000000)" id="_x31_">
                        <g>
                            <path d="M82.1095768,148.818735 C113.996437,148.818735 139.966147,145.990998 139.966147,142.474453 C139.966147,138.994161 113.959911,136.13017 82.1095768,136.13017 C50.2227171,136.13017 24.2530067,138.957908 24.2530067,142.474453 C24.2530067,145.990998 50.2227171,148.818735 82.1095768,148.818735 L82.1095768,148.818735 Z" id="Shape" fill="#EDEDED"></path>
                            <ellipse id="Oval" fill="#B1DDE9" cx="80.1006682" cy="84.8683698" rx="59.4271715" ry="58.9836983"></ellipse>
                            <path d="M126.926503,50.4279805 L59.6828508,50.4279805 C56.2129176,50.4279805 53.4004454,47.6364964 53.4004454,44.1924574 L53.4004454,44.1924574 C53.4004454,40.7484185 56.2129176,37.9569343 59.6828508,37.9569343 L126.926503,37.9569343 C130.396437,37.9569343 133.208909,40.7484185 133.208909,44.1924574 L133.208909,44.1924574 C133.208909,47.6364964 130.396437,50.4279805 126.926503,50.4279805 L126.926503,50.4279805 Z" id="Shape" fill="#D9EEF4"></path>
                            <path d="M60.3403118,62.3914842 L26.2253898,62.3914842 C24.7643653,62.3914842 23.55902,61.1951338 23.55902,59.7450122 L23.55902,59.7450122 C23.55902,58.2948905 24.7643653,57.0985401 26.2253898,57.0985401 L60.3403118,57.0985401 C61.8013363,57.0985401 63.0066815,58.2948905 63.0066815,59.7450122 L63.0066815,59.7450122 C63.0066815,61.1951338 61.8013363,62.3914842 60.3403118,62.3914842 L60.3403118,62.3914842 Z" id="Shape" fill="#D9EEF4"></path>
                            <path d="M123.821826,139.972993 L83.9723831,139.972993 C82.9131403,139.972993 82.0730512,139.139173 82.0730512,138.087835 L82.0730512,138.087835 C82.0730512,137.036496 82.9131403,136.202676 83.9723831,136.202676 L123.821826,136.202676 C124.881069,136.202676 125.721158,137.036496 125.721158,138.087835 L125.721158,138.087835 C125.721158,139.10292 124.881069,139.972993 123.821826,139.972993 L123.821826,139.972993 Z" id="Shape" fill="#D9EEF4"></path>
                            <path d="M26.2253898,57.7510949 C28.563029,62.8990268 32.6173719,66.596837 37.1100223,69.207056 C43.6115813,73.0136253 50.9167038,74.4274939 55.2267261,74.4274939 L55.2267261,80.7717762 C50.1131403,80.7717762 41.4930958,79.1041363 33.8957684,74.6812652 C28.3804009,71.4909976 23.376392,66.8506083 20.4178174,60.3613139 L26.2253898,57.7510949 L26.2253898,57.7510949 Z" id="Shape"></path>
                            <path d="M144.02049,60.3613139 C141.061915,66.8506083 136.057906,71.4909976 130.542539,74.6812652 C122.945212,79.1041363 114.325167,80.7717762 109.211581,80.7717762 L109.211581,74.4274939 C113.521604,74.4274939 120.7902,72.9773723 127.328285,69.207056 C131.820935,66.596837 135.875278,62.8627737 138.212918,57.7510949 L144.02049,60.3613139 L144.02049,60.3613139 Z" id="Shape" fill="#EFC27F"></path>
                            <path d="M23.4129176,89.8350365 C27.430735,92.5177616 32.2521158,93.8953771 37.036971,94.5116788 C44.2325167,95.4542579 51.3550111,94.656691 55.8111359,93.822871 L56.9799555,100.058394 C52.0855234,100.96472 44.2325167,101.834793 36.2334076,100.783455 C30.5719376,100.058394 24.8008909,98.3545012 19.8699332,95.0917275 L23.4129176,89.8350365 L23.4129176,89.8350365 Z" id="Shape" fill="#E8A955"></path>
                            <path d="M65.0886414,101.363504 L57.2356347,102.741119 L57.2356347,102.704866 C53.3639198,103.393674 47.5563474,103.973723 41.3469933,103.719951 C36.5256125,103.538686 31.4485523,102.849878 26.7732739,101.399757 L30.2797327,90.306326 C33.932294,91.4664234 37.9501114,91.9739659 41.7853007,92.1552311 C47.1545657,92.3727494 52.0855234,91.8652068 55.3363029,91.2851582 L55.3363029,91.3214112 L65.0886414,89.6175182 L67.7550111,94.2216545 L65.0886414,101.363504 L65.0886414,101.363504 Z" id="Shape" fill="#CC4538"></path>
                            <rect id="Rectangle-path" fill="#5E838F" x="65.0886414" y="108.142822" width="17.0939866" height="7.9756691"></rect>
                            <rect id="Rectangle-path" fill="#7F9DA6" x="82.2191537" y="108.142822" width="17.0939866" height="7.9756691"></rect>
                            <path d="M67.7550111,116.118491 C66.5131403,116.118491 65.3443207,116.118491 64.2120267,116.154745 C63.2258352,116.190998 62.2396437,116.227251 61.1804009,116.299757 C57.0164811,116.589781 54.569265,117.749878 53.6926503,119.091241 C53.5830735,119.272506 53.5100223,119.417518 53.5100223,119.490024 C53.5100223,119.526277 53.5465479,119.635036 53.6561247,119.743796 C54.4962138,120.795134 56.7242762,121.520195 60.4864143,121.338929 C60.7055679,121.338929 61.0342984,121.302676 61.5091314,121.266423 C61.6552339,121.266423 62.02049,121.23017 62.5683742,121.193917 C68.4489978,120.758881 75.9367483,119.598783 82.8400891,118.039903 C89.0859688,116.662287 94.7839644,114.994647 98.3634744,113.290754 L101.796882,120.432603 C97.6694878,122.390268 91.3505568,124.275426 84.5933185,125.7618 C77.2516704,127.393187 69.3256125,128.625791 63.152784,129.09708 C62.9701559,129.09708 62.5683742,129.133333 61.9474388,129.169586 C61.6917595,129.169586 61.2899777,129.205839 60.8151448,129.242092 C54.2040089,129.532117 49.674833,127.5382 47.3737194,124.674209 C46.1683742,123.224088 45.5474388,121.520195 45.4743875,119.780049 C45.4013363,118.076156 45.8761693,116.33601 46.8988864,114.777129 C48.9808463,111.550608 53.5830735,108.83163 60.5594655,108.324088 C61.5091314,108.251582 62.6414254,108.215328 63.9563474,108.179075 C65.125167,108.142822 66.3670379,108.142822 67.7184855,108.142822 L67.7550111,116.118491 L67.7550111,116.118491 Z" id="Shape" fill="#5E838F"></path>
                            <path d="M96.610245,108.215328 C97.9616927,108.215328 99.2035635,108.215328 100.372383,108.251582 C101.687305,108.287835 102.819599,108.324088 103.769265,108.396594 C110.782183,108.867883 115.347884,111.623114 117.429844,114.849635 C118.452561,116.408516 118.927394,118.148662 118.854343,119.852555 C118.781292,121.592701 118.160356,123.296594 116.955011,124.746715 C114.653898,127.574453 110.124722,129.604623 103.513586,129.314599 C97.3772829,129.024574 89.0129176,127.828224 81.1599109,126.160584 C73.891314,124.601703 66.9879733,122.607786 62.5683742,120.505109 L66.0017817,113.36326 C69.8004454,115.175912 76.0828508,116.952311 82.8035635,118.402433 C90.291314,119.997567 98.1808463,121.121411 103.878842,121.411436 C107.64098,121.592701 109.869042,120.86764 110.709131,119.816302 C110.782183,119.707543 110.855234,119.635036 110.855234,119.56253 C110.855234,119.453771 110.818708,119.345012 110.672606,119.163747 C109.795991,117.822384 107.348775,116.662287 103.184855,116.372263 C102.125612,116.299757 101.102895,116.263504 100.153229,116.227251 C99.0209354,116.190998 97.8521158,116.190998 96.610245,116.190998 L96.610245,108.215328 L96.610245,108.215328 Z" id="Shape" fill="#7F9DA6"></path>
                            <rect id="Rectangle-path" fill="#FFFFFF" transform="translate(57.948005, 122.429751) rotate(-68.795478) translate(-57.948005, -122.429751) " x="46.3328008" y="120.50833" width="23.2304078" height="3.84284194"></rect>
                            <path d="M63.9198218,112.348175 L67.5358575,113.725791 L64.467706,121.592701 L60.3768374,132.106083 C59.7193764,133.302433 57.966147,134.1 56.9799555,134.1 C55.9937639,134.1 55.9937639,133.991241 55.5554566,133.846229 L55.518931,133.918735 L63.9198218,112.348175 L63.9198218,112.348175 Z" id="Shape" fill="#1B606D"></path>
                            <path d="M114.8,118.764964 C115.420935,122.209002 111.695323,125.689294 103.732739,125.326764 C100.372383,125.181752 96.2815145,124.710462 92.0080178,124.057908" id="Shape" stroke="#7F9DA6" stroke-width="7.9579584"></path>
                            <rect id="Rectangle-path" fill="#FFFFFF" transform="translate(106.472979, 122.429950) rotate(-21.204522) translate(-106.472979, -122.429950) " x="104.537111" y="110.901424" width="3.87173463" height="23.0570517"></rect>
                            <polygon id="Shape" fill="#1B606D" points="65.0886414 112.819465 71.1518931 115.139659 68.047216 123.006569 60.1211581 132.468613"></polygon>
                            <path d="M50.8436526,122.571533 C52.5238307,124.347932 55.8111359,125.544282 60.6690423,125.326764 C61.363029,125.290511 62.1300668,125.254258 62.8971047,125.181752 C69.9830735,124.637956 79.4066815,123.079075 87.5153675,121.048905 C90.0356347,120.432603 96.2815145,118.36618 98.4,117.677372" id="Shape" stroke="#5E838F" stroke-width="7.9579584"></path>
                            <polygon id="Shape" fill="#1B606D" points="100.48196 112.348175 93.2498886 115.139659 96.5006682 122.499027 104.207572 132.396107 105.193764 132.577372"></polygon>
                            <path d="M100.48196,112.348175 L96.8659243,113.725791 L99.9340757,121.592701 L104.024944,132.106083 C104.682405,133.302433 106.435635,134.1 107.421826,134.1 C108.408018,134.1 108.408018,133.991241 108.846325,133.846229 L108.882851,133.918735 L100.48196,112.348175 L100.48196,112.348175 Z" id="Shape" fill="#1B606D"></path>
                            <ellipse id="Oval" fill="#EFC27F" transform="translate(144.538029, 60.000038) rotate(-12.426891) translate(-144.538029, -60.000038) " cx="144.538029" cy="60.0000378" rx="3.54308822" ry="3.51664805"></ellipse>
                            <polygon id="Shape" fill="#7F9DA6" points="135.071715 33.0990268 129.70245 46.0413625 126.743875 53.1832117 133.975947 56.119708 141.02539 59.0199513 148.074833 61.8839416 155.306904 64.820438 158.265479 57.6785888 159.470824 54.7783455 163.634744 44.736253 149.353229 38.8995134"></polygon>
                            <polygon id="Shape" fill="#E35447" points="161.151002 45.6425791 160.164811 47.9990268 148.841871 52.3493917 141.6098 49.5216545 131.893987 53.2194647 129.264143 52.1318735 141.536748 47.4552311 148.732294 50.4279805"></polygon>
                            <ellipse id="Oval" fill="#E8A955" transform="translate(141.145070, 97.194020) rotate(-34.678485) translate(-141.145070, -97.194020) " cx="141.14507" cy="97.1940196" rx="3.54316644" ry="3.51672569"></ellipse>
                            <path d="M142.778619,92.4815085 C131.820935,99.8046229 115.932294,98.4270073 108.006236,96.9768856" id="Shape" stroke="#E8A955" stroke-width="6.36622157"></path>
                            <path d="M99.3131403,101.363504 L107.166147,102.741119 L107.166147,102.704866 C111.037862,103.393674 116.845434,103.973723 123.054788,103.719951 C127.876169,103.538686 132.953229,102.849878 137.628508,101.399757 L134.122049,90.306326 C130.469488,91.4664234 126.45167,91.9739659 122.616481,92.1552311 C117.247216,92.3727494 112.316258,91.8652068 109.065479,91.2851582 L109.065479,91.3214112 L99.3131403,89.6175182 L96.6467706,94.2216545 L99.3131403,101.363504 L99.3131403,101.363504 Z" id="Shape" fill="#CC4538"></path>
                            <path d="M65.0886414,71.889781 L73.6356347,71.889781 L73.6356347,71.889781 C73.6356347,76.5301703 77.4342984,80.2642336 82.0730512,80.2642336 C86.7483296,80.2642336 84.1550111,71.889781 88.8302895,71.889781 L90.5469933,71.889781 L95.6605791,71.889781 L99.3131403,71.889781 C108.22539,71.889781 114.836526,72.3610706 123.420045,68.2644769 C127.218708,66.4518248 130.907795,63.9141119 133.537639,60.3975669 L142.924722,67.3581509 C139.016481,72.5423358 133.793318,76.240146 128.460579,78.7778589 C118.306459,83.5995134 109.795991,83.4907543 99.3131403,83.4907543 L99.3131403,108.142822 L99.2766147,108.142822 C93.7612472,109.375426 88.0632517,109.991727 82.1826281,109.991727 C76.3020045,109.991727 70.6040089,109.339173 65.0886414,108.142822 L65.0521158,108.142822 L65.0886414,71.889781 L65.0886414,71.889781 L65.0886414,71.889781 Z" id="Shape" fill="#E35447"></path>
                            <path d="M65.0886414,71.889781 L75.5714922,71.889781 C75.5714922,75.7688564 78.1648107,80.2642336 82.0730512,80.2642336 L82.1826281,80.2642336 L82.1826281,109.991727 C76.3020045,109.991727 70.6040089,109.339173 65.0886414,108.142822 L65.0521158,108.142822 L65.0521158,83.4907543 C54.6423163,83.4907543 45.8396437,83.4907543 35.9046771,78.7778589 C30.5719376,76.240146 25.3487751,72.5785888 21.4405345,67.3581509 L30.8276169,60.3975669 C33.457461,63.9141119 37.1465479,66.4518248 40.9452116,68.2644769 C49.3095768,72.2160584 56.3224944,71.889781 65.0886414,71.889781 L65.0886414,71.889781 L65.0886414,71.889781 Z" id="Shape" fill="#E35447"></path>
                            <polygon id="Shape" fill="#7F9DA6" points="141.865479 78.4515815 152.823163 78.4515815 163.780846 78.4515815 163.780846 93.750365 163.780846 109.085401 152.823163 109.085401 141.865479 109.085401 141.865479 93.750365"></polygon>
                            <ellipse id="Oval" fill="#EFC27F" transform="translate(19.884507, 60.026343) rotate(-77.578704) translate(-19.884507, -60.026343) " cx="19.8845069" cy="60.026343" rx="3.54301199" ry="3.51657239"></ellipse>
                            <polygon id="Shape" fill="#FFFFFF" points="0.365256125 43.7211679 14.5371938 37.9206813 28.745657 32.1564477 33.0922049 42.7060827 37.4752784 53.2557178 23.3033408 59.0562044 9.13140312 64.820438 4.74832962 54.2708029"></polygon>
                            <polygon id="Shape" fill="#012C4E" points="75.5714922 71.889781 87.7345212 71.889781 87.7345212 77.0739659 76.0828508 77.0739659"></polygon>
                            <path d="M85.2873051,66.3793187 L85.2873051,80.2642336 L79.1510022,80.2642336 L79.1510022,66.3430657 C80.1737194,66.4880779 81.2694878,66.596837 82.3287305,66.596837 L82.3287305,66.596837 C83.314922,66.596837 84.3011136,66.5243309 85.2873051,66.3793187 L85.2873051,66.3793187 Z" id="Shape" fill="#E8A955"></path>
                            <path d="M89.0129176,41.4734793 C98.1443207,41.4734793 105.595546,34.0778589 105.595546,25.0145985 C105.595546,15.9513382 98.1443207,8.55571776 89.0129176,8.55571776 C79.8815145,8.55571776 72.4302895,15.9513382 72.4302895,25.0145985 C72.4302895,34.0778589 79.8449889,41.4734793 89.0129176,41.4734793 L89.0129176,41.4734793 Z" id="Shape" fill="#FDC300"></path>
                            <path d="M59.1714922,35.6729927 C56.8703786,34.150365 55.3363029,31.5038929 55.3363029,28.5673966 L55.3363029,17.546472 L59.1714922,17.546472 L59.1714922,35.6729927 L59.1714922,35.6729927 Z" id="Shape" fill="#FDC300"></path>
                            <path d="M99.1305122,23.0569343 L99.1305122,48.6153285 C99.1305122,59.5274939 90.1452116,68.4457421 79.1510022,68.4457421 L79.1510022,68.4457421 C68.1567929,68.4457421 59.1714922,59.5274939 59.1714922,48.6153285 L59.1714922,23.0569343 L99.1305122,23.0569343 L99.1305122,23.0569343 Z" id="Shape" fill="#EFC27F"></path>
                            <path d="M79.1510022,68.4457421 L79.1510022,68.4457421 L79.1510022,68.4457421 C68.1567929,68.4457421 59.1714922,59.5274939 59.1714922,48.6153285 L59.1714922,20.3742092 L72.9051225,20.3742092 L72.9051225,56.0472019 C73.708686,62.5364964 75.7906459,66.0167883 79.1510022,68.4457421 L79.1510022,68.4457421 Z" id="Shape" fill="#E8A955"></path>
                            <path d="M92.9942094,52.4944039 C91.3870824,58.5849148 85.7986637,63.116545 79.1510022,63.116545 L79.1510022,63.116545 C71.2979955,63.116545 64.8694878,56.7360097 64.8694878,48.9416058 L64.8694878,45.9326034 L89.633853,45.9326034 L89.633853,45.9326034 C91.7523385,45.9326034 93.4325167,47.6364964 93.4325167,49.7029197 L93.4325167,49.7029197 C93.3959911,50.6454988 93.213363,51.5880779 92.9942094,52.4944039 L92.9942094,52.4944039 Z" id="Shape" fill="#012C4E"></path>
                            <path d="M92.9942094,52.4944039 C91.423608,58.4399027 86.054343,62.8627737 79.6623608,63.080292 C82.0365256,61.2313869 83.5340757,58.4036496 83.5340757,55.177129 C83.5340757,50.9717762 80.9042316,47.346472 77.2151448,45.8600973 L89.633853,45.8600973 L89.633853,45.8600973 C91.7523385,45.8600973 93.4325167,47.5639903 93.4325167,49.6304136 L93.4325167,49.6304136 C93.3959911,50.6454988 93.213363,51.5880779 92.9942094,52.4944039 L92.9942094,52.4944039 Z" id="Shape" fill="#00203D"></path>
                            <path d="M82.3287305,55.9746959 C84.6663697,55.7934307 86.1639198,56.6997567 85.7256125,57.9686131 C85.2507795,59.2737226 83.0227171,60.43382 80.685078,60.6150852 C78.3474388,60.7963504 76.8498886,59.8900243 77.288196,58.6211679 C77.763029,57.3523114 80.0276169,56.1559611 82.3287305,55.9746959 L82.3287305,55.9746959 Z" id="Shape" fill="#E35447"></path>
                            <path d="M66.5861915,48.0352798 L89.633853,48.0352798 C90.5104677,48.0352798 91.24098,48.7603406 91.24098,49.6304136 L91.24098,49.6304136 C91.24098,50.5004866 90.5104677,51.2255474 89.633853,51.2255474 L67.8280624,51.2255474 L66.5861915,48.0352798 L66.5861915,48.0352798 Z" id="Shape" fill="#FFFFFF"></path>
                            <path d="M62.6414254,23.0569343 C69.0699332,23.0569343 74.2565702,17.9090024 74.2565702,11.5284672 C74.2565702,10.513382 74.1104677,9.49829684 73.8547884,8.55571776 L68.0837416,8.55571776 L68.0837416,8.55571776 C65.7095768,8.55571776 63.7737194,6.63430657 63.7737194,4.27785888 C63.7737194,2.64647202 64.6868597,1.23260341 66.0383073,0.507542579 C64.942539,0.181265207 63.810245,4.4408921e-16 62.6048998,4.4408921e-16 C56.176392,4.4408921e-16 50.989755,5.14793187 50.989755,11.5284672 C51.0262806,17.9090024 56.2129176,23.0569343 62.6414254,23.0569343 L62.6414254,23.0569343 Z" id="Shape" fill="#FFDD22"></path>
                            <path d="M73.9278396,14.2474453 C74.1469933,13.3773723 74.2565702,12.4710462 74.2565702,11.5284672 C74.2565702,10.513382 74.1104677,9.49829684 73.8547884,8.55571776 L68.0837416,8.55571776 L68.0837416,8.55571776 C65.7095768,8.55571776 63.7737194,6.63430657 63.7737194,4.27785888 C63.7737194,2.64647202 64.6868597,1.23260341 66.0383073,0.507542579 C63.0066815,1.63138686 60.8151448,4.56788321 60.8151448,7.9756691 C60.8151448,12.3985401 64.4311804,15.9875912 68.8873051,15.9875912 C70.786637,15.9875912 72.5398664,15.3350365 73.9278396,14.2474453 L73.9278396,14.2474453 Z" id="Shape" fill="#FDC300"></path>
                            <path d="M95.0761693,23.0569343 L62.6414254,23.0569343 L62.6414254,15.9875912 L88.6476615,15.9875912 L88.6476615,15.9875912 C92.2271715,16.1688564 95.0761693,19.286618 95.0761693,23.0569343 L95.0761693,23.0569343 Z" id="Shape" fill="#FFDD22"></path>
                            <path d="M88.3554566,8.55571776 L68.8873051,8.55571776 L68.8873051,15.9875912 L101.102895,15.9875912 C98.6191537,11.5647202 93.8342984,8.55571776 88.3554566,8.55571776 L88.3554566,8.55571776 Z" id="Shape" fill="#FDC300"></path>
                            <rect id="Rectangle-path" fill="#FDC300" x="95.0761693" y="23.0569343" width="4.05434298" height="16.5313869"></rect>
                            <path d="M99.1305122,43.6124088 C101.358575,43.6124088 103.184855,41.7997567 103.184855,39.5883212 C103.184855,37.3768856 101.358575,35.5642336 99.1305122,35.5642336 C96.9024499,35.5642336 95.0761693,37.3768856 95.0761693,39.5883212 C95.0761693,41.7997567 96.9024499,43.6124088 99.1305122,43.6124088 L99.1305122,43.6124088 Z" id="Shape" fill="#EFC27F"></path>
                            <path d="M99.1305122,41.6547445 C100.262806,41.6547445 101.212472,40.7484185 101.212472,39.5883212 C101.212472,38.4644769 100.299332,37.5218978 99.1305122,37.5218978 C97.9616927,37.5218978 97.0485523,38.4282238 97.0485523,39.5883212 C97.0485523,40.7121655 97.9982183,41.6547445 99.1305122,41.6547445 L99.1305122,41.6547445 Z" id="Shape" fill="#E8A955"></path>
                            <path d="M89.3051225,43.5399027 C91.3140312,43.5399027 92.9576837,41.9085158 92.9576837,39.9145985 C92.9576837,37.9206813 91.3140312,36.2892944 89.3051225,36.2892944 C87.2962138,36.2892944 85.6525612,37.9206813 85.6525612,39.9145985 C85.6525612,41.9085158 87.2962138,43.5399027 89.3051225,43.5399027 L89.3051225,43.5399027 Z" id="Shape" fill="#E35447"></path>
                            <path d="M77.0690423,28.5311436 C79.7719376,24.9420925 83.6801782,26.2472019 85.2142539,28.5311436" id="Shape" stroke="#E8A955" stroke-width="2.21269709"></path>
                            <g id="Group" transform="translate(78.164811, 29.002433)">
                                <ellipse id="Oval" fill="#012C4E" cx="2.99510022" cy="5.54671533" rx="2.84899777" ry="5.256691"></ellipse>
                                <ellipse id="Oval" fill="#FFFFFF" cx="3.90824053" cy="5.54671533" rx="0.913140312" ry="1.70389294"></ellipse>
                            </g>
                            <g id="Group" transform="translate(63.919822, 30.815085)">
                                <path d="M2.22806236,8.99075426 C3.36035635,8.99075426 4.27349666,7.03309002 4.27349666,4.64038929 C4.27349666,2.24768856 3.36035635,0.290024331 2.22806236,0.290024331 C1.09576837,0.290024331 0.182628062,2.24768856 0.182628062,4.64038929 C0.182628062,7.03309002 1.09576837,8.99075426 2.22806236,8.99075426 L2.22806236,8.99075426 Z" id="Shape" fill="#012C4E"></path>
                                <ellipse id="Oval" fill="#FFFFFF" cx="2.88552339" cy="4.64038929" rx="0.657461024" ry="1.41386861"></ellipse>
                            </g>
                            <path d="M72.8685969,38.9720195 C74.0008909,38.9720195 74.8775056,39.8783455 74.8775056,40.9659367 C74.8775056,41.219708 74.84098,41.4372263 74.7679287,41.6547445 L70.969265,41.6547445 C70.8962138,41.4372263 70.8596882,41.219708 70.8596882,40.9659367 C70.8596882,39.8420925 71.7728285,38.9720195 72.8685969,38.9720195 L72.8685969,38.9720195 Z" id="Shape" fill="#E35447"></path>
                            <path d="M87.2231626,23.0569343 L87.2231626,21.0992701 L95.0761693,22.9119221 L95.0761693,30.1262774 C95.0761693,26.3559611 92.2271715,23.2381995 88.6476615,23.0569343 L88.6476615,23.0569343 L87.2231626,23.0569343 L87.2231626,23.0569343 Z" id="Shape" fill="#FFDD22"></path>
                            <ellipse id="Oval" fill="#E8A955" transform="translate(23.285545, 97.225698) rotate(-55.321515) translate(-23.285545, -97.225698) " cx="23.2855455" cy="97.2256975" rx="3.54316644" ry="3.51672569"></ellipse>
                            <polygon id="Shape" fill="#7F9DA6" points="22.5363029 78.4515815 8.43741648 78.4515815 0.657461024 86.2097324 0.657461024 93.750365 0.657461024 109.085401 11.5786192 109.085401 22.5363029 109.085401 22.5363029 93.750365"></polygon>
                            <rect id="Rectangle-path" fill="#1B606D" x="143.801336" y="80.3729927" width="18.0436526" height="6.99683698"></rect>
                            <rect id="Rectangle-path" fill="#1B606D" x="153.772829" y="89.2549878" width="8.03563474" height="7.9756691"></rect>
                            <rect id="Rectangle-path" fill="#E35447" x="153.772829" y="99.1883212" width="8.03563474" height="7.9756691"></rect>
                            <rect id="Rectangle-path" fill="#1B606D" x="143.801336" y="89.2549878" width="8.03563474" height="7.9756691"></rect>
                            <rect id="Rectangle-path" fill="#1B606D" x="143.801336" y="99.1883212" width="8.03563474" height="7.9756691"></rect>
                            <polygon id="Shape" fill="#7F9DA6" points="154.941648 92.6990268 156.073942 92.6990268 157.242762 92.6990268 158.375056 92.6990268 159.543875 92.6990268 160.676169 92.6990268 160.676169 93.822871 159.543875 93.822871 158.375056 93.822871 157.242762 93.822871 156.073942 93.822871 154.941648 93.822871"></polygon>
                            <polygon id="Shape" fill="#7F9DA6" points="147.234744 90.4150852 148.403563 90.4150852 148.403563 92.6990268 150.704677 92.6990268 150.704677 93.822871 148.403563 93.822871 148.403563 96.1068127 147.234744 96.1068127 147.234744 93.822871 144.970156 93.822871 144.970156 92.6990268 147.234744 92.6990268"></polygon>
                            <g id="Group" transform="translate(154.868597, 101.145985)" fill="#7F9DA6">
                                <polygon id="Shape" points="0.0730512249 1.45012165 1.20534521 1.45012165 2.37416481 1.45012165 3.5064588 1.45012165 4.6752784 1.45012165 5.80757238 1.45012165 5.80757238 0.326277372 4.6752784 0.326277372 3.5064588 0.326277372 2.37416481 0.326277372 1.20534521 0.326277372 0.0730512249 0.326277372"></polygon>
                                <polygon id="Shape" points="0.0730512249 3.73406326 1.20534521 3.73406326 2.37416481 3.73406326 3.5064588 3.73406326 4.6752784 3.73406326 5.80757238 3.73406326 5.80757238 2.61021898 4.6752784 2.61021898 3.5064588 2.61021898 2.37416481 2.61021898 1.20534521 2.61021898 0.0730512249 2.61021898"></polygon>
                            </g>
                            <polygon id="Shape" fill="#7F9DA6" points="149.462806 100.747202 150.26637 101.544769 148.622717 103.176156 150.26637 104.77129 149.462806 105.605109 147.819154 103.973723 146.212027 105.605109 145.371938 104.77129 147.01559 103.176156 145.371938 101.544769 146.212027 100.747202 147.819154 102.378589"></polygon>
                            <g id="Group" transform="translate(136.240535, 85.194647)" fill="#EFC27F">
                                <ellipse id="Oval" transform="translate(5.224821, 5.145619) rotate(-36.755306) translate(-5.224821, -5.145619) " cx="5.22482085" cy="5.14561893" rx="3.5429915" ry="3.51655205"></ellipse>
                                <ellipse id="Oval" transform="translate(11.803354, 3.001585) rotate(-36.755306) translate(-11.803354, -3.001585) " cx="11.8033539" cy="3.00158506" rx="1.46102742" ry="1.45012455"></ellipse>
                                <polygon id="Shape" points="2.00890869 4.45912409 11.688196 4.45912409 11.688196 1.59513382 5.22316258 1.63138686"></polygon>
                            </g>
                            <polygon id="Shape" fill="#E35447" points="8.43741648 78.4515815 0.657461024 86.2097324 8.43741648 86.2097324"></polygon>
                            <rect id="Rectangle-path" fill="#E35447" transform="translate(137.097323, 37.956191) rotate(-67.659134) translate(-137.097323, -37.956191) " x="135.289381" y="36.1617409" width="3.61588379" height="3.58890039"></rect>
                            <rect id="Rectangle-path" fill="#7F9DA6" transform="translate(18.921750, 48.511130) rotate(-22.351464) translate(-18.921750, -48.511130) " x="3.58047062" y="37.0910331" width="30.6825592" height="22.8401937"></rect>
                            <polygon id="Shape" fill="#E35447" points="0.365256125 43.7211679 1.1688196 45.6788321 19.7238307 50.4279805 29.5492205 34.0778589 28.745657 32.1564477"></polygon>
                            <polygon id="Shape" fill="#5E838F" points="8.83919822 64.2041363 17.4592428 49.8479319 18.5915367 50.1379562 9.9714922 64.4941606 9.13140312 64.820438"></polygon>
                            <polygon id="Shape" fill="#5E838F" points="20.9291759 48.4340633 37.2195991 52.603163 37.4752784 53.2557178 36.5986637 53.6182482 20.3447661 49.4128954"></polygon>
                            <polygon id="Shape" fill="#5E838F" points="1.1688196 45.6788321 20.0525612 50.5004866 19.3951002 51.5155718 1.71670379 46.9476886"></polygon>
                            <polygon id="Shape" fill="#5E838F" points="19.1394209 51.4430657 29.5492205 34.0778589 30.0605791 35.3829684 20.2717149 51.73309"></polygon>
                            <polygon id="Shape" fill="#1B606D" points="160.164811 47.9990268 154.247661 62.3189781 131.893987 53.2194647 141.6098 49.5216545 148.841871 52.3493917"></polygon>
                            <g id="Group" transform="translate(133.683742, 48.216545)" fill="#F1CD9F">
                                <ellipse id="Oval" transform="translate(4.491818, 8.845927) rotate(-12.421296) translate(-4.491818, -8.845927) " cx="4.49181755" cy="8.84592698" rx="3.54301199" ry="3.51657239"></ellipse>
                                <ellipse id="Oval" transform="translate(5.223031, 2.030290) rotate(-12.421296) translate(-5.223031, -2.030290) " cx="5.22303109" cy="2.03028995" rx="1.46103587" ry="1.45013294"></ellipse>
                                <polygon id="Shape" points="2.52026726 11.4922141 6.50155902 2.7189781 3.90824053 1.55888078 1.27839644 7.39562044"></polygon>
                            </g>
                            <polygon id="Shape" fill="#1B606D" points="10.3732739 80.3729927 10.3732739 88.1311436 2.59331849 88.1311436 2.59331849 107.16399 20.6004454 107.16399 20.6004454 80.3729927"></polygon>
                            <g id="Group" transform="translate(14.244989, 85.194647)" fill="#EFC27F">
                                <ellipse id="Oval" transform="translate(8.683051, 5.214927) rotate(-53.244694) translate(-8.683051, -5.214927) " cx="8.68305122" cy="5.21492749" rx="3.5429915" ry="3.51655205"></ellipse>
                                <ellipse id="Oval" transform="translate(2.099507, 3.077010) rotate(-53.249285) translate(-2.099507, -3.077010) " cx="2.09950682" cy="3.07700951" rx="1.46094" ry="1.45003778"></ellipse>
                                <polygon id="Shape" points="11.9073497 4.53163017 2.22806236 4.53163017 2.22806236 1.6676399 8.69309577 1.70389294"></polygon>
                            </g>
                            <polygon id="Shape" fill="#1B606D" points="1.1688196 45.6788321 19.7238307 50.4279805 19.9064588 52.4944039 2.08195991 47.8902676"></polygon>
                            <polygon id="Shape" fill="#1B606D" points="21.4040089 48.0352798 37.036971 52.0593674 37.4752784 53.2557178 36.0142539 53.8720195 20.3447661 49.7754258"></polygon>
                            <polygon id="Shape" fill="#1B606D" points="18.5550111 50.8992701 10.7385301 64.1678832 9.13140312 64.820438 8.65657016 63.7690998 16.874833 49.8841849"></polygon>
                            <polygon id="Shape" fill="#1B606D" points="20.5639198 52.6394161 18.7011136 52.1681265 29.5492205 34.0778589 30.4258352 36.2167883"></polygon>
                            <g id="Group" transform="translate(21.915367, 48.216545)" fill="#F1CD9F">
                                <ellipse id="Oval" transform="translate(4.303849, 8.850890) rotate(-77.573109) translate(-4.303849, -8.850890) " cx="4.30384944" cy="8.85089002" rx="3.54308822" ry="3.51664805"></ellipse>
                                <ellipse id="Oval" transform="translate(3.570466, 2.012109) rotate(-77.578704) translate(-3.570466, -2.012109) " cx="3.57046628" cy="2.01210905" rx="1.46103587" ry="1.45013294"></ellipse>
                                <polygon id="Shape" points="6.28240535 11.4922141 2.30111359 2.7189781 4.93095768 1.55888078 7.56080178 7.39562044"></polygon>
                            </g>
                            <path d="M75.5714922,71.889781 L82.1826281,80.4092457 L88.8302895,71.889781 L88.4285078,109.774209 C86.3830735,109.919221 84.3011136,110.027981 82.1826281,110.027981 C80.0276169,110.027981 77.9091314,109.955474 75.7906459,109.774209 L75.5714922,71.889781 L75.5714922,71.889781 Z" id="Shape" fill="#FFFFFF"></path>
                            <path d="M87.6249443,71.889781 L88.8302895,71.889781 L88.7572383,77.2189781 C87.2231626,79.2491484 84.9951002,80.3004866 82.2556793,80.3004866 L82.1461024,80.3004866 L82.1461024,80.3004866 L81.7443207,80.3004866 C77.9821826,80.0829684 75.5349666,75.6963504 75.5349666,71.9260341 L77.1786192,71.9260341 L77.1786192,71.9260341 C77.1786192,74.6450122 79.4066815,76.8927007 82.1826281,76.8927007 C84.922049,76.8927007 87.186637,74.6812652 87.186637,71.9260341 L87.186637,71.9260341 L87.6249443,71.889781 L87.6249443,71.889781 L87.6249443,71.889781 Z" id="Shape" fill="#FFFFFF"></path>
                            <polygon id="Shape" fill="#CC4538" points="75.5714922 71.889781 73.3799555 71.889781 71.1518931 77.6540146 73.3799555 80.5180049 71.1518931 83.4182482 75.5714922 97.8469586"></polygon>
                            <polygon id="Shape" fill="#CC4538" points="88.8668151 71.889781 91.0583519 71.889781 93.2864143 77.6540146 91.0583519 80.5180049 93.2864143 83.4182482 88.8668151 97.8469586"></polygon>
                            <path d="M33.7131403,112.819465 C35.7585746,112.52944 37.511804,110.571776 37.8040089,108.759124 C38.0962138,110.571776 39.8129176,112.52944 41.8948775,112.819465 C39.8494432,113.109489 38.0962138,115.067153 37.8040089,116.879805 C37.4752784,115.0309 35.7585746,113.109489 33.7131403,112.819465 L33.7131403,112.819465 Z" id="Shape" fill="#FFFFFF"></path>
                            <path d="M106.14343,60.6513382 C108.188864,60.3613139 109.942094,58.4036496 110.234298,56.5909976 C110.526503,58.4036496 112.243207,60.3613139 114.325167,60.6513382 C112.279733,60.9413625 110.526503,62.8990268 110.234298,64.7116788 C109.942094,62.8990268 108.188864,60.9413625 106.14343,60.6513382 L106.14343,60.6513382 Z" id="Shape" fill="#FFFFFF"></path>
                        </g>
                    </g>
                </g>
            </g>
        </g>
    </g>
</svg>