<?xml version="1.0" encoding="UTF-8"?>
<svg width="286px" height="167px" viewBox="0 0 286 167" version="1.1" xmlns="http://www.w3.org/2000/svg" xmlns:xlink="http://www.w3.org/1999/xlink">
    <!-- Generator: Sketch 40 (33762) - http://www.bohemiancoding.com/sketch -->
    <title>3.2-illustration anounce#4</title>
    <desc>Created with Sketch.</desc>
    <defs>
        <rect id="path-1" x="0" y="0" width="286" height="167"></rect>
    </defs>
    <g id="main" stroke="none" stroke-width="1" fill="none" fill-rule="evenodd">
        <g id="article-2" transform="translate(-1126.000000, -5822.000000)">
            <g id="3.2-illustration-anounce#4" transform="translate(1126.000000, 5822.000000)">
                <mask id="mask-2" fill="white">
                    <use xlink:href="#path-1"></use>
                </mask>
                <use id="Mask" fill="#B0DCE9" xlink:href="#path-1"></use>
                <g id="01" mask="url(#mask-2)">
                    <g transform="translate(45.000000, 19.000000)" id="Слой_1">
                        <g>
                            <g id="Слой_x0020_1">
                                <g id="_2933262976">
                                    <path d="M127.309183,36.8775 C162.727885,36.8775 191.41786,65.54625 191.41786,100.93875 C191.41786,136.33125 162.727885,165 127.309183,165 C91.8904802,165 63.2005055,136.33125 63.2005055,100.93875 C63.2005055,65.54625 91.8904802,36.8775 127.309183,36.8775 L127.309183,36.8775 Z" id="Shape" fill="#B0DCE9"></path>
                                    <path d="M166.195451,50.03625 L140.064869,50.03625 C137.340354,50.03625 135.111205,52.26375 135.111205,54.98625 L135.111205,54.98625 C135.111205,57.70875 137.340354,59.93625 140.064869,59.93625 L176.515586,59.93625 C173.460826,56.265 169.99326,52.965 166.195451,50.03625 L166.195451,50.03625 Z" id="Shape" fill="#D9EEF4"></path>
                                    <path d="M149.064027,131.4225 L8.09098568,131.4225 C3.63268745,131.4225 0,135.0525 0,139.54875 L0,139.54875 C0,144.00375 3.63268745,147.63375 8.09098568,147.63375 L149.064027,147.63375 L149.064027,131.4225 L149.064027,131.4225 Z" id="Shape" fill="#D9EEF4"></path>
                                    <path d="M46.935973,131.4225 L187.909014,131.4225 C192.367313,131.4225 196,135.0525 196,139.54875 L196,139.54875 C196,144.00375 192.367313,147.63375 187.909014,147.63375 L46.935973,147.63375 L46.935973,131.4225 L46.935973,131.4225 Z" id="Shape" fill="#D9EEF4"></path>
                                    <path d="M147.206403,50.03625 L108.485257,50.03625 C105.760741,50.03625 103.531592,52.26375 103.531592,54.98625 L103.531592,54.98625 C103.531592,57.70875 105.760741,59.93625 108.485257,59.93625 L147.206403,59.93625 L147.206403,50.03625 L147.206403,50.03625 Z" id="Shape" fill="#D9EEF4"></path>
                                    <path d="M135.193766,111.08625 C128.093513,113.72625 123.965459,113.685 121.612468,111.9525 C118.764111,109.84875 118.846672,106.38375 119.837405,102.25875 C120.415333,99.7425 121.529907,96.89625 123.181129,93.92625 C124.667228,91.20375 126.524853,88.39875 128.836563,85.635 L133.625105,89.595 C131.561078,92.07 129.868576,94.545 128.63016,96.89625 C127.309183,99.37125 126.401011,101.68125 125.905644,103.7025 C125.451559,105.55875 125.203875,106.92 125.327717,107.0025 C125.988206,107.45625 128.217355,107.085 133.047178,105.27 L135.193766,111.08625 L135.193766,111.08625 Z" id="Shape" fill="#E3BA8D"></path>
                                    <path d="M165.782645,105.27 C170.653749,107.04375 172.882898,107.45625 173.502106,107.0025 C173.667228,106.87875 173.378265,105.5175 172.924179,103.7025 C172.470093,101.68125 171.561921,99.37125 170.199663,96.89625 C168.919966,94.545 167.268745,92.11125 165.204718,89.595 L169.99326,85.635 C172.304971,88.39875 174.162595,91.20375 175.648694,93.92625 C177.258635,96.89625 178.37321,99.7425 178.992418,102.25875 C179.983151,106.38375 180.065712,109.84875 177.217355,111.9525 C174.864364,113.685 170.777591,113.685 163.636057,111.08625 L165.782645,105.27 L165.782645,105.27 Z" id="Shape" fill="#E0AF74"></path>
                                    <polygon id="Shape" fill="#819EA6" points="147.495366 132.70125 147.495366 141.1575 135.400168 141.1575 133.377422 141.1575 133.377422 127.545 133.418703 127.545 132.386689 119.955 149.559393 119.955 149.559393 132.70125"></polygon>
                                    <polygon id="Shape" fill="#628691" points="151.540859 132.70125 151.540859 141.1575 163.594777 141.1575 165.658804 141.1575 165.658804 127.545 165.617523 127.545 166.732098 119.955 149.559393 119.955 149.559393 132.70125"></polygon>
                                    <path d="M167.433867,94.875 C167.433867,97.47375 167.433867,100.0725 167.475147,102.63 L167.557709,107.04375 L167.557709,115.29375 C167.598989,119.3775 167.598989,123.42 167.598989,127.50375 L155.090986,127.50375 L155.090986,127.50375 L149.518113,127.50375 L149.394271,127.50375 L143.738837,127.50375 L143.738837,127.50375 L131.230834,127.50375 L131.230834,107.04375 L131.478517,94.66875 L128.795282,99.04125 L121.364785,94.6275 L124.584667,88.89375 C126.35973,85.75875 127.144061,84.19125 129.744735,81.5925 C131.973884,79.365 134.615838,77.4675 137.464195,76.18875 C140.477675,74.78625 143.738837,74.04375 147.330244,73.755 C150.385004,73.5075 153.563606,73.6725 156.329402,74.415 C162.149958,75.94125 169.374052,80.4375 172.304971,85.635 L177.382477,94.6275 L169.95198,99.04125 L167.392586,94.875 L167.433867,94.875 L167.433867,94.875 Z" id="Shape" fill="#E1574C"></path>
                                    <path d="M167.433867,94.875 C167.433867,97.47375 167.433867,100.0725 167.475147,102.63 L167.557709,107.04375 L167.557709,115.29375 C167.598989,119.3775 167.598989,123.42 167.598989,127.50375 L155.090986,127.50375 L155.090986,127.50375 L149.518113,127.50375 L149.518113,73.59 C151.871104,73.54875 154.224094,73.79625 156.329402,74.3325 C162.149958,75.85875 169.374052,80.355 172.304971,85.5525 L177.382477,94.545 L169.95198,98.95875 L167.392586,94.7925 L167.433867,94.875 L167.433867,94.875 Z" id="Shape" fill="#CB4B40"></path>
                                    <polygon id="Shape" fill="#D8D9D9" points="177.712721 94.545 169.786858 99.2475 168.713564 97.39125 176.639427 92.6475"></polygon>
                                    <path d="M165.823926,105.93 C163.718618,105.88875 156.246841,106.96125 149.394271,108.28125 L149.394271,102.01125 C156.329402,100.69125 163.594777,99.70125 165.947767,99.78375 L165.782645,105.93 L165.823926,105.93 L165.823926,105.93 Z" id="Shape" fill="#E3BA8D"></path>
                                    <path d="M143.367313,74.3325 C143.738837,77.34375 146.298231,79.65375 149.352991,79.65375 C152.490312,79.65375 154.884583,77.17875 155.214827,74.12625 C152.737995,73.63125 150.013479,73.54875 147.371525,73.755 C145.967987,73.87875 144.647009,74.04375 143.367313,74.29125 L143.367313,74.3325 L143.367313,74.3325 Z" id="Shape" fill="#1E3654"></path>
                                    <path d="M144.72957,162.64875 L144.72957,140.6625 L136.184499,140.6625 L136.184499,164.4225 C139.115417,164.01 141.963774,163.4325 144.72957,162.64875 L144.72957,162.64875 Z" id="Shape" fill="#E3BA8D"></path>
                                    <path d="M162.893008,154.275 L162.893008,140.91 L154.347936,140.91 L154.347936,159.10125 C157.320135,157.69875 160.168492,156.09 162.893008,154.275 L162.893008,154.275 Z" id="Shape" fill="#E0AF74"></path>
                                    <polygon id="Shape" fill="#99B1B7" points="132.882056 141.1575 147.990733 141.1575 147.990733 138.55875 132.882056 138.55875"></polygon>
                                    <polygon id="Shape" fill="#72929C" points="151.045493 141.1575 166.15417 141.1575 166.15417 138.55875 151.045493 138.55875"></polygon>
                                    <path d="M145.926706,67.32 L145.926706,81.13875 L153.233361,81.13875 L153.233361,67.27875 C151.994945,67.44375 150.715249,67.52625 149.435552,67.52625 L149.435552,67.52625 C148.238416,67.52625 147.082561,67.44375 145.926706,67.32 L145.926706,67.32 Z" id="Shape" fill="#E0AF74"></path>
                                    <path d="M139.775906,75.28125 C140.560236,79.86 144.564448,83.36625 149.394271,83.36625 C153.563606,83.36625 157.155013,80.72625 158.558551,77.01375 C158.764954,76.51875 158.930076,75.85875 159.053917,75.28125 C158.145746,74.95125 157.237574,74.62125 156.370682,74.415 C155.957877,74.29125 155.545072,74.20875 155.132266,74.12625 C154.843302,77.055 152.407751,79.365 149.394271,79.365 C146.422072,79.365 143.986521,77.1375 143.656276,74.25 C142.294019,74.4975 141.014322,74.8275 139.775906,75.28125 L139.775906,75.28125 Z" id="Shape" fill="#D8D9D9"></path>
                                    <path d="M132.551811,41.8275 C134.285594,41.8275 135.689132,43.23 135.689132,44.9625 C135.689132,46.695 134.285594,48.0975 132.551811,48.0975 C130.818029,48.0975 129.41449,46.695 129.41449,44.9625 C129.41449,43.23 130.818029,41.8275 132.551811,41.8275 L132.551811,41.8275 Z" id="Shape" fill="#E1574C"></path>
                                    <path d="M167.268745,41.8275 C165.534962,41.8275 164.131424,43.23 164.131424,44.9625 C164.131424,46.695 165.534962,48.0975 167.268745,48.0975 C169.002527,48.0975 170.406066,46.695 170.406066,44.9625 C170.406066,43.23 169.002527,41.8275 167.268745,41.8275 L167.268745,41.8275 Z" id="Shape" fill="#E1574C"></path>
                                    <path d="M171.355518,19.67625 L171.355518,33.495 C173.79107,33.495 175.813816,35.475 175.813816,37.95 C175.813816,40.38375 173.83235,42.405 171.355518,42.405 L171.355518,53.3775 C171.355518,65.4225 161.489469,75.28125 149.435552,75.28125 C137.381634,75.28125 127.515586,65.4225 127.515586,53.3775 L127.515586,19.7175 L149.435552,19.7175 L171.355518,19.7175 L171.355518,19.67625 L171.355518,19.67625 Z" id="Shape" fill="#E0AF74"></path>
                                    <path d="M149.435552,75.24 C137.381634,75.24 127.515586,65.38125 127.515586,53.33625 L127.515586,42.36375 C125.080034,42.36375 123.057287,40.38375 123.057287,37.90875 C123.057287,35.475 125.038753,33.45375 127.515586,33.45375 L127.515586,19.635 L149.435552,19.635 L149.435552,75.19875 L149.435552,75.24 L149.435552,75.24 Z" id="Shape" fill="#E3BA8D"></path>
                                    <path d="M127.474305,42.405 C125.038753,42.405 123.016007,40.425 123.016007,37.95 C123.016007,35.51625 124.997473,33.495 127.474305,33.495 L127.474305,42.36375 L127.474305,42.405 L127.474305,42.405 Z" id="Shape" fill="#E3BA8D"></path>
                                    <path d="M171.355518,35.68125 C172.593934,35.68125 173.625948,36.7125 173.625948,37.95 C173.625948,39.1875 172.593934,40.21875 171.355518,40.21875 L171.355518,35.68125 L171.355518,35.68125 Z" id="Shape" fill="#B0774A"></path>
                                    <path d="M127.474305,35.68125 C126.235889,35.68125 125.203875,36.7125 125.203875,37.95 C125.203875,39.1875 126.235889,40.21875 127.474305,40.21875 L127.474305,35.68125 L127.474305,35.68125 Z" id="Shape" fill="#B0774A"></path>
                                    <path d="M149.435552,39.3525 C150.673968,39.3525 151.664701,40.3425 151.664701,41.58 C151.664701,41.8275 151.62342,42.11625 151.540859,42.3225 L147.371525,42.3225 C147.288964,42.075 147.247683,41.8275 147.247683,41.58 C147.247683,40.3425 148.238416,39.3525 149.476832,39.3525 L149.435552,39.3525 L149.435552,39.3525 Z" id="Shape" fill="#E1574C"></path>
                                    <path d="M145.555181,31.02 C143.367313,27.84375 138.331087,28.215 136.597304,31.02" id="Shape"></path>
                                    <path d="M157.774221,31.72125 C156.040438,31.72125 154.6369,33.12375 154.6369,34.85625 C154.6369,36.58875 156.040438,37.99125 157.774221,37.99125 C159.508003,37.99125 160.911542,36.58875 160.911542,34.85625 C160.911542,33.12375 159.508003,31.72125 157.774221,31.72125 L157.774221,31.72125 Z" id="Shape" fill="#1E3654"></path>
                                    <path d="M158.764954,33.825 C158.187026,33.825 157.774221,34.27875 157.774221,34.815 C157.774221,35.3925 158.228307,35.805 158.764954,35.805 C159.342881,35.805 159.755687,35.35125 159.755687,34.815 C159.755687,34.2375 159.301601,33.825 158.764954,33.825 L158.764954,33.825 Z" id="Shape" fill="#FEFEFE"></path>
                                    <path d="M141.096883,31.72125 C139.3631,31.72125 137.959562,33.12375 137.959562,34.85625 C137.959562,36.58875 139.3631,37.99125 141.096883,37.99125 C142.830666,37.99125 144.234204,36.58875 144.234204,34.85625 C144.234204,33.12375 142.830666,31.72125 141.096883,31.72125 L141.096883,31.72125 Z" id="Shape" fill="#1E3654"></path>
                                    <path d="M142.087616,33.825 C141.509688,33.825 141.096883,34.27875 141.096883,34.815 C141.096883,35.3925 141.550969,35.805 142.087616,35.805 C142.665543,35.805 143.078349,35.35125 143.078349,34.815 C143.078349,34.2375 142.624263,33.825 142.087616,33.825 L142.087616,33.825 Z" id="Shape" fill="#FEFEFE"></path>
                                    <path d="M162.232519,31.02 C160.04465,27.84375 155.008425,28.215 153.274642,31.02" id="Shape"></path>
                                    <path d="M172.222409,42.3225 C171.933446,42.36375 171.644482,42.405 171.355518,42.405 L171.355518,53.3775 C171.355518,65.4225 161.489469,75.28125 149.435552,75.28125 C137.381634,75.28125 127.515586,65.4225 127.515586,53.3775 L127.515586,42.3225 L127.515586,42.3225 L127.515586,25.575 L132.882056,25.575 L132.882056,39.14625 L132.882056,39.14625 L132.882056,39.1875 C132.882056,40.8375 134.161752,42.19875 135.812974,42.28125 L135.812974,42.28125 L163.09941,42.28125 L163.09941,42.28125 C164.709351,42.1575 165.989048,40.8375 166.030329,39.22875 L166.030329,39.14625 L166.030329,25.575 L171.396799,25.575 L171.396799,42.3225 L172.26369,42.3225 L172.222409,42.3225 L172.222409,42.3225 Z" id="Shape" fill="#B0774A"></path>
                                    <path d="M149.435552,63.9375 C135.647852,63.9375 133.25358,49.0875 133.748947,49.0875 C133.748947,46.7775 135.606571,44.92125 137.918281,44.92125 L160.911542,44.92125 C163.223252,44.92125 165.080876,46.7775 165.080876,49.0875 C165.204718,50.03625 162.810447,63.9375 149.394271,63.9375 L149.435552,63.9375 L149.435552,63.9375 Z" id="Shape" fill="#1E3654"></path>
                                    <path d="M134.285594,52.2225 C136.060657,58.94625 142.170177,63.9375 149.435552,63.9375 C144.027801,59.9775 143.94524,47.80875 149.435552,44.92125 L137.959562,44.92125 L137.959562,44.92125 C135.647852,44.92125 133.790227,46.7775 133.790227,49.0875 L133.790227,49.0875 C133.872789,50.11875 134.037911,51.19125 134.326874,52.2225 L134.285594,52.2225 L134.285594,52.2225 Z" id="Shape" fill="#192D45"></path>
                                    <path d="M149.435552,47.31375 L137.918281,47.31375 C136.927548,47.31375 136.143218,48.0975 136.143218,49.0875 L136.143218,49.0875 C136.143218,50.0775 136.927548,50.86125 137.918281,50.86125 L149.435552,50.86125 L160.952822,50.86125 C161.943555,50.86125 162.727885,50.0775 162.727885,49.0875 L162.727885,49.0875 C162.727885,48.0975 161.943555,47.31375 160.952822,47.31375 L149.435552,47.31375 L149.435552,47.31375 Z" id="Shape" fill="#FEFEFE"></path>
                                    <path d="M146.793597,30.31875 C147.206403,30.89625 147.041281,31.68 146.463353,32.0925 C145.885425,32.505 145.101095,32.34 144.68829,31.7625 C144.358045,31.2675 143.94524,30.89625 143.491154,30.64875 C142.706824,30.15375 141.798652,29.9475 140.89048,29.98875 C139.982308,30.03 139.115417,30.2775 138.413648,30.7725 C138.042123,31.02 137.711879,31.35 137.464195,31.72125 C137.092671,32.34 136.30834,32.505 135.730413,32.13375 C135.111205,31.7625 134.946083,30.97875 135.317607,30.40125 C135.730413,29.7 136.30834,29.1225 137.01011,28.66875 C138.083404,27.92625 139.445661,27.51375 140.8492,27.4725 C142.211457,27.43125 143.656276,27.76125 144.853412,28.50375 C145.596462,28.9575 146.25695,29.57625 146.793597,30.36 L146.793597,30.31875 L146.793597,30.31875 Z" id="Shape" fill="#B0774A"></path>
                                    <path d="M163.470935,30.31875 C163.883741,30.89625 163.718618,31.68 163.140691,32.0925 C162.562763,32.505 161.778433,32.34 161.365628,31.7625 C161.035383,31.2675 160.622578,30.89625 160.168492,30.64875 C159.384162,30.15375 158.47599,29.9475 157.567818,29.98875 C156.659646,30.03 155.792755,30.2775 155.090986,30.7725 C154.719461,31.02 154.389217,31.35 154.141533,31.72125 C153.770008,32.34 152.985678,32.505 152.407751,32.13375 C151.788543,31.7625 151.62342,30.97875 151.994945,30.40125 C152.407751,29.7 152.985678,29.1225 153.687447,28.66875 C154.760741,27.92625 156.122999,27.51375 157.526537,27.4725 C158.888795,27.43125 160.333614,27.76125 161.53075,28.50375 C162.273799,28.9575 162.934288,29.57625 163.470935,30.36 L163.470935,30.31875 L163.470935,30.31875 Z" id="Shape" fill="#B0774A"></path>
                                    <path d="M149.435552,55.81125 C146.174389,55.81125 143.573715,57.04875 143.573715,58.53375 C143.573715,60.01875 146.21567,61.25625 149.435552,61.25625 C152.696714,61.25625 155.297388,60.01875 155.297388,58.53375 C155.297388,57.04875 152.655434,55.81125 149.435552,55.81125 L149.435552,55.81125 Z" id="Shape" fill="#E1574C"></path>
                                    <path d="M138.826453,1.815 L160.127211,1.815 C163.677338,1.815 166.855939,3.465 168.919966,6.0225 C171.685762,9.44625 171.314238,12.08625 171.314238,16.12875 L171.314238,25.36875 L171.314238,25.575 L127.474305,25.575 L127.474305,13.1175 C127.474305,6.93 132.551811,1.815 138.785173,1.815 L138.826453,1.815 L138.826453,1.815 Z" id="Shape" fill="#192D45"></path>
                                    <path d="M138.826453,1.815 L149.435552,1.815 L149.435552,25.575 L127.515586,25.575 L127.515586,13.1175 C127.515586,6.93 132.593092,1.815 138.826453,1.815 L138.826453,1.815 Z" id="Shape" fill="#1E3654"></path>
                                    <path d="M152.201348,1.815 L152.201348,0.9075 C152.201348,0.4125 151.788543,0 151.293176,0 L147.577928,0 C147.082561,0 146.669756,0.4125 146.669756,0.9075 L146.669756,1.815 L152.201348,1.815 L152.201348,1.815 Z" id="Shape" fill="#E1574C"></path>
                                    <polygon id="Shape" fill="#E1574C" points="115.709351 13.695 115.709351 12.045 122.685762 12.045 122.685762 12.045 160.168492 12.045 171.355518 23.1825 171.355518 25.575 127.598147 25.575"></polygon>
                                    <polygon id="Shape" fill="#CB4B40" points="127.598147 25.575 115.709351 13.695 159.466723 13.695 171.355518 25.575"></polygon>
                                    <path d="M173.584667,107.04375 L168.796125,107.04375 C162.645324,107.04375 162.645324,97.7625 168.796125,97.7625 L170.323505,97.7625 L172.800337,97.7625 C172.841618,97.9275 172.882898,98.0925 172.882898,98.29875 C172.882898,99.165 172.181129,99.825 171.355518,99.825 L171.314238,99.825 L171.314238,99.825 L178.166807,99.825 L178.166807,103.16625 L178.166807,103.24875 L178.166807,103.24875 C178.084246,105.93 175.855097,107.0025 173.584667,107.0025 L173.584667,107.04375 L173.584667,107.04375 Z" id="Shape" fill="#E3BA8D"></path>
                                    <path d="M149.435552,108.24 C151.375737,108.6525 153.439764,109.1475 155.462511,109.6425 C162.067397,111.25125 166.608256,112.40625 169.539174,112.86 L171.025274,107.415 C166.608256,106.05375 162.273799,104.94 156.94861,103.62 C154.430497,103.00125 151.912384,102.50625 149.476832,102.01125 L149.476832,108.19875 L149.435552,108.24 L149.435552,108.24 Z" id="Shape" fill="#E0AF74"></path>
                                    <path d="M130.033698,107.04375 C132.593092,107.04375 134.657119,104.94 134.657119,102.42375 L134.657119,102.42375 C134.657119,99.86625 132.551811,97.80375 130.033698,97.80375 L128.506318,97.80375 L128.134794,97.80375 C127.763269,98.505 127.474305,99.165 127.185341,99.825 C127.267902,99.825 127.350463,99.86625 127.474305,99.86625 L127.474305,99.86625 L127.515586,99.86625 L127.515586,99.86625 L127.474305,99.86625 L127.185341,99.86625 C126.607414,101.2275 126.194608,102.50625 125.905644,103.7025 C125.451559,105.55875 125.203875,106.92 125.327717,107.0025 C125.946925,107.20875 129.538332,107.04375 130.033698,107.04375 L130.033698,107.04375 Z" id="Shape" fill="#E0AF74"></path>
                                    <path d="M149.435552,108.24 C147.495366,108.6525 145.43134,109.1475 143.408593,109.6425 C136.803707,111.25125 132.262848,112.40625 129.331929,112.86 L127.84583,107.415 C132.262848,106.05375 136.597304,104.94 141.922494,103.62 C144.440607,103.00125 146.711036,102.58875 149.146588,102.09375 L149.394271,108.24 L149.435552,108.24 L149.435552,108.24 Z" id="Shape" fill="#E3BA8D"></path>
                                    <path d="M133.005897,105.93 C135.111205,105.88875 142.582982,106.96125 149.435552,108.28125 L149.435552,102.01125 C142.500421,100.69125 135.235046,99.70125 132.882056,99.78375 L133.047178,105.93 L133.005897,105.93 L133.005897,105.93 Z" id="Shape" fill="#E0AF74"></path>
                                    <polygon id="Shape" fill="#D8D9D9" points="121.117102 94.545 129.042965 99.2475 130.15754 97.39125 122.190396 92.6475"></polygon>
                                    <path d="M141.757372,88.81125 L142.005055,89.265 C142.211457,89.63625 142.37658,89.96625 142.459141,90.21375 C142.500421,90.29625 142.459141,90.3375 142.37658,90.37875 L141.550969,90.8325 C141.468408,90.87375 141.385847,90.87375 141.344566,90.79125 C141.220725,90.62625 141.138163,90.5025 141.055602,90.42 L140.271272,90.8325 L140.766639,91.74 L142.046335,91.08 C142.170177,91.03875 142.211457,91.03875 142.294019,91.1625 L142.789385,92.11125 C142.830666,92.19375 142.830666,92.27625 142.706824,92.35875 L141.427127,93.01875 L141.839933,93.8025 C141.922494,93.76125 142.128896,93.67875 142.37658,93.59625 C142.459141,93.555 142.541702,93.59625 142.582982,93.67875 L143.037068,94.50375 C143.078349,94.58625 143.078349,94.6275 142.995788,94.66875 L140.395114,96.07125 C140.312553,96.1125 140.271272,96.1125 140.229992,96.03 L139.775906,95.205 C139.734625,95.1225 139.734625,95.04 139.817186,94.99875 C139.941028,94.91625 140.10615,94.7925 140.229992,94.71 L138.702612,91.86375 C138.57877,91.94625 138.413648,92.02875 138.289806,92.1525 C138.248526,92.19375 138.207245,92.19375 138.165965,92.19375 C138.124684,92.19375 138.083404,92.1525 138.083404,92.11125 L137.629318,91.245 C137.588037,91.1625 137.588037,91.08 137.670598,91.03875 C138.248526,90.54375 139.032856,90.0075 140.023589,89.5125 C140.477675,89.265 140.973041,89.0175 141.509688,88.8525 C141.63353,88.81125 141.716091,88.8525 141.757372,88.935 L141.757372,88.81125 L141.757372,88.81125 Z M143.821398,91.1625 L143.738837,90.79125 C143.573715,89.8425 143.614996,89.1 143.94524,88.56375 C144.275484,88.0275 144.853412,87.65625 145.720303,87.49125 C146.587195,87.32625 147.288964,87.40875 147.78433,87.82125 C148.279697,88.1925 148.609941,88.89375 148.816344,89.8425 L148.898905,90.21375 C149.064027,91.1625 149.022746,91.905 148.692502,92.44125 C148.362258,92.9775 147.78433,93.34875 146.917439,93.51375 C146.050548,93.67875 145.348778,93.59625 144.853412,93.18375 C144.358045,92.8125 144.027801,92.11125 143.821398,91.1625 L143.821398,91.1625 Z M147.041281,90.5025 L147,90.21375 C146.876158,89.63625 146.752317,89.265 146.628475,89.05875 C146.504634,88.8525 146.298231,88.81125 146.009267,88.8525 C145.720303,88.89375 145.555181,89.05875 145.513901,89.265 C145.47262,89.5125 145.47262,89.88375 145.596462,90.46125 L145.637742,90.75 C145.761584,91.3275 145.885425,91.69875 146.009267,91.905 C146.133109,92.11125 146.339511,92.1525 146.628475,92.11125 C146.917439,92.07 147.082561,91.905 147.123842,91.69875 C147.165122,91.45125 147.123842,91.08 147.041281,90.5025 L147.041281,90.5025 Z M149.930918,90.1725 L149.972199,89.80125 C150.09604,88.8525 150.426285,88.15125 150.880371,87.73875 C151.375737,87.32625 152.036226,87.16125 152.903117,87.32625 C153.770008,87.45 154.389217,87.78 154.760741,88.31625 C155.090986,88.8525 155.214827,89.595 155.090986,90.54375 L155.049705,90.915 C154.925864,91.86375 154.595619,92.565 154.141533,92.9775 C153.646167,93.39 152.985678,93.555 152.118787,93.39 C151.251896,93.26625 150.632687,92.93625 150.261163,92.4 C149.930918,91.86375 149.807077,91.12125 149.930918,90.1725 L149.930918,90.1725 Z M153.192081,90.585 L153.233361,90.29625 C153.315922,89.71875 153.315922,89.3475 153.274642,89.1 C153.192081,88.8525 153.026959,88.72875 152.737995,88.6875 C152.449031,88.64625 152.242628,88.72875 152.118787,88.935 C151.994945,89.14125 151.912384,89.5125 151.829823,90.09 L151.788543,90.37875 C151.705981,90.95625 151.705981,91.3275 151.747262,91.575 C151.829823,91.8225 151.994945,91.94625 152.283909,91.9875 C152.572873,92.02875 152.779275,91.94625 152.903117,91.74 C153.026959,91.53375 153.10952,91.1625 153.192081,90.585 L153.192081,90.585 Z M155.462511,94.00875 C155.338669,93.92625 155.297388,93.8025 155.256108,93.72 C155.256108,93.6375 155.297388,93.4725 155.379949,93.3075 L157.196293,89.8425 C157.155013,89.8425 157.113732,89.80125 157.072452,89.80125 C157.031171,89.76 156.94861,89.76 156.907329,89.71875 C156.866049,89.6775 156.783488,89.6775 156.783488,89.6775 C156.659646,89.63625 156.659646,89.55375 156.700927,89.47125 L157.155013,88.605 C157.196293,88.5225 157.278854,88.48125 157.361415,88.5225 C158.145746,88.72875 158.888795,89.0175 159.673126,89.43 C160.581297,89.88375 161.076664,90.46125 161.241786,91.08 C161.365628,91.69875 161.241786,92.44125 160.74642,93.3075 L160.581297,93.59625 C160.374895,94.00875 160.168492,94.33875 159.920809,94.58625 C159.714406,94.83375 159.425442,95.04 159.136479,95.205 C158.847515,95.37 158.51727,95.41125 158.104465,95.37 C157.73294,95.32875 157.320135,95.16375 156.824768,94.91625 C156.246841,94.6275 155.792755,94.2975 155.462511,94.00875 L155.462511,94.00875 Z M159.136479,90.75 L158.847515,90.62625 L157.278854,93.555 C157.361415,93.6375 157.485257,93.72 157.650379,93.76125 C157.898062,93.885 158.104465,93.885 158.310868,93.72 C158.51727,93.555 158.723673,93.225 158.971356,92.73 L159.095198,92.4825 C159.384162,91.94625 159.549284,91.53375 159.549284,91.3275 C159.549284,91.08 159.384162,90.915 159.095198,90.75 L159.136479,90.75 L159.136479,90.75 Z" id="Shape" fill="#FEFEFE"></path>
                                    <path d="M154.141533,97.9275 L153.89385,97.4325 L153.89385,97.88625 L153.935131,97.88625 L153.976411,97.88625 C154.017692,97.88625 154.017692,97.9275 154.017692,97.9275 L154.017692,98.2575 C154.017692,98.29875 154.017692,98.29875 153.976411,98.29875 L153.068239,98.29875 C153.026959,98.29875 153.026959,98.29875 153.026959,98.2575 L153.026959,97.9275 C153.026959,97.88625 153.026959,97.88625 153.068239,97.88625 C153.10952,97.88625 153.192081,97.88625 153.233361,97.845 L153.233361,96.69 C153.1508,96.69 153.10952,96.69 153.068239,96.64875 C153.026959,96.64875 153.026959,96.6075 153.026959,96.6075 L153.026959,96.2775 C153.026959,96.23625 153.026959,96.23625 153.068239,96.23625 L153.976411,96.23625 C154.017692,96.23625 154.017692,96.23625 154.017692,96.2775 L154.017692,96.6075 C154.017692,96.64875 154.017692,96.64875 153.976411,96.64875 L153.935131,96.64875 L153.89385,96.64875 L153.89385,97.02 L154.306655,96.2775 C154.306655,96.23625 154.347936,96.195 154.389217,96.195 L154.967144,96.195 C155.008425,96.195 155.008425,96.195 155.008425,96.23625 L155.008425,96.56625 C155.008425,96.6075 155.008425,96.6075 154.967144,96.6075 C154.925864,96.6075 154.843302,96.64875 154.802022,96.64875 L154.471778,97.185 L154.760741,97.72125 C154.802022,97.7625 154.802022,97.80375 154.843302,97.80375 C154.884583,97.80375 154.925864,97.845 154.967144,97.845 L155.090986,97.845 C155.132266,97.845 155.132266,97.845 155.132266,97.88625 L155.132266,98.175 C155.132266,98.21625 155.132266,98.21625 155.090986,98.2575 C155.008425,98.29875 154.925864,98.29875 154.760741,98.29875 C154.6369,98.29875 154.513058,98.2575 154.430497,98.21625 C154.347936,98.13375 154.265375,98.05125 154.182814,97.88625 L154.141533,97.9275 L154.141533,97.9275 Z M152.737995,96.36 L152.737995,96.525 L152.737995,96.97875 C152.737995,97.02 152.737995,97.02 152.696714,97.02 L152.36647,97.02 C152.32519,97.02 152.32519,97.02 152.32519,96.97875 C152.32519,96.89625 152.283909,96.81375 152.283909,96.69 C152.118787,96.69 151.994945,96.73125 151.953665,96.81375 C151.912384,96.89625 151.871104,97.02 151.871104,97.22625 L151.871104,97.35 C151.871104,97.55625 151.912384,97.68 151.953665,97.7625 C152.036226,97.845 152.118787,97.88625 152.283909,97.88625 C152.449031,97.88625 152.614153,97.88625 152.737995,97.845 L152.779275,97.845 L152.779275,97.88625 L152.779275,98.175 C152.779275,98.21625 152.779275,98.21625 152.737995,98.2575 C152.614153,98.29875 152.407751,98.34 152.160067,98.34 C151.829823,98.34 151.58214,98.2575 151.458298,98.0925 C151.334457,97.9275 151.251896,97.68 151.251896,97.35 L151.251896,97.185 C151.251896,96.855 151.334457,96.6075 151.458298,96.4425 C151.58214,96.2775 151.829823,96.195 152.160067,96.195 C152.36647,96.195 152.572873,96.23625 152.737995,96.2775 C152.779275,96.2775 152.779275,96.31875 152.779275,96.36 L152.737995,96.36 L152.737995,96.36 Z M150.09604,97.47375 L150.09604,96.69 L149.972199,96.69 C149.930918,96.69 149.930918,96.64875 149.930918,96.64875 L149.930918,96.31875 C149.930918,96.2775 149.930918,96.2775 149.972199,96.2775 L150.921651,96.2775 C150.962932,96.2775 150.962932,96.2775 150.962932,96.31875 L150.962932,96.64875 C150.962932,96.69 150.962932,96.69 150.921651,96.69 C150.880371,96.69 150.79781,96.69 150.756529,96.73125 L150.756529,97.4325 C150.756529,97.7625 150.673968,97.96875 150.550126,98.13375 C150.426285,98.29875 150.178602,98.38125 149.889638,98.38125 C149.559393,98.38125 149.352991,98.29875 149.229149,98.13375 C149.105307,97.96875 149.022746,97.72125 149.022746,97.4325 L149.022746,96.73125 C148.940185,96.73125 148.898905,96.73125 148.857624,96.69 C148.816344,96.69 148.816344,96.64875 148.816344,96.64875 L148.816344,96.31875 C148.816344,96.2775 148.816344,96.2775 148.857624,96.2775 L149.807077,96.2775 C149.848357,96.2775 149.848357,96.2775 149.848357,96.31875 L149.848357,96.64875 C149.848357,96.69 149.848357,96.69 149.807077,96.69 L149.683235,96.69 L149.683235,97.47375 C149.683235,97.63875 149.683235,97.72125 149.724516,97.80375 C149.765796,97.845 149.807077,97.88625 149.889638,97.88625 C149.972199,97.88625 150.013479,97.845 150.05476,97.80375 C150.09604,97.7625 150.09604,97.63875 150.09604,97.47375 L150.09604,97.47375 Z M147.701769,97.185 C147.825611,97.185 147.866891,97.1025 147.866891,96.9375 L147.866891,96.89625 C147.866891,96.81375 147.866891,96.7725 147.825611,96.73125 C147.78433,96.69 147.74305,96.69 147.701769,96.69 L147.577928,96.69 L147.577928,97.22625 L147.701769,97.22625 L147.701769,97.185 L147.701769,97.185 Z M148.238416,97.515 L148.362258,97.7625 C148.403538,97.80375 148.403538,97.845 148.444819,97.845 C148.486099,97.845 148.52738,97.88625 148.56866,97.88625 L148.651222,97.88625 C148.692502,97.88625 148.692502,97.88625 148.692502,97.9275 L148.692502,98.21625 C148.692502,98.2575 148.692502,98.2575 148.651222,98.29875 C148.609941,98.34 148.486099,98.34 148.403538,98.34 C148.279697,98.34 148.155855,98.29875 148.073294,98.2575 C147.990733,98.175 147.908172,98.0925 147.825611,97.88625 L147.701769,97.63875 L147.577928,97.63875 L147.577928,97.88625 L147.701769,97.88625 C147.74305,97.88625 147.74305,97.9275 147.74305,97.9275 L147.74305,98.2575 C147.74305,98.29875 147.74305,98.29875 147.701769,98.29875 L146.752317,98.29875 C146.711036,98.29875 146.711036,98.29875 146.711036,98.2575 L146.711036,97.9275 C146.711036,97.88625 146.711036,97.88625 146.752317,97.88625 C146.793597,97.88625 146.876158,97.88625 146.917439,97.845 L146.917439,96.69 L146.834878,96.69 L146.752317,96.69 C146.711036,96.69 146.669756,96.69 146.669756,96.64875 L146.669756,96.36 C146.669756,96.31875 146.669756,96.31875 146.711036,96.31875 C147,96.23625 147.288964,96.23625 147.660489,96.23625 C147.908172,96.23625 148.114575,96.2775 148.238416,96.40125 C148.362258,96.525 148.403538,96.64875 148.403538,96.89625 L148.403538,97.02 C148.403538,97.30875 148.320977,97.47375 148.155855,97.5975 L148.238416,97.515 L148.238416,97.515 Z M146.504634,96.2775 L146.504634,96.525 L146.504634,96.97875 C146.504634,97.02 146.504634,97.02 146.463353,97.02 L146.133109,97.02 C146.091828,97.02 146.091828,97.02 146.091828,96.97875 C146.091828,96.9375 146.091828,96.855 146.050548,96.73125 L145.926706,96.73125 L145.926706,97.845 C145.967987,97.845 146.050548,97.845 146.091828,97.88625 C146.133109,97.88625 146.133109,97.9275 146.133109,97.9275 L146.133109,98.2575 C146.133109,98.29875 146.133109,98.29875 146.091828,98.29875 L145.059815,98.29875 C145.018534,98.29875 145.018534,98.29875 145.018534,98.2575 L145.018534,97.9275 C145.018534,97.88625 145.018534,97.88625 145.059815,97.88625 C145.101095,97.88625 145.183656,97.88625 145.224937,97.845 L145.224937,96.73125 L145.101095,96.73125 C145.101095,96.81375 145.101095,96.89625 145.059815,96.97875 C145.059815,97.02 145.018534,97.02 145.018534,97.02 L144.68829,97.02 C144.647009,97.02 144.647009,97.02 144.647009,96.97875 L144.647009,96.525 L144.647009,96.2775 C144.647009,96.23625 144.68829,96.23625 144.72957,96.23625 L146.422072,96.23625 C146.463353,96.23625 146.504634,96.23625 146.504634,96.2775 L146.504634,96.2775 Z" id="Shape" fill="#FEFEFE"></path>
                                    <path d="M116.287279,64.88625 L67.9477675,64.88625 C66.4203875,64.88625 65.1819714,66.12375 65.1819714,67.65 L65.1819714,67.65 C65.1819714,69.17625 66.4203875,70.455 67.9477675,70.455 L116.287279,70.455 C117.814659,70.455 119.053075,69.2175 119.053075,67.65 L119.053075,67.65 C119.053075,66.12375 117.814659,64.88625 116.287279,64.88625 L116.287279,64.88625 Z" id="Shape" fill="#D9EEF4"></path>
                                    <polygon id="Shape" fill="#87A4AB" points="31.3732098 124.6575 49.4540859 124.6575 49.4540859 135.34125 34.3454086 135.34125"></polygon>
                                    <polygon id="Shape" fill="#87A4AB" points="81.15754 124.6575 99.2384162 124.6575 99.2384162 135.34125 86.978096 135.34125"></polygon>
                                    <path d="M71.4566133,128.32875 L73.809604,128.32875 C76.2451559,128.32875 78.2679023,130.55625 78.2679023,133.32 C78.2679023,136.08375 76.2864364,138.31125 73.809604,138.31125 L71.4566133,138.31125 C69.0210615,138.31125 66.9983151,136.08375 66.9983151,133.32 C66.9983151,130.55625 68.979781,128.32875 71.4566133,128.32875 L71.4566133,128.32875 Z" id="Shape" fill="#87A4AB"></path>
                                    <path d="M19.3192923,128.32875 L21.6722831,128.32875 C24.1078349,128.32875 26.1305813,130.55625 26.1305813,133.32 C26.1305813,136.08375 24.1491154,138.31125 21.6722831,138.31125 L19.3192923,138.31125 C16.8837405,138.31125 14.8609941,136.08375 14.8609941,133.32 C14.8609941,130.55625 16.84246,128.32875 19.3192923,128.32875 L19.3192923,128.32875 Z" id="Shape" fill="#87A4AB"></path>
                                    <polygon id="Shape" fill="#87A4AB" points="37.9368155 128.32875 40.3310868 128.32875 40.3310868 138.31125 37.9368155 138.31125"></polygon>
                                    <path d="M37.9368155,128.32875 C40.3723673,128.32875 42.3951137,130.55625 42.3951137,133.32 C42.3951137,136.08375 40.4136479,138.31125 37.9368155,138.31125 C35.5012637,138.31125 33.4785173,136.08375 33.4785173,133.32 C33.4785173,130.55625 35.4599832,128.32875 37.9368155,128.32875 L37.9368155,128.32875 Z" id="Shape" fill="#87A4AB"></path>
                                    <path d="M40.3310868,128.32875 C42.7666386,128.32875 44.789385,130.55625 44.789385,133.32 C44.789385,136.08375 42.8079191,138.31125 40.3310868,138.31125 C37.895535,138.31125 35.8727885,136.08375 35.8727885,133.32 C35.8727885,130.55625 37.8542544,128.32875 40.3310868,128.32875 L40.3310868,128.32875 Z" id="Shape" fill="#87A4AB"></path>
                                    <path d="M40.3310868,129.31875 C42.3125527,129.31875 43.8812131,131.0925 43.8812131,133.32 C43.8812131,135.5475 42.2712721,137.32125 40.3310868,137.32125 C38.3496209,137.32125 36.7809604,135.5475 36.7809604,133.32 C36.7809604,131.0925 38.3909014,129.31875 40.3310868,129.31875 L40.3310868,129.31875 Z" id="Shape" fill="#FEFEFE"></path>
                                    <path d="M40.3310868,130.63875 C41.652064,130.63875 42.6840775,131.835 42.6840775,133.27875 C42.6840775,134.76375 41.6107835,135.91875 40.3310868,135.91875 C39.0101095,135.91875 37.978096,134.7225 37.978096,133.27875 C37.978096,131.79375 39.0513901,130.63875 40.3310868,130.63875 L40.3310868,130.63875 Z" id="Shape" fill="#87A4AB"></path>
                                    <path d="M40.3310868,131.29875 C41.3218197,131.29875 42.10615,132.20625 42.10615,133.32 C42.10615,134.43375 41.3218197,135.34125 40.3310868,135.34125 C39.3403538,135.34125 38.5560236,134.43375 38.5560236,133.32 C38.5560236,132.20625 39.3403538,131.29875 40.3310868,131.29875 L40.3310868,131.29875 Z" id="Shape" fill="#A1C0C6"></path>
                                    <path d="M40.6613311,131.87625 C41.1566976,131.87625 41.5695029,132.33 41.5695029,132.9075 C41.5695029,133.485 41.1566976,133.93875 40.6613311,133.93875 C40.1659646,133.93875 39.7531592,133.485 39.7531592,132.9075 C39.7531592,132.33 40.1659646,131.87625 40.6613311,131.87625 L40.6613311,131.87625 Z" id="Shape" fill="#FEFEFE"></path>
                                    <polygon id="Shape" fill="#87A4AB" points="90.115417 128.32875 92.4684078 128.32875 92.4684078 138.31125 90.115417 138.31125"></polygon>
                                    <path d="M90.115417,128.32875 C92.5509688,128.32875 94.5737152,130.55625 94.5737152,133.32 C94.5737152,136.08375 92.5922494,138.31125 90.115417,138.31125 C87.6798652,138.31125 85.6571188,136.08375 85.6571188,133.32 C85.6571188,130.55625 87.6385847,128.32875 90.115417,128.32875 L90.115417,128.32875 Z" id="Shape" fill="#87A4AB"></path>
                                    <path d="M92.4684078,128.32875 C94.9039596,128.32875 96.926706,130.55625 96.926706,133.32 C96.926706,136.08375 94.9452401,138.31125 92.4684078,138.31125 C90.0328559,138.31125 88.0101095,136.08375 88.0101095,133.32 C88.0101095,130.55625 89.9915754,128.32875 92.4684078,128.32875 L92.4684078,128.32875 Z" id="Shape" fill="#87A4AB"></path>
                                    <path d="M92.4684078,129.31875 C94.4498736,129.31875 96.0185341,131.0925 96.0185341,133.32 C96.0185341,135.5475 94.4085931,137.32125 92.4684078,137.32125 C90.4869419,137.32125 88.9182814,135.5475 88.9182814,133.32 C88.9182814,131.0925 90.5282224,129.31875 92.4684078,129.31875 L92.4684078,129.31875 Z" id="Shape" fill="#FEFEFE"></path>
                                    <path d="M92.4684078,130.63875 C93.789385,130.63875 94.8213985,131.835 94.8213985,133.27875 C94.8213985,134.76375 93.7481045,135.91875 92.4684078,135.91875 C91.1474305,135.91875 90.115417,134.7225 90.115417,133.27875 C90.115417,131.79375 91.188711,130.63875 92.4684078,130.63875 L92.4684078,130.63875 Z" id="Shape" fill="#87A4AB"></path>
                                    <path d="M92.4684078,131.29875 C93.4591407,131.29875 94.2434709,132.20625 94.2434709,133.32 C94.2434709,134.43375 93.4591407,135.34125 92.4684078,135.34125 C91.4776748,135.34125 90.6933446,134.43375 90.6933446,133.32 C90.6933446,132.20625 91.4776748,131.29875 92.4684078,131.29875 L92.4684078,131.29875 Z" id="Shape" fill="#A1C0C6"></path>
                                    <path d="M92.7986521,131.87625 C93.2940185,131.87625 93.7068239,132.33 93.7068239,132.9075 C93.7068239,133.485 93.2940185,133.93875 92.7986521,133.93875 C92.3032856,133.93875 91.8904802,133.485 91.8904802,132.9075 C91.8904802,132.33 92.3032856,131.87625 92.7986521,131.87625 L92.7986521,131.87625 Z" id="Shape" fill="#FEFEFE"></path>
                                    <path d="M22.7868576,114.30375 L41.4043808,114.30375 C43.9224937,107.9925 46.4406066,101.68125 48.9174389,95.37 C49.0412805,95.08125 49.1238416,94.83375 49.3302443,94.58625 C49.6604886,94.17375 50.1145746,93.84375 50.609941,93.67875 C50.7750632,93.6375 50.9814659,93.59625 51.146588,93.555 L51.146588,93.555 L51.146588,93.555 L51.146588,93.555 L51.146588,93.555 L51.146588,93.555 L51.146588,93.555 L51.146588,93.555 L51.146588,93.555 L51.146588,93.555 L51.146588,93.555 L51.146588,93.555 L51.146588,93.555 L51.146588,93.555 L51.146588,93.555 L51.146588,93.555 L51.146588,93.555 L51.146588,93.555 L51.146588,93.555 L51.146588,93.555 L51.146588,93.555 L51.146588,93.555 L51.146588,93.555 L51.146588,93.555 L51.146588,93.555 L51.146588,93.555 L51.146588,93.555 L51.146588,93.555 L51.146588,93.555 L51.146588,93.555 L51.146588,93.555 L51.146588,93.555 L51.146588,93.555 L51.146588,93.555 L51.146588,93.555 L51.146588,93.555 L51.146588,93.555 L51.146588,93.555 L51.146588,93.555 L51.146588,93.555 L51.146588,93.555 L51.146588,93.555 L51.146588,93.555 L51.146588,93.555 L51.146588,93.555 L51.146588,93.555 L51.146588,93.555 L51.146588,93.555 L51.146588,93.555 L51.146588,93.555 L51.146588,93.555 L51.146588,93.555 L51.146588,93.555 L51.146588,93.555 L51.146588,93.555 L51.146588,93.555 L51.146588,93.555 L51.146588,93.555 L51.146588,93.555 L51.146588,93.555 L51.146588,93.555 L51.146588,93.555 L51.146588,93.555 L51.146588,93.555 L51.146588,93.555 L51.146588,93.555 L33.230834,93.555 C32.694187,93.555 32.15754,93.51375 31.6621735,93.67875 C31.1668071,93.84375 30.7127211,94.17375 30.3824768,94.58625 C30.1760741,94.83375 30.0935131,95.08125 29.9696714,95.37 L22.4978939,114.30375 L22.7868576,114.30375 L22.7868576,114.30375 Z" id="Shape" fill="#B4CDD2"></path>
                                    <path d="M48.9587195,95.37 L41.4456613,114.30375 L28.8550969,119.5425 L28.8550969,132.70125 C28.8550969,133.85625 29.5981466,134.84625 30.6301601,135.2175 L30.6301601,135.34125 L31.4970514,135.34125 L32.4465038,135.34125 L32.5290649,135.34125 L32.5290649,135.34125 C33.3959562,135.3 34.0564448,134.59875 34.0564448,133.7325 L34.0564448,133.155 L34.0564448,130.4325 C34.0564448,128.04 35.9966302,126.10125 38.3909014,126.10125 L42.0235889,126.10125 C44.4178602,126.10125 46.3580455,128.04 46.3580455,130.4325 L46.3580455,134.76375 C46.3580455,134.97 46.3580455,135.135 46.316765,135.34125 L84.5838248,135.34125 L84.7902275,135.34125 C85.6571188,135.34125 86.4001685,134.64 86.4001685,133.7325 L86.4001685,130.4325 C86.4001685,128.04 88.3403538,126.10125 90.7346251,126.10125 L94.3673126,126.10125 C96.7615838,126.10125 98.7017692,128.04 98.7017692,130.4325 L98.6604886,135.34125 L111.292334,135.34125 L111.292334,93.555 L53.3344566,93.555 L52.1786015,93.555 C51.6419545,93.555 51.1053075,93.51375 50.609941,93.67875 C50.1145746,93.84375 49.6604886,94.17375 49.3302443,94.58625 C49.1238416,94.83375 49.0412805,95.08125 48.9174389,95.37 L48.9587195,95.37 L48.9587195,95.37 Z" id="Shape" fill="#A1C0C6"></path>
                                    <path d="M28.8550969,129.23625 L28.8550969,132.7425 C28.8550969,134.18625 30.0522325,135.3825 31.4970514,135.3825 L32.4465038,135.3825 C33.3133951,135.3825 34.0564448,134.68125 34.0564448,133.77375 L34.0564448,133.19625 L34.0564448,130.47375 C34.0564448,130.06125 34.1390059,129.6075 34.221567,129.23625 L28.8550969,129.23625 L28.8550969,129.23625 Z M98.6604886,135.3825 L98.7017692,130.47375 C98.7017692,130.06125 98.6192081,129.6075 98.536647,129.23625 L111.333614,129.23625 L111.333614,135.3825 L98.7017692,135.3825 L98.6604886,135.3825 L98.6604886,135.3825 Z M86.5652906,129.23625 C86.441449,129.64875 86.4001685,130.06125 86.4001685,130.47375 L86.4001685,133.77375 C86.4001685,134.64 85.6983993,135.3825 84.7902275,135.3825 L46.316765,135.3825 L46.3580455,130.47375 C46.3580455,130.06125 46.2754844,129.6075 46.1929233,129.23625 L86.6065712,129.23625 L86.5652906,129.23625 L86.5652906,129.23625 Z" id="Shape" fill="#93ADB3"></path>
                                    <path d="M45.7801179,116.69625 L60.0631845,116.69625 C60.9713564,116.69625 61.7556866,115.95375 61.7556866,115.005 L61.7556866,99.825 C61.7556866,98.9175 61.0126369,98.13375 60.0631845,98.13375 L50.8989048,98.13375 C48.7523168,103.57875 46.5644482,109.065 44.4178602,114.51 C44.0463353,115.5 44.5004212,116.69625 45.7801179,116.69625 L45.7801179,116.69625 Z" id="Shape" fill="#93ADB3"></path>
                                    <polygon id="Shape" fill="#9EB5BB" points="51.2704297 116.69625 53.4170177 116.69625 46.3580455 109.6425 45.7388374 111.16875"></polygon>
                                    <path d="M61.7556866,119.99625 L61.7556866,121.48125 C61.7556866,122.30625 61.0539174,123.0075 60.2283067,123.0075 L60.2283067,123.0075 C59.4026959,123.0075 58.7009267,122.30625 58.7009267,121.48125 L58.7009267,119.99625 C58.7009267,119.17125 59.4026959,118.47 60.2283067,118.47 L60.2283067,118.47 C61.0539174,118.47 61.7556866,119.17125 61.7556866,119.99625 L61.7556866,119.99625 Z" id="Shape" fill="#87A4AB"></path>
                                    <path d="M107.618366,98.175 L107.618366,121.48125 C107.618366,122.30625 106.916596,123.0075 106.090986,123.0075 L69.5577085,123.0075 C68.7320977,123.0075 68.0303286,122.30625 68.0303286,121.48125 L68.0303286,98.175 L107.618366,98.175 L107.618366,98.175 Z" id="Shape" fill="#87A4AB"></path>
                                    <path d="M107.618366,116.69625 L107.618366,121.44 C107.618366,122.265 106.916596,122.96625 106.090986,122.96625 L69.5577085,122.96625 C68.7320977,122.96625 68.0303286,122.265 68.0303286,121.44 L68.0303286,116.69625 L107.618366,116.69625 L107.618366,116.69625 Z" id="Shape" fill="#B4CDD2"></path>
                                    <path d="M107.618366,116.69625 L107.618366,121.44 C107.618366,122.265 106.916596,122.96625 106.090986,122.96625 L87.8449874,122.96625 L87.8449874,116.69625 L107.618366,116.69625 L107.618366,116.69625 Z" id="Shape" fill="#B4CDD2"></path>
                                    <polygon id="Shape" fill="#E31E24" points="68.0303286 98.175 75.9561921 106.05375 68.0303286 106.05375"></polygon>
                                    <polygon id="Shape" fill="#FEFEFE" points="107.618366 98.175 108.402696 98.95875 108.402696 106.05375 107.618366 106.05375 68.0303286 106.05375 68.0303286 98.175"></polygon>
                                    <polygon id="Shape" fill="#FEFEFE" points="75.9561921 106.05375 68.0303286 106.05375 68.0303286 98.175"></polygon>
                                    <polygon id="Shape" fill="#87A4AB" points="91.7666386 98.175 99.6925021 106.05375 91.7666386 106.05375 83.8407751 98.175"></polygon>
                                    <polygon id="Shape" fill="#87A4AB" points="75.9561921 98.175 83.8407751 106.05375 75.9561921 106.05375 68.0303286 98.175"></polygon>
                                    <polygon id="Shape" fill="#FEC35D" points="10.2375737 119.5425 22.7868576 114.30375 41.4456613 114.30375 28.8550969 119.5425"></polygon>
                                    <polygon id="Shape" fill="#B4CDD2" points="10.2375737 119.5425 22.7868576 114.30375 41.4456613 114.30375 28.8550969 119.5425"></polygon>
                                    <path d="M10.2375737,119.5425 L10.2375737,132.70125 C10.2375737,134.145 11.4347094,135.34125 12.8795282,135.34125 L31.4970514,135.34125 C30.0522325,135.34125 28.8550969,134.145 28.8550969,132.70125 L28.8550969,119.5425 L10.2375737,119.5425 L10.2375737,119.5425 Z" id="Shape" fill="#B4CDD2"></path>
                                    <path d="M10.2375737,129.23625 L10.2375737,132.7425 C10.2375737,134.18625 11.4347094,135.3825 12.8795282,135.3825 L31.4970514,135.3825 C30.0522325,135.3825 28.8550969,134.18625 28.8550969,132.7425 L28.8550969,129.23625 L10.2375737,129.23625 L10.2375737,129.23625 Z" id="Shape" fill="#9EB5BB"></path>
                                    <path d="M12.5905644,123.62625 L12.5905644,125.11125 C12.5905644,125.93625 13.2923336,126.6375 14.1179444,126.6375 L14.1179444,126.6375 C14.9435552,126.6375 15.6453243,125.93625 15.6453243,125.11125 L15.6453243,123.62625 C15.6453243,122.80125 14.9435552,122.1 14.1179444,122.1 L14.1179444,122.1 C13.2923336,122.1 12.5905644,122.80125 12.5905644,123.62625 L12.5905644,123.62625 Z" id="Shape" fill="#FEFEFE"></path>
                                    <path d="M23.4886268,123.62625 L23.4886268,125.11125 C23.4886268,125.93625 24.190396,126.6375 25.0160067,126.6375 L25.0160067,126.6375 C25.8416175,126.6375 26.5433867,125.93625 26.5433867,125.11125 L26.5433867,123.62625 C26.5433867,122.80125 25.8416175,122.1 25.0160067,122.1 L25.0160067,122.1 C24.190396,122.1 23.4886268,122.80125 23.4886268,123.62625 L23.4886268,123.62625 Z" id="Shape" fill="#FEFEFE"></path>
                                    <polygon id="Shape" fill="#93ADB3" points="39.4229149 98.175 33.5197978 113.025 40.4136479 113.025 46.316765 98.175"></polygon>
                                    <path d="M39.4229149,98.175 L38.7211457,99.9075 C40.3723673,101.5575 42.0235889,103.2075 43.6335299,104.81625 L44.8306655,101.76375 C43.6335299,100.5675 42.3951137,99.33 41.1979781,98.175 L39.3816344,98.175 L39.4229149,98.175 L39.4229149,98.175 Z" id="Shape" fill="#9EB5BB"></path>
                                    <polygon id="Shape" fill="#9EB5BB" points="38.1432182 101.43375 37.5240101 102.96 42.4363943 107.86875 43.0556024 106.3425"></polygon>
                                    <polygon id="Shape" fill="#93ADB3" points="30.8365628 98.175 24.9747262 113.025 31.8272957 113.025 37.7304128 98.175"></polygon>
                                    <polygon id="Shape" fill="#63ABB2" points="33.5610783 99 35.7076664 99 34.8820556 98.175 32.7354676 98.175"></polygon>
                                    <path d="M27.6992418,106.1775 L27.0800337,107.70375 L27.4928391,108.11625 L28.4422915,109.065 L30.3411963,110.9625 C30.6301601,111.25125 31.1255265,111.25125 31.4144903,110.9625 L31.4144903,110.9625 C31.7034541,110.67375 31.7034541,110.17875 31.4144903,109.89 L28.4422915,106.92 L27.6992418,106.1775 L27.6992418,106.1775 Z" id="Shape" fill="#9EB5BB"></path>
                                    <polygon id="Shape" fill="#7DC5CB" points="37.5215522 98.6694 37.7269307 98.175 37.0286436 98.175"></polygon>
                                    <polygon id="Shape" fill="#9EB5BB" points="36.3268745 101.76375 36.904802 100.19625 34.8820556 98.175 32.7354676 98.175"></polygon>
                                    <polygon id="Shape" fill="#93ADB3" points="107.618366 106.05375 87.8037068 106.05375 87.8037068 116.69625 107.618366 116.69625"></polygon>
                                    <path d="M103.655434,106.05375 L99.4035383,106.05375 C102.128054,108.77625 104.85257,111.49875 107.618366,114.22125 L107.618366,109.93125 C106.297388,108.61125 104.935131,107.29125 103.655434,106.0125 L103.655434,106.05375 L103.655434,106.05375 Z" id="Shape" fill="#7DC5CB"></path>
                                    <polygon id="Shape" fill="#93ADB3" points="107.618366 106.05375 87.8037068 106.05375 87.8037068 113.97375 107.618366 113.97375"></polygon>
                                    <path d="M87.8037068,106.71375 L87.8037068,108.85875 L88.1339511,109.18875 L89.0834035,110.1375 L90.9823083,112.035 C91.2712721,112.32375 91.7666386,112.32375 92.0556024,112.035 L92.0556024,112.035 C92.3445661,111.74625 92.3445661,111.25125 92.0556024,110.9625 L89.0834035,107.9925 L88.1339511,107.04375 L87.8037068,106.71375 L87.8037068,106.71375 Z" id="Shape" fill="#9EB5BB"></path>
                                    <path d="M96.7615838,84.48 L50.7337826,84.48 C49.9081719,84.48 49.2064027,83.77875 49.2064027,82.95375 L49.2064027,82.95375 C49.2064027,82.12875 49.9081719,81.4275 50.7337826,81.4275 L96.7615838,81.4275 C97.5871946,81.4275 98.2889638,82.12875 98.2889638,82.95375 L98.2889638,82.95375 C98.2889638,83.77875 97.5871946,84.48 96.7615838,84.48 L96.7615838,84.48 Z" id="Shape" fill="#9EB5BB"></path>
                                    <path d="M96.7615838,84.48 L96.7615838,87.49125 C96.7615838,89.1825 95.3580455,90.585 93.6655434,90.585 L53.7885425,90.585 C52.0960404,90.585 50.6925021,89.1825 50.6925021,87.49125 L50.6925021,84.48 L96.7203033,84.48 L96.7615838,84.48 L96.7615838,84.48 Z" id="Shape" fill="#B4CDD2"></path>
                                    <path d="M96.7615838,84.48 L96.7615838,87.49125 C96.7615838,89.1825 95.3580455,90.585 93.6655434,90.585 L70.9199663,90.585 C69.2274642,90.585 67.8239259,89.1825 67.8239259,87.49125 L67.8239259,84.48 L96.7203033,84.48 L96.7615838,84.48 L96.7615838,84.48 Z" id="Shape" fill="#A1C0C6"></path>
                                    <path d="M49.2476832,79.695 L49.2476832,79.90125 L49.2476832,79.90125 C49.2476832,80.72625 49.9494524,81.4275 50.7750632,81.4275 L96.8028644,81.4275 C97.6284751,81.4275 98.3302443,80.72625 98.3302443,79.90125 L98.3302443,76.84875 L98.3302443,76.84875 L98.3302443,76.6425 L98.3302443,76.6425 C98.2064027,75.9 97.5871946,75.3225 96.8441449,75.3225 L50.8163437,75.3225 C50.073294,75.3225 49.4128054,75.9 49.3302443,76.6425 L49.3302443,76.6425 L49.3302443,76.6425 L49.3302443,76.84875 L49.3302443,76.84875 L49.3302443,77.055 L49.3302443,79.65375 L49.2476832,79.695 L49.2476832,79.695 Z" id="Shape" fill="#87A4AB"></path>
                                    <path d="M66.379107,79.695 L66.379107,79.90125 L66.379107,79.90125 C66.379107,80.72625 67.0808762,81.4275 67.9064869,81.4275 L96.8028644,81.4275 C97.6284751,81.4275 98.3302443,80.72625 98.3302443,79.90125 L98.3302443,76.84875 L98.3302443,76.84875 L98.3302443,76.6425 L98.3302443,76.6425 C98.2064027,75.9 97.5871946,75.3225 96.8441449,75.3225 L67.9477675,75.3225 C67.2047178,75.3225 66.5442291,75.9 66.4616681,76.6425 L66.4616681,76.6425 L66.4616681,76.6425 L66.4616681,76.84875 L66.4616681,76.84875 L66.4616681,77.055 L66.4616681,79.65375 L66.379107,79.695 L66.379107,79.695 Z" id="Shape" fill="#87A4AB"></path>
                                    <path d="M96.7615838,75.36375 L50.7337826,75.36375 C49.9081719,75.36375 49.2064027,74.6625 49.2064027,73.8375 L49.2064027,73.8375 C49.2064027,73.0125 49.9081719,72.31125 50.7337826,72.31125 L96.7615838,72.31125 C97.5871946,72.31125 98.2889638,73.0125 98.2889638,73.8375 L98.2889638,73.8375 C98.2889638,74.6625 97.5871946,75.36375 96.7615838,75.36375 L96.7615838,75.36375 Z" id="Shape" fill="#9EB5BB"></path>
                                    <path d="M96.7615838,75.36375 L67.8652064,75.36375 C67.0395956,75.36375 66.3378265,74.6625 66.3378265,73.8375 L66.3378265,73.8375 C66.3378265,73.0125 67.0395956,72.31125 67.8652064,72.31125 L96.7615838,72.31125 C97.5871946,72.31125 98.2889638,73.0125 98.2889638,73.8375 L98.2889638,73.8375 C98.2889638,74.6625 97.5871946,75.36375 96.7615838,75.36375 L96.7615838,75.36375 Z" id="Shape" fill="#93ADB3"></path>
                                    <path d="M73.7683235,55.48125 C86.4827296,55.48125 96.7615838,63.03 96.7615838,72.31125 L50.7337826,72.31125 C50.7337826,63.03 61.0539174,55.48125 73.727043,55.48125 L73.7683235,55.48125 L73.7683235,55.48125 Z" id="Shape" fill="#B4CDD2"></path>
                                    <path d="M79.010952,55.935 C89.1659646,57.6675 96.7615838,64.35 96.7615838,72.31125 L67.8652064,72.31125 C67.8652064,64.35 72.6124684,57.6675 79.010952,55.935 L79.010952,55.935 Z" id="Shape" fill="#A1C0C6"></path>
                                    <path d="M96.7615838,84.48 L67.8652064,84.48 C67.0395956,84.48 66.3378265,83.77875 66.3378265,82.95375 L66.3378265,82.95375 C66.3378265,82.12875 67.0395956,81.4275 67.8652064,81.4275 L96.7615838,81.4275 C97.5871946,81.4275 98.2889638,82.12875 98.2889638,82.95375 L98.2889638,82.95375 C98.2889638,83.77875 97.5871946,84.48 96.7615838,84.48 L96.7615838,84.48 Z" id="Shape" fill="#93ADB3"></path>
                                    <path d="M85.8635215,63.31875 C86.3176074,63.31875 86.6891323,62.9475 86.6891323,62.49375 C86.6891323,62.04 86.3176074,61.66875 85.8635215,61.66875 C85.4094356,61.66875 85.0379107,62.04 85.0379107,62.49375 C85.0379107,62.9475 85.4094356,63.31875 85.8635215,63.31875 L85.8635215,63.31875 Z" id="Shape" fill="#D9DADA"></path>
                                    <path d="M52.4262848,105.0225 L53.3757372,105.97125 L55.274642,107.86875 C55.5636057,108.1575 56.0589722,108.1575 56.347936,107.86875 L56.347936,107.86875 C56.6368997,107.58 56.6368997,107.085 56.347936,106.79625 L53.3757372,103.82625 L52.4262848,102.8775 L50.609941,101.0625 L49.9907329,102.58875 L52.4262848,105.0225 L52.4262848,105.0225 Z" id="Shape" fill="#9EB5BB"></path>
                                    <path d="M56.1415333,69.465 C56.5956192,69.465 56.9671441,69.09375 56.9671441,68.64 C56.9671441,68.18625 56.5956192,67.815 56.1415333,67.815 C55.6874473,67.815 55.3159225,68.18625 55.3159225,68.64 C55.3159225,69.09375 55.6874473,69.465 56.1415333,69.465 L56.1415333,69.465 Z" id="Shape" fill="#D9DADA"></path>
                                    <path d="M67.1221567,63.195 C67.5762426,63.195 67.9477675,62.82375 67.9477675,62.37 C67.9477675,61.91625 67.5762426,61.545 67.1221567,61.545 C66.6680708,61.545 66.2965459,61.91625 66.2965459,62.37 C66.2965459,62.82375 66.6680708,63.195 67.1221567,63.195 L67.1221567,63.195 Z" id="Shape" fill="#D9DADA"></path>
                                    <path d="M84.294861,70.0425 C84.7489469,70.0425 85.1204718,69.67125 85.1204718,69.2175 C85.1204718,68.76375 84.7489469,68.3925 84.294861,68.3925 C83.8407751,68.3925 83.4692502,68.76375 83.4692502,69.2175 C83.4692502,69.67125 83.8407751,70.0425 84.294861,70.0425 L84.294861,70.0425 Z" id="Shape" fill="#D9DADA"></path>
                                    <path d="M78.1440607,62.16375 C78.5981466,62.16375 78.9696714,61.7925 78.9696714,61.33875 C78.9696714,60.885 78.5981466,60.51375 78.1440607,60.51375 C77.6899747,60.51375 77.3184499,60.885 77.3184499,61.33875 C77.3184499,61.7925 77.6899747,62.16375 78.1440607,62.16375 L78.1440607,62.16375 Z" id="Shape" fill="#D9DADA"></path>
                                    <path d="M94.0783488,71.23875 C94.5324347,71.23875 94.9039596,70.8675 94.9039596,70.41375 C94.9039596,69.96 94.5324347,69.58875 94.0783488,69.58875 C93.6242628,69.58875 93.252738,69.96 93.252738,70.41375 C93.252738,70.8675 93.6242628,71.23875 94.0783488,71.23875 L94.0783488,71.23875 Z" id="Shape" fill="#D9DADA"></path>
                                    <path d="M74.5526537,68.76375 C75.0067397,68.76375 75.3782645,68.3925 75.3782645,67.93875 C75.3782645,67.485 75.0067397,67.11375 74.5526537,67.11375 C74.0985678,67.11375 73.727043,67.485 73.727043,67.93875 C73.727043,68.3925 74.0985678,68.76375 74.5526537,68.76375 L74.5526537,68.76375 Z" id="Shape" fill="#D9DADA"></path>
                                    <path d="M63.7371525,70.41375 C64.1912384,70.41375 64.5627633,70.0425 64.5627633,69.58875 C64.5627633,69.135 64.1912384,68.76375 63.7371525,68.76375 C63.2830666,68.76375 62.9115417,69.135 62.9115417,69.58875 C62.9115417,70.0425 63.2830666,70.41375 63.7371525,70.41375 L63.7371525,70.41375 Z" id="Shape" fill="#D9DADA"></path>
                                    <path d="M71.4153328,57.9975 C71.8694187,57.9975 72.2409436,57.62625 72.2409436,57.1725 C72.2409436,56.71875 71.8694187,56.3475 71.4153328,56.3475 C70.9612468,56.3475 70.589722,56.71875 70.589722,57.1725 C70.589722,57.62625 70.9612468,57.9975 71.4153328,57.9975 L71.4153328,57.9975 Z" id="Shape" fill="#D9DADA"></path>
                                    <path d="M59.4439764,64.14375 C59.8980623,64.14375 60.2695872,63.7725 60.2695872,63.31875 C60.2695872,62.865 59.8980623,62.49375 59.4439764,62.49375 C58.9898905,62.49375 58.6183656,62.865 58.6183656,63.31875 C58.6183656,63.7725 58.9898905,64.14375 59.4439764,64.14375 L59.4439764,64.14375 Z" id="Shape" fill="#D9DADA"></path>
                                    <path d="M57.7514743,116.69625 L59.8980623,116.69625 C56.5130581,113.31375 51.5593934,108.44625 48.1743892,105.06375 L47.5964617,106.54875 L47.0185341,108.03375 C49.9081719,110.88 52.7565291,113.7675 55.6461668,116.655 L57.7927548,116.655 L57.7514743,116.69625 L57.7514743,116.69625 Z" id="Shape" fill="#9EB5BB"></path>
                                    <path d="M95.6882898,106.05375 L91.6840775,106.05375 C95.2754844,109.68375 100.022746,114.63375 102.128054,116.69625 L106.42123,116.69625 L95.6882898,106.05375 L95.6882898,106.05375 Z" id="Shape" fill="#9EB5BB"></path>
                                    <path d="M95.6882898,106.05375 L91.6840775,106.05375 C94.1196293,108.52875 97.0918281,111.58125 99.4035383,113.97375 L103.655434,113.97375 L95.6882898,106.05375 L95.6882898,106.05375 Z" id="Shape" fill="#9EB5BB"></path>
                                    <path d="M17.4203875,122.55375 L17.4203875,126.225 C17.4203875,126.4725 17.2139848,126.6375 17.0075821,126.6375 L17.0075821,126.6375 C16.7598989,126.6375 16.5947767,126.43125 16.5947767,126.225 L16.5947767,122.55375 C16.5947767,122.30625 16.8011794,122.14125 17.0075821,122.14125 L17.0075821,122.14125 C17.2552654,122.14125 17.4203875,122.3475 17.4203875,122.55375 L17.4203875,122.55375 Z M22.5391744,122.55375 L22.5391744,126.225 C22.5391744,126.4725 22.3327717,126.6375 22.126369,126.6375 L22.126369,126.6375 C21.8786858,126.6375 21.7135636,126.43125 21.7135636,126.225 L21.7135636,122.55375 C21.7135636,122.30625 21.9199663,122.14125 22.126369,122.14125 L22.126369,122.14125 C22.3740522,122.14125 22.5391744,122.3475 22.5391744,122.55375 L22.5391744,122.55375 Z M20.8466723,122.55375 L20.8466723,126.225 C20.8466723,126.4725 20.6402696,126.6375 20.4338669,126.6375 L20.4338669,126.6375 C20.1861837,126.6375 20.0210615,126.43125 20.0210615,126.225 L20.0210615,122.55375 C20.0210615,122.30625 20.2274642,122.14125 20.4338669,122.14125 L20.4338669,122.14125 C20.6815501,122.14125 20.8466723,122.3475 20.8466723,122.55375 L20.8466723,122.55375 Z M19.1541702,122.55375 L19.1541702,126.225 C19.1541702,126.4725 18.9477675,126.6375 18.7413648,126.6375 L18.7413648,126.6375 C18.4936816,126.6375 18.3285594,126.43125 18.3285594,126.225 L18.3285594,122.55375 C18.3285594,122.30625 18.5349621,122.14125 18.7413648,122.14125 L18.7413648,122.14125 C18.989048,122.14125 19.1541702,122.3475 19.1541702,122.55375 L19.1541702,122.55375 Z" id="Shape" fill="#87A4AB"></path>
                                    <polygon id="Shape" fill="#87A4AB" points="73.7683235 93.59625 69.8879528 93.59625 63.4481887 93.59625 60.4347094 90.54375 71.4153328 90.54375 72.2409436 90.54375 87.1019377 90.54375 84.0884583 93.59625"></polygon>
                                    <path d="M88.2165122,61.6275 C89.9090143,61.38 91.3125527,59.77125 91.5602359,58.28625 C91.8079191,59.77125 93.2114575,61.38 94.9039596,61.6275 C93.2114575,61.875 91.8079191,63.48375 91.5602359,64.96875 C91.3125527,63.48375 89.9090143,61.875 88.2165122,61.6275 L88.2165122,61.6275 Z" id="Shape" fill="#FEFEFE"></path>
                                    <path d="M59.9393429,76.725 L59.9393429,77.055 L59.9393429,77.67375 C59.9393429,77.715 59.8980623,77.75625 59.8567818,77.75625 L59.2788543,77.75625 C59.2375737,77.75625 59.1962932,77.715 59.1962932,77.67375 C59.1550126,77.55 59.1550126,77.4675 59.1550126,77.385 L58.6183656,77.385 L58.6183656,78.00375 L59.485257,78.00375 C59.567818,78.00375 59.6090986,78.045 59.6090986,78.08625 L59.6090986,78.74625 C59.6090986,78.82875 59.567818,78.82875 59.485257,78.82875 L58.6183656,78.82875 L58.6183656,79.365 C58.7009267,79.365 58.7834878,79.365 58.9486099,79.40625 C58.9898905,79.40625 59.031171,79.4475 59.031171,79.48875 L59.031171,80.06625 C59.031171,80.1075 58.9898905,80.14875 58.9486099,80.14875 L57.1735468,80.14875 C57.1322662,80.14875 57.0909857,80.1075 57.0909857,80.06625 L57.0909857,79.48875 C57.0909857,79.4475 57.1322662,79.40625 57.1735468,79.40625 C57.2561078,79.40625 57.3799495,79.365 57.5037911,79.365 L57.5037911,77.42625 C57.42123,77.42625 57.2973884,77.42625 57.2148273,77.4675 L57.1322662,77.4675 C57.1322662,77.4675 57.0909857,77.42625 57.0909857,77.385 L57.0909857,76.8075 C57.0909857,76.76625 57.1322662,76.725 57.1735468,76.725 C57.6276327,76.6425 58.2055602,76.56 58.8660489,76.56 C59.1962932,76.56 59.5265375,76.56 59.8567818,76.60125 C59.9393429,76.60125 59.9806234,76.6425 59.9806234,76.725 L59.9393429,76.725 L59.9393429,76.725 Z M60.3521483,78.49875 L60.3521483,78.25125 C60.3521483,77.67375 60.4759899,77.22 60.7236731,76.93125 C60.9713564,76.6425 61.3841618,76.51875 61.9208088,76.51875 C62.4574558,76.51875 62.8702612,76.6425 63.1179444,76.93125 C63.3656276,77.22 63.4894693,77.6325 63.4894693,78.25125 L63.4894693,78.49875 C63.4894693,79.07625 63.3656276,79.53 63.1179444,79.81875 C62.8702612,80.1075 62.4574558,80.23125 61.9208088,80.23125 C61.3841618,80.23125 60.9713564,80.1075 60.7236731,79.81875 C60.4759899,79.53 60.3521483,79.1175 60.3521483,78.49875 L60.3521483,78.49875 Z M62.3336142,78.4575 L62.3336142,78.2925 C62.3336142,77.9625 62.2923336,77.715 62.2510531,77.59125 C62.2097725,77.4675 62.0859309,77.385 61.9208088,77.385 C61.7556866,77.385 61.631845,77.4675 61.5905644,77.59125 C61.5492839,77.715 61.5080034,77.9625 61.5080034,78.2925 L61.5080034,78.4575 C61.5080034,78.7875 61.5492839,79.035 61.5905644,79.15875 C61.631845,79.2825 61.7556866,79.365 61.9208088,79.365 C62.0859309,79.365 62.2097725,79.2825 62.2510531,79.15875 C62.2923336,79.035 62.3336142,78.7875 62.3336142,78.4575 L62.3336142,78.4575 Z M63.9435552,78.49875 L63.9435552,78.25125 C63.9435552,77.67375 64.0673968,77.22 64.31508,76.93125 C64.5627633,76.6425 64.9755687,76.51875 65.5122157,76.51875 C66.0488627,76.51875 66.4616681,76.6425 66.7093513,76.93125 C66.9570345,77.22 67.0808762,77.6325 67.0808762,78.25125 L67.0808762,78.49875 C67.0808762,79.07625 66.9570345,79.53 66.7093513,79.81875 C66.4616681,80.1075 66.0488627,80.23125 65.5122157,80.23125 C64.9755687,80.23125 64.5627633,80.1075 64.31508,79.81875 C64.0673968,79.53 63.9435552,79.1175 63.9435552,78.49875 L63.9435552,78.49875 Z M65.9250211,78.4575 L65.9250211,78.2925 C65.9250211,77.9625 65.8837405,77.715 65.84246,77.59125 C65.8011794,77.4675 65.6773378,77.385 65.5122157,77.385 C65.3470935,77.385 65.2232519,77.4675 65.1819714,77.59125 C65.1406908,77.715 65.0994103,77.9625 65.0994103,78.2925 L65.0994103,78.4575 C65.0994103,78.7875 65.1406908,79.035 65.1819714,79.15875 C65.2232519,79.2825 65.3470935,79.365 65.5122157,79.365 C65.6773378,79.365 65.8011794,79.2825 65.84246,79.15875 C65.8837405,79.035 65.9250211,78.7875 65.9250211,78.4575 L65.9250211,78.4575 Z M68.0303286,80.1075 C67.9477675,80.1075 67.8652064,80.06625 67.8652064,79.98375 C67.8239259,79.9425 67.8239259,79.86 67.8239259,79.73625 L67.8239259,77.385 L67.7413648,77.385 L67.6175232,77.385 L67.5349621,77.385 C67.452401,77.385 67.4111205,77.34375 67.4111205,77.3025 L67.4111205,76.725 C67.4111205,76.68375 67.452401,76.6425 67.4936816,76.6425 C67.9477675,76.51875 68.443134,76.4775 68.979781,76.4775 C69.598989,76.4775 70.0117944,76.60125 70.2594777,76.89 C70.5071609,77.17875 70.6310025,77.6325 70.6310025,78.21 L70.6310025,78.41625 C70.6310025,78.705 70.589722,78.91125 70.5484414,79.1175 C70.5071609,79.32375 70.4245998,79.48875 70.3007582,79.65375 C70.1769166,79.81875 70.0117944,79.9425 69.8053917,80.025 C69.598989,80.1075 69.3100253,80.14875 69.0210615,80.14875 C68.6495366,80.14875 68.3192923,80.1075 68.0303286,80.06625 L68.0303286,80.1075 L68.0303286,80.1075 Z M69.062342,77.34375 L68.8972199,77.34375 L68.8972199,79.365 L69.1449031,79.365 C69.3100253,79.365 69.4338669,79.2825 69.4751474,79.15875 C69.516428,79.035 69.5577085,78.7875 69.5577085,78.4575 L69.5577085,78.2925 C69.5577085,77.92125 69.516428,77.67375 69.4751474,77.55 C69.3925864,77.42625 69.2687447,77.34375 69.062342,77.34375 L69.062342,77.34375 Z M75.7085088,76.68375 L75.7085088,77.09625 L75.7085088,77.88 C75.7085088,77.92125 75.6672283,77.9625 75.6259478,77.9625 L75.0480202,77.9625 C75.0067397,77.9625 74.9654591,77.92125 74.9654591,77.88 C74.9654591,77.7975 74.9241786,77.6325 74.9241786,77.4675 L74.7177759,77.4675 L74.7177759,79.40625 C74.800337,79.40625 74.9241786,79.4475 75.0480202,79.4475 C75.0893008,79.4475 75.1305813,79.48875 75.1305813,79.53 L75.1305813,80.1075 C75.1305813,80.14875 75.0893008,80.19 75.0480202,80.19 L73.272957,80.19 C73.2316765,80.19 73.190396,80.14875 73.190396,80.1075 L73.190396,79.53 C73.190396,79.48875 73.2316765,79.4475 73.272957,79.4475 C73.3555181,79.4475 73.4793597,79.40625 73.6032013,79.40625 L73.6032013,77.4675 L73.3967987,77.4675 C73.3967987,77.59125 73.3967987,77.75625 73.3555181,77.88 C73.3555181,77.92125 73.3142376,77.9625 73.272957,77.9625 L72.6950295,77.9625 C72.6537489,77.9625 72.6124684,77.92125 72.6124684,77.88 L72.6124684,77.09625 L72.6124684,76.68375 C72.6124684,76.60125 72.6537489,76.60125 72.73631,76.60125 L75.6672283,76.60125 C75.7497894,76.60125 75.7910699,76.6425 75.7910699,76.68375 L75.7085088,76.68375 L75.7085088,76.68375 Z M78.6807077,78.7875 L78.8871104,79.2 C78.9283909,79.2825 78.9696714,79.32375 79.010952,79.365 C79.0522325,79.40625 79.1347936,79.40625 79.2173547,79.40625 L79.3411963,79.40625 C79.3824768,79.40625 79.4237574,79.4475 79.4237574,79.48875 L79.4237574,79.98375 C79.4237574,80.025 79.4237574,80.06625 79.3824768,80.1075 C79.2999158,80.14875 79.1347936,80.19 78.9283909,80.19 C78.6807077,80.19 78.5155855,80.14875 78.3504634,80.025 C78.1853412,79.90125 78.0614996,79.695 77.937658,79.40625 L77.7312553,78.9525 L77.5661331,78.9525 L77.5661331,79.40625 C77.5661331,79.40625 77.6486942,79.40625 77.8138163,79.4475 C77.8550969,79.4475 77.8963774,79.48875 77.8963774,79.53 L77.8963774,80.1075 C77.8963774,80.14875 77.8550969,80.19 77.8138163,80.19 L76.2038753,80.19 C76.1625948,80.19 76.1213142,80.14875 76.1213142,80.1075 L76.1213142,79.53 C76.1213142,79.48875 76.1625948,79.4475 76.2038753,79.4475 C76.2864364,79.4475 76.410278,79.40625 76.5341196,79.40625 L76.5341196,77.385 L76.3689975,77.385 L76.2451559,77.385 C76.1625948,77.385 76.1213142,77.34375 76.1213142,77.3025 L76.1213142,76.76625 C76.1213142,76.725 76.1625948,76.68375 76.2038753,76.68375 C76.6579612,76.56 77.2358888,76.51875 77.8550969,76.51875 C78.3091828,76.51875 78.6394271,76.60125 78.8458298,76.8075 C79.0522325,76.9725 79.1760741,77.26125 79.1760741,77.6325 L79.1760741,77.83875 C79.1760741,78.2925 79.0522325,78.6225 78.7632687,78.82875 L78.6807077,78.7875 L78.6807077,78.7875 Z M77.7725358,78.21 C77.9789385,78.21 78.0614996,78.08625 78.0614996,77.7975 L78.0614996,77.715 C78.0614996,77.59125 78.020219,77.4675 77.9789385,77.42625 C77.937658,77.34375 77.8550969,77.34375 77.7725358,77.34375 L77.5248526,77.34375 L77.5248526,78.25125 L77.7725358,78.25125 L77.7725358,78.21 L77.7725358,78.21 Z M81.8593092,78.705 L81.8593092,77.385 C81.7767481,77.385 81.7354676,77.385 81.6529065,77.34375 C81.6116259,77.34375 81.5703454,77.3025 81.5703454,77.26125 L81.5703454,76.68375 C81.5703454,76.6425 81.6116259,76.60125 81.6529065,76.60125 L83.3041281,76.60125 C83.3454086,76.60125 83.3866891,76.6425 83.3866891,76.68375 L83.3866891,77.26125 C83.3866891,77.3025 83.3454086,77.34375 83.3041281,77.34375 C83.221567,77.34375 83.0977254,77.385 82.9738837,77.385 L82.9738837,78.6225 C82.9738837,79.15875 82.8500421,79.57125 82.6436394,79.86 C82.3959562,80.14875 82.0244313,80.2725 81.4877843,80.2725 C80.9511373,80.2725 80.5383319,80.14875 80.3319292,79.86 C80.084246,79.57125 80.0016849,79.2 80.0016849,78.6225 L80.0016849,77.385 C79.8778433,77.385 79.7952822,77.385 79.6714406,77.34375 C79.6301601,77.34375 79.5888795,77.3025 79.5888795,77.26125 L79.5888795,76.68375 C79.5888795,76.6425 79.6301601,76.60125 79.6714406,76.60125 L81.3226622,76.60125 C81.3639427,76.60125 81.4052233,76.6425 81.4052233,76.68375 L81.4052233,77.26125 C81.4052233,77.3025 81.3639427,77.34375 81.3226622,77.34375 C81.2813816,77.34375 81.1988206,77.385 81.1162595,77.385 L81.1162595,78.705 C81.1162595,78.9525 81.15754,79.15875 81.1988206,79.24125 C81.2813816,79.32375 81.3639427,79.40625 81.4877843,79.40625 C81.6116259,79.40625 81.7354676,79.365 81.7767481,79.24125 C81.8593092,79.15875 81.8593092,78.9525 81.8593092,78.705 L81.8593092,78.705 Z M86.441449,76.8075 L86.441449,77.09625 L86.441449,77.88 C86.441449,77.92125 86.4001685,77.9625 86.358888,77.9625 L85.7809604,77.9625 C85.7396799,77.9625 85.6983993,77.92125 85.6983993,77.88 C85.6571188,77.715 85.6571188,77.59125 85.6571188,77.385 C85.368155,77.385 85.1617523,77.4675 85.0791912,77.59125 C84.9966302,77.715 84.9140691,77.9625 84.9140691,78.2925 L84.9140691,78.49875 C84.9140691,78.82875 84.9553496,79.07625 85.0791912,79.2 C85.2030329,79.32375 85.368155,79.40625 85.6571188,79.40625 C85.9460826,79.40625 86.1937658,79.40625 86.441449,79.365 L86.4827296,79.365 C86.4827296,79.365 86.5240101,79.40625 86.5240101,79.4475 L86.5240101,79.98375 C86.5240101,80.025 86.4827296,80.06625 86.441449,80.1075 C86.1937658,80.23125 85.8635215,80.2725 85.4094356,80.2725 C84.831508,80.2725 84.4187026,80.14875 84.1710194,79.86 C83.9233361,79.57125 83.7994945,79.15875 83.7994945,78.58125 L83.7994945,78.2925 C83.7994945,77.715 83.9233361,77.26125 84.1710194,77.01375 C84.4187026,76.725 84.831508,76.60125 85.4094356,76.60125 C85.7809604,76.60125 86.1112047,76.6425 86.4001685,76.76625 C86.4827296,76.8075 86.4827296,76.84875 86.4827296,76.89 L86.441449,76.8075 L86.441449,76.8075 Z M88.8770008,79.53 L88.4229149,78.66375 L88.4229149,79.40625 L88.505476,79.40625 L88.5880371,79.40625 C88.6293176,79.40625 88.6705981,79.4475 88.6705981,79.48875 L88.6705981,80.06625 C88.6705981,80.1075 88.6293176,80.14875 88.5880371,80.14875 L86.978096,80.14875 C86.9368155,80.14875 86.895535,80.1075 86.895535,80.06625 L86.895535,79.48875 C86.895535,79.4475 86.9368155,79.40625 86.978096,79.40625 C87.0606571,79.40625 87.1844987,79.365 87.3083404,79.365 L87.3083404,77.34375 C87.1844987,77.34375 87.1019377,77.34375 86.978096,77.3025 C86.9368155,77.3025 86.895535,77.26125 86.895535,77.22 L86.895535,76.6425 C86.895535,76.60125 86.9368155,76.56 86.978096,76.56 L88.5880371,76.56 C88.6293176,76.56 88.6705981,76.60125 88.6705981,76.6425 L88.6705981,77.22 C88.6705981,77.26125 88.6293176,77.3025 88.5880371,77.3025 L88.505476,77.3025 L88.4229149,77.3025 L88.4229149,77.92125 L89.1246841,76.6425 C89.1659646,76.56 89.2072452,76.51875 89.2898062,76.51875 L90.2805392,76.51875 C90.3218197,76.51875 90.3631003,76.56 90.3631003,76.60125 L90.3631003,77.17875 C90.3631003,77.22 90.3218197,77.26125 90.2805392,77.26125 C90.1979781,77.3025 90.0741365,77.3025 89.9502949,77.3025 L89.4136479,78.25125 L89.9090143,79.15875 C89.9502949,79.24125 89.9915754,79.2825 90.0328559,79.32375 C90.0741365,79.365 90.1566976,79.365 90.2392586,79.365 L90.4456613,79.365 C90.4869419,79.365 90.5282224,79.40625 90.5282224,79.4475 L90.5282224,79.98375 C90.5282224,80.025 90.4869419,80.06625 90.4456613,80.1075 C90.3218197,80.14875 90.115417,80.19 89.9090143,80.19 C89.7026116,80.19 89.4962089,80.14875 89.3310868,80.025 C89.1659646,79.90125 89.042123,79.73625 88.8770008,79.48875 L88.8770008,79.53 L88.8770008,79.53 Z" id="Shape" fill="#FEFEFE"></path>
                                    <polygon id="Shape" fill="#87A4AB" points="107.618366 98.175 115.502949 106.05375 107.618366 106.05375 99.6925021 98.175"></polygon>
                                    <path d="M169.20893,74.45625 C171.644482,74.12625 173.749789,71.73375 174.080034,69.58875 C174.410278,71.775 176.515586,74.12625 178.951137,74.45625 C176.515586,74.78625 174.410278,77.17875 174.080034,79.32375 C173.749789,77.1375 171.644482,74.78625 169.20893,74.45625 L169.20893,74.45625 Z" id="Shape" fill="#FEFEFE"></path>
                                    <path d="M105.967144,92.44125 C109.228307,91.9875 111.994103,88.8525 112.448189,85.965 C112.902275,88.8525 115.668071,91.9875 118.929233,92.44125 C115.668071,92.895 112.902275,96.03 112.448189,98.9175 C111.994103,96.03 109.228307,92.895 105.967144,92.44125 L105.967144,92.44125 Z" id="Shape" fill="#FEFEFE"></path>
                                </g>
                            </g>
                        </g>
                    </g>
                </g>
            </g>
        </g>
    </g>
</svg>