<?xml version="1.0" encoding="UTF-8"?>
<svg width="22px" height="15px" viewBox="0 0 22 15" version="1.1" xmlns="http://www.w3.org/2000/svg" xmlns:xlink="http://www.w3.org/1999/xlink">
    <!-- Generator: Sketch 40 (33762) - http://www.bohemiancoding.com/sketch -->
    <title>Group 3</title>
    <desc>Created with Sketch.</desc>
    <defs></defs>
    <g id="main" stroke="none" stroke-width="1" fill="none" fill-rule="evenodd">
        <g transform="translate(-1048.000000, -2515.000000)" id="0.7-g+" fill="#000000">
            <g transform="translate(1035.000000, 2500.000000)">
                <g id="google+" transform="translate(5.000000, 5.000000)">
                    <g id="Group-3" transform="translate(8.000000, 10.000000)">
                        <path d="M7.36747556,9.17416671 C8.66134373,9.21681521 9.95867947,9.19723885 11.2525476,9.21681521 C10.6817846,12.1101551 6.77729414,13.0484222 4.71154356,11.1588371 C2.58730654,9.50113859 2.68786625,5.86552827 4.89624978,4.32575408 C6.44001458,3.08335417 8.6354525,3.39074968 10.1792173,4.4662844 C10.7855808,3.90066733 11.3531073,3.29589754 11.9012155,2.66828866 C10.6170566,1.63516939 9.04092771,0.899424408 7.36423916,0.977962913 C3.86499269,0.860271681 0.648006907,3.94984129 0.589520459,7.47754856 C0.365977397,10.3611003 2.24679059,13.1889525 4.90272258,14.2090209 C7.54917654,15.2356147 10.9411593,14.5359928 12.6307935,12.1395196 C13.7464283,10.6258473 13.9863845,8.67729997 13.8566972,6.8464439 C11.6903869,6.83013026 9.52731303,6.83339299 7.36423916,6.83991844 C7.36100275,7.61807888 7.36423916,8.39623932 7.36747556,9.17416671 Z" id="Fill-1"></path>
                        <path d="M20.0184178,6.83010696 C20.011945,6.17942593 20.0087086,5.52571523 20.0054722,4.8750342 L18.0758818,4.8750342 C18.0694089,5.52571523 18.0629361,6.1761632 18.0596997,6.83010696 C17.4110319,6.83336968 16.7656004,6.83663241 16.1204001,6.84315787 L16.1204001,8.78844244 C16.7656004,8.79496789 17.4142683,8.80149335 18.0596997,8.8080188 C18.0661725,9.45869983 18.0661725,10.1093809 18.0726454,10.7598288 L20.0054722,10.7598288 C20.0087086,10.1093809 20.011945,9.45869983 20.0184178,8.80475607 C20.6670857,8.79823062 21.312286,8.79496789 21.9577174,8.78844244 L21.9577174,6.84315787 C21.312286,6.83663241 20.6638493,6.83663241 20.0184178,6.83010696" id="Fill-4"></path>
                    </g>
                </g>
            </g>
        </g>
    </g>
</svg>