<?xml version="1.0" encoding="UTF-8" standalone="no"?>
<svg width="36px" height="34px" viewBox="0 0 36 34" version="1.1" xmlns="http://www.w3.org/2000/svg" xmlns:xlink="http://www.w3.org/1999/xlink">
    <!-- Generator: Sketch 40.3 (33839) - http://www.bohemiancoding.com/sketch -->
    <title>0.5-g+</title>
    <desc>Created with Sketch.</desc>
    <defs></defs>
    <g id="mobile" stroke="none" stroke-width="1" fill="none" fill-rule="evenodd">
        <g id="article-1" transform="translate(-199.000000, -538.000000)">
            <g id="0.5-g+" transform="translate(199.731183, 538.000000)">
                <ellipse id="Oval-Copy" fill="#DEE0DF" cx="17.358871" cy="17" rx="17.358871" ry="17"></ellipse>
                <g id="google+" transform="translate(3.857527, 3.777778)" fill="#000000">
                    <path d="M11.85609,14.4871482 C12.8543163,14.5193715 13.8552178,14.5045805 14.853444,14.5193715 C14.4130973,16.7054505 11.4007619,17.4143635 9.8070242,15.9866769 C8.16816392,14.7341936 8.24574627,11.987288 9.94952604,10.8239031 C11.1405489,9.88520093 12.834341,10.1174553 14.0253639,10.9300815 C14.4931765,10.5027264 14.9310264,10.0457893 15.3538948,9.57159587 C14.3631592,8.79101687 13.1471673,8.23512066 11.8535931,8.29446087 C9.15390565,8.2055386 6.67198382,10.5398801 6.62686121,13.2052589 C6.45439654,15.3839424 7.90545403,17.5205419 9.95451984,18.2912602 C11.9962733,19.0669089 14.6132063,18.5383056 15.9167681,16.7276371 C16.7774863,15.5839735 16.9626139,14.1117378 16.8625594,12.7284243 C15.1912394,12.7160984 13.5224162,12.7185636 11.8535931,12.7234939 C11.8510962,13.3114374 11.8535931,13.8993808 11.85609,14.4871482 Z" id="Fill-1"></path>
                    <path d="M21.61636,12.7160808 C21.6113662,12.2244551 21.6088693,11.7305404 21.6063724,11.2389147 L20.117683,11.2389147 C20.1126892,11.7305404 20.1076954,12.22199 20.1051985,12.7160808 C19.6047477,12.718546 19.1067939,12.7210112 18.6090184,12.7259415 L18.6090184,14.1957121 C19.1067939,14.2006424 19.6072446,14.2055728 20.1051985,14.2105031 C20.1101923,14.7021288 20.1101923,15.1937544 20.1151861,15.685204 L21.6063724,15.685204 C21.6088693,15.1937544 21.6113662,14.7021288 21.61636,14.2080379 C22.1168107,14.2031076 22.6145862,14.2006424 23.1125401,14.1957121 L23.1125401,12.7259415 C22.6145862,12.7210112 22.1143138,12.7210112 21.61636,12.7160808" id="Fill-4"></path>
                </g>
            </g>
        </g>
    </g>
</svg>