<?xml version="1.0" encoding="UTF-8" standalone="no"?>
<svg width="45px" height="45px" viewBox="0 0 45 45" version="1.1" xmlns="http://www.w3.org/2000/svg" xmlns:xlink="http://www.w3.org/1999/xlink">
    <!-- Generator: Sketch 40.3 (33839) - http://www.bohemiancoding.com/sketch -->
    <title>0.7-g+</title>
    <desc>Created with Sketch.</desc>
    <defs></defs>
    <g id="main.v3" stroke="none" stroke-width="1" fill="none" fill-rule="evenodd">
        <g id="main" transform="translate(-1035.000000, -2500.000000)">
            <g id="0.7-g+" transform="translate(1035.000000, 2500.000000)">
                <circle id="Oval-Copy" fill="#FFFFFF" cx="22.5" cy="22.5" r="22.5"></circle>
                <g id="google+" transform="translate(5.000000, 5.000000)" fill="#000000">
                    <path d="M15.3674756,19.1741667 C16.6613437,19.2168152 17.9586795,19.1972389 19.2525476,19.2168152 C18.6817846,22.1101551 14.7772941,23.0484222 12.7115436,21.1588371 C10.5873065,19.5011386 10.6878662,15.8655283 12.8962498,14.3257541 C14.4400146,13.0833542 16.6354525,13.3907497 18.1792173,14.4662844 C18.7855808,13.9006673 19.3531073,13.2958975 19.9012155,12.6682887 C18.6170566,11.6351694 17.0409277,10.8994244 15.3642392,10.9779629 C11.8649927,10.8602717 8.64800691,13.9498413 8.58952046,17.4775486 C8.3659774,20.3611003 10.2467906,23.1889525 12.9027226,24.2090209 C15.5491765,25.2356147 18.9411593,24.5359928 20.6307935,22.1395196 C21.7464283,20.6258473 21.9863845,18.6773 21.8566972,16.8464439 C19.6903869,16.8301303 17.527313,16.833393 15.3642392,16.8399184 C15.3610028,17.6180789 15.3642392,18.3962393 15.3674756,19.1741667 Z" id="Fill-1"></path>
                    <path d="M28.0184178,16.830107 C28.011945,16.1794259 28.0087086,15.5257152 28.0054722,14.8750342 L26.0758818,14.8750342 C26.0694089,15.5257152 26.0629361,16.1761632 26.0596997,16.830107 C25.4110319,16.8333697 24.7656004,16.8366324 24.1204001,16.8431579 L24.1204001,18.7884424 C24.7656004,18.7949679 25.4142683,18.8014933 26.0596997,18.8080188 C26.0661725,19.4586998 26.0661725,20.1093809 26.0726454,20.7598288 L28.0054722,20.7598288 C28.0087086,20.1093809 28.011945,19.4586998 28.0184178,18.8047561 C28.6670857,18.7982306 29.312286,18.7949679 29.9577174,18.7884424 L29.9577174,16.8431579 C29.312286,16.8366324 28.6638493,16.8366324 28.0184178,16.830107" id="Fill-4"></path>
                </g>
            </g>
        </g>
    </g>
</svg>