<?xml version="1.0" encoding="UTF-8" standalone="no"?>
<svg width="31px" height="36px" viewBox="0 0 31 36" version="1.1" xmlns="http://www.w3.org/2000/svg" xmlns:xlink="http://www.w3.org/1999/xlink">
    <!-- Generator: sketchtool 40.3 (33839) - http://www.bohemiancoding.com/sketch -->
    <title>34FE1732-4987-480D-A19F-D3ED0EB9AAA3</title>
    <desc>Created with sketchtool.</desc>
    <defs></defs>
    <g id="main" stroke="none" stroke-width="1" fill="none" fill-rule="evenodd">
        <g transform="translate(-415.000000, -2113.000000)" id="1.17-icon#3" fill="#FFFFFF">
            <g transform="translate(415.000000, 2113.000000)">
                <g id="Слой_1">
                    <g id="Group" transform="translate(0.000000, 0.255128)">
                        <path d="M0.715384615,0.16 C0.317948718,0.2 0,0.56 0,0.96 L0,30.56 C0,31 0.357692308,31.36 0.794871795,31.36 L16.8115385,31.36 C18.0833333,33.72 20.5871795,35.36 23.4487179,35.36 C27.6217949,35.36 31,31.96 31,27.76 C31,23.56 27.6217949,20.16 23.4487179,20.16 C23.3294872,20.16 23.1705128,20.16 23.0512821,20.2 L23.0512821,0.96 C23.0512821,0.52 22.6935897,0.16 22.2564103,0.16 L0.794871795,0.16 C0.755128205,0.16 0.755128205,0.16 0.715384615,0.16 L0.715384615,0.16 Z M1.58974359,1.76 L21.4615385,1.76 L21.4615385,20.44 C19.4346154,21 17.7653846,22.36 16.7717949,24.16 L4.76923077,24.16 L4.68974359,24.16 C4.2525641,24.2 3.89487179,24.56 3.93461538,25 C3.97435897,25.44 4.33205128,25.8 4.76923077,25.76 L16.175641,25.76 C16.0166667,26.4 15.8974359,27.08 15.8974359,27.76 C15.8974359,28.44 16.0166667,29.12 16.175641,29.76 L1.58974359,29.76 L1.58974359,1.76 L1.58974359,1.76 Z M4.68974359,6.16 C4.2525641,6.2 3.89487179,6.56 3.93461538,7 C3.97435897,7.44 4.33205128,7.8 4.76923077,7.76 L18.2820513,7.76 C18.7192308,7.76 19.0769231,7.4 19.0769231,6.96 C19.0769231,6.52 18.7192308,6.16 18.2820513,6.16 C18.2820513,6.16 18.2820513,6.16 18.2423077,6.16 L4.76923077,6.16 L4.68974359,6.16 L4.68974359,6.16 Z M4.68974359,12.16 C4.2525641,12.2 3.89487179,12.56 3.93461538,13 C3.97435897,13.44 4.33205128,13.8 4.76923077,13.76 L18.2820513,13.76 C18.7192308,13.76 19.0769231,13.4 19.0769231,12.96 C19.0769231,12.52 18.7192308,12.16 18.2820513,12.16 C18.2820513,12.16 18.2820513,12.16 18.2423077,12.16 L4.76923077,12.16 L4.68974359,12.16 L4.68974359,12.16 Z M4.68974359,18.16 C4.2525641,18.2 3.89487179,18.56 3.93461538,19 C3.97435897,19.44 4.33205128,19.8 4.76923077,19.76 L18.2820513,19.76 C18.7192308,19.76 19.0769231,19.4 19.0769231,18.96 C19.0769231,18.52 18.7192308,18.16 18.2820513,18.16 C18.2820513,18.16 18.2820513,18.16 18.2423077,18.16 L4.76923077,18.16 L4.68974359,18.16 L4.68974359,18.16 Z M23.4487179,21.76 C26.7474359,21.76 29.4102564,24.44 29.4102564,27.76 C29.4102564,31.08 26.7474359,33.76 23.4487179,33.76 C20.15,33.76 17.4871795,31.08 17.4871795,27.76 C17.4871795,24.44 20.15,21.76 23.4487179,21.76 L23.4487179,21.76 Z M26.1910256,24.52 C25.9923077,24.52 25.7935897,24.64 25.674359,24.8 L21.8589744,29 L20.4679487,27.6 C20.15,27.28 19.6730769,27.28 19.3551282,27.6 C19.0371795,27.92 19.0371795,28.4 19.3551282,28.72 C19.3551282,28.72 19.3551282,28.72 19.3948718,28.76 L21.3820513,30.76 C21.7,31.08 22.2166667,31.08 22.4948718,30.76 L22.4948718,30.76 L26.8666667,25.96 C27.1846154,25.64 27.1448718,25.12 26.8269231,24.84 C26.6282051,24.6 26.3897436,24.52 26.1910256,24.52 L26.1910256,24.52 Z" id="Shape"></path>
                    </g>
                </g>
            </g>
        </g>
    </g>
</svg>