<?xml version="1.0" encoding="UTF-8" standalone="no"?>
<svg width="41px" height="38px" viewBox="0 0 41 38" version="1.1" xmlns="http://www.w3.org/2000/svg" xmlns:xlink="http://www.w3.org/1999/xlink">
    <!-- Generator: sketchtool 40.3 (33839) - http://www.bohemiancoding.com/sketch -->
    <title>1D92356E-7BEB-4505-8093-7B3D1DEC2648</title>
    <desc>Created with sketchtool.</desc>
    <defs></defs>
    <g id="main" stroke="none" stroke-width="1" fill="none" fill-rule="evenodd">
        <g transform="translate(-415.000000, -1824.000000)" id="1.15-icon#1" fill="#FFFFFF">
            <g transform="translate(415.000000, 1824.000000)">
                <g id="Слой_1">
                    <g id="Group">
                        <path d="M26.0814453,12.3378723 C26.265625,12.992766 26.6259766,13.453617 26.6660156,13.5102128 L26.6660156,13.5102128 C26.8261719,13.7042553 27.0664062,13.833617 27.3306641,13.833617 C27.803125,13.833617 28.1875,13.4455319 28.1875,12.9685106 C28.1875,12.766383 28.1154297,12.5723404 27.9953125,12.4268085 L27.9953125,12.4268085 C27.9953125,12.4268085 27.8111328,12.1761702 27.7230469,11.8608511 C27.6189453,11.4970213 27.6830078,11.2221277 27.9392578,10.9634043 C28.6359375,10.26 28.8601563,9.34638298 28.5878906,8.39234043 C28.4037109,7.75361702 28.0433594,7.30085106 27.9953125,7.24425532 L27.9953125,7.24425532 L27.9953125,7.24425532 L27.9953125,7.24425532 C27.8351563,7.05021277 27.6029297,6.92893617 27.3386719,6.92893617 C26.8662109,6.92893617 26.4818359,7.31702128 26.4818359,7.79404255 C26.4818359,8.00425532 26.5539063,8.19829787 26.6820313,8.34382979 L26.6820313,8.34382979 C26.6820313,8.34382979 26.8662109,8.57829787 26.9542969,8.88553191 C27.0583984,9.2412766 26.9943359,9.5 26.7380859,9.7587234 C26.0333984,10.4459574 25.8091797,11.3676596 26.0814453,12.3378723 L26.0814453,12.3378723 Z" id="Shape"></path>
                        <path d="M19.0185547,8.32765957 C19.2748047,9.29787234 19.7632813,9.96085106 19.8193359,10.033617 L19.8193359,10.033617 C19.9794922,10.2438298 20.2197266,10.3731915 20.5,10.3731915 C20.9724609,10.3731915 21.3568359,9.98510638 21.3568359,9.50808511 C21.3568359,9.31404255 21.2927734,9.13617021 21.1806641,8.9906383 L21.1806641,8.9906383 C21.1806641,8.98255319 20.8203125,8.49744681 20.6601563,7.83446809 C20.4599609,7.04212766 20.6201172,6.36297872 21.140625,5.77276596 C22.0535156,4.72978723 22.3417969,3.45234043 21.9814453,2.07787234 C21.7251953,1.11574468 21.2367188,0.444680851 21.1806641,0.371914894 L21.1806641,0.371914894 C21.0205078,0.161702128 20.7802734,0.0323404255 20.5,0.0323404255 C20.0275391,0.0323404255 19.6431641,0.420425532 19.6431641,0.897446809 C19.6431641,1.09148936 19.7072266,1.2693617 19.8193359,1.41489362 L19.8193359,1.41489362 C19.8193359,1.42297872 20.1796875,1.90808511 20.3398438,2.57106383 C20.5400391,3.36340426 20.3798828,4.04255319 19.859375,4.63276596 C18.9464844,5.67574468 18.6582031,6.95319149 19.0185547,8.32765957 L19.0185547,8.32765957 Z" id="Shape"></path>
                        <path d="M12.4121094,12.3378723 C12.5962891,12.992766 12.9566406,13.453617 12.9966797,13.5102128 L12.9966797,13.5102128 C13.1568359,13.7042553 13.3970703,13.833617 13.6613281,13.833617 C14.1337891,13.833617 14.5181641,13.4455319 14.5181641,12.9685106 C14.5181641,12.766383 14.4460938,12.5723404 14.3259766,12.4268085 L14.3259766,12.4268085 C14.3259766,12.4268085 14.1417969,12.1761702 14.0537109,11.8608511 C13.9496094,11.4970213 14.0136719,11.2221277 14.2699219,10.9634043 C14.9666016,10.26 15.1908203,9.34638298 14.9185547,8.39234043 C14.734375,7.74553191 14.3740234,7.29276596 14.3259766,7.23617021 L14.3259766,7.23617021 L14.3259766,7.23617021 L14.3259766,7.23617021 C14.1658203,7.04212766 13.9335937,6.92085106 13.6693359,6.92085106 C13.196875,6.92085106 12.8125,7.30893617 12.8125,7.78595745 C12.8125,7.99617021 12.8845703,8.19021277 13.0126953,8.33574468 L13.0126953,8.33574468 C13.0126953,8.33574468 13.196875,8.57021277 13.2849609,8.87744681 C13.3890625,9.23319149 13.325,9.49191489 13.06875,9.7506383 C12.3720703,10.4459574 12.1398438,11.3676596 12.4121094,12.3378723 L12.4121094,12.3378723 Z" id="Shape"></path>
                        <path d="M41,37.1106383 C41,36.633617 40.615625,36.2455319 40.1431641,36.2455319 L40.1431641,36.2455319 L39.2863281,36.2455319 C39.2863281,26.5757447 32.1193359,18.5957447 22.8542969,17.4234043 C22.9824219,17.1161702 23.0544922,16.7685106 23.0544922,16.412766 C23.0544922,14.9817021 21.909375,13.8255319 20.4919922,13.8255319 C19.0746094,13.8255319 17.9294922,14.9817021 17.9294922,16.412766 C17.9294922,16.7685106 18.0015625,17.1161702 18.1296875,17.4234043 C8.88066406,18.5957447 1.70566406,26.5757447 1.70566406,36.2455319 L0.856835938,36.2455319 L0.856835938,36.2455319 L0.856835938,36.2455319 C0.384375,36.2455319 0,36.633617 0,37.1106383 C0,37.5876596 0.384375,37.9757447 0.856835938,37.9757447 L0.856835938,37.9757447 L0.856835938,37.9757447 L40.1431641,37.9757447 L40.1431641,37.9757447 C40.615625,37.9757447 41,37.5876596 41,37.1106383 L41,37.1106383 Z M20.5,15.5476596 C20.9724609,15.5476596 21.3568359,15.9357447 21.3568359,16.412766 C21.3568359,16.8897872 20.9724609,17.2778723 20.5,17.2778723 C20.0275391,17.2778723 19.6431641,16.8897872 19.6431641,16.412766 C19.6431641,15.9357447 20.0275391,15.5476596 20.5,15.5476596 L20.5,15.5476596 Z M20.5,21.587234 L20.5,21.587234 C20.9724609,21.587234 21.3568359,21.1991489 21.3568359,20.7221277 C21.3568359,20.2451064 20.9724609,19.8570213 20.5,19.8570213 L20.5,19.8570213 L20.5,19.8570213 L20.5,19.8570213 L20.5,19.8570213 C11.5392578,19.8570213 4.26816406,27.1902128 4.26816406,36.2374468 L3.41933594,36.2374468 C3.41933594,33.9089362 3.86777344,31.6531915 4.75664063,29.5268085 C5.61347656,27.4731915 6.84667969,25.6297872 8.41621094,24.0451064 C9.98574219,22.4604255 11.8115234,21.2153191 13.8455078,20.3502128 C15.9515625,19.452766 18.1857422,19 20.4919922,19 C22.7982422,19 25.0324219,19.452766 27.1384766,20.3502128 C29.1724609,21.2234043 30.9982422,22.4604255 32.5677734,24.0451064 C34.1373047,25.6297872 35.3705078,27.4731915 36.2273438,29.5268085 C37.1162109,31.6531915 37.5646484,33.9089362 37.5646484,36.2374468 L5.98183594,36.2374468 C5.98183594,34.2565957 6.36621094,32.3404255 7.11894531,30.5293617 C7.84765625,28.7829787 8.89667969,27.2144681 10.2339844,25.8723404 C11.5712891,24.5221277 13.1167969,23.4710638 14.8464844,22.727234 C16.6402344,21.9753191 18.5380859,21.587234 20.5,21.587234 L20.5,21.587234 Z" id="Shape"></path>
                    </g>
                </g>
            </g>
        </g>
    </g>
</svg>