<?xml version="1.0" encoding="UTF-8" standalone="no"?>
<svg width="36px" height="41px" viewBox="0 0 36 41" version="1.1" xmlns="http://www.w3.org/2000/svg" xmlns:xlink="http://www.w3.org/1999/xlink">
    <!-- Generator: sketchtool 40.3 (33839) - http://www.bohemiancoding.com/sketch -->
    <title>F08FE143-2DF0-44ED-A990-6C8A71E516F6</title>
    <desc>Created with sketchtool.</desc>
    <defs></defs>
    <g id="main" stroke="none" stroke-width="1" fill="none" fill-rule="evenodd">
        <g transform="translate(-705.000000, -2110.000000)" id="1.18-icon#4" fill="#FFFFFF">
            <g transform="translate(705.000000, 2110.000000)">
                <g id="Слой_1">
                    <g id="Group" transform="translate(0.000000, 0.290562)">
                        <path d="M18.1367089,0.136666667 C17.6810127,0.182222222 17.3164557,0.592222222 17.3164557,1.04777778 L17.3164557,6.51444444 C17.3164557,7.01555556 17.7265823,7.42555556 18.2278481,7.42555556 C18.7291139,7.42555556 19.1392405,6.97 19.1392405,6.51444444 L19.1392405,1.04777778 C19.1392405,0.546666667 18.6835443,0.136666667 18.2278481,0.136666667 L18.1367089,0.136666667 L18.1367089,0.136666667 Z M9.02278481,3.78111111 C8.38481013,3.82666667 7.97468354,4.64666667 8.33924051,5.19333333 L10.6177215,8.83777778 C10.8455696,9.29333333 11.4835443,9.43 11.8936709,9.20222222 C12.3037975,8.97444444 12.4405063,8.29111111 12.121519,7.88111111 L9.84303797,4.23666667 C9.70632911,3.96333333 9.38734177,3.78111111 9.02278481,3.78111111 L9.02278481,3.78111111 Z M27.2962025,3.78111111 C27.0227848,3.78111111 26.7037975,3.96333333 26.5670886,4.23666667 L24.2886076,7.88111111 C23.9696203,8.29111111 24.1063291,8.92888889 24.5164557,9.20222222 C24.9265823,9.47555556 25.564557,9.29333333 25.7924051,8.83777778 L28.0708861,5.19333333 C28.2531646,4.92 28.2531646,4.55555556 28.0708861,4.23666667 C27.8886076,3.91777778 27.6151899,3.78111111 27.2962025,3.78111111 L27.2962025,3.78111111 Z M18.2278481,9.29333333 C12.2126582,9.29333333 7.29113924,13.9855556 7.29113924,19.7711111 C7.29113924,22.8233333 8.79493671,25.1922222 10.1620253,27.2422222 C11.5291139,29.2466667 12.7139241,31.0233333 12.7594937,32.9366667 L12.7594937,37.5833333 C12.7594937,39.0866667 13.9898734,40.3166667 15.4936709,40.3166667 L20.9620253,40.3166667 C22.4658228,40.3166667 23.6962025,39.0866667 23.6962025,37.5833333 L23.6962025,32.9366667 C23.7417722,31.0233333 24.9265823,29.2922222 26.2936709,27.2877778 C27.6607595,25.2377778 29.164557,22.9144444 29.164557,19.8166667 C29.164557,13.9855556 24.243038,9.29333333 18.2278481,9.29333333 L18.2278481,9.29333333 Z M1.59493671,9.70333333 C1.18481013,9.74888889 0.865822785,10.0222222 0.774683544,10.4322222 C0.683544304,10.7966667 0.865822785,11.2522222 1.23037975,11.4344444 L5.96962025,14.1677778 C6.37974684,14.3955556 6.9721519,14.2588889 7.2,13.8488889 C7.4278481,13.4388889 7.29113924,12.8466667 6.88101266,12.6188889 L2.14177215,9.88555556 C1.95949367,9.74888889 1.77721519,9.70333333 1.59493671,9.70333333 L1.59493671,9.70333333 Z M34.7240506,9.70333333 C34.5873418,9.70333333 34.4506329,9.74888889 34.3139241,9.84 L29.5746835,12.5733333 C29.164557,12.8011111 28.9822785,13.3933333 29.2556962,13.8033333 C29.4835443,14.2133333 30.0759494,14.3955556 30.4860759,14.1222222 L35.2253165,11.3888889 C35.5898734,11.2066667 35.7721519,10.7055556 35.6810127,10.3411111 C35.5898734,9.97666667 35.1797468,9.70333333 34.7240506,9.70333333 L34.7240506,9.70333333 Z M18.2278481,11.1155556 C23.2860759,11.1155556 27.3417722,15.0333333 27.3417722,19.7711111 C27.3417722,22.2311111 26.1113924,24.19 24.7443038,26.24 C23.5594937,28.0166667 22.2379747,29.8388889 21.9189873,32.0711111 L19.1392405,32.0711111 L19.1392405,22.7777778 C20.1873418,22.4133333 20.9620253,21.3655556 20.9620253,20.1811111 C20.9620253,18.6777778 19.7316456,17.4477778 18.2278481,17.4477778 C16.7240506,17.4477778 15.4936709,18.6777778 15.4936709,20.1811111 C15.4936709,21.3655556 16.2683544,22.3677778 17.3164557,22.7777778 L17.3164557,32.0255556 L14.4911392,32.0255556 C14.1721519,29.7933333 12.8506329,27.9711111 11.6658228,26.1944444 C10.2987342,24.19 9.06835443,22.2311111 9.06835443,19.7255556 C9.11392405,14.9877778 13.1696203,11.1155556 18.2278481,11.1155556 L18.2278481,11.1155556 Z M1.27594937,19.3155556 C0.820253165,19.3155556 0.364556962,19.7711111 0.410126582,20.2722222 C0.410126582,20.7277778 0.865822785,21.1833333 1.36708861,21.1377778 L4.55696203,21.1377778 C5.05822785,21.1377778 5.46835443,20.7277778 5.46835443,20.2266667 C5.46835443,19.7255556 5.01265823,19.3155556 4.55696203,19.3155556 L1.36708861,19.3155556 L1.27594937,19.3155556 L1.27594937,19.3155556 Z M18.2278481,19.3155556 C18.7291139,19.3155556 19.1392405,19.7255556 19.1392405,20.2266667 C19.1392405,20.7277778 18.7291139,21.1377778 18.2278481,21.1377778 C17.7265823,21.1377778 17.3164557,20.7277778 17.3164557,20.2266667 C17.3164557,19.68 17.7265823,19.3155556 18.2278481,19.3155556 L18.2278481,19.3155556 Z M31.8075949,19.3155556 C31.3518987,19.3155556 30.8962025,19.7711111 30.9417722,20.2722222 C30.9417722,20.7277778 31.3974684,21.1833333 31.8987342,21.1377778 L35.0886076,21.1377778 C35.5898734,21.1377778 36,20.7277778 36,20.2266667 C36,19.7255556 35.5443038,19.3155556 35.0886076,19.3155556 L31.8987342,19.3155556 L31.8075949,19.3155556 L31.8075949,19.3155556 Z M6.33417722,26.1033333 C6.19746835,26.1033333 6.06075949,26.1488889 5.92405063,26.24 L1.18481013,28.9733333 C0.774683544,29.2011111 0.637974684,29.7933333 0.865822785,30.2033333 C1.09367089,30.6133333 1.68607595,30.7955556 2.09620253,30.5222222 L6.83544304,27.7888889 C7.2,27.6066667 7.38227848,27.1055556 7.29113924,26.7411111 C7.15443038,26.3766667 6.7443038,26.1033333 6.33417722,26.1033333 L6.33417722,26.1033333 Z M29.9848101,26.1033333 C29.5746835,26.1033333 29.2101266,26.4222222 29.1189873,26.7866667 C29.0278481,27.1511111 29.2101266,27.6066667 29.5746835,27.7888889 L34.3139241,30.5222222 C34.7240506,30.75 35.3164557,30.6133333 35.5443038,30.2033333 C35.7721519,29.7933333 35.635443,29.2011111 35.2253165,28.9733333 L30.4860759,26.24 C30.3493671,26.1488889 30.1670886,26.1033333 29.9848101,26.1033333 L29.9848101,26.1033333 Z M14.5822785,33.8933333 L21.8734177,33.8933333 L21.8734177,37.5377778 C21.8734177,38.0388889 21.4632911,38.4488889 20.9620253,38.4488889 L15.4936709,38.4488889 C14.9924051,38.4488889 14.5822785,38.0388889 14.5822785,37.5377778 L14.5822785,33.8933333 L14.5822785,33.8933333 Z" id="Shape"></path>
                    </g>
                </g>
            </g>
        </g>
    </g>
</svg>