<?xml version="1.0" encoding="UTF-8" standalone="no"?>
<svg width="40px" height="36px" viewBox="0 0 40 36" version="1.1" xmlns="http://www.w3.org/2000/svg" xmlns:xlink="http://www.w3.org/1999/xlink">
    <!-- Generator: sketchtool 40.3 (33839) - http://www.bohemiancoding.com/sketch -->
    <title>E91067E4-BAF8-4C27-B387-F06516D7DD1F</title>
    <desc>Created with sketchtool.</desc>
    <defs></defs>
    <g id="main" stroke="none" stroke-width="1" fill="none" fill-rule="evenodd">
        <g transform="translate(-705.000000, -1825.000000)" id="1.16-icon#2" fill="#FFFFFF">
            <g transform="translate(705.000000, 1825.000000)">
                <g id="Слой_1">
                    <g id="Group" transform="translate(0.000000, 0.287019)">
                        <path d="M31.7272727,0.135 C31.5909091,0.135 31.5,0.18 31.3636364,0.27 L26.8181818,2.97 L26.8181818,2.97 C25.9545455,3.51 25.2272727,4.185 24.6818182,5.265 C24.2272727,6.165 23.8636364,7.38 23.4090909,9.18 C23.3636364,9.225 23.2727273,9.27 23.2272727,9.27 C22.0454545,9.945 20.9545455,10.665 19.9545455,11.43 C16.1818182,7.155 11.5454545,4.545 7.45454545,4.635 C6.27272727,4.68 5.13636364,4.905 4.09090909,5.445 C1.36363636,6.885 0.0454545455,9.945 0.0909090909,13.455 C0.0909090909,16.965 1.40909091,21.015 3.86363636,24.93 C6.36363636,28.845 9.59090909,31.86 12.9090909,33.615 C16.2272727,35.37 19.6818182,35.865 22.4090909,34.425 C25.1363636,32.985 26.4545455,29.925 26.4090909,26.415 C26.4090909,23.895 25.7272727,21.15 24.4545455,18.315 C25.5,17.865 26.5454545,17.325 27.5454545,16.74 C29.7272727,17.325 31.0454545,17.595 32.1818182,17.55 C33.3181818,17.505 34.1363636,17.1 35,16.605 L35,16.605 L39.5454545,13.905 C39.9545455,13.635 40.1363636,13.095 39.8636364,12.69 C39.7727273,12.555 39.6818182,12.42 39.5,12.375 L34.6818182,9.765 L32.6818182,6.57 L32.6818182,0.99 C32.6818182,0.495 32.2727273,0.09 31.7727273,0.09 C31.7727273,0.09 31.7727273,0.09 31.7272727,0.09 C31.7727273,0.135 31.7272727,0.135 31.7272727,0.135 L31.7272727,0.135 Z M30.9090909,2.655 L30.9090909,6.21 C29.2272727,6.66 27.4090909,7.2 25.5454545,8.055 C25.8181818,7.2 26.0454545,6.525 26.2727273,6.075 C26.6818182,5.31 27,4.995 27.7272727,4.545 L27.7272727,4.545 L30.9090909,2.655 L30.9090909,2.655 Z M7.40909091,6.48 C10.6363636,6.39 14.9090909,8.685 18.4545455,12.6 C17.4545455,13.41 16.5454545,14.265 15.7727273,15.12 C14.1363636,13.41 12.2727273,12.33 10.4545455,12.33 C9.86363636,12.33 9.27272727,12.465 8.72727273,12.735 C7.31818182,13.5 6.77272727,15.12 6.81818182,16.83 C6.86363636,18.54 7.54545455,20.52 8.72727273,22.41 C9.90909091,24.3 11.4090909,25.785 12.9545455,26.685 C14.5,27.585 16.1818182,27.945 17.5909091,27.18 C19,26.415 19.5454545,24.795 19.5,23.085 C19.4545455,22.185 19.2727273,21.195 18.9090909,20.16 C20.1363636,19.89 21.4090909,19.485 22.7272727,18.99 C23.9090909,21.6 24.5,24.21 24.5454545,26.415 C24.5454545,29.475 23.5,31.77 21.5,32.805 C19.5,33.84 16.6818182,33.57 13.6818182,31.995 C10.7272727,30.42 7.63636364,27.585 5.31818182,23.94 C3,20.295 1.81818182,16.515 1.81818182,13.41 C1.81818182,10.35 2.86363636,8.055 4.86363636,7.02 C5.63636364,6.705 6.45454545,6.48 7.40909091,6.48 L7.40909091,6.48 Z M31.4090909,7.965 L32.9090909,10.35 C31.2727273,12.015 29.3181818,13.635 26.8181818,15.12 C22.6363636,17.55 18.3181818,18.63 15.2272727,18.945 C16.7272727,16.425 19.8636364,13.275 24.0909091,10.845 C26.5909091,9.36 29.0909091,8.55 31.4090909,7.965 L31.4090909,7.965 Z M34.2727273,11.61 L37.2727273,13.23 L34.1363636,15.12 L34.1363636,15.12 C33.3636364,15.57 32.9545455,15.795 32.1818182,15.795 C31.6363636,15.795 30.8636364,15.705 29.7272727,15.435 C31.4545455,14.22 32.9545455,12.915 34.2727273,11.61 L34.2727273,11.61 Z M24.0909091,12.33 C23.3181818,12.33 22.7272727,12.915 22.7272727,13.68 C22.7272727,14.445 23.3181818,15.03 24.0909091,15.03 C24.8636364,15.03 25.4545455,14.445 25.4545455,13.68 C25.4545455,12.915 24.8636364,12.33 24.0909091,12.33 L24.0909091,12.33 Z M10.4090909,14.13 C11.4545455,14.13 13.0909091,15.03 14.5454545,16.515 C13.7272727,17.595 13.1363636,18.63 12.7727273,19.62 C12.5909091,20.07 12.8636364,20.61 13.3181818,20.79 C13.4090909,20.835 13.5454545,20.835 13.6363636,20.835 C14.6363636,20.835 15.8181818,20.745 17.1363636,20.52 C17.5,21.465 17.6818182,22.365 17.7272727,23.13 C17.7727273,24.435 17.4090909,25.245 16.7727273,25.605 C16.1363636,25.92 15.0909091,25.83 13.8636364,25.11 C12.6363636,24.39 11.3181818,23.085 10.2727273,21.42 C9.22727273,19.755 8.72727273,18.045 8.63636364,16.74 C8.59090909,15.435 8.95454545,14.625 9.59090909,14.265 C9.81818182,14.175 10.0909091,14.13 10.4090909,14.13 L10.4090909,14.13 Z" id="Shape"></path>
                    </g>
                </g>
            </g>
        </g>
    </g>
</svg>