<?xml version="1.0" encoding="UTF-8" standalone="no"?>
<svg width="472px" height="560px" viewBox="0 0 472 560" version="1.1" xmlns="http://www.w3.org/2000/svg" xmlns:xlink="http://www.w3.org/1999/xlink">
    <!-- Generator: sketchtool 40.3 (33839) - http://www.bohemiancoding.com/sketch -->
    <title>086A87DD-F4B5-46C8-B87A-34A7E145F086</title>
    <desc>Created with sketchtool.</desc>
    <defs>
        <rect id="path-1" x="0" y="0" width="560" height="560" rx="4"></rect>
    </defs>
    <g id="main" stroke="none" stroke-width="1" fill="none" fill-rule="evenodd">
        <g transform="translate(-1058.000000, -1799.000000)" id="1.14-illustration-product">
            <g transform="translate(970.000000, 1799.000000)">
                <mask id="mask-2" fill="white">
                    <use xlink:href="#path-1"></use>
                </mask>
                <g id="Mask"></g>
                <g id="06" mask="url(#mask-2)">
                    <g transform="translate(88.000000, -50.000000)" id="Слой_1">
                        <g>
                            <g id="Group" transform="translate(269.039953, 0.000000)">
                                <polygon id="Shape" fill="#F8B947" points="140.688367 491.157939 324.042303 491.157939 296.048649 645.190251 168.772033 645.190251"></polygon>
                                <path d="M378.859459,80.9749304 C296.588719,-1.25961003 163.371328,-1.25961003 81.1005875,80.9749304 C-1.17015276,163.209471 -1.17015276,296.548189 81.1005875,378.78273 C163.371328,461.01727 296.768743,461.01727 379.039483,378.78273 C461.1302,296.368245 461.1302,163.209471 378.859459,80.9749304 L378.859459,80.9749304 L378.859459,80.9749304 Z" id="Shape" fill="#56B363"></path>
                                <path d="M436.737015,189.031476 C447.988484,187.052089 456.629612,178.954596 459.509988,168.607799 C453.209166,160.150418 442.13772,155.381894 430.976263,157.361281 C419.724794,159.340669 411.083666,167.438162 408.20329,177.784958 C414.414101,186.332312 425.485546,191.010864 436.737015,189.031476 L436.737015,189.031476 Z M320.26181,39.5877437 C242.13161,2.33927577 145.729025,16.1949861 81.0105758,80.9749304 C16.2921269,145.754875 2.34030552,242.02507 39.6051704,320.120891 C117.915394,357.369359 214.227967,343.423677 278.856404,278.733705 C343.574853,214.133705 357.526675,117.773538 320.26181,39.5877437 L320.26181,39.5877437 L320.26181,39.5877437 Z" id="Shape" fill="#70BC7D"></path>
                                <path d="M23.2230317,270.54624 C34.4745006,268.566852 45.2759107,273.245404 51.7567568,281.792758 C48.6963572,292.049582 40.1452409,300.057103 28.9837838,302.216435 C17.7323149,304.195822 6.93090482,299.51727 0.450058754,290.969916 C3.51045828,280.62312 11.9715629,272.705571 23.2230317,270.54624" id="Shape" fill="#93CA9F"></path>
                                <path d="M59.8578143,256.060724 C71.1092832,254.081337 79.7504113,245.983844 82.6307873,235.637047 C76.3299647,227.179666 65.2585194,222.411142 54.0970623,224.390529 C42.8455934,226.369916 34.2044653,234.467409 31.3240893,244.814206 C37.6249119,253.181616 48.6963572,258.040111 59.8578143,256.060724" id="Shape" fill="#56B363"></path>
                                <path d="M30.6039953,161.679944 C41.3153937,165.458774 48.3363102,175.085794 49.7764982,185.702507 C42.0354877,192.900279 30.6039953,195.599443 19.9826087,191.820613 C9.27121034,188.041783 2.25029377,178.414763 0.810105758,167.79805 C8.37109283,160.600279 19.8925969,157.901114 30.6039953,161.679944 L30.6039953,161.679944 L30.6039953,161.679944 Z" id="Shape" fill="#56B363"></path>
                                <path d="M102.883431,187.951811 C113.59483,191.730641 120.615746,201.35766 122.055934,211.974373 C114.314924,219.172145 102.883431,221.871309 92.2620447,218.092479 C81.5506463,214.313649 74.5297297,204.68663 73.0895417,194.069916 C80.6505288,186.872145 92.2620447,183.993036 102.883431,187.951811" id="Shape" fill="#56B363"></path>
                                <path d="M69.3090482,167.528134 C80.0204465,171.306964 91.5419506,168.607799 99.1029377,161.410028 C97.6627497,150.883287 90.6418331,141.34624 79.9304348,137.387465 C69.2190364,133.608635 57.6975323,136.307799 50.1365452,143.505571 C51.5767333,154.122284 58.5976498,163.749304 69.3090482,167.528134" id="Shape" fill="#93CA9F"></path>
                                <path d="M319.181669,329.657939 C326.562632,338.295265 337.814101,341.804178 348.255464,339.37493 C352.396005,329.657939 350.955817,317.871588 343.754877,309.234262 C336.373913,300.596936 325.122444,297.088022 314.681081,299.51727 C310.270505,309.234262 311.800705,320.930641 319.181669,329.657939 L319.181669,329.657939 Z M122.055934,95.5504178 C129.436898,104.187744 140.688367,107.696657 151.12973,105.267409 C155.27027,95.5504178 153.830082,83.7640669 146.629142,75.1267409 C139.248179,66.489415 127.99671,62.9805014 117.555347,65.4097493 C113.414806,75.1267409 114.854994,87.0930362 122.055934,95.5504178 L122.055934,95.5504178 Z M140.86839,130.099721 C148.249354,138.737047 149.509518,150.523398 145.368978,160.24039 C135.107638,162.579666 123.676146,159.340669 116.295182,150.523398 C108.914219,141.886072 107.654054,130.099721 111.794595,120.38273 C122.055934,117.953482 133.487427,121.192479 140.86839,130.099721 L140.86839,130.099721 Z M368.688132,388.319777 C376.069095,396.957103 387.320564,400.466017 397.761927,398.036769 C401.902468,388.319777 400.46228,376.533426 393.26134,367.8961 C385.880376,359.258774 374.628907,355.749861 364.187544,358.179109 C360.047004,367.8961 361.307168,379.862396 368.688132,388.319777 L368.688132,388.319777 Z M91.3619271,71.1679666 C98.7428907,79.8052925 100.003055,91.5916435 95.8625147,101.308635 C85.6011751,103.647911 74.1696827,100.408914 66.7887192,91.5916435 C59.4077556,82.9543175 58.1475911,71.1679666 62.2881316,61.4509749 C72.7294947,59.2016713 84.0709753,62.5306407 91.3619271,71.1679666 L91.3619271,71.1679666 Z M390.560987,292.229526 C401.272385,296.008357 408.293302,305.635376 409.73349,316.252089 C401.992479,323.449861 390.560987,326.149025 379.9396,322.370195 C369.228202,318.591365 362.207286,308.964345 360.767098,298.347632 C368.328085,291.149861 379.9396,288.270752 390.560987,292.229526 L390.560987,292.229526 Z" id="Shape" fill="#93CA9F"></path>
                                <path d="M189.2047,23.1228412 C191.184959,34.3693593 186.504348,45.1660167 177.953231,51.6440111 C167.691892,48.5849582 159.680846,40.1275766 157.520564,28.8810585 C155.720329,17.6345404 160.220917,6.83788301 168.772033,0.359888579 C179.033373,3.4189415 187.13443,11.8763231 189.2047,23.1228412" id="Shape" fill="#93CA9F"></path>
                                <path d="M202.706463,98.789415 C204.686722,110.035933 200.00611,120.832591 191.454994,127.310585 C181.193655,124.251532 173.182609,115.704178 171.022327,104.547632 C169.042068,93.3011142 173.722679,82.5044568 182.273796,76.0264624 C192.625147,79.0855153 200.726204,87.6328691 202.706463,98.789415" id="Shape" fill="#93CA9F"></path>
                                <path d="M71.2893067,368.435933 C62.6481786,375.813649 59.1377203,387.060167 61.5680376,397.496936 C71.2893067,401.635655 83.0808461,400.1961 91.7219741,392.998329 C100.363102,385.620613 103.873561,374.374095 101.443243,363.937326 C91.7219741,359.798607 79.9304348,361.058217 71.2893067,368.435933" id="Shape" fill="#70BC7D"></path>
                            </g>
                            <g id="Group" transform="translate(232.135135, 207.835655)">
                                <polygon id="Shape" fill="#E0B074" points="36.7247944 249.222841 44.8258519 246.343733 37.7149236 243.914485"></polygon>
                                <polygon id="Shape" fill="#E1594D" points="83.4408931 200.637883 107.294007 165.27883 129.616921 187.681894 107.294007 215.123398"></polygon>
                                <path d="M191.094947,165.27883 L176.783079,165.27883 L176.783079,165.27883 C176.783079,177.87493 166.521739,188.131755 153.830082,188.131755 C141.228437,188.131755 130.967098,177.87493 130.967098,165.27883 L130.967098,165.27883 L111.344536,165.27883 L111.344536,165.27883 L111.344536,196.949025 L111.344536,217.192758 L111.344536,290.430084 L195.685546,290.430084 L195.685546,177.964903 L191.094947,165.27883 L191.094947,165.27883 L191.094947,165.27883 Z" id="Shape" fill="#E1594D"></path>
                                <path d="M191.094947,165.27883 L175.612926,165.27883 L175.612926,165.27883 C175.612926,179.314485 160.220917,188.221727 153.920094,188.221727 L153.650059,188.221727 L153.650059,290.520056 L195.775558,290.520056 L195.775558,175.445682 L191.094947,165.27883 L191.094947,165.27883 L191.094947,165.27883 Z" id="Shape" fill="#CB4C41"></path>
                                <path d="M149.959577,213.054039 C149.869565,210.17493 149.059459,207.745682 147.169213,205.676323 C144.288837,202.527298 139.788249,201.537604 135.73772,203.516992 C132.677321,205.13649 130.877086,207.745682 130.337015,211.254596 C129.796945,215.033426 130.877086,218.452368 133.937485,221.06156 C136.997885,223.670752 141.318449,224.120613 144.828907,221.961281 C148.249354,219.80195 149.869565,216.742897 149.959577,213.054039 L149.959577,213.054039 L149.959577,213.054039 Z M140.058284,196.679109 L140.238308,196.679109 C146.179083,196.769081 150.949706,199.198329 154.280141,204.056825 C155.810341,206.306128 156.620447,208.825348 156.80047,211.524513 C156.980494,214.043733 156.620447,216.562953 155.630317,218.902228 C154.640188,221.241504 153.2,223.400836 151.12973,225.020334 C150.499647,225.560167 150.499647,225.560167 151.12973,226.189972 C154.640188,229.069081 158.150646,230.868524 164.091422,229.968802 C164.271445,229.968802 164.361457,229.87883 164.541481,229.87883 C165.261575,229.698886 165.351586,229.788858 165.351586,230.508635 L165.351586,233.927577 C165.351586,234.467409 165.171563,234.737326 164.631492,234.827298 C156.620447,236.266852 150.589659,233.747632 144.828907,228.529248 C144.46886,228.259331 144.198825,228.169359 143.748766,228.349304 C141.228437,229.069081 138.708108,228.979109 136.187779,228.439276 C133.307403,227.809471 130.787074,226.459889 128.716804,224.480501 C126.826557,222.771031 125.476381,220.701671 124.576263,218.182451 C123.766157,215.933148 123.316099,213.683844 123.676146,211.43454 C123.856169,209.905014 124.216216,208.375487 124.756287,206.935933 C125.476381,204.776602 126.736545,202.887187 128.446769,201.35766 C130.787074,199.108357 133.577438,197.57883 136.817861,197.038997 C137.988014,196.859053 139.158167,196.679109 140.238308,196.499164 L140.058284,196.679109 L140.058284,196.679109 L140.058284,196.679109 Z" id="Shape" fill="#FFFFFF"></path>
                                <path d="M165.171563,207.20585 L165.171563,207.20585 L165.171563,210.084958 C165.171563,211.704457 165.171563,211.704457 166.881786,211.704457 C167.961927,211.704457 169.042068,211.614485 170.032197,211.164624 C171.652409,210.354875 172.73255,208.46546 172.552526,206.755989 C172.282491,204.68663 170.932315,203.157103 169.042068,202.797214 C168.051939,202.61727 167.06181,202.61727 165.981669,202.61727 C165.261575,202.527298 165.171563,202.61727 165.171563,203.427019 C165.171563,204.68663 165.171563,205.94624 165.171563,207.20585 L165.171563,207.20585 L165.171563,207.20585 Z M164.00141,197.398886 C165.981669,197.398886 167.961927,197.218942 169.942186,197.398886 C173.092597,197.758774 175.882961,199.018384 177.683196,201.807521 C179.303408,204.236769 179.483431,206.935933 178.853349,209.635097 C178.133255,212.424234 176.33302,214.133705 173.632667,215.21337 C173.182609,215.393315 173.27262,215.573259 173.452644,215.843175 C174.172738,216.742897 174.982844,217.642618 175.702938,218.54234 C177.413161,220.701671 179.123384,222.861003 180.923619,225.020334 C181.643713,225.920056 182.543831,226.729805 183.353937,227.719499 C183.53396,227.899443 183.53396,227.989415 183.623972,228.259331 C183.443948,228.349304 183.263925,228.439276 183.083901,228.439276 L175.702938,228.439276 C175.342891,228.439276 174.982844,228.259331 174.80282,227.899443 C172.102468,224.570474 169.762162,221.151532 167.781904,217.372702 C167.60188,217.102786 167.421857,216.742897 167.151821,216.652925 C166.611751,216.562953 165.981669,216.652925 165.441598,216.742897 C165.261575,216.742897 165.261575,217.28273 165.261575,217.462674 C165.261575,220.161838 165.351586,222.681058 165.351586,225.380223 C165.351586,226.1 165.351586,226.909749 165.441598,227.629526 C165.441598,228.169359 165.261575,228.439276 164.721504,228.439276 L158.960752,228.439276 C158.600705,228.439276 158.33067,228.439276 158.33067,227.899443 C158.780729,220.161838 158.510693,212.334262 158.510693,204.596657 C158.510693,202.437326 158.33067,200.367967 158.33067,198.208635 C158.33067,197.398886 158.420682,197.308914 159.230787,197.308914 C160.670975,197.398886 162.291187,197.398886 164.00141,197.398886 L164.00141,197.398886 L164.00141,197.398886 L164.00141,197.398886 Z" id="Shape" fill="#FFFFFF"></path>
                                <path d="M112.334665,165.27883 C112.244653,165.818663 112.154642,165.998607 112.154642,166.448468 C110.354407,187.052089 121.965922,205.766295 139.788249,213.95376 C139.608226,210.534819 139.608226,207.115877 139.878261,203.606964 C141.138425,188.671588 147.52926,175.895543 156.980494,165.368802 L112.334665,165.27883 L112.334665,165.27883 L112.334665,165.27883 Z" id="Shape" fill="#C24036"></path>
                                <path d="M119.085546,165.27883 C115.575088,184.712813 124.126204,203.427019 139.788249,213.683844 C140.058284,210.264903 140.598355,206.935933 141.408461,203.427019 C145.368978,187.142061 155.180259,174.276045 168.051939,165.27883 L119.085546,165.27883 L119.085546,165.27883 L119.085546,165.27883 Z" id="Shape" fill="#0498B7"></path>
                                <polygon id="Shape" fill="#1B2D45" points="137.087897 165.27883 171.292362 165.27883 171.292362 179.404457 137.087897 179.404457"></polygon>
                                <path d="M145.368978,150.253482 L145.368978,181.833705 L161.93114,181.833705 L161.93114,150.16351 C159.140776,150.523398 156.2604,150.703343 153.290012,150.703343 L153.290012,150.703343 C150.589659,150.793315 147.979318,150.61337 145.368978,150.253482 L145.368978,150.253482 L145.368978,150.253482 Z" id="Shape" fill="#E7A958"></path>
                                <path d="M176.243008,165.27883 L176.243008,165.27883 C176.243008,177.87493 165.981669,188.221727 153.290012,188.221727 C140.688367,188.221727 130.337015,177.964903 130.337015,165.27883 L130.337015,165.27883 L139.698237,165.27883 L139.698237,165.27883 C139.698237,172.656546 145.729025,178.774652 153.2,178.774652 C160.670975,178.774652 166.701763,172.746518 166.701763,165.27883 L166.701763,165.27883 L176.243008,165.27883 L176.243008,165.27883 L176.243008,165.27883 Z" id="Shape" fill="#FFFFFF"></path>
                                <path d="M133.577438,19.4339833 C116.025147,19.4339833 101.713278,33.7395543 101.713278,51.2841226 C101.713278,68.8286908 116.025147,83.1342618 133.577438,83.1342618 C141.138425,83.1342618 148.159342,80.4350975 153.650059,76.0264624 L153.650059,26.6317549 C148.159342,22.0431755 141.138425,19.4339833 133.577438,19.4339833 L133.577438,19.4339833 Z" id="Shape" fill="#2C6570"></path>
                                <path d="M191.815041,88.9824513 C200.00611,83.4941504 205.406816,74.2270195 205.406816,63.6103064 L205.406816,52.813649 L191.815041,53.9832869 L191.815041,88.9824513 L191.815041,88.9824513 Z" id="Shape" fill="#2C6570"></path>
                                <path d="M115.485076,88.9824513 C107.294007,83.4941504 101.893302,74.2270195 101.893302,63.6103064 L101.893302,52.813649 L115.485076,53.9832869 L115.485076,88.9824513 L115.485076,88.9824513 Z" id="Shape" fill="#2C6570"></path>
                                <path d="M173.722679,19.4339833 C191.274971,19.4339833 205.586839,33.7395543 205.586839,51.2841226 C205.586839,68.8286908 191.274971,83.1342618 173.722679,83.1342618 C166.161692,83.1342618 159.140776,80.4350975 153.650059,76.0264624 L153.650059,26.6317549 C159.050764,22.0431755 166.07168,19.4339833 173.722679,19.4339833 L173.722679,19.4339833 Z" id="Shape" fill="#2C6570"></path>
                                <path d="M197.125734,51.2841226 L197.125734,78.6356546 C201.986369,78.6356546 205.946886,82.594429 205.946886,87.4529248 C205.946886,92.3114206 201.986369,96.270195 197.125734,96.270195 L197.125734,107.336769 C197.125734,131.269359 177.503173,150.793315 153.650059,150.793315 C129.796945,150.793315 110.174383,131.179387 110.174383,107.336769 L110.174383,51.2841226 L153.650059,51.2841226 L197.125734,51.2841226 L197.125734,51.2841226 Z" id="Shape" fill="#E0B074"></path>
                                <path d="M153.650059,150.793315 C129.706933,150.793315 110.174383,131.179387 110.174383,107.336769 L110.174383,96.270195 C105.313749,96.270195 101.353231,92.3114206 101.353231,87.4529248 C101.353231,82.594429 105.313749,78.6356546 110.174383,78.6356546 L110.174383,51.2841226 L153.650059,51.2841226 L153.650059,150.793315 L153.650059,150.793315 Z" id="Shape" fill="#E4BB8F"></path>
                                <path d="M110.084371,96.270195 C105.223737,96.270195 101.26322,92.3114206 101.26322,87.4529248 C101.26322,82.594429 105.223737,78.6356546 110.084371,78.6356546 L110.084371,96.270195 L110.084371,96.270195 Z" id="Shape" fill="#E4BB8F"></path>
                                <path d="M173.722679,19.4339833 L153.650059,19.4339833 L153.650059,35.7189415 L201.53631,35.7189415 C196.045593,26.0019499 185.694242,19.4339833 173.722679,19.4339833 L173.722679,19.4339833 Z" id="Shape" fill="#2C6570"></path>
                                <path d="M197.125734,82.9543175 C199.646063,82.9543175 201.626322,84.9337047 201.626322,87.4529248 C201.626322,89.9721448 199.646063,91.951532 197.125734,91.951532 L197.125734,82.9543175 L197.125734,82.9543175 Z" id="Shape" fill="#B0784A"></path>
                                <path d="M114.674971,66.7593315 C114.674971,58.4818942 120.885781,51.7339833 128.626792,51.2841226 L128.626792,51.2841226 L131.687192,51.2841226 L164.451469,51.2841226 L164.451469,35.8089136 L124.126204,35.8089136 L124.126204,35.8089136 L108.374148,42.8267409 L106.033843,49.8445682 L114.674971,66.7593315 L114.674971,66.7593315 L114.674971,66.7593315 Z" id="Shape" fill="#2C6570"></path>
                                <path d="M110.084371,82.9543175 C107.564042,82.9543175 105.583784,84.9337047 105.583784,87.4529248 C105.583784,89.9721448 107.564042,91.951532 110.084371,91.951532 L110.084371,82.9543175 L110.084371,82.9543175 Z" id="Shape" fill="#B0784A"></path>
                                <path d="M130.337015,51.2841226 C144.288837,51.2841226 155.630317,39.9476323 155.630317,26.0019499 C155.630317,23.7526462 155.360282,21.5033426 154.7302,19.4339833 L142.218566,19.4339833 L142.218566,19.4339833 C136.997885,19.4339833 132.857344,15.2952646 132.857344,10.0768802 C132.857344,6.47799443 134.837603,3.4189415 137.717979,1.7994429 C135.377673,1.07966574 132.857344,0.629805014 130.247004,0.629805014 C116.295182,0.629805014 104.953702,11.9662953 104.953702,25.9119777 C104.953702,39.9476323 116.295182,51.2841226 130.337015,51.2841226 L130.337015,51.2841226 L130.337015,51.2841226 Z" id="Shape" fill="#1F3654"></path>
                                <path d="M154.910223,31.9401114 C155.360282,30.0506964 155.630317,28.0713092 155.630317,26.0019499 C155.630317,23.7526462 155.360282,21.5033426 154.7302,19.4339833 L142.218566,19.4339833 L142.218566,19.4339833 C136.997885,19.4339833 132.857344,15.2952646 132.857344,10.0768802 C132.857344,6.56796657 134.837603,3.4189415 137.717979,1.7994429 C131.057109,4.31866295 126.286486,10.7066852 126.286486,18.2643454 C126.286486,27.8913649 134.117509,35.8089136 143.838778,35.8089136 C148.06933,35.8089136 151.939835,34.3693593 154.910223,31.9401114 L154.910223,31.9401114 Z" id="Shape" fill="#2C6570"></path>
                                <polygon id="Shape" fill="#1F3654" points="175.342891 51.2841226 130.337015 51.2841226 130.337015 35.8089136 175.342891 35.8089136"></polygon>
                                <polygon id="Shape" fill="#2C6570" points="175.342891 19.4339833 143.92879 19.4339833 143.92879 35.8089136 175.342891 35.8089136"></polygon>
                                <path d="M108.554172,54.9729805 L114.674971,54.9729805 L114.674971,79.9852368 C113.414806,79.1754875 111.794595,78.7256267 110.174383,78.7256267 C109.634313,78.7256267 109.094242,78.8155989 108.554172,78.905571 L108.554172,54.9729805 L108.554172,54.9729805 L108.554172,54.9729805 Z" id="Shape" fill="#2C6570"></path>
                                <path d="M197.125734,46.1557103 L188.574618,46.1557103 L192.715159,63.0704735 L192.715159,66.6693593 L192.715159,80.2551532 C193.975323,79.1754875 195.595535,78.5456825 197.215746,78.5456825 L201.176263,55.6027855 L197.125734,46.1557103 L197.125734,46.1557103 Z" id="Shape" fill="#2C6570"></path>
                                <path d="M192.625147,66.7593315 C192.625147,58.4818942 186.414336,51.7339833 178.673325,51.2841226 L178.673325,51.2841226 L178.673325,40.1275766 L185.06416,42.8267409 L192.625147,51.3740947 L192.625147,66.7593315 L192.625147,66.7593315 L192.625147,66.7593315 Z" id="Shape" fill="#1F3654"></path>
                                <path d="M192.625147,51.2841226 L157.970623,51.2841226 L157.970623,35.8089136 L178.673325,35.8089136 L178.673325,35.8089136 C186.414336,36.1688022 192.625147,43.0066852 192.625147,51.2841226 L192.625147,51.2841226 Z" id="Shape" fill="#1F3654"></path>
                                <path d="M153.650059,90.2420613 C156.080376,90.2420613 158.060635,92.2214485 158.060635,94.6506964 C158.060635,95.1905292 157.970623,95.64039 157.880611,96.1802228 L149.59953,96.1802228 C149.419506,95.64039 149.419506,95.1905292 149.419506,94.6506964 C149.239483,92.2214485 151.219741,90.2420613 153.650059,90.2420613 L153.650059,90.2420613 L153.650059,90.2420613 Z" id="Shape" fill="#E1594D"></path>
                                <path d="M140.238308,61.0011142 C135.377673,58.2119777 127.726675,61.4509749 125.206345,65.85961" id="Shape" stroke="#B0784A" stroke-width="3.6"></path>
                                <path d="M134.117509,74.9467967 C130.697062,74.9467967 127.906698,77.645961 127.906698,81.1548747 C127.906698,84.5738162 130.607051,87.3629526 134.117509,87.3629526 C137.537955,87.3629526 140.32832,84.6637883 140.32832,81.1548747 C140.32832,77.7359331 137.537955,74.9467967 134.117509,74.9467967 L134.117509,74.9467967 Z" id="Shape" fill="#1F3654"></path>
                                <path d="M136.097767,79.1754875 C134.927615,79.1754875 134.117509,80.0752089 134.117509,81.1548747 C134.117509,82.3245125 135.017626,83.1342618 136.097767,83.1342618 C137.26792,83.1342618 138.078026,82.2345404 138.078026,81.1548747 C138.078026,80.0752089 137.26792,79.1754875 136.097767,79.1754875 L136.097767,79.1754875 Z" id="Shape" fill="#FFFFFF"></path>
                                <path d="M167.961927,78.8155989 L174.532785,78.8155989 C175.792949,78.8155989 176.87309,79.8952646 176.87309,81.1548747 L176.87309,81.1548747 C176.87309,82.4144847 175.792949,83.4941504 174.532785,83.4941504 L167.961927,83.4941504 C166.701763,83.4941504 165.621622,82.4144847 165.621622,81.1548747 L165.621622,81.1548747 C165.711633,79.8952646 166.701763,78.8155989 167.961927,78.8155989 L167.961927,78.8155989 Z" id="Shape" fill="#1F3654"></path>
                                <path d="M169.852174,71.7977716 C177.86322,71.1679666 182.183784,74.3169916 183.53396,79.535376" id="Shape" stroke="#B0784A" stroke-width="3.6"></path>
                                <path d="M198.835958,95.5504178 C198.295887,95.7303621 197.665805,95.7303621 197.125734,95.7303621 L197.125734,117.593593 C197.125734,141.616156 177.233137,161.320056 153.2,161.320056 C129.166863,161.320056 109.454289,141.616156 109.454289,117.593593 L109.454289,95.5504178 L198.835958,95.5504178 L198.835958,95.5504178 L198.835958,95.5504178 Z" id="Shape" fill="#2C6570"></path>
                                <path d="M183.803995,115.79415 C180.293537,129.110028 168.051939,139.096936 153.650059,139.096936 C139.248179,139.096936 127.096592,129.110028 123.496122,115.79415 C122.956052,113.814763 122.596005,111.655432 122.505993,109.586072 L122.505993,109.586072 C122.505993,105.087465 126.286486,101.308635 130.787074,101.308635 L130.787074,101.308635 L153.650059,101.308635 L176.513043,101.308635 L176.513043,101.308635 C181.013631,101.308635 184.794125,105.087465 184.794125,109.586072 L184.794125,109.586072 C184.614101,111.745404 184.254054,113.904735 183.803995,115.79415 L183.803995,115.79415 Z" id="Shape" fill="#1F3654"></path>
                                <path d="M123.586134,115.79415 C127.096592,129.110028 139.248179,139.096936 153.650059,139.096936 C142.93866,131.269359 142.758637,107.066852 153.650059,101.308635 L130.877086,101.308635 L130.877086,101.308635 C126.376498,101.308635 122.596005,105.087465 122.596005,109.586072 L122.596005,109.586072 C122.686016,111.745404 123.046063,113.904735 123.586134,115.79415 L123.586134,115.79415 Z" id="Shape" fill="#1B2D45"></path>
                                <path d="M153.650059,106.077159 L130.787074,106.077159 C128.806816,106.077159 127.276616,107.696657 127.276616,109.586072 L127.276616,109.586072 C127.276616,111.56546 128.896827,113.094986 130.787074,113.094986 L153.650059,113.094986 L176.513043,113.094986 C178.493302,113.094986 180.023502,111.475487 180.023502,109.586072 L180.023502,109.586072 C180.023502,107.606685 178.40329,106.077159 176.513043,106.077159 L153.650059,106.077159 L153.650059,106.077159 Z" id="Shape" fill="#FFFFFF"></path>
                                <ellipse id="Oval" fill="#E1594D" cx="153.650059" cy="128.750139" rx="11.1614571" ry="5.2183844"></ellipse>
                                <polygon id="Shape" fill="#2C6570" points="109.544301 62.9805014 114.674971 62.9805014 114.674971 109.945961 109.544301 109.945961"></polygon>
                                <path d="M112.6047,89.8821727 L114.584959,89.8821727 L114.584959,90.062117 C114.584959,93.3011142 117.105288,96.0002786 120.345711,96.1802228 L120.345711,98.3395543 L112.6047,98.3395543 L112.6047,89.8821727 L112.6047,89.8821727 L112.6047,89.8821727 Z" id="Shape" fill="#2C6570"></path>
                                <polygon id="Shape" fill="#2C6570" points="197.125734 63.1604457 192.625147 63.1604457 192.625147 110.125905 197.125734 110.125905"></polygon>
                                <path d="M194.605405,89.8821727 L192.625147,89.8821727 L192.625147,90.062117 C192.625147,93.3011142 190.104818,96.0002786 186.864395,96.1802228 L186.864395,98.3395543 L194.605405,98.3395543 L194.605405,89.8821727 L194.605405,89.8821727 L194.605405,89.8821727 Z" id="Shape" fill="#2C6570"></path>
                                <path d="M114.674971,80.0752089 C114.674971,88.3526462 120.885781,95.1005571 128.626792,95.5504178 L128.626792,95.5504178 L131.687192,95.5504178 L164.451469,95.5504178 L164.451469,99.7791086 L134.117509,99.2392758 L123.046063,100.858774 L113.054759,104.007799 L112.694712,98.4295265 L114.674971,80.0752089 L114.674971,80.0752089 Z" id="Shape" fill="#2C6570"></path>
                                <path d="M192.625147,80.0752089 C192.625147,88.3526462 186.414336,95.1005571 178.673325,95.5504178 L178.673325,95.5504178 L175.522914,95.5504178 L142.758637,95.5504178 L142.758637,99.7791086 L173.092597,99.2392758 L184.164042,100.858774 L194.155347,104.007799 L194.515394,98.4295265 L192.625147,80.0752089 L192.625147,80.0752089 Z" id="Shape" fill="#2C6570"></path>
                                <polygon id="Shape" fill="#CB4C41" points="214.948061 200.637883 191.094947 165.27883 173.452644 187.681894 195.775558 215.123398"></polygon>
                                <polygon id="Shape" fill="#FFFFFF" points="76.7800235 206.845961 81.8206816 199.558217 107.294007 215.123398 107.294007 216.922841 107.294007 225.470195"></polygon>
                                <polygon id="Shape" fill="#CB4C41" points="23.13302 143.415599 37.7149236 164.379109 21.8728555 175.445682 14.7619271 180.39415 0.0900117509 159.430641"></polygon>
                                <polygon id="Shape" fill="#FFD547" points="0.0900117509 142.245961 66.9687427 118.583287 133.847474 142.245961 133.847474 230.598607 66.9687427 254.171309 0.0900117509 230.598607"></polygon>
                                <polygon id="Shape" fill="#FDC30B" points="133.847474 142.245961 66.9687427 165.908635 66.9687427 254.171309 133.847474 230.598607"></polygon>
                                <polygon id="Shape" fill="#FFE56B" points="0.0900117509 142.245961 66.9687427 165.908635 133.847474 142.245961 66.9687427 118.583287"></polygon>
                                <path d="M44.9158637,188.671588 L44.9158637,193.350139 C43.3856639,192.810306 41.8554642,192.270474 40.4152761,191.730641 L40.4152761,210.354875 L40.4152761,211.614485 C40.1452409,211.43454 39.7851939,211.43454 39.5151586,211.254596 C38.7950646,211.074652 38.1649824,210.714763 37.4448884,210.534819 C37.1748531,210.354875 36.8148061,210.354875 36.5447709,210.17493 L36.5447709,208.91532 L36.5447709,190.291086 C35.0145711,189.751253 33.4843713,189.211421 32.0441833,188.671588 L32.0441833,183.993036 C36.3647474,185.702507 40.5952996,187.232033 44.9158637,188.671588 L44.9158637,188.671588 L44.9158637,188.671588 Z M9.63125734,163.929248 C9.63125734,165.818663 10.6213866,167.618106 11.9715629,168.067967 C13.3217391,168.607799 14.3118684,167.438162 14.3118684,165.638719 C14.3118684,163.749304 13.3217391,161.859889 11.9715629,161.410028 C10.7113984,160.960167 9.63125734,162.039833 9.63125734,163.929248 L9.63125734,163.929248 L9.63125734,163.929248 Z M14.4918919,169.777437 C15.4820212,171.306964 16.6521739,172.296657 18.0023502,172.476602 L18.0023502,173.826184 C18.0023502,174.006128 17.8223267,174.006128 17.7323149,174.006128 C16.6521739,173.916156 15.6620447,173.376323 14.6719154,172.38663 C14.1318449,171.846797 13.6817861,171.127019 13.1417156,170.497214 C12.9616921,170.31727 12.8716804,170.227298 12.7816686,170.227298 C11.1614571,170.047354 9.81128085,168.967688 8.82115159,166.988301 C7.83102233,165.008914 7.65099882,163.119499 8.28108108,161.5 C9.00117509,159.880501 10.1713278,159.340669 11.7915394,159.790529 C13.5017626,160.330362 15.0319624,162.129805 15.5720329,164.289136 C16.2021152,166.53844 15.7520564,168.607799 14.4018801,169.687465 C14.5819036,169.687465 14.5819036,169.687465 14.4918919,169.777437 L14.4918919,169.777437 L14.4918919,169.777437 Z M37.7149236,173.556267 C38.3450059,173.826184 38.9750881,174.0961 39.3351351,173.466295 C39.5151586,173.016435 39.5151586,172.296657 39.2451234,171.756825 C38.9750881,171.127019 38.3450059,170.677159 37.6249119,170.677159 C37.7149236,171.57688 37.7149236,172.476602 37.7149236,173.556267 L37.7149236,173.556267 Z M37.7149236,178.774652 C37.1748531,178.594708 36.6347826,178.414763 36.0947121,178.234819 L36.0947121,168.427855 L36.1847239,168.427855 C37.1748531,168.787744 38.1649824,169.05766 39.1551116,169.597493 C40.5952996,170.31727 41.4054054,172.206685 41.1353702,173.916156 C40.9553467,174.90585 40.5052879,175.265738 39.7851939,175.445682 C40.6853114,177.065181 41.4054054,178.68468 42.3055229,180.39415 C42.1254994,180.304178 41.7654524,180.214206 41.5854289,180.214206 C40.6853114,180.034262 39.9652174,179.314485 39.6051704,178.144847 C39.4251469,177.42507 38.9750881,176.61532 38.7050529,175.895543 C38.5250294,175.35571 38.3450059,175.265738 37.9849589,175.265738 C37.7149236,176.255432 37.7149236,177.515042 37.7149236,178.774652 L37.7149236,178.774652 L37.7149236,178.774652 Z M33.9344301,177.515042 C33.3943596,177.335097 32.7642773,177.155153 32.2242068,176.885237 C32.0441833,176.885237 32.0441833,176.705292 31.9541716,176.525348 C31.4141011,175.535655 30.9640423,174.545961 30.33396,173.466295 L30.33396,176.255432 C29.7938895,176.075487 29.3438308,175.895543 28.7137485,175.715599 L28.7137485,166.358496 C28.533725,166.268524 28.4437133,166.178552 28.173678,166.178552 C28.2636898,165.908635 28.3537015,165.638719 28.4437133,165.368802 C28.4437133,165.27883 28.6237368,165.188858 28.6237368,165.188858 C29.1638073,165.368802 29.613866,165.548747 30.2439483,165.728691 L30.2439483,172.296657 C30.2439483,172.38663 30.33396,172.476602 30.4239718,172.476602 C30.4239718,172.38663 30.5139835,172.296657 30.6039953,172.206685 C30.9640423,171.666852 31.4141011,171.037047 31.7741481,170.497214 C31.8641598,170.31727 31.9541716,170.31727 32.0441833,170.31727 C32.4942421,170.497214 32.9443008,170.587187 33.3943596,170.767131 C33.3043478,170.947075 33.2143361,170.947075 33.2143361,171.037047 C32.7642773,171.666852 32.3142186,172.296657 31.8641598,172.926462 C31.6841363,173.106407 31.6841363,173.376323 31.8641598,173.736212 C32.5842538,174.725905 33.3043478,176.075487 33.9344301,177.515042 L33.9344301,177.515042 L33.9344301,177.515042 Z M19.9826087,165.908635 C20.5226792,166.088579 20.972738,166.268524 21.5128085,166.448468 L21.5128085,173.106407 C21.1527615,172.926462 20.7027027,172.926462 20.2526439,172.566574 C20.0726204,172.476602 20.0726204,172.026741 19.8925969,171.846797 C19.8925969,171.846797 19.8025852,171.846797 19.8025852,171.936769 C19.2625147,172.476602 18.5424207,172.38663 17.8223267,171.846797 C17.1022327,171.306964 16.7421857,170.497214 16.6521739,169.507521 C16.5621622,168.517827 16.5621622,167.528134 16.5621622,166.53844 L16.5621622,165.908635 C16.3821387,165.728691 16.2921269,165.728691 16.0220917,165.638719 C16.1121034,165.368802 16.2021152,165.098886 16.2921269,164.828969 C16.2921269,164.738997 16.4721504,164.649025 16.4721504,164.649025 C17.0122209,164.828969 17.4622797,165.008914 18.0023502,165.188858 L18.0023502,165.728691 L18.0023502,168.967688 C18.0023502,169.867409 18.3623972,170.587187 18.9024677,170.677159 C19.4425382,170.857103 19.8025852,170.497214 19.8025852,169.507521 C19.9826087,168.427855 19.9826087,167.168245 19.9826087,165.908635 L19.9826087,165.908635 Z M56.5273796,183.813092 C57.2474736,184.083008 57.7875441,183.543175 57.7875441,182.553482 C57.7875441,181.563788 57.2474736,180.574095 56.5273796,180.39415 C55.8072855,180.214206 55.267215,180.664067 55.267215,181.65376 C55.3572268,182.553482 55.8072855,183.543175 56.5273796,183.813092 L56.5273796,183.813092 Z M59.3177438,183.003343 C59.3177438,184.892758 58.0575793,186.062396 56.6173913,185.522563 C55.0871915,184.98273 53.9170388,183.093315 53.9170388,181.113928 C53.9170388,179.13454 55.1772033,178.054875 56.6173913,178.594708 C58.0575793,179.13454 59.3177438,181.113928 59.3177438,183.003343 L59.3177438,183.003343 Z M44.9158637,176.975209 C44.8258519,176.345404 44.5558167,175.805571 44.1057579,175.715599 C43.6556992,175.535655 43.2956522,175.895543 43.2056404,176.435376 C43.8357227,176.525348 44.3757932,176.795265 44.9158637,176.975209 L44.9158637,176.975209 Z M43.2056404,177.784958 C43.3856639,179.224513 44.2857814,179.94429 45.9059929,179.94429 L45.9059929,181.293872 C45.9059929,181.383844 45.8159812,181.473816 45.7259694,181.473816 C44.9158637,181.473816 44.1057579,181.293872 43.3856639,180.754039 C42.1254994,179.764345 41.4054054,177.87493 41.6754407,176.255432 C41.8554642,174.635933 42.9356052,173.916156 44.2857814,174.366017 C45.5459459,174.90585 46.626087,176.975209 46.5360752,178.594708 C46.5360752,178.864624 46.3560517,178.864624 46.26604,178.774652 C45.3659224,178.414763 44.5558167,178.144847 43.6556992,177.87493 C43.4756757,177.87493 43.3856639,177.87493 43.2056404,177.784958 L43.2056404,177.784958 L43.2056404,177.784958 Z M51.0366627,178.414763 C50.7666275,178.234819 50.4965922,178.234819 50.3165687,178.144847 L50.3165687,176.525348 C50.4965922,176.61532 50.7666275,176.705292 50.946651,176.705292 L50.946651,174.995822 C51.4867215,175.175766 51.9367803,175.35571 52.4768508,175.535655 L52.4768508,177.245125 C52.8368978,177.42507 53.1969448,177.515042 53.5569918,177.605014 C53.7370153,177.694986 53.827027,177.784958 53.827027,178.144847 L53.827027,179.404457 C53.2869565,179.224513 52.9269095,179.13454 52.5668625,178.864624 L52.5668625,181.563788 C52.5668625,182.103621 52.9269095,182.46351 53.2869565,182.553482 C53.46698,182.553482 53.46698,182.643454 53.6470035,182.643454 L53.6470035,183.993036 C53.6470035,184.083008 53.46698,184.172981 53.46698,184.172981 C53.2869565,184.172981 52.9269095,184.083008 52.746886,183.993036 C51.7567568,183.633148 51.1266745,182.643454 51.0366627,181.2039 C50.946651,180.39415 51.0366627,179.584401 51.0366627,178.864624 C51.0366627,178.864624 51.0366627,178.68468 51.0366627,178.414763 L51.0366627,178.414763 Z M46.626087,179.94429 C47.0761457,180.304178 47.4361927,180.664067 47.8862515,181.023955 C48.066275,181.2039 48.1562867,181.2039 48.2462985,181.2039 C48.426322,181.2039 48.5163337,181.023955 48.6063455,181.023955 C48.6063455,180.844011 48.5163337,180.574095 48.426322,180.484123 C48.1562867,180.124234 47.8862515,179.764345 47.5262045,179.404457 C46.986134,178.774652 46.626087,178.144847 46.7160987,177.245125 C46.7160987,176.345404 47.0761457,175.715599 47.7962397,175.715599 C48.426322,175.715599 49.0564042,175.985515 49.7764982,176.525348 C49.86651,176.61532 49.9565217,176.705292 49.9565217,176.885237 L49.9565217,178.324791 C49.86651,178.144847 49.7764982,178.144847 49.7764982,178.144847 C49.4164512,177.964903 49.0564042,177.605014 48.786369,177.42507 C48.6063455,177.335097 48.426322,177.515042 48.426322,177.605014 C48.426322,177.694986 48.5163337,178.144847 48.6063455,178.234819 C48.786369,178.594708 49.146416,178.864624 49.4164512,179.13454 C49.7764982,179.674373 50.1365452,180.124234 50.226557,180.754039 C50.4065805,182.013649 50.0465335,182.91337 49.146416,182.91337 C48.3363102,182.91337 47.5262045,182.373538 46.8061105,181.743733 C46.7160987,181.113928 46.7160987,180.39415 46.626087,179.94429 L46.626087,179.94429 L46.626087,179.94429 Z M28.2636898,173.286351 L28.2636898,175.265738 C27.6336075,175.265738 27.0035253,175.085794 26.373443,174.725905 C25.1132785,173.826184 24.3031727,172.026741 24.3931845,170.407242 C24.4831962,168.787744 25.4733255,167.79805 26.73349,168.067967 C27.1835488,168.247911 27.6336075,168.427855 27.9936545,168.607799 C28.0836663,168.697772 28.173678,168.787744 28.173678,168.967688 L28.173678,170.677159 C27.6336075,170.137326 27.2735605,169.687465 26.73349,169.777437 C26.5534665,169.867409 26.1934195,169.957382 26.013396,170.227298 C25.653349,170.767131 25.7433608,171.756825 26.1934195,172.476602 C26.6434783,173.466295 27.3635723,173.736212 28.2636898,173.286351 L28.2636898,173.286351 L28.2636898,173.286351 Z M23.9431257,173.916156 C23.4030552,173.736212 22.9529965,173.556267 22.412926,173.376323 L22.412926,167.888022 C22.2329025,167.79805 22.1428907,167.708078 21.8728555,167.708078 C21.9628672,167.438162 22.052879,167.168245 22.1428907,166.808357 C22.1428907,166.718384 22.3229142,166.628412 22.3229142,166.718384 C22.8629847,166.898329 23.3130435,167.078273 23.9431257,167.258217 L23.9431257,173.916156 L23.9431257,173.916156 Z M23.9431257,165.188858 C23.9431257,165.818663 23.5830787,166.178552 23.13302,166.088579 C22.6829612,165.908635 22.3229142,165.27883 22.3229142,164.738997 C22.3229142,164.109192 22.6829612,163.749304 23.13302,163.839276 C23.5830787,163.929248 23.9431257,164.559053 23.9431257,165.188858 L23.9431257,165.188858 L23.9431257,165.188858 Z M59.3177438,176.255432 L59.3177438,176.61532 C59.4977673,176.705292 59.5877791,176.795265 59.8578143,176.795265 L59.8578143,178.414763 C60.0378378,178.414763 60.0378378,178.504735 60.2178613,178.594708 L60.2178613,176.975209 C60.3978848,177.065181 60.4878966,177.155153 60.6679201,177.155153 L60.6679201,176.795265 C60.1278496,176.525348 59.7678026,176.435376 59.3177438,176.255432 L59.3177438,176.255432 Z M61.5680376,178.594708 C61.3880141,178.054875 61.3880141,177.42507 61.2980024,176.885237 C61.1179788,176.795265 61.0279671,176.705292 60.7579318,176.705292 L60.7579318,178.68468 C60.9379553,178.68468 60.9379553,178.774652 61.0279671,178.864624 L61.0279671,177.515042 L61.0279671,177.335097 L61.0279671,177.155153 C61.1179788,177.784958 61.2079906,178.414763 61.2980024,178.954596 C61.4780259,178.954596 61.4780259,179.044568 61.5680376,179.13454 C61.6580494,178.594708 61.7480611,178.054875 61.8380729,177.515042 L61.8380729,177.694986 L61.8380729,177.87493 L61.8380729,179.224513 C61.9280846,179.224513 62.0180964,179.314485 62.1081081,179.404457 L62.1081081,177.42507 C61.9280846,177.335097 61.8380729,177.245125 61.6580494,177.245125 C61.7480611,177.605014 61.6580494,178.144847 61.5680376,178.594708 L61.5680376,178.594708 L61.5680376,178.594708 Z M7.74101058,194.519777 C8.64112808,195.149582 9.63125734,195.779387 10.5313749,196.31922 C11.1614571,196.679109 11.6115159,196.859053 11.9715629,197.038997 C12.7816686,197.308914 13.3217391,197.308914 13.8618096,197.038997 C14.3118684,196.769081 14.4918919,196.229248 14.4918919,195.509471 C14.4918919,194.429805 13.9518214,193.170195 12.9616921,191.910585 C12.2415981,191.010864 11.7015276,190.381058 11.3414806,189.931198 C10.0813161,188.311699 9.09118684,187.052089 8.64112808,186.152368 C8.01104583,184.892758 7.74101058,183.453203 7.74101058,181.923677 C7.74101058,179.764345 8.28108108,178.324791 9.36122209,177.605014 C10.4413631,176.885237 11.9715629,176.795265 13.8618096,177.42507 C15.3019976,177.964903 16.6521739,178.68468 18.0023502,179.764345 L18.0023502,184.262953 C16.7421857,183.363231 15.1219741,182.283565 13.7717979,181.923677 C12.4216216,181.563788 11.3414806,182.283565 12.7816686,184.622841 C13.3217391,185.432591 14.0418331,186.422284 15.0319624,187.681894 C16.2021152,189.121448 17.0122209,190.381058 17.5522914,191.460724 C18.4524089,193.170195 18.8124559,195.05961 18.8124559,197.038997 C18.8124559,199.198329 18.2723854,200.817827 17.1022327,201.627577 C15.9320799,202.527298 14.4018801,202.527298 12.3316099,201.807521 C10.7113984,201.267688 9.27121034,200.367967 7.83102233,199.288301 C7.83102233,197.758774 7.83102233,196.229248 7.74101058,194.519777 L7.74101058,194.519777 L7.74101058,194.519777 Z M20.1626322,179.94429 C23.6730905,181.2039 27.1835488,182.46351 30.6940071,183.72312 L30.6940071,188.221727 C28.4437133,187.411978 26.2834313,186.602228 24.0331375,185.882451 L24.0331375,190.740947 C25.653349,191.370752 27.453584,192.000557 29.1638073,192.54039 L29.1638073,197.038997 C27.5435958,196.409192 25.7433608,195.779387 24.0331375,195.239554 L24.0331375,201.177716 C26.373443,201.987465 28.6237368,202.797214 31.0540541,203.606964 L31.0540541,208.105571 C27.453584,206.845961 23.7631022,205.586351 20.1626322,204.326741 L20.1626322,192.090529 L20.1626322,179.94429 L20.1626322,179.94429 L20.1626322,179.94429 Z" id="Shape" fill="#FFFFFF"></path>
                                <path d="M25.7433608,220.971588 C29.0737955,222.231198 28.8037603,222.141226 32.1341951,223.310864 C33.6643948,223.850696 35.0145711,224.930362 35.9146886,226.369916 C36.8148061,227.719499 37.3548766,229.338997 37.5349001,230.778552 L39.3351351,245.533983 C39.5151586,247.06351 38.7050529,248.233148 37.7149236,248.772981 C36.7247944,249.402786 35.3746181,249.492758 33.9344301,248.952925 C30.6039953,247.693315 27.2735605,246.523677 23.9431257,245.354039 C20.8827262,244.364345 18.0023502,241.21532 18.5424207,237.976323 L20.3426557,224.480501 C20.5226792,222.950975 20.972738,221.781337 21.9628672,221.241504 C22.8629847,220.611699 24.3031727,220.521727 25.7433608,220.971588 L25.7433608,220.971588 L25.7433608,220.971588 Z" id="Shape" fill="#E0B074"></path>
                                <polygon id="Shape" fill="#839FA6" points="149.59953 315.262396 149.59953 421.15961 137.357932 421.15961 120.255699 290.340111 153.650059 290.340111 153.650059 315.262396"></polygon>
                                <polygon id="Shape" fill="#638691" points="157.520564 315.262396 157.520564 421.15961 170.482256 420.979666 183.443948 315.262396 187.044418 290.340111 153.650059 290.340111 153.650059 315.262396"></polygon>
                                <path d="M130.967098,244.184401 C130.06698,244.274373 129.346886,244.54429 128.896827,245.084123 C128.266745,245.8039 128.176733,246.883565 127.99671,247.783287 L126.376498,256.420613 L126.376498,256.600557 L126.286486,256.960446 L126.286486,256.960446 C126.286486,257.680223 126.46651,258.489972 127.00658,258.939833 C127.546651,259.479666 128.086722,259.839554 128.716804,259.839554 L150.949706,266.677437 L150.949706,266.677437 L150.949706,266.677437 C154.100118,267.307242 157.610576,265.867688 158.33067,262.988579 L161.841128,250.84234 C162.021152,250.302507 161.93114,249.762674 161.841128,249.222841 L153.740071,246.703621 L134.927615,244.634262 C134.207521,244.54429 131.777203,244.094429 130.967098,244.184401 L130.967098,244.184401 Z" id="Shape" fill="#EEC281"></path>
                                <path d="M161.841128,251.652089 C163.371328,247.06351 159.950881,244.99415 156.710458,243.104735 L145.458989,236.446797 C144.018801,235.547075 142.128555,236.086908 141.318449,237.526462 L141.318449,237.526462 C140.418331,238.966017 140.958402,240.855432 142.39859,241.665181 L154.550176,248.862953 L161.841128,251.652089 L161.841128,251.652089 Z" id="Shape" fill="#EEC281"></path>
                                <ellipse id="Oval" fill="#E1594D" cx="153.109988" cy="127.670474" rx="11.7915394" ry="5.48830084"></ellipse>
                                <polygon id="Shape" fill="#EEC281" points="199.105993 211.884401 210.087427 205.046518 212.427732 209.005292 214.768038 212.874095 217.018331 216.562953 218.99859 220.251811 220.888837 223.850696 222.59906 227.449582 224.12926 230.868524 225.479436 234.197493 226.559577 237.526462 227.549706 240.675487 228.179788 243.824513 228.539835 246.973538 228.719859 250.032591 228.359812 253.091643 227.639718 256.060724 226.469565 258.939833 224.759342 261.638997 222.59906 263.978273 220.078731 265.867688 217.108343 267.487187 213.86792 268.656825 210.537485 269.466574 206.756992 270.096379 202.706463 270.366295 198.385899 270.366295 193.705288 270.096379 188.66463 269.646518 183.263925 268.926741 177.323149 267.937047 171.112338 266.587465 164.361457 265.057939 157.160517 263.258496 160.40094 250.752368 167.331845 252.461838 173.812691 253.991365 179.753467 255.250975 185.244183 256.060724 190.19483 256.780501 194.695417 257.230362 198.745946 257.410306 202.346416 257.410306 205.406816 257.230362 208.017156 256.870474 210.177438 256.330641 211.79765 255.700836 213.057814 254.981058 213.86792 254.351253 214.588014 253.721448 214.948061 253.001671 215.308108 252.10195 215.668155 251.022284 215.668155 249.672702 215.668155 247.963231 215.39812 245.983844 214.948061 243.824513 214.227967 241.395265 213.32785 238.6961 212.157697 235.906964 210.897532 232.847911 209.277321 229.698886 207.567098 226.369916 205.676851 222.950975 203.696592 219.442061 201.446298 215.753203"></polygon>
                            </g>
                            <path d="M0.264864865,156.911421 C7.28578143,155.921727 13.226557,149.083844 14.2166863,142.965738 C15.2068155,149.263788 21.2376028,155.921727 28.1685076,156.911421 C21.1475911,157.901114 15.2068155,164.738997 14.2166863,170.857103 C13.226557,164.649025 7.19576968,157.901114 0.264864865,156.911421 L0.264864865,156.911421 Z" id="Shape" fill="#D7EAF4"></path>
                            <path d="M220.613631,211.43454 C226.374383,210.894708 231.415041,206.755989 232.225147,202.977159 C233.035253,206.755989 237.985899,210.804735 243.836663,211.43454 C238.075911,211.974373 233.035253,216.113092 232.225147,219.891922 C231.415041,216.02312 226.374383,211.974373 220.613631,211.43454 L220.613631,211.43454 Z" id="Shape" fill="#D7EAF4"></path>
                            <path d="M187.12926,324.079666 C191.2698,323.539833 194.87027,319.401114 195.410341,315.622284 C195.950411,319.401114 199.550881,323.449861 203.691422,324.079666 C199.550881,324.619499 195.950411,328.758217 195.410341,332.537047 C194.87027,328.758217 191.2698,324.709471 187.12926,324.079666 L187.12926,324.079666 Z" id="Shape" fill="#D7EAF4"></path>
                            <path d="M194.780259,529.3961 C198.650764,528.856267 201.981199,524.987465 202.521269,521.568524 C203.06134,525.077437 206.391774,528.856267 210.26228,529.3961 C206.391774,529.935933 203.06134,533.804735 202.521269,537.223677 C201.981199,533.714763 198.650764,529.935933 194.780259,529.3961 L194.780259,529.3961 Z" id="Shape" fill="#D7EAF4"></path>
                        </g>
                    </g>
                </g>
            </g>
        </g>
    </g>
</svg>