<?xml version="1.0" encoding="UTF-8" standalone="no"?>
<svg width="160px" height="160px" viewBox="0 0 160 160" version="1.1" xmlns="http://www.w3.org/2000/svg" xmlns:xlink="http://www.w3.org/1999/xlink">
    <!-- Generator: sketchtool 40.3 (33839) - http://www.bohemiancoding.com/sketch -->
    <title>061E015D-3526-4FB6-877A-27CD9E80797B</title>
    <desc>Created with sketchtool.</desc>
    <defs></defs>
    <g id="main" stroke="none" stroke-width="1" fill="none" fill-rule="evenodd">
        <g transform="translate(-1025.000000, -1259.000000)" id="1.12-illustration-slider#1">
            <g transform="translate(1025.000000, 1259.000000)">
                <g id="Page-1">
                    <path d="M79.5475862,0 L79.5475862,0.0661643836 C79.4924138,0.0661643836 79.4262069,0.0661643836 79.3710345,0.0551369863 C74.8358621,0.165410959 71.2717241,4.20143836 71.2717241,8.83294521 C71.2717241,13.4754795 74.8468966,17.3019863 79.4041379,17.6438356 C79.4482759,17.6438356 79.5034483,17.654863 79.5475862,17.654863 L79.5475862,17.6989726 L79.4041379,17.6989726 C75.0344828,17.6989726 70.72,13.6960274 70.72,8.87705479 C70.72,4.14630137 74.857931,0.0551369863 79.1393103,0.0551369863 L79.2386207,0.0551369863 C79.337931,0.0551369863 79.4482759,0 79.5475862,0" id="Fill-1" fill="#F34B43"></path>
                    <path d="M147.961379,121.676301 C147.961379,121.698356 148.104828,121.709384 148.104828,121.731438 C148.005517,121.896849 147.895172,122.06226 147.784828,122.227671 C147.553103,122.547466 147.321379,122.845205 147.067586,123.12089 C146.935172,123.264247 146.802759,123.396575 146.670345,123.528904 C146.537931,123.67226 146.405517,123.804589 146.262069,123.903836 C144.849655,125.116849 143.117241,125.811575 141.274483,125.921849 C141.12,125.943904 140.965517,125.943904 140.811034,125.943904 C140.612414,125.943904 140.424828,125.932877 140.226207,125.921849 C138.857931,125.83363 137.511724,125.414589 136.253793,124.642671 C135.911724,124.433151 135.591724,124.212603 135.293793,123.97 C134.984828,123.727397 134.708966,123.46274 134.444138,123.187055 C134.256552,122.988562 134.08,122.779041 133.903448,122.569521 C133.737931,122.348973 133.583448,122.139452 133.451034,121.907877 C133.307586,121.687329 133.175172,121.455753 133.053793,121.213151 C131.784828,118.676849 131.873103,115.534041 133.362759,112.865411 C133.373793,112.843356 133.616552,112.832329 133.616552,112.810274 L133.616552,112.799247 C133.616552,112.7 133.506207,112.611781 133.561379,112.512534 C139.542069,102.753288 142.322759,91.5494521 142.322759,80.0368493 C142.322759,45.829863 115.2,17.8423288 80.1544828,17.6989726 L80.0993103,17.6989726 C79.9117241,17.6989726 79.7241379,17.6658904 79.5475862,17.654863 C79.5034483,17.654863 79.4482759,17.6438356 79.4041379,17.6438356 C74.8468966,17.3019863 71.2717241,13.4754795 71.2717241,8.83294521 C71.2717241,4.20143836 74.8358621,0.165410959 79.3710345,0.0551369863 C79.4262069,0.0661643836 79.4924138,0.0661643836 79.5475862,0.0661643836 C79.5696552,0.0661643836 79.6027586,0.0551369863 79.6248276,0.0551369863 L79.9337931,0.0551369863 C124.987586,0.0551369863 159.702069,36.0265068 159.702069,80.0258219 C159.702069,94.7694521 155.685517,109.138151 147.961379,121.665274 L147.961379,121.676301 Z" id="Fill-3" fill="#F34B43"></path>
                    <path d="M79.5475862,0.0551369863 L79.6248276,0.0551369863 C79.6027586,0.0551369863 79.5696552,0.0661643836 79.5475862,0.0661643836 L79.5475862,0.0551369863 Z" id="Fill-5" fill="#F34B43"></path>
                    <path d="M140.226207,125.921849 C138.835862,125.844658 137.489655,125.436644 136.209655,124.642671 C135.867586,124.433151 135.569655,124.212603 135.271724,123.97 C134.962759,123.727397 134.697931,123.46274 134.433103,123.187055 C134.245517,122.988562 134.068966,122.779041 133.903448,122.569521 C134.08,122.779041 134.256552,122.988562 134.444138,123.187055 C134.708966,123.46274 134.984828,123.727397 135.293793,123.97 C135.591724,124.212603 135.911724,124.433151 136.253793,124.642671 C137.511724,125.414589 138.857931,125.83363 140.226207,125.921849" id="Fill-7" fill="#F34B43"></path>
                    <path d="M79.5475862,0.0661643836 C79.4924138,0.0661643836 79.4262069,0.0661643836 79.3710345,0.0551369863 L79.6248276,0.0551369863 C79.6027586,0.0551369863 79.5696552,0.0661643836 79.5475862,0.0661643836" id="Fill-9" fill="#FCB853"></path>
                    <path d="M148.248276,121.731438 C133.561379,145.705 108.104828,160.007534 80.0110345,160.007534 C35.862069,160.007534 0,124.146438 0,80.0258219 C0,36.225 35.4317241,0.0551369863 79.1393103,0.0551369863 L79.3710345,0.0551369863 C74.8358621,0.165410959 71.2717241,4.20143836 71.2717241,8.83294521 C71.2717241,13.4754795 74.8468966,17.3019863 79.4041379,17.6438356 C79.4482759,17.6438356 79.5034483,17.654863 79.5475862,17.654863 C79.7241379,17.6658904 79.9117241,17.6989726 80.0993103,17.6989726 L79.4041379,17.6989726 C45.3075862,17.9305479 17.6993103,45.8629452 17.6993103,80.0258219 C17.6993103,114.409247 45.6937931,142.374726 80.0993103,142.374726 C101.870345,142.374726 121.655172,131.347329 133.142069,112.865411 C131.663448,115.534041 131.707586,118.665822 133.053793,121.213151 C133.164138,121.455753 133.296552,121.687329 133.451034,121.907877 C133.583448,122.139452 133.737931,122.348973 133.903448,122.569521 C134.08,122.779041 134.256552,122.988562 134.444138,123.187055 C134.708966,123.46274 134.984828,123.727397 135.293793,123.97 C135.591724,124.212603 135.911724,124.433151 136.253793,124.642671 C137.511724,125.414589 138.857931,125.83363 140.226207,125.921849 C140.424828,125.932877 140.612414,125.943904 140.811034,125.943904 C140.965517,125.943904 141.12,125.943904 141.274483,125.921849 C143.13931,125.83363 144.86069,125.138904 146.262069,123.903836 C146.405517,123.804589 146.537931,123.67226 146.670345,123.528904 C146.813793,123.407603 146.946207,123.275274 147.067586,123.12089 C147.321379,122.845205 147.564138,122.547466 147.784828,122.227671 C147.895172,122.06226 148.005517,121.896849 148.104828,121.731438 C148.104828,121.709384 147.961379,121.698356 147.961379,121.676301 L147.961379,121.665274 L148.248276,121.731438 Z" id="Fill-11" fill="#FCB853"></path>
                </g>
                <g id="Group" transform="translate(48.000000, 58.000000)" fill="#000000">
                    <path d="M15.1074219,14.6152344 C15.1074219,15.6087289 14.9228534,16.5156209 14.5537109,17.3359375 C14.1845685,18.1562541 13.6445348,18.8535128 12.9335938,19.4277344 C12.2135381,20.001956 11.3681689,20.4417302 10.3974609,20.7470703 C9.42675296,21.0524104 8.2441476,21.2050781 6.84960938,21.2050781 C5.26366395,21.2050781 3.90332599,21.072918 2.76855469,20.8085938 C1.63378339,20.5442695 0.710941055,20.2480485 0,19.9199219 L0,15.5039062 L0.4921875,15.5039062 C1.23958707,15.977867 2.11685694,16.3880191 3.12402344,16.734375 C4.13118993,17.0807309 5.04947502,17.2539062 5.87890625,17.2539062 C6.37109621,17.2539062 6.90657263,17.2106124 7.48535156,17.1240234 C8.0641305,17.0374345 8.54947721,16.8483087 8.94140625,16.5566406 C9.25130363,16.3287749 9.49967354,16.0485043 9.68652344,15.7158203 C9.87337333,15.3831364 9.96679688,14.9114614 9.96679688,14.3007812 C9.96679688,13.6992157 9.83463674,13.2366553 9.5703125,12.9130859 C9.30598826,12.5895166 8.95508031,12.3548184 8.51757812,12.2089844 C8.08007594,12.0540357 7.55599264,11.967448 6.9453125,11.9492187 C6.33463236,11.9309895 5.79687732,11.921875 5.33203125,11.921875 L4.45703125,11.921875 L4.45703125,8.33984375 L5.26367188,8.33984375 C5.88346664,8.33984375 6.4531224,8.31250027 6.97265625,8.2578125 C7.4921901,8.20312473 7.93424297,8.09375082 8.29882812,7.9296875 C8.66341328,7.75650955 8.94824116,7.51497551 9.15332031,7.20507812 C9.35839946,6.89518074 9.4609375,6.4759141 9.4609375,5.94726562 C9.4609375,5.53710732 9.36523533,5.20214974 9.17382812,4.94238281 C8.98242092,4.68261589 8.74544412,4.47981844 8.46289062,4.33398438 C8.13476398,4.16992105 7.75195531,4.06054715 7.31445312,4.00585938 C6.87695094,3.9511716 6.50325676,3.92382813 6.19335938,3.92382813 C5.69205479,3.92382813 5.18164322,3.98307232 4.66210938,4.1015625 C4.14257553,4.22005268 3.63672121,4.3704418 3.14453125,4.55273438 C2.76171684,4.69856844 2.36067918,4.88769415 1.94140625,5.12011719 C1.52213332,5.35254022 1.21224059,5.5279942 1.01171875,5.64648438 L0.587890625,5.64648438 L0.587890625,1.28515625 C1.28971705,0.984373496 2.23534562,0.694988369 3.42480469,0.416992188 C4.61426376,0.138996006 5.82876984,0 7.06835938,0 C8.28060502,0 9.33105024,0.10481666 10.2197266,0.314453125 C11.1084029,0.52408959 11.8671844,0.829425078 12.4960938,1.23046875 C13.1888055,1.65885631 13.7083316,2.20344722 14.0546875,2.86425781 C14.4010434,3.52506841 14.5742188,4.27017814 14.5742188,5.09960938 C14.5742188,6.25716725 14.2392612,7.2711545 13.5693359,8.14160156 C12.8994107,9.01204862 12.0175836,9.57486852 10.9238281,9.83007812 L10.9238281,10.0214844 C11.4069035,10.0944014 11.8785784,10.2174471 12.3388672,10.390625 C12.7991559,10.5638029 13.2480447,10.8463522 13.6855469,11.2382812 C14.0957052,11.5937518 14.43522,12.051755 14.7041016,12.6123047 C14.9729831,13.1728544 15.1074219,13.8404909 15.1074219,14.6152344 L15.1074219,14.6152344 Z M33.6738281,16.0371094 L30.9257812,16.0371094 L30.9257812,20.8359375 L25.9902344,20.8359375 L25.9902344,16.0371094 L17.0351562,16.0371094 L17.0351562,12.2363281 L25.8261719,0.423828125 L30.9257812,0.423828125 L30.9257812,12.3730469 L33.6738281,12.3730469 L33.6738281,16.0371094 Z M25.9902344,12.3730469 L25.9902344,5.44140625 L20.8359375,12.3730469 L25.9902344,12.3730469 Z M47.5644531,6.6171875 C47.5644531,8.87761547 47.0608774,10.5569607 46.0537109,11.6552734 C45.0465444,12.7535862 43.5859471,13.3027344 41.671875,13.3027344 C39.7031152,13.3027344 38.2174529,12.7558648 37.2148438,11.6621094 C36.2122346,10.5683539 35.7109375,8.90495908 35.7109375,6.671875 C35.7109375,4.43879092 36.2213491,2.77311747 37.2421875,1.67480469 C38.2630259,0.576491904 39.7395737,0.02734375 41.671875,0.02734375 C43.6406348,0.02734375 45.114904,0.576491904 46.0947266,1.67480469 C47.0745492,2.77311747 47.5644531,4.42056193 47.5644531,6.6171875 L47.5644531,6.6171875 Z M58.1464844,0.423828125 L47.4824219,20.78125 L43.8730469,20.78125 L54.5371094,0.423828125 L58.1464844,0.423828125 Z M66.3222656,14.5195312 C66.3222656,16.7799592 65.8186899,18.4593044 64.8115234,19.5576172 C63.8043569,20.65593 62.3437596,21.2050781 60.4296875,21.2050781 C58.4609277,21.2050781 56.9752654,20.6582086 55.9726562,19.5644531 C54.9700471,18.4706977 54.46875,16.8073028 54.46875,14.5742188 C54.46875,12.3411347 54.9791616,10.6754612 56,9.57714844 C57.0208384,8.47883565 58.4973862,7.9296875 60.4296875,7.9296875 C62.3984473,7.9296875 63.8727165,8.47883565 64.8525391,9.57714844 C65.8323617,10.6754612 66.3222656,12.3229057 66.3222656,14.5195312 L66.3222656,14.5195312 Z M43.6679688,6.65820312 C43.6679688,6.0839815 43.6429039,5.5598982 43.5927734,5.0859375 C43.542643,4.6119768 43.4446622,4.21549639 43.2988281,3.89648438 C43.1529941,3.57747236 42.947918,3.33821694 42.6835938,3.17871094 C42.4192695,3.01920493 42.0820333,2.93945313 41.671875,2.93945313 C41.2343728,2.93945313 40.8925794,3.01920493 40.6464844,3.17871094 C40.4003894,3.33821694 40.1998706,3.58202961 40.0449219,3.91015625 C39.9082024,4.20182437 39.8125003,4.59830479 39.7578125,5.09960938 C39.7031247,5.60091396 39.6757812,6.12499727 39.6757812,6.671875 C39.6757812,7.34635754 39.6940102,7.88183396 39.7304688,8.27832031 C39.7669273,8.67480667 39.8671867,9.05533672 40.03125,9.41992188 C40.1679694,9.73893389 40.3707669,9.98274655 40.6396484,10.1513672 C40.90853,10.3199878 41.2526021,10.4042969 41.671875,10.4042969 C42.0820333,10.4042969 42.4192695,10.3222664 42.6835938,10.1582031 C42.947918,9.9941398 43.1529941,9.74804852 43.2988281,9.41992188 C43.4264329,9.12825375 43.5198565,8.75455957 43.5791016,8.29882812 C43.6383467,7.84309668 43.6679688,7.29622715 43.6679688,6.65820312 L43.6679688,6.65820312 Z M62.4257812,14.5605469 C62.4257812,13.9863253 62.4007164,13.462242 62.3505859,12.9882812 C62.3004555,12.5143205 62.2024747,12.1178401 62.0566406,11.7988281 C61.9108066,11.4798161 61.7057305,11.2405607 61.4414062,11.0810547 C61.177082,10.9215487 60.8398458,10.8417969 60.4296875,10.8417969 C59.9921853,10.8417969 59.6503919,10.9215487 59.4042969,11.0810547 C59.1582019,11.2405607 58.9576831,11.4843734 58.8027344,11.8125 C58.6660149,12.1041681 58.5703128,12.5006485 58.515625,13.0019531 C58.4609372,13.5032577 58.4335938,14.027341 58.4335938,14.5742188 C58.4335938,15.2487013 58.4518227,15.7841777 58.4882812,16.1806641 C58.5247398,16.5771504 58.6249992,16.9576805 58.7890625,17.3222656 C58.9257819,17.6412776 59.1285794,17.8850903 59.3974609,18.0537109 C59.6663425,18.2223316 60.0104146,18.3066406 60.4296875,18.3066406 C60.8398458,18.3066406 61.177082,18.2246102 61.4414062,18.0605469 C61.7057305,17.8964836 61.9108066,17.6503923 62.0566406,17.3222656 C62.1842454,17.0305975 62.277669,16.6569033 62.3369141,16.2011719 C62.3961592,15.7454404 62.4257812,15.1985709 62.4257812,14.5605469 L62.4257812,14.5605469 Z" id="34%"></path>
                    <path d="M8.26171875,34.9462891 C8.26171875,35.5146513 8.16064554,36.0522436 7.95849609,36.559082 C7.75634665,37.0659205 7.47656429,37.4980451 7.11914062,37.8554688 C6.66796649,38.3007835 6.13769836,38.6376942 5.52832031,38.8662109 C4.91894227,39.0947277 4.14844216,39.2089844 3.21679688,39.2089844 L1.74023438,39.2089844 L1.74023438,44.0869141 L0,44.0869141 L0,31 L3.28710938,31 C4.06055074,31 4.71972384,31.0644525 5.26464844,31.1933594 C5.80957304,31.3222663 6.29003698,31.530272 6.70605469,31.8173828 C7.19238524,32.1513689 7.57324081,32.5747045 7.84863281,33.0874023 C8.12402481,33.6001002 8.26171875,34.2197229 8.26171875,34.9462891 L8.26171875,34.9462891 Z M6.45117188,34.9902344 C6.45117188,34.5390602 6.37353593,34.146486 6.21826172,33.8125 C6.0629875,33.478514 5.82715002,33.2060557 5.51074219,32.9951172 C5.23535019,32.8134757 4.91455261,32.6845707 4.54833984,32.6083984 C4.18212708,32.5322262 3.72656522,32.4941406 3.18164062,32.4941406 L1.74023438,32.4941406 L1.74023438,37.7236328 L2.92675781,37.7236328 C3.62988633,37.7236328 4.19824002,37.6665045 4.63183594,37.5522461 C5.06543186,37.4379877 5.42577981,37.2343765 5.71289062,36.9414062 C5.97070441,36.6777331 6.15820254,36.3906266 6.27539062,36.0800781 C6.39257871,35.7695297 6.45117188,35.4062521 6.45117188,34.9902344 L6.45117188,34.9902344 Z M17.8681641,39.1826172 C17.8681641,40.8349692 17.4697305,42.1108353 16.6728516,43.0102539 C15.8759726,43.9096725 14.8154363,44.359375 13.4912109,44.359375 C12.1259697,44.359375 11.05225,43.8950242 10.2700195,42.9663086 C9.48778906,42.037593 9.09667969,40.7763752 9.09667969,39.1826172 C9.09667969,37.541984 9.49950769,36.2675827 10.3051758,35.359375 C11.1108439,34.4511673 12.172845,33.9970703 13.4912109,33.9970703 C14.8154363,33.9970703 15.8759726,34.4497025 16.6728516,35.3549805 C17.4697305,36.2602584 17.8681641,37.5361246 17.8681641,39.1826172 L17.8681641,39.1826172 Z M16.1630859,39.1826172 C16.1630859,37.9111265 15.9316429,36.9663117 15.46875,36.3481445 C15.0058571,35.7299774 14.346684,35.4208984 13.4912109,35.4208984 C12.6298785,35.4208984 11.9663109,35.7299774 11.5004883,36.3481445 C11.0346656,36.9663117 10.8017578,37.9111265 10.8017578,39.1826172 C10.8017578,40.4130921 11.0346656,41.3461882 11.5004883,41.9819336 C11.9663109,42.617679 12.6298785,42.9355469 13.4912109,42.9355469 C14.3408246,42.9355469 14.9985328,42.6235383 15.4643555,41.9995117 C15.9301781,41.3754852 16.1630859,40.4365297 16.1630859,39.1826172 L16.1630859,39.1826172 Z M23.4667969,44.3066406 C22.7929654,44.3066406 22.1748075,44.2026378 21.6123047,43.9946289 C21.0498019,43.7866201 20.5664083,43.4716818 20.1621094,43.0498047 C19.7578105,42.6279276 19.4443371,42.0961946 19.2216797,41.4545898 C18.9990223,40.8129851 18.8876953,40.0585981 18.8876953,39.1914062 C18.8876953,38.3300738 19.0034168,37.5859406 19.2348633,36.9589844 C19.4663098,36.3320281 19.7753887,35.8046896 20.1621094,35.3769531 C20.5488301,34.9492166 21.0307588,34.6196301 21.6079102,34.3881836 C22.1850615,34.1567371 22.8046842,34.0410156 23.4667969,34.0410156 C24.0058621,34.0410156 24.5258764,34.1171867 25.0268555,34.2695312 C25.5278345,34.4218758 25.9746074,34.5976553 26.3671875,34.796875 L26.3671875,36.6513672 L26.2705078,36.6513672 C26.1533197,36.5517573 26.0024423,36.4375006 25.8178711,36.3085938 C25.6332999,36.1796869 25.409181,36.0478522 25.1455078,35.9130859 C24.916991,35.7958979 24.6474625,35.6933598 24.3369141,35.6054688 C24.0263656,35.5175777 23.7275405,35.4736328 23.4404297,35.4736328 C22.5849567,35.4736328 21.8979518,35.79736 21.3793945,36.4448242 C20.8608373,37.0922884 20.6015625,38.0078066 20.6015625,39.1914062 C20.6015625,40.3515683 20.8520483,41.2553679 21.3530273,41.902832 C21.8540064,42.5502962 22.5498002,42.8740234 23.4404297,42.8740234 C23.9794949,42.8740234 24.4921851,42.7626964 24.9785156,42.5400391 C25.4648462,42.3173817 25.8955059,42.0302752 26.2705078,41.6787109 L26.3671875,41.6787109 L26.3671875,43.5332031 C26.2031242,43.6093754 25.9980481,43.7016596 25.7519531,43.8100586 C25.5058581,43.9184576 25.2832041,43.9990232 25.0839844,44.0517578 C24.802733,44.1337895 24.5507824,44.1967771 24.328125,44.2407227 C24.1054676,44.2846682 23.8183611,44.3066406 23.4667969,44.3066406 L23.4667969,44.3066406 Z M31.7724609,44.3066406 C31.0986294,44.3066406 30.4804716,44.2026378 29.9179688,43.9946289 C29.3554659,43.7866201 28.8720723,43.4716818 28.4677734,43.0498047 C28.0634745,42.6279276 27.7500011,42.0961946 27.5273438,41.4545898 C27.3046864,40.8129851 27.1933594,40.0585981 27.1933594,39.1914062 C27.1933594,38.3300738 27.3090809,37.5859406 27.5405273,36.9589844 C27.7719738,36.3320281 28.0810528,35.8046896 28.4677734,35.3769531 C28.8544941,34.9492166 29.3364229,34.6196301 29.9135742,34.3881836 C30.4907255,34.1567371 31.1103483,34.0410156 31.7724609,34.0410156 C32.3115261,34.0410156 32.8315405,34.1171867 33.3325195,34.2695312 C33.8334986,34.4218758 34.2802715,34.5976553 34.6728516,34.796875 L34.6728516,36.6513672 L34.5761719,36.6513672 C34.4589838,36.5517573 34.3081064,36.4375006 34.1235352,36.3085938 C33.9389639,36.1796869 33.7148451,36.0478522 33.4511719,35.9130859 C33.2226551,35.7958979 32.9531266,35.6933598 32.6425781,35.6054688 C32.3320297,35.5175777 32.0332046,35.4736328 31.7460938,35.4736328 C30.8906207,35.4736328 30.2036159,35.79736 29.6850586,36.4448242 C29.1665013,37.0922884 28.9072266,38.0078066 28.9072266,39.1914062 C28.9072266,40.3515683 29.1577123,41.2553679 29.6586914,41.902832 C30.1596705,42.5502962 30.8554643,42.8740234 31.7460938,42.8740234 C32.2851589,42.8740234 32.7978491,42.7626964 33.2841797,42.5400391 C33.7705102,42.3173817 34.20117,42.0302752 34.5761719,41.6787109 L34.6728516,41.6787109 L34.6728516,43.5332031 C34.5087882,43.6093754 34.3037122,43.7016596 34.0576172,43.8100586 C33.8115222,43.9184576 33.5888682,43.9990232 33.3896484,44.0517578 C33.108397,44.1337895 32.8564464,44.1967771 32.6337891,44.2407227 C32.4111317,44.2846682 32.1240252,44.3066406 31.7724609,44.3066406 L31.7724609,44.3066406 Z M43.9277344,44.0869141 L42.2929688,44.0869141 L42.2929688,36.765625 L37.6699219,44.0869141 L36.1757812,44.0869141 L36.1757812,34.2695312 L37.8105469,34.2695312 L37.8105469,41.4765625 L42.3808594,34.2695312 L43.9277344,34.2695312 L43.9277344,44.0869141 Z M53.4287109,44.0869141 L51.7763672,44.0869141 L51.7763672,40.1933594 L50.1416016,40.1933594 L47.2324219,44.0869141 L45.3076172,44.0869141 L48.4628906,40.0439453 C47.6484334,39.8037097 47.052248,39.4462914 46.6743164,38.9716797 C46.2963848,38.4970679 46.1074219,37.8613321 46.1074219,37.0644531 C46.1074219,36.5781226 46.2143544,36.1518573 46.4282227,35.7856445 C46.6420909,35.4194318 46.9306622,35.1103528 47.2939453,34.8583984 C47.5869155,34.6591787 47.9560525,34.511231 48.4013672,34.4145508 C48.8466819,34.3178706 49.3447238,34.2695312 49.8955078,34.2695312 L53.4287109,34.2695312 L53.4287109,44.0869141 Z M51.7763672,38.8925781 L51.7763672,35.5878906 L49.9833984,35.5878906 C49.6025372,35.5878906 49.3022472,35.6083982 49.0825195,35.6494141 C48.8627919,35.6904299 48.6503917,35.7695307 48.4453125,35.8867188 C48.2343739,36.0156256 48.0747076,36.1899403 47.9663086,36.409668 C47.8579096,36.6293956 47.8037109,36.8652331 47.8037109,37.1171875 C47.8037109,37.4394547 47.8403317,37.7016591 47.9135742,37.9038086 C47.9868168,38.105958 48.1201162,38.2919913 48.3134766,38.4619141 C48.5185557,38.6376962 48.7690415,38.7534177 49.0649414,38.809082 C49.3608413,38.8647464 49.6845686,38.8925781 50.0361328,38.8925781 L51.7763672,38.8925781 Z M63.5712891,44.0869141 L61.9189453,44.0869141 L61.9189453,39.6660156 L57.4716797,39.6660156 L57.4716797,44.0869141 L55.8193359,44.0869141 L55.8193359,34.2695312 L57.4716797,34.2695312 L57.4716797,38.2421875 L61.9189453,38.2421875 L61.9189453,34.2695312 L63.5712891,34.2695312 L63.5712891,44.0869141 Z" id="Россиян"></path>
                </g>
            </g>
        </g>
    </g>
</svg>