<?xml version="1.0" encoding="UTF-8" standalone="no"?>
<svg width="114px" height="104px" viewBox="0 0 114 104" version="1.1" xmlns="http://www.w3.org/2000/svg" xmlns:xlink="http://www.w3.org/1999/xlink">
    <!-- Generator: sketchtool 40.3 (33839) - http://www.bohemiancoding.com/sketch -->
    <title>2F9EFBCE-621B-4A4F-AD3F-D3F0B67278E8</title>
    <desc>Created with sketchtool.</desc>
    <defs></defs>
    <g id="main" stroke="none" stroke-width="1" fill="none" fill-rule="evenodd">
        <g transform="translate(-1338.000000, -1233.000000)" id="1.11-illustration#4">
            <g transform="translate(1338.000000, 1233.000000)">
                <g id="_x31_">
                    <path d="M57.0761693,103.873479 C79.2414254,103.873479 97.2935412,101.899757 97.2935412,99.4452555 C97.2935412,97.0160584 79.2160356,95.0170316 57.0761693,95.0170316 C34.9109131,95.0170316 16.8587973,96.9907543 16.8587973,99.4452555 C16.8587973,101.899757 34.9109131,103.873479 57.0761693,103.873479 L57.0761693,103.873479 Z" id="Shape" fill="#EDEDED"></path>
                    <ellipse id="Oval" fill="#B1DDE9" cx="55.6797327" cy="59.236983" rx="41.3091314" ry="41.1698297"></ellipse>
                    <path d="M88.2293987,35.1980535 L41.4868597,35.1980535 C39.074833,35.1980535 37.1198218,33.249635 37.1198218,30.8457421 L37.1198218,30.8457421 C37.1198218,28.4418491 39.074833,26.4934307 41.4868597,26.4934307 L88.2293987,26.4934307 C90.6414254,26.4934307 92.5964365,28.4418491 92.5964365,30.8457421 L92.5964365,30.8457421 C92.5964365,33.249635 90.6414254,35.1980535 88.2293987,35.1980535 L88.2293987,35.1980535 Z" id="Shape" fill="#D9EEF4"></path>
                    <path d="M41.9438753,43.5484185 L18.2298441,43.5484185 C17.2142539,43.5484185 16.376392,42.713382 16.376392,41.7012165 L16.376392,41.7012165 C16.376392,40.6890511 17.2142539,39.8540146 18.2298441,39.8540146 L41.9438753,39.8540146 C42.9594655,39.8540146 43.7973274,40.6890511 43.7973274,41.7012165 L43.7973274,41.7012165 C43.7973274,42.713382 42.9594655,43.5484185 41.9438753,43.5484185 L41.9438753,43.5484185 Z" id="Shape" fill="#D9EEF4"></path>
                    <path d="M86.0712695,97.6992701 L58.3710468,97.6992701 C57.6347439,97.6992701 57.0507795,97.1172749 57.0507795,96.383455 L57.0507795,96.383455 C57.0507795,95.649635 57.6347439,95.0676399 58.3710468,95.0676399 L86.0712695,95.0676399 C86.8075724,95.0676399 87.3915367,95.649635 87.3915367,96.383455 L87.3915367,96.383455 C87.3915367,97.0919708 86.8075724,97.6992701 86.0712695,97.6992701 L86.0712695,97.6992701 Z" id="Shape" fill="#D9EEF4"></path>
                    <path d="M18.2298441,40.3094891 C19.8547884,43.9026764 22.6730512,46.4836983 25.7959911,48.3055961 C30.3153675,50.9625304 35.3933185,51.9493917 38.3893096,51.9493917 L38.3893096,56.3776156 C34.8347439,56.3776156 28.8427617,55.2136253 23.5616927,52.1265207 C19.7278396,49.8997567 16.2494432,46.6608273 14.1928731,42.1313869 L18.2298441,40.3094891 L18.2298441,40.3094891 Z" id="Shape"></path>
                    <path d="M100.111804,42.1313869 C98.0552339,46.6608273 94.5768374,49.8997567 90.7429844,52.1265207 C85.4619154,55.2136253 79.4699332,56.3776156 75.9153675,56.3776156 L75.9153675,51.9493917 C78.9113586,51.9493917 83.9639198,50.9372263 88.508686,48.3055961 C91.6316258,46.4836983 94.4498886,43.8773723 96.074833,40.3094891 L100.111804,42.1313869 L100.111804,42.1313869 Z" id="Shape" fill="#EFC27F"></path>
                    <path d="M16.274833,62.7036496 C19.067706,64.5761557 22.4191537,65.5377129 25.7452116,65.9678832 C30.7469933,66.6257908 35.6979955,66.0690998 38.7955457,65.4871046 L39.6080178,69.8394161 C36.2057906,70.4720195 30.7469933,71.0793187 25.186637,70.3454988 C21.2512249,69.8394161 17.2396437,68.6501217 13.8120267,66.3727494 L16.274833,62.7036496 L16.274833,62.7036496 Z" id="Shape" fill="#E8A955"></path>
                    <path d="M45.2445434,70.750365 L39.7857461,71.7119221 L39.7857461,71.686618 C37.0944321,72.1673966 33.057461,72.5722628 28.7412027,72.3951338 C25.389755,72.2686131 21.8605791,71.7878345 18.6106904,70.7756691 L21.0481069,63.0326034 C23.5870824,63.8423358 26.3799555,64.1965937 29.0458797,64.3231144 C32.7781737,64.4749392 36.2057906,64.1206813 38.4654788,63.7158151 L38.4654788,63.7411192 L45.2445434,62.5518248 L47.0979955,65.7654501 L45.2445434,70.750365 L45.2445434,70.750365 Z" id="Shape" fill="#CC4538"></path>
                    <rect id="Rectangle-path" fill="#5E838F" x="45.2445434" y="75.4822384" width="11.8824053" height="5.56690998"></rect>
                    <rect id="Rectangle-path" fill="#7F9DA6" x="57.1523385" y="75.4822384" width="11.8824053" height="5.56690998"></rect>
                    <path d="M47.0979955,81.0491484 C46.2347439,81.0491484 45.4222717,81.0491484 44.6351893,81.0744526 C43.9496659,81.0997567 43.2641425,81.1250608 42.5278396,81.1756691 C39.6334076,81.3781022 37.932294,82.1878345 37.3229399,83.1240876 C37.2467706,83.2506083 37.1959911,83.3518248 37.1959911,83.4024331 C37.1959911,83.4277372 37.2213808,83.5036496 37.2975501,83.579562 C37.8815145,84.313382 39.4302895,84.8194647 42.0454343,84.692944 C42.1977728,84.692944 42.4262806,84.6676399 42.7563474,84.6423358 C42.8579065,84.6423358 43.111804,84.6170316 43.4926503,84.5917275 C47.5804009,84.2880779 52.7853007,83.4783455 57.5839644,82.3902676 C61.9256125,81.4287105 65.8864143,80.2647202 68.3746102,79.0754258 L70.7612472,84.0603406 C67.8922049,85.426764 63.4997773,86.7425791 58.8026726,87.7800487 C53.6993318,88.9187348 48.189755,89.7790754 43.8988864,90.1080292 C43.7719376,90.1080292 43.4926503,90.1333333 43.0610245,90.1586375 C42.8832962,90.1586375 42.6040089,90.1839416 42.2739421,90.2092457 C37.6783964,90.4116788 34.5300668,89.0199513 32.9305122,87.0209246 C32.0926503,86.0087591 31.6610245,84.8194647 31.610245,83.6048662 C31.5594655,82.4155718 31.8895323,81.2009732 32.6004454,80.1128954 C34.0476615,77.8608273 37.2467706,75.963017 42.0962138,75.6087591 C42.7563474,75.5581509 43.5434298,75.5328467 44.457461,75.5075426 C45.2699332,75.4822384 46.1331849,75.4822384 47.0726058,75.4822384 L47.0979955,81.0491484 L47.0979955,81.0491484 Z" id="Shape" fill="#5E838F"></path>
                    <path d="M67.155902,75.5328467 C68.0953229,75.5328467 68.9585746,75.5328467 69.7710468,75.5581509 C70.685078,75.583455 71.4721604,75.6087591 72.132294,75.6593674 C77.0071269,75.9883212 80.1808463,77.9114355 81.6280624,80.1635036 C82.3389755,81.2515815 82.6690423,82.46618 82.6182628,83.6554745 C82.5674833,84.870073 82.1358575,86.0593674 81.2979955,87.0715328 C79.698441,89.0452555 76.5501114,90.4622871 71.9545657,90.259854 C67.6890869,90.0574209 61.874833,89.2223844 56.4160356,88.0583942 C51.3634744,86.9703163 46.5648107,85.5785888 43.4926503,84.1109489 L45.8792873,79.1260341 C48.5198218,80.3912409 52.8868597,81.6311436 57.5585746,82.643309 C62.7634744,83.756691 68.2476615,84.5411192 72.2084633,84.7435523 C74.823608,84.870073 76.3723831,84.3639903 76.9563474,83.6301703 C77.0071269,83.5542579 77.0579065,83.5036496 77.0579065,83.4530414 C77.0579065,83.377129 77.0325167,83.3012165 76.9309577,83.1746959 C76.3216036,82.2384428 74.62049,81.4287105 71.7260579,81.2262774 C70.989755,81.1756691 70.2788419,81.150365 69.6187082,81.1250608 C68.8316258,81.0997567 68.0191537,81.0997567 67.155902,81.0997567 L67.155902,75.5328467 L67.155902,75.5328467 Z" id="Shape" fill="#7F9DA6"></path>
                    <rect id="Rectangle-path" fill="#FFFFFF" transform="translate(40.280930, 85.454323) rotate(-68.795478) translate(-40.280930, -85.454323) " x="32.2069469" y="84.1131967" width="16.1479664" height="2.6822521"></rect>
                    <path d="M44.4320713,78.4175182 L46.945657,79.3790754 L44.8129176,84.870073 L41.969265,92.2082725 C41.5122494,93.043309 40.2935412,93.6 39.6080178,93.6 C38.9224944,93.6 38.9224944,93.5240876 38.6178174,93.422871 L38.5924276,93.4734793 L44.4320713,78.4175182 L44.4320713,78.4175182 Z" id="Shape" fill="#1B606D"></path>
                    <path d="M79.8,82.8963504 C80.2316258,85.3002433 77.6418708,87.7294404 72.1069042,87.476399 C69.7710468,87.3751825 66.9273942,87.0462287 63.9567929,86.5907543" id="Shape" stroke="#7F9DA6" stroke-width="5.52636"></path>
                    <rect id="Rectangle-path" fill="#FFFFFF" transform="translate(74.011705, 85.454462) rotate(-21.204522) translate(-74.011705, -85.454462) " x="72.6660407" y="77.4077056" width="2.69132773" height="16.0935126"></rect>
                    <polygon id="Shape" fill="#1B606D" points="45.2445434 78.746472 49.4592428 80.3659367 47.3011136 85.8569343 41.7915367 92.4613139"></polygon>
                    <path d="M35.342539,85.5532847 C36.5104677,86.7931873 38.7955457,87.6282238 42.1723831,87.476399 C42.6547884,87.4510949 43.1879733,87.4257908 43.7211581,87.3751825 C48.6467706,86.9956204 55.1973274,85.9075426 60.833853,84.4905109 C62.5857461,84.0603406 66.9273942,82.6180049 68.4,82.1372263" id="Shape" stroke="#5E838F" stroke-width="5.52636"></path>
                    <polygon id="Shape" fill="#1B606D" points="69.847216 78.4175182 64.8200445 80.3659367 67.0797327 85.5026764 72.436971 92.4107056 73.1224944 92.5372263"></polygon>
                    <path d="M69.847216,78.4175182 L67.3336303,79.3790754 L69.4663697,84.870073 L72.3100223,92.2082725 C72.7670379,93.043309 73.9857461,93.6 74.6712695,93.6 C75.3567929,93.6 75.3567929,93.5240876 75.6614699,93.422871 L75.6868597,93.4734793 L69.847216,78.4175182 L69.847216,78.4175182 Z" id="Shape" fill="#1B606D"></path>
                    <ellipse id="Oval" fill="#EFC27F" transform="translate(100.471557, 41.879221) rotate(-12.426891) translate(-100.471557, -41.879221) " cx="100.471557" cy="41.879221" rx="2.4628784" ry="2.45457313"></ellipse>
                    <polygon id="Shape" fill="#7F9DA6" points="93.891314 23.1026764 90.15902 32.136253 88.1024499 37.1211679 93.1296214 39.1708029 98.0298441 41.1951338 102.930067 43.1941606 107.957238 45.2437956 110.013808 40.2588808 110.85167 38.2345499 113.746102 31.2253041 103.818708 27.1513382"></polygon>
                    <polygon id="Shape" fill="#E35447" points="112.019599 31.8579075 111.334076 33.5026764 103.463252 36.5391727 98.4360802 34.5654501 91.6824053 37.146472 89.854343 36.3873479 98.3853007 33.1231144 103.387082 35.1980535"></polygon>
                    <ellipse id="Oval" fill="#E8A955" transform="translate(98.113036, 67.840121) rotate(-34.678485) translate(-98.113036, -67.840121) " cx="98.1130362" cy="67.8401211" rx="2.46293277" ry="2.45462733"></ellipse>
                    <path d="M99.2485523,64.5508516 C91.6316258,69.6622871 80.5870824,68.7007299 75.0775056,67.6885645" id="Shape" stroke="#E8A955" stroke-width="4.4209872"></path>
                    <path d="M69.0347439,70.750365 L74.4935412,71.7119221 L74.4935412,71.686618 C77.1848552,72.1673966 81.2218263,72.5722628 85.5380846,72.3951338 C88.8895323,72.2686131 92.4187082,71.7878345 95.6685969,70.7756691 L93.2311804,63.0326034 C90.6922049,63.8423358 87.8993318,64.1965937 85.2334076,64.3231144 C81.5011136,64.4749392 78.0734967,64.1206813 75.8138085,63.7158151 L75.8138085,63.7411192 L69.0347439,62.5518248 L67.1812918,65.7654501 L69.0347439,70.750365 L69.0347439,70.750365 Z" id="Shape" fill="#CC4538"></path>
                    <path d="M45.2445434,50.1781022 L51.1857461,50.1781022 L51.1857461,50.1781022 C51.1857461,53.4170316 53.8262806,56.0233577 57.0507795,56.0233577 C60.3006682,56.0233577 58.4979955,50.1781022 61.7478842,50.1781022 L62.9412027,50.1781022 L66.4957684,50.1781022 L69.0347439,50.1781022 C75.2298441,50.1781022 79.8253898,50.507056 85.7919822,47.6476886 C88.4325167,46.3824818 90.996882,44.6111922 92.8249443,42.156691 L99.3501114,47.0150852 C96.6334076,50.6335766 93.0026726,53.2145985 89.2957684,54.9858881 C82.2374165,58.3513382 76.3216036,58.2754258 69.0347439,58.2754258 L69.0347439,75.4822384 L69.0093541,75.4822384 C65.1755011,76.3425791 61.2146993,76.7727494 57.1269488,76.7727494 C53.0391982,76.7727494 49.0783964,76.3172749 45.2445434,75.4822384 L45.2191537,75.4822384 L45.2445434,50.1781022 L45.2445434,50.1781022 L45.2445434,50.1781022 Z" id="Shape" fill="#E35447"></path>
                    <path d="M45.2445434,50.1781022 L52.5314031,50.1781022 C52.5314031,52.8856448 54.3340757,56.0233577 57.0507795,56.0233577 L57.1269488,56.0233577 L57.1269488,76.7727494 C53.0391982,76.7727494 49.0783964,76.3172749 45.2445434,75.4822384 L45.2191537,75.4822384 L45.2191537,58.2754258 C37.9830735,58.2754258 31.8641425,58.2754258 24.9581292,54.9858881 C21.2512249,53.2145985 17.62049,50.6588808 14.9037862,47.0150852 L21.4289532,42.156691 C23.2570156,44.6111922 25.8213808,46.3824818 28.4619154,47.6476886 C34.2761693,50.4058394 39.1510022,50.1781022 45.2445434,50.1781022 L45.2445434,50.1781022 L45.2445434,50.1781022 Z" id="Shape" fill="#E35447"></path>
                    <polygon id="Shape" fill="#7F9DA6" points="98.6138085 54.7581509 106.230735 54.7581509 113.847661 54.7581509 113.847661 65.4364964 113.847661 76.140146 106.230735 76.140146 98.6138085 76.140146 98.6138085 65.4364964"></polygon>
                    <ellipse id="Oval" fill="#EFC27F" transform="translate(13.822157, 41.897582) rotate(-77.578704) translate(-13.822157, -41.897582) " cx="13.8221572" cy="41.8975817" rx="2.46282541" ry="2.45452032"></ellipse>
                    <polygon id="Shape" fill="#FFFFFF" points="0.25389755 30.5167883 10.1051225 26.4681265 19.9817372 22.4447689 23.003118 29.8082725 26.0498886 37.1717762 16.1986637 41.220438 6.34743875 45.2437956 3.30066815 37.880292"></polygon>
                    <polygon id="Shape" fill="#012C4E" points="52.5314031 50.1781022 60.9861915 50.1781022 60.9861915 53.7965937 52.8868597 53.7965937"></polygon>
                    <path d="M59.285078,46.3318735 L59.285078,56.0233577 L55.0195991,56.0233577 L55.0195991,46.3065693 C55.7305122,46.4077859 56.4922049,46.4836983 57.2285078,46.4836983 L57.2285078,46.4836983 C57.9140312,46.4836983 58.5995546,46.43309 59.285078,46.3318735 L59.285078,46.3318735 Z" id="Shape" fill="#E8A955"></path>
                    <path d="M61.874833,28.9479319 C68.2222717,28.9479319 73.4017817,23.7858881 73.4017817,17.459854 C73.4017817,11.13382 68.2222717,5.97177616 61.874833,5.97177616 C55.5273942,5.97177616 50.3478842,11.13382 50.3478842,17.459854 C50.3478842,23.7858881 55.5020045,28.9479319 61.874833,28.9479319 L61.874833,28.9479319 Z" id="Shape" fill="#FDC300"></path>
                    <path d="M41.1314031,24.8992701 C39.5318486,23.8364964 38.4654788,21.9892944 38.4654788,19.9396594 L38.4654788,12.2472019 L41.1314031,12.2472019 L41.1314031,24.8992701 L41.1314031,24.8992701 Z" id="Shape" fill="#FDC300"></path>
                    <path d="M68.9077951,16.0934307 L68.9077951,33.9328467 C68.9077951,41.5493917 62.6619154,47.7742092 55.0195991,47.7742092 L55.0195991,47.7742092 C47.3772829,47.7742092 41.1314031,41.5493917 41.1314031,33.9328467 L41.1314031,16.0934307 L68.9077951,16.0934307 L68.9077951,16.0934307 Z" id="Shape" fill="#EFC27F"></path>
                    <path d="M55.0195991,47.7742092 L55.0195991,47.7742092 L55.0195991,47.7742092 C47.3772829,47.7742092 41.1314031,41.5493917 41.1314031,33.9328467 L41.1314031,14.2209246 L50.677951,14.2209246 L50.677951,39.1201946 C51.2365256,43.649635 52.6837416,46.0788321 55.0195991,47.7742092 L55.0195991,47.7742092 Z" id="Shape" fill="#E8A955"></path>
                    <path d="M64.6423163,36.6403893 C63.525167,40.8914842 59.6405345,44.0545012 55.0195991,44.0545012 L55.0195991,44.0545012 C49.5608018,44.0545012 45.0922049,39.6009732 45.0922049,34.1605839 L45.0922049,32.0603406 L62.3064588,32.0603406 L62.3064588,32.0603406 C63.7790646,32.0603406 64.9469933,33.249635 64.9469933,34.6919708 L64.9469933,34.6919708 C64.9216036,35.3498783 64.7946548,36.0077859 64.6423163,36.6403893 L64.6423163,36.6403893 Z" id="Shape" fill="#012C4E"></path>
                    <path d="M64.6423163,36.6403893 C63.5505568,40.7902676 59.8182628,43.8773723 55.3750557,44.0291971 C57.0253898,42.7386861 58.0663697,40.7649635 58.0663697,38.5128954 C58.0663697,35.5776156 56.2383073,33.0472019 53.6739421,32.0097324 L62.3064588,32.0097324 L62.3064588,32.0097324 C63.7790646,32.0097324 64.9469933,33.1990268 64.9469933,34.6413625 L64.9469933,34.6413625 C64.9216036,35.3498783 64.7946548,36.0077859 64.6423163,36.6403893 L64.6423163,36.6403893 Z" id="Shape" fill="#00203D"></path>
                    <path d="M57.2285078,39.0695864 C58.8534521,38.9430657 59.8944321,39.5756691 59.589755,40.4613139 C59.2596882,41.3722628 57.7109131,42.1819951 56.0859688,42.3085158 C54.4610245,42.4350365 53.4200445,41.8024331 53.7247216,40.9167883 C54.0547884,40.0311436 55.6289532,39.1961071 57.2285078,39.0695864 L57.2285078,39.0695864 Z" id="Shape" fill="#E35447"></path>
                    <path d="M46.2855234,33.5279805 L62.3064588,33.5279805 C62.9158129,33.5279805 63.423608,34.0340633 63.423608,34.6413625 L63.423608,34.6413625 C63.423608,35.2486618 62.9158129,35.7547445 62.3064588,35.7547445 L47.1487751,35.7547445 L46.2855234,33.5279805 L46.2855234,33.5279805 Z" id="Shape" fill="#FFFFFF"></path>
                    <path d="M43.5434298,16.0934307 C48.0120267,16.0934307 51.6173719,12.5002433 51.6173719,8.04671533 C51.6173719,7.33819951 51.5158129,6.6296837 51.3380846,5.97177616 L47.3265033,5.97177616 L47.3265033,5.97177616 C45.6761693,5.97177616 44.3305122,4.63065693 44.3305122,2.98588808 C44.3305122,1.84720195 44.9652561,0.860340633 45.9046771,0.354257908 C45.1429844,0.126520681 44.355902,2.22044605e-16 43.5180401,2.22044605e-16 C39.0494432,2.22044605e-16 35.444098,3.59318735 35.444098,8.04671533 C35.4694878,12.5002433 39.074833,16.0934307 43.5434298,16.0934307 L43.5434298,16.0934307 Z" id="Shape" fill="#FFDD22"></path>
                    <path d="M51.3888641,9.94452555 C51.5412027,9.33722628 51.6173719,8.70462287 51.6173719,8.04671533 C51.6173719,7.33819951 51.5158129,6.6296837 51.3380846,5.97177616 L47.3265033,5.97177616 L47.3265033,5.97177616 C45.6761693,5.97177616 44.3305122,4.63065693 44.3305122,2.98588808 C44.3305122,1.84720195 44.9652561,0.860340633 45.9046771,0.354257908 C43.7973274,1.13868613 42.2739421,3.18832117 42.2739421,5.56690998 C42.2739421,8.6540146 44.7875278,11.1591241 47.885078,11.1591241 C49.2053452,11.1591241 50.4240535,10.7036496 51.3888641,9.94452555 L51.3888641,9.94452555 Z" id="Shape" fill="#FDC300"></path>
                    <path d="M66.0895323,16.0934307 L43.5434298,16.0934307 L43.5434298,11.1591241 L61.6209354,11.1591241 L61.6209354,11.1591241 C64.1091314,11.2856448 66.0895323,13.4618005 66.0895323,16.0934307 L66.0895323,16.0934307 Z" id="Shape" fill="#FFDD22"></path>
                    <path d="M61.4178174,5.97177616 L47.885078,5.97177616 L47.885078,11.1591241 L70.2788419,11.1591241 C68.5523385,8.07201946 65.2262806,5.97177616 61.4178174,5.97177616 L61.4178174,5.97177616 Z" id="Shape" fill="#FDC300"></path>
                    <rect id="Rectangle-path" fill="#FDC300" x="66.0895323" y="16.0934307" width="2.81826281" height="11.5386861"></rect>
                    <path d="M68.9077951,30.4408759 C70.4565702,30.4408759 71.7260579,29.1756691 71.7260579,27.6321168 C71.7260579,26.0885645 70.4565702,24.8233577 68.9077951,24.8233577 C67.35902,24.8233577 66.0895323,26.0885645 66.0895323,27.6321168 C66.0895323,29.1756691 67.35902,30.4408759 68.9077951,30.4408759 L68.9077951,30.4408759 Z" id="Shape" fill="#EFC27F"></path>
                    <path d="M68.9077951,29.0744526 C69.6948775,29.0744526 70.3550111,28.4418491 70.3550111,27.6321168 C70.3550111,26.8476886 69.7202673,26.189781 68.9077951,26.189781 C68.0953229,26.189781 67.4605791,26.8223844 67.4605791,27.6321168 C67.4605791,28.416545 68.1207127,29.0744526 68.9077951,29.0744526 L68.9077951,29.0744526 Z" id="Shape" fill="#E8A955"></path>
                    <path d="M62.077951,30.3902676 C63.4743875,30.3902676 64.6169265,29.2515815 64.6169265,27.859854 C64.6169265,26.4681265 63.4743875,25.3294404 62.077951,25.3294404 C60.6815145,25.3294404 59.5389755,26.4681265 59.5389755,27.859854 C59.5389755,29.2515815 60.6815145,30.3902676 62.077951,30.3902676 L62.077951,30.3902676 Z" id="Shape" fill="#E35447"></path>
                    <path d="M53.5723831,19.9143552 C55.4512249,17.4092457 58.1679287,18.3201946 59.2342984,19.9143552" id="Shape" stroke="#E8A955" stroke-width="1.5365952"></path>
                    <g id="Group" transform="translate(54.334076, 20.243309)">
                        <ellipse id="Oval" fill="#012C4E" cx="2.08195991" cy="3.87153285" rx="1.98040089" ry="3.66909976"></ellipse>
                        <ellipse id="Oval" fill="#FFFFFF" cx="2.71670379" cy="3.87153285" rx="0.634743875" ry="1.1892944"></ellipse>
                    </g>
                    <g id="Group" transform="translate(44.432071, 21.508516)">
                        <path d="M1.54877506,6.27542579 C2.33585746,6.27542579 2.97060134,4.90900243 2.97060134,3.23892944 C2.97060134,1.56885645 2.33585746,0.20243309 1.54877506,0.20243309 C0.76169265,0.20243309 0.126948775,1.56885645 0.126948775,3.23892944 C0.126948775,4.90900243 0.76169265,6.27542579 1.54877506,6.27542579 L1.54877506,6.27542579 Z" id="Shape" fill="#012C4E"></path>
                        <ellipse id="Oval" fill="#FFFFFF" cx="2.00579065" cy="3.23892944" rx="0.45701559" ry="0.986861314"></ellipse>
                    </g>
                    <path d="M50.6525612,27.2019465 C51.4396437,27.2019465 52.0489978,27.8345499 52.0489978,28.593674 C52.0489978,28.7708029 52.023608,28.9226277 51.9728285,29.0744526 L49.332294,29.0744526 C49.2815145,28.9226277 49.2561247,28.7708029 49.2561247,28.593674 C49.2561247,27.8092457 49.8908686,27.2019465 50.6525612,27.2019465 L50.6525612,27.2019465 Z" id="Shape" fill="#E35447"></path>
                    <path d="M60.630735,16.0934307 L60.630735,14.7270073 L66.0895323,15.9922141 L66.0895323,21.0277372 C66.0895323,18.3961071 64.1091314,16.2199513 61.6209354,16.0934307 L61.6209354,16.0934307 L60.630735,16.0934307 L60.630735,16.0934307 Z" id="Shape" fill="#FFDD22"></path>
                    <ellipse id="Oval" fill="#E8A955" transform="translate(16.186294, 67.862232) rotate(-55.321515) translate(-16.186294, -67.862232) " cx="16.1862938" cy="67.8622318" rx="2.46293277" ry="2.45462733"></ellipse>
                    <polygon id="Shape" fill="#7F9DA6" points="15.6654788 54.7581509 5.86503341 54.7581509 0.45701559 60.173236 0.45701559 65.4364964 0.45701559 76.140146 8.04855234 76.140146 15.6654788 76.140146 15.6654788 65.4364964"></polygon>
                    <rect id="Rectangle-path" fill="#1B606D" x="99.9594655" y="56.0992701" width="12.542539" height="4.8836983"></rect>
                    <rect id="Rectangle-path" fill="#1B606D" x="106.890869" y="62.2987835" width="5.5857461" height="5.56690998"></rect>
                    <rect id="Rectangle-path" fill="#E35447" x="106.890869" y="69.2321168" width="5.5857461" height="5.56690998"></rect>
                    <rect id="Rectangle-path" fill="#1B606D" x="99.9594655" y="62.2987835" width="5.5857461" height="5.56690998"></rect>
                    <rect id="Rectangle-path" fill="#1B606D" x="99.9594655" y="69.2321168" width="5.5857461" height="5.56690998"></rect>
                    <polygon id="Shape" fill="#7F9DA6" points="107.703341 64.7026764 108.490423 64.7026764 109.302895 64.7026764 110.089978 64.7026764 110.90245 64.7026764 111.689532 64.7026764 111.689532 65.4871046 110.90245 65.4871046 110.089978 65.4871046 109.302895 65.4871046 108.490423 65.4871046 107.703341 65.4871046"></polygon>
                    <polygon id="Shape" fill="#7F9DA6" points="102.346102 63.1085158 103.158575 63.1085158 103.158575 64.7026764 104.758129 64.7026764 104.758129 65.4871046 103.158575 65.4871046 103.158575 67.0812652 102.346102 67.0812652 102.346102 65.4871046 100.771938 65.4871046 100.771938 64.7026764 102.346102 64.7026764"></polygon>
                    <g id="Group" transform="translate(107.652561, 70.598540)" fill="#7F9DA6">
                        <polygon id="Shape" points="0.05077951 1.01216545 0.837861915 1.01216545 1.65033408 1.01216545 2.43741648 1.01216545 3.24988864 1.01216545 4.03697105 1.01216545 4.03697105 0.227737226 3.24988864 0.227737226 2.43741648 0.227737226 1.65033408 0.227737226 0.837861915 0.227737226 0.05077951 0.227737226"></polygon>
                        <polygon id="Shape" points="0.05077951 2.60632603 0.837861915 2.60632603 1.65033408 2.60632603 2.43741648 2.60632603 3.24988864 2.60632603 4.03697105 2.60632603 4.03697105 1.82189781 3.24988864 1.82189781 2.43741648 1.82189781 1.65033408 1.82189781 0.837861915 1.82189781 0.05077951 1.82189781"></polygon>
                    </g>
                    <polygon id="Shape" fill="#7F9DA6" points="103.894878 70.3201946 104.453452 70.8768856 103.310913 72.0155718 104.453452 73.1289538 103.894878 73.7109489 102.752339 72.5722628 101.635189 73.7109489 101.051225 73.1289538 102.193764 72.0155718 101.051225 70.8768856 101.635189 70.3201946 102.752339 71.4588808"></polygon>
                    <g id="Group" transform="translate(94.703786, 59.464720)" fill="#EFC27F">
                        <ellipse id="Oval" transform="translate(3.631888, 3.591573) rotate(-36.755306) translate(-3.631888, -3.591573) " cx="3.63188766" cy="3.59157294" rx="2.46281116" ry="2.45450613"></ellipse>
                        <ellipse id="Oval" transform="translate(8.204770, 2.095066) rotate(-36.755306) translate(-8.204770, -2.095066) " cx="8.20477042" cy="2.09506608" rx="1.01559223" ry="1.01216747"></ellipse>
                        <polygon id="Shape" points="1.39643653 3.11240876 8.1247216 3.11240876 8.1247216 1.113382 3.63073497 1.13868613"></polygon>
                    </g>
                    <polygon id="Shape" fill="#E35447" points="5.86503341 54.7581509 0.45701559 60.173236 5.86503341 60.173236"></polygon>
                    <rect id="Rectangle-path" fill="#E35447" transform="translate(95.299359, 26.492912) rotate(-67.659134) translate(-95.299359, -26.492912) " x="94.0426187" y="25.2404098" width="2.5134802" height="2.5050043"></rect>
                    <rect id="Rectangle-path" fill="#7F9DA6" transform="translate(13.152924, 33.860118) rotate(-22.351464) translate(-13.152924, -33.860118) " x="2.48886372" y="25.8890432" width="21.3281204" height="15.9421486"></rect>
                    <polygon id="Shape" fill="#E35447" points="0.25389755 30.5167883 0.81247216 31.8832117 13.7104677 35.1980535 20.5403118 23.7858881 19.9817372 22.4447689"></polygon>
                    <polygon id="Shape" fill="#5E838F" points="6.14432071 44.8136253 12.1363029 34.7931873 12.9233853 34.9956204 6.93140312 45.0160584 6.34743875 45.2437956"></polygon>
                    <polygon id="Shape" fill="#5E838F" points="14.5483296 33.806326 25.8721604 36.7163017 26.0498886 37.1717762 25.4405345 37.4248175 14.1420935 34.4895377"></polygon>
                    <polygon id="Shape" fill="#5E838F" points="0.81247216 31.8832117 13.9389755 35.2486618 13.4819599 35.9571776 1.19331849 32.7688564"></polygon>
                    <polygon id="Shape" fill="#5E838F" points="13.3042316 35.9065693 20.5403118 23.7858881 20.8957684 24.696837 14.091314 36.1090024"></polygon>
                    <polygon id="Shape" fill="#1B606D" points="111.334076 33.5026764 107.220935 43.4978102 91.6824053 37.146472 98.4360802 34.5654501 103.463252 36.5391727"></polygon>
                    <g id="Group" transform="translate(92.926503, 33.654501)" fill="#F1CD9F">
                        <ellipse id="Oval" transform="translate(3.122361, 6.174338) rotate(-12.421296) translate(-3.122361, -6.174338) " cx="3.12236098" cy="6.1743383" rx="2.46282541" ry="2.45452032"></ellipse>
                        <ellipse id="Oval" transform="translate(3.630644, 1.417115) rotate(-12.421296) translate(-3.630644, -1.417115) " cx="3.63064356" cy="1.41711513" rx="1.01559811" ry="1.01217333"></ellipse>
                        <polygon id="Shape" points="1.7518931 8.02141119 4.51937639 1.89781022 2.71670379 1.08807786 0.888641425 5.1620438"></polygon>
                    </g>
                    <polygon id="Shape" fill="#1B606D" points="7.21069042 56.0992701 7.21069042 61.5143552 1.80267261 61.5143552 1.80267261 74.7990268 14.3198218 74.7990268 14.3198218 56.0992701"></polygon>
                    <g id="Group" transform="translate(9.902004, 59.464720)" fill="#EFC27F">
                        <ellipse id="Oval" transform="translate(6.035780, 3.639949) rotate(-53.244694) translate(-6.035780, -3.639949) " cx="6.03577951" cy="3.63994939" rx="2.46281116" ry="2.45450613"></ellipse>
                        <ellipse id="Oval" transform="translate(1.459413, 2.147711) rotate(-53.249285) translate(-1.459413, -2.147711) " cx="1.45941327" cy="2.14771134" rx="1.01553146" ry="1.01210691"></ellipse>
                        <polygon id="Shape" points="8.27706013 3.16301703 1.54877506 3.16301703 1.54877506 1.16399027 6.04276169 1.1892944"></polygon>
                    </g>
                    <polygon id="Shape" fill="#1B606D" points="0.81247216 31.8832117 13.7104677 35.1980535 13.8374165 36.6403893 1.44721604 33.426764"></polygon>
                    <polygon id="Shape" fill="#1B606D" points="14.8783964 33.5279805 25.7452116 36.3367397 26.0498886 37.1717762 25.0342984 37.6019465 14.1420935 34.7425791"></polygon>
                    <polygon id="Shape" fill="#1B606D" points="12.8979955 35.5270073 7.46458797 44.7883212 6.34743875 45.2437956 6.01737194 44.5099757 11.7300668 34.8184915"></polygon>
                    <polygon id="Shape" fill="#1B606D" points="14.2944321 36.7416058 12.9995546 36.4126521 20.5403118 23.7858881 21.1496659 25.2788321"></polygon>
                    <g id="Group" transform="translate(15.233853, 33.654501)" fill="#F1CD9F">
                        <ellipse id="Oval" transform="translate(2.991700, 6.177802) rotate(-77.573109) translate(-2.991700, -6.177802) " cx="2.99170022" cy="6.17780243" rx="2.4628784" ry="2.45457313"></ellipse>
                        <ellipse id="Oval" transform="translate(2.481909, 1.404425) rotate(-77.578704) translate(-2.481909, -1.404425) " cx="2.48190949" cy="1.40442511" rx="1.01559811" ry="1.01217333"></ellipse>
                        <polygon id="Shape" points="4.36703786 8.02141119 1.59955457 1.89781022 3.42761693 1.08807786 5.25567929 5.1620438"></polygon>
                    </g>
                    <path d="M52.5314031,50.1781022 L57.1269488,56.1245742 L61.7478842,50.1781022 L61.4685969,76.6209246 C60.0467706,76.7221411 58.5995546,76.7980535 57.1269488,76.7980535 C55.6289532,76.7980535 54.1563474,76.7474453 52.6837416,76.6209246 L52.5314031,50.1781022 L52.5314031,50.1781022 Z" id="Shape" fill="#FFFFFF"></path>
                    <path d="M60.9100223,50.1781022 L61.7478842,50.1781022 L61.6971047,53.8978102 C60.630735,55.3148418 59.0819599,56.0486618 57.1777283,56.0486618 L57.101559,56.0486618 L57.101559,56.0486618 L56.8222717,56.0486618 C54.2071269,55.896837 52.5060134,52.8350365 52.5060134,50.2034063 L53.6485523,50.2034063 L53.6485523,50.2034063 C53.6485523,52.1012165 55.1973274,53.670073 57.1269488,53.670073 C59.0311804,53.670073 60.6053452,52.1265207 60.6053452,50.2034063 L60.6053452,50.2034063 L60.9100223,50.1781022 L60.9100223,50.1781022 L60.9100223,50.1781022 Z" id="Shape" fill="#FFFFFF"></path>
                    <polygon id="Shape" fill="#CC4538" points="52.5314031 50.1781022 51.0080178 50.1781022 49.4592428 54.2014599 51.0080178 56.2004866 49.4592428 58.2248175 52.5314031 68.2958637"></polygon>
                    <polygon id="Shape" fill="#CC4538" points="61.7732739 50.1781022 63.2966592 50.1781022 64.8454343 54.2014599 63.2966592 56.2004866 64.8454343 58.2248175 61.7732739 68.2958637"></polygon>
                    <path d="M23.4347439,78.746472 C24.8565702,78.5440389 26.0752784,77.1776156 26.2783964,75.9124088 C26.4815145,77.1776156 27.674833,78.5440389 29.122049,78.746472 C27.7002227,78.9489051 26.4815145,80.3153285 26.2783964,81.5805353 C26.0498886,80.2900243 24.8565702,78.9489051 23.4347439,78.746472 L23.4347439,78.746472 Z" id="Shape" fill="#FFFFFF"></path>
                    <path d="M73.7826281,42.33382 C75.2044543,42.1313869 76.4231626,40.7649635 76.6262806,39.4997567 C76.8293987,40.7649635 78.0227171,42.1313869 79.4699332,42.33382 C78.0481069,42.536253 76.8293987,43.9026764 76.6262806,45.1678832 C76.4231626,43.9026764 75.2044543,42.536253 73.7826281,42.33382 L73.7826281,42.33382 Z" id="Shape" fill="#FFFFFF"></path>
                </g>
            </g>
        </g>
    </g>
</svg>