<?xml version="1.0" encoding="UTF-8"?>
<svg width="145px" height="150px" viewBox="0 0 145 150" version="1.1" xmlns="http://www.w3.org/2000/svg" xmlns:xlink="http://www.w3.org/1999/xlink">
    <!-- Generator: Sketch 40.3 (33839) - http://www.bohemiancoding.com/sketch -->
    <title>1.7-illustration#3</title>
    <desc>Created with Sketch.</desc>
    <defs>
        <rect id="path-1" x="0" y="0" width="159" height="150" rx="2.4"></rect>
    </defs>
    <g id="mobile" stroke="none" stroke-width="1" fill="none" fill-rule="evenodd">
        <g id="mobile-article-4" transform="translate(-165.000000, -106.000000)">
            <g id="1.7-illustration#3" transform="translate(151.000000, 106.000000)">
                <mask id="mask-2" fill="white">
                    <use xlink:href="#path-1"></use>
                </mask>
                <g id="Mask"></g>
                <g id="03" mask="url(#mask-2)">
                    <g transform="translate(13.184932, -101.211499)" id="Слой_1">
                        <g>
                            <g id="g6623">
                                <polygon id="polygon893" fill="#A2C0C6" points="49.3356164 282.405476 49.3356164 87.5586585 280.047945 87.5586585 280.047945 282.477481 49.3356164 282.405476"></polygon>
                                <g id="g1153" transform="translate(0.000000, 105.848049)">
                                    <path d="M20.4246575,3.24024641 C21.2157534,3.09623546 22.0068493,3.60027379 22.1506849,4.46433949 C22.2945205,5.3284052 21.7910959,6.04845996 20.9280822,6.19247091 L12.9452055,7.63258042 L9.85273973,8.20862423 C7.11986301,8.78466804 5.68150685,10.296783 4.89041096,12.1689254 C4.09931507,14.1850787 4.02739726,16.7052704 4.02739726,18.8654346 L4.02739726,18.9374401 L4.02739726,18.9374401 L4.02739726,176.413415 L1.00684932,176.413415 L1.00684932,18.9374401 L1.00684932,18.9374401 C0.934931507,16.4892539 1.07876712,13.6090349 2.01369863,11.0888433 C3.09246575,8.35263518 5.17808219,6.12046543 9.13356164,5.3284052 L9.20547945,5.3284052 L12.369863,4.7523614 L20.4246575,3.24024641 L20.4246575,3.24024641 L20.4246575,3.24024641 Z" id="path1155" fill="#C6C7C6"></path>
                                    <path d="M16.2534247,5.3284052 C15.9657534,3.67227926 17.0445205,2.01615332 18.7705479,1.72813142 L27.9760274,0.0720054757 C29.630137,-0.216016427 31.2842466,0.864065708 31.5719178,2.59219713 C31.859589,4.24832307 30.7808219,5.90444901 29.0547945,6.19247091 L19.8493151,7.84859685 C18.1952055,8.13661875 16.6130137,7.05653662 16.2534247,5.3284052 L16.2534247,5.3284052 Z" id="path1157" fill="#C6C7C6"></path>
                                    <path d="M16.2534247,5.3284052 L31.5,2.59219713 C31.7876712,4.24832307 30.7089041,5.90444901 28.9828767,6.19247091 L19.7773973,7.84859685 C18.1952055,8.13661875 16.6130137,7.05653662 16.2534247,5.3284052 L16.2534247,5.3284052 Z" id="path1159" fill="#FBBB4D"></path>
                                </g>
                                <g id="g1631" transform="translate(117.226027, 104.407940)">
                                    <g id="g1633" transform="translate(0.000000, 53.284052)">
                                        <polygon id="path1635" fill="#96B6BE" points="39.8424658 0 39.8424658 34.5626283 2.37328767 34.5626283 2.37328767 0"></polygon>
                                        <polygon id="polygon1637" fill="#B1DDE9" points="36.6780822 3.24024641 36.6780822 34.5626283 5.53767123 34.5626283 5.53767123 3.24024641"></polygon>
                                        <path d="M36.6780822,20.5215606 L36.6780822,22.8257358 L17.1164384,3.16824093 L19.4178082,3.16824093 L36.6780822,20.5215606 L36.6780822,20.5215606 Z M36.6780822,27.4340862 L36.6780822,32.0424367 L7.98287671,3.24024641 L12.5856164,3.24024641 L36.6780822,27.4340862 L36.6780822,27.4340862 Z M36.6780822,34.2746064 L36.6780822,34.5626283 L34.6643836,34.5626283 L5.60958904,5.40041068 L5.60958904,3.16824093 L5.75342466,3.16824093 L36.6780822,34.2746064 L36.6780822,34.2746064 L36.6780822,34.2746064 Z" id="path1639" fill="#C7E6EF"></path>
                                        <polygon id="path1641" fill="#91CAD5" points="36.6780822 3.24024641 5.53767123 3.24024641 5.53767123 4.17631759 36.6780822 4.17631759 36.6780822 3.24024641"></polygon>
                                        <polygon id="path1643" fill="#91CAD5" points="16.7568493 3.24024641 16.7568493 34.5626283 17.6917808 34.5626283 17.6917808 3.24024641 16.7568493 3.24024641"></polygon>
                                        <polygon id="path1645" fill="#91CAD5" points="36.6780822 14.4731006 5.75342466 14.4731006 5.75342466 15.4091718 36.6780822 15.4091718"></polygon>
                                        <polygon id="polygon1647" fill="#96B6BE" points="15.1746575 34.5626283 15.1746575 0 16.7568493 0 16.7568493 34.5626283 15.1746575 34.5626283"></polygon>
                                        <polygon id="polygon1649" fill="#96B6BE" points="25.5308219 34.5626283 25.5308219 0 27.1130137 0 27.1130137 34.5626283 25.5308219 34.5626283"></polygon>
                                        <polygon id="path1651" fill="#91CAD5" points="27.1130137 3.24024641 27.1130137 34.5626283 28.0479452 34.5626283 28.0479452 3.24024641 27.1130137 3.24024641"></polygon>
                                        <polygon id="path1653" fill="#91CAD5" points="5.53767123 3.24024641 5.53767123 34.5626283 6.47260274 34.5626283 6.47260274 3.24024641 5.53767123 3.24024641"></polygon>
                                        <polygon id="polygon1655" fill="#96B6BE" points="3.88356164 12.8889802 38.4041096 12.8889802 38.4041096 14.4731006 3.88356164 14.4731006 3.88356164 12.8889802"></polygon>
                                        <polygon id="path1657" fill="#88A5AB" points="2.37328767 0 2.37328767 34.5626283 4.24315068 34.5626283 4.24315068 0 2.37328767 0"></polygon>
                                        <polygon id="path1659" fill="#88A5AB" points="39.8424658 0 3.23630137 0 3.23630137 1.87214237 39.8424658 1.87214237 39.8424658 0"></polygon>
                                        <polygon id="polygon1661" fill="#ABC5CB" points="0.287671233 33.6265572 42 33.6265572 42 39.8190281 0.287671233 39.8190281 0.287671233 33.6265572"></polygon>
                                        <polygon id="polygon1663" fill="#88A5AB" points="42 39.8910335 42 33.6985626 48.1849315 39.8910335 48.1849315 46.0835044 6.47260274 46.0835044 0.287671233 39.8910335 6.47260274 39.8910335"></polygon>
                                    </g>
                                    <g id="g1665" transform="translate(0.000000, 105.848049)">
                                        <polygon id="path1667" fill="#96B6BE" points="39.8424658 0.576043806 39.8424658 35.1386721 2.37328767 35.1386721 2.37328767 0.576043806"></polygon>
                                        <polygon id="polygon1669" fill="#B1DDE9" points="36.6780822 3.74428474 36.6780822 35.0666667 5.53767123 35.0666667 5.53767123 3.74428474"></polygon>
                                        <path d="M36.6780822,21.0976044 L36.6780822,23.4017796 L17.1164384,3.74428474 L19.4178082,3.74428474 L36.6780822,21.0976044 L36.6780822,21.0976044 Z M36.6780822,27.9381246 L36.6780822,32.546475 L7.98287671,3.74428474 L12.5856164,3.74428474 L36.6780822,27.9381246 L36.6780822,27.9381246 Z M36.6780822,34.8506502 L36.6780822,35.1386721 L34.6643836,35.1386721 L5.60958904,5.97645448 L5.60958904,3.74428474 L5.75342466,3.74428474 L36.6780822,34.8506502 L36.6780822,34.8506502 L36.6780822,34.8506502 Z" id="path1671" fill="#C7E6EF"></path>
                                        <polygon id="path1673" fill="#91CAD5" points="36.6780822 3.74428474 5.53767123 3.74428474 5.53767123 4.68035592 36.6780822 4.68035592 36.6780822 3.74428474"></polygon>
                                        <polygon id="path1675" fill="#91CAD5" points="16.7568493 3.74428474 16.7568493 35.0666667 17.6917808 35.0666667 17.6917808 3.74428474 16.7568493 3.74428474"></polygon>
                                        <polygon id="path1677" fill="#91CAD5" points="36.6780822 15.0491444 5.75342466 15.0491444 5.75342466 15.9852156 36.6780822 15.9852156"></polygon>
                                        <polygon id="polygon1679" fill="#96B6BE" points="15.1746575 35.1386721 15.1746575 0.576043806 16.7568493 0.576043806 16.7568493 35.1386721"></polygon>
                                        <polygon id="polygon1681" fill="#96B6BE" points="25.5308219 35.1386721 25.5308219 0.576043806 27.1130137 0.576043806 27.1130137 35.1386721"></polygon>
                                        <polygon id="path1683" fill="#91CAD5" points="27.1130137 3.74428474 27.1130137 35.0666667 28.0479452 35.0666667 28.0479452 3.74428474 27.1130137 3.74428474"></polygon>
                                        <polygon id="path1685" fill="#91CAD5" points="5.53767123 3.74428474 5.53767123 35.0666667 6.47260274 35.0666667 6.47260274 3.74428474 5.53767123 3.74428474"></polygon>
                                        <polygon id="polygon1687" fill="#96B6BE" points="3.88356164 13.3930185 38.4041096 13.3930185 38.4041096 14.9771389 3.88356164 14.9771389 3.88356164 13.3930185"></polygon>
                                        <polygon id="path1689" fill="#88A5AB" points="2.37328767 0.576043806 2.37328767 35.1386721 4.24315068 35.1386721 4.24315068 0.576043806 2.37328767 0.576043806"></polygon>
                                        <polygon id="path1691" fill="#88A5AB" points="39.8424658 0.576043806 3.23630137 0.576043806 3.23630137 2.44818617 39.8424658 2.44818617 39.8424658 0.576043806"></polygon>
                                        <polygon id="polygon1693" fill="#ABC5CB" points="0.287671233 34.202601 42 34.202601 42 40.3950719 0.287671233 40.3950719 0.287671233 34.202601"></polygon>
                                        <polygon id="polygon1695" fill="#88A5AB" points="42 40.3950719 42 34.202601 48.1849315 40.3950719 48.1849315 46.5875428 6.47260274 46.5875428 0.287671233 40.3950719 6.47260274 40.3950719"></polygon>
                                    </g>
                                    <g id="g1697">
                                        <polygon id="path1699" fill="#96B6BE" points="39.8424658 0.144010951 39.8424658 34.7066393 2.37328767 34.7066393 2.37328767 0.144010951"></polygon>
                                        <polygon id="polygon1701" fill="#B1DDE9" points="36.6780822 3.38425736 36.6780822 34.7066393 5.53767123 34.7066393 5.53767123 3.38425736"></polygon>
                                        <path d="M36.6780822,20.6655715 L36.6780822,22.9697467 L17.1164384,3.31225188 L19.4178082,3.31225188 L36.6780822,20.6655715 L36.6780822,20.6655715 Z M36.6780822,27.5780972 L36.6780822,32.1864476 L7.98287671,3.38425736 L12.5856164,3.38425736 L36.6780822,27.5780972 L36.6780822,27.5780972 Z M36.6780822,34.4906229 L36.6780822,34.7786448 L34.6643836,34.7786448 L5.60958904,5.6164271 L5.60958904,3.38425736 L5.75342466,3.38425736 L36.6780822,34.4906229 L36.6780822,34.4906229 L36.6780822,34.4906229 Z" id="path1703" fill="#C7E6EF"></path>
                                        <polygon id="path1705" fill="#91CAD5" points="36.6780822 3.38425736 5.53767123 3.38425736 5.53767123 4.32032854 36.6780822 4.32032854 36.6780822 3.38425736"></polygon>
                                        <polygon id="path1707" fill="#91CAD5" points="16.7568493 3.38425736 16.7568493 34.7066393 17.6917808 34.7066393 17.6917808 3.38425736 16.7568493 3.38425736"></polygon>
                                        <polygon id="path1709" fill="#91CAD5" points="36.6780822 14.6171116 5.75342466 14.6171116 5.75342466 15.5531828 36.6780822 15.5531828"></polygon>
                                        <polygon id="polygon1711" fill="#96B6BE" points="15.1746575 34.7066393 15.1746575 0.144010951 16.7568493 0.144010951 16.7568493 34.7066393"></polygon>
                                        <polygon id="polygon1713" fill="#96B6BE" points="25.5308219 34.7066393 25.5308219 0.144010951 27.1130137 0.144010951 27.1130137 34.7066393"></polygon>
                                        <polygon id="path1715" fill="#91CAD5" points="27.1130137 3.38425736 27.1130137 34.7066393 28.0479452 34.7066393 28.0479452 3.38425736 27.1130137 3.38425736"></polygon>
                                        <polygon id="path1717" fill="#91CAD5" points="5.53767123 3.38425736 5.53767123 34.7066393 6.47260274 34.7066393 6.47260274 3.38425736 5.53767123 3.38425736"></polygon>
                                        <polygon id="polygon1719" fill="#96B6BE" points="3.88356164 13.0329911 38.4041096 13.0329911 38.4041096 14.6171116 3.88356164 14.6171116 3.88356164 13.0329911"></polygon>
                                        <polygon id="path1721" fill="#88A5AB" points="2.37328767 0.144010951 2.37328767 34.7066393 4.24315068 34.7066393 4.24315068 0.144010951 2.37328767 0.144010951"></polygon>
                                        <polygon id="path1723" fill="#88A5AB" points="39.8424658 0.144010951 3.23630137 0.144010951 3.23630137 2.01615332 39.8424658 2.01615332 39.8424658 0.144010951"></polygon>
                                        <polygon id="polygon1725" fill="#ABC5CB" points="0.287671233 33.7705681 42 33.7705681 42 39.963039 0.287671233 39.963039 0.287671233 33.7705681"></polygon>
                                        <polygon id="polygon1727" fill="#88A5AB" points="42 40.0350445 42 33.8425736 48.1849315 40.0350445 48.1849315 46.2275154 6.47260274 46.2275154 0.287671233 40.0350445 6.47260274 40.0350445"></polygon>
                                    </g>
                                </g>
                                <g id="g1729" transform="translate(64.726027, 104.407940)">
                                    <g id="g1731" transform="translate(0.000000, 53.284052)">
                                        <polygon id="path1733" fill="#96B6BE" points="39.6267123 0 39.6267123 34.5626283 2.15753425 34.5626283 2.15753425 0"></polygon>
                                        <polygon id="polygon1735" fill="#B1DDE9" points="36.4623288 3.24024641 36.4623288 34.5626283 5.32191781 34.5626283 5.32191781 3.24024641"></polygon>
                                        <path d="M36.4623288,20.5215606 L36.4623288,22.8257358 L16.9006849,3.16824093 L19.2020548,3.16824093 L36.4623288,20.5215606 L36.4623288,20.5215606 Z M36.4623288,27.4340862 L36.4623288,32.0424367 L7.76712329,3.24024641 L12.2979452,3.24024641 L36.4623288,27.4340862 L36.4623288,27.4340862 Z M36.4623288,34.2746064 L36.4623288,34.5626283 L34.4486301,34.5626283 L5.39383562,5.40041068 L5.39383562,3.16824093 L5.53767123,3.16824093 L36.4623288,34.2746064 L36.4623288,34.2746064 L36.4623288,34.2746064 Z" id="path1737" fill="#C7E6EF"></path>
                                        <polygon id="path1739" fill="#91CAD5" points="36.4623288 3.24024641 5.32191781 3.24024641 5.32191781 4.17631759 36.4623288 4.17631759 36.4623288 3.24024641"></polygon>
                                        <polygon id="path1741" fill="#91CAD5" points="16.5410959 3.24024641 16.5410959 34.5626283 17.4760274 34.5626283 17.4760274 3.24024641 16.5410959 3.24024641"></polygon>
                                        <polygon id="path1743" fill="#91CAD5" points="36.4623288 14.4731006 5.53767123 14.4731006 5.53767123 15.4091718 36.4623288 15.4091718"></polygon>
                                        <polygon id="polygon1745" fill="#96B6BE" points="14.8869863 34.5626283 14.8869863 0 16.4691781 0 16.4691781 34.5626283 14.8869863 34.5626283"></polygon>
                                        <polygon id="polygon1747" fill="#96B6BE" points="25.3150685 34.5626283 25.3150685 0 26.8972603 0 26.8972603 34.5626283 25.3150685 34.5626283"></polygon>
                                        <polygon id="path1749" fill="#91CAD5" points="26.8972603 3.24024641 26.8972603 34.5626283 27.8321918 34.5626283 27.8321918 3.24024641 26.8972603 3.24024641"></polygon>
                                        <polygon id="path1751" fill="#91CAD5" points="5.32191781 3.24024641 5.32191781 34.5626283 6.25684932 34.5626283 6.25684932 3.24024641 5.32191781 3.24024641"></polygon>
                                        <polygon id="polygon1753" fill="#96B6BE" points="3.66780822 12.8889802 38.1883562 12.8889802 38.1883562 14.4731006 3.66780822 14.4731006"></polygon>
                                        <polygon id="path1755" fill="#88A5AB" points="2.15753425 0 2.15753425 34.5626283 4.02739726 34.5626283 4.02739726 0 2.15753425 0"></polygon>
                                        <polygon id="path1757" fill="#88A5AB" points="39.6267123 0 3.02054795 0 3.02054795 1.87214237 39.6267123 1.87214237 39.6267123 0"></polygon>
                                        <polygon id="polygon1759" fill="#ABC5CB" points="0.0719178082 33.6265572 41.7842466 33.6265572 41.7842466 39.8190281 0.0719178082 39.8190281"></polygon>
                                        <polygon id="polygon1761" fill="#88A5AB" points="41.7842466 39.8910335 41.7842466 33.6985626 47.9691781 39.8910335 47.9691781 46.0835044 6.25684932 46.0835044 0.0719178082 39.8910335 6.25684932 39.8910335"></polygon>
                                    </g>
                                    <g id="g1763" transform="translate(0.000000, 105.848049)">
                                        <polygon id="path1765" fill="#96B6BE" points="39.6267123 0.576043806 39.6267123 35.1386721 2.15753425 35.1386721 2.15753425 0.576043806"></polygon>
                                        <polygon id="polygon1767" fill="#B1DDE9" points="36.4623288 3.74428474 36.4623288 35.0666667 5.32191781 35.0666667 5.32191781 3.74428474"></polygon>
                                        <path d="M36.4623288,21.0976044 L36.4623288,23.4017796 L16.9006849,3.74428474 L19.2020548,3.74428474 L36.4623288,21.0976044 L36.4623288,21.0976044 Z M36.4623288,27.9381246 L36.4623288,32.546475 L7.76712329,3.74428474 L12.2979452,3.74428474 L36.4623288,27.9381246 L36.4623288,27.9381246 Z M36.4623288,34.8506502 L36.4623288,35.1386721 L34.4486301,35.1386721 L5.39383562,5.97645448 L5.39383562,3.74428474 L5.53767123,3.74428474 L36.4623288,34.8506502 L36.4623288,34.8506502 L36.4623288,34.8506502 Z" id="path1769" fill="#C7E6EF"></path>
                                        <polygon id="path1771" fill="#91CAD5" points="36.4623288 3.74428474 5.32191781 3.74428474 5.32191781 4.68035592 36.4623288 4.68035592 36.4623288 3.74428474"></polygon>
                                        <polygon id="path1773" fill="#91CAD5" points="16.5410959 3.74428474 16.5410959 35.0666667 17.4760274 35.0666667 17.4760274 3.74428474 16.5410959 3.74428474"></polygon>
                                        <polygon id="path1775" fill="#91CAD5" points="36.4623288 15.0491444 5.53767123 15.0491444 5.53767123 15.9852156 36.4623288 15.9852156"></polygon>
                                        <polygon id="polygon1777" fill="#96B6BE" points="14.8869863 35.1386721 14.8869863 0.576043806 16.4691781 0.576043806 16.4691781 35.1386721"></polygon>
                                        <polygon id="polygon1779" fill="#96B6BE" points="25.3150685 35.1386721 25.3150685 0.576043806 26.8972603 0.576043806 26.8972603 35.1386721"></polygon>
                                        <polygon id="path1781" fill="#91CAD5" points="26.8972603 3.74428474 26.8972603 35.0666667 27.8321918 35.0666667 27.8321918 3.74428474 26.8972603 3.74428474"></polygon>
                                        <polygon id="path1783" fill="#91CAD5" points="5.32191781 3.74428474 5.32191781 35.0666667 6.25684932 35.0666667 6.25684932 3.74428474 5.32191781 3.74428474"></polygon>
                                        <polygon id="polygon1785" fill="#96B6BE" points="3.66780822 13.3930185 38.1883562 13.3930185 38.1883562 14.9771389 3.66780822 14.9771389"></polygon>
                                        <polygon id="path1787" fill="#88A5AB" points="2.15753425 0.576043806 2.15753425 35.1386721 4.02739726 35.1386721 4.02739726 0.576043806 2.15753425 0.576043806"></polygon>
                                        <polygon id="path1789" fill="#88A5AB" points="39.6267123 0.576043806 3.02054795 0.576043806 3.02054795 2.44818617 39.6267123 2.44818617 39.6267123 0.576043806"></polygon>
                                        <polygon id="polygon1791" fill="#ABC5CB" points="0.0719178082 34.202601 41.7842466 34.202601 41.7842466 40.3950719 0.0719178082 40.3950719"></polygon>
                                        <polygon id="polygon1793" fill="#88A5AB" points="41.7842466 40.3950719 41.7842466 34.202601 47.9691781 40.3950719 47.9691781 46.5875428 6.25684932 46.5875428 0.0719178082 40.3950719 6.25684932 40.3950719"></polygon>
                                    </g>
                                    <g id="g1795">
                                        <polygon id="path1797" fill="#96B6BE" points="39.6267123 0.144010951 39.6267123 34.7066393 2.15753425 34.7066393 2.15753425 0.144010951"></polygon>
                                        <polygon id="polygon1799" fill="#B1DDE9" points="36.4623288 3.38425736 36.4623288 34.7066393 5.32191781 34.7066393 5.32191781 3.38425736"></polygon>
                                        <path d="M36.4623288,20.6655715 L36.4623288,22.9697467 L16.9006849,3.31225188 L19.2020548,3.31225188 L36.4623288,20.6655715 L36.4623288,20.6655715 Z M36.4623288,27.5780972 L36.4623288,32.1864476 L7.76712329,3.38425736 L12.2979452,3.38425736 L36.4623288,27.5780972 L36.4623288,27.5780972 Z M36.4623288,34.4906229 L36.4623288,34.7786448 L34.4486301,34.7786448 L5.39383562,5.6164271 L5.39383562,3.38425736 L5.53767123,3.38425736 L36.4623288,34.4906229 L36.4623288,34.4906229 L36.4623288,34.4906229 Z" id="path1801" fill="#C7E6EF"></path>
                                        <polygon id="path1803" fill="#91CAD5" points="36.4623288 3.38425736 5.32191781 3.38425736 5.32191781 4.32032854 36.4623288 4.32032854 36.4623288 3.38425736"></polygon>
                                        <polygon id="path1805" fill="#91CAD5" points="16.5410959 3.38425736 16.5410959 34.7066393 17.4760274 34.7066393 17.4760274 3.38425736 16.5410959 3.38425736"></polygon>
                                        <polygon id="path1807" fill="#91CAD5" points="36.4623288 14.6171116 5.53767123 14.6171116 5.53767123 15.5531828 36.4623288 15.5531828"></polygon>
                                        <polygon id="polygon1809" fill="#96B6BE" points="14.8869863 34.7066393 14.8869863 0.144010951 16.4691781 0.144010951 16.4691781 34.7066393"></polygon>
                                        <polygon id="polygon1811" fill="#96B6BE" points="25.3150685 34.7066393 25.3150685 0.144010951 26.8972603 0.144010951 26.8972603 34.7066393"></polygon>
                                        <polygon id="path1813" fill="#91CAD5" points="26.8972603 3.38425736 26.8972603 34.7066393 27.8321918 34.7066393 27.8321918 3.38425736 26.8972603 3.38425736"></polygon>
                                        <polygon id="path1815" fill="#91CAD5" points="5.32191781 3.38425736 5.32191781 34.7066393 6.25684932 34.7066393 6.25684932 3.38425736 5.32191781 3.38425736"></polygon>
                                        <polygon id="polygon1817" fill="#96B6BE" points="3.66780822 13.0329911 38.1883562 13.0329911 38.1883562 14.6171116 3.66780822 14.6171116"></polygon>
                                        <polygon id="path1819" fill="#88A5AB" points="2.15753425 0.144010951 2.15753425 34.7066393 4.02739726 34.7066393 4.02739726 0.144010951 2.15753425 0.144010951"></polygon>
                                        <polygon id="path1821" fill="#88A5AB" points="39.6267123 0.144010951 3.02054795 0.144010951 3.02054795 2.01615332 39.6267123 2.01615332 39.6267123 0.144010951"></polygon>
                                        <polygon id="polygon1823" fill="#ABC5CB" points="0.0719178082 33.7705681 41.7842466 33.7705681 41.7842466 39.963039 0.0719178082 39.963039"></polygon>
                                        <polygon id="polygon1825" fill="#88A5AB" points="41.7842466 40.0350445 41.7842466 33.8425736 47.9691781 40.0350445 47.9691781 46.2275154 6.25684932 46.2275154 0.0719178082 40.0350445 6.25684932 40.0350445"></polygon>
                                    </g>
                                </g>
                            </g>
                            <g id="Group" transform="translate(16.541096, 123.849418)">
                                <path d="M60.5547945,159.708145 C27.3287671,159.492129 0.359589041,132.490075 0.359589041,99.2235455 C0.359589041,65.8130048 27.2568493,38.8109514 60.5547945,38.594935 L60.5547945,52.4199863 C34.9520548,52.6360027 14.239726,73.4455852 14.239726,99.2235455 C14.239726,124.857495 34.9520548,145.739083 60.5547945,145.883094 L60.5547945,159.708145 L60.5547945,159.708145 Z" id="Shape" fill="#403C4E"></path>
                                <path d="M2.94863014,117.008898 C5.89726027,126.729637 11.3630137,135.370294 18.3390411,142.354825 L18.3390411,118.665024 C17.1164384,116.000821 16.109589,113.192608 15.4623288,110.384394 L2.94863014,117.008898 L2.94863014,117.008898 L2.94863014,117.008898 Z M50.3424658,158.772074 C53.7226027,159.348118 57.2465753,159.708145 60.8424658,159.708145 L61.130137,159.708145 L61.130137,145.883094 L60.8424658,145.883094 C57.2465753,145.883094 53.7226027,145.523066 50.3424658,144.659001 C50.3424658,144.659001 50.3424658,158.772074 50.3424658,158.772074 L50.3424658,158.772074 Z" id="Shape" fill="#E4BC8E"></path>
                                <path d="M103.273973,158.340041 L103.273973,56.0202601 C92.3424658,45.2194387 77.3835616,38.594935 60.7705479,38.594935 C44.3013699,38.594935 29.2705479,45.2194387 18.4109589,55.9482546 L18.4109589,158.340041 C32.0753425,162.876386 46.2431507,165.180561 60.9143836,165.180561 C75.4417808,165.180561 89.7534247,162.876386 103.273973,158.340041 L103.273973,158.340041 Z" id="Shape" fill="#403C4E"></path>
                                <path d="M103.273973,158.340041 L103.273973,142.28282 C114.421233,131.337988 121.253425,116.072827 121.253425,99.2235455 C121.253425,82.3742642 114.349315,67.1091034 103.273973,56.164271 L103.273973,56.164271 C103.058219,55.9482546 102.914384,55.8042437 102.69863,55.5882272 C102.482877,55.3722108 102.410959,55.3002053 102.267123,55.1561944 C102.05137,54.940178 101.907534,54.796167 101.691781,54.5801506 C101.476027,54.3641342 101.332192,54.2921287 101.260274,54.1481177 C101.044521,53.9321013 100.900685,53.7880903 100.684932,53.5720739 C100.469178,53.3560575 100.39726,53.284052 100.253425,53.1400411 C100.037671,52.9240246 99.8938356,52.7800137 99.6061644,52.5639973 C99.390411,52.3479808 99.2465753,52.2759754 99.1746575,52.2039699 C98.9589041,51.9879535 98.7431507,51.8439425 98.5273973,51.6279261 C98.3116438,51.5559206 98.239726,51.3399042 98.0958904,51.2678987 C97.880137,51.0518823 97.6643836,50.9078713 97.4486301,50.6918549 C97.2328767,50.6198494 97.1609589,50.403833 97.0171233,50.3318275 C96.7294521,50.1158111 96.5856164,49.9718001 96.2979452,49.7557837 C96.0821918,49.6837782 96.010274,49.5397673 95.8664384,49.3957563 C95.5787671,49.1797399 95.4349315,49.035729 95.1472603,48.8197125 C94.9315068,48.747707 94.859589,48.6036961 94.7157534,48.5316906 C94.4280822,48.3156742 94.2842466,48.1716632 93.9965753,48.0996578 C93.7808219,48.0276523 93.7089041,47.8836413 93.5650685,47.8116359 C93.2773973,47.5956194 92.989726,47.4516085 92.7020548,47.379603 C92.4863014,47.3075975 92.4143836,47.1635866 92.2705479,47.0915811 C91.9828767,46.8755647 91.6952055,46.7315537 91.4075342,46.6595483 C91.1917808,46.5875428 91.119863,46.4435318 90.9760274,46.3715264 C90.6883562,46.1555099 90.4006849,46.0835044 90.1130137,45.9394935 C90.0410959,45.867488 89.8253425,45.7234771 89.7534247,45.7234771 C89.4657534,45.5074606 89.1780822,45.4354552 88.8184932,45.2914442 L88.4589041,45.0754278 C88.1712329,44.8594114 87.8116438,44.7874059 87.5239726,44.6433949 C87.4520548,44.5713895 87.2363014,44.5713895 87.1643836,44.4273785 C86.8047945,44.2113621 86.5171233,44.1393566 86.1575342,43.9953457 L85.7979452,43.7793292 C85.4383562,43.5633128 85.1506849,43.4913073 84.7910959,43.3472964 L84.4315068,43.3472964 C84.0719178,43.1312799 83.7842466,43.0592745 83.4246575,42.9152635 L83.0650685,42.843258 C82.7054795,42.6272416 82.3458904,42.5552361 81.9863014,42.4832307 L81.7705479,42.2672142 C81.4109589,42.0511978 81.0513699,41.9791923 80.6917808,41.9071869 L80.4041096,41.8351814 C80.0445205,41.7631759 79.6849315,41.5471595 79.1815068,41.475154 L78.8938356,41.4031485 C78.5342466,41.3311431 78.0308219,41.1151266 77.6712329,41.0431211 L77.4554795,40.9711157 C77.0958904,40.8991102 76.5924658,40.7550992 76.2328767,40.6110883 L76.0171233,40.6110883 C75.6575342,40.5390828 75.1541096,40.3950719 74.7226027,40.3230664 L74.5068493,40.2510609 C74.0753425,40.1790554 73.6438356,40.0350445 73.2123288,39.963039 L72.9965753,39.963039 C72.5650685,39.8910335 72.0616438,39.7470226 71.7020548,39.6750171 L71.4863014,39.6750171 C71.0547945,39.6030116 70.5513699,39.4590007 70.119863,39.4590007 L70.0479452,39.4590007 C69.6164384,39.3869952 69.1130137,39.3869952 68.6815068,39.2429843 L68.609589,39.2429843 C68.1780822,39.1709788 67.6746575,39.1709788 67.1712329,39.0269678 L67.0993151,39.0269678 C66.6678082,38.9549624 66.0924658,38.9549624 65.6609589,38.9549624 L65.4452055,38.9549624 C65.0136986,38.9549624 64.4383562,38.8829569 64.0068493,38.8829569 L64.0068493,38.8829569 C63,38.8109514 61.9931507,38.8109514 60.8424658,38.8109514 L60.8424658,38.8109514 L60.8424658,38.8109514 L60.8424658,38.8109514 L60.8424658,38.8109514 L60.8424658,38.8109514 L60.8424658,38.8109514 L60.8424658,38.8109514 L60.8424658,38.8109514 L60.8424658,38.8109514 L60.8424658,38.8109514 L60.8424658,38.8109514 L60.8424658,38.8109514 L60.8424658,38.8109514 L60.8424658,38.8109514 L60.8424658,38.8109514 L60.8424658,38.8109514 L60.8424658,38.8109514 L60.8424658,38.8109514 L60.8424658,38.8109514 L60.8424658,38.8109514 L60.8424658,38.8109514 L60.8424658,38.8109514 L60.6267123,38.8109514 L60.6267123,38.8109514 L60.6267123,52.5639973 L60.6267123,145.883094 L60.6267123,159.708145 L60.6267123,165.180561 L60.9863014,165.180561 C75.4417808,165.180561 89.7534247,162.876386 103.273973,158.340041 L103.273973,158.340041 L103.273973,158.340041 Z M103.273973,118.377002 L103.273973,79.926078 C105.934932,85.830527 107.445205,92.3110198 107.445205,99.2235455 C107.445205,106.064066 105.934932,112.616564 103.273973,118.377002 L103.273973,118.377002 Z" id="Shape" fill="#32303D"></path>
                                <path d="M118.664384,117.008898 C115.715753,126.729637 110.393836,135.370294 103.34589,142.28282 L103.34589,118.377002 C104.568493,115.784805 105.431507,113.120602 106.078767,110.384394 L118.664384,117.008898 L118.664384,117.008898 Z" id="Shape" fill="#E1AF74"></path>
                                <path d="M34.6643836,46.1555099 C34.6643836,60.5566051 46.4589041,72.3655031 60.8424658,72.3655031 C75.2260274,72.3655031 87.0205479,60.5566051 87.0205479,46.1555099 C87.0205479,45.0754278 87.0924658,33.0505133 86.9486301,33.0505133 C86.6609589,29.4502396 85.7260274,25.9219713 84.2157534,22.8977413 L37.4691781,22.8977413 C35.8869863,25.9219713 34.880137,29.4502396 34.7363014,33.0505133 C34.5924658,33.0505133 34.6643836,45.6514716 34.6643836,46.1555099 L34.6643836,46.1555099 L34.6643836,46.1555099 Z" id="Shape" fill="#E4BB8F"></path>
                                <path d="M60.8424658,72.3655031 C75.2260274,72.3655031 87.0205479,60.5566051 87.0205479,46.1555099 C87.0205479,40.4670773 87.0205479,46.5875428 87.0205479,40.8271047 L87.0205479,37.5148528 L87.0205479,34.8506502 L87.0205479,33.1225188 C86.7328767,29.522245 85.7979452,25.9939767 84.2876712,22.9697467 L60.9143836,22.9697467 L60.9143836,33.1225188 L60.9143836,37.5148528 L60.9143836,72.3655031 L60.8424658,72.3655031 Z" id="Shape" fill="#E0B074"></path>
                                <ellipse id="Oval" fill="#E1594D" cx="79.9006849" cy="47.3075975" rx="3.59589041" ry="3.60027379"></ellipse>
                                <path d="M60.8424658,47.4516085 C59.4760274,47.4516085 58.2534247,48.5316906 58.2534247,50.0438056 C58.2534247,50.3318275 58.3253425,50.6198494 58.4691781,50.9078713 L63.2876712,50.9078713 C63.359589,50.6198494 63.5034247,50.3318275 63.5034247,50.0438056 C63.4315068,48.6036961 62.2089041,47.4516085 60.8424658,47.4516085 L60.8424658,47.4516085 Z" id="Shape" fill="#E1594D"></path>
                                <ellipse id="Oval" fill="#1F3654" cx="51.2054795" cy="42.2672142" rx="3.59589041" ry="3.60027379"></ellipse>
                                <ellipse id="Oval" fill="#FFFFFF" cx="50.0547945" cy="42.2672142" rx="1.22260274" ry="1.22409309"></ellipse>
                                <ellipse id="Oval" fill="#1F3654" cx="70.4075342" cy="42.2672142" rx="3.59589041" ry="3.60027379"></ellipse>
                                <ellipse id="Oval" fill="#FFFFFF" cx="69.2568493" cy="42.2672142" rx="1.22260274" ry="1.22409309"></ellipse>
                                <ellipse id="Oval" fill="#E1594D" cx="41.8561644" cy="47.3075975" rx="3.59589041" ry="3.60027379"></ellipse>
                                <path d="M86.5171233,51.4119097 C89.4657534,51.4119097 91.8390411,49.035729 91.8390411,46.0835044 C91.8390411,43.1312799 89.4657534,40.7550992 86.5171233,40.7550992 L86.5171233,51.4119097 L86.5171233,51.4119097 Z" id="Shape" fill="#E0B074"></path>
                                <path d="M35.1678082,40.8271047 C32.2191781,40.8271047 29.8458904,43.2032854 29.8458904,46.1555099 C29.8458904,49.1077344 32.2191781,51.4839151 35.1678082,51.4839151 L35.1678082,40.8271047 L35.1678082,40.8271047 Z" id="Shape" fill="#E4BB8F"></path>
                                <path d="M35.1678082,43.4193018 C33.7294521,43.4193018 32.5068493,44.6433949 32.5068493,46.0835044 C32.5068493,47.523614 33.7294521,48.747707 35.1678082,48.747707 L35.1678082,43.4193018 L35.1678082,43.4193018 Z" id="Shape" fill="#E7A958"></path>
                                <path d="M86.5171233,43.4193018 C87.9554795,43.4193018 89.1780822,44.6433949 89.1780822,46.0835044 C89.1780822,47.523614 87.9554795,48.747707 86.5171233,48.747707 L86.5171233,43.4193018 L86.5171233,43.4193018 Z" id="Shape" fill="#E7A958"></path>
                                <path d="M59.8356164,50.6198494 C68.0342466,48.6036961 75.8013699,51.4839151 77.1678082,57.1723477 L47.609589,64.5169062 C46.1712329,58.9004791 51.7089041,52.6360027 59.8356164,50.6198494 L59.8356164,50.6198494 Z" id="Shape" fill="#B0784A"></path>
                                <path d="M34.6643836,27.0740589 L37.5410959,27.0740589 L37.5410959,41.4031485 C36.8219178,41.0431211 36.1027397,40.8271047 35.1678082,40.8271047 L34.5924658,40.8271047 L34.5924658,27.0740589 L34.6643836,27.0740589 L34.6643836,27.0740589 Z" id="Shape" fill="#B0784A"></path>
                                <path d="M87.0924658,27.0740589 L84.2157534,27.0740589 L84.2157534,41.4031485 C84.9349315,41.0431211 85.6541096,40.8271047 86.5890411,40.8271047 L87.1643836,40.8271047 L87.1643836,27.0740589 L87.0924658,27.0740589 L87.0924658,27.0740589 Z" id="Shape" fill="#B0784A"></path>
                                <path d="M83.2808219,36.7947981 C83.2808219,45.3634497 73.140411,52.2759754 60.6267123,52.2759754 C48.1130137,52.2759754 37.9726027,45.3634497 37.9726027,36.7947981 L83.2808219,36.7947981 L83.2808219,36.7947981 Z" id="Shape" fill="#1F3654"></path>
                                <path d="M87.0924658,24.4818617 L87.0924658,34.9946612 L87.0924658,35.3546886 L87.0924658,35.3546886 C80.619863,39.8910335 71.2705479,42.6272416 60.9143836,42.6272416 C50.630137,42.6272416 41.2089041,39.8910335 34.7363014,35.3546886 L34.7363014,35.3546886 L34.7363014,34.9946612 L34.7363014,24.4818617 C41.2089041,29.0182067 50.5582192,31.7544148 60.9143836,31.7544148 C71.1986301,31.7544148 80.5479452,29.0182067 87.0924658,24.4818617 L87.0924658,24.4818617 Z" id="Shape" fill="#F8B947"></path>
                                <path d="M87.0924658,24.4818617 L87.0924658,34.9946612 L87.0924658,35.3546886 L87.0924658,35.3546886 C80.619863,39.8910335 71.2705479,42.6272416 60.9143836,42.6272416 L60.9143836,31.7544148 C71.1986301,31.7544148 80.5479452,29.0182067 87.0924658,24.4818617 L87.0924658,24.4818617 Z" id="Shape" fill="#DFA73F"></path>
                                <path d="M95.4349315,16.1292266 L95.4349315,16.5612594 C95.4349315,28.298152 79.7568493,37.8028747 60.4109589,37.8028747 C41.0650685,37.8028747 25.3869863,28.298152 25.3869863,16.5612594 L25.3869863,16.1292266 L95.4349315,16.1292266 L95.4349315,16.1292266 Z" id="Shape" fill="#494659"></path>
                                <ellipse id="Oval" fill="#32303D" cx="60.4828767" cy="15.6971937" rx="35.0239726" ry="15.6251882"></ellipse>
                                <ellipse id="Oval" fill="#BC4443" cx="61.2739726" cy="37.6588638" rx="7.11986301" ry="3.02422998"></ellipse>
                                <ellipse id="Oval" fill="#F8B947" cx="48.1849315" cy="80.7901437" rx="3.23630137" ry="3.24024641"></ellipse>
                                <ellipse id="Oval" fill="#F8B947" cx="48.1849315" cy="97.3514031" rx="3.23630137" ry="3.24024641"></ellipse>
                                <ellipse id="Oval" fill="#F8B947" cx="48.1849315" cy="113.984668" rx="3.23630137" ry="3.24024641"></ellipse>
                                <ellipse id="Oval" fill="#F8B947" cx="48.1849315" cy="130.545927" rx="3.23630137" ry="3.24024641"></ellipse>
                                <ellipse id="Oval" fill="#F8B947" cx="73.5" cy="80.7901437" rx="3.23630137" ry="3.24024641"></ellipse>
                                <path d="M73.5,94.1111567 C75.2260274,94.1111567 76.7363014,95.5512663 76.7363014,97.3514031 C76.7363014,99.0795346 75.2979452,100.59165 73.5,100.59165 C71.7020548,100.59165 70.2636986,99.15154 70.2636986,97.3514031 C70.3356164,95.6232717 71.7739726,94.1111567 73.5,94.1111567 L73.5,94.1111567 L73.5,94.1111567 Z" id="Shape" fill="#E9AF3F"></path>
                                <path d="M2.94863014,117.008898 C3.30821918,118.304997 3.81164384,119.673101 4.31506849,120.897194 L16.6849315,114.344695 C16.2534247,113.048597 15.8219178,111.680493 15.4623288,110.384394 L2.94863014,117.008898 L2.94863014,117.008898 L2.94863014,117.008898 Z" id="Shape" fill="#2A2934"></path>
                                <path d="M118.736301,116.576865 C118.376712,117.872964 117.873288,119.241068 117.369863,120.465161 L105,113.912663 C105.431507,112.616564 105.863014,111.24846 106.222603,109.952361 L118.736301,116.576865 L118.736301,116.576865 Z" id="Shape" fill="#2A2934"></path>
                                <ellipse id="Oval" fill="#F8B947" cx="73.5" cy="113.984668" rx="3.23630137" ry="3.24024641"></ellipse>
                                <ellipse id="Oval" fill="#F8B947" cx="73.5" cy="130.545927" rx="3.23630137" ry="3.24024641"></ellipse>
                            </g>
                        </g>
                    </g>
                </g>
            </g>
        </g>
    </g>
</svg>