<?xml version="1.0" encoding="UTF-8" standalone="no"?>
<svg width="143px" height="115px" viewBox="0 0 143 115" version="1.1" xmlns="http://www.w3.org/2000/svg" xmlns:xlink="http://www.w3.org/1999/xlink">
    <!-- Generator: sketchtool 40.3 (33839) - http://www.bohemiancoding.com/sketch -->
    <title>A99B7BDE-EFAB-4D22-8ADE-DCC97760B802</title>
    <desc>Created with sketchtool.</desc>
    <defs></defs>
    <g id="main" stroke="none" stroke-width="1" fill="none" fill-rule="evenodd">
        <g id="slider" transform="translate(-424.000000, -90.000000)">
            <g id="1.13-illustration-slider#2" transform="translate(424.000000, 90.000000)">
                <g id="Слой_x0020_1">
                    <g id="_1066055680">
                        <path d="M15.0538266,86.0930833 L6.13051762,91.2741887 L6.13051762,91.2741887 L6.13051762,91.2741887 C5.75587488,91.4910192 5.63099397,91.9703285 5.84669736,92.3355165 C5.93751985,92.4838742 6.06240076,92.5979954 6.2099873,92.6664682 L10.2288822,94.7092389 L9.97912036,99.228441 C9.95641473,99.3882108 9.99047317,99.5593927 10.0812956,99.7077503 C10.296999,100.084351 10.7738171,100.209884 11.137107,99.9930535 L11.137107,99.9930535 L11.137107,99.9930535 L20.060416,94.811948 C23.1370276,93.0316562 18.1304382,84.3127915 15.0538266,86.0930833 L15.0538266,86.0930833 Z" id="Shape" fill="#EEC281"></path>
                        <path d="M6.13051762,91.2741887 L6.13051762,91.2741887 L6.13051762,91.2741887 L6.13051762,91.2741887 C5.75587488,91.4910192 5.63099397,91.9703285 5.84669736,92.3355165 C5.93751985,92.4838742 6.06240076,92.5979954 6.2099873,92.6664682 L10.2288822,94.7092389 L9.97912036,99.228441 C9.95641473,99.3882108 9.99047317,99.5593927 10.0812956,99.7077503 C10.296999,100.084351 10.7738171,100.209884 11.137107,99.9930535 L11.137107,99.9930535 L11.137107,99.9930535 L16.586456,96.8318944 C13.5893141,98.5779498 8.74166402,90.304158 11.375516,88.2613873 L11.375516,88.2613873 L6.13051762,91.2856009 L6.13051762,91.2741887 Z" id="Shape" fill="#E7A958"></path>
                        <path d="M118.954748,42.3960504 C122.80335,40.5929344 126.72007,34.8982832 124.971737,31.4175846 C123.234757,27.936886 119.181804,30.6872085 119.624563,34.2363799 C121.009606,42.1563958 133.168466,38.3105091 134.008574,32.809864" id="Shape" stroke="#F1CD9F" stroke-width="2.13555514"></path>
                        <path d="M13.1465545,41.6200258 L15.8939346,46.413119 L20.48047,54.4130197 L25.0783582,46.4245311 L29.6762464,38.4360425 L20.4918228,38.4246303 L14.7586535,38.4246303 C14.0547793,38.4018061 13.3622579,38.755582 12.9762623,39.4060732 C12.5562083,40.1250372 12.6583836,41.0151831 13.1465545,41.6314379 L13.1465545,41.6200258 Z" id="Shape" fill="#EEC281"></path>
                        <ellipse id="Oval" fill="#D9DADA" cx="71.5" cy="108.734742" rx="71.5" ry="6.26525752"></ellipse>
                        <path d="M71.0118292,110.537858 C50.3383614,110.515034 21.3659892,107.787536 12.1248015,86.0131984 C10.9781677,83.3085244 9.91100349,80.1131289 9.71800572,77.145976 C9.70665291,77.0318547 9.70665291,76.8834971 9.70665291,76.6894909 C9.64988885,74.7037809 10.1834709,72.3528828 11.7047475,70.9606034 C11.8296285,70.8236578 11.977215,70.6981244 12.1248015,70.5954153 C15.4965862,68.2331051 16.8135122,63.1889451 17.6309146,58.1904337 C21.9676882,31.6458271 43.2315021,12.2452119 71.023182,12.1539149 C91.140362,12.2223876 108.748571,23.0639079 118.421165,39.2348913 C120.850667,43.2861963 122.735233,47.6228044 124.052159,52.1191823 C126.583836,60.74675 122.360591,70.5611789 121.622658,80.2500744 L121.622658,80.2500744 C121.622658,80.3527836 121.611305,80.4554927 121.599952,80.5467897 C121.565894,81.0375112 121.520483,81.5282326 121.475071,82.0075419 C120.283026,92.3012801 114.493093,95.0059542 105.195141,98.7947802 C95.4657828,102.058648 86.0315973,110.515034 71.0345348,110.537858 L71.0118292,110.537858 Z" id="Shape" fill="#E7A958"></path>
                        <path d="M71.0118292,110.537858 C50.3383614,110.515034 21.3659892,107.787536 12.1248015,86.0131984 C10.9781677,83.3085244 9.91100349,80.1131289 9.71800572,77.145976 C9.70665291,77.0318547 9.70665291,76.8834971 9.70665291,76.6894909 C9.64988885,74.7037809 10.1834709,72.3528828 11.7047475,70.9606034 C11.8296285,70.8236578 11.977215,70.6981244 12.1248015,70.5954153 C15.4965862,68.2331051 16.8135122,63.1889451 17.6309146,58.1904337 C21.9676882,31.6458271 43.2315021,12.2452119 71.023182,12.1539149 C91.140362,12.2223876 108.748571,23.0639079 118.421165,39.2348913 C120.850667,43.2861963 122.735233,47.6228044 124.052159,52.1191823 C126.583836,60.74675 122.360591,70.5611789 121.622658,80.2500744 L121.622658,80.2500744 C121.622658,80.3527836 121.611305,80.4554927 121.599952,80.5467897 C121.565894,81.0375112 121.520483,81.5282326 121.475071,82.0075419 C120.283026,92.3012801 114.493093,95.0059542 105.195141,98.7947802 C95.4657828,102.058648 86.0315973,110.515034 71.0345348,110.537858 L71.0118292,110.537858 Z" id="Shape" fill="#E7A958"></path>
                        <path d="M38.9741982,106.885978 C34.3763099,105.402402 29.9600667,101.670636 27.2353922,98.509477 C26.3385202,97.5850948 26.3725786,96.3982336 27.1332169,95.9189243 C28.9610194,93.5109656 26.8721023,90.3612186 26.349873,86.34415 C26.3271674,86.1729681 25.748174,84.5980947 25.9752302,84.3926764 C25.8957606,84.2214945 27.3262147,82.7607423 27.246745,82.5781483 C25.6232931,83.3199365 21.4681645,83.4454699 17.6195618,82.4982634 C16.0642267,82.3499057 14.3045411,81.8820085 13.3622579,81.3456386 C13.2600826,78.5610797 13.9639568,74.2929443 13.8617815,71.5083854 C17.1200381,70.9035427 20.0150048,68.0733353 21.5022229,65.2203037 C22.8077961,62.7210479 23.4435535,59.7310708 24.2041918,56.2846085 C26.588282,45.5229731 32.0603366,36.3019748 39.8029533,29.6258807 C48.0337409,22.527538 58.807558,18.3050511 71.0118292,18.2708147 L70.9777707,17.5404386 C71.7270562,17.5176144 72.4763417,17.4947901 73.23698,17.4605537 C74.3495554,17.4605537 74.5993172,14.3564553 77.5737536,12.5533393 C94.9208479,14.6759948 109.79303,24.8441997 118.39846,39.2234792 C127.548825,54.527141 132.2943,83.5824154 119.635916,97.8703979 C104.184741,115.296715 60.0450143,112.717575 38.9741982,106.885978 L38.9741982,106.885978 Z" id="Shape" fill="#EEC281"></path>
                        <path d="M70.9777707,17.5404386 C71.7270562,17.5176144 72.4763417,17.4947901 73.23698,17.4605537 C74.3495554,17.4605537 74.5993172,14.3564553 77.5737536,12.5533393 C92.1053509,14.333631 105.774135,21.4319738 115.968958,35.5145381 C106.466656,26.590255 92.8092252,20.8385432 81.9672912,19.0468393 L70.9664179,17.5404386 L70.9777707,17.5404386 Z" id="Shape" fill="#E7A958"></path>
                        <path d="M120.351143,86.0930833 L129.274452,91.2741887 L129.274452,91.2741887 L129.274452,91.2741887 C129.649095,91.4910192 129.773976,91.9703285 129.558272,92.3355165 C129.46745,92.4838742 129.342569,92.5979954 129.194983,92.6664682 L125.176088,94.7092389 L125.425849,99.228441 C125.448555,99.3882108 125.414497,99.5593927 125.323674,99.7077503 C125.107971,100.084351 124.631153,100.209884 124.267863,99.9930535 L124.267863,99.9930535 L124.267863,99.9930535 L115.344554,94.811948 C114.084392,94.0815719 114.175214,91.5366677 115.560257,89.1287089 C116.9453,86.7207502 119.090981,85.3627072 120.351143,86.1044954 L120.351143,86.0930833 Z" id="Shape" fill="#F1CD9F"></path>
                        <path d="M60.1358368,19.1153121 C67.4129883,17.1752506 75.3486027,17.5176144 81.978644,19.0354272" id="Shape" stroke="#1E3654" stroke-width="4.27109895"></path>
                        <path d="M30.3574151,54.5043168 C33.6497301,51.0236181 37.4188631,53.3402798 38.2249127,54.9265654" id="Shape" stroke="#E7A958" stroke-width="2.13555514"></path>
                        <path d="M43.1520324,64.5926367 C45.8880597,64.4899276 48.1813274,66.6354074 48.2835027,69.3857299 C48.385678,72.1360524 46.2513496,74.441302 43.5153223,74.5440111 C40.779295,74.6467203 38.4860273,72.5012404 38.383852,69.7509179 C38.2816767,67.0005954 40.4160051,64.6953458 43.1520324,64.5926367 L43.1520324,64.5926367 Z" id="Shape" fill="#E1574C"></path>
                        <path d="M20.298825,57.8138335 C20.8664655,58.0306639 21.0935218,59.753895 20.7983487,61.648308 C20.5031756,63.542721 19.7993014,64.9121762 19.220308,64.6953458 C18.6526675,64.4785154 18.4256113,62.7552843 18.7207844,60.8608713 C19.0159574,58.9664583 19.7198317,57.5970031 20.298825,57.8138335 L20.298825,57.8138335 Z" id="Shape" fill="#1E3654"></path>
                        <path d="M20.2766666,60.3587377 C20.4584932,60.4157984 20.5266782,60.8608713 20.4244007,61.3630049 C20.3221232,61.8537263 20.1062041,62.2189144 19.9243775,62.1618537 C19.7425509,62.1047931 19.6743659,61.6597202 19.7766434,61.1575866 C19.8789209,60.6668651 20.09484,60.3016771 20.2766666,60.3587377 L20.2766666,60.3587377 Z" id="Shape" fill="#FEFEFE"></path>
                        <path d="M57.4225151,86.0930833 L66.3458241,91.2741887 L66.3458241,91.2741887 L66.3458241,91.2741887 C66.7204668,91.4910192 66.8453477,91.9703285 66.6296443,92.3355165 C66.5388218,92.4838742 66.4139409,92.5979954 66.2663544,92.6664682 L62.2474595,94.7092389 L62.4972213,99.228441 C62.519927,99.3882108 62.4858685,99.5593927 62.395046,99.7077503 C62.1793426,100.084351 61.7025246,100.209884 61.3392347,99.9930535 L61.3392347,99.9930535 L61.3392347,99.9930535 L52.4159257,94.811948 C49.3393141,93.0316562 54.3459035,84.3127915 57.4225151,86.0930833 L57.4225151,86.0930833 Z" id="Shape" fill="#F1CD9F"></path>
                        <path d="M66.3458241,91.2741887 L66.3458241,91.2741887 L66.3458241,91.2741887 L66.3458241,91.2741887 C66.7204668,91.4910192 66.8453477,91.9703285 66.6296443,92.3355165 C66.5388218,92.4838742 66.4139409,92.5979954 66.2663544,92.6664682 L62.2474595,94.7092389 L62.4972213,99.228441 C62.519927,99.3882108 62.4858685,99.5593927 62.395046,99.7077503 C62.1793426,100.084351 61.7025246,100.209884 61.3392347,99.9930535 L61.3392347,99.9930535 L61.3392347,99.9930535 L58.864322,98.5551255 C55.7877104,96.7748338 60.7942998,88.055969 63.8709114,89.8362608 L66.3458241,91.2741887 L66.3458241,91.2741887 Z" id="Shape" fill="#E7A958"></path>
                        <path d="M13.8504287,71.5083854 C15.3944109,71.4056763 16.6886313,73.5511561 16.7453954,76.3014786 C16.8021594,79.0518011 15.5987615,81.3570507 14.0547793,81.4597598 C12.5107971,81.562469 11.2165767,79.4169892 11.1598126,76.6666667 C11.1030486,73.9163442 12.3064465,71.6110946 13.8504287,71.5083854 L13.8504287,71.5083854 Z" id="Shape" fill="#E1574C"></path>
                        <g id="Group" transform="translate(62.111226, 0.000000)">
                            <path d="M7.03874246,0.0114121266 C7.15227056,0.0114121266 7.26579867,4.33680869e-18 7.37932677,0.0114121266 L7.37932677,0.0114121266 L10.6716418,0.0114121266 L10.6716418,1.0270914 C12.9308511,2.47643148 14.5202445,5.35228739 14.611067,8.71886474 C14.7132423,12.3250968 13.1011432,15.5090801 10.6716418,17.0725414 L10.6716418,18.0653964 L7.68585265,18.0653964 C7.65179422,18.0653964 7.61773579,18.0653964 7.58367736,18.0768086 C3.55342966,18.2594026 0.158939346,14.3678674 0.0113528104,9.38076809 C-0.136233725,4.39366875 3.01984757,0.205418279 7.05009527,0.0228242532 L7.03874246,0.0114121266 Z" id="Shape" fill="#FFC400"></path>
                            <path d="M7.03874246,0.0114121266 C7.15227056,0.0114121266 7.26579867,2.60208521e-18 7.37932677,0.0114121266 L7.37932677,0.0114121266 L10.6716418,0.0114121266 L10.6716418,1.0270914 C10.9668149,1.20968542 11.2506351,1.42651583 11.5117498,1.65475836 L3.09931724,1.65475836 C4.22324547,0.684727597 5.57422991,0.0798848864 7.03874246,0.0114121266 L7.03874246,0.0114121266 Z M11.4890441,16.4448745 C11.2279295,16.673117 10.9554621,16.8785353 10.660289,17.0611293 L10.660289,18.0539843 L7.67449984,18.0539843 C7.64044141,18.0539843 7.60638298,18.0539843 7.57232455,18.0653964 C5.92616704,18.1452813 4.38218482,17.5290265 3.12202286,16.4448745 L11.500397,16.4448745 L11.4890441,16.4448745 Z M13.8163703,13.158182 C13.5666084,13.7402005 13.2714354,14.2993947 12.9422039,14.8015282 L1.68021594,14.8015282 C1.33963163,14.2993947 1.04445856,13.7516126 0.80604954,13.158182 L13.8277231,13.158182 L13.8163703,13.158182 Z M14.5883614,9.87148953 C14.5429501,10.4306837 14.4634805,10.9898779 14.3385996,11.5148358 L0.27246745,11.5148358 C0.147586535,10.9898779 0.0681168625,10.4420959 0.0227056208,9.87148953 L14.5883614,9.87148953 L14.5883614,9.87148953 Z M14.3499524,6.58479706 C14.4748333,7.10975489 14.554303,7.65753697 14.5997142,8.2281433 L0.0340584312,8.2281433 C0.0794696729,7.66894909 0.158939346,7.10975489 0.28382026,6.58479706 L14.3613052,6.58479706 L14.3499524,6.58479706 Z M12.9535567,3.29810459 C13.294141,3.80023817 13.5893141,4.34802024 13.8277231,4.94145083 L0.794696729,4.94145083 C1.03310575,4.35943237 1.32827882,3.80023817 1.66886313,3.29810459 L12.9535567,3.29810459 L12.9535567,3.29810459 Z" id="Shape" fill-opacity="0.501961" fill="#E2AC25"></path>
                            <path d="M10.3310575,0.0114121266 C14.3613052,-0.171181899 17.7557955,3.72035328 17.903382,8.70745261 C18.0509686,13.6945519 14.8948873,17.8828024 10.8646396,18.0653964 C6.83439187,18.2479905 3.43990156,14.3564553 3.29231502,9.36935596 C3.14472849,4.38225662 6.30080978,0.194006153 10.3310575,0.0114121266 L10.3310575,0.0114121266 Z" id="Shape" fill="#FFDA31"></path>
                        </g>
                        <path d="M62.7129247,41.9395653 L59.9655446,46.7326585 L55.7877104,54.0364196 C54.5389012,48.0792895 51.3487615,42.7041778 46.8076373,38.7669941 L55.3676564,38.755582 L61.1008257,38.7441699 C61.8046999,38.7099335 62.4972213,39.0751216 62.8832169,39.7256128 C63.3032709,40.4445768 63.2124484,41.3347226 62.7129247,41.9509775 L62.7129247,41.9395653 Z" id="Shape" fill="#F1CD9F"></path>
                        <path d="M40.2457129,85.0545797 C38.7812004,90.5894611 34.9439505,94.3782872 29.0631947,95.6678575 C26.0206415,96.341173 23.2164973,95.7363303 22.1493331,92.3469286 C21.1843442,89.2884787 19.1067799,84.9176342 17.608209,82.4982634 C19.0159574,82.6580331 20.537234,82.7036817 22.0130994,82.6580331 C23.2505557,82.6123846 24.5561289,82.4297906 25.6573515,82.2243723 C27.1672753,81.9390692 28.5523182,81.5054084 29.8011273,80.9576263 C31.1748174,80.3641957 32.3555097,79.668056 33.3432042,78.9148556 C33.7064941,78.6409646 34.0470784,78.3556614 34.3649571,78.0703582 C35.0574786,77.3742185 36.0111146,76.9405577 37.066926,76.9405577 C39.1671959,76.9405577 40.8701175,78.6523767 40.8701175,80.7636201 C40.8701175,82.1216632 40.5862972,83.7079488 40.2343601,85.0545797 L40.2457129,85.0545797 Z" id="Shape" fill="#1E3654"></path>
                        <path d="M40.2457129,85.0545797 C38.7812004,90.5894611 34.9439505,94.3782872 29.0631947,95.6678575 C28.4047317,95.8162151 27.7576215,95.8961 27.1332169,95.9075122 C32.4803906,92.2670438 29.403779,83.8448943 25.6687044,82.2129602 C27.1786281,81.927657 28.563671,81.4939962 29.8124802,80.9462142 C31.1861702,80.3527836 32.3668625,79.6566438 33.354557,78.9034435 C33.7178469,78.6295524 34.0584312,78.3442493 34.3763099,78.0589461 C35.0688314,77.3628064 36.0224674,76.9291456 37.0782788,76.9291456 C39.1785487,76.9291456 40.8814703,78.6409646 40.8814703,80.752208 C40.8814703,82.0988389 40.59765,83.6965367 40.2457129,85.0431676 L40.2457129,85.0545797 Z" id="Shape" fill="#192D45"></path>
                        <path d="M37.5778025,82.0303662 C36.0224674,83.3998214 34.1038425,84.6665674 31.8105748,85.6480103 C29.2675453,86.7549866 26.2590505,87.508187 22.7964433,87.6793689 L21.0026993,85.168701 C24.851302,85.2143495 28.1209114,84.4725613 30.8115275,83.3085244 C32.8209749,82.4412027 34.5011909,81.3342265 35.8635281,80.1473653 C36.2495237,79.8050015 36.4879327,79.4854619 37.0782788,79.4854619 C37.7821531,79.4854619 38.3497936,80.0560683 38.3497936,80.7636201 C38.3497936,81.3912871 37.9865037,81.6765903 37.5778025,82.0303662 L37.5778025,82.0303662 Z" id="Shape" fill="#FEFEFE"></path>
                        <path d="M34.7168943,88.957527 C35.1596539,89.7906123 33.8767863,91.3312494 31.8673388,92.3925772 C29.8578914,93.4539049 27.8711496,93.636499 27.42839,92.8034137 C26.9856304,91.9703285 28.2684979,90.4296914 30.2779454,89.3683636 C32.2873928,88.3070358 34.2741346,88.1244418 34.7168943,88.957527 L34.7168943,88.957527 Z" id="Shape" fill="#E1574C"></path>
                        <path d="M129.285805,91.2741887 L129.285805,91.2741887 L129.285805,91.2741887 L129.285805,91.2741887 C129.660448,91.4910192 129.785329,91.9703285 129.569625,92.3355165 C129.478803,92.4838742 129.353922,92.5979954 129.206335,92.6664682 L125.18744,94.7092389 L125.437202,99.228441 C125.459908,99.3882108 125.425849,99.5593927 125.335027,99.7077503 C125.119324,100.084351 124.642506,100.209884 124.279216,99.9930535 L124.279216,99.9930535 L124.279216,99.9930535 L121.804303,98.5551255 C118.727691,96.7748338 123.734281,88.055969 126.810892,89.8362608 L129.285805,91.2741887 L129.285805,91.2741887 Z" id="Shape" fill="#E7A958"></path>
                        <path d="M34.3195459,56.3987298 C35.9089393,56.5356753 36.9874563,59.1148159 36.7149889,62.1504416 C36.4425214,65.1860673 34.9439505,67.5255532 33.3432042,67.3886077 C31.7538107,67.2516622 30.6752937,64.6725216 30.9477612,61.6368959 C31.2202286,58.6012702 32.7187996,56.2617843 34.3195459,56.3987298 L34.3195459,56.3987298 Z" id="Shape" fill="#1E3654"></path>
                        <path d="M35.1596539,60.1647316 C35.6591775,60.2103801 35.9997618,61.0206411 35.9202922,61.9792597 C35.8408225,62.9378783 35.3640044,63.6796666 34.853128,63.6340181 C34.3536043,63.5883696 34.01302,62.7781086 34.0924897,61.8194899 C34.1719594,60.8608713 34.6487774,60.1190831 35.1596539,60.1647316 L35.1596539,60.1647316 Z" id="Shape" fill="#FEFEFE"></path>
                        <path d="M96.1015402,42.4987596 L91.5944744,42.4987596 L87.0874087,42.4987596 C88.1205144,44.6442394 89.0968561,46.778307 89.9142585,48.9237868 C90.720308,51.0464424 91.3560654,53.2033343 91.9350587,55.3488141 L97.0211178,55.3488141 L102.107177,55.3488141 C103.526278,55.246105 104.695618,55.2232807 105.79684,54.4016076 C106.727771,53.7054679 107.193236,52.7012008 107.284058,51.5714002 C107.397587,48.9922596 105.43355,45.7512156 102.595348,43.9252754 C100.131788,42.361814 98.2245157,42.4987596 96.0901874,42.4987596 L96.1015402,42.4987596 Z M87.4620514,61.2945321 L89.4147348,61.2945321 C89.3239124,60.564156 89.2103842,59.8337799 89.0741505,59.1034038 L87.1214671,59.1034038 C86.8944109,57.859482 86.6219435,56.6041481 86.3267704,55.3488141 L88.268101,55.3488141 C87.6891077,53.2147465 87.0533503,51.0464424 86.2359479,48.9237868 C85.4185456,46.7668949 84.4194983,44.6328272 83.3750397,42.4987596 C82.7279295,41.2548377 82.0467609,39.9995038 81.3542394,38.7441699 L85.0779613,38.7441699 L89.4487933,38.7441699 L93.8196253,38.7441699 C96.0788346,38.7441699 98.1563989,38.8697033 100.370197,39.6000794 C104.775087,41.0722437 108.839393,44.9295425 110.462845,48.843902 C111.768419,52.5528431 110.973722,56.2503721 107.828993,58.0649003 C106.307717,58.943634 104.604795,59.1148159 102.754287,59.1148159 L97.7363449,59.1148159 L92.7297555,59.1148159 C92.8546364,59.845192 92.9795173,60.5755681 93.0703398,61.3059442 L99.8706732,61.3059442 L106.671007,61.3059442 C106.829946,62.5612782 106.96618,63.8052 107.068355,65.0605339 L100.245316,65.0605339 L93.4222769,65.0605339 C93.4903938,66.8636499 93.535805,68.6553538 93.4449825,70.4470577 C93.3541601,72.2387615 93.115751,74.0304654 92.877342,75.8335814 L89.1536202,75.8335814 C89.403382,74.0418775 89.641791,72.2501737 89.7439663,70.4470577 C89.8461416,68.6553538 89.8007304,66.8522378 89.7439663,65.0605339 L87.7912829,65.0605339 C87.7004605,63.8166121 87.5869324,62.5612782 87.4393458,61.3059442 L87.4620514,61.2945321 Z" id="Shape" fill="#2A6470"></path>
                    </g>
                </g>
            </g>
        </g>
    </g>
</svg>