<?xml version="1.0" encoding="UTF-8" standalone="no"?>
<svg width="265px" height="313px" viewBox="0 0 265 313" version="1.1" xmlns="http://www.w3.org/2000/svg" xmlns:xlink="http://www.w3.org/1999/xlink">
    <!-- Generator: Sketch 40.3 (33839) - http://www.bohemiancoding.com/sketch -->
    <title>1.12-illustration product</title>
    <desc>Created with Sketch.</desc>
    <defs>
        <rect id="path-1" x="0" y="0" width="289" height="325" rx="2.24"></rect>
    </defs>
    <g id="mobile" stroke="none" stroke-width="1" fill="none" fill-rule="evenodd">
        <g id="mobile-main" transform="translate(-40.000000, -2317.000000)">
            <g id="1.12-illustration-product" transform="translate(16.000000, 2305.000000)">
                <mask id="mask-2" fill="white">
                    <use xlink:href="#path-1"></use>
                </mask>
                <g id="Mask"></g>
                <g id="06" mask="url(#mask-2)">
                    <g transform="translate(24.342857, 11.964286)" id="Слой_1">
                        <g>
                            <g id="Group" transform="translate(150.854545, 0.000000)">
                                <polygon id="Shape" fill="#F8B947" points="78.885977 275.399273 181.695149 275.399273 165.998707 361.767391 94.6328899 361.767391"></polygon>
                                <path d="M212.431911,45.4038002 C166.301532,-0.706281337 91.6046374,-0.706281337 45.474258,45.4038002 C-0.65612137,91.5138818 -0.65612137,166.278806 45.474258,212.388888 C91.6046374,258.498969 166.402474,258.498969 212.532853,212.388888 C258.562291,166.177909 258.562291,91.5138818 212.431911,45.4038002 L212.431911,45.4038002 L212.431911,45.4038002 Z" id="Shape" fill="#56B363"></path>
                                <path d="M244.884684,105.992649 C251.193543,104.882779 256.038747,100.342399 257.653815,94.5408018 C254.120854,89.7986271 247.912936,87.1248478 241.654548,88.2347185 C235.345688,89.3445891 230.500484,93.8849692 228.885416,99.6865659 C232.367907,104.479189 238.575824,107.10252 244.884684,105.992649 L244.884684,105.992649 Z M179.575372,22.1974135 C135.766653,1.31166534 81.712346,9.08076005 45.4237871,45.4038002 C9.1352283,81.7268404 1.31224274,135.706914 22.2071848,179.496357 C66.1168457,200.382105 120.120682,192.562562 156.35877,156.28997 C192.647328,120.067827 200.470314,66.037305 179.575372,22.1974135 L179.575372,22.1974135 L179.575372,22.1974135 Z" id="Shape" fill="#70BC7D"></path>
                                <path d="M13.0214856,151.699141 C19.330345,150.589271 25.3868499,153.212601 29.0207529,158.005225 C27.3047432,163.756373 22.5100101,168.246304 16.2516216,169.457072 C9.9427623,170.566943 3.88625734,167.943612 0.252354373,163.150989 C1.96836411,157.349392 6.71262632,152.909909 13.0214856,151.699141" id="Shape" fill="#93CA9F"></path>
                                <path d="M33.5631316,143.576906 C39.8719909,142.467035 44.7171949,137.926655 46.3322629,132.125059 C42.7993017,127.382884 36.5913841,124.709105 30.3329956,125.818975 C24.0241363,126.928846 19.1789323,131.469226 17.5638644,137.270823 C21.0968256,141.962549 27.3047432,144.686777 33.5631316,143.576906" id="Shape" fill="#56B363"></path>
                                <path d="M17.1600974,90.6562545 C23.1661314,92.7750985 27.1028597,98.1731058 27.9103937,104.126049 C23.5698984,108.161942 17.1600974,109.675402 11.2045342,107.556558 C5.19850008,105.437714 1.26177187,100.039707 0.454237871,94.0867638 C4.69379134,90.0508705 11.1540633,88.5374105 17.1600974,90.6562545 L17.1600974,90.6562545 L17.1600974,90.6562545 Z" id="Shape" fill="#56B363"></path>
                                <path d="M57.6882097,105.387265 C63.6942437,107.506109 67.630972,112.904117 68.438506,118.857059 C64.0980107,122.892953 57.6882097,124.406413 51.7326465,122.287569 C45.7266124,120.168725 41.7898842,114.770717 40.9823502,108.817775 C45.2219036,104.781881 51.7326465,103.167524 57.6882097,105.387265" id="Shape" fill="#56B363"></path>
                                <path d="M38.8625734,93.9354178 C44.8686075,96.0542618 51.3288795,94.5408018 55.5684329,90.5049085 C54.7608989,84.6024144 50.8241707,79.2548558 44.8181366,77.0351144 C38.8121026,74.9162704 32.3518306,76.4297304 28.1122772,80.4656238 C28.9198111,86.4185665 32.8565394,91.8165738 38.8625734,93.9354178" id="Shape" fill="#93CA9F"></path>
                                <path d="M178.969721,184.843916 C183.108333,189.686988 189.417192,191.654486 195.271814,190.292372 C197.593474,184.843916 196.78594,178.23514 192.74827,173.392068 C188.609658,168.548996 182.300799,166.581498 176.446178,167.943612 C173.973105,173.392068 174.83111,179.950395 178.969721,184.843916 L178.969721,184.843916 Z M68.438506,53.5764843 C72.5771177,58.4195563 78.885977,60.3870543 84.7405985,59.0249403 C87.0622587,53.5764843 86.2547247,46.9677089 82.2170547,42.1246369 C78.078443,37.2815649 71.7695837,35.3140669 65.9149622,36.6761809 C63.593302,42.1246369 64.400836,48.8343096 68.438506,53.5764843 L68.438506,53.5764843 Z M78.9869188,72.9487724 C83.1255305,77.7918444 83.8321227,84.4006198 81.5104625,89.8490758 C75.7567828,91.1607411 69.3469817,89.3445891 65.20837,84.4006198 C61.0697583,79.5575478 60.363166,72.9487724 62.6848263,67.5003164 C68.438506,66.1382023 74.848307,67.9543544 78.9869188,72.9487724 L78.9869188,72.9487724 Z M206.728702,217.736446 C210.867314,222.579519 217.176173,224.547017 223.030795,223.184903 C225.352455,217.736446 224.544921,211.127671 220.507251,206.284599 C216.368639,201.441527 210.05978,199.474029 204.205159,200.836143 C201.883498,206.284599 202.590091,212.994272 206.728702,217.736446 L206.728702,217.736446 Z M51.2279377,39.9048955 C55.3665494,44.7479676 56.0731417,51.3567429 53.7514815,56.805199 C47.9978017,58.1168643 41.5880007,56.3007123 37.449389,51.3567429 C33.3107772,46.5136709 32.604185,39.9048955 34.9258452,34.4564395 C40.7804667,33.1952228 47.1397969,35.0618235 51.2279377,39.9048955 L51.2279377,39.9048955 Z M218.993125,163.85727 C224.999159,165.976114 228.935887,171.374122 229.743421,177.327064 C225.402926,181.362958 218.993125,182.876418 213.037562,180.757574 C207.031528,178.63873 203.094799,173.240722 202.287265,167.28778 C206.526819,163.251886 213.037562,161.637529 218.993125,163.85727 L218.993125,163.85727 Z" id="Shape" fill="#93CA9F"></path>
                                <path d="M106.089778,12.9653074 C107.200138,19.2713908 104.575652,25.3252308 99.7809191,28.9575348 C94.0272394,27.2422801 89.5353315,22.5001055 88.3240306,16.1940221 C87.3146131,9.88793872 89.8381568,3.83409869 94.6328899,0.201794668 C100.38657,1.91704934 104.928948,6.65922404 106.089778,12.9653074" id="Shape" fill="#93CA9F"></path>
                                <path d="M113.66041,55.3926363 C114.770769,61.6987197 112.146283,67.7525597 107.35155,71.3848637 C101.597871,69.669609 97.1059627,64.8769857 95.8946617,58.621351 C94.7843025,52.3152676 97.408788,46.2614276 102.203521,42.6291236 C108.007672,44.3443782 112.55005,49.1370016 113.66041,55.3926363" id="Shape" fill="#93CA9F"></path>
                                <path d="M39.9729327,206.587291 C35.1277287,210.724082 33.1593646,217.030165 34.5220782,222.882211 C39.9729327,225.202849 46.5846173,224.395671 51.4298212,220.359777 C56.2750252,216.222986 58.2433893,209.916903 56.8806757,204.064858 C51.4298212,201.744219 44.8181366,202.4505 39.9729327,206.587291" id="Shape" fill="#70BC7D"></path>
                            </g>
                            <g id="Group" transform="translate(130.161486, 116.536421)">
                                <polygon id="Shape" fill="#E0B074" points="20.5921168 139.742807 25.1344956 138.12845 21.1472965 136.766336"></polygon>
                                <polygon id="Shape" fill="#E1594D" points="46.7865008 112.500527 60.1612825 92.6742012 72.6780594 105.235919 60.1612825 120.622763"></polygon>
                                <path d="M107.149667,92.6742012 L99.1247977,92.6742012 L99.1247977,92.6742012 C99.1247977,99.7370145 93.371118,105.488163 86.2547247,105.488163 C79.1888022,105.488163 73.4351225,99.7370145 73.4351225,92.6742012 L73.4351225,92.6742012 L62.4324719,92.6742012 L62.4324719,92.6742012 L62.4324719,110.432132 L62.4324719,121.783082 L62.4324719,162.848297 L109.723681,162.848297 L109.723681,99.7874632 L107.149667,92.6742012 L107.149667,92.6742012 L107.149667,92.6742012 Z" id="Shape" fill="#E1594D"></path>
                                <path d="M107.149667,92.6742012 L98.4686763,92.6742012 L98.4686763,92.6742012 C98.4686763,100.544193 89.8381568,105.538611 86.3051956,105.538611 L86.1537829,105.538611 L86.1537829,162.898746 L109.774152,162.898746 L109.774152,98.3749005 L107.149667,92.6742012 L107.149667,92.6742012 L107.149667,92.6742012 Z" id="Shape" fill="#CB4C41"></path>
                                <path d="M84.0844771,119.462443 C84.0340062,117.848086 83.5797683,116.485972 82.51988,115.325653 C80.904812,113.559949 78.3812683,113.005014 76.1100789,114.114885 C74.3940692,115.022961 73.3846517,116.485972 73.0818264,118.45347 C72.7790012,120.572314 73.3846517,122.489363 75.1006614,123.952375 C76.8166711,125.415386 79.2392731,125.667629 81.2076372,124.456861 C83.1255305,123.246093 84.0340062,121.530839 84.0844771,119.462443 L84.0844771,119.462443 L84.0844771,119.462443 Z M78.5326809,110.280786 L78.6336226,110.280786 C81.9647004,110.331235 84.6396567,111.693349 86.5070791,114.417577 C87.3650839,115.678793 87.8193218,117.091356 87.9202636,118.604816 C88.0212053,120.017379 87.8193218,121.429941 87.2641422,122.741607 C86.7089626,124.053272 85.9014286,125.26404 84.7405985,126.172116 C84.3873023,126.474808 84.3873023,126.474808 84.7405985,126.827949 C86.7089626,128.442306 88.6773267,129.451279 92.0084044,128.946793 C92.1093461,128.946793 92.159817,128.896344 92.2607588,128.896344 C92.6645258,128.795447 92.7149966,128.845895 92.7149966,129.249485 L92.7149966,131.166534 C92.7149966,131.469226 92.6140549,131.620572 92.3112296,131.671021 C87.8193218,132.478199 84.4377732,131.065637 81.2076372,128.139614 C81.0057537,127.988268 80.8543411,127.937819 80.6019867,128.038717 C79.1888022,128.442306 77.7756178,128.391857 76.3624333,128.089165 C74.7473653,127.736025 73.3341808,126.979295 72.1733507,125.869424 C71.1134623,124.910899 70.3563992,123.75058 69.8516904,122.338017 C69.3974526,121.076801 69.1450982,119.815584 69.3469817,118.554367 C69.4479235,117.69674 69.6498069,116.839113 69.9526322,116.031934 C70.3563992,114.821166 71.0629914,113.761744 72.0219381,112.904117 C73.3341808,111.6429 74.8987779,110.785273 76.7157294,110.482581 C77.3718508,110.381683 78.0279721,110.280786 78.6336226,110.179889 L78.5326809,110.280786 L78.5326809,110.280786 L78.5326809,110.280786 Z" id="Shape" fill="#FFFFFF"></path>
                                <path d="M92.6140549,116.18328 L92.6140549,116.18328 L92.6140549,117.797637 C92.6140549,118.705713 92.6140549,118.705713 93.5730015,118.705713 C94.178652,118.705713 94.7843025,118.655265 95.3394821,118.403021 C96.2479579,117.948983 96.8536084,116.889561 96.7526666,115.931037 C96.601254,114.770717 95.8441909,113.91309 94.7843025,113.711295 C94.2291229,113.610398 93.6739433,113.610398 93.0682928,113.610398 C92.6645258,113.559949 92.6140549,113.610398 92.6140549,114.064436 C92.6140549,114.770717 92.6140549,115.476999 92.6140549,116.18328 L92.6140549,116.18328 L92.6140549,116.18328 Z M91.9579335,110.684375 C93.0682928,110.684375 94.178652,110.583478 95.2890112,110.684375 C97.0554919,110.88617 98.620089,111.592451 99.6295065,113.15636 C100.537982,114.518474 100.638924,116.031934 100.285628,117.545394 C99.8818608,119.109303 98.8724433,120.067827 97.3583171,120.673211 C97.1059627,120.774109 97.1564336,120.875006 97.2573754,121.026352 C97.6611424,121.530839 98.1153802,122.035325 98.5191472,122.539812 C99.4780938,123.75058 100.43704,124.961348 101.446458,126.172116 C101.850225,126.676603 102.354934,127.130641 102.809172,127.685576 C102.910113,127.786473 102.910113,127.836922 102.960584,127.988268 C102.859642,128.038717 102.758701,128.089165 102.657759,128.089165 L98.5191472,128.089165 C98.3172637,128.089165 98.1153802,127.988268 98.0144385,127.786473 C96.5003122,125.919873 95.1880695,124.002823 94.0777103,121.883979 C93.9767685,121.732633 93.8758268,121.530839 93.7244141,121.48039 C93.4215889,121.429941 93.0682928,121.48039 92.7654675,121.530839 C92.6645258,121.530839 92.6645258,121.833531 92.6645258,121.934428 C92.6645258,123.447888 92.7149966,124.860451 92.7149966,126.373911 C92.7149966,126.7775 92.7149966,127.231538 92.7654675,127.635127 C92.7654675,127.937819 92.6645258,128.089165 92.3617005,128.089165 L89.1315645,128.089165 C88.929681,128.089165 88.7782684,128.089165 88.7782684,127.786473 C89.0306228,123.447888 88.8792102,119.058854 88.8792102,114.720269 C88.8792102,113.509501 88.7782684,112.349181 88.7782684,111.138413 C88.7782684,110.684375 88.8287393,110.633927 89.2829772,110.633927 C90.0905112,110.684375 90.9989869,110.684375 91.9579335,110.684375 L91.9579335,110.684375 L91.9579335,110.684375 L91.9579335,110.684375 Z" id="Shape" fill="#FFFFFF"></path>
                                <path d="M62.9876515,92.6742012 C62.9371806,92.9768932 62.8867098,93.0777905 62.8867098,93.3300338 C61.8772923,104.882779 68.3880351,115.376101 78.3812683,119.96693 C78.2803265,118.049881 78.2803265,116.132831 78.4317391,114.165333 C79.1383314,105.790855 82.7217635,98.6271439 88.0212053,92.7246498 L62.9876515,92.6742012 L62.9876515,92.6742012 L62.9876515,92.6742012 Z" id="Shape" fill="#C24036"></path>
                                <path d="M66.7729671,92.6742012 C64.804603,103.571113 69.5993361,114.064436 78.3812683,119.815584 C78.5326809,117.898535 78.8355061,116.031934 79.289744,114.064436 C81.5104625,104.933227 87.0117878,97.7190678 94.2291229,92.6742012 L66.7729671,92.6742012 L66.7729671,92.6742012 L66.7729671,92.6742012 Z" id="Shape" fill="#0498B7"></path>
                                <polygon id="Shape" fill="#1B2D45" points="76.867142 92.6742012 96.0460744 92.6742012 96.0460744 100.594642 76.867142 100.594642"></polygon>
                                <path d="M81.5104625,84.2492738 L81.5104625,101.956756 L90.7971034,101.956756 L90.7971034,84.1988251 C89.2325063,84.4006198 87.6174383,84.5015171 85.9518994,84.5015171 L85.9518994,84.5015171 C84.4377732,84.5519658 82.9741178,84.4510684 81.5104625,84.2492738 L81.5104625,84.2492738 L81.5104625,84.2492738 Z" id="Shape" fill="#E7A958"></path>
                                <path d="M98.8219725,92.6742012 L98.8219725,92.6742012 C98.8219725,99.7370145 93.0682928,105.538611 85.9518994,105.538611 C78.885977,105.538611 73.0818264,99.7874632 73.0818264,92.6742012 L73.0818264,92.6742012 L78.3307974,92.6742012 L78.3307974,92.6742012 C78.3307974,96.8109918 81.712346,100.241501 85.9014286,100.241501 C90.0905112,100.241501 93.4720598,96.8614405 93.4720598,92.6742012 L93.4720598,92.6742012 L98.8219725,92.6742012 L98.8219725,92.6742012 L98.8219725,92.6742012 Z" id="Shape" fill="#FFFFFF"></path>
                                <path d="M74.8987779,10.8969121 C65.0569574,10.8969121 57.0320883,18.9182501 57.0320883,28.7557402 C57.0320883,38.5932302 65.0569574,46.6145682 74.8987779,46.6145682 C79.1383314,46.6145682 83.0750596,45.1011082 86.1537829,42.6291236 L86.1537829,14.9328054 C83.0750596,12.3599234 79.1383314,10.8969121 74.8987779,10.8969121 L74.8987779,10.8969121 Z" id="Shape" fill="#2C6570"></path>
                                <path d="M107.553434,49.8937316 C112.146283,46.8163629 115.174536,41.6201502 115.174536,35.6672075 L115.174536,29.6133675 L107.553434,30.2692002 L107.553434,49.8937316 L107.553434,49.8937316 Z" id="Shape" fill="#2C6570"></path>
                                <path d="M64.7541321,49.8937316 C60.1612825,46.8163629 57.13303,41.6201502 57.13303,35.6672075 L57.13303,29.6133675 L64.7541321,30.2692002 L64.7541321,49.8937316 L64.7541321,49.8937316 Z" id="Shape" fill="#2C6570"></path>
                                <path d="M97.408788,10.8969121 C107.250609,10.8969121 115.275478,18.9182501 115.275478,28.7557402 C115.275478,38.5932302 107.250609,46.6145682 97.408788,46.6145682 C93.1692345,46.6145682 89.2325063,45.1011082 86.1537829,42.6291236 L86.1537829,14.9328054 C89.1820354,12.3599234 93.1187636,10.8969121 97.408788,10.8969121 L97.408788,10.8969121 Z" id="Shape" fill="#2C6570"></path>
                                <path d="M110.531215,28.7557402 L110.531215,44.0921349 C113.256643,44.0921349 115.477361,46.3118762 115.477361,49.0361043 C115.477361,51.7603323 113.256643,53.9800736 110.531215,53.9800736 L110.531215,60.1852596 C110.531215,73.6046051 99.5285647,84.5519658 86.1537829,84.5519658 C72.7790012,84.5519658 61.7763505,73.5541564 61.7763505,60.1852596 L61.7763505,28.7557402 L86.1537829,28.7557402 L110.531215,28.7557402 L110.531215,28.7557402 Z" id="Shape" fill="#E0B074"></path>
                                <path d="M86.1537829,84.5519658 C72.7285303,84.5519658 61.7763505,73.5541564 61.7763505,60.1852596 L61.7763505,53.9800736 C59.0509233,53.9800736 56.8302048,51.7603323 56.8302048,49.0361043 C56.8302048,46.3118762 59.0509233,44.0921349 61.7763505,44.0921349 L61.7763505,28.7557402 L86.1537829,28.7557402 L86.1537829,84.5519658 L86.1537829,84.5519658 Z" id="Shape" fill="#E4BB8F"></path>
                                <path d="M61.7258796,53.9800736 C59.0004524,53.9800736 56.7797339,51.7603323 56.7797339,49.0361043 C56.7797339,46.3118762 59.0004524,44.0921349 61.7258796,44.0921349 L61.7258796,53.9800736 L61.7258796,53.9800736 Z" id="Shape" fill="#E4BB8F"></path>
                                <path d="M97.408788,10.8969121 L86.1537829,10.8969121 L86.1537829,20.0281208 L113.004288,20.0281208 C109.925565,14.5796647 104.121414,10.8969121 97.408788,10.8969121 L97.408788,10.8969121 Z" id="Shape" fill="#2C6570"></path>
                                <path d="M110.531215,46.5136709 C111.9444,46.5136709 113.054759,47.6235416 113.054759,49.0361043 C113.054759,50.4486669 111.9444,51.5585376 110.531215,51.5585376 L110.531215,46.5136709 L110.531215,46.5136709 Z" id="Shape" fill="#B0784A"></path>
                                <path d="M64.2998942,37.4329109 C64.2998942,32.7916335 67.7823846,29.0079835 72.1228798,28.7557402 L72.1228798,28.7557402 L73.8388895,28.7557402 L92.2102879,28.7557402 L92.2102879,20.0785694 L69.5993361,20.0785694 L69.5993361,20.0785694 L60.766933,24.0135655 L59.4546903,27.9485615 L64.2998942,37.4329109 L64.2998942,37.4329109 L64.2998942,37.4329109 Z" id="Shape" fill="#2C6570"></path>
                                <path d="M61.7258796,46.5136709 C60.3126951,46.5136709 59.2023359,47.6235416 59.2023359,49.0361043 C59.2023359,50.4486669 60.3126951,51.5585376 61.7258796,51.5585376 L61.7258796,46.5136709 L61.7258796,46.5136709 Z" id="Shape" fill="#B0784A"></path>
                                <path d="M73.0818264,28.7557402 C80.904812,28.7557402 87.2641422,22.3992081 87.2641422,14.5796647 C87.2641422,13.3184481 87.1127296,12.0572314 86.7594334,10.8969121 L79.7439819,10.8969121 L79.7439819,10.8969121 C76.8166711,10.8969121 74.4950109,8.57627338 74.4950109,5.6502507 C74.4950109,3.63230402 75.6053702,1.91704934 77.2204381,1.00897334 C75.9081954,0.605384003 74.4950109,0.353140669 73.0313555,0.353140669 C65.20837,0.353140669 58.8490398,6.7096727 58.8490398,14.5292161 C58.8490398,22.3992081 65.20837,28.7557402 73.0818264,28.7557402 L73.0818264,28.7557402 L73.0818264,28.7557402 Z" id="Shape" fill="#1F3654"></path>
                                <path d="M86.8603752,17.9092768 C87.1127296,16.8498548 87.2641422,15.7399841 87.2641422,14.5796647 C87.2641422,13.3184481 87.1127296,12.0572314 86.7594334,10.8969121 L79.7439819,10.8969121 L79.7439819,10.8969121 C76.8166711,10.8969121 74.4950109,8.57627338 74.4950109,5.6502507 C74.4950109,3.68275269 75.6053702,1.91704934 77.2204381,1.00897334 C73.4855934,2.42153601 70.8106371,6.00339136 70.8106371,10.2410794 C70.8106371,15.6390867 75.2016032,20.0785694 80.6524576,20.0785694 C83.0245887,20.0785694 85.1948363,19.2713908 86.8603752,17.9092768 L86.8603752,17.9092768 Z" id="Shape" fill="#2C6570"></path>
                                <polygon id="Shape" fill="#1F3654" points="98.3172637 28.7557402 73.0818264 28.7557402 73.0818264 20.0785694 98.3172637 20.0785694"></polygon>
                                <polygon id="Shape" fill="#2C6570" points="98.3172637 10.8969121 80.7029285 10.8969121 80.7029285 20.0785694 98.3172637 20.0785694"></polygon>
                                <path d="M60.8678748,30.8241355 L64.2998942,30.8241355 L64.2998942,44.8488649 C63.593302,44.3948269 62.6848263,44.1425836 61.7763505,44.1425836 C61.4735253,44.1425836 61.1707,44.1930322 60.8678748,44.2434809 L60.8678748,30.8241355 L60.8678748,30.8241355 L60.8678748,30.8241355 Z" id="Shape" fill="#2C6570"></path>
                                <path d="M110.531215,25.8801661 L105.736482,25.8801661 L108.058143,35.3645155 L108.058143,37.3824622 L108.058143,45.0002109 C108.764735,44.3948269 109.673211,44.0416862 110.581686,44.0416862 L112.802405,31.1772762 L110.531215,25.8801661 L110.531215,25.8801661 Z" id="Shape" fill="#2C6570"></path>
                                <path d="M108.007672,37.4329109 C108.007672,32.7916335 104.525181,29.0079835 100.184686,28.7557402 L100.184686,28.7557402 L100.184686,22.5001055 L103.768118,24.0135655 L108.007672,28.8061888 L108.007672,37.4329109 L108.007672,37.4329109 L108.007672,37.4329109 Z" id="Shape" fill="#1F3654"></path>
                                <path d="M108.007672,28.7557402 L88.5763849,28.7557402 L88.5763849,20.0785694 L100.184686,20.0785694 L100.184686,20.0785694 C104.525181,20.2803641 108.007672,24.1144628 108.007672,28.7557402 L108.007672,28.7557402 Z" id="Shape" fill="#1F3654"></path>
                                <path d="M86.1537829,50.6000129 C87.5164966,50.6000129 88.6268558,51.7098836 88.6268558,53.0719976 C88.6268558,53.3746896 88.5763849,53.6269329 88.5259141,53.929625 L83.8825936,53.929625 C83.7816518,53.6269329 83.7816518,53.3746896 83.7816518,53.0719976 C83.6807101,51.7098836 84.7910693,50.6000129 86.1537829,50.6000129 L86.1537829,50.6000129 L86.1537829,50.6000129 Z" id="Shape" fill="#E1594D"></path>
                                <path d="M78.6336226,34.2041962 C75.9081954,32.6402875 71.6181711,34.4564395 70.2049866,36.9284242" id="Shape" stroke="#B0784A" stroke-width="2.016"></path>
                                <path d="M75.2016032,42.0237396 C73.2837099,42.0237396 71.7191128,43.5371996 71.7191128,45.5046976 C71.7191128,47.4217469 73.233239,48.9856556 75.2016032,48.9856556 C77.1194964,48.9856556 78.6840935,47.4721956 78.6840935,45.5046976 C78.6840935,43.5876482 77.1194964,42.0237396 75.2016032,42.0237396 L75.2016032,42.0237396 Z" id="Shape" fill="#1F3654"></path>
                                <path d="M76.3119624,44.3948269 C75.655841,44.3948269 75.2016032,44.8993136 75.2016032,45.5046976 C75.2016032,46.1605302 75.7063119,46.6145682 76.3119624,46.6145682 C76.9680838,46.6145682 77.4223216,46.1100816 77.4223216,45.5046976 C77.4223216,44.8993136 76.9680838,44.3948269 76.3119624,44.3948269 L76.3119624,44.3948269 Z" id="Shape" fill="#FFFFFF"></path>
                                <path d="M94.178652,44.1930322 L97.8630259,44.1930322 C98.5696181,44.1930322 99.1752686,44.7984162 99.1752686,45.5046976 L99.1752686,45.5046976 C99.1752686,46.2109789 98.5696181,46.8163629 97.8630259,46.8163629 L94.178652,46.8163629 C93.4720598,46.8163629 92.8664093,46.2109789 92.8664093,45.5046976 L92.8664093,45.5046976 C92.9168801,44.7984162 93.4720598,44.1930322 94.178652,44.1930322 L94.178652,44.1930322 Z" id="Shape" fill="#1F3654"></path>
                                <path d="M95.2385404,40.2580362 C99.7304482,39.9048955 102.15305,41.6705989 102.910113,44.5966216" id="Shape" stroke="#B0784A" stroke-width="2.016"></path>
                                <path d="M111.490162,53.5764843 C111.187337,53.6773816 110.834041,53.6773816 110.531215,53.6773816 L110.531215,65.9364077 C110.531215,79.4062018 99.3771521,90.4544598 85.9014286,90.4544598 C72.4257051,90.4544598 61.3725835,79.4062018 61.3725835,65.9364077 L61.3725835,53.5764843 L111.490162,53.5764843 L111.490162,53.5764843 L111.490162,53.5764843 Z" id="Shape" fill="#2C6570"></path>
                                <path d="M103.061526,64.9274343 C101.093162,72.393837 94.2291229,77.9936391 86.1537829,77.9936391 C78.078443,77.9936391 71.2648749,72.393837 69.24604,64.9274343 C68.9432147,63.8175637 68.7413312,62.6067957 68.6908603,61.4464763 L68.6908603,61.4464763 C68.6908603,58.924043 70.8106371,56.805199 73.3341808,56.805199 L73.3341808,56.805199 L86.1537829,56.805199 L98.9733851,56.805199 L98.9733851,56.805199 C101.496929,56.805199 103.616706,58.924043 103.616706,61.4464763 L103.616706,61.4464763 C103.515764,62.6572443 103.31388,63.8680123 103.061526,64.9274343 L103.061526,64.9274343 Z" id="Shape" fill="#1F3654"></path>
                                <path d="M69.2965108,64.9274343 C71.2648749,72.393837 78.078443,77.9936391 86.1537829,77.9936391 C80.1477489,73.6046051 80.0468071,60.0339136 86.1537829,56.805199 L73.3846517,56.805199 L73.3846517,56.805199 C70.8611079,56.805199 68.7413312,58.924043 68.7413312,61.4464763 L68.7413312,61.4464763 C68.7918021,62.6572443 68.9936856,63.8680123 69.2965108,64.9274343 L69.2965108,64.9274343 Z" id="Shape" fill="#1B2D45"></path>
                                <path d="M86.1537829,59.4789783 L73.3341808,59.4789783 C72.2238216,59.4789783 71.3658167,60.3870543 71.3658167,61.4464763 L71.3658167,61.4464763 C71.3658167,62.556347 72.2742924,63.4139743 73.3341808,63.4139743 L86.1537829,63.4139743 L98.9733851,63.4139743 C100.083744,63.4139743 100.941749,62.5058983 100.941749,61.4464763 L100.941749,61.4464763 C100.941749,60.3366057 100.033273,59.4789783 98.9733851,59.4789783 L86.1537829,59.4789783 L86.1537829,59.4789783 Z" id="Shape" fill="#FFFFFF"></path>
                                <ellipse id="Oval" fill="#E1594D" cx="86.1537829" cy="72.1920424" rx="6.25838845" ry="2.92602268"></ellipse>
                                <polygon id="Shape" fill="#2C6570" points="61.4230544 35.3140669 64.2998942 35.3140669 64.2998942 61.648271 61.4230544 61.648271"></polygon>
                                <path d="M63.1390641,50.3982183 L64.2494234,50.3982183 L64.2494234,50.4991156 C64.2494234,52.3152676 65.6626079,53.8287276 67.4795593,53.929625 L67.4795593,55.140393 L63.1390641,55.140393 L63.1390641,50.3982183 L63.1390641,50.3982183 L63.1390641,50.3982183 Z" id="Shape" fill="#2C6570"></path>
                                <polygon id="Shape" fill="#2C6570" points="110.531215 35.4149642 108.007672 35.4149642 108.007672 61.7491683 110.531215 61.7491683"></polygon>
                                <path d="M109.118031,50.3982183 L108.007672,50.3982183 L108.007672,50.4991156 C108.007672,52.3152676 106.594487,53.8287276 104.777536,53.929625 L104.777536,55.140393 L109.118031,55.140393 L109.118031,50.3982183 L109.118031,50.3982183 L109.118031,50.3982183 Z" id="Shape" fill="#2C6570"></path>
                                <path d="M64.2998942,44.8993136 C64.2998942,49.5405909 67.7823846,53.3242409 72.1228798,53.5764843 L72.1228798,53.5764843 L73.8388895,53.5764843 L92.2102879,53.5764843 L92.2102879,55.9475716 L75.2016032,55.6448796 L68.9936856,56.5529556 L63.3914185,58.318659 L63.189535,55.1908416 L64.2998942,44.8993136 L64.2998942,44.8993136 Z" id="Shape" fill="#2C6570"></path>
                                <path d="M108.007672,44.8993136 C108.007672,49.5405909 104.525181,53.3242409 100.184686,53.5764843 L100.184686,53.5764843 L98.4182055,53.5764843 L80.0468071,53.5764843 L80.0468071,55.9475716 L97.0554919,55.6448796 L103.263409,56.5529556 L108.865677,58.318659 L109.06756,55.1908416 L108.007672,44.8993136 L108.007672,44.8993136 Z" id="Shape" fill="#2C6570"></path>
                                <polygon id="Shape" fill="#CB4C41" points="120.524449 112.500527 107.149667 92.6742012 97.2573754 105.235919 109.774152 120.622763"></polygon>
                                <polygon id="Shape" fill="#FFFFFF" points="43.051656 115.981485 45.878025 111.895143 60.1612825 120.622763 60.1612825 121.631736 60.1612825 126.424359"></polygon>
                                <polygon id="Shape" fill="#CB4C41" points="12.9710148 80.4151751 21.1472965 92.1697145 12.2644225 98.3749005 8.27722343 101.149577 0.0504708746 89.3950378"></polygon>
                                <polygon id="Shape" fill="#FFD547" points="0.0504708746 79.7593424 37.5503307 66.491343 75.0501905 79.7593424 75.0501905 129.299933 37.5503307 142.517484 0.0504708746 129.299933"></polygon>
                                <polygon id="Shape" fill="#FDC30B" points="75.0501905 79.7593424 37.5503307 93.0273418 37.5503307 142.517484 75.0501905 129.299933"></polygon>
                                <polygon id="Shape" fill="#FFE56B" points="0.0504708746 79.7593424 37.5503307 93.0273418 75.0501905 79.7593424 37.5503307 66.491343"></polygon>
                                <path d="M25.1849664,105.790855 L25.1849664,108.414185 C24.3269616,108.111493 23.4689567,107.808801 22.6614227,107.506109 L22.6614227,117.948983 L22.6614227,118.655265 C22.5100101,118.554367 22.3081266,118.554367 22.1567139,118.45347 C21.752947,118.352573 21.3996508,118.150778 20.9958838,118.049881 C20.8444712,117.948983 20.6425877,117.948983 20.4911751,117.848086 L20.4911751,117.141805 L20.4911751,106.698931 C19.6331702,106.396239 18.7751654,106.093547 17.9676314,105.790855 L17.9676314,103.167524 C20.3902333,104.126049 22.7623644,104.983676 25.1849664,105.790855 L25.1849664,105.790855 L25.1849664,105.790855 Z M5.40038358,91.9174712 C5.40038358,92.9768932 5.9555632,93.9858665 6.71262632,94.2381098 C7.46968944,94.5408018 8.02486906,93.8849692 8.02486906,92.8759958 C8.02486906,91.8165738 7.46968944,90.7571518 6.71262632,90.5049085 C6.00603408,90.2526651 5.40038358,90.8580491 5.40038358,91.9174712 L5.40038358,91.9174712 L5.40038358,91.9174712 Z M8.12581081,95.1966345 C8.68099043,96.0542618 9.3371118,96.6091972 10.0941749,96.7100945 L10.0941749,97.4668245 C10.0941749,97.5677218 9.99323317,97.5677218 9.9427623,97.5677218 C9.3371118,97.5172732 8.78193218,97.2145812 8.22675256,96.6596458 C7.92392731,96.3569538 7.67157294,95.9533645 7.36874769,95.6002238 C7.26780594,95.4993265 7.21733507,95.4488778 7.16686419,95.4488778 C6.25838845,95.3479805 5.50132533,94.7425965 4.94614571,93.6327258 C4.39096609,92.5228552 4.29002434,91.4634331 4.64332046,90.5553571 C5.04708746,89.6472811 5.70320883,89.3445891 6.61168457,89.5968325 C7.57063119,89.8995245 8.42863606,90.9084978 8.73146131,92.1192658 C9.08475743,93.3804825 8.83240306,94.5408018 8.07533994,95.1461858 C8.17628169,95.1461858 8.17628169,95.1461858 8.12581081,95.1966345 L8.12581081,95.1966345 L8.12581081,95.1966345 Z M21.1472965,97.3154785 C21.5005926,97.4668245 21.8538887,97.6181705 22.0557722,97.2650298 C22.1567139,97.0127865 22.1567139,96.6091972 22.0053013,96.3065052 C21.8538887,95.9533645 21.5005926,95.7011212 21.0968256,95.7011212 C21.1472965,96.2056078 21.1472965,96.7100945 21.1472965,97.3154785 L21.1472965,97.3154785 Z M21.1472965,100.241501 C20.8444712,100.140604 20.541646,100.039707 20.2388207,99.9388092 L20.2388207,94.4399045 L20.2892916,94.4399045 C20.8444712,94.6416992 21.3996508,94.7930452 21.9548305,95.0957372 C22.7623644,95.4993265 23.2166023,96.5587485 23.0651897,97.5172732 C22.9642479,98.0722085 22.7118936,98.2740032 22.3081266,98.3749005 C22.8128353,99.2829765 23.2166023,100.191053 23.7213111,101.149577 C23.6203693,101.099129 23.4184858,101.04868 23.3175441,101.04868 C22.8128353,100.947783 22.4090683,100.544193 22.2071848,99.8883605 C22.1062431,99.4847712 21.8538887,99.0307332 21.7024761,98.6271439 C21.6015343,98.3244519 21.5005926,98.2740032 21.2987091,98.2740032 C21.1472965,98.8289385 21.1472965,99.5352199 21.1472965,100.241501 L21.1472965,100.241501 L21.1472965,100.241501 Z M19.0275197,99.5352199 C18.7246945,99.4343225 18.3713984,99.3334252 18.0685731,99.1820792 C17.9676314,99.1820792 17.9676314,99.0811819 17.9171605,98.9802845 C17.6143352,98.4253492 17.3619809,97.8704138 17.0086847,97.2650298 L17.0086847,98.8289385 C16.7058595,98.7280412 16.4535051,98.6271439 16.100209,98.5262465 L16.100209,93.2795852 C15.9992672,93.2291365 15.9487964,93.1786878 15.7973838,93.1786878 C15.8478546,93.0273418 15.8983255,92.8759958 15.9487964,92.7246498 C15.9487964,92.6742012 16.0497381,92.6237525 16.0497381,92.6237525 C16.3525634,92.7246498 16.6049177,92.8255472 16.9582139,92.9264445 L16.9582139,96.6091972 C16.9582139,96.6596458 17.0086847,96.7100945 17.0591556,96.7100945 C17.0591556,96.6596458 17.1096265,96.6091972 17.1600974,96.5587485 C17.3619809,96.2560565 17.6143352,95.9029158 17.8162187,95.6002238 C17.8666896,95.4993265 17.9171605,95.4993265 17.9676314,95.4993265 C18.2199857,95.6002238 18.4723401,95.6506725 18.7246945,95.7515698 C18.6742236,95.8524672 18.6237527,95.8524672 18.6237527,95.9029158 C18.3713984,96.2560565 18.119044,96.6091972 17.8666896,96.9623378 C17.7657479,97.0632352 17.7657479,97.2145812 17.8666896,97.4163758 C18.2704566,97.9713112 18.6742236,98.7280412 19.0275197,99.5352199 L19.0275197,99.5352199 L19.0275197,99.5352199 Z M11.2045342,93.0273418 C11.5073594,93.1282392 11.7597138,93.2291365 12.062539,93.3300338 L12.062539,97.0632352 C11.8606555,96.9623378 11.6083012,96.9623378 11.3559468,96.7605432 C11.255005,96.7100945 11.255005,96.4578512 11.1540633,96.3569538 C11.1540633,96.3569538 11.1035924,96.3569538 11.1035924,96.4074025 C10.8007672,96.7100945 10.3970002,96.6596458 9.99323317,96.3569538 C9.58946617,96.0542618 9.38758268,95.6002238 9.3371118,95.0452885 C9.28664093,94.4903532 9.28664093,93.9354178 9.28664093,93.3804825 L9.28664093,93.0273418 C9.18569918,92.9264445 9.1352283,92.9264445 8.98381568,92.8759958 C9.03428655,92.7246498 9.08475743,92.5733038 9.1352283,92.4219578 C9.1352283,92.3715092 9.23617005,92.3210605 9.23617005,92.3210605 C9.5389953,92.4219578 9.79134967,92.5228552 10.0941749,92.6237525 L10.0941749,92.9264445 L10.0941749,94.7425965 C10.0941749,95.2470832 10.2960584,95.6506725 10.5988837,95.7011212 C10.9017089,95.8020185 11.1035924,95.6002238 11.1035924,95.0452885 C11.2045342,94.4399045 11.2045342,93.7336232 11.2045342,93.0273418 L11.2045342,93.0273418 Z M31.6957092,103.066627 C32.0994762,103.217973 32.4023015,102.915281 32.4023015,102.360345 C32.4023015,101.80541 32.0994762,101.250475 31.6957092,101.149577 C31.2919423,101.04868 30.989117,101.300923 30.989117,101.855859 C31.0395879,102.360345 31.2919423,102.915281 31.6957092,103.066627 L31.6957092,103.066627 Z M33.2603064,102.612589 C33.2603064,103.672011 32.5537141,104.327843 31.7461801,104.025151 C30.8881753,103.722459 30.2320539,102.663037 30.2320539,101.553167 C30.2320539,100.443296 30.9386461,99.8379119 31.7461801,100.140604 C32.5537141,100.443296 33.2603064,101.553167 33.2603064,102.612589 L33.2603064,102.612589 Z M25.1849664,99.2325279 C25.1344956,98.8793872 24.9830829,98.5766952 24.7307286,98.5262465 C24.4783742,98.4253492 24.2764907,98.6271439 24.2260198,98.9298359 C24.5793159,98.9802845 24.8821412,99.1316305 25.1849664,99.2325279 L25.1849664,99.2325279 Z M24.2260198,99.6865659 C24.3269616,100.493745 24.8316703,100.897334 25.740146,100.897334 L25.740146,101.654064 C25.740146,101.704513 25.6896752,101.754961 25.6392043,101.754961 C25.1849664,101.754961 24.7307286,101.654064 24.3269616,101.351372 C23.6203693,100.796437 23.2166023,99.7370145 23.3680149,98.8289385 C23.4689567,97.9208625 24.0746072,97.5172732 24.8316703,97.7695165 C25.5382625,98.0722085 26.143913,99.2325279 26.0934422,100.140604 C26.0934422,100.29195 25.9925004,100.29195 25.9420295,100.241501 C25.4373208,100.039707 24.9830829,99.8883605 24.4783742,99.7370145 C24.3774324,99.7370145 24.3269616,99.7370145 24.2260198,99.6865659 L24.2260198,99.6865659 L24.2260198,99.6865659 Z M28.6169859,100.039707 C28.4655733,99.9388092 28.3141607,99.9388092 28.2132189,99.8883605 L28.2132189,98.9802845 C28.3141607,99.0307332 28.4655733,99.0811819 28.566515,99.0811819 L28.566515,98.1226572 C28.8693403,98.2235545 29.1216946,98.3244519 29.4245199,98.4253492 L29.4245199,99.3838739 C29.6264034,99.4847712 29.8282869,99.5352199 30.0301704,99.5856685 C30.1311121,99.6361172 30.181583,99.6865659 30.181583,99.8883605 L30.181583,100.594642 C29.8787578,100.493745 29.6768743,100.443296 29.4749908,100.29195 L29.4749908,101.80541 C29.4749908,102.108102 29.6768743,102.309897 29.8787578,102.360345 C29.9796995,102.360345 29.9796995,102.410794 30.0806413,102.410794 L30.0806413,103.167524 C30.0806413,103.217973 29.9796995,103.268421 29.9796995,103.268421 C29.8787578,103.268421 29.6768743,103.217973 29.5759325,103.167524 C29.0207529,102.965729 28.6674568,102.410794 28.6169859,101.603615 C28.566515,101.149577 28.6169859,100.695539 28.6169859,100.29195 C28.6169859,100.29195 28.6169859,100.191053 28.6169859,100.039707 L28.6169859,100.039707 Z M26.143913,100.897334 C26.3962674,101.099129 26.5981509,101.300923 26.8505053,101.502718 C26.951447,101.603615 27.0019179,101.603615 27.0523888,101.603615 C27.1533305,101.603615 27.2038014,101.502718 27.2542723,101.502718 C27.2542723,101.401821 27.2038014,101.250475 27.1533305,101.200026 C27.0019179,100.998231 26.8505053,100.796437 26.6486218,100.594642 C26.3457965,100.241501 26.143913,99.8883605 26.1943839,99.3838739 C26.1943839,98.8793872 26.3962674,98.5262465 26.8000344,98.5262465 C27.1533305,98.5262465 27.5066267,98.6775925 27.9103937,98.9802845 C27.9608645,99.0307332 28.0113354,99.0811819 28.0113354,99.1820792 L28.0113354,99.9892579 C27.9608645,99.8883605 27.9103937,99.8883605 27.9103937,99.8883605 C27.7085102,99.7874632 27.5066267,99.5856685 27.355214,99.4847712 C27.2542723,99.4343225 27.1533305,99.5352199 27.1533305,99.5856685 C27.1533305,99.6361172 27.2038014,99.8883605 27.2542723,99.9388092 C27.355214,100.140604 27.5570975,100.29195 27.7085102,100.443296 C27.9103937,100.745988 28.1122772,100.998231 28.162748,101.351372 C28.2636898,102.057653 28.0618063,102.56214 27.5570975,102.56214 C27.1028597,102.56214 26.6486218,102.259448 26.2448548,101.906307 C26.1943839,101.553167 26.1943839,101.149577 26.143913,100.897334 L26.143913,100.897334 L26.143913,100.897334 Z M15.8478546,97.1641325 L15.8478546,98.2740032 C15.4945585,98.2740032 15.1412624,98.1731058 14.7879663,97.9713112 C14.081374,97.4668245 13.6271361,96.4578512 13.677607,95.5497752 C13.7280779,94.6416992 14.2832575,94.0867638 14.9898498,94.2381098 C15.2422041,94.3390072 15.4945585,94.4399045 15.696442,94.5408018 C15.7469129,94.5912505 15.7973838,94.6416992 15.7973838,94.7425965 L15.7973838,95.7011212 C15.4945585,95.3984292 15.292675,95.1461858 14.9898498,95.1966345 C14.888908,95.2470832 14.6870245,95.2975318 14.5860828,95.4488778 C14.3841993,95.7515698 14.4346701,96.3065052 14.6870245,96.7100945 C14.9393789,97.2650298 15.3431459,97.4163758 15.8478546,97.1641325 L15.8478546,97.1641325 L15.8478546,97.1641325 Z M13.4252526,97.5172732 C13.1224274,97.4163758 12.870073,97.3154785 12.5672478,97.2145812 L12.5672478,94.1372125 C12.466306,94.0867638 12.4158352,94.0363152 12.2644225,94.0363152 C12.3148934,93.8849692 12.3653643,93.7336232 12.4158352,93.5318285 C12.4158352,93.4813798 12.5167769,93.4309312 12.5167769,93.4813798 C12.8196021,93.5822772 13.0719565,93.6831745 13.4252526,93.7840718 L13.4252526,97.5172732 L13.4252526,97.5172732 Z M13.4252526,92.6237525 C13.4252526,92.9768932 13.2233691,93.1786878 12.9710148,93.1282392 C12.7186604,93.0273418 12.5167769,92.6742012 12.5167769,92.3715092 C12.5167769,92.0183685 12.7186604,91.8165738 12.9710148,91.8670225 C13.2233691,91.9174712 13.4252526,92.2706118 13.4252526,92.6237525 L13.4252526,92.6237525 L13.4252526,92.6237525 Z M33.2603064,98.8289385 L33.2603064,99.0307332 C33.3612481,99.0811819 33.411719,99.1316305 33.5631316,99.1316305 L33.5631316,100.039707 C33.6640734,100.039707 33.6640734,100.090155 33.7650151,100.140604 L33.7650151,99.2325279 C33.8659569,99.2829765 33.9164277,99.3334252 34.0173695,99.3334252 L34.0173695,99.1316305 C33.7145442,98.9802845 33.5126607,98.9298359 33.2603064,98.8289385 L33.2603064,98.8289385 Z M34.5220782,100.140604 C34.4211365,99.8379119 34.4211365,99.4847712 34.3706656,99.1820792 C34.2697239,99.1316305 34.219253,99.0811819 34.0678404,99.0811819 L34.0678404,100.191053 C34.1687821,100.191053 34.1687821,100.241501 34.219253,100.29195 L34.219253,99.5352199 L34.219253,99.4343225 L34.219253,99.3334252 C34.2697239,99.6865659 34.3201947,100.039707 34.3706656,100.342399 C34.4716074,100.342399 34.4716074,100.392847 34.5220782,100.443296 C34.5725491,100.140604 34.62302,99.8379119 34.6734909,99.5352199 L34.6734909,99.6361172 L34.6734909,99.7370145 L34.6734909,100.493745 C34.7239617,100.493745 34.7744326,100.544193 34.8249035,100.594642 L34.8249035,99.4847712 C34.7239617,99.4343225 34.6734909,99.3838739 34.5725491,99.3838739 C34.62302,99.5856685 34.5725491,99.8883605 34.5220782,100.140604 L34.5220782,100.140604 L34.5220782,100.140604 Z M4.34049522,109.070018 C4.84520396,109.423159 5.40038358,109.776299 5.90509233,110.078991 C6.25838845,110.280786 6.51074282,110.381683 6.71262632,110.482581 C7.16686419,110.633927 7.46968944,110.633927 7.77251469,110.482581 C8.02486906,110.331235 8.12581081,110.028543 8.12581081,109.624953 C8.12581081,109.019569 7.82298556,108.313288 7.26780594,107.607007 C6.86403895,107.10252 6.5612137,106.749379 6.3593302,106.497136 C5.65273796,105.58906 5.09755833,104.882779 4.84520396,104.378292 C4.49190784,103.672011 4.34049522,102.864832 4.34049522,102.007205 C4.34049522,100.796437 4.64332046,99.9892579 5.24897096,99.5856685 C5.85462145,99.1820792 6.71262632,99.1316305 7.77251469,99.4847712 C8.58004868,99.7874632 9.3371118,100.191053 10.0941749,100.796437 L10.0941749,103.31887 C9.38758268,102.814383 8.47910693,102.208999 7.72204381,102.007205 C6.96498069,101.80541 6.3593302,102.208999 7.16686419,103.520665 C7.46968944,103.974703 7.87345644,104.529638 8.42863606,105.235919 C9.08475743,106.043098 9.5389953,106.749379 9.84182055,107.354763 C10.3465293,108.313288 10.5484128,109.37271 10.5484128,110.482581 C10.5484128,111.693349 10.2455875,112.601425 9.58946617,113.055463 C8.9333448,113.559949 8.07533994,113.559949 6.91450982,113.15636 C6.00603408,112.853668 5.19850008,112.349181 4.39096609,111.743797 C4.39096609,110.88617 4.39096609,110.028543 4.34049522,109.070018 L4.34049522,109.070018 L4.34049522,109.070018 Z M11.3054759,100.897334 C13.27384,101.603615 15.2422041,102.309897 17.2105682,103.016178 L17.2105682,105.538611 C15.9487964,105.084573 14.7374954,104.630535 13.4757235,104.226946 L13.4757235,106.951174 C14.3841993,107.304315 15.3936168,107.657455 16.3525634,107.960147 L16.3525634,110.482581 C15.4440876,110.12944 14.4346701,109.776299 13.4757235,109.473607 L13.4757235,112.803219 C14.7879663,113.257257 16.0497381,113.711295 17.4124517,114.165333 L17.4124517,116.687767 C15.3936168,115.981485 13.3243109,115.275204 11.3054759,114.568923 L11.3054759,107.707904 L11.3054759,100.897334 L11.3054759,100.897334 L11.3054759,100.897334 Z" id="Shape" fill="#FFFFFF"></path>
                                <path d="M14.4346701,123.901926 C16.3020925,124.608207 16.1506799,124.557759 18.0181022,125.213591 C18.8761071,125.516283 19.6331702,126.121667 20.137879,126.928846 C20.6425877,127.685576 20.945413,128.593652 21.0463547,129.400831 L22.0557722,137.674412 C22.1567139,138.532039 21.7024761,139.187872 21.1472965,139.490564 C20.5921168,139.843705 19.8350537,139.894153 19.0275197,139.591461 C17.1600974,138.88518 15.292675,138.229347 13.4252526,137.573515 C11.7092429,137.018579 10.0941749,135.252876 10.3970002,133.436724 L11.4064177,125.869424 C11.5073594,125.011797 11.7597138,124.355964 12.3148934,124.053272 C12.8196021,123.700131 13.6271361,123.649683 14.4346701,123.901926 L14.4346701,123.901926 L14.4346701,123.901926 Z" id="Shape" fill="#E0B074"></path>
                                <polygon id="Shape" fill="#839FA6" points="83.8825936 176.772129 83.8825936 236.15021 77.0185546 236.15021 67.4290885 162.797848 86.1537829 162.797848 86.1537829 176.772129"></polygon>
                                <polygon id="Shape" fill="#638691" points="88.3240306 176.772129 88.3240306 236.15021 95.5918365 236.049313 102.859642 176.772129 104.878477 162.797848 86.1537829 162.797848 86.1537829 176.772129"></polygon>
                                <path d="M73.4351225,136.917682 C72.9304138,136.968131 72.5266468,137.119477 72.2742924,137.422169 C71.9209963,137.825758 71.8705254,138.431142 71.7695837,138.935629 L70.8611079,143.778701 L70.8611079,143.879598 L70.8106371,144.081393 L70.8106371,144.081393 C70.8106371,144.484982 70.9115788,144.93902 71.2144041,145.191263 C71.5172293,145.493955 71.8200546,145.69575 72.1733507,145.69575 L84.6396567,149.529849 L84.6396567,149.529849 L84.6396567,149.529849 C86.4061373,149.882989 88.3745014,149.075811 88.7782684,147.461453 L90.7466325,140.650883 C90.8475743,140.348191 90.7971034,140.045499 90.7466325,139.742807 L86.2042538,138.330245 L75.655841,137.169925 C75.252074,137.119477 73.8893604,136.867233 73.4351225,136.917682 L73.4351225,136.917682 Z" id="Shape" fill="#EEC281"></path>
                                <path d="M90.7466325,141.104921 C91.6046374,138.532039 89.6867442,137.37172 87.8697927,136.312298 L81.5609334,132.579097 C80.7533994,132.07461 79.693511,132.377302 79.2392731,133.184481 L79.2392731,133.184481 C78.7345644,133.991659 79.0373896,135.051081 79.8449236,135.505119 L86.6584917,139.541013 L90.7466325,141.104921 L90.7466325,141.104921 Z" id="Shape" fill="#EEC281"></path>
                                <ellipse id="Oval" fill="#E1594D" cx="85.8509577" cy="71.5866584" rx="6.61168457" ry="3.07736868"></ellipse>
                                <polygon id="Shape" fill="#EEC281" points="111.641575 118.806611 117.799021 114.972512 119.111264 117.192253 120.423507 119.361546 121.685279 121.429941 122.795638 123.498337 123.855526 125.516283 124.814473 127.53423 125.672478 129.451279 126.429541 131.31788 127.035191 133.184481 127.590371 134.950184 127.943667 136.715887 128.145551 138.481591 128.246492 140.196845 128.044609 141.9121 127.640842 143.576906 126.98472 145.191263 126.025774 146.704723 124.814473 148.016389 123.401288 149.075811 121.73575 149.983887 119.918798 150.639719 118.051376 151.093757 115.931599 151.446898 113.66041 151.598244 111.237808 151.598244 108.613322 151.446898 105.786953 151.194655 102.758701 150.791065 99.427623 150.23613 95.9451326 149.4794 92.159817 148.621773 88.1221471 147.612799 89.9390985 140.600435 93.8253559 141.558959 97.4592589 142.416587 100.790337 143.122868 103.86906 143.576906 106.644958 143.980495 109.168502 144.232739 111.439691 144.333636 113.458526 144.333636 115.174536 144.232739 116.638191 144.030944 117.849492 143.728252 118.757968 143.375111 119.46456 142.971522 119.918798 142.618381 120.322565 142.265241 120.524449 141.861651 120.726332 141.357165 120.928216 140.751781 120.928216 139.995051 120.928216 139.036526 120.776803 137.926655 120.524449 136.715887 120.120682 135.353773 119.615973 133.840313 118.959851 132.276405 118.253259 130.56115 117.344783 128.795447 116.385837 126.928846 115.325948 125.011797 114.215589 123.044299 112.953817 120.975903"></polygon>
                            </g>
                            <path d="M0.148513514,87.9824751 C4.08524173,87.4275398 7.41631946,83.5934411 7.97149908,80.1629318 C8.5266787,83.6943384 11.9082273,87.4275398 15.7944846,87.9824751 C11.8577564,88.5374105 8.5266787,92.3715092 7.97149908,95.8020185 C7.41631946,92.3210605 4.03477086,88.5374105 0.148513514,87.9824751 L0.148513514,87.9824751 Z" id="Shape" fill="#D7EAF4"></path>
                            <path d="M123.701215,118.554367 C126.931351,118.251675 129.757719,115.931037 130.211957,113.812193 C130.666195,115.931037 133.442093,118.201227 136.7227,118.554367 C133.492564,118.857059 130.666195,121.177698 130.211957,123.296542 C129.757719,121.127249 126.931351,118.857059 123.701215,118.554367 L123.701215,118.554367 Z" id="Shape" fill="#D7EAF4"></path>
                            <path d="M104.926049,181.716098 C107.247709,181.413406 109.266544,179.092768 109.56937,176.973924 C109.872195,179.092768 111.89103,181.362958 114.21269,181.716098 C111.89103,182.01879 109.872195,184.339429 109.56937,186.458273 C109.266544,184.339429 107.247709,182.069239 104.926049,181.716098 L104.926049,181.716098 Z" id="Shape" fill="#D7EAF4"></path>
                            <path d="M109.216074,296.839956 C111.386321,296.537264 113.253743,294.367972 113.556569,292.450922 C113.859394,294.41842 115.726816,296.537264 117.897064,296.839956 C115.726816,297.142648 113.859394,299.311941 113.556569,301.22899 C113.253743,299.261492 111.386321,297.142648 109.216074,296.839956 L109.216074,296.839956 Z" id="Shape" fill="#D7EAF4"></path>
                        </g>
                    </g>
                </g>
            </g>
        </g>
    </g>
</svg>