<?xml version="1.0" encoding="UTF-8" standalone="no"?>
<svg width="144px" height="121px" viewBox="0 0 144 121" version="1.1" xmlns="http://www.w3.org/2000/svg" xmlns:xlink="http://www.w3.org/1999/xlink">
    <!-- Generator: sketchtool 40.3 (33839) - http://www.bohemiancoding.com/sketch -->
    <title>BE18BB65-3DD4-4F57-A15A-630AB482FF86</title>
    <desc>Created with sketchtool.</desc>
    <defs></defs>
    <g id="main" stroke="none" stroke-width="1" fill="none" fill-rule="evenodd">
        <g transform="translate(-453.000000, -666.000000)" id="1.8-illustration#1">
            <g transform="translate(453.000000, 666.000000)">
                <g id="Слой_1">
                    <g id="Слой_x0020_1">
                        <g id="_2933262976">
                            <path d="M93.5332772,27.0435 C119.555181,27.0435 140.63353,48.06725 140.63353,74.02175 C140.63353,99.97625 119.555181,121 93.5332772,121 C67.5113732,121 46.4330244,99.97625 46.4330244,74.02175 C46.4330244,48.06725 67.5113732,27.0435 93.5332772,27.0435 L93.5332772,27.0435 Z" id="Shape" fill="#B0DCE9"></path>
                            <path d="M122.10278,36.69325 L102.904802,36.69325 C100.903117,36.69325 99.2653749,38.32675 99.2653749,40.32325 L99.2653749,40.32325 C99.2653749,42.31975 100.903117,43.95325 102.904802,43.95325 L129.68492,43.95325 C127.440607,41.261 124.893008,38.841 122.10278,36.69325 L122.10278,36.69325 Z" id="Shape" fill="#D9EEF4"></path>
                            <path d="M109.516428,96.3765 L5.94439764,96.3765 C2.66891323,96.3765 0,99.0385 0,102.33575 L0,102.33575 C0,105.60275 2.66891323,108.26475 5.94439764,108.26475 L109.516428,108.26475 L109.516428,96.3765 L109.516428,96.3765 Z" id="Shape" fill="#D9EEF4"></path>
                            <path d="M34.483572,96.3765 L138.055602,96.3765 C141.331087,96.3765 144,99.0385 144,102.33575 L144,102.33575 C144,105.60275 141.331087,108.26475 138.055602,108.26475 L34.483572,108.26475 L34.483572,96.3765 L34.483572,96.3765 Z" id="Shape" fill="#D9EEF4"></path>
                            <path d="M108.151643,36.69325 L79.7034541,36.69325 C77.7017692,36.69325 76.064027,38.32675 76.064027,40.32325 L76.064027,40.32325 C76.064027,42.31975 77.7017692,43.95325 79.7034541,43.95325 L108.151643,43.95325 L108.151643,36.69325 L108.151643,36.69325 Z" id="Shape" fill="#D9EEF4"></path>
                            <path d="M99.326032,81.46325 C94.1095198,83.39925 91.0766639,83.369 89.347936,82.0985 C87.2552654,80.55575 87.3159225,78.01475 88.0438079,74.98975 C88.4684078,73.1445 89.2872789,71.05725 90.5004212,68.87925 C91.5922494,66.88275 92.9570345,64.82575 94.6554339,62.799 L98.1735468,65.703 C96.6571188,67.518 95.4136479,69.333 94.5037911,71.05725 C93.5332772,72.87225 92.8660489,74.56625 92.5021061,76.0485 C92.168492,77.40975 91.9865206,78.408 92.0775063,78.4685 C92.5627633,78.80125 94.2005055,78.529 97.7489469,77.198 L99.326032,81.46325 L99.326032,81.46325 Z" id="Shape" fill="#E3BA8D"></path>
                            <path d="M121.799495,77.198 C125.378265,78.49875 127.016007,78.80125 127.470935,78.4685 C127.592249,78.37775 127.379949,77.3795 127.046335,76.0485 C126.712721,74.56625 126.045493,72.87225 125.04465,71.05725 C124.104465,69.333 122.891323,67.54825 121.374895,65.703 L124.893008,62.799 C126.591407,64.82575 127.956192,66.88275 129.04802,68.87925 C130.230834,71.05725 131.049705,73.1445 131.504634,74.98975 C132.232519,78.01475 132.293176,80.55575 130.200505,82.0985 C128.471778,83.369 125.46925,83.369 120.222409,81.46325 L121.799495,77.198 L121.799495,77.198 Z" id="Shape" fill="#E0AF74"></path>
                            <polygon id="Shape" fill="#819EA6" points="108.363943 97.31425 108.363943 103.5155 99.4776748 103.5155 97.9915754 103.5155 97.9915754 93.533 98.021904 93.533 97.26369 87.967 109.880371 87.967 109.880371 97.31425"></polygon>
                            <polygon id="Shape" fill="#628691" points="111.336142 97.31425 111.336142 103.5155 120.192081 103.5155 121.708509 103.5155 121.708509 93.533 121.67818 93.533 122.497051 87.967 109.880371 87.967 109.880371 97.31425"></polygon>
                            <path d="M123.012637,69.575 C123.012637,71.48075 123.012637,73.3865 123.042965,75.262 L123.103623,78.49875 L123.103623,84.54875 C123.133951,87.5435 123.133951,90.508 123.133951,93.50275 L113.944398,93.50275 L113.944398,93.50275 L109.850042,93.50275 L109.759056,93.50275 L105.604044,93.50275 L105.604044,93.50275 L96.4144903,93.50275 L96.4144903,78.49875 L96.5964617,69.42375 L94.6251053,72.63025 L89.1659646,69.3935 L91.5315922,65.18875 C92.8357203,62.88975 93.4119629,61.74025 95.3226622,59.8345 C96.9604044,58.201 98.9014322,56.8095 100.994103,55.87175 C103.208088,54.84325 105.604044,54.29875 108.242628,54.087 C110.486942,53.9055 112.822241,54.0265 114.854254,54.571 C119.130581,55.69025 124.438079,58.9875 126.591407,62.799 L130.32182,69.3935 L124.862679,72.63025 L122.982308,69.575 L123.012637,69.575 L123.012637,69.575 Z" id="Shape" fill="#E1574C"></path>
                            <path d="M123.012637,69.575 C123.012637,71.48075 123.012637,73.3865 123.042965,75.262 L123.103623,78.49875 L123.103623,84.54875 C123.133951,87.5435 123.133951,90.508 123.133951,93.50275 L113.944398,93.50275 L113.944398,93.50275 L109.850042,93.50275 L109.850042,53.966 C111.57877,53.93575 113.307498,54.11725 114.854254,54.5105 C119.130581,55.62975 124.438079,58.927 126.591407,62.7385 L130.32182,69.333 L124.862679,72.56975 L122.982308,69.5145 L123.012637,69.575 L123.012637,69.575 Z" id="Shape" fill="#CB4B40"></path>
                            <polygon id="Shape" fill="#D8D9D9" points="130.564448 69.333 124.741365 72.7815 123.952822 71.42025 129.775906 67.9415"></polygon>
                            <path d="M121.829823,77.682 C120.283067,77.65175 114.793597,78.43825 109.759056,79.40625 L109.759056,74.80825 C114.854254,73.84025 120.192081,73.11425 121.920809,73.17475 L121.799495,77.682 L121.829823,77.682 L121.829823,77.682 Z" id="Shape" fill="#E3BA8D"></path>
                            <path d="M105.331087,54.5105 C105.604044,56.71875 107.484414,58.41275 109.728728,58.41275 C112.033698,58.41275 113.792755,56.59775 114.035383,54.35925 C112.21567,53.99625 110.213985,53.93575 108.272957,54.087 C107.241786,54.17775 106.271272,54.29875 105.331087,54.48025 L105.331087,54.5105 L105.331087,54.5105 Z" id="Shape" fill="#1E3654"></path>
                            <path d="M106.331929,119.27575 L106.331929,103.1525 L100.053917,103.1525 L100.053917,120.5765 C102.207245,120.274 104.299916,119.8505 106.331929,119.27575 L106.331929,119.27575 Z" id="Shape" fill="#E3BA8D"></path>
                            <path d="M119.676495,113.135 L119.676495,103.334 L113.398484,103.334 L113.398484,116.67425 C115.58214,115.64575 117.67481,114.466 119.676495,113.135 L119.676495,113.135 Z" id="Shape" fill="#E0AF74"></path>
                            <polygon id="Shape" fill="#99B1B7" points="97.6276327 103.5155 108.727885 103.5155 108.727885 101.60975 97.6276327 101.60975"></polygon>
                            <polygon id="Shape" fill="#72929C" points="110.972199 103.5155 122.072452 103.5155 122.072452 101.60975 110.972199 101.60975"></polygon>
                            <path d="M107.211457,49.368 L107.211457,59.50175 L112.579612,59.50175 L112.579612,49.33775 C111.669756,49.45875 110.72957,49.51925 109.789385,49.51925 L109.789385,49.51925 C108.909857,49.51925 108.060657,49.45875 107.211457,49.368 L107.211457,49.368 Z" id="Shape" fill="#E0AF74"></path>
                            <path d="M102.692502,55.20625 C103.268745,58.564 106.210615,61.13525 109.759056,61.13525 C112.822241,61.13525 115.460826,59.19925 116.491997,56.47675 C116.643639,56.11375 116.764954,55.62975 116.855939,55.20625 C116.188711,54.96425 115.521483,54.72225 114.884583,54.571 C114.581297,54.48025 114.278012,54.41975 113.974726,54.35925 C113.762426,56.507 111.973041,58.201 109.759056,58.201 C107.5754,58.201 105.786015,56.5675 105.543387,54.45 C104.542544,54.6315 103.602359,54.8735 102.692502,55.20625 L102.692502,55.20625 Z" id="Shape" fill="#D8D9D9"></path>
                            <path d="M97.3850042,30.6735 C98.6588037,30.6735 99.6899747,31.702 99.6899747,32.9725 C99.6899747,34.243 98.6588037,35.2715 97.3850042,35.2715 C96.1112047,35.2715 95.0800337,34.243 95.0800337,32.9725 C95.0800337,31.702 96.1112047,30.6735 97.3850042,30.6735 L97.3850042,30.6735 Z" id="Shape" fill="#E1574C"></path>
                            <path d="M122.891323,30.6735 C121.617523,30.6735 120.586352,31.702 120.586352,32.9725 C120.586352,34.243 121.617523,35.2715 122.891323,35.2715 C124.165122,35.2715 125.196293,34.243 125.196293,32.9725 C125.196293,31.702 124.165122,30.6735 122.891323,30.6735 L122.891323,30.6735 Z" id="Shape" fill="#E1574C"></path>
                            <path d="M125.89385,14.42925 L125.89385,24.563 C127.683235,24.563 129.169334,26.015 129.169334,27.83 C129.169334,29.61475 127.713564,31.097 125.89385,31.097 L125.89385,39.1435 C125.89385,47.9765 118.645324,55.20625 109.789385,55.20625 C100.933446,55.20625 93.68492,47.9765 93.68492,39.1435 L93.68492,14.4595 L109.789385,14.4595 L125.89385,14.4595 L125.89385,14.42925 L125.89385,14.42925 Z" id="Shape" fill="#E0AF74"></path>
                            <path d="M109.789385,55.176 C100.933446,55.176 93.68492,47.94625 93.68492,39.11325 L93.68492,31.06675 C91.895535,31.06675 90.4094356,29.61475 90.4094356,27.79975 C90.4094356,26.015 91.8652064,24.53275 93.68492,24.53275 L93.68492,14.399 L109.789385,14.399 L109.789385,55.14575 L109.789385,55.176 L109.789385,55.176 Z" id="Shape" fill="#E3BA8D"></path>
                            <path d="M93.6545914,31.097 C91.8652064,31.097 90.379107,29.645 90.379107,27.83 C90.379107,26.04525 91.8348778,24.563 93.6545914,24.563 L93.6545914,31.06675 L93.6545914,31.097 L93.6545914,31.097 Z" id="Shape" fill="#E3BA8D"></path>
                            <path d="M125.89385,26.16625 C126.803707,26.16625 127.561921,26.9225 127.561921,27.83 C127.561921,28.7375 126.803707,29.49375 125.89385,29.49375 L125.89385,26.16625 L125.89385,26.16625 Z" id="Shape" fill="#B0774A"></path>
                            <path d="M93.6545914,26.16625 C92.7447346,26.16625 91.9865206,26.9225 91.9865206,27.83 C91.9865206,28.7375 92.7447346,29.49375 93.6545914,29.49375 L93.6545914,26.16625 L93.6545914,26.16625 Z" id="Shape" fill="#B0774A"></path>
                            <path d="M109.789385,28.8585 C110.699242,28.8585 111.427127,29.5845 111.427127,30.492 C111.427127,30.6735 111.396799,30.88525 111.336142,31.0365 L108.272957,31.0365 C108.2123,30.855 108.181971,30.6735 108.181971,30.492 C108.181971,29.5845 108.909857,28.8585 109.819714,28.8585 L109.789385,28.8585 L109.789385,28.8585 Z" id="Shape" fill="#E1574C"></path>
                            <path d="M106.9385,22.748 C105.331087,20.41875 101.631003,20.691 100.357203,22.748" id="Shape"></path>
                            <path d="M115.915754,23.26225 C114.641955,23.26225 113.610783,24.29075 113.610783,25.56125 C113.610783,26.83175 114.641955,27.86025 115.915754,27.86025 C117.189553,27.86025 118.220725,26.83175 118.220725,25.56125 C118.220725,24.29075 117.189553,23.26225 115.915754,23.26225 L115.915754,23.26225 Z" id="Shape" fill="#1E3654"></path>
                            <path d="M116.643639,24.805 C116.21904,24.805 115.915754,25.13775 115.915754,25.531 C115.915754,25.9545 116.249368,26.257 116.643639,26.257 C117.068239,26.257 117.371525,25.92425 117.371525,25.531 C117.371525,25.1075 117.037911,24.805 116.643639,24.805 L116.643639,24.805 Z" id="Shape" fill="#FEFEFE"></path>
                            <path d="M103.663016,23.26225 C102.389217,23.26225 101.358045,24.29075 101.358045,25.56125 C101.358045,26.83175 102.389217,27.86025 103.663016,27.86025 C104.936816,27.86025 105.967987,26.83175 105.967987,25.56125 C105.967987,24.29075 104.936816,23.26225 103.663016,23.26225 L103.663016,23.26225 Z" id="Shape" fill="#1E3654"></path>
                            <path d="M104.390901,24.805 C103.966302,24.805 103.663016,25.13775 103.663016,25.531 C103.663016,25.9545 103.99663,26.257 104.390901,26.257 C104.815501,26.257 105.118787,25.92425 105.118787,25.531 C105.118787,25.1075 104.785173,24.805 104.390901,24.805 L104.390901,24.805 Z" id="Shape" fill="#FEFEFE"></path>
                            <path d="M119.191238,22.748 C117.583825,20.41875 113.883741,20.691 112.609941,22.748" id="Shape"></path>
                            <path d="M126.53075,31.0365 C126.31845,31.06675 126.10615,31.097 125.89385,31.097 L125.89385,39.1435 C125.89385,47.9765 118.645324,55.20625 109.789385,55.20625 C100.933446,55.20625 93.68492,47.9765 93.68492,39.1435 L93.68492,31.0365 L93.68492,31.0365 L93.68492,18.755 L97.6276327,18.755 L97.6276327,28.70725 L97.6276327,28.70725 L97.6276327,28.7375 C97.6276327,29.9475 98.567818,30.94575 99.7809604,31.00625 L99.7809604,31.00625 L119.828138,31.00625 L119.828138,31.00625 C121.010952,30.9155 121.951137,29.9475 121.981466,28.76775 L121.981466,28.70725 L121.981466,18.755 L125.924179,18.755 L125.924179,31.0365 L126.561078,31.0365 L126.53075,31.0365 L126.53075,31.0365 Z" id="Shape" fill="#B0774A"></path>
                            <path d="M109.789385,46.8875 C99.6596462,46.8875 97.9005897,35.9975 98.2645324,35.9975 C98.2645324,34.3035 99.6293176,32.94225 101.327717,32.94225 L118.220725,32.94225 C119.919124,32.94225 121.283909,34.3035 121.283909,35.9975 C121.374895,36.69325 119.615838,46.8875 109.759056,46.8875 L109.789385,46.8875 L109.789385,46.8875 Z" id="Shape" fill="#1E3654"></path>
                            <path d="M98.6588037,38.2965 C99.9629318,43.22725 104.451559,46.8875 109.789385,46.8875 C105.816344,43.9835 105.755687,35.05975 109.789385,32.94225 L101.358045,32.94225 L101.358045,32.94225 C99.6596462,32.94225 98.294861,34.3035 98.294861,35.9975 L98.294861,35.9975 C98.3555181,36.75375 98.4768324,37.54025 98.6891323,38.2965 L98.6588037,38.2965 L98.6588037,38.2965 Z" id="Shape" fill="#192D45"></path>
                            <path d="M109.789385,34.69675 L101.327717,34.69675 C100.599832,34.69675 100.023589,35.2715 100.023589,35.9975 L100.023589,35.9975 C100.023589,36.7235 100.599832,37.29825 101.327717,37.29825 L109.789385,37.29825 L118.251053,37.29825 C118.978939,37.29825 119.555181,36.7235 119.555181,35.9975 L119.555181,35.9975 C119.555181,35.2715 118.978939,34.69675 118.251053,34.69675 L109.789385,34.69675 L109.789385,34.69675 Z" id="Shape" fill="#FEFEFE"></path>
                            <path d="M107.848357,22.23375 C108.151643,22.65725 108.030329,23.232 107.605729,23.5345 C107.181129,23.837 106.604886,23.716 106.301601,23.2925 C106.058972,22.9295 105.755687,22.65725 105.422072,22.47575 C104.84583,22.11275 104.178602,21.9615 103.511373,21.99175 C102.844145,22.022 102.207245,22.2035 101.69166,22.5665 C101.418703,22.748 101.176074,22.99 100.994103,23.26225 C100.721146,23.716 100.144903,23.837 99.7203033,23.56475 C99.2653749,23.2925 99.1440607,22.71775 99.4170177,22.29425 C99.7203033,21.78 100.144903,21.3565 100.660489,21.02375 C101.449031,20.47925 102.449874,20.17675 103.481045,20.1465 C104.481887,20.11625 105.543387,20.35825 106.422915,20.90275 C106.968829,21.2355 107.454086,21.68925 107.848357,22.264 L107.848357,22.23375 L107.848357,22.23375 Z" id="Shape" fill="#B0774A"></path>
                            <path d="M120.101095,22.23375 C120.404381,22.65725 120.283067,23.232 119.858467,23.5345 C119.433867,23.837 118.857624,23.716 118.554339,23.2925 C118.31171,22.9295 118.008425,22.65725 117.67481,22.47575 C117.098568,22.11275 116.43134,21.9615 115.764111,21.99175 C115.096883,22.022 114.459983,22.2035 113.944398,22.5665 C113.671441,22.748 113.428812,22.99 113.246841,23.26225 C112.973884,23.716 112.397641,23.837 111.973041,23.56475 C111.518113,23.2925 111.396799,22.71775 111.669756,22.29425 C111.973041,21.78 112.397641,21.3565 112.913227,21.02375 C113.701769,20.47925 114.702612,20.17675 115.733783,20.1465 C116.734625,20.11625 117.796125,20.35825 118.675653,20.90275 C119.221567,21.2355 119.706824,21.68925 120.101095,22.264 L120.101095,22.23375 L120.101095,22.23375 Z" id="Shape" fill="#B0774A"></path>
                            <path d="M109.789385,40.92825 C107.393429,40.92825 105.48273,41.83575 105.48273,42.92475 C105.48273,44.01375 107.423757,44.92125 109.789385,44.92125 C112.185341,44.92125 114.09604,44.01375 114.09604,42.92475 C114.09604,41.83575 112.155013,40.92825 109.789385,40.92825 L109.789385,40.92825 Z" id="Shape" fill="#E1574C"></path>
                            <path d="M101.994945,1.331 L117.644482,1.331 C120.252738,1.331 122.588037,2.541 124.104465,4.4165 C126.136479,6.92725 125.863521,8.86325 125.863521,11.82775 L125.863521,18.60375 L125.863521,18.755 L93.6545914,18.755 L93.6545914,9.6195 C93.6545914,5.082 97.3850042,1.331 101.964617,1.331 L101.994945,1.331 L101.994945,1.331 Z" id="Shape" fill="#192D45"></path>
                            <path d="M101.994945,1.331 L109.789385,1.331 L109.789385,18.755 L93.68492,18.755 L93.68492,9.6195 C93.68492,5.082 97.4153328,1.331 101.994945,1.331 L101.994945,1.331 Z" id="Shape" fill="#1E3654"></path>
                            <path d="M111.821398,1.331 L111.821398,0.6655 C111.821398,0.3025 111.518113,0 111.15417,0 L108.4246,0 C108.060657,0 107.757372,0.3025 107.757372,0.6655 L107.757372,1.331 L111.821398,1.331 L111.821398,1.331 Z" id="Shape" fill="#E1574C"></path>
                            <polygon id="Shape" fill="#E1574C" points="85.010952 10.043 85.010952 8.833 90.1364785 8.833 90.1364785 8.833 117.67481 8.833 125.89385 17.0005 125.89385 18.755 93.7455771 18.755"></polygon>
                            <polygon id="Shape" fill="#CB4B40" points="93.7455771 18.755 85.010952 10.043 117.159225 10.043 125.89385 18.755"></polygon>
                            <path d="M127.531592,78.49875 L124.013479,78.49875 C119.494524,78.49875 119.494524,71.6925 124.013479,71.6925 L125.135636,71.6925 L126.95535,71.6925 C126.985678,71.8135 127.016007,71.9345 127.016007,72.08575 C127.016007,72.721 126.500421,73.205 125.89385,73.205 L125.863521,73.205 L125.863521,73.205 L130.898062,73.205 L130.898062,75.65525 L130.898062,75.71575 L130.898062,75.71575 C130.837405,77.682 129.199663,78.4685 127.531592,78.4685 L127.531592,78.49875 L127.531592,78.49875 Z" id="Shape" fill="#E3BA8D"></path>
                            <path d="M109.789385,79.376 C111.214827,79.6785 112.731255,80.0415 114.217355,80.4045 C119.069924,81.58425 122.406066,82.43125 124.559393,82.764 L125.651222,78.771 C122.406066,77.77275 119.221567,76.956 115.309183,75.988 C113.459141,75.53425 111.609099,75.17125 109.819714,74.80825 L109.819714,79.34575 L109.789385,79.376 L109.789385,79.376 Z" id="Shape" fill="#E0AF74"></path>
                            <path d="M95.5349621,78.49875 C97.4153328,78.49875 98.9317607,76.956 98.9317607,75.11075 L98.9317607,75.11075 C98.9317607,73.23525 97.3850042,71.72275 95.5349621,71.72275 L94.4128054,71.72275 L94.1398484,71.72275 C93.8668913,72.237 93.6545914,72.721 93.4422915,73.205 C93.5029486,73.205 93.5636057,73.23525 93.6545914,73.23525 L93.6545914,73.23525 L93.68492,73.23525 L93.68492,73.23525 L93.6545914,73.23525 L93.4422915,73.23525 C93.0176917,74.2335 92.7144061,75.17125 92.5021061,76.0485 C92.168492,77.40975 91.9865206,78.408 92.0775063,78.4685 C92.5324347,78.61975 95.1710194,78.49875 95.5349621,78.49875 L95.5349621,78.49875 Z" id="Shape" fill="#E0AF74"></path>
                            <path d="M109.789385,79.376 C108.363943,79.6785 106.847515,80.0415 105.361415,80.4045 C100.508846,81.58425 97.1727043,82.43125 95.0193766,82.764 L93.9275484,78.771 C97.1727043,77.77275 100.357203,76.956 104.269587,75.988 C106.119629,75.53425 107.7877,75.23175 109.577085,74.86875 L109.759056,79.376 L109.789385,79.376 L109.789385,79.376 Z" id="Shape" fill="#E3BA8D"></path>
                            <path d="M97.7186184,77.682 C99.2653749,77.65175 104.754844,78.43825 109.789385,79.40625 L109.789385,74.80825 C104.694187,73.84025 99.3563606,73.11425 97.6276327,73.17475 L97.7489469,77.682 L97.7186184,77.682 L97.7186184,77.682 Z" id="Shape" fill="#E0AF74"></path>
                            <polygon id="Shape" fill="#D8D9D9" points="88.9839933 69.333 94.8070767 72.7815 95.6259478 71.42025 89.7725358 67.9415"></polygon>
                            <path d="M104.148273,65.12825 L104.330244,65.461 C104.481887,65.73325 104.603201,65.97525 104.663858,66.15675 C104.694187,66.21725 104.663858,66.2475 104.603201,66.27775 L103.99663,66.6105 C103.935973,66.64075 103.875316,66.64075 103.844987,66.58025 C103.754002,66.45925 103.693345,66.3685 103.632687,66.308 L103.056445,66.6105 L103.420388,67.276 L104.360573,66.792 C104.451559,66.76175 104.481887,66.76175 104.542544,66.8525 L104.906487,67.54825 C104.936816,67.60875 104.936816,67.66925 104.84583,67.72975 L103.905644,68.21375 L104.20893,68.7885 C104.269587,68.75825 104.42123,68.69775 104.603201,68.63725 C104.663858,68.607 104.724516,68.63725 104.754844,68.69775 L105.088458,69.30275 C105.118787,69.36325 105.118787,69.3935 105.05813,69.42375 L103.14743,70.45225 C103.086773,70.4825 103.056445,70.4825 103.026116,70.422 L102.692502,69.817 C102.662174,69.7565 102.662174,69.696 102.722831,69.66575 C102.813816,69.60525 102.935131,69.5145 103.026116,69.454 L101.90396,67.36675 C101.812974,67.42725 101.69166,67.48775 101.600674,67.5785 C101.570345,67.60875 101.540017,67.60875 101.509688,67.60875 C101.47936,67.60875 101.449031,67.5785 101.449031,67.54825 L101.115417,66.913 C101.085088,66.8525 101.085088,66.792 101.145746,66.76175 C101.570345,66.39875 102.146588,66.0055 102.874473,65.6425 C103.208088,65.461 103.57203,65.2795 103.966302,65.1585 C104.057287,65.12825 104.117944,65.1585 104.148273,65.219 L104.148273,65.12825 L104.148273,65.12825 Z M105.664701,66.8525 L105.604044,66.58025 C105.48273,65.8845 105.513058,65.34 105.755687,64.94675 C105.998315,64.5535 106.422915,64.28125 107.059815,64.16025 C107.696714,64.03925 108.2123,64.09975 108.576243,64.40225 C108.940185,64.6745 109.182814,65.18875 109.334457,65.8845 L109.395114,66.15675 C109.516428,66.8525 109.486099,67.397 109.243471,67.79025 C109.000842,68.1835 108.576243,68.45575 107.939343,68.57675 C107.302443,68.69775 106.786858,68.63725 106.422915,68.33475 C106.058972,68.0625 105.816344,67.54825 105.664701,66.8525 L105.664701,66.8525 Z M108.030329,66.3685 L108,66.15675 C107.909014,65.73325 107.818029,65.461 107.727043,65.30975 C107.636057,65.1585 107.484414,65.12825 107.272115,65.1585 C107.059815,65.18875 106.9385,65.30975 106.908172,65.461 C106.877843,65.6425 106.877843,65.91475 106.968829,66.33825 L106.999158,66.55 C107.090143,66.9735 107.181129,67.24575 107.272115,67.397 C107.3631,67.54825 107.514743,67.5785 107.727043,67.54825 C107.939343,67.518 108.060657,67.397 108.090986,67.24575 C108.121314,67.06425 108.090986,66.792 108.030329,66.3685 L108.030329,66.3685 Z M110.153328,66.1265 L110.183656,65.85425 C110.274642,65.1585 110.51727,64.64425 110.850885,64.34175 C111.214827,64.03925 111.700084,63.91825 112.336984,64.03925 C112.973884,64.13 113.428812,64.372 113.701769,64.76525 C113.944398,65.1585 114.035383,65.703 113.944398,66.39875 L113.914069,66.671 C113.823083,67.36675 113.580455,67.881 113.246841,68.1835 C112.882898,68.486 112.397641,68.607 111.760741,68.486 C111.123842,68.39525 110.668913,68.15325 110.395956,67.76 C110.153328,67.36675 110.062342,66.82225 110.153328,66.1265 L110.153328,66.1265 Z M112.549284,66.429 L112.579612,66.21725 C112.64027,65.79375 112.64027,65.5215 112.609941,65.34 C112.549284,65.1585 112.42797,65.06775 112.21567,65.0375 C112.00337,65.00725 111.851727,65.06775 111.760741,65.219 C111.669756,65.37025 111.609099,65.6425 111.548441,66.066 L111.518113,66.27775 C111.457456,66.70125 111.457456,66.9735 111.487784,67.155 C111.548441,67.3365 111.669756,67.42725 111.882056,67.4575 C112.094356,67.48775 112.245998,67.42725 112.336984,67.276 C112.42797,67.12475 112.488627,66.8525 112.549284,66.429 L112.549284,66.429 Z M114.217355,68.93975 C114.126369,68.87925 114.09604,68.7885 114.065712,68.728 C114.065712,68.6675 114.09604,68.5465 114.156698,68.4255 L115.491154,65.8845 C115.460826,65.8845 115.430497,65.85425 115.400168,65.85425 C115.36984,65.824 115.309183,65.824 115.278854,65.79375 C115.248526,65.7635 115.187869,65.7635 115.187869,65.7635 C115.096883,65.73325 115.096883,65.67275 115.127211,65.61225 L115.460826,64.977 C115.491154,64.9165 115.551811,64.88625 115.612468,64.9165 C116.188711,65.06775 116.734625,65.2795 117.310868,65.582 C117.978096,65.91475 118.342039,66.33825 118.463353,66.792 C118.554339,67.24575 118.463353,67.79025 118.09941,68.4255 L117.978096,68.63725 C117.826453,68.93975 117.67481,69.18175 117.492839,69.36325 C117.341196,69.54475 117.128896,69.696 116.916596,69.817 C116.704297,69.938 116.461668,69.96825 116.158382,69.938 C115.885425,69.90775 115.58214,69.78675 115.218197,69.60525 C114.793597,69.3935 114.459983,69.1515 114.217355,68.93975 L114.217355,68.93975 Z M116.916596,66.55 L116.704297,66.45925 L115.551811,68.607 C115.612468,68.6675 115.703454,68.728 115.824768,68.75825 C116.00674,68.849 116.158382,68.849 116.310025,68.728 C116.461668,68.607 116.613311,68.365 116.795282,68.002 L116.886268,67.8205 C117.098568,67.42725 117.219882,67.12475 117.219882,66.9735 C117.219882,66.792 117.098568,66.671 116.886268,66.55 L116.916596,66.55 L116.916596,66.55 Z" id="Shape" fill="#FEFEFE"></path>
                            <path d="M113.246841,71.8135 L113.064869,71.4505 L113.064869,71.78325 L113.095198,71.78325 L113.125527,71.78325 C113.155855,71.78325 113.155855,71.8135 113.155855,71.8135 L113.155855,72.0555 C113.155855,72.08575 113.155855,72.08575 113.125527,72.08575 L112.458298,72.08575 C112.42797,72.08575 112.42797,72.08575 112.42797,72.0555 L112.42797,71.8135 C112.42797,71.78325 112.42797,71.78325 112.458298,71.78325 C112.488627,71.78325 112.549284,71.78325 112.579612,71.753 L112.579612,70.906 C112.518955,70.906 112.488627,70.906 112.458298,70.87575 C112.42797,70.87575 112.42797,70.8455 112.42797,70.8455 L112.42797,70.6035 C112.42797,70.57325 112.42797,70.57325 112.458298,70.57325 L113.125527,70.57325 C113.155855,70.57325 113.155855,70.57325 113.155855,70.6035 L113.155855,70.8455 C113.155855,70.87575 113.155855,70.87575 113.125527,70.87575 L113.095198,70.87575 L113.064869,70.87575 L113.064869,71.148 L113.368155,70.6035 C113.368155,70.57325 113.398484,70.543 113.428812,70.543 L113.853412,70.543 C113.883741,70.543 113.883741,70.543 113.883741,70.57325 L113.883741,70.81525 C113.883741,70.8455 113.883741,70.8455 113.853412,70.8455 C113.823083,70.8455 113.762426,70.87575 113.732098,70.87575 L113.489469,71.269 L113.701769,71.66225 C113.732098,71.6925 113.732098,71.72275 113.762426,71.72275 C113.792755,71.72275 113.823083,71.753 113.853412,71.753 L113.944398,71.753 C113.974726,71.753 113.974726,71.753 113.974726,71.78325 L113.974726,71.995 C113.974726,72.02525 113.974726,72.02525 113.944398,72.0555 C113.883741,72.08575 113.823083,72.08575 113.701769,72.08575 C113.610783,72.08575 113.519798,72.0555 113.459141,72.02525 C113.398484,71.96475 113.337826,71.90425 113.277169,71.78325 L113.246841,71.8135 L113.246841,71.8135 Z M112.21567,70.664 L112.21567,70.785 L112.21567,71.11775 C112.21567,71.148 112.21567,71.148 112.185341,71.148 L111.942713,71.148 C111.912384,71.148 111.912384,71.148 111.912384,71.11775 C111.912384,71.05725 111.882056,70.99675 111.882056,70.906 C111.760741,70.906 111.669756,70.93625 111.639427,70.99675 C111.609099,71.05725 111.57877,71.148 111.57877,71.29925 L111.57877,71.39 C111.57877,71.54125 111.609099,71.632 111.639427,71.6925 C111.700084,71.753 111.760741,71.78325 111.882056,71.78325 C112.00337,71.78325 112.124684,71.78325 112.21567,71.753 L112.245998,71.753 L112.245998,71.78325 L112.245998,71.995 C112.245998,72.02525 112.245998,72.02525 112.21567,72.0555 C112.124684,72.08575 111.973041,72.116 111.79107,72.116 C111.548441,72.116 111.36647,72.0555 111.275484,71.9345 C111.184499,71.8135 111.123842,71.632 111.123842,71.39 L111.123842,71.269 C111.123842,71.027 111.184499,70.8455 111.275484,70.7245 C111.36647,70.6035 111.548441,70.543 111.79107,70.543 C111.942713,70.543 112.094356,70.57325 112.21567,70.6035 C112.245998,70.6035 112.245998,70.63375 112.245998,70.664 L112.21567,70.664 L112.21567,70.664 Z M110.274642,71.48075 L110.274642,70.906 L110.183656,70.906 C110.153328,70.906 110.153328,70.87575 110.153328,70.87575 L110.153328,70.63375 C110.153328,70.6035 110.153328,70.6035 110.183656,70.6035 L110.881213,70.6035 C110.911542,70.6035 110.911542,70.6035 110.911542,70.63375 L110.911542,70.87575 C110.911542,70.906 110.911542,70.906 110.881213,70.906 C110.850885,70.906 110.790227,70.906 110.759899,70.93625 L110.759899,71.4505 C110.759899,71.6925 110.699242,71.84375 110.608256,71.96475 C110.51727,72.08575 110.335299,72.14625 110.122999,72.14625 C109.880371,72.14625 109.728728,72.08575 109.637742,71.96475 C109.546757,71.84375 109.486099,71.66225 109.486099,71.4505 L109.486099,70.93625 C109.425442,70.93625 109.395114,70.93625 109.364785,70.906 C109.334457,70.906 109.334457,70.87575 109.334457,70.87575 L109.334457,70.63375 C109.334457,70.6035 109.334457,70.6035 109.364785,70.6035 L110.062342,70.6035 C110.092671,70.6035 110.092671,70.6035 110.092671,70.63375 L110.092671,70.87575 C110.092671,70.906 110.092671,70.906 110.062342,70.906 L109.971356,70.906 L109.971356,71.48075 C109.971356,71.60175 109.971356,71.66225 110.001685,71.72275 C110.032013,71.753 110.062342,71.78325 110.122999,71.78325 C110.183656,71.78325 110.213985,71.753 110.244313,71.72275 C110.274642,71.6925 110.274642,71.60175 110.274642,71.48075 L110.274642,71.48075 Z M108.515586,71.269 C108.606571,71.269 108.6369,71.2085 108.6369,71.0875 L108.6369,71.05725 C108.6369,70.99675 108.6369,70.9665 108.606571,70.93625 C108.576243,70.906 108.545914,70.906 108.515586,70.906 L108.4246,70.906 L108.4246,71.29925 L108.515586,71.29925 L108.515586,71.269 L108.515586,71.269 Z M108.909857,71.511 L109.000842,71.6925 C109.031171,71.72275 109.031171,71.753 109.0615,71.753 C109.091828,71.753 109.122157,71.78325 109.152485,71.78325 L109.213142,71.78325 C109.243471,71.78325 109.243471,71.78325 109.243471,71.8135 L109.243471,72.02525 C109.243471,72.0555 109.243471,72.0555 109.213142,72.08575 C109.182814,72.116 109.091828,72.116 109.031171,72.116 C108.940185,72.116 108.8492,72.08575 108.788543,72.0555 C108.727885,71.995 108.667228,71.9345 108.606571,71.78325 L108.515586,71.60175 L108.4246,71.60175 L108.4246,71.78325 L108.515586,71.78325 C108.545914,71.78325 108.545914,71.8135 108.545914,71.8135 L108.545914,72.0555 C108.545914,72.08575 108.545914,72.08575 108.515586,72.08575 L107.818029,72.08575 C107.7877,72.08575 107.7877,72.08575 107.7877,72.0555 L107.7877,71.8135 C107.7877,71.78325 107.7877,71.78325 107.818029,71.78325 C107.848357,71.78325 107.909014,71.78325 107.939343,71.753 L107.939343,70.906 L107.878686,70.906 L107.818029,70.906 C107.7877,70.906 107.757372,70.906 107.757372,70.87575 L107.757372,70.664 C107.757372,70.63375 107.757372,70.63375 107.7877,70.63375 C108,70.57325 108.2123,70.57325 108.485257,70.57325 C108.667228,70.57325 108.818871,70.6035 108.909857,70.69425 C109.000842,70.785 109.031171,70.87575 109.031171,71.05725 L109.031171,71.148 C109.031171,71.35975 108.970514,71.48075 108.8492,71.5715 L108.909857,71.511 L108.909857,71.511 Z M107.636057,70.6035 L107.636057,70.785 L107.636057,71.11775 C107.636057,71.148 107.636057,71.148 107.605729,71.148 L107.3631,71.148 C107.332772,71.148 107.332772,71.148 107.332772,71.11775 C107.332772,71.0875 107.332772,71.027 107.302443,70.93625 L107.211457,70.93625 L107.211457,71.753 C107.241786,71.753 107.302443,71.753 107.332772,71.78325 C107.3631,71.78325 107.3631,71.8135 107.3631,71.8135 L107.3631,72.0555 C107.3631,72.08575 107.3631,72.08575 107.332772,72.08575 L106.574558,72.08575 C106.544229,72.08575 106.544229,72.08575 106.544229,72.0555 L106.544229,71.8135 C106.544229,71.78325 106.544229,71.78325 106.574558,71.78325 C106.604886,71.78325 106.665543,71.78325 106.695872,71.753 L106.695872,70.93625 L106.604886,70.93625 C106.604886,70.99675 106.604886,71.05725 106.574558,71.11775 C106.574558,71.148 106.544229,71.148 106.544229,71.148 L106.301601,71.148 C106.271272,71.148 106.271272,71.148 106.271272,71.11775 L106.271272,70.785 L106.271272,70.6035 C106.271272,70.57325 106.301601,70.57325 106.331929,70.57325 L107.5754,70.57325 C107.605729,70.57325 107.636057,70.57325 107.636057,70.6035 L107.636057,70.6035 Z" id="Shape" fill="#FEFEFE"></path>
                            <path d="M85.4355518,47.58325 L49.9208088,47.58325 C48.7986521,47.58325 47.8887953,48.49075 47.8887953,49.61 L47.8887953,49.61 C47.8887953,50.72925 48.7986521,51.667 49.9208088,51.667 L85.4355518,51.667 C86.5577085,51.667 87.4675653,50.7595 87.4675653,49.61 L87.4675653,49.61 C87.4675653,48.49075 86.5577085,47.58325 85.4355518,47.58325 L85.4355518,47.58325 Z" id="Shape" fill="#D9EEF4"></path>
                            <polygon id="Shape" fill="#87A4AB" points="23.0497051 91.4155 36.3336142 91.4155 36.3336142 99.25025 25.2333614 99.25025"></polygon>
                            <polygon id="Shape" fill="#87A4AB" points="59.6259478 91.4155 72.9098568 91.4155 72.9098568 99.25025 63.9022746 99.25025"></polygon>
                            <path d="M52.4987363,94.10775 L54.2274642,94.10775 C56.0168492,94.10775 57.5029486,95.74125 57.5029486,97.768 C57.5029486,99.79475 56.0471778,101.42825 54.2274642,101.42825 L52.4987363,101.42825 C50.7093513,101.42825 49.2232519,99.79475 49.2232519,97.768 C49.2232519,95.74125 50.6790227,94.10775 52.4987363,94.10775 L52.4987363,94.10775 Z" id="Shape" fill="#87A4AB"></path>
                            <path d="M14.1937658,94.10775 L15.9224937,94.10775 C17.7118787,94.10775 19.1979781,95.74125 19.1979781,97.768 C19.1979781,99.79475 17.7422072,101.42825 15.9224937,101.42825 L14.1937658,101.42825 C12.4043808,101.42825 10.9182814,99.79475 10.9182814,97.768 C10.9182814,95.74125 12.3740522,94.10775 14.1937658,94.10775 L14.1937658,94.10775 Z" id="Shape" fill="#87A4AB"></path>
                            <polygon id="Shape" fill="#87A4AB" points="27.8719461 94.10775 29.6310025 94.10775 29.6310025 101.42825 27.8719461 101.42825"></polygon>
                            <path d="M27.8719461,94.10775 C29.6613311,94.10775 31.1474305,95.74125 31.1474305,97.768 C31.1474305,99.79475 29.6916596,101.42825 27.8719461,101.42825 C26.0825611,101.42825 24.5964617,99.79475 24.5964617,97.768 C24.5964617,95.74125 26.0522325,94.10775 27.8719461,94.10775 L27.8719461,94.10775 Z" id="Shape" fill="#87A4AB"></path>
                            <path d="M29.6310025,94.10775 C31.4203875,94.10775 32.9064869,95.74125 32.9064869,97.768 C32.9064869,99.79475 31.4507161,101.42825 29.6310025,101.42825 C27.8416175,101.42825 26.3555181,99.79475 26.3555181,97.768 C26.3555181,95.74125 27.811289,94.10775 29.6310025,94.10775 L29.6310025,94.10775 Z" id="Shape" fill="#87A4AB"></path>
                            <path d="M29.6310025,94.83375 C31.0867734,94.83375 32.2392586,96.1345 32.2392586,97.768 C32.2392586,99.4015 31.0564448,100.70225 29.6310025,100.70225 C28.1752317,100.70225 27.0227464,99.4015 27.0227464,97.768 C27.0227464,96.1345 28.2055602,94.83375 29.6310025,94.83375 L29.6310025,94.83375 Z" id="Shape" fill="#FEFEFE"></path>
                            <path d="M29.6310025,95.80175 C30.6015164,95.80175 31.3597304,96.679 31.3597304,97.73775 C31.3597304,98.82675 30.5711879,99.67375 29.6310025,99.67375 C28.6604886,99.67375 27.9022746,98.7965 27.9022746,97.73775 C27.9022746,96.64875 28.6908172,95.80175 29.6310025,95.80175 L29.6310025,95.80175 Z" id="Shape" fill="#87A4AB"></path>
                            <path d="M29.6310025,96.28575 C30.358888,96.28575 30.9351306,96.95125 30.9351306,97.768 C30.9351306,98.58475 30.358888,99.25025 29.6310025,99.25025 C28.9031171,99.25025 28.3268745,98.58475 28.3268745,97.768 C28.3268745,96.95125 28.9031171,96.28575 29.6310025,96.28575 L29.6310025,96.28575 Z" id="Shape" fill="#A1C0C6"></path>
                            <path d="M29.873631,96.70925 C30.2375737,96.70925 30.5408593,97.042 30.5408593,97.4655 C30.5408593,97.889 30.2375737,98.22175 29.873631,98.22175 C29.5096883,98.22175 29.2064027,97.889 29.2064027,97.4655 C29.2064027,97.042 29.5096883,96.70925 29.873631,96.70925 L29.873631,96.70925 Z" id="Shape" fill="#FEFEFE"></path>
                            <polygon id="Shape" fill="#87A4AB" points="66.2072452 94.10775 67.935973 94.10775 67.935973 101.42825 66.2072452 101.42825"></polygon>
                            <path d="M66.2072452,94.10775 C67.9966302,94.10775 69.4827296,95.74125 69.4827296,97.768 C69.4827296,99.79475 68.0269587,101.42825 66.2072452,101.42825 C64.4178602,101.42825 62.9317607,99.79475 62.9317607,97.768 C62.9317607,95.74125 64.3875316,94.10775 66.2072452,94.10775 L66.2072452,94.10775 Z" id="Shape" fill="#87A4AB"></path>
                            <path d="M67.935973,94.10775 C69.725358,94.10775 71.2114575,95.74125 71.2114575,97.768 C71.2114575,99.79475 69.7556866,101.42825 67.935973,101.42825 C66.146588,101.42825 64.6604886,99.79475 64.6604886,97.768 C64.6604886,95.74125 66.1162595,94.10775 67.935973,94.10775 L67.935973,94.10775 Z" id="Shape" fill="#87A4AB"></path>
                            <path d="M67.935973,94.83375 C69.3917439,94.83375 70.5442291,96.1345 70.5442291,97.768 C70.5442291,99.4015 69.3614153,100.70225 67.935973,100.70225 C66.4802022,100.70225 65.3277169,99.4015 65.3277169,97.768 C65.3277169,96.1345 66.5105307,94.83375 67.935973,94.83375 L67.935973,94.83375 Z" id="Shape" fill="#FEFEFE"></path>
                            <path d="M67.935973,95.80175 C68.9064869,95.80175 69.6647009,96.679 69.6647009,97.73775 C69.6647009,98.82675 68.8761584,99.67375 67.935973,99.67375 C66.9654591,99.67375 66.2072452,98.7965 66.2072452,97.73775 C66.2072452,96.64875 66.9957877,95.80175 67.935973,95.80175 L67.935973,95.80175 Z" id="Shape" fill="#87A4AB"></path>
                            <path d="M67.935973,96.28575 C68.6638585,96.28575 69.2401011,96.95125 69.2401011,97.768 C69.2401011,98.58475 68.6638585,99.25025 67.935973,99.25025 C67.2080876,99.25025 66.631845,98.58475 66.631845,97.768 C66.631845,96.95125 67.2080876,96.28575 67.935973,96.28575 L67.935973,96.28575 Z" id="Shape" fill="#A1C0C6"></path>
                            <path d="M68.1786015,96.70925 C68.5425442,96.70925 68.8458298,97.042 68.8458298,97.4655 C68.8458298,97.889 68.5425442,98.22175 68.1786015,98.22175 C67.8146588,98.22175 67.5113732,97.889 67.5113732,97.4655 C67.5113732,97.042 67.8146588,96.70925 68.1786015,96.70925 L68.1786015,96.70925 Z" id="Shape" fill="#FEFEFE"></path>
                            <path d="M16.7413648,83.82275 L30.4195451,83.82275 C32.2695872,79.1945 34.1196293,74.56625 35.9393429,69.938 C36.0303286,69.72625 36.0909857,69.54475 36.2426285,69.36325 C36.485257,69.06075 36.8188711,68.81875 37.1828138,68.69775 C37.3041281,68.6675 37.4557709,68.63725 37.5770851,68.607 L37.5770851,68.607 L37.5770851,68.607 L37.5770851,68.607 L37.5770851,68.607 L37.5770851,68.607 L37.5770851,68.607 L37.5770851,68.607 L37.5770851,68.607 L37.5770851,68.607 L37.5770851,68.607 L37.5770851,68.607 L37.5770851,68.607 L37.5770851,68.607 L37.5770851,68.607 L37.5770851,68.607 L37.5770851,68.607 L37.5770851,68.607 L37.5770851,68.607 L37.5770851,68.607 L37.5770851,68.607 L37.5770851,68.607 L37.5770851,68.607 L37.5770851,68.607 L37.5770851,68.607 L37.5770851,68.607 L37.5770851,68.607 L37.5770851,68.607 L37.5770851,68.607 L37.5770851,68.607 L37.5770851,68.607 L37.5770851,68.607 L37.5770851,68.607 L37.5770851,68.607 L37.5770851,68.607 L37.5770851,68.607 L37.5770851,68.607 L37.5770851,68.607 L37.5770851,68.607 L37.5770851,68.607 L37.5770851,68.607 L37.5770851,68.607 L37.5770851,68.607 L37.5770851,68.607 L37.5770851,68.607 L37.5770851,68.607 L37.5770851,68.607 L37.5770851,68.607 L37.5770851,68.607 L37.5770851,68.607 L37.5770851,68.607 L37.5770851,68.607 L37.5770851,68.607 L37.5770851,68.607 L37.5770851,68.607 L37.5770851,68.607 L37.5770851,68.607 L37.5770851,68.607 L37.5770851,68.607 L37.5770851,68.607 L37.5770851,68.607 L37.5770851,68.607 L37.5770851,68.607 L37.5770851,68.607 L37.5770851,68.607 L37.5770851,68.607 L24.4144903,68.607 C24.020219,68.607 23.6259478,68.57675 23.2620051,68.69775 C22.8980623,68.81875 22.5644482,69.06075 22.3218197,69.36325 C22.1701769,69.54475 22.1095198,69.72625 22.0185341,69.938 L16.5290649,83.82275 L16.7413648,83.82275 L16.7413648,83.82275 Z" id="Shape" fill="#B4CDD2"></path>
                            <path d="M35.9696714,69.938 L30.4498736,83.82275 L21.199663,87.6645 L21.199663,97.31425 C21.199663,98.16125 21.7455771,98.88725 22.5037911,99.1595 L22.5037911,99.25025 L23.1406908,99.25025 L23.8382477,99.25025 L23.8989048,99.25025 L23.8989048,99.25025 C24.5358045,99.22 25.0210615,98.70575 25.0210615,98.0705 L25.0210615,97.647 L25.0210615,95.6505 C25.0210615,93.896 26.4465038,92.47425 28.2055602,92.47425 L30.8744735,92.47425 C32.6335299,92.47425 34.0589722,93.896 34.0589722,95.6505 L34.0589722,98.82675 C34.0589722,98.978 34.0589722,99.099 34.0286436,99.25025 L62.1432182,99.25025 L62.294861,99.25025 C62.9317607,99.25025 63.4776748,98.736 63.4776748,98.0705 L63.4776748,95.6505 C63.4776748,93.896 64.9031171,92.47425 66.6621735,92.47425 L69.3310868,92.47425 C71.0901432,92.47425 72.5155855,93.896 72.5155855,95.6505 L72.485257,99.25025 L81.7657961,99.25025 L81.7657961,68.607 L39.1844987,68.607 L38.3352991,68.607 C37.9410278,68.607 37.5467565,68.57675 37.1828138,68.69775 C36.8188711,68.81875 36.485257,69.06075 36.2426285,69.36325 C36.0909857,69.54475 36.0303286,69.72625 35.9393429,69.938 L35.9696714,69.938 L35.9696714,69.938 Z" id="Shape" fill="#A1C0C6"></path>
                            <path d="M21.199663,94.77325 L21.199663,97.3445 C21.199663,98.40325 22.0791912,99.2805 23.1406908,99.2805 L23.8382477,99.2805 C24.4751474,99.2805 25.0210615,98.76625 25.0210615,98.10075 L25.0210615,97.67725 L25.0210615,95.68075 C25.0210615,95.37825 25.0817186,95.0455 25.1423757,94.77325 L21.199663,94.77325 L21.199663,94.77325 Z M72.485257,99.2805 L72.5155855,95.68075 C72.5155855,95.37825 72.4549284,95.0455 72.3942713,94.77325 L81.7961247,94.77325 L81.7961247,99.2805 L72.5155855,99.2805 L72.485257,99.2805 L72.485257,99.2805 Z M63.598989,94.77325 C63.5080034,95.07575 63.4776748,95.37825 63.4776748,95.68075 L63.4776748,98.10075 C63.4776748,98.736 62.9620893,99.2805 62.294861,99.2805 L34.0286436,99.2805 L34.0589722,95.68075 C34.0589722,95.37825 33.9983151,95.0455 33.937658,94.77325 L63.6293176,94.77325 L63.598989,94.77325 L63.598989,94.77325 Z" id="Shape" fill="#93ADB3"></path>
                            <path d="M33.6343724,85.57725 L44.1280539,85.57725 C44.7952822,85.57725 45.3715249,85.03275 45.3715249,84.337 L45.3715249,73.205 C45.3715249,72.5395 44.8256108,71.96475 44.1280539,71.96475 L37.3951137,71.96475 C35.8180286,75.95775 34.210615,79.981 32.6335299,83.974 C32.3605729,84.7 32.694187,85.57725 33.6343724,85.57725 L33.6343724,85.57725 Z" id="Shape" fill="#93ADB3"></path>
                            <polygon id="Shape" fill="#9EB5BB" points="37.6680708 85.57725 39.2451559 85.57725 34.0589722 80.4045 33.6040438 81.52375"></polygon>
                            <path d="M45.3715249,87.99725 L45.3715249,89.08625 C45.3715249,89.69125 44.8559393,90.2055 44.2493682,90.2055 L44.2493682,90.2055 C43.642797,90.2055 43.1272115,89.69125 43.1272115,89.08625 L43.1272115,87.99725 C43.1272115,87.39225 43.642797,86.878 44.2493682,86.878 L44.2493682,86.878 C44.8559393,86.878 45.3715249,87.39225 45.3715249,87.99725 L45.3715249,87.99725 Z" id="Shape" fill="#87A4AB"></path>
                            <path d="M79.0665543,71.995 L79.0665543,89.08625 C79.0665543,89.69125 78.5509688,90.2055 77.9443976,90.2055 L51.1036226,90.2055 C50.4970514,90.2055 49.9814659,89.69125 49.9814659,89.08625 L49.9814659,71.995 L79.0665543,71.995 L79.0665543,71.995 Z" id="Shape" fill="#87A4AB"></path>
                            <path d="M79.0665543,85.57725 L79.0665543,89.056 C79.0665543,89.661 78.5509688,90.17525 77.9443976,90.17525 L51.1036226,90.17525 C50.4970514,90.17525 49.9814659,89.661 49.9814659,89.056 L49.9814659,85.57725 L79.0665543,85.57725 L79.0665543,85.57725 Z" id="Shape" fill="#B4CDD2"></path>
                            <path d="M79.0665543,85.57725 L79.0665543,89.056 C79.0665543,89.661 78.5509688,90.17525 77.9443976,90.17525 L64.5391744,90.17525 L64.5391744,85.57725 L79.0665543,85.57725 L79.0665543,85.57725 Z" id="Shape" fill="#B4CDD2"></path>
                            <polygon id="Shape" fill="#E31E24" points="49.9814659 71.995 55.8045493 77.77275 49.9814659 77.77275"></polygon>
                            <polygon id="Shape" fill="#FEFEFE" points="79.0665543 71.995 79.642797 72.56975 79.642797 77.77275 79.0665543 77.77275 49.9814659 77.77275 49.9814659 71.995"></polygon>
                            <polygon id="Shape" fill="#FEFEFE" points="55.8045493 77.77275 49.9814659 77.77275 49.9814659 71.995"></polygon>
                            <polygon id="Shape" fill="#87A4AB" points="67.4203875 71.995 73.2434709 77.77275 67.4203875 77.77275 61.5973041 71.995"></polygon>
                            <polygon id="Shape" fill="#87A4AB" points="55.8045493 71.995 61.5973041 77.77275 55.8045493 77.77275 49.9814659 71.995"></polygon>
                            <polygon id="Shape" fill="#FEC35D" points="7.52148273 87.6645 16.7413648 83.82275 30.4498736 83.82275 21.199663 87.6645"></polygon>
                            <polygon id="Shape" fill="#B4CDD2" points="7.52148273 87.6645 16.7413648 83.82275 30.4498736 83.82275 21.199663 87.6645"></polygon>
                            <path d="M7.52148273,87.6645 L7.52148273,97.31425 C7.52148273,98.373 8.40101095,99.25025 9.46251053,99.25025 L23.1406908,99.25025 C22.0791912,99.25025 21.199663,98.373 21.199663,97.31425 L21.199663,87.6645 L7.52148273,87.6645 L7.52148273,87.6645 Z" id="Shape" fill="#B4CDD2"></path>
                            <path d="M7.52148273,94.77325 L7.52148273,97.3445 C7.52148273,98.40325 8.40101095,99.2805 9.46251053,99.2805 L23.1406908,99.2805 C22.0791912,99.2805 21.199663,98.40325 21.199663,97.3445 L21.199663,94.77325 L7.52148273,94.77325 L7.52148273,94.77325 Z" id="Shape" fill="#9EB5BB"></path>
                            <path d="M9.25021061,90.65925 L9.25021061,91.74825 C9.25021061,92.35325 9.76579612,92.8675 10.3723673,92.8675 L10.3723673,92.8675 C10.9789385,92.8675 11.494524,92.35325 11.494524,91.74825 L11.494524,90.65925 C11.494524,90.05425 10.9789385,89.54 10.3723673,89.54 L10.3723673,89.54 C9.76579612,89.54 9.25021061,90.05425 9.25021061,90.65925 L9.25021061,90.65925 Z" id="Shape" fill="#FEFEFE"></path>
                            <path d="M17.2569503,90.65925 L17.2569503,91.74825 C17.2569503,92.35325 17.7725358,92.8675 18.379107,92.8675 L18.379107,92.8675 C18.9856782,92.8675 19.5012637,92.35325 19.5012637,91.74825 L19.5012637,90.65925 C19.5012637,90.05425 18.9856782,89.54 18.379107,89.54 L18.379107,89.54 C17.7725358,89.54 17.2569503,90.05425 17.2569503,90.65925 L17.2569503,90.65925 Z" id="Shape" fill="#FEFEFE"></path>
                            <polygon id="Shape" fill="#93ADB3" points="28.9637742 71.995 24.6267902 82.885 29.6916596 82.885 34.0286436 71.995"></polygon>
                            <path d="M28.9637742,71.995 L28.4481887,73.2655 C29.6613311,74.4755 30.8744735,75.6855 32.0572873,76.86525 L32.9368155,74.62675 C32.0572873,73.7495 31.1474305,72.842 30.2679023,71.995 L28.9334457,71.995 L28.9637742,71.995 L28.9637742,71.995 Z" id="Shape" fill="#9EB5BB"></path>
                            <polygon id="Shape" fill="#9EB5BB" points="28.0235889 74.38475 27.5686605 75.504 31.1777591 79.10375 31.6326874 77.9845"></polygon>
                            <polygon id="Shape" fill="#93ADB3" points="22.6554339 71.995 18.3487784 82.885 23.3833193 82.885 27.7203033 71.995"></polygon>
                            <polygon id="Shape" fill="#63ABB2" points="24.6571188 72.6 26.2342039 72.6 25.6276327 71.995 24.0505476 71.995"></polygon>
                            <path d="M20.3504634,77.8635 L19.895535,78.98275 L20.1988206,79.28525 L20.8963774,79.981 L22.2914912,81.3725 C22.5037911,81.58425 22.8677338,81.58425 23.0800337,81.3725 L23.0800337,81.3725 C23.2923336,81.16075 23.2923336,80.79775 23.0800337,80.586 L20.8963774,78.408 L20.3504634,77.8635 L20.3504634,77.8635 Z" id="Shape" fill="#9EB5BB"></path>
                            <polygon id="Shape" fill="#7DC5CB" points="27.5668547 72.358 27.717745 71.995 27.2047178 71.995"></polygon>
                            <polygon id="Shape" fill="#9EB5BB" points="26.6891323 74.62675 27.1137321 73.47725 25.6276327 71.995 24.0505476 71.995"></polygon>
                            <polygon id="Shape" fill="#93ADB3" points="79.0665543 77.77275 64.5088458 77.77275 64.5088458 85.57725 79.0665543 85.57725"></polygon>
                            <path d="M76.1550126,77.77275 L73.031171,77.77275 C75.0328559,79.76925 77.0345409,81.76575 79.0665543,83.76225 L79.0665543,80.61625 C78.0960404,79.64825 77.095198,78.68025 76.1550126,77.7425 L76.1550126,77.77275 L76.1550126,77.77275 Z" id="Shape" fill="#7DC5CB"></path>
                            <polygon id="Shape" fill="#93ADB3" points="79.0665543 77.77275 64.5088458 77.77275 64.5088458 83.58075 79.0665543 83.58075"></polygon>
                            <path d="M64.5088458,78.25675 L64.5088458,79.82975 L64.7514743,80.07175 L65.4490312,80.7675 L66.8441449,82.159 C67.0564448,82.37075 67.4203875,82.37075 67.6326874,82.159 L67.6326874,82.159 C67.8449874,81.94725 67.8449874,81.58425 67.6326874,81.3725 L65.4490312,79.1945 L64.7514743,78.49875 L64.5088458,78.25675 L64.5088458,78.25675 Z" id="Shape" fill="#9EB5BB"></path>
                            <path d="M71.0901432,61.952 L37.2737995,61.952 C36.6672283,61.952 36.1516428,61.43775 36.1516428,60.83275 L36.1516428,60.83275 C36.1516428,60.22775 36.6672283,59.7135 37.2737995,59.7135 L71.0901432,59.7135 C71.6967144,59.7135 72.2122999,60.22775 72.2122999,60.83275 L72.2122999,60.83275 C72.2122999,61.43775 71.6967144,61.952 71.0901432,61.952 L71.0901432,61.952 Z" id="Shape" fill="#9EB5BB"></path>
                            <path d="M71.0901432,61.952 L71.0901432,64.16025 C71.0901432,65.4005 70.0589722,66.429 68.8155013,66.429 L39.5181129,66.429 C38.274642,66.429 37.2434709,65.4005 37.2434709,64.16025 L37.2434709,61.952 L71.0598147,61.952 L71.0901432,61.952 L71.0901432,61.952 Z" id="Shape" fill="#B4CDD2"></path>
                            <path d="M71.0901432,61.952 L71.0901432,64.16025 C71.0901432,65.4005 70.0589722,66.429 68.8155013,66.429 L52.104465,66.429 C50.8609941,66.429 49.8298231,65.4005 49.8298231,64.16025 L49.8298231,61.952 L71.0598147,61.952 L71.0901432,61.952 L71.0901432,61.952 Z" id="Shape" fill="#A1C0C6"></path>
                            <path d="M36.1819714,58.443 L36.1819714,58.59425 L36.1819714,58.59425 C36.1819714,59.19925 36.6975569,59.7135 37.3041281,59.7135 L71.1204718,59.7135 C71.727043,59.7135 72.2426285,59.19925 72.2426285,58.59425 L72.2426285,56.35575 L72.2426285,56.35575 L72.2426285,56.2045 L72.2426285,56.2045 C72.1516428,55.66 71.6967144,55.2365 71.1508003,55.2365 L37.3344566,55.2365 C36.7885425,55.2365 36.3032856,55.66 36.2426285,56.2045 L36.2426285,56.2045 L36.2426285,56.2045 L36.2426285,56.35575 L36.2426285,56.35575 L36.2426285,56.507 L36.2426285,58.41275 L36.1819714,58.443 L36.1819714,58.443 Z" id="Shape" fill="#87A4AB"></path>
                            <path d="M48.7683235,58.443 L48.7683235,58.59425 L48.7683235,58.59425 C48.7683235,59.19925 49.283909,59.7135 49.8904802,59.7135 L71.1204718,59.7135 C71.727043,59.7135 72.2426285,59.19925 72.2426285,58.59425 L72.2426285,56.35575 L72.2426285,56.35575 L72.2426285,56.2045 L72.2426285,56.2045 C72.1516428,55.66 71.6967144,55.2365 71.1508003,55.2365 L49.9208088,55.2365 C49.3748947,55.2365 48.8896377,55.66 48.8289806,56.2045 L48.8289806,56.2045 L48.8289806,56.2045 L48.8289806,56.35575 L48.8289806,56.35575 L48.8289806,56.507 L48.8289806,58.41275 L48.7683235,58.443 L48.7683235,58.443 Z" id="Shape" fill="#87A4AB"></path>
                            <path d="M71.0901432,55.26675 L37.2737995,55.26675 C36.6672283,55.26675 36.1516428,54.7525 36.1516428,54.1475 L36.1516428,54.1475 C36.1516428,53.5425 36.6672283,53.02825 37.2737995,53.02825 L71.0901432,53.02825 C71.6967144,53.02825 72.2122999,53.5425 72.2122999,54.1475 L72.2122999,54.1475 C72.2122999,54.7525 71.6967144,55.26675 71.0901432,55.26675 L71.0901432,55.26675 Z" id="Shape" fill="#9EB5BB"></path>
                            <path d="M71.0901432,55.26675 L49.8601516,55.26675 C49.2535805,55.26675 48.7379949,54.7525 48.7379949,54.1475 L48.7379949,54.1475 C48.7379949,53.5425 49.2535805,53.02825 49.8601516,53.02825 L71.0901432,53.02825 C71.6967144,53.02825 72.2122999,53.5425 72.2122999,54.1475 L72.2122999,54.1475 C72.2122999,54.7525 71.6967144,55.26675 71.0901432,55.26675 L71.0901432,55.26675 Z" id="Shape" fill="#93ADB3"></path>
                            <path d="M54.1971356,40.68625 C63.5383319,40.68625 71.0901432,46.222 71.0901432,53.02825 L37.2737995,53.02825 C37.2737995,46.222 44.8559393,40.68625 54.1668071,40.68625 L54.1971356,40.68625 L54.1971356,40.68625 Z" id="Shape" fill="#B4CDD2"></path>
                            <path d="M58.0488627,41.019 C65.5096883,42.2895 71.0901432,47.19 71.0901432,53.02825 L49.8601516,53.02825 C49.8601516,47.19 53.347936,42.2895 58.0488627,41.019 L58.0488627,41.019 Z" id="Shape" fill="#A1C0C6"></path>
                            <path d="M71.0901432,61.952 L49.8601516,61.952 C49.2535805,61.952 48.7379949,61.43775 48.7379949,60.83275 L48.7379949,60.83275 C48.7379949,60.22775 49.2535805,59.7135 49.8601516,59.7135 L71.0901432,59.7135 C71.6967144,59.7135 72.2122999,60.22775 72.2122999,60.83275 L72.2122999,60.83275 C72.2122999,61.43775 71.6967144,61.952 71.0901432,61.952 L71.0901432,61.952 Z" id="Shape" fill="#93ADB3"></path>
                            <path d="M63.0834035,46.43375 C63.4170177,46.43375 63.6899747,46.1615 63.6899747,45.82875 C63.6899747,45.496 63.4170177,45.22375 63.0834035,45.22375 C62.7497894,45.22375 62.4768324,45.496 62.4768324,45.82875 C62.4768324,46.1615 62.7497894,46.43375 63.0834035,46.43375 L63.0834035,46.43375 Z" id="Shape" fill="#D9DADA"></path>
                            <path d="M38.5172704,77.0165 L39.2148273,77.71225 L40.609941,79.10375 C40.8222409,79.3155 41.1861837,79.3155 41.3984836,79.10375 L41.3984836,79.10375 C41.6107835,78.892 41.6107835,78.529 41.3984836,78.31725 L39.2148273,76.13925 L38.5172704,75.4435 L37.1828138,74.1125 L36.7278854,75.23175 L38.5172704,77.0165 L38.5172704,77.0165 Z" id="Shape" fill="#9EB5BB"></path>
                            <path d="M41.2468408,50.941 C41.5804549,50.941 41.853412,50.66875 41.853412,50.336 C41.853412,50.00325 41.5804549,49.731 41.2468408,49.731 C40.9132266,49.731 40.6402696,50.00325 40.6402696,50.336 C40.6402696,50.66875 40.9132266,50.941 41.2468408,50.941 L41.2468408,50.941 Z" id="Shape" fill="#D9DADA"></path>
                            <path d="M49.3142376,46.343 C49.6478517,46.343 49.9208088,46.07075 49.9208088,45.738 C49.9208088,45.40525 49.6478517,45.133 49.3142376,45.133 C48.9806234,45.133 48.7076664,45.40525 48.7076664,45.738 C48.7076664,46.07075 48.9806234,46.343 49.3142376,46.343 L49.3142376,46.343 Z" id="Shape" fill="#D9DADA"></path>
                            <path d="M61.9309183,51.3645 C62.2645324,51.3645 62.5374895,51.09225 62.5374895,50.7595 C62.5374895,50.42675 62.2645324,50.1545 61.9309183,50.1545 C61.5973041,50.1545 61.3243471,50.42675 61.3243471,50.7595 C61.3243471,51.09225 61.5973041,51.3645 61.9309183,51.3645 L61.9309183,51.3645 Z" id="Shape" fill="#D9DADA"></path>
                            <path d="M57.4119629,45.58675 C57.7455771,45.58675 58.0185341,45.3145 58.0185341,44.98175 C58.0185341,44.649 57.7455771,44.37675 57.4119629,44.37675 C57.0783488,44.37675 56.8053917,44.649 56.8053917,44.98175 C56.8053917,45.3145 57.0783488,45.58675 57.4119629,45.58675 L57.4119629,45.58675 Z" id="Shape" fill="#D9DADA"></path>
                            <path d="M69.1187869,52.24175 C69.452401,52.24175 69.725358,51.9695 69.725358,51.63675 C69.725358,51.304 69.452401,51.03175 69.1187869,51.03175 C68.7851727,51.03175 68.5122157,51.304 68.5122157,51.63675 C68.5122157,51.9695 68.7851727,52.24175 69.1187869,52.24175 L69.1187869,52.24175 Z" id="Shape" fill="#D9DADA"></path>
                            <path d="M54.7733783,50.42675 C55.1069924,50.42675 55.3799495,50.1545 55.3799495,49.82175 C55.3799495,49.489 55.1069924,49.21675 54.7733783,49.21675 C54.4397641,49.21675 54.1668071,49.489 54.1668071,49.82175 C54.1668071,50.1545 54.4397641,50.42675 54.7733783,50.42675 L54.7733783,50.42675 Z" id="Shape" fill="#D9DADA"></path>
                            <path d="M46.8272957,51.63675 C47.1609099,51.63675 47.4338669,51.3645 47.4338669,51.03175 C47.4338669,50.699 47.1609099,50.42675 46.8272957,50.42675 C46.4936816,50.42675 46.2207245,50.699 46.2207245,51.03175 C46.2207245,51.3645 46.4936816,51.63675 46.8272957,51.63675 L46.8272957,51.63675 Z" id="Shape" fill="#D9DADA"></path>
                            <path d="M52.4684078,42.5315 C52.8020219,42.5315 53.0749789,42.25925 53.0749789,41.9265 C53.0749789,41.59375 52.8020219,41.3215 52.4684078,41.3215 C52.1347936,41.3215 51.8618366,41.59375 51.8618366,41.9265 C51.8618366,42.25925 52.1347936,42.5315 52.4684078,42.5315 L52.4684078,42.5315 Z" id="Shape" fill="#D9DADA"></path>
                            <path d="M43.6731255,47.03875 C44.0067397,47.03875 44.2796967,46.7665 44.2796967,46.43375 C44.2796967,46.101 44.0067397,45.82875 43.6731255,45.82875 C43.3395114,45.82875 43.0665543,46.101 43.0665543,46.43375 C43.0665543,46.7665 43.3395114,47.03875 43.6731255,47.03875 L43.6731255,47.03875 Z" id="Shape" fill="#D9DADA"></path>
                            <path d="M42.4296546,85.57725 L44.0067397,85.57725 C41.5197978,83.09675 37.8803707,79.52725 35.3934288,77.04675 L34.968829,78.13575 L34.5442291,79.22475 C36.6672283,81.312 38.7598989,83.4295 40.8828981,85.547 L42.4599832,85.547 L42.4296546,85.57725 L42.4296546,85.57725 Z" id="Shape" fill="#9EB5BB"></path>
                            <path d="M70.3016007,77.77275 L67.3597304,77.77275 C69.9983151,80.43475 73.4860994,84.06475 75.0328559,85.57725 L78.1870261,85.57725 L70.3016007,77.77275 L70.3016007,77.77275 Z" id="Shape" fill="#9EB5BB"></path>
                            <path d="M70.3016007,77.77275 L67.3597304,77.77275 C69.1491154,79.58775 71.3327717,81.82625 73.031171,83.58075 L76.1550126,83.58075 L70.3016007,77.77275 L70.3016007,77.77275 Z" id="Shape" fill="#9EB5BB"></path>
                            <path d="M12.7986521,89.87275 L12.7986521,92.565 C12.7986521,92.7465 12.6470093,92.8675 12.4953665,92.8675 L12.4953665,92.8675 C12.3133951,92.8675 12.1920809,92.71625 12.1920809,92.565 L12.1920809,89.87275 C12.1920809,89.69125 12.3437237,89.57025 12.4953665,89.57025 L12.4953665,89.57025 C12.6773378,89.57025 12.7986521,89.7215 12.7986521,89.87275 L12.7986521,89.87275 Z M16.5593934,89.87275 L16.5593934,92.565 C16.5593934,92.7465 16.4077506,92.8675 16.2561078,92.8675 L16.2561078,92.8675 C16.0741365,92.8675 15.9528222,92.71625 15.9528222,92.565 L15.9528222,89.87275 C15.9528222,89.69125 16.104465,89.57025 16.2561078,89.57025 L16.2561078,89.57025 C16.4380792,89.57025 16.5593934,89.7215 16.5593934,89.87275 L16.5593934,89.87275 Z M15.3159225,89.87275 L15.3159225,92.565 C15.3159225,92.7465 15.1642797,92.8675 15.0126369,92.8675 L15.0126369,92.8675 C14.8306655,92.8675 14.7093513,92.71625 14.7093513,92.565 L14.7093513,89.87275 C14.7093513,89.69125 14.8609941,89.57025 15.0126369,89.57025 L15.0126369,89.57025 C15.1946083,89.57025 15.3159225,89.7215 15.3159225,89.87275 L15.3159225,89.87275 Z M14.0724516,89.87275 L14.0724516,92.565 C14.0724516,92.7465 13.9208088,92.8675 13.769166,92.8675 L13.769166,92.8675 C13.5871946,92.8675 13.4658804,92.71625 13.4658804,92.565 L13.4658804,89.87275 C13.4658804,89.69125 13.6175232,89.57025 13.769166,89.57025 L13.769166,89.57025 C13.9511373,89.57025 14.0724516,89.7215 14.0724516,89.87275 L14.0724516,89.87275 Z" id="Shape" fill="#87A4AB"></path>
                            <polygon id="Shape" fill="#87A4AB" points="54.1971356 68.63725 51.3462511 68.63725 46.6149958 68.63725 44.401011 66.39875 52.4684078 66.39875 53.0749789 66.39875 63.9932603 66.39875 61.7792755 68.63725"></polygon>
                            <path d="M64.8121314,45.1935 C66.0556024,45.012 67.0867734,43.83225 67.2687447,42.74325 C67.4507161,43.83225 68.4818871,45.012 69.725358,45.1935 C68.4818871,45.375 67.4507161,46.55475 67.2687447,47.64375 C67.0867734,46.55475 66.0556024,45.375 64.8121314,45.1935 L64.8121314,45.1935 Z" id="Shape" fill="#FEFEFE"></path>
                            <path d="M44.0370682,56.265 L44.0370682,56.507 L44.0370682,56.96075 C44.0370682,56.991 44.0067397,57.02125 43.9764111,57.02125 L43.5518113,57.02125 C43.5214827,57.02125 43.4911542,56.991 43.4911542,56.96075 C43.4608256,56.87 43.4608256,56.8095 43.4608256,56.749 L43.0665543,56.749 L43.0665543,57.20275 L43.7034541,57.20275 C43.7641112,57.20275 43.7944398,57.233 43.7944398,57.26325 L43.7944398,57.74725 C43.7944398,57.80775 43.7641112,57.80775 43.7034541,57.80775 L43.0665543,57.80775 L43.0665543,58.201 C43.1272115,58.201 43.1878686,58.201 43.3091828,58.23125 C43.3395114,58.23125 43.3698399,58.2615 43.3698399,58.29175 L43.3698399,58.71525 C43.3698399,58.7455 43.3395114,58.77575 43.3091828,58.77575 L42.0050548,58.77575 C41.9747262,58.77575 41.9443976,58.7455 41.9443976,58.71525 L41.9443976,58.29175 C41.9443976,58.2615 41.9747262,58.23125 42.0050548,58.23125 C42.0657119,58.23125 42.1566976,58.201 42.2476832,58.201 L42.2476832,56.77925 C42.1870261,56.77925 42.0960404,56.77925 42.0353833,56.8095 L41.9747262,56.8095 C41.9747262,56.8095 41.9443976,56.77925 41.9443976,56.749 L41.9443976,56.3255 C41.9443976,56.29525 41.9747262,56.265 42.0050548,56.265 C42.3386689,56.2045 42.7632687,56.144 43.2485257,56.144 C43.4911542,56.144 43.7337826,56.144 43.9764111,56.17425 C44.0370682,56.17425 44.0673968,56.2045 44.0673968,56.265 L44.0370682,56.265 L44.0370682,56.265 Z M44.3403538,57.56575 L44.3403538,57.38425 C44.3403538,56.96075 44.4313395,56.628 44.6133109,56.41625 C44.7952822,56.2045 45.0985678,56.11375 45.4928391,56.11375 C45.8871104,56.11375 46.190396,56.2045 46.3723673,56.41625 C46.5543387,56.628 46.6453243,56.9305 46.6453243,57.38425 L46.6453243,57.56575 C46.6453243,57.98925 46.5543387,58.322 46.3723673,58.53375 C46.190396,58.7455 45.8871104,58.83625 45.4928391,58.83625 C45.0985678,58.83625 44.7952822,58.7455 44.6133109,58.53375 C44.4313395,58.322 44.3403538,58.0195 44.3403538,57.56575 L44.3403538,57.56575 Z M45.7961247,57.5355 L45.7961247,57.4145 C45.7961247,57.1725 45.7657961,56.991 45.7354676,56.90025 C45.705139,56.8095 45.6141533,56.749 45.4928391,56.749 C45.3715249,56.749 45.2805392,56.8095 45.2502106,56.90025 C45.2198821,56.991 45.1895535,57.1725 45.1895535,57.4145 L45.1895535,57.5355 C45.1895535,57.7775 45.2198821,57.959 45.2502106,58.04975 C45.2805392,58.1405 45.3715249,58.201 45.4928391,58.201 C45.6141533,58.201 45.705139,58.1405 45.7354676,58.04975 C45.7657961,57.959 45.7961247,57.7775 45.7961247,57.5355 L45.7961247,57.5355 Z M46.9789385,57.56575 L46.9789385,57.38425 C46.9789385,56.96075 47.0699242,56.628 47.2518955,56.41625 C47.4338669,56.2045 47.7371525,56.11375 48.1314238,56.11375 C48.525695,56.11375 48.8289806,56.2045 49.010952,56.41625 C49.1929233,56.628 49.283909,56.9305 49.283909,57.38425 L49.283909,57.56575 C49.283909,57.98925 49.1929233,58.322 49.010952,58.53375 C48.8289806,58.7455 48.525695,58.83625 48.1314238,58.83625 C47.7371525,58.83625 47.4338669,58.7455 47.2518955,58.53375 C47.0699242,58.322 46.9789385,58.0195 46.9789385,57.56575 L46.9789385,57.56575 Z M48.4347094,57.5355 L48.4347094,57.4145 C48.4347094,57.1725 48.4043808,56.991 48.3740522,56.90025 C48.3437237,56.8095 48.252738,56.749 48.1314238,56.749 C48.0101095,56.749 47.9191238,56.8095 47.8887953,56.90025 C47.8584667,56.991 47.8281382,57.1725 47.8281382,57.4145 L47.8281382,57.5355 C47.8281382,57.7775 47.8584667,57.959 47.8887953,58.04975 C47.9191238,58.1405 48.0101095,58.201 48.1314238,58.201 C48.252738,58.201 48.3437237,58.1405 48.3740522,58.04975 C48.4043808,57.959 48.4347094,57.7775 48.4347094,57.5355 L48.4347094,57.5355 Z M49.9814659,58.7455 C49.9208088,58.7455 49.8601516,58.71525 49.8601516,58.65475 C49.8298231,58.6245 49.8298231,58.564 49.8298231,58.47325 L49.8298231,56.749 L49.769166,56.749 L49.6781803,56.749 L49.6175232,56.749 C49.556866,56.749 49.5265375,56.71875 49.5265375,56.6885 L49.5265375,56.265 C49.5265375,56.23475 49.556866,56.2045 49.5871946,56.2045 C49.9208088,56.11375 50.2847515,56.0835 50.6790227,56.0835 C51.1339511,56.0835 51.4372367,56.17425 51.6192081,56.386 C51.8011794,56.59775 51.8921651,56.9305 51.8921651,57.354 L51.8921651,57.50525 C51.8921651,57.717 51.8618366,57.86825 51.831508,58.0195 C51.8011794,58.17075 51.7405223,58.29175 51.6495366,58.41275 C51.558551,58.53375 51.4372367,58.6245 51.2855939,58.685 C51.1339511,58.7455 50.9216512,58.77575 50.7093513,58.77575 C50.4363943,58.77575 50.1937658,58.7455 49.9814659,58.71525 L49.9814659,58.7455 L49.9814659,58.7455 Z M50.7396799,56.71875 L50.6183656,56.71875 L50.6183656,58.201 L50.800337,58.201 C50.9216512,58.201 51.0126369,58.1405 51.0429655,58.04975 C51.073294,57.959 51.1036226,57.7775 51.1036226,57.5355 L51.1036226,57.4145 C51.1036226,57.14225 51.073294,56.96075 51.0429655,56.87 C50.9823083,56.77925 50.8913227,56.71875 50.7396799,56.71875 L50.7396799,56.71875 Z M55.6225779,56.23475 L55.6225779,56.53725 L55.6225779,57.112 C55.6225779,57.14225 55.5922494,57.1725 55.5619208,57.1725 L55.137321,57.1725 C55.1069924,57.1725 55.0766639,57.14225 55.0766639,57.112 C55.0766639,57.0515 55.0463353,56.9305 55.0463353,56.8095 L54.8946925,56.8095 L54.8946925,58.23125 C54.9553496,58.23125 55.0463353,58.2615 55.137321,58.2615 C55.1676495,58.2615 55.1979781,58.29175 55.1979781,58.322 L55.1979781,58.7455 C55.1979781,58.77575 55.1676495,58.806 55.137321,58.806 L53.8331929,58.806 C53.8028644,58.806 53.7725358,58.77575 53.7725358,58.7455 L53.7725358,58.322 C53.7725358,58.29175 53.8028644,58.2615 53.8331929,58.2615 C53.89385,58.2615 53.9848357,58.23125 54.0758214,58.23125 L54.0758214,56.8095 L53.9241786,56.8095 C53.9241786,56.90025 53.9241786,57.02125 53.89385,57.112 C53.89385,57.14225 53.8635215,57.1725 53.8331929,57.1725 L53.4085931,57.1725 C53.3782645,57.1725 53.347936,57.14225 53.347936,57.112 L53.347936,56.53725 L53.347936,56.23475 C53.347936,56.17425 53.3782645,56.17425 53.4389217,56.17425 L55.5922494,56.17425 C55.6529065,56.17425 55.683235,56.2045 55.683235,56.23475 L55.6225779,56.23475 L55.6225779,56.23475 Z M57.8062342,57.7775 L57.957877,58.08 C57.9882056,58.1405 58.0185341,58.17075 58.0488627,58.201 C58.0791912,58.23125 58.1398484,58.23125 58.2005055,58.23125 L58.2914912,58.23125 C58.3218197,58.23125 58.3521483,58.2615 58.3521483,58.29175 L58.3521483,58.65475 C58.3521483,58.685 58.3521483,58.71525 58.3218197,58.7455 C58.2611626,58.77575 58.1398484,58.806 57.9882056,58.806 C57.8062342,58.806 57.68492,58.77575 57.5636057,58.685 C57.4422915,58.59425 57.3513058,58.443 57.2603201,58.23125 L57.1086773,57.8985 L56.9873631,57.8985 L56.9873631,58.23125 C56.9873631,58.23125 57.0480202,58.23125 57.1693345,58.2615 C57.199663,58.2615 57.2299916,58.29175 57.2299916,58.322 L57.2299916,58.7455 C57.2299916,58.77575 57.199663,58.806 57.1693345,58.806 L55.9865206,58.806 C55.9561921,58.806 55.9258635,58.77575 55.9258635,58.7455 L55.9258635,58.322 C55.9258635,58.29175 55.9561921,58.2615 55.9865206,58.2615 C56.0471778,58.2615 56.1381634,58.23125 56.2291491,58.23125 L56.2291491,56.749 L56.1078349,56.749 L56.0168492,56.749 C55.9561921,56.749 55.9258635,56.71875 55.9258635,56.6885 L55.9258635,56.29525 C55.9258635,56.265 55.9561921,56.23475 55.9865206,56.23475 C56.3201348,56.144 56.7447346,56.11375 57.199663,56.11375 C57.5332772,56.11375 57.7759056,56.17425 57.9275484,56.3255 C58.0791912,56.4465 58.1701769,56.65825 58.1701769,56.9305 L58.1701769,57.08175 C58.1701769,57.4145 58.0791912,57.6565 57.8668913,57.80775 L57.8062342,57.7775 L57.8062342,57.7775 Z M57.1390059,57.354 C57.2906487,57.354 57.3513058,57.26325 57.3513058,57.0515 L57.3513058,56.991 C57.3513058,56.90025 57.3209773,56.8095 57.2906487,56.77925 C57.2603201,56.71875 57.199663,56.71875 57.1390059,56.71875 L56.9570345,56.71875 L56.9570345,57.38425 L57.1390059,57.38425 L57.1390059,57.354 L57.1390059,57.354 Z M60.1415333,57.717 L60.1415333,56.749 C60.0808762,56.749 60.0505476,56.749 59.9898905,56.71875 C59.9595619,56.71875 59.9292334,56.6885 59.9292334,56.65825 L59.9292334,56.23475 C59.9292334,56.2045 59.9595619,56.17425 59.9898905,56.17425 L61.2030329,56.17425 C61.2333614,56.17425 61.26369,56.2045 61.26369,56.23475 L61.26369,56.65825 C61.26369,56.6885 61.2333614,56.71875 61.2030329,56.71875 C61.1423757,56.71875 61.0513901,56.749 60.9604044,56.749 L60.9604044,57.6565 C60.9604044,58.04975 60.8694187,58.35225 60.7177759,58.564 C60.5358045,58.77575 60.2628475,58.8665 59.8685762,58.8665 C59.474305,58.8665 59.1710194,58.77575 59.0193766,58.564 C58.8374052,58.35225 58.7767481,58.08 58.7767481,57.6565 L58.7767481,56.749 C58.6857624,56.749 58.6251053,56.749 58.5341196,56.71875 C58.5037911,56.71875 58.4734625,56.6885 58.4734625,56.65825 L58.4734625,56.23475 C58.4734625,56.2045 58.5037911,56.17425 58.5341196,56.17425 L59.747262,56.17425 C59.7775906,56.17425 59.8079191,56.2045 59.8079191,56.23475 L59.8079191,56.65825 C59.8079191,56.6885 59.7775906,56.71875 59.747262,56.71875 C59.7169334,56.71875 59.6562763,56.749 59.5956192,56.749 L59.5956192,57.717 C59.5956192,57.8985 59.6259478,58.04975 59.6562763,58.11025 C59.7169334,58.17075 59.7775906,58.23125 59.8685762,58.23125 C59.9595619,58.23125 60.0505476,58.201 60.0808762,58.11025 C60.1415333,58.04975 60.1415333,57.8985 60.1415333,57.717 L60.1415333,57.717 Z M63.5080034,56.3255 L63.5080034,56.53725 L63.5080034,57.112 C63.5080034,57.14225 63.4776748,57.1725 63.4473463,57.1725 L63.0227464,57.1725 C62.9924179,57.1725 62.9620893,57.14225 62.9620893,57.112 C62.9317607,56.991 62.9317607,56.90025 62.9317607,56.749 C62.7194608,56.749 62.567818,56.8095 62.5071609,56.90025 C62.4465038,56.991 62.3858467,57.1725 62.3858467,57.4145 L62.3858467,57.56575 C62.3858467,57.80775 62.4161752,57.98925 62.5071609,58.08 C62.5981466,58.17075 62.7194608,58.23125 62.9317607,58.23125 C63.1440607,58.23125 63.326032,58.23125 63.5080034,58.201 L63.5383319,58.201 C63.5383319,58.201 63.5686605,58.23125 63.5686605,58.2615 L63.5686605,58.65475 C63.5686605,58.685 63.5383319,58.71525 63.5080034,58.7455 C63.326032,58.83625 63.0834035,58.8665 62.7497894,58.8665 C62.3251896,58.8665 62.021904,58.77575 61.8399326,58.564 C61.6579612,58.35225 61.5669756,58.04975 61.5669756,57.62625 L61.5669756,57.4145 C61.5669756,56.991 61.6579612,56.65825 61.8399326,56.47675 C62.021904,56.265 62.3251896,56.17425 62.7497894,56.17425 C63.0227464,56.17425 63.2653749,56.2045 63.4776748,56.29525 C63.5383319,56.3255 63.5383319,56.35575 63.5383319,56.386 L63.5080034,56.3255 L63.5080034,56.3255 Z M65.2973884,58.322 L64.9637742,57.68675 L64.9637742,58.23125 L65.0244313,58.23125 L65.0850885,58.23125 C65.115417,58.23125 65.1457456,58.2615 65.1457456,58.29175 L65.1457456,58.71525 C65.1457456,58.7455 65.115417,58.77575 65.0850885,58.77575 L63.9022746,58.77575 C63.8719461,58.77575 63.8416175,58.7455 63.8416175,58.71525 L63.8416175,58.29175 C63.8416175,58.2615 63.8719461,58.23125 63.9022746,58.23125 C63.9629318,58.23125 64.0539174,58.201 64.1449031,58.201 L64.1449031,56.71875 C64.0539174,56.71875 63.9932603,56.71875 63.9022746,56.6885 C63.8719461,56.6885 63.8416175,56.65825 63.8416175,56.628 L63.8416175,56.2045 C63.8416175,56.17425 63.8719461,56.144 63.9022746,56.144 L65.0850885,56.144 C65.115417,56.144 65.1457456,56.17425 65.1457456,56.2045 L65.1457456,56.628 C65.1457456,56.65825 65.115417,56.6885 65.0850885,56.6885 L65.0244313,56.6885 L64.9637742,56.6885 L64.9637742,57.14225 L65.4793597,56.2045 C65.5096883,56.144 65.5400168,56.11375 65.600674,56.11375 L66.3285594,56.11375 C66.358888,56.11375 66.3892165,56.144 66.3892165,56.17425 L66.3892165,56.59775 C66.3892165,56.628 66.358888,56.65825 66.3285594,56.65825 C66.2679023,56.6885 66.1769166,56.6885 66.0859309,56.6885 L65.6916596,57.38425 L66.0556024,58.04975 C66.0859309,58.11025 66.1162595,58.1405 66.146588,58.17075 C66.1769166,58.201 66.2375737,58.201 66.2982308,58.201 L66.4498736,58.201 C66.4802022,58.201 66.5105307,58.23125 66.5105307,58.2615 L66.5105307,58.65475 C66.5105307,58.685 66.4802022,58.71525 66.4498736,58.7455 C66.358888,58.77575 66.2072452,58.806 66.0556024,58.806 C65.9039596,58.806 65.7523168,58.77575 65.6310025,58.685 C65.5096883,58.59425 65.4187026,58.47325 65.2973884,58.29175 L65.2973884,58.322 L65.2973884,58.322 Z" id="Shape" fill="#FEFEFE"></path>
                            <polygon id="Shape" fill="#87A4AB" points="79.0665543 71.995 84.8593092 77.77275 79.0665543 77.77275 73.2434709 71.995"></polygon>
                            <path d="M87.8921651,112.3485 L47.1912384,112.3485 C46.463353,112.3485 45.8567818,112.9535 45.8567818,113.6795 L45.8567818,113.6795 C45.8567818,114.4055 46.463353,115.0105 47.1912384,115.0105 L87.8921651,115.0105 C88.6200505,115.0105 89.2266217,114.4055 89.2266217,113.6795 L89.2266217,113.6795 C89.2266217,112.9535 88.6200505,112.3485 87.8921651,112.3485 L87.8921651,112.3485 Z" id="Shape" fill="#D9EEF4"></path>
                            <path d="M124.316765,54.60125 C126.10615,54.35925 127.652906,52.60475 127.895535,51.03175 C128.138163,52.635 129.68492,54.35925 131.474305,54.60125 C129.68492,54.84325 128.138163,56.59775 127.895535,58.17075 C127.652906,56.5675 126.10615,54.84325 124.316765,54.60125 L124.316765,54.60125 Z" id="Shape" fill="#FEFEFE"></path>
                            <path d="M77.853412,67.79025 C80.2493682,67.4575 82.2813816,65.1585 82.6149958,63.041 C82.9486099,65.1585 84.9806234,67.4575 87.3765796,67.79025 C84.9806234,68.123 82.9486099,70.422 82.6149958,72.5395 C82.2813816,70.422 80.2493682,68.123 77.853412,67.79025 L77.853412,67.79025 Z" id="Shape" fill="#FEFEFE"></path>
                        </g>
                    </g>
                </g>
            </g>
        </g>
    </g>
</svg>