<?xml version="1.0" encoding="UTF-8" standalone="no"?>
<svg width="270px" height="459px" viewBox="0 0 270 459" version="1.1" xmlns="http://www.w3.org/2000/svg" xmlns:xlink="http://www.w3.org/1999/xlink">
    <!-- Generator: sketchtool 40.3 (33839) - http://www.bohemiancoding.com/sketch -->
    <title>AEF0CED2-AABC-4368-BD85-B8E2F2AAA70E</title>
    <desc>Created with sketchtool.</desc>
    <defs>
        <rect id="path-1" x="0" y="0" width="292" height="487" rx="4"></rect>
    </defs>
    <g id="main" stroke="none" stroke-width="1" fill="none" fill-rule="evenodd">
        <g transform="translate(-680.000000, -1320.000000)" id="1.10-illustration#3">
            <g transform="translate(658.000000, 1292.000000)">
                <mask id="mask-2" fill="white">
                    <use xlink:href="#path-1"></use>
                </mask>
                <g id="Mask"></g>
                <g id="03" mask="url(#mask-2)">
                    <g transform="translate(22.000000, 28.000000)" id="Слой_1">
                        <g>
                            <g id="g6623">
                                <polygon id="polygon893" fill="#A2C0C6" points="82.32 470.998174 82.32 146.03105 467.28 146.03105 467.28 471.118265 82.32 470.998174"></polygon>
                                <g id="g1153" transform="translate(0.000000, 176.534247)">
                                    <path d="M34.08,5.40410959 C35.4,5.16392694 36.72,6.00456621 36.96,7.4456621 C37.2,8.88675799 36.36,10.0876712 34.92,10.3278539 L21.6,12.7296804 L16.44,13.690411 C11.88,14.6511416 9.48,17.1730594 8.16,20.2954338 C6.84,23.6579909 6.72,27.8611872 6.72,31.4639269 L6.72,31.5840183 L6.72,31.5840183 L6.72,294.223744 L1.68,294.223744 L1.68,31.5840183 L1.68,31.5840183 C1.56,27.5009132 1.8,22.6972603 3.36,18.4940639 C5.16,13.9305936 8.64,10.2077626 15.24,8.88675799 L15.36,8.88675799 L20.64,7.9260274 L34.08,5.40410959 L34.08,5.40410959 L34.08,5.40410959 Z" id="path1155" fill="#C6C7C6"></path>
                                    <path d="M27.12,8.88675799 C26.64,6.12465753 28.44,3.36255708 31.32,2.88219178 L46.68,0.120091324 C49.44,-0.360273973 52.2,1.44109589 52.68,4.32328767 C53.16,7.08538813 51.36,9.84748858 48.48,10.3278539 L33.12,13.0899543 C30.36,13.5703196 27.72,11.7689498 27.12,8.88675799 L27.12,8.88675799 Z" id="path1157" fill="#C6C7C6"></path>
                                    <path d="M27.12,8.88675799 L52.56,4.32328767 C53.04,7.08538813 51.24,9.84748858 48.36,10.3278539 L33,13.0899543 C30.36,13.5703196 27.72,11.7689498 27.12,8.88675799 L27.12,8.88675799 Z" id="path1159" fill="#FBBB4D"></path>
                                    <polygon id="polygon1161" fill="#CFCFD0" points="0.24 294.223744 0.24 262.159361 8.28 262.159361 8.28 294.223744"></polygon>
                                </g>
                                <g id="g1295" transform="translate(274.800000, 73.255708) scale(-1, 1) translate(-274.800000, -73.255708) translate(142.800000, 0.000000)">
                                    <polygon id="polygon1297" fill="#88A5AB" points="3.96 4.20319635 3.96 132.941096 260.16 132.941096 260.16 4.20319635"></polygon>
                                    <g id="g1299" transform="translate(43.200000, 15.611872)">
                                        <path d="M165.48,38.1890411 C164.52,7.08538813 125.64,-8.88675799 103.68,15.1315068 C80.04,41.0712329 62.04,80.7013699 50.28,117.089041 L130.08,117.089041 C135.72,101.957534 142.44,87.3063927 151.08,72.6552511 C157.44,61.6068493 165.84,52.1196347 165.48,38.1890411 L165.48,38.1890411 L165.48,38.1890411 Z" id="path1305" fill="#A2C0C6"></path>
                                        <path d="M165,94.1515982 C163.08,84.7844749 159.36,76.7383562 154.32,69.7730594 C154.08,69.4127854 153.72,69.0525114 153.36,68.6922374 C152.52,70.013242 151.68,71.4543379 150.84,72.7753425 C148.44,76.8584475 145.92,81.0616438 144.24,85.0246575 L144.24,85.0246575 C134.64,82.5027397 125.76,81.5420091 116.16,86.3456621 C103.68,92.590411 99.84,103.999087 95.52,116.128311 L95.16,117.209132 L164.88,117.209132 C166.32,109.883562 166.68,102.317808 165,94.1515982 L165,94.1515982 Z" id="path1307" fill="#B5CED3"></path>
                                        <path d="M80.4,63.8885845 C73.92,72.5351598 78.12,80.4611872 89.88,83.5835616 C103.2,87.1863014 116.88,79.3803653 120.48,66.0502283 C123,56.9232877 120,47.6762557 113.76,41.5515982 C105.48,33.6255708 96,34.3461187 92.64,42.8726027 C89.4,50.7986301 84.84,58.0041096 80.4,63.8885845 L80.4,63.8885845 L80.4,63.8885845 Z" id="path1309" fill="#88A5AB"></path>
                                        <path d="M133.32,50.3182648 C129.96,49.4776256 126.48,51.5191781 125.64,55.0018265 C124.8,58.3643836 126.84,61.847032 130.32,62.6876712 C133.8,63.5283105 137.16,61.486758 138,58.0041096 C138.72,54.5214612 136.68,51.1589041 133.32,50.3182648 L133.32,50.3182648 Z" id="path1311" fill="#9EB8BD"></path>
                                        <path d="M133.08,31.3438356 C131.52,30.0228311 128.64,30.743379 126.6,33.0251142 C124.56,35.3068493 124.08,38.3091324 125.64,39.7502283 C127.2,41.0712329 130.08,40.3506849 132.12,38.0689498 C134.16,35.6671233 134.52,32.6648402 133.08,31.3438356 L133.08,31.3438356 Z" id="path1313" fill="#88A5AB"></path>
                                        <path d="M144.12,85.0246575 C154.8,86.9461187 154.2,80.5812785 150,74.3365297 C147.84,77.9392694 146.04,81.1817352 144.12,85.0246575 L144.12,85.0246575 Z" id="path1315" fill="#9EB8BD"></path>
                                        <path d="M111.12,21.1360731 C109.92,20.1753425 107.64,21.1360731 105.96,23.2977169 C104.28,25.4593607 103.92,27.8611872 105.12,28.8219178 C106.32,29.7826484 108.6,28.8219178 110.28,26.660274 C111.84,24.4986301 112.32,22.0968037 111.12,21.1360731 L111.12,21.1360731 L111.12,21.1360731 Z" id="path1317" fill="#88A5AB"></path>
                                        <path d="M100.2,67.8515982 C97.2,67.7315068 94.08,68.6922374 91.56,70.1333333 C83.4,74.5767123 84,78.2995434 93.12,80.4611872 C96.24,81.1817352 99.72,81.1817352 102.48,80.3410959 C112.92,77.0986301 109.32,67.9716895 100.2,67.8515982 L100.2,67.8515982 L100.2,67.8515982 Z" id="path1319" fill="#9EB8BD"></path>
                                        <path d="M129.24,34.46621 C128.64,33.8657534 127.44,34.2260274 126.6,35.186758 C125.76,36.1474886 125.64,37.3484018 126.24,37.8287671 C126.84,38.4292237 128.04,38.0689498 128.88,37.1082192 C129.72,36.2675799 129.84,35.0666667 129.24,34.46621 L129.24,34.46621 Z" id="path1321" fill="#C7E6EF"></path>
                                        <path d="M147.24,100.63653 C140.4,98.2347032 132.12,103.878995 129,113.126027 C128.52,114.567123 128.16,115.888128 127.92,117.329224 L155.04,117.329224 C156.12,109.643379 153,102.557991 147.24,100.63653 L147.24,100.63653 L147.24,100.63653 Z" id="path1333" fill="#9EB8BD"></path>
                                        <path d="M150.48,117.209132 C146.16,111.925114 140.76,107.481735 134.28,104.479452 C132,106.641096 130.2,109.523288 129,113.005936 C128.64,114.206849 128.28,115.407763 128.04,116.608676 C128.52,116.848858 128.88,116.96895 129.36,117.209132 L150.48,117.209132 L150.48,117.209132 L150.48,117.209132 Z" id="path1335" fill="#A2C0C6"></path>
                                        <path d="M116.88,51.0388128 C114.24,44.3136986 107.88,39.990411 102.84,39.1497717 C102.24,39.0296804 101.4,38.909589 100.56,38.909589 C99.24,39.0296804 98.04,39.630137 97.32,40.5908676 C96.12,42.1520548 96.48,43.2328767 98.76,43.352968 C103.44,43.5931507 109.56,46.9557078 114.24,51.6392694 C116.28,53.6808219 117.96,53.6808219 116.88,51.0388128 L116.88,51.0388128 Z" id="path1337" fill="#C7E6EF"></path>
                                        <path d="M108,24.0182648 C107.4,23.6579909 106.56,24.0182648 105.96,24.8589041 C105.36,25.6995434 105.36,26.7803653 105.96,27.1406393 C106.56,27.5009132 107.4,27.1406393 108,26.3 C108.6,25.3392694 108.6,24.3785388 108,24.0182648 L108,24.0182648 Z" id="path1339" fill="#C7E6EF"></path>
                                    </g>
                                    <g id="g1377" transform="translate(54.000000, 132.100457)">
                                        <g id="g1379" transform="translate(146.400000, 0.000000)">
                                            <polygon id="polygon1381" fill="#A2C0C6" points="0 13.9305936 0 0.840639269 9 0.840639269 9 13.9305936"></polygon>
                                            <polygon id="polygon1383" fill="#96B6BE" points="4.56 13.9305936 4.56 0.840639269 9 0.840639269 9 13.9305936"></polygon>
                                        </g>
                                    </g>
                                    <polygon id="polygon1391" fill="#88A5AB" points="263.52 2.28173516 263.52 0 70.2 0 70.2 4.443379 260.16 4.443379"></polygon>
                                    <polygon id="polygon1393" fill="#88A5AB" points="0.6 2.28173516 0.6 0 193.92 0 193.92 4.443379 3.96 4.443379"></polygon>
                                    <polygon id="polygon1395" fill="#C7E6EF" points="0.6 2.28173516 3.96 4.56347032 260.16 4.56347032 263.52 2.28173516"></polygon>
                                    <g id="g1397" transform="translate(69.600000, 132.100457)">
                                        <polygon id="polygon1399" fill="#88A5AB" points="193.92 3.00228311 193.92 5.28401826 0.6 5.28401826 0.6 0.840639269 190.56 0.840639269"></polygon>
                                        <polygon id="polygon1401" fill="#C7E6EF" points="0.6 3.00228311 0.6 0.720547945 190.56 0.720547945 193.92 3.00228311"></polygon>
                                    </g>
                                    <polygon id="polygon1403" fill="#88A5AB" points="0.6 135.10274 0.6 137.384475 193.92 137.384475 193.92 132.941096 3.96 132.941096"></polygon>
                                    <polygon id="polygon1405" fill="#C7E6EF" points="193.92 135.10274 193.92 132.821005 3.96 132.821005 0.6 135.10274"></polygon>
                                </g>
                                <g id="g1631" transform="translate(195.600000, 174.132420)">
                                    <g id="g1633" transform="translate(0.000000, 88.867580)">
                                        <polygon id="path1635" fill="#96B6BE" points="66.48 0 66.48 57.6438356 3.96 57.6438356 3.96 0"></polygon>
                                        <polygon id="polygon1637" fill="#B1DDE9" points="61.2 5.40410959 61.2 57.6438356 9.24 57.6438356 9.24 5.40410959"></polygon>
                                        <path d="M61.2,34.2260274 L61.2,38.0689498 L28.56,5.28401826 L32.4,5.28401826 L61.2,34.2260274 L61.2,34.2260274 Z M61.2,45.7547945 L61.2,53.4406393 L13.32,5.40410959 L21,5.40410959 L61.2,45.7547945 L61.2,45.7547945 Z M61.2,57.1634703 L61.2,57.6438356 L57.84,57.6438356 L9.36,9.00684932 L9.36,5.28401826 L9.6,5.28401826 L61.2,57.1634703 L61.2,57.1634703 L61.2,57.1634703 Z" id="path1639" fill="#C7E6EF"></path>
                                        <polygon id="path1641" fill="#91CAD5" points="61.2 5.40410959 9.24 5.40410959 9.24 6.9652968 61.2 6.9652968 61.2 5.40410959"></polygon>
                                        <polygon id="path1643" fill="#91CAD5" points="27.96 5.40410959 27.96 57.6438356 29.52 57.6438356 29.52 5.40410959 27.96 5.40410959"></polygon>
                                        <polygon id="path1645" fill="#91CAD5" points="61.2 24.1383562 9.6 24.1383562 9.6 25.6995434 61.2 25.6995434"></polygon>
                                        <polygon id="polygon1647" fill="#96B6BE" points="25.32 57.6438356 25.32 0 27.96 0 27.96 57.6438356 25.32 57.6438356"></polygon>
                                        <polygon id="polygon1649" fill="#96B6BE" points="42.6 57.6438356 42.6 0 45.24 0 45.24 57.6438356 42.6 57.6438356"></polygon>
                                        <polygon id="path1651" fill="#91CAD5" points="45.24 5.40410959 45.24 57.6438356 46.8 57.6438356 46.8 5.40410959 45.24 5.40410959"></polygon>
                                        <polygon id="path1653" fill="#91CAD5" points="9.24 5.40410959 9.24 57.6438356 10.8 57.6438356 10.8 5.40410959 9.24 5.40410959"></polygon>
                                        <polygon id="polygon1655" fill="#96B6BE" points="6.48 21.496347 64.08 21.496347 64.08 24.1383562 6.48 24.1383562 6.48 21.496347"></polygon>
                                        <polygon id="path1657" fill="#88A5AB" points="3.96 0 3.96 57.6438356 7.08 57.6438356 7.08 0 3.96 0"></polygon>
                                        <polygon id="path1659" fill="#88A5AB" points="66.48 0 5.4 0 5.4 3.12237443 66.48 3.12237443 66.48 0"></polygon>
                                        <polygon id="polygon1661" fill="#ABC5CB" points="0.48 56.0826484 70.08 56.0826484 70.08 66.4105023 0.48 66.4105023 0.48 56.0826484"></polygon>
                                        <polygon id="polygon1663" fill="#88A5AB" points="70.08 66.5305936 70.08 56.2027397 80.4 66.5305936 80.4 76.8584475 10.8 76.8584475 0.48 66.5305936 10.8 66.5305936"></polygon>
                                    </g>
                                    <g id="g1665" transform="translate(0.000000, 176.534247)">
                                        <polygon id="path1667" fill="#96B6BE" points="66.48 0.960730594 66.48 58.6045662 3.96 58.6045662 3.96 0.960730594"></polygon>
                                        <polygon id="polygon1669" fill="#B1DDE9" points="61.2 6.24474886 61.2 58.4844749 9.24 58.4844749 9.24 6.24474886"></polygon>
                                        <path d="M61.2,35.186758 L61.2,39.0296804 L28.56,6.24474886 L32.4,6.24474886 L61.2,35.186758 L61.2,35.186758 Z M61.2,46.5954338 L61.2,54.2812785 L13.32,6.24474886 L21,6.24474886 L61.2,46.5954338 L61.2,46.5954338 Z M61.2,58.1242009 L61.2,58.6045662 L57.84,58.6045662 L9.36,9.96757991 L9.36,6.24474886 L9.6,6.24474886 L61.2,58.1242009 L61.2,58.1242009 L61.2,58.1242009 Z" id="path1671" fill="#C7E6EF"></path>
                                        <polygon id="path1673" fill="#91CAD5" points="61.2 6.24474886 9.24 6.24474886 9.24 7.80593607 61.2 7.80593607 61.2 6.24474886"></polygon>
                                        <polygon id="path1675" fill="#91CAD5" points="27.96 6.24474886 27.96 58.4844749 29.52 58.4844749 29.52 6.24474886 27.96 6.24474886"></polygon>
                                        <polygon id="path1677" fill="#91CAD5" points="61.2 25.0990868 9.6 25.0990868 9.6 26.660274 61.2 26.660274"></polygon>
                                        <polygon id="polygon1679" fill="#96B6BE" points="25.32 58.6045662 25.32 0.960730594 27.96 0.960730594 27.96 58.6045662"></polygon>
                                        <polygon id="polygon1681" fill="#96B6BE" points="42.6 58.6045662 42.6 0.960730594 45.24 0.960730594 45.24 58.6045662"></polygon>
                                        <polygon id="path1683" fill="#91CAD5" points="45.24 6.24474886 45.24 58.4844749 46.8 58.4844749 46.8 6.24474886 45.24 6.24474886"></polygon>
                                        <polygon id="path1685" fill="#91CAD5" points="9.24 6.24474886 9.24 58.4844749 10.8 58.4844749 10.8 6.24474886 9.24 6.24474886"></polygon>
                                        <polygon id="polygon1687" fill="#96B6BE" points="6.48 22.3369863 64.08 22.3369863 64.08 24.9789954 6.48 24.9789954 6.48 22.3369863"></polygon>
                                        <polygon id="path1689" fill="#88A5AB" points="3.96 0.960730594 3.96 58.6045662 7.08 58.6045662 7.08 0.960730594 3.96 0.960730594"></polygon>
                                        <polygon id="path1691" fill="#88A5AB" points="66.48 0.960730594 5.4 0.960730594 5.4 4.08310502 66.48 4.08310502 66.48 0.960730594"></polygon>
                                        <polygon id="polygon1693" fill="#ABC5CB" points="0.48 57.043379 70.08 57.043379 70.08 67.3712329 0.48 67.3712329 0.48 57.043379"></polygon>
                                        <polygon id="polygon1695" fill="#88A5AB" points="70.08 67.3712329 70.08 57.043379 80.4 67.3712329 80.4 77.6990868 10.8 77.6990868 0.48 67.3712329 10.8 67.3712329"></polygon>
                                    </g>
                                    <g id="g1697">
                                        <polygon id="path1699" fill="#96B6BE" points="66.48 0.240182648 66.48 57.8840183 3.96 57.8840183 3.96 0.240182648"></polygon>
                                        <polygon id="polygon1701" fill="#B1DDE9" points="61.2 5.64429224 61.2 57.8840183 9.24 57.8840183 9.24 5.64429224"></polygon>
                                        <path d="M61.2,34.46621 L61.2,38.3091324 L28.56,5.52420091 L32.4,5.52420091 L61.2,34.46621 L61.2,34.46621 Z M61.2,45.9949772 L61.2,53.6808219 L13.32,5.64429224 L21,5.64429224 L61.2,45.9949772 L61.2,45.9949772 Z M61.2,57.5237443 L61.2,58.0041096 L57.84,58.0041096 L9.36,9.36712329 L9.36,5.64429224 L9.6,5.64429224 L61.2,57.5237443 L61.2,57.5237443 L61.2,57.5237443 Z" id="path1703" fill="#C7E6EF"></path>
                                        <polygon id="path1705" fill="#91CAD5" points="61.2 5.64429224 9.24 5.64429224 9.24 7.20547945 61.2 7.20547945 61.2 5.64429224"></polygon>
                                        <polygon id="path1707" fill="#91CAD5" points="27.96 5.64429224 27.96 57.8840183 29.52 57.8840183 29.52 5.64429224 27.96 5.64429224"></polygon>
                                        <polygon id="path1709" fill="#91CAD5" points="61.2 24.3785388 9.6 24.3785388 9.6 25.939726 61.2 25.939726"></polygon>
                                        <polygon id="polygon1711" fill="#96B6BE" points="25.32 57.8840183 25.32 0.240182648 27.96 0.240182648 27.96 57.8840183"></polygon>
                                        <polygon id="polygon1713" fill="#96B6BE" points="42.6 57.8840183 42.6 0.240182648 45.24 0.240182648 45.24 57.8840183"></polygon>
                                        <polygon id="path1715" fill="#91CAD5" points="45.24 5.64429224 45.24 57.8840183 46.8 57.8840183 46.8 5.64429224 45.24 5.64429224"></polygon>
                                        <polygon id="path1717" fill="#91CAD5" points="9.24 5.64429224 9.24 57.8840183 10.8 57.8840183 10.8 5.64429224 9.24 5.64429224"></polygon>
                                        <polygon id="polygon1719" fill="#96B6BE" points="6.48 21.7365297 64.08 21.7365297 64.08 24.3785388 6.48 24.3785388 6.48 21.7365297"></polygon>
                                        <polygon id="path1721" fill="#88A5AB" points="3.96 0.240182648 3.96 57.8840183 7.08 57.8840183 7.08 0.240182648 3.96 0.240182648"></polygon>
                                        <polygon id="path1723" fill="#88A5AB" points="66.48 0.240182648 5.4 0.240182648 5.4 3.36255708 66.48 3.36255708 66.48 0.240182648"></polygon>
                                        <polygon id="polygon1725" fill="#ABC5CB" points="0.48 56.3228311 70.08 56.3228311 70.08 66.6506849 0.48 66.6506849 0.48 56.3228311"></polygon>
                                        <polygon id="polygon1727" fill="#88A5AB" points="70.08 66.7707763 70.08 56.4429224 80.4 66.7707763 80.4 77.0986301 10.8 77.0986301 0.48 66.7707763 10.8 66.7707763"></polygon>
                                    </g>
                                </g>
                                <g id="g1729" transform="translate(108.000000, 174.132420)">
                                    <g id="g1731" transform="translate(0.000000, 88.867580)">
                                        <polygon id="path1733" fill="#96B6BE" points="66.12 0 66.12 57.6438356 3.6 57.6438356 3.6 0"></polygon>
                                        <polygon id="polygon1735" fill="#B1DDE9" points="60.84 5.40410959 60.84 57.6438356 8.88 57.6438356 8.88 5.40410959"></polygon>
                                        <path d="M60.84,34.2260274 L60.84,38.0689498 L28.2,5.28401826 L32.04,5.28401826 L60.84,34.2260274 L60.84,34.2260274 Z M60.84,45.7547945 L60.84,53.4406393 L12.96,5.40410959 L20.52,5.40410959 L60.84,45.7547945 L60.84,45.7547945 Z M60.84,57.1634703 L60.84,57.6438356 L57.48,57.6438356 L9,9.00684932 L9,5.28401826 L9.24,5.28401826 L60.84,57.1634703 L60.84,57.1634703 L60.84,57.1634703 Z" id="path1737" fill="#C7E6EF"></path>
                                        <polygon id="path1739" fill="#91CAD5" points="60.84 5.40410959 8.88 5.40410959 8.88 6.9652968 60.84 6.9652968 60.84 5.40410959"></polygon>
                                        <polygon id="path1741" fill="#91CAD5" points="27.6 5.40410959 27.6 57.6438356 29.16 57.6438356 29.16 5.40410959 27.6 5.40410959"></polygon>
                                        <polygon id="path1743" fill="#91CAD5" points="60.84 24.1383562 9.24 24.1383562 9.24 25.6995434 60.84 25.6995434"></polygon>
                                        <polygon id="polygon1745" fill="#96B6BE" points="24.84 57.6438356 24.84 0 27.48 0 27.48 57.6438356 24.84 57.6438356"></polygon>
                                        <polygon id="polygon1747" fill="#96B6BE" points="42.24 57.6438356 42.24 0 44.88 0 44.88 57.6438356 42.24 57.6438356"></polygon>
                                        <polygon id="path1749" fill="#91CAD5" points="44.88 5.40410959 44.88 57.6438356 46.44 57.6438356 46.44 5.40410959 44.88 5.40410959"></polygon>
                                        <polygon id="path1751" fill="#91CAD5" points="8.88 5.40410959 8.88 57.6438356 10.44 57.6438356 10.44 5.40410959 8.88 5.40410959"></polygon>
                                        <polygon id="polygon1753" fill="#96B6BE" points="6.12 21.496347 63.72 21.496347 63.72 24.1383562 6.12 24.1383562"></polygon>
                                        <polygon id="path1755" fill="#88A5AB" points="3.6 0 3.6 57.6438356 6.72 57.6438356 6.72 0 3.6 0"></polygon>
                                        <polygon id="path1757" fill="#88A5AB" points="66.12 0 5.04 0 5.04 3.12237443 66.12 3.12237443 66.12 0"></polygon>
                                        <polygon id="polygon1759" fill="#ABC5CB" points="0.12 56.0826484 69.72 56.0826484 69.72 66.4105023 0.12 66.4105023"></polygon>
                                        <polygon id="polygon1761" fill="#88A5AB" points="69.72 66.5305936 69.72 56.2027397 80.04 66.5305936 80.04 76.8584475 10.44 76.8584475 0.12 66.5305936 10.44 66.5305936"></polygon>
                                    </g>
                                    <g id="g1763" transform="translate(0.000000, 176.534247)">
                                        <polygon id="path1765" fill="#96B6BE" points="66.12 0.960730594 66.12 58.6045662 3.6 58.6045662 3.6 0.960730594"></polygon>
                                        <polygon id="polygon1767" fill="#B1DDE9" points="60.84 6.24474886 60.84 58.4844749 8.88 58.4844749 8.88 6.24474886"></polygon>
                                        <path d="M60.84,35.186758 L60.84,39.0296804 L28.2,6.24474886 L32.04,6.24474886 L60.84,35.186758 L60.84,35.186758 Z M60.84,46.5954338 L60.84,54.2812785 L12.96,6.24474886 L20.52,6.24474886 L60.84,46.5954338 L60.84,46.5954338 Z M60.84,58.1242009 L60.84,58.6045662 L57.48,58.6045662 L9,9.96757991 L9,6.24474886 L9.24,6.24474886 L60.84,58.1242009 L60.84,58.1242009 L60.84,58.1242009 Z" id="path1769" fill="#C7E6EF"></path>
                                        <polygon id="path1771" fill="#91CAD5" points="60.84 6.24474886 8.88 6.24474886 8.88 7.80593607 60.84 7.80593607 60.84 6.24474886"></polygon>
                                        <polygon id="path1773" fill="#91CAD5" points="27.6 6.24474886 27.6 58.4844749 29.16 58.4844749 29.16 6.24474886 27.6 6.24474886"></polygon>
                                        <polygon id="path1775" fill="#91CAD5" points="60.84 25.0990868 9.24 25.0990868 9.24 26.660274 60.84 26.660274"></polygon>
                                        <polygon id="polygon1777" fill="#96B6BE" points="24.84 58.6045662 24.84 0.960730594 27.48 0.960730594 27.48 58.6045662"></polygon>
                                        <polygon id="polygon1779" fill="#96B6BE" points="42.24 58.6045662 42.24 0.960730594 44.88 0.960730594 44.88 58.6045662"></polygon>
                                        <polygon id="path1781" fill="#91CAD5" points="44.88 6.24474886 44.88 58.4844749 46.44 58.4844749 46.44 6.24474886 44.88 6.24474886"></polygon>
                                        <polygon id="path1783" fill="#91CAD5" points="8.88 6.24474886 8.88 58.4844749 10.44 58.4844749 10.44 6.24474886 8.88 6.24474886"></polygon>
                                        <polygon id="polygon1785" fill="#96B6BE" points="6.12 22.3369863 63.72 22.3369863 63.72 24.9789954 6.12 24.9789954"></polygon>
                                        <polygon id="path1787" fill="#88A5AB" points="3.6 0.960730594 3.6 58.6045662 6.72 58.6045662 6.72 0.960730594 3.6 0.960730594"></polygon>
                                        <polygon id="path1789" fill="#88A5AB" points="66.12 0.960730594 5.04 0.960730594 5.04 4.08310502 66.12 4.08310502 66.12 0.960730594"></polygon>
                                        <polygon id="polygon1791" fill="#ABC5CB" points="0.12 57.043379 69.72 57.043379 69.72 67.3712329 0.12 67.3712329"></polygon>
                                        <polygon id="polygon1793" fill="#88A5AB" points="69.72 67.3712329 69.72 57.043379 80.04 67.3712329 80.04 77.6990868 10.44 77.6990868 0.12 67.3712329 10.44 67.3712329"></polygon>
                                    </g>
                                    <g id="g1795">
                                        <polygon id="path1797" fill="#96B6BE" points="66.12 0.240182648 66.12 57.8840183 3.6 57.8840183 3.6 0.240182648"></polygon>
                                        <polygon id="polygon1799" fill="#B1DDE9" points="60.84 5.64429224 60.84 57.8840183 8.88 57.8840183 8.88 5.64429224"></polygon>
                                        <path d="M60.84,34.46621 L60.84,38.3091324 L28.2,5.52420091 L32.04,5.52420091 L60.84,34.46621 L60.84,34.46621 Z M60.84,45.9949772 L60.84,53.6808219 L12.96,5.64429224 L20.52,5.64429224 L60.84,45.9949772 L60.84,45.9949772 Z M60.84,57.5237443 L60.84,58.0041096 L57.48,58.0041096 L9,9.36712329 L9,5.64429224 L9.24,5.64429224 L60.84,57.5237443 L60.84,57.5237443 L60.84,57.5237443 Z" id="path1801" fill="#C7E6EF"></path>
                                        <polygon id="path1803" fill="#91CAD5" points="60.84 5.64429224 8.88 5.64429224 8.88 7.20547945 60.84 7.20547945 60.84 5.64429224"></polygon>
                                        <polygon id="path1805" fill="#91CAD5" points="27.6 5.64429224 27.6 57.8840183 29.16 57.8840183 29.16 5.64429224 27.6 5.64429224"></polygon>
                                        <polygon id="path1807" fill="#91CAD5" points="60.84 24.3785388 9.24 24.3785388 9.24 25.939726 60.84 25.939726"></polygon>
                                        <polygon id="polygon1809" fill="#96B6BE" points="24.84 57.8840183 24.84 0.240182648 27.48 0.240182648 27.48 57.8840183"></polygon>
                                        <polygon id="polygon1811" fill="#96B6BE" points="42.24 57.8840183 42.24 0.240182648 44.88 0.240182648 44.88 57.8840183"></polygon>
                                        <polygon id="path1813" fill="#91CAD5" points="44.88 5.64429224 44.88 57.8840183 46.44 57.8840183 46.44 5.64429224 44.88 5.64429224"></polygon>
                                        <polygon id="path1815" fill="#91CAD5" points="8.88 5.64429224 8.88 57.8840183 10.44 57.8840183 10.44 5.64429224 8.88 5.64429224"></polygon>
                                        <polygon id="polygon1817" fill="#96B6BE" points="6.12 21.7365297 63.72 21.7365297 63.72 24.3785388 6.12 24.3785388"></polygon>
                                        <polygon id="path1819" fill="#88A5AB" points="3.6 0.240182648 3.6 57.8840183 6.72 57.8840183 6.72 0.240182648 3.6 0.240182648"></polygon>
                                        <polygon id="path1821" fill="#88A5AB" points="66.12 0.240182648 5.04 0.240182648 5.04 3.36255708 66.12 3.36255708 66.12 0.240182648"></polygon>
                                        <polygon id="polygon1823" fill="#ABC5CB" points="0.12 56.3228311 69.72 56.3228311 69.72 66.6506849 0.12 66.6506849"></polygon>
                                        <polygon id="polygon1825" fill="#88A5AB" points="69.72 66.7707763 69.72 56.4429224 80.04 66.7707763 80.04 77.0986301 10.44 77.0986301 0.12 66.7707763 10.44 66.7707763"></polygon>
                                    </g>
                                </g>
                            </g>
                            <g id="Group" transform="translate(27.600000, 206.557078)">
                                <path d="M101.04,266.362557 C45.6,266.002283 0.6,220.968037 0.6,165.485845 C0.6,109.76347 45.48,64.7292237 101.04,64.3689498 L101.04,87.426484 C58.32,87.786758 23.76,122.493151 23.76,165.485845 C23.76,208.238356 58.32,243.06484 101.04,243.305023 L101.04,266.362557 L101.04,266.362557 Z" id="Shape" fill="#403C4E"></path>
                                <path d="M4.92,195.148402 C9.84,211.360731 18.96,225.771689 30.6,237.420548 L30.6,197.910502 C28.56,193.467123 26.88,188.783562 25.8,184.1 L4.92,195.148402 L4.92,195.148402 L4.92,195.148402 Z M84,264.80137 C89.64,265.7621 95.52,266.362557 101.52,266.362557 L102,266.362557 L102,243.305023 L101.52,243.305023 C95.52,243.305023 89.64,242.704566 84,241.26347 C84,241.26347 84,264.80137 84,264.80137 L84,264.80137 Z" id="Shape" fill="#E4BC8E"></path>
                                <polygon id="Shape" fill="#383645" points="100.56 241.023288 100.56 307.193607 100.56 310.556164 100.56 318.722374 113.52 318.722374 113.52 310.676256 113.04 310.556164 113.52 310.556164 130.32 241.023288"></polygon>
                                <polygon id="Shape" fill="#484457" points="101.04 241.023288 101.04 307.193607 101.04 310.556164 101.04 318.722374 88.08 318.722374 88.08 310.676256 88.56 310.556164 88.08 310.556164 71.16 241.023288"></polygon>
                                <path d="M172.32,264.080822 L172.32,93.4310502 C154.08,75.4173516 129.12,64.3689498 101.4,64.3689498 C73.92,64.3689498 48.84,75.4173516 30.72,93.3109589 L30.72,264.080822 C53.52,271.646575 77.16,275.489498 101.64,275.489498 C125.88,275.489498 149.76,271.646575 172.32,264.080822 L172.32,264.080822 Z" id="Shape" fill="#403C4E"></path>
                                <path d="M172.32,264.080822 L172.32,237.300457 C190.92,219.046575 202.32,193.587215 202.32,165.485845 C202.32,137.384475 190.8,111.925114 172.32,93.6712329 L172.32,93.6712329 C171.96,93.3109589 171.72,93.0707763 171.36,92.7105023 C171,92.3502283 170.88,92.230137 170.64,91.9899543 C170.28,91.6296804 170.04,91.3894977 169.68,91.0292237 C169.32,90.6689498 169.08,90.5488584 168.96,90.3086758 C168.6,89.9484018 168.36,89.7082192 168,89.3479452 C167.64,88.9876712 167.52,88.8675799 167.28,88.6273973 C166.92,88.2671233 166.68,88.0269406 166.2,87.6666667 C165.84,87.3063927 165.6,87.1863014 165.48,87.06621 C165.12,86.7059361 164.76,86.4657534 164.4,86.1054795 C164.04,85.9853881 163.92,85.6251142 163.68,85.5050228 C163.32,85.1447489 162.96,84.9045662 162.6,84.5442922 C162.24,84.4242009 162.12,84.0639269 161.88,83.9438356 C161.4,83.5835616 161.16,83.343379 160.68,82.983105 C160.32,82.8630137 160.2,82.6228311 159.96,82.3826484 C159.48,82.0223744 159.24,81.7821918 158.76,81.4219178 C158.4,81.3018265 158.28,81.0616438 158.04,80.9415525 C157.56,80.5812785 157.32,80.3410959 156.84,80.2210046 C156.48,80.1009132 156.36,79.8607306 156.12,79.7406393 C155.64,79.3803653 155.16,79.1401826 154.68,79.0200913 C154.32,78.9 154.2,78.6598174 153.96,78.539726 C153.48,78.1794521 153,77.9392694 152.52,77.8191781 C152.16,77.6990868 152.04,77.4589041 151.8,77.3388128 C151.32,76.9785388 150.84,76.8584475 150.36,76.6182648 C150.24,76.4981735 149.88,76.2579909 149.76,76.2579909 C149.28,75.8977169 148.8,75.7776256 148.2,75.5374429 L147.6,75.1771689 C147.12,74.816895 146.52,74.6968037 146.04,74.456621 C145.92,74.3365297 145.56,74.3365297 145.44,74.096347 C144.84,73.7360731 144.36,73.6159817 143.76,73.3757991 L143.16,73.0155251 C142.56,72.6552511 142.08,72.5351598 141.48,72.2949772 L140.88,72.2949772 C140.28,71.9347032 139.8,71.8146119 139.2,71.5744292 L138.6,71.4543379 C138,71.0940639 137.4,70.9739726 136.8,70.8538813 L136.44,70.4936073 C135.84,70.1333333 135.24,70.013242 134.64,69.8931507 L134.16,69.7730594 C133.56,69.652968 132.96,69.2926941 132.12,69.1726027 L131.64,69.0525114 C131.04,68.9324201 130.2,68.5721461 129.6,68.4520548 L129.24,68.3319635 C128.64,68.2118721 127.8,67.9716895 127.2,67.7315068 L126.84,67.7315068 C126.24,67.6114155 125.4,67.3712329 124.68,67.2511416 L124.32,67.1310502 C123.6,67.0109589 122.88,66.7707763 122.16,66.6506849 L121.8,66.6506849 C121.08,66.5305936 120.24,66.290411 119.64,66.1703196 L119.28,66.1703196 C118.56,66.0502283 117.72,65.8100457 117,65.8100457 L116.88,65.8100457 C116.16,65.6899543 115.32,65.6899543 114.6,65.4497717 L114.48,65.4497717 C113.76,65.3296804 112.92,65.3296804 112.08,65.0894977 L111.96,65.0894977 C111.24,64.9694064 110.28,64.9694064 109.56,64.9694064 L109.2,64.9694064 C108.48,64.9694064 107.52,64.8493151 106.8,64.8493151 L106.8,64.8493151 C105.12,64.7292237 103.44,64.7292237 101.52,64.7292237 L101.52,64.7292237 L101.52,64.7292237 L101.52,64.7292237 L101.52,64.7292237 L101.52,64.7292237 L101.52,64.7292237 L101.52,64.7292237 L101.52,64.7292237 L101.52,64.7292237 L101.52,64.7292237 L101.52,64.7292237 L101.52,64.7292237 L101.52,64.7292237 L101.52,64.7292237 L101.52,64.7292237 L101.52,64.7292237 L101.52,64.7292237 L101.52,64.7292237 L101.52,64.7292237 L101.52,64.7292237 L101.52,64.7292237 L101.52,64.7292237 L101.16,64.7292237 L101.16,64.7292237 L101.16,87.6666667 L101.16,243.305023 L101.16,266.362557 L101.16,275.489498 L101.76,275.489498 C125.88,275.489498 149.76,271.646575 172.32,264.080822 L172.32,264.080822 L172.32,264.080822 Z M172.32,197.430137 L172.32,133.30137 C176.76,143.148858 179.28,153.957078 179.28,165.485845 C179.28,176.894521 176.76,187.822831 172.32,197.430137 L172.32,197.430137 Z" id="Shape" fill="#32303D"></path>
                                <path d="M198,195.148402 C193.08,211.360731 184.2,225.771689 172.44,237.300457 L172.44,197.430137 C174.48,193.106849 175.92,188.66347 177,184.1 L198,195.148402 L198,195.148402 Z" id="Shape" fill="#E1AF74"></path>
                                <path d="M57.84,76.9785388 C57.84,100.996804 77.52,120.691781 101.52,120.691781 C125.52,120.691781 145.2,100.996804 145.2,76.9785388 C145.2,75.1771689 145.32,55.1219178 145.08,55.1219178 C144.6,49.1173516 143.04,43.2328767 140.52,38.1890411 L62.52,38.1890411 C59.88,43.2328767 58.2,49.1173516 57.96,55.1219178 C57.72,55.1219178 57.84,76.1378995 57.84,76.9785388 L57.84,76.9785388 L57.84,76.9785388 Z" id="Shape" fill="#E4BB8F"></path>
                                <path d="M101.52,120.691781 C125.52,120.691781 145.2,100.996804 145.2,76.9785388 C145.2,67.4913242 145.2,77.6990868 145.2,68.0917808 L145.2,62.5675799 L145.2,58.1242009 L145.2,55.2420091 C144.72,49.2374429 143.16,43.352968 140.64,38.3091324 L101.64,38.3091324 L101.64,55.2420091 L101.64,62.5675799 L101.64,120.691781 L101.52,120.691781 Z" id="Shape" fill="#E0B074"></path>
                                <ellipse id="Oval" fill="#E1594D" cx="133.32" cy="78.9" rx="6" ry="6.00456621"></ellipse>
                                <path d="M101.52,79.1401826 C99.24,79.1401826 97.2,80.9415525 97.2,83.4634703 C97.2,83.9438356 97.32,84.4242009 97.56,84.9045662 L105.6,84.9045662 C105.72,84.4242009 105.96,83.9438356 105.96,83.4634703 C105.84,81.0616438 103.8,79.1401826 101.52,79.1401826 L101.52,79.1401826 Z" id="Shape" fill="#E1594D"></path>
                                <ellipse id="Oval" fill="#1F3654" cx="85.44" cy="70.4936073" rx="6" ry="6.00456621"></ellipse>
                                <ellipse id="Oval" fill="#FFFFFF" cx="83.52" cy="70.4936073" rx="2.04" ry="2.04155251"></ellipse>
                                <ellipse id="Oval" fill="#1F3654" cx="117.48" cy="70.4936073" rx="6" ry="6.00456621"></ellipse>
                                <ellipse id="Oval" fill="#FFFFFF" cx="115.56" cy="70.4936073" rx="2.04" ry="2.04155251"></ellipse>
                                <ellipse id="Oval" fill="#E1594D" cx="69.84" cy="78.9" rx="6" ry="6.00456621"></ellipse>
                                <path d="M144.36,85.7452055 C149.28,85.7452055 153.24,81.7821918 153.24,76.8584475 C153.24,71.9347032 149.28,67.9716895 144.36,67.9716895 L144.36,85.7452055 L144.36,85.7452055 Z" id="Shape" fill="#E0B074"></path>
                                <path d="M58.68,68.0917808 C53.76,68.0917808 49.8,72.0547945 49.8,76.9785388 C49.8,81.9022831 53.76,85.8652968 58.68,85.8652968 L58.68,68.0917808 L58.68,68.0917808 Z" id="Shape" fill="#E4BB8F"></path>
                                <path d="M58.68,72.4150685 C56.28,72.4150685 54.24,74.456621 54.24,76.8584475 C54.24,79.260274 56.28,81.3018265 58.68,81.3018265 L58.68,72.4150685 L58.68,72.4150685 Z" id="Shape" fill="#E7A958"></path>
                                <path d="M144.36,72.4150685 C146.76,72.4150685 148.8,74.456621 148.8,76.8584475 C148.8,79.260274 146.76,81.3018265 144.36,81.3018265 L144.36,72.4150685 L144.36,72.4150685 Z" id="Shape" fill="#E7A958"></path>
                                <path d="M99.84,84.4242009 C113.52,81.0616438 126.48,85.8652968 128.76,95.3525114 L79.44,107.601826 C77.04,98.2347032 86.28,87.786758 99.84,84.4242009 L99.84,84.4242009 Z" id="Shape" fill="#B0784A"></path>
                                <path d="M57.84,45.1543379 L62.64,45.1543379 L62.64,69.0525114 C61.44,68.4520548 60.24,68.0917808 58.68,68.0917808 L57.72,68.0917808 L57.72,45.1543379 L57.84,45.1543379 L57.84,45.1543379 Z" id="Shape" fill="#B0784A"></path>
                                <path d="M145.32,45.1543379 L140.52,45.1543379 L140.52,69.0525114 C141.72,68.4520548 142.92,68.0917808 144.48,68.0917808 L145.44,68.0917808 L145.44,45.1543379 L145.32,45.1543379 L145.32,45.1543379 Z" id="Shape" fill="#B0784A"></path>
                                <path d="M138.96,61.3666667 C138.96,75.6575342 122.04,87.1863014 101.16,87.1863014 C80.28,87.1863014 63.36,75.6575342 63.36,61.3666667 L138.96,61.3666667 L138.96,61.3666667 Z" id="Shape" fill="#1F3654"></path>
                                <path d="M145.32,40.8310502 L145.32,58.3643836 L145.32,58.9648402 L145.32,58.9648402 C134.52,66.5305936 118.92,71.0940639 101.64,71.0940639 C84.48,71.0940639 68.76,66.5305936 57.96,58.9648402 L57.96,58.9648402 L57.96,58.3643836 L57.96,40.8310502 C68.76,48.3968037 84.36,52.960274 101.64,52.960274 C118.8,52.960274 134.4,48.3968037 145.32,40.8310502 L145.32,40.8310502 Z" id="Shape" fill="#F8B947"></path>
                                <path d="M145.32,40.8310502 L145.32,58.3643836 L145.32,58.9648402 L145.32,58.9648402 C134.52,66.5305936 118.92,71.0940639 101.64,71.0940639 L101.64,52.960274 C118.8,52.960274 134.4,48.3968037 145.32,40.8310502 L145.32,40.8310502 Z" id="Shape" fill="#DFA73F"></path>
                                <path d="M159.24,26.9004566 L159.24,27.6210046 C159.24,47.1958904 133.08,63.0479452 100.8,63.0479452 C68.52,63.0479452 42.36,47.1958904 42.36,27.6210046 L42.36,26.9004566 L159.24,26.9004566 L159.24,26.9004566 Z" id="Shape" fill="#494659"></path>
                                <ellipse id="Oval" fill="#32303D" cx="100.92" cy="26.1799087" rx="58.44" ry="26.0598174"></ellipse>
                                <ellipse id="Oval" fill="#BC4443" cx="102.24" cy="62.8077626" rx="11.88" ry="5.04383562"></ellipse>
                                <ellipse id="Oval" fill="#F8B947" cx="80.4" cy="134.742466" rx="5.4" ry="5.40410959"></ellipse>
                                <ellipse id="Oval" fill="#F8B947" cx="80.4" cy="162.36347" rx="5.4" ry="5.40410959"></ellipse>
                                <ellipse id="Oval" fill="#F8B947" cx="80.4" cy="190.104566" rx="5.4" ry="5.40410959"></ellipse>
                                <ellipse id="Oval" fill="#F8B947" cx="80.4" cy="217.725571" rx="5.4" ry="5.40410959"></ellipse>
                                <ellipse id="Oval" fill="#F8B947" cx="122.64" cy="134.742466" rx="5.4" ry="5.40410959"></ellipse>
                                <path d="M122.64,156.959361 C125.52,156.959361 128.04,159.361187 128.04,162.36347 C128.04,165.245662 125.64,167.76758 122.64,167.76758 C119.64,167.76758 117.24,165.365753 117.24,162.36347 C117.36,159.481279 119.76,156.959361 122.64,156.959361 L122.64,156.959361 L122.64,156.959361 Z" id="Shape" fill="#E9AF3F"></path>
                                <path d="M4.92,195.148402 C5.52,197.310046 6.36,199.591781 7.2,201.633333 L27.84,190.705023 C27.12,188.543379 26.4,186.261644 25.8,184.1 L4.92,195.148402 L4.92,195.148402 L4.92,195.148402 Z" id="Shape" fill="#2A2934"></path>
                                <path d="M198.12,194.427854 C197.52,196.589498 196.68,198.871233 195.84,200.912785 L175.2,189.984475 C175.92,187.822831 176.64,185.541096 177.24,183.379452 L198.12,194.427854 L198.12,194.427854 Z" id="Shape" fill="#2A2934"></path>
                                <ellipse id="Oval" fill="#F8B947" cx="122.64" cy="190.104566" rx="5.4" ry="5.40410959"></ellipse>
                                <ellipse id="Oval" fill="#F8B947" cx="122.64" cy="217.725571" rx="5.4" ry="5.40410959"></ellipse>
                            </g>
                        </g>
                    </g>
                </g>
            </g>
        </g>
    </g>
</svg>