<?xml version="1.0" encoding="UTF-8" standalone="no"?>
<svg width="80px" height="80px" viewBox="0 0 80 80" version="1.1" xmlns="http://www.w3.org/2000/svg" xmlns:xlink="http://www.w3.org/1999/xlink">
    <!-- Generator: Sketch 40.3 (33839) - http://www.bohemiancoding.com/sketch -->
    <title>0.2-QR logo </title>
    <desc>Created with Sketch.</desc>
    <defs>
        <rect id="path-1" x="0" y="0" width="80" height="80" rx="4"></rect>
        <rect id="path-3" x="0" y="0" width="80" height="80"></rect>
        <rect id="path-5" x="0" y="0" width="80" height="80"></rect>
        <rect id="path-7" x="0" y="0" width="80" height="80"></rect>
    </defs>
    <g id="main.v3" stroke="none" stroke-width="1" fill="none" fill-rule="evenodd">
        <g id="main" transform="translate(-390.000000, -147.000000)">
            <g id="0.2-QR-logo-" transform="translate(390.000000, 147.000000)">
                <mask id="mask-2" fill="white">
                    <use xlink:href="#path-1"></use>
                </mask>
                <use id="Mask" fill="#D8D8D8" xlink:href="#path-1"></use>
                <g id="Layer_1" mask="url(#mask-2)">
                    <g id="Group">
                        <rect id="Rectangle-path" fill="#D8362E" x="-4" y="-4" width="88" height="88"></rect>
                        <polygon id="Shape" fill="#9E2121" points="0 0 0 4.91761755 0.0307375643 6.30520376 0.528301887 6.10231975 0.528301887 0.942946708 0.474785592 0"></polygon>
                        <g transform="translate(11.786834, 29.843260)" id="Shape" fill="#FFFFFF">
                            <path d="M15.8495298,0.122884013 C24.8213166,0.122884013 31.6366144,6.98106583 31.6366144,15.4354859 C31.6366144,21.2586834 28.4446395,25.5287774 25.5117241,27.685768 C26.5469592,28.5482132 27.5388088,29.2815047 28.6171787,29.9716614 C31.2915361,31.5245141 33.7502194,32.2146708 36.1226332,32.2146708 C37.2441379,32.2146708 38.4087774,32.1281505 39.5302821,31.8264577 L39.5302821,36.4416301 C38.3656426,36.7435737 36.5539812,37.088652 34.6131661,37.088652 C30.6878997,37.088652 27.1077116,35.7083386 23.8294671,33.3790596 C22.578558,32.4734796 20.9825705,31.1363009 19.8610658,30.1010658 C18.9121003,30.489279 17.488652,30.7912226 15.8495298,30.7912226 C6.96376176,30.7912226 0.148714734,23.8896552 0.148714734,15.4354859 C0.148714734,6.98106583 6.96376176,0.122884013 15.8495298,0.122884013 L15.8495298,0.122884013 Z M15.8495298,25.4425078 C21.0688401,25.4425078 25.3389342,20.956489 25.3389342,15.4354859 C25.3389342,9.91448276 21.0685893,5.42846395 15.8495298,5.42846395 C10.6733542,5.42846395 6.4461442,9.91448276 6.4461442,15.4354859 C6.4461442,20.956489 10.6733542,25.4425078 15.8495298,25.4425078 L15.8495298,25.4425078 Z"></path>
                            <path d="M39.4008777,22.5958621 C39.4008777,25.5287774 39.4440125,28.8932915 39.5734169,30.2304702 L32.9740439,30.2304702 C33.1034483,28.8932915 33.1897179,25.5287774 33.1897179,22.5958621 L33.1897179,8.40476489 C33.1897179,5.47159875 33.1031975,1.97768025 32.9740439,0.683636364 L41.8164263,0.683636364 C48.8905329,0.683636364 52.7726646,4.56551724 52.7726646,9.91423197 C52.7726646,14.57279 50.0551724,16.944953 46.9494671,17.9370533 C50.3139812,21.7329154 53.5488401,26.8228213 57.2584326,30.2304702 L49.1062069,30.2304702 C47.2082759,27.9011912 43.4555486,22.5958621 41.6438871,18.9294044 C41.3419436,18.9725392 41.0831348,18.9725392 40.824326,18.9725392 L39.4008777,18.9725392 L39.4008777,22.5958621 L39.4008777,22.5958621 Z M39.4008777,14.529906 L41.7730408,14.529906 C44.5768025,14.529906 46.5178683,12.6751097 46.5178683,10.0870219 C46.5178683,7.75774295 44.8356113,5.60100313 41.5144828,5.60100313 L39.4008777,5.60100313 L39.4008777,14.529906 L39.4008777,14.529906 Z"></path>
                        </g>
                        <g id="Clipped">
                            <g>
                                <mask id="mask-4" fill="white">
                                    <use xlink:href="#path-3"></use>
                                </mask>
                                <g id="SVGID_1_"></g>
                                <path d="M43.37279,0 L0.370909091,0 C0.307210031,0 0.241003135,0.794984326 0.195862069,1.3123511 C-1.53755486,21.0189342 9.55736677,38.7809404 26.5680251,46.5790596 C26.335047,43.3399373 26.3551097,40.2089028 26.6505329,36.8682132 C27.9225078,22.4180564 34.0915361,9.27899687 43.37279,0" id="Shape" fill="#9E2121" mask="url(#mask-4)"></path>
                            </g>
                            <g>
                                <mask id="mask-6" fill="white">
                                    <use xlink:href="#path-5"></use>
                                </mask>
                                <g id="SVGID_1_"></g>
                                <path d="M3.59272727,0 C0.564263323,18.8087774 10.2477743,37.6356113 26.5168652,46.6367398 C26.5296552,43.3883386 26.7992476,40.2134169 27.3434483,36.9040752 C29.8201881,21.8653292 37.5548589,8.77742947 48.3538558,0 L3.59272727,0 L3.59272727,0 Z" id="Shape" fill="#B52525" mask="url(#mask-6)"></path>
                            </g>
                            <g>
                                <mask id="mask-8" fill="white">
                                    <use xlink:href="#path-7"></use>
                                </mask>
                                <g id="SVGID_1_"></g>
                                <path d="M26.5469592,46.4757367 C26.8077743,43.2378683 27.3251411,40.0890282 28.1186207,36.833605 C31.9731661,21.0219436 41.6132915,8.02507837 54.2372414,0 L6.88551724,0 C3.29178683,18.30721 11.4871473,36.584326 26.5469592,46.4757367 Z" id="Shape" fill="#48A1C7" mask="url(#mask-8)"></path>
                            </g>
                        </g>
                    </g>
                </g>
            </g>
        </g>
    </g>
</svg>