<?xml version="1.0" encoding="UTF-8" standalone="no"?>
<svg width="190px" height="49px" viewBox="0 0 190 49" version="1.1" xmlns="http://www.w3.org/2000/svg" xmlns:xlink="http://www.w3.org/1999/xlink">
    <!-- Generator: Sketch 40.3 (33839) - http://www.bohemiancoding.com/sketch -->
    <title>0.3 QR logo horisontal</title>
    <desc>Created with Sketch.</desc>
    <defs></defs>
    <g id="main.v3" stroke="none" stroke-width="1" fill="none" fill-rule="evenodd">
        <g id="main" transform="translate(-390.000000, -2498.000000)">
            <g id="0.3-QR-logo-horisontal" transform="translate(390.000000, 2498.000000)">
                <g id="Layer_1">
                    <g id="Group">
                        <rect id="Rectangle-path" fill="#D8352E" x="0.04" y="0" width="49.2" height="49"></rect>
                        <polygon id="Shape" fill="#9E2121" points="0.04 3.86422764 0.04 3.02764228 0.04 0 0.28 0 0.32 0.597560976 0.32 3.74471545"></polygon>
                        <rect id="Rectangle-path" x="6.2" y="17.4089431" width="38.08" height="27.3682927"></rect>
                        <g transform="translate(7.200000, 18.325203)" id="Shape" fill="#FFFFFF">
                            <path d="M9.8,0.0398373984 C15.32,0.0398373984 19.52,4.22276423 19.52,9.40162602 C19.52,12.9869919 17.56,15.5764228 15.76,16.8910569 C16.4,17.4089431 17,17.8869919 17.68,18.2853659 C19.32,19.2414634 20.84,19.6398374 22.28,19.6398374 C22.96,19.6398374 23.68,19.6 24.36,19.400813 L24.36,22.2292683 C23.64,22.4284553 22.52,22.6276423 21.32,22.6276423 C18.92,22.6276423 16.72,21.7910569 14.68,20.3569106 C13.92,19.799187 12.92,19.002439 12.24,18.3650407 C11.64,18.604065 10.8,18.803252 9.76,18.803252 C4.28,18.803252 0.12,14.5804878 0.12,9.40162602 C0.16,4.22276423 4.36,0.0398373984 9.8,0.0398373984 L9.8,0.0398373984 Z M9.8,15.5365854 C13,15.5365854 15.64,12.7878049 15.64,9.40162602 C15.64,6.01544715 13,3.26666667 9.8,3.26666667 C6.6,3.26666667 4,6.01544715 4,9.40162602 C4,12.7878049 6.64,15.5365854 9.8,15.5365854 L9.8,15.5365854 Z"></path>
                            <path d="M24.28,13.7837398 C24.28,15.5764228 24.32,17.6479675 24.4,18.4447154 L20.32,18.4447154 C20.4,17.6081301 20.44,15.5764228 20.44,13.7837398 L20.44,5.09918699 C20.44,3.30650407 20.4,1.15528455 20.32,0.358536585 L25.76,0.358536585 C30.12,0.358536585 32.48,2.74878049 32.48,6.01544715 C32.48,8.88373984 30.8,10.3178862 28.88,10.9154472 C30.96,13.2260163 32.92,16.3731707 35.2,18.4447154 L30.24,18.4447154 C29.08,17.0504065 26.8,13.7837398 25.68,11.5528455 C25.48,11.5926829 25.32,11.5926829 25.16,11.5926829 L24.28,11.5926829 L24.28,13.7837398 L24.28,13.7837398 Z M24.28,8.84390244 L25.72,8.84390244 C27.44,8.84390244 28.64,7.68861789 28.64,6.13495935 C28.64,4.70081301 27.6,3.38617886 25.56,3.38617886 L24.28,3.38617886 L24.28,8.84390244 L24.28,8.84390244 Z"></path>
                        </g>
                        <path d="M26.68,0 L0.24,0 C0.2,0 0.16,0.47804878 0.12,0.796747967 C-0.96,12.8674797 5.88,23.7430894 16.32,28.5235772 C16.16,26.5317073 16.2,24.6195122 16.36,22.5878049 C17.2,13.7439024 21,5.69674797 26.68,0 L26.68,0 Z" id="Shape" fill="#9E2121"></path>
                        <path d="M2.24,0 C0.36,11.5130081 6.32,23.0658537 16.32,28.5634146 C16.32,26.5715447 16.48,24.6195122 16.84,22.5878049 C18.36,13.3853659 23.12,5.37804878 29.76,0 L2.24,0 L2.24,0 Z" id="Shape" fill="#B52525"></path>
                        <path d="M4.24,0 C2.04,11.1943089 7.08,22.3886179 16.32,28.4837398 C16.48,26.4918699 16.8,24.5796748 17.28,22.5878049 C19.64,12.9073171 25.56,4.9398374 33.36,0.0398373984 L4.24,0.0398373984 L4.24,0 L4.24,0 Z" id="Shape" fill="#48A1C7"></path>
                        <g transform="translate(57.200000, 13.146341)" id="Shape" fill="#000000">
                            <path d="M10.44,0.995934959 C16.2,0.995934959 20.6,5.41788618 20.6,10.795935 C20.6,14.5406504 18.56,17.2495935 16.64,18.604065 C17.32,19.1219512 17.96,19.6398374 18.64,20.0382114 C20.36,21.0341463 21.96,21.4723577 23.48,21.4723577 C24.2,21.4723577 24.92,21.3926829 25.64,21.1934959 L25.64,24.1414634 C24.92,24.3406504 23.72,24.5398374 22.48,24.5398374 C19.96,24.5398374 17.64,23.703252 15.56,22.1894309 C14.76,21.5918699 13.72,20.7552846 13,20.0780488 C12.4,20.3569106 11.48,20.5560976 10.44,20.5560976 C4.68,20.5560976 0.32,16.1341463 0.32,10.6764228 C0.32,5.21869919 4.72,0.995934959 10.44,0.995934959 L10.44,0.995934959 Z M10.44,17.2495935 C13.8,17.2495935 16.52,14.3414634 16.52,10.8756098 C16.52,7.4097561 13.76,4.50162602 10.44,4.50162602 C7.12,4.50162602 4.36,7.4097561 4.36,10.8756098 C4.36,14.3414634 7.08,17.2495935 10.44,17.2495935 L10.44,17.2495935 Z"></path>
                            <path d="M28.56,17.5284553 C29.6,17.5284553 30.72,16.7317073 30.72,14.7796748 L30.72,10.2780488 C30.72,9.56097561 30.72,8.28617886 30.6,7.52926829 L34.64,7.52926829 C34.56,8.32601626 34.52,9.56097561 34.52,10.2780488 L34.52,17.4487805 C34.52,18.8430894 34.64,19.6796748 35,20.3569106 L31.32,20.3569106 C31.12,20.0382114 31,19.3609756 30.92,18.6439024 C30,20.0382114 28.8,20.5560976 27.16,20.5560976 C24.52,20.5560976 22.6,18.7235772 22.6,15.2178862 L22.6,9.6804878 L21.2,9.6804878 C21.52,9.16260163 21.92,8.16666667 22.12,7.52926829 L26.48,7.52926829 C26.4,8.32601626 26.36,9.56097561 26.36,10.2780488 L26.36,14.7398374 C26.36,16.8512195 27.56,17.5284553 28.56,17.5284553 L28.56,17.5284553 Z"></path>
                            <path d="M40.96,17.4487805 C40.96,18.4845528 40.96,19.7593496 41.04,20.2772358 L37,20.2772358 C37.08,19.6796748 37.12,18.4447154 37.12,17.4487805 L37.12,9.60081301 L35.72,9.60081301 C36.04,9.08292683 36.44,8.08699187 36.64,7.4495935 L41,7.4495935 C40.92,8.04715447 40.92,9.24227642 40.92,10.198374 C40.96,10.198374 40.96,17.4487805 40.96,17.4487805 L40.96,17.4487805 Z M39.04,1.39430894 C40.24,1.39430894 41.16,2.31056911 41.16,3.50569106 C41.16,4.70081301 40.24,5.61707317 39.04,5.61707317 C37.84,5.61707317 36.92,4.70081301 36.92,3.50569106 C36.92,2.3902439 37.84,1.39430894 39.04,1.39430894 L39.04,1.39430894 Z"></path>
                            <path d="M49.52,17.2495935 C50.92,17.2495935 51.68,16.7317073 52.28,16.1341463 L52.28,20.197561 C51.28,20.3170732 50.76,20.5162602 49.36,20.5162602 C45.28,20.5162602 42.36,17.5682927 42.36,13.9430894 C42.36,10.2780488 45.32,7.2504065 49.36,7.2504065 C50.4,7.2504065 51.36,7.52926829 52.12,7.56910569 L52.12,11.5926829 C51.44,10.995122 50.72,10.5569106 49.4,10.5569106 C47.56,10.5569106 46.08,12.1504065 46.08,13.9829268 C46.24,15.7357724 47.68,17.2495935 49.52,17.2495935 L49.52,17.2495935 Z"></path>
                            <path d="M57.92,12.9869919 C60.96,8.92357724 61.36,8.32601626 61.8,7.4495935 L65.84,7.4495935 C65.04,8.36585366 64.32,9.24227642 61.36,13.3056911 C65.2,18.0463415 65.84,18.8430894 67.32,20.2772358 L62.48,20.2772358 C62.08,19.6796748 61.28,18.7634146 57.92,14.7 L57.92,17.5284553 C57.92,18.5243902 58,19.6796748 58.04,20.2772358 L54,20.2772358 C54.08,19.6796748 54.12,18.3650407 54.12,17.5284553 L54.12,2.19105691 L52.72,2.19105691 C53,1.67317073 53.44,0.597560976 53.56,0.0398373984 L58,0.0398373984 C57.92,0.717073171 57.88,1.95203252 57.88,2.78861789 C57.92,2.78861789 57.92,12.9869919 57.92,12.9869919 L57.92,12.9869919 Z"></path>
                            <path d="M76.88,15.4170732 C76.88,17.3292683 76.88,19.4406504 77,20.2772358 L72.8,20.2772358 C72.88,19.4406504 72.92,17.2495935 72.92,15.4170732 L72.92,6.33414634 C72.92,4.42195122 72.84,2.19105691 72.8,1.39430894 L78.48,1.39430894 C83.04,1.39430894 85.56,3.90406504 85.56,7.3300813 C85.56,10.2780488 83.84,11.7918699 81.8,12.4691057 C83.96,14.899187 86.04,18.2056911 88.4,20.3569106 L83.2,20.3569106 C82,18.8430894 79.56,15.496748 78.36,13.1065041 L77.84,13.1065041 L76.92,13.1065041 C76.88,13.1065041 76.88,15.4170732 76.88,15.4170732 L76.88,15.4170732 Z M76.88,10.198374 L78.4,10.198374 C80.2,10.198374 81.44,9.00325203 81.44,7.3699187 C81.44,5.85609756 80.4,4.46178862 78.2,4.46178862 L76.8,4.46178862 L76.8,10.198374 L76.88,10.198374 L76.88,10.198374 Z"></path>
                            <path d="M91.2,14.6203252 C91.52,16.2536585 92.84,17.5682927 94.84,17.5682927 C96.28,17.5682927 97.28,17.3691057 98.32,16.7317073 L98.32,19.9585366 C97.4,20.0382114 96.32,20.5560976 94.24,20.5560976 C90.28,20.5560976 87.36,17.6479675 87.36,13.9829268 C87.36,10.2382114 90.08,7.3300813 93.64,7.3300813 C97.48,7.3300813 99.8,10.6365854 99.8,13.704065 C99.8,14.0227642 99.8,14.500813 99.72,14.7 L91.2,14.7 L91.2,14.6203252 L91.2,14.6203252 Z M91.12,12.0707317 L95.76,12.0707317 C95.56,11.0349593 94.92,10.0390244 93.52,10.0390244 C92.32,9.99918699 91.52,10.795935 91.12,12.0707317 L91.12,12.0707317 Z"></path>
                            <path d="M109.28,16.5723577 C109.28,18.9227642 107.64,20.595935 104.4,20.595935 C102.8,20.595935 101.08,19.9186992 100.32,19.8788618 L100.32,16.0544715 C101.04,16.9707317 103.04,17.8471545 104.16,17.8471545 C104.96,17.8471545 105.4,17.4487805 105.4,16.8512195 C105.4,15.2178862 100.52,15.0585366 100.52,11.1146341 C100.52,8.68455285 102.24,7.2504065 105.4,7.2504065 C106.8,7.2504065 107.96,7.72845528 108.64,7.76829268 L108.64,11.2341463 C108.04,10.397561 106.4,9.9195122 105.6,9.9195122 C104.68,9.9195122 104.36,10.397561 104.36,10.9154472 C104.4,12.3894309 109.28,12.5089431 109.28,16.5723577 L109.28,16.5723577 Z"></path>
                            <path d="M115.36,4.02357724 C115.28,4.70081301 115.28,5.61707317 115.28,6.53333333 L115.28,7.4495935 L118.72,7.4495935 L118.72,10.5569106 L115.28,10.5569106 L115.28,14.8195122 C115.28,16.6520325 116.08,17.3292683 117.2,17.3292683 C117.6,17.3292683 118.2,17.2495935 118.4,17.0504065 L118.4,20.3569106 C117.88,20.3569106 117.16,20.5560976 116.16,20.5560976 C113.72,20.5560976 111.52,19.1219512 111.52,15.6162602 L111.52,10.596748 L109.68,10.596748 L109.68,7.48943089 L111.52,7.48943089 L111.52,6.57317073 C111.52,5.65691057 111.52,4.74065041 111.44,4.06341463 L115.32,4.06341463 L115.32,4.02357724 L115.36,4.02357724 Z"></path>
                            <path d="M125.88,7.2504065 C129.64,7.2504065 132.68,10.198374 132.68,13.903252 C132.68,17.5284553 129.56,20.4764228 125.88,20.4764228 C122.12,20.4764228 119.08,17.5284553 119.08,13.903252 C119.08,10.198374 122.12,7.2504065 125.88,7.2504065 L125.88,7.2504065 Z M125.88,17.1699187 C127.6,17.1699187 129.04,15.7357724 129.04,13.8634146 C129.04,11.9512195 127.6,10.5170732 125.88,10.5170732 C124.08,10.5170732 122.72,12.0308943 122.72,13.8634146 C122.72,15.7357724 124.08,17.1699187 125.88,17.1699187 L125.88,17.1699187 Z"></path>
                        </g>
                    </g>
                </g>
            </g>
        </g>
    </g>
</svg>