<?xml version="1.0" encoding="UTF-8"?>
<svg width="64px" height="18px" viewBox="0 0 64 18" version="1.1" xmlns="http://www.w3.org/2000/svg" xmlns:xlink="http://www.w3.org/1999/xlink">
    <!-- Generator: Sketch 40 (33762) - http://www.bohemiancoding.com/sketch -->
    <title>Group 3</title>
    <desc>Created with Sketch.</desc>
    <defs></defs>
    <g id="main" stroke="none" stroke-width="1" fill="none" fill-rule="evenodd">
        <g transform="translate(-15.000000, -9.000000)" id="0.1-RBC-topline">
            <g>
                <g id="Group-3" transform="translate(15.000000, 9.000000)">
                    <path d="M28.928,0.0642857143 L21.952,0.0642857143 L21.952,17.9035714 L25.184,17.9035714 L25.184,11.7321429 L28.864,11.7321429 C32.096,11.7321429 33.952,9.93214286 33.952,6.75 L33.952,4.85357143 C33.984,1.73571429 32.256,0.0642857143 28.928,0.0642857143 L28.928,0.0642857143 Z M25.184,3.02142857 L28.64,3.02142857 C30.464,3.02142857 30.72,3.92142857 30.72,4.69285714 L30.72,6.65357143 C30.72,8.13214286 30.144,8.80714286 28.864,8.80714286 L25.184,8.80714286 L25.184,3.02142857 L25.184,3.02142857 Z" id="Shape" fill="#FFFFFF"></path>
                    <path d="M42.912,7.16785714 L39.232,7.16785714 L39.232,3.02142857 L47.168,3.02142857 L47.168,0.0642857143 L36,0.0642857143 L36,17.9035714 L42.976,17.9035714 C46.272,17.9035714 48.032,16.2642857 48.032,13.1142857 L48.032,12.1178571 C48,9 46.144,7.16785714 42.912,7.16785714 L42.912,7.16785714 Z M39.2,10.125 L42.88,10.125 C44.16,10.125 44.736,10.8 44.736,12.2785714 L44.736,13.3071429 C44.736,14.0785714 44.512,14.9785714 42.656,14.9785714 L39.2,14.9785714 L39.2,10.125 L39.2,10.125 Z" id="Shape" fill="#FFFFFF"></path>
                    <polygon id="Shape" fill="#FFFFFF" points="57.696 7.10357143 63.392 0.0642857143 59.52 0.0642857143 53.024 8.13214286 53.024 0.0642857143 49.856 0.0642857143 49.856 17.9357143 53.024 17.9357143 53.024 12.5357143 55.552 9.64285714 60.096 17.9357143 63.712 17.9357143"></polygon>
                    <polygon id="Shape" fill="#6ECB98" points="16.48 0.0321428571 0 0.0321428571 0 16.5857143"></polygon>
                    <polygon id="Shape" fill="#007481" points="1.376 17.9678571 17.856 17.9678571 17.856 1.41428571"></polygon>
                </g>
            </g>
        </g>
    </g>
</svg>