<?xml version="1.0" encoding="UTF-8"?>
<svg width="21px" height="17px" viewBox="0 0 21 17" version="1.1" xmlns="http://www.w3.org/2000/svg" xmlns:xlink="http://www.w3.org/1999/xlink">
    <!-- Generator: Sketch 40 (33762) - http://www.bohemiancoding.com/sketch -->
    <title>path22</title>
    <desc>Created with Sketch.</desc>
    <defs></defs>
    <g id="main" stroke="none" stroke-width="1" fill="none" fill-rule="evenodd">
        <g transform="translate(-982.000000, -2515.000000)" id="0.6-twitter" fill="#000000">
            <g transform="translate(970.000000, 2500.000000)">
                <g id="twitter" transform="translate(5.000000, 5.000000)">
                    <g id="g16" transform="translate(18.001251, 18.650512) scale(1, -1) translate(-18.001251, -18.650512) translate(7.501251, 10.150512)">
                        <path d="M20.2673798,14.9279917 C19.5246317,14.6021903 18.7258857,14.3819907 17.8878378,14.2827854 C18.7431727,14.7898813 19.3999292,15.5924607 19.7093214,16.5486014 C18.9088024,16.0790817 18.0222919,15.7385156 17.0780104,15.5549429 C16.3225556,16.3507168 15.2455931,16.8481302 14.0538274,16.8481302 C11.7653004,16.8481302 9.91042484,15.0145936 9.91042484,12.7527207 C9.91042484,12.4316072 9.94672744,12.1189348 10.0176631,11.8193769 C6.57386508,11.989952 3.52072276,13.6209306 1.47702044,16.0985051 C1.12033292,15.493898 0.916021789,14.7904655 0.916021789,14.0397743 C0.916021789,12.6186849 1.64723046,11.3653374 2.75937272,10.6306084 C2.08017267,10.6515944 1.44116109,10.8359119 0.88248214,11.1428888 C0.881846808,11.125656 0.881846808,11.1085985 0.881846808,11.0914826 C0.881846808,9.10679423 2.3103108,7.45186501 4.20567036,7.07537299 C3.85827642,6.98176113 3.49231009,6.93225345 3.11437587,6.93225345 C2.84710772,6.93225345 2.58796591,6.95724096 2.33452732,7.00527363 C2.86216362,5.37823811 4.3921183,4.19399693 6.20562338,4.16084578 C4.78634954,3.06218424 3.00000124,2.40777744 1.05854314,2.40777744 C0.724313883,2.40777744 0.394236456,2.42723002 0.0698179208,2.46487922 C1.90430375,1.30286538 4.08201691,0.625062917 6.42225701,0.625062917 C14.0435882,0.625062917 18.2107788,6.86551301 18.2107788,12.2780604 C18.2107788,12.4555432 18.2066417,12.6318139 18.1991064,12.8074566 C19.0083428,13.3853529 19.7107546,14.1064855 20.2665967,14.9279625" id="path22"></path>
                    </g>
                </g>
            </g>
        </g>
    </g>
</svg>