<?xml version="1.0" encoding="UTF-8" standalone="no"?>
<svg width="36px" height="34px" viewBox="0 0 36 34" version="1.1" xmlns="http://www.w3.org/2000/svg" xmlns:xlink="http://www.w3.org/1999/xlink">
    <!-- Generator: Sketch 40.3 (33839) - http://www.bohemiancoding.com/sketch -->
    <title>0.4-twitter</title>
    <desc>Created with Sketch.</desc>
    <defs>
        <polygon id="path-1" points="3.93310373 5.55642023 23.3061671 5.55642023 23.3061671 20.7970941 3.93310373 20.7970941"></polygon>
    </defs>
    <g id="mobile" stroke="none" stroke-width="1" fill="none" fill-rule="evenodd">
        <g id="article-1" transform="translate(-143.000000, -538.000000)">
            <g id="0.4-twitter" transform="translate(143.521505, 538.000000)">
                <ellipse id="Oval-Copy" fill="#DEE0DF" cx="17.358871" cy="17" rx="17.358871" ry="17"></ellipse>
                <g id="twitter" transform="translate(3.857527, 3.777778)">
                    <mask id="mask-2" fill="white">
                        <use xlink:href="#path-1"></use>
                    </mask>
                    <g id="path18" transform="translate(13.619635, 13.176757) scale(1, -1) translate(-13.619635, -13.176757) "></g>
                    <g id="g16" mask="url(#mask-2)" fill="#000000">
                        <g transform="translate(13.787256, 14.013720) scale(1, -1) translate(-13.787256, -14.013720) translate(5.787256, 7.513720)" id="path22">
                            <path d="M15.6363925,11.2789271 C15.0633584,11.032766 14.4471215,10.8663929 13.800563,10.7914379 C14.4604585,11.174577 14.9671497,11.7809703 15.2058474,12.5033878 C14.5882427,12.1486395 13.9042951,11.8913229 13.1757768,11.7526235 C12.5929394,12.3538749 11.762057,12.7296984 10.8426034,12.7296984 C9.07699252,12.7296984 7.64594604,11.3443596 7.64594604,9.63538899 C7.64594604,9.39276989 7.6739537,9.15652853 7.72868091,8.93019585 C5.07177226,9.05907483 2.71625654,10.2913698 1.13952921,12.163315 C0.864342871,11.7065007 0.706715735,11.1750184 0.706715735,10.6078295 C0.706715735,9.53411747 1.27084716,8.58714383 2.12887089,8.03201526 C1.6048644,8.04787134 1.11186353,8.18713347 0.680839716,8.41907151 C0.680349553,8.4060512 0.680349553,8.3931633 0.680349553,8.38023127 C0.680349553,6.88068897 1.78241721,5.63029801 3.24469729,5.34583737 C2.976681,5.27510841 2.69433601,5.23770261 2.40275773,5.23770261 C2.19655891,5.23770261 1.99662961,5.25658206 1.80110038,5.29287341 C2.20817462,4.06355769 3.38854288,3.16879768 4.7876718,3.14375014 C3.6926944,2.31365031 2.31451708,1.81920962 0.81667172,1.81920962 C0.558812055,1.81920962 0.304155545,1.83390712 0.0538649013,1.86235319 C1.46918058,0.984387175 3.14929799,0.472269759 4.95480581,0.472269759 C10.8347038,0.472269759 14.0497137,5.1872765 14.0497137,9.27675673 C14.0497137,9.41085487 14.046522,9.54403718 14.0407084,9.67674502 C14.6650386,10.1133777 15.2069532,10.6582335 15.6357883,11.278905"></path>
                        </g>
                    </g>
                </g>
            </g>
        </g>
    </g>
</svg>