<?xml version="1.0" encoding="UTF-8"?>
<svg width="23px" height="13px" viewBox="0 0 23 13" version="1.1" xmlns="http://www.w3.org/2000/svg" xmlns:xlink="http://www.w3.org/1999/xlink">
    <!-- Generator: Sketch 40 (33762) - http://www.bohemiancoding.com/sketch -->
    <title>path2442</title>
    <desc>Created with Sketch.</desc>
    <defs></defs>
    <g id="main" stroke="none" stroke-width="1" fill="none" fill-rule="evenodd">
        <g transform="translate(-915.000000, -2516.000000)" id="0.5-vk" fill="#000000">
            <g transform="translate(905.000000, 2500.000000)">
                <g id="vk" transform="translate(5.000000, 5.000000)">
                    <path d="M16.2401319,23.5534484 L17.5198772,23.5534484 C17.5198772,23.5534484 17.9063493,23.5108698 18.1039579,23.2983522 C18.2855833,23.1030168 18.2797778,22.7364619 18.2797778,22.7364619 C18.2797778,22.7364619 18.2547468,21.0200441 19.0515908,20.7672838 C19.8374273,20.5181409 20.8462803,22.4261259 21.9155245,23.159839 C22.7241304,23.7148714 23.338595,23.5933898 23.338595,23.5933898 L26.1979297,23.5534484 C26.1979297,23.5534484 27.6936047,23.4612068 26.9843691,22.2857289 C26.9263154,22.1897191 26.5712075,21.4162158 24.8583211,19.8270068 C23.0652902,18.1636426 23.3056477,18.432756 25.4653219,15.5555554 C26.7805779,13.8033413 27.3063035,12.7336697 27.1420189,12.2755514 C26.9854999,11.8390614 26.0180385,11.9543636 26.0180385,11.9543636 L22.7986954,11.9742589 C22.7986954,11.9742589 22.5598458,11.9417784 22.3829703,12.0475847 C22.2099397,12.1510551 22.0988839,12.3928126 22.0988839,12.3928126 C22.0988839,12.3928126 21.589142,13.7486292 20.9098379,14.9018759 C19.4762877,17.3349752 18.9029884,17.4637668 18.6686625,17.3124423 C18.1234851,16.9602812 18.2597228,15.8979949 18.2597228,15.1431058 C18.2597228,12.7850657 18.6175451,11.8019084 17.5629275,11.5474152 C17.2130217,11.463011 16.9552482,11.4071686 16.0602406,11.39805 C14.9114553,11.3863691 13.9393945,11.4015919 13.3888643,11.6711574 C13.0225982,11.850441 12.7400197,12.2498533 12.9122206,12.2728383 C13.1250592,12.301174 13.6068298,12.4028359 13.8622661,12.7502492 C14.1922676,13.1990228 14.1807324,14.2064462 14.1807324,14.2064462 C14.1807324,14.2064462 14.3703492,16.9822111 13.7380159,17.3269116 C13.3041211,17.5633937 12.7088065,17.0806324 11.4307197,14.8731633 C10.7759944,13.7424495 10.281482,12.4924399 10.281482,12.4924399 C10.281482,12.4924399 10.1862587,12.2588967 10.016169,12.1338729 C9.80988992,11.9823976 9.52165692,11.934393 9.52165692,11.934393 L6.46230191,11.9543636 C6.46230191,11.9543636 6.00314847,11.9671749 5.83441574,12.1668056 C5.68430544,12.3445064 5.82242912,12.711589 5.82242912,12.711589 C5.82242912,12.711589 8.21740949,18.3125556 10.9294975,21.1351198 C13.4165342,23.7233118 16.2401319,23.5534484 16.2401319,23.5534484" id="path2442"></path>
                </g>
            </g>
        </g>
    </g>
</svg>