<?xml version="1.0" encoding="UTF-8" standalone="no"?>
<svg width="36px" height="34px" viewBox="0 0 36 34" version="1.1" xmlns="http://www.w3.org/2000/svg" xmlns:xlink="http://www.w3.org/1999/xlink">
    <!-- Generator: Sketch 40.3 (33839) - http://www.bohemiancoding.com/sketch -->
    <title>0.3-vk</title>
    <desc>Created with Sketch.</desc>
    <defs></defs>
    <g id="mobile" stroke="none" stroke-width="1" fill="none" fill-rule="evenodd">
        <g id="article-1" transform="translate(-86.000000, -538.000000)">
            <g id="0.3-vk" transform="translate(86.760753, 538.000000)">
                <ellipse id="Oval-Copy" fill="#DEE0DF" cx="17.358871" cy="17" rx="17.358871" ry="17"></ellipse>
                <g id="vk" transform="translate(3.857527, 3.777778)" fill="#000000">
                    <path d="M12.5293491,17.7959388 L13.5166794,17.7959388 C13.5166794,17.7959388 13.8148447,17.7637683 13.9673009,17.6031995 C14.1074258,17.4556127 14.1029469,17.1786601 14.1029469,17.1786601 C14.1029469,17.1786601 14.0836353,15.8818111 14.6984048,15.6908366 C15.3046818,15.5025954 16.0830173,16.944184 16.907945,17.498545 C17.5317888,17.9179028 18.0058515,17.8261168 18.0058515,17.8261168 L20.2118436,17.7959388 C20.2118436,17.7959388 21.3657649,17.7262452 20.8185858,16.8381063 C20.7737971,16.7655655 20.4998294,16.1811408 19.1783284,14.9804051 C17.7949954,13.7236411 17.9804325,13.9269712 19.6466327,11.7530863 C20.6613598,10.4291912 21.06696,9.6209949 20.9402135,9.27486109 C20.8194583,8.94506862 20.0730566,9.03218581 20.0730566,9.03218581 L17.5893161,9.0472178 C17.5893161,9.0472178 17.4050423,9.02267699 17.2685819,9.10261954 C17.1350879,9.18079718 17.0494078,9.36345844 17.0494078,9.36345844 C17.0494078,9.36345844 16.6561391,10.3878532 16.1320524,11.2591951 C15.0260607,13.0975368 14.5837572,13.194846 14.4029735,13.080512 C13.9823662,12.8144347 14.0874743,12.0118184 14.0874743,11.4414577 C14.0874743,9.65982738 14.3635361,8.91699747 13.549893,8.72471368 C13.2799388,8.66094166 13.0810652,8.61874965 12.390562,8.61186002 C11.5042679,8.60303442 10.7543178,8.61453608 10.3295808,8.81820782 C10.0470045,8.95366656 9.82899371,9.25544472 9.96184761,9.27281116 C10.1260537,9.29422035 10.4977424,9.37103153 10.6948128,9.63352164 C10.9494108,9.97259502 10.9405113,10.7337594 10.9405113,10.7337594 C10.9405113,10.7337594 11.0868017,12.8310039 10.5989531,13.0914444 C10.2642009,13.2701197 9.80491251,12.9053667 8.81886168,11.2375012 C8.31373758,10.3831841 7.93221863,9.43873235 7.93221863,9.43873235 C7.93221863,9.43873235 7.85875336,9.26227749 7.7275282,9.16781511 C7.56838281,9.0533671 7.34600951,9.01709696 7.34600951,9.01709696 L4.98570067,9.03218581 C4.98570067,9.03218581 4.63146132,9.04186544 4.50128311,9.19269755 C4.38547221,9.3269604 4.49203537,9.60431169 4.49203537,9.60431169 C4.49203537,9.60431169 6.3397756,13.8361531 8.43216609,15.9687572 C10.3509282,17.92428 12.5293491,17.7959388 12.5293491,17.7959388" id="path2442"></path>
                </g>
            </g>
        </g>
    </g>
</svg>