<?xml version="1.0" encoding="utf-8"?>
<!-- Generator: Adobe Illustrator 18.0.0, SVG Export Plug-In . SVG Version: 6.00 Build 0)  -->
<!DOCTYPE svg PUBLIC "-//W3C//DTD SVG 1.1//EN" "http://www.w3.org/Graphics/SVG/1.1/DTD/svg11.dtd">
<svg version="1.1" id="Слой_1" xmlns="http://www.w3.org/2000/svg" xmlns:xlink="http://www.w3.org/1999/xlink" x="0px" y="0px"
	 viewBox="3.2 102 400 400" enable-background="new 3.2 102 400 400" xml:space="preserve">
<polygon fill="#C7C7C7" points="123,240.5 227.6,301.7 123,363 146.3,402.7 318.6,301.6 146.3,200.8 "/>
<g>
	<g>
		<g>
			<defs>
				<rect id="SVGID_1_" x="3.2" y="102" width="400" height="400"/>
			</defs>
			<clipPath id="SVGID_2_">
				<use xlink:href="#SVGID_1_"  overflow="visible"/>
			</clipPath>
			<path clip-path="url(#SVGID_2_)" fill="#C7C7C7" d="M312.1,410.8c-14.2,14.2-30.6,25.2-49,33c-19,8-39.1,12.1-59.9,12.1
				s-41-4.1-59.9-12.1c-18.3-7.8-34.8-18.8-49-33c-14.1-14.2-25.2-30.6-33-49c-8-19-12.1-39.1-12.1-59.9s4.1-41,12.1-59.9
				c7.8-18.3,18.9-34.8,33-49c14.2-14.1,30.6-25.2,49-33c19-8,39.1-12.1,59.9-12.1s41,4.1,59.9,12.1c18.3,7.8,34.8,18.9,49,33
				c14.1,14.2,25.2,30.6,33,49c8,19,12.1,39.1,12.1,59.9s-4.1,41-12.1,59.9C337.4,380.2,326.2,396.7,312.1,410.8 M203.2,102
				c-110.4,0-200,89.6-200,200s89.6,200,200,200s200-89.6,200-200S313.7,102,203.2,102"/>
		</g>
	</g>
</g>
</svg>
