<?xml version="1.0" encoding="utf-8"?>
<!-- Generator: Adobe Illustrator 18.0.0, SVG Export Plug-In . SVG Version: 6.00 Build 0)  -->
<!DOCTYPE svg PUBLIC "-//W3C//DTD SVG 1.1//EN" "http://www.w3.org/Graphics/SVG/1.1/DTD/svg11.dtd">
<svg version="1.1" id="Слой_1" xmlns="http://www.w3.org/2000/svg" xmlns:xlink="http://www.w3.org/1999/xlink" x="0px" y="0px"
	 viewBox="3.2 102 400 400" enable-background="new 3.2 102 400 400" xml:space="preserve">
<polygon points="141.8,382.1 203,277.6 264.3,382.1 304,358.8 202.9,186.5 102,358.9 "/>
<g>
	<g>
		<g>
			<defs>
				<rect id="SVGID_1_" x="3.2" y="102" width="400" height="400"/>
			</defs>
			<clipPath id="SVGID_2_">
				<use xlink:href="#SVGID_1_"  overflow="visible"/>
			</clipPath>
			<path clip-path="url(#SVGID_2_)" fill="#282828" d="M312.1,193.1c14.2,14.2,25.2,30.6,33,49c8,19,12.1,39.1,12.1,59.9
				s-4.1,41-12.1,59.9c-7.8,18.3-18.8,34.8-33,49c-14.2,14.1-30.6,25.2-49,33c-19,8-39.1,12.1-59.9,12.1s-41-4.1-59.9-12.1
				c-18.3-7.8-34.8-18.9-49-33c-14.1-14.2-25.2-30.6-33-49c-8-19-12.1-39.1-12.1-59.9s4.1-41,12.1-59.9c7.8-18.3,18.9-34.8,33-49
				c14.2-14.1,30.6-25.2,49-33c19-8,39.1-12.1,59.9-12.1s41,4.1,59.9,12.1C281.5,167.8,298,179,312.1,193.1 M3.2,302
				c0,110.4,89.6,200,200,200s200-89.6,200-200s-89.6-200-200-200S3.2,191.5,3.2,302"/>
		</g>
	</g>
</g>
</svg>
