<?xml version="1.0" encoding="utf-8"?>
<!-- Generator: Adobe Illustrator 18.0.0, SVG Export Plug-In . SVG Version: 6.00 Build 0)  -->
<!DOCTYPE svg PUBLIC "-//W3C//DTD SVG 1.1//EN" "http://www.w3.org/Graphics/SVG/1.1/DTD/svg11.dtd">
<svg version="1.1" id="Слой_1" xmlns="http://www.w3.org/2000/svg" xmlns:xlink="http://www.w3.org/1999/xlink" x="0px" y="0px"
	 viewBox="3.2 102 400 400" enable-background="new 3.2 102 400 400" xml:space="preserve">
<polygon points="283.4,363.4 178.9,302.2 283.4,240.9 260.1,201.2 87.8,302.2 260.2,403.1 "/>
<g>
	<g>
		<g>
			<defs>
				<rect id="SVGID_1_" x="3.2" y="102" width="400" height="400"/>
			</defs>
			<clipPath id="SVGID_2_">
				<use xlink:href="#SVGID_1_"  overflow="visible"/>
			</clipPath>
			<path clip-path="url(#SVGID_2_)" d="M94.4,193.1c14.2-14.2,30.6-25.2,49-33c19-8,39.1-12.1,59.9-12.1s41,4.1,59.9,12.1
				c18.3,7.8,34.8,18.8,49,33c14.1,14.2,25.2,30.6,33,49c8,19,12.1,39.1,12.1,59.9s-4.1,41-12.1,59.9c-7.8,18.3-18.9,34.8-33,49
				c-14.2,14.1-30.6,25.2-49,33c-19,8-39.1,12.1-59.9,12.1s-41-4.1-59.9-12.1c-18.3-7.8-34.8-18.9-49-33c-14.1-14.2-25.2-30.6-33-49
				c-8-19-12.1-39.1-12.1-59.9s4.1-41,12.1-59.9C69.1,223.7,80.2,207.2,94.4,193.1 M203.2,502c110.4,0,200-89.6,200-200
				s-89.6-200-200-200s-200,89.6-200,200S92.8,502,203.2,502"/>
		</g>
	</g>
</g>
</svg>
