<?xml version="1.0" encoding="utf-8"?>
<!-- Generator: Adobe Illustrator 18.0.0, SVG Export Plug-In . SVG Version: 6.00 Build 0)  -->
<!DOCTYPE svg PUBLIC "-//W3C//DTD SVG 1.1//EN" "http://www.w3.org/Graphics/SVG/1.1/DTD/svg11.dtd">
<svg version="1.1" id="Слой_1" xmlns="http://www.w3.org/2000/svg" xmlns:xlink="http://www.w3.org/1999/xlink" x="0px" y="0px"
	 viewBox="0 0 20 23.163" enable-background="new 0 0 20 23.163" xml:space="preserve">
<g>
	<defs>
		<rect id="SVGID_1_" y="0" width="20" height="23.163"/>
	</defs>
	<clipPath id="SVGID_2_">
		<use xlink:href="#SVGID_1_"  overflow="visible"/>
	</clipPath>
	<path clip-path="url(#SVGID_2_)" fill="#3D21DE" d="M14.757,15.346c-0.217,0.435-0.508,0.793-0.877,1.079
		c-0.434,0.342-0.911,0.583-1.433,0.729c-0.52,0.145-1.18,0.217-1.982,0.217H5.838V5.812h4.083c0.849,0,1.492,0.032,1.929,0.098
		c0.438,0.064,0.848,0.199,1.23,0.406c0.413,0.222,0.723,0.522,0.927,0.892c0.205,0.374,0.308,0.803,0.308,1.291
		c0,0.564-0.141,1.065-0.424,1.505c-0.281,0.44-0.671,0.763-1.166,0.973v0.06c0.713,0.152,1.285,0.457,1.714,0.92
		c0.43,0.464,0.645,1.089,0.645,1.874C15.084,14.405,14.975,14.912,14.757,15.346 M10,0L0,5.791v11.582l10,5.79l10-5.79V5.791L10,0z
		"/>
	<path clip-path="url(#SVGID_2_)" fill="#3D21DE" d="M10.136,10.362c0.199-0.01,0.405-0.064,0.617-0.162
		c0.231-0.108,0.392-0.259,0.48-0.45c0.088-0.194,0.132-0.416,0.132-0.668c0-0.188-0.047-0.379-0.143-0.575
		c-0.095-0.196-0.243-0.339-0.447-0.427c-0.191-0.085-0.416-0.129-0.679-0.137C9.834,7.935,9.444,7.932,8.928,7.932H8.726v2.446
		h0.366C9.587,10.378,9.937,10.373,10.136,10.362"/>
	<path clip-path="url(#SVGID_2_)" fill="#3D21DE" d="M11.225,12.482c-0.175-0.069-0.419-0.106-0.726-0.114
		c-0.307-0.008-0.721-0.011-1.238-0.011H8.726v2.894h0.157c0.755,0,1.277-0.005,1.566-0.016c0.288-0.01,0.585-0.079,0.884-0.209
		c0.266-0.114,0.456-0.281,0.578-0.501c0.122-0.22,0.183-0.469,0.183-0.747c0-0.358-0.071-0.636-0.217-0.838
		C11.731,12.736,11.514,12.585,11.225,12.482"/>
</g>
</svg>
