<?xml version="1.0" encoding="utf-8"?>
<!-- Generator: Adobe Illustrator 18.0.0, SVG Export Plug-In . SVG Version: 6.00 Build 0)  -->
<!DOCTYPE svg PUBLIC "-//W3C//DTD SVG 1.1//EN" "http://www.w3.org/Graphics/SVG/1.1/DTD/svg11.dtd">
<svg version="1.1" id="Слой_1" xmlns="http://www.w3.org/2000/svg" xmlns:xlink="http://www.w3.org/1999/xlink" x="0px" y="0px"
	 viewBox="0 0 14.8 20" enable-background="new 0 0 14.8 20" xml:space="preserve">
<g>
	<defs>
		<rect id="SVGID_1_" width="14.8" height="20"/>
	</defs>
	<clipPath id="SVGID_2_">
		<use xlink:href="#SVGID_1_"  overflow="visible"/>
	</clipPath>
	<path clip-path="url(#SVGID_2_)" fill="#3D21DE" d="M7.4,9C6.5,9,5.8,8.3,5.8,7.5s0.7-1.6,1.6-1.6c0.9,0,1.6,0.7,1.6,1.6
		S8.2,9,7.4,9 M7.4,3.6c-2.1,0-3.9,1.7-3.9,3.9c0,2.1,1.7,3.9,3.9,3.9s3.9-1.7,3.9-3.9C11.2,5.3,9.5,3.6,7.4,3.6"/>
	<path clip-path="url(#SVGID_2_)" fill="#3D21DE" d="M9.8,12.3c-0.9,0.8-1.6,1.8-2.3,2.9c-0.1,0.1-0.1,0.2-0.2,0.3
		c-0.1-0.1-0.1-0.2-0.2-0.3c-0.6-1.1-1.4-2-2.3-2.9C2.6,10,2.3,8.5,2.3,7.4c0-1.4,0.5-2.6,1.5-3.6c1-1,2.2-1.5,3.6-1.5
		S10,2.8,11,3.8c1,1,1.5,2.2,1.5,3.6C12.5,8.5,12.2,10,9.8,12.3 M7.4,0C3.3,0,0,3.3,0,7.4c0,2.1,0.9,4.2,3.4,6.6
		c2.3,2.2,3,4.8,3.1,6h1.7c0.2-1.2,0.8-3.8,3.1-6c2.5-2.4,3.4-4.5,3.4-6.6C14.8,3.3,11.5,0,7.4,0"/>
</g>
</svg>
