<?xml version="1.0" encoding="utf-8"?>
<!-- Generator: Adobe Illustrator 18.0.0, SVG Export Plug-In . SVG Version: 6.00 Build 0)  -->
<!DOCTYPE svg PUBLIC "-//W3C//DTD SVG 1.1//EN" "http://www.w3.org/Graphics/SVG/1.1/DTD/svg11.dtd">
<svg version="1.1" id="Слой_1" xmlns="http://www.w3.org/2000/svg" xmlns:xlink="http://www.w3.org/1999/xlink" x="0px" y="0px"
	 viewBox="0 29.7 400 540.5" enable-background="new 0 29.7 400 540.5" xml:space="preserve">
<g>
	<g>
		<defs>
			<rect id="SVGID_1_" y="29.7" width="400" height="540.5"/>
		</defs>
		<clipPath id="SVGID_2_">
			<use xlink:href="#SVGID_1_"  overflow="visible"/>
		</clipPath>
		<path clip-path="url(#SVGID_2_)" fill="#FF3B29" d="M200,273c-24.3,0-43.2-18.9-43.2-40.5s18.9-43.2,43.2-43.2
			s43.2,18.9,43.2,43.2S221.6,273,200,273 M200,127C143.2,127,94.6,173,94.6,232.4c0,56.8,45.9,105.4,105.4,105.4
			s105.4-45.9,105.4-105.4C302.7,173,256.8,127,200,127"/>
	</g>
	<g>
		<defs>
			<rect id="SVGID_3_" y="29.7" width="400" height="540.5"/>
		</defs>
		<clipPath id="SVGID_4_">
			<use xlink:href="#SVGID_3_"  overflow="visible"/>
		</clipPath>
		<path clip-path="url(#SVGID_4_)" fill="#FF3B29" d="M264.9,362.2c-24.3,21.6-43.2,48.6-62.2,78.4c-2.7,2.7-2.7,5.4-5.4,8.1
			c-2.7-2.7-2.7-5.4-5.4-8.1c-16.2-29.7-37.8-54.1-62.2-78.4C70.3,300,62.2,259.5,62.2,229.7c0-37.8,13.5-70.3,40.5-97.3
			s59.5-40.5,97.3-40.5s70.3,13.5,97.3,40.5s40.5,59.5,40.5,97.3C337.8,259.5,329.7,300,264.9,362.2 M200,29.7
			c-110.8,0-200,89.2-200,200c0,56.8,24.3,113.5,91.9,178.4c62.2,59.5,81.1,129.7,83.8,162.2h45.9c5.4-32.4,21.6-102.7,83.8-162.2
			c67.6-64.9,91.9-121.6,91.9-178.4C400,118.9,310.8,29.7,200,29.7"/>
	</g>
</g>
</svg>
