<?xml version="1.0" encoding="utf-8"?>
<!-- Generator: Adobe Illustrator 18.0.0, SVG Export Plug-In . SVG Version: 6.00 Build 0)  -->
<!DOCTYPE svg PUBLIC "-//W3C//DTD SVG 1.1//EN" "http://www.w3.org/Graphics/SVG/1.1/DTD/svg11.dtd">
<svg version="1.1" id="Слой_1" xmlns="http://www.w3.org/2000/svg" xmlns:xlink="http://www.w3.org/1999/xlink" x="0px" y="0px"
	 viewBox="0 0 30 30" enable-background="new 0 0 30 30" xml:space="preserve">
<g>
	<defs>
		<rect id="SVGID_1_" width="30" height="30"/>
	</defs>
	<clipPath id="SVGID_2_">
		<use xlink:href="#SVGID_1_"  overflow="visible"/>
	</clipPath>
	<path clip-path="url(#SVGID_2_)" fill="#F0F0F0" d="M29.999,15.132c-0.072,8.285-6.847,14.94-15.13,14.868
		C6.585,29.927-0.072,23.155,0,14.87C0.072,6.585,6.847-0.071,15.131,0.001C23.414,0.073,30.071,6.847,29.999,15.132"/>
	<path clip-path="url(#SVGID_2_)" fill="#C8C8C8" d="M13.602,20.376l0.047-5.331l-1.41-0.012l0.017-1.92l1.409,0.013l0.015-1.639
		c0.011-1.289,0.854-2.464,2.772-2.448c0.777,0.007,1.351,0.087,1.351,0.087l-0.062,1.791c0,0-0.585-0.01-1.224-0.016
		c-0.692-0.006-0.805,0.311-0.81,0.841l-0.012,1.401l2.083,0.019l-0.108,1.919l-1.992-0.018l-0.047,5.331L13.602,20.376z"/>
</g>
</svg>
