<?xml version="1.0" encoding="utf-8"?>
<!-- Generator: Adobe Illustrator 18.0.0, SVG Export Plug-In . SVG Version: 6.00 Build 0)  -->
<!DOCTYPE svg PUBLIC "-//W3C//DTD SVG 1.1//EN" "http://www.w3.org/Graphics/SVG/1.1/DTD/svg11.dtd">
<svg version="1.1" id="Слой_1" xmlns="http://www.w3.org/2000/svg" xmlns:xlink="http://www.w3.org/1999/xlink" x="0px" y="0px"
	 viewBox="0 0 205.417 30" enable-background="new 0 0 205.417 30" xml:space="preserve">
<g>
	<defs>
		<rect id="SVGID_1_" width="205.417" height="30"/>
	</defs>
	<clipPath id="SVGID_2_">
		<use xlink:href="#SVGID_1_"  overflow="visible"/>
	</clipPath>
	<path clip-path="url(#SVGID_2_)" fill="#F0F0F0" d="M18.257,7.873h-2.131c-1.672,0-1.994,0.792-1.994,1.965v2.572h3.984
		l-0.512,4.017h-3.472v10.347H9.97V16.427H6.489V12.41H9.97V9.434c0-3.444,2.102-5.327,5.178-5.327c1.478,0,2.745,0.111,3.109,0.165
		V7.873z M12.951,0L0,7.5v15L12.951,30l12.951-7.5v-15L12.951,0z"/>
	<path clip-path="url(#SVGID_2_)" fill="#F0F0F0" d="M90.392,8.744c-0.53-0.004-1.059-0.004-1.589,0
		c-0.277,0.002-0.457,0.18-0.464,0.456c-0.007,0.274-0.001,0.55-0.001,0.824c0,0.278-0.005,0.556,0.001,0.834
		c0.006,0.27,0.198,0.45,0.47,0.451c0.525,0,1.05,0,1.575,0c0.28-0.001,0.477-0.194,0.478-0.474c0.001-0.538,0.002-1.077,0-1.615
		C90.86,8.938,90.674,8.746,90.392,8.744"/>
	<path clip-path="url(#SVGID_2_)" fill="#F0F0F0" d="M92.22,12.293c0,0.084-0.023,0.106-0.107,0.107c-0.017,0-0.034,0-0.052,0
		c-1.483,0.001-2.966,0-4.449,0.003c-0.099,0-0.175-0.029-0.246-0.097c-0.195-0.187-0.409-0.35-0.641-0.489
		c-0.825-0.497-1.712-0.67-2.661-0.496c-0.738,0.135-1.378,0.474-1.928,0.982c-0.073,0.068-0.151,0.099-0.251,0.099
		C80.393,12.4,78.902,12.4,77.41,12.4c-0.091,0-0.113-0.021-0.113-0.114c0-0.133,0.003-0.267,0.002-0.401
		c-0.003-0.565-0.027-1.129,0.018-1.693c0.027-0.343,0.104-0.672,0.249-0.984c0.219-0.471,0.557-0.844,0.965-1.158
		c0.007-0.005,0.015-0.007,0.023-0.011c0.001,0.008,0.002,0.012,0.002,0.017c-0.001,0.89-0.002,1.781-0.002,2.672
		c0,0.123-0.003,0.247,0.002,0.37c0.004,0.084,0.039,0.119,0.121,0.12c0.112,0,0.224-0.006,0.335-0.017
		c0.074-0.008,0.111-0.052,0.121-0.129c0.006-0.047,0.009-0.095,0.009-0.143c0.001-1.007,0.002-2.014,0.002-3.022
		c0-0.021-0.001-0.043-0.003-0.065c-0.014-0.101-0.008-0.113,0.082-0.156c0.09-0.042,0.181-0.079,0.282-0.086
		c0.072-0.005,0.09,0.014,0.08,0.084c-0.003,0.026-0.006,0.052-0.006,0.078c0,0.911,0.001,1.823,0.001,2.734
		c0,0.199-0.001,0.398-0.001,0.598c0.001,0.085,0.033,0.122,0.118,0.124c0.107,0.002,0.215,0,0.322-0.008
		c0.1-0.008,0.141-0.052,0.155-0.152c0.008-0.056,0.011-0.113,0.011-0.17c0.002-0.534,0.004-1.068,0.003-1.602
		c-0.001-0.53-0.005-1.059-0.007-1.589c-0.001-0.142,0.013-0.161,0.141-0.196h0.174c0.082,0.021,0.107,0.08,0.107,0.157
		c0,0.023,0.001,0.047,0.001,0.07c-0.002,0.467-0.003,0.934-0.004,1.401c-0.001,0.514-0.002,1.027-0.002,1.541
		c0,0.141-0.002,0.282,0.002,0.423c0.003,0.085,0.038,0.123,0.121,0.124c0.116,0.001,0.232-0.006,0.348-0.016
		c0.065-0.006,0.108-0.048,0.12-0.115c0.007-0.043,0.013-0.087,0.014-0.13c0.002-0.163,0.002-0.326,0.002-0.489
		c-0.001-0.931-0.002-1.862-0.002-2.793c0-0.098,0-0.146,0.114-0.173h6.777c0.016,0.001,0.031,0.005,0.047,0.005
		c0.403,0.001,0.806,0.002,1.209,0.002c0.205-0.001,0.407,0.02,0.606,0.068c0.626,0.15,1.144,0.479,1.562,0.964
		c0.335,0.387,0.556,0.832,0.648,1.338c0.049,0.27,0.055,0.544,0.057,0.818C92.226,11.228,92.222,11.761,92.22,12.293 M81.81,15.065
		c0-1.618,1.328-2.937,2.957-2.936c1.624,0.001,2.94,1.321,2.938,2.947c-0.003,1.631-1.315,2.934-2.954,2.934
		C83.126,18.009,81.809,16.691,81.81,15.065 M92.218,15.077c-0.001,1.512,0.002,3.024-0.004,4.537
		c-0.002,0.742-0.272,1.385-0.771,1.93c-0.441,0.481-0.984,0.785-1.626,0.904c-0.162,0.03-0.329,0.047-0.494,0.047
		c-3.033,0.003-6.067,0.009-9.1-0.002c-1.37-0.004-2.506-0.913-2.834-2.219c-0.065-0.259-0.092-0.523-0.091-0.791
		c0.001-1.41,0.001-2.821,0-4.231c-0.001-0.722-0.004-1.444-0.005-2.166c0-0.032,0.002-0.064,0.005-0.095
		c0.009-0.09,0.049-0.131,0.14-0.136c0.096-0.004,0.192-0.003,0.288-0.003c1.285,0.001,2.571,0.002,3.856,0.003h0.06
		c-0.579,0.864-0.825,1.796-0.655,2.822c0.148,0.896,0.553,1.652,1.242,2.251c1.379,1.199,3.358,1.278,4.807,0.186
		c0.822-0.619,1.316-1.445,1.477-2.461c0.16-1.016-0.086-1.943-0.661-2.798h0.054c1.238,0,2.477-0.001,3.715-0.001
		c0.137,0,0.274-0.001,0.411-0.002c0.026,0,0.052,0.001,0.078,0.004c0.064,0.008,0.1,0.04,0.104,0.104
		c0.007,0.085,0.007,0.171,0.007,0.257C92.221,13.837,92.219,14.457,92.218,15.077 M84.757,0L71.806,7.5v15L84.757,30l12.951-7.5
		v-15L84.757,0z"/>
	<path clip-path="url(#SVGID_2_)" fill="#F0F0F0" d="M84.83,17.241c1.152-0.031,2.117-1.004,2.105-2.137
		c0.007-1.205-0.93-2.219-2.197-2.202c-1.201,0.017-2.172,1.017-2.135,2.207C82.64,16.311,83.608,17.274,84.83,17.241"/>
	<path clip-path="url(#SVGID_2_)" fill="#F0F0F0" d="M55.015,19.876c-0.281,0.562-0.658,1.026-1.136,1.397
		c-0.562,0.442-1.18,0.755-1.856,0.944c-0.673,0.188-1.527,0.281-2.567,0.281h-5.993V7.527h5.289c1.099,0,1.932,0.041,2.498,0.128
		c0.567,0.082,1.099,0.257,1.593,0.525c0.535,0.288,0.937,0.676,1.201,1.156c0.265,0.484,0.399,1.04,0.399,1.672
		c0,0.73-0.182,1.379-0.55,1.949c-0.363,0.57-0.868,0.988-1.51,1.259v0.079c0.924,0.196,1.665,0.591,2.22,1.191
		c0.556,0.601,0.835,1.411,0.835,2.427C55.438,18.657,55.297,19.313,55.015,19.876 M48.854,0L35.903,7.5v15L48.854,30l12.951-7.5
		v-15L48.854,0z"/>
	<path clip-path="url(#SVGID_2_)" fill="#F0F0F0" d="M49.03,13.42c0.257-0.013,0.525-0.083,0.8-0.209
		c0.298-0.141,0.507-0.337,0.621-0.584c0.113-0.25,0.171-0.539,0.171-0.865c0-0.243-0.061-0.49-0.185-0.744s-0.315-0.439-0.58-0.553
		c-0.247-0.11-0.538-0.168-0.878-0.178c-0.34-0.011-0.845-0.014-1.514-0.014h-0.261v3.168h0.474
		C48.319,13.441,48.772,13.434,49.03,13.42"/>
	<path clip-path="url(#SVGID_2_)" fill="#F0F0F0" d="M50.441,16.166c-0.227-0.09-0.542-0.138-0.94-0.148
		c-0.398-0.01-0.934-0.013-1.603-0.013h-0.694v3.747h0.203c0.978,0,1.654-0.007,2.029-0.02c0.373-0.014,0.758-0.103,1.146-0.271
		c0.343-0.148,0.59-0.364,0.748-0.649c0.158-0.285,0.237-0.608,0.237-0.968c0-0.463-0.093-0.824-0.282-1.085
		C51.097,16.495,50.815,16.3,50.441,16.166"/>
	<path clip-path="url(#SVGID_2_)" fill="#F0F0F0" d="M127.839,21.977c-0.181,0.789-0.827,1.371-1.604,1.458
		c-1.839,0.205-3.702,0.207-5.556,0.205c-1.854,0.002-3.716,0-5.556-0.205c-0.777-0.087-1.421-0.669-1.603-1.458
		c-0.258-1.123-0.258-2.35-0.258-3.507c0-1.157,0.003-2.383,0.261-3.508c0.181-0.788,0.827-1.37,1.603-1.457
		c1.84-0.206,3.702-0.206,5.557-0.206c1.853,0,3.716,0,5.555,0.206c0.777,0.087,1.423,0.669,1.604,1.457
		c0.259,1.125,0.257,2.351,0.257,3.508C128.099,19.627,128.098,20.854,127.839,21.977 M116.712,5.691l0.714,2.635l0.685-2.635h1.016
		l-1.209,3.993v2.717h-1.005V9.684c-0.091-0.482-0.292-1.188-0.614-2.124c-0.212-0.622-0.433-1.248-0.644-1.869H116.712z
		 M119.135,9.031c0-0.535,0.091-0.926,0.284-1.179c0.251-0.341,0.604-0.512,1.055-0.512c0.454,0,0.806,0.171,1.057,0.512
		c0.19,0.253,0.281,0.644,0.281,1.179v1.751c0,0.531-0.091,0.925-0.281,1.176c-0.251,0.341-0.603,0.512-1.057,0.512
		c-0.451,0-0.804-0.171-1.055-0.512c-0.193-0.251-0.284-0.645-0.284-1.176V9.031z M122.558,7.4h0.904v3.682
		c0,0.213,0,0.323,0.01,0.352c0.02,0.141,0.091,0.213,0.213,0.213c0.181,0,0.372-0.141,0.572-0.425V7.4h0.906v5.001h-0.906v-0.546
		c-0.36,0.414-0.705,0.615-1.035,0.615c-0.292,0-0.493-0.118-0.584-0.372c-0.05-0.151-0.08-0.391-0.08-0.743V7.4z M120.66,0
		l-12.951,7.5v15L120.66,30l12.951-7.5v-15L120.66,0z"/>
	<path clip-path="url(#SVGID_2_)" fill="#F0F0F0" d="M120.474,11.647c0.292,0,0.432-0.232,0.432-0.694V8.849
		c0-0.463-0.14-0.693-0.432-0.693c-0.292,0-0.433,0.23-0.433,0.693v2.104C120.041,11.415,120.182,11.647,120.474,11.647"/>
	<path clip-path="url(#SVGID_2_)" fill="#F0F0F0" d="M122.713,20.266c0,0.447-0.131,0.667-0.39,0.667
		c-0.148,0-0.297-0.071-0.447-0.22v-3.017c0.15-0.147,0.299-0.218,0.447-0.218c0.259,0,0.39,0.229,0.39,0.676V20.266z
		 M122.802,16.671c-0.33,0-0.637,0.18-0.926,0.537v-2.17h-0.897v6.642h0.897V21.2c0.299,0.371,0.608,0.548,0.926,0.548
		c0.358,0,0.597-0.188,0.717-0.556c0.06-0.21,0.09-0.539,0.09-0.997v-1.971c0-0.468-0.03-0.795-0.09-0.994
		C123.399,16.859,123.16,16.671,122.802,16.671"/>
	<path clip-path="url(#SVGID_2_)" fill="#F0F0F0" d="M126.097,18.622H125.2v-0.457c0-0.458,0.15-0.687,0.45-0.687
		c0.297,0,0.447,0.229,0.447,0.687V18.622z M125.658,16.671c-0.458,0-0.815,0.169-1.074,0.508c-0.19,0.25-0.277,0.636-0.277,1.165
		v1.734c0,0.525,0.098,0.916,0.289,1.163c0.258,0.338,0.615,0.507,1.084,0.507s0.836-0.177,1.085-0.536
		c0.108-0.159,0.179-0.339,0.209-0.537c0.009-0.09,0.019-0.29,0.019-0.578v-0.131h-0.915c0,0.359-0.011,0.559-0.019,0.607
		c-0.052,0.24-0.18,0.36-0.401,0.36c-0.308,0-0.458-0.229-0.458-0.687v-0.877h1.793v-1.025c0-0.529-0.09-0.915-0.277-1.165
		C126.465,16.84,126.108,16.671,125.658,16.671"/>
	<path clip-path="url(#SVGID_2_)" fill="#F0F0F0" d="M119.306,20.513c-0.199,0.281-0.387,0.419-0.567,0.419
		c-0.12,0-0.188-0.07-0.21-0.209c-0.008-0.029-0.008-0.139-0.008-0.349v-3.643h-0.896v3.913c0,0.35,0.03,0.586,0.079,0.735
		c0.089,0.252,0.289,0.369,0.578,0.369c0.329,0,0.668-0.199,1.024-0.608v0.54h0.897v-4.949h-0.897V20.513z"/>
</g>
<polygon fill="#F0F0F0" points="114.368,15.974 115.423,15.974 115.423,21.68 116.42,21.68 116.42,15.974 117.494,15.974 
	117.494,15.039 114.368,15.039 "/>
<g>
	<defs>
		<rect id="SVGID_3_" width="205.417" height="30"/>
	</defs>
	<clipPath id="SVGID_4_">
		<use xlink:href="#SVGID_3_"  overflow="visible"/>
	</clipPath>
	<path clip-path="url(#SVGID_4_)" fill="#F0F0F0" d="M197.275,17.955c-1.154,0.741-2.736,1.022-3.769,1.128l0.864,0.864l3.199,3.199
		c0.486,0.486,0.486,1.274,0,1.76l-0.147,0.147c-0.486,0.486-1.274,0.486-1.76,0c-0.813-0.813-1.985-1.985-3.198-3.199l-3.199,3.199
		c-0.486,0.486-1.274,0.486-1.76,0l-0.147-0.147c-0.486-0.486-0.486-1.274,0-1.76c0.813-0.813,1.985-1.985,3.199-3.198l0.861-0.862
		c-1.032-0.105-2.631-0.384-3.794-1.131c-1.362-0.874-1.966-1.393-1.432-2.466c0.307-0.616,1.155-1.128,2.284-0.239
		c1.524,1.201,3.973,1.201,3.973,1.201s2.449,0,3.974-1.201c1.128-0.889,1.977-0.377,2.283,0.239
		C199.24,16.562,198.637,17.081,197.275,17.955 M192.449,3.971c2.998,0,5.428,2.43,5.428,5.428s-2.43,5.428-5.428,5.428
		s-5.428-2.43-5.428-5.428S189.451,3.971,192.449,3.971 M192.466,0l-12.951,7.5v15l12.951,7.5l12.951-7.5v-15L192.466,0z"/>
	<path clip-path="url(#SVGID_4_)" fill="#F0F0F0" d="M192.449,12.069c1.475,0,2.671-1.196,2.671-2.67
		c0-1.475-1.196-2.671-2.671-2.671c-1.475,0-2.67,1.196-2.67,2.671C189.779,10.873,190.974,12.069,192.449,12.069"/>
	<path clip-path="url(#SVGID_4_)" fill="#F0F0F0" d="M164.491,11.474c0,0.188,0.013,0.36,0.013,0.531
		c0,5.339-4.067,11.489-11.49,11.489c-2.284,0-4.401-0.673-6.187-1.823c0.314,0.037,0.64,0.065,0.958,0.065
		c1.898,0,3.639-0.652,5.017-1.729c-1.77-0.037-3.259-1.207-3.773-2.806c0.253,0.045,0.502,0.069,0.759,0.069
		c0.371,0,0.726-0.045,1.069-0.134c-1.848-0.379-3.243-1.999-3.243-3.961v-0.049c0.546,0.298,1.171,0.477,1.828,0.502
		c-1.082-0.718-1.796-1.954-1.796-3.36c0-0.735,0.201-1.428,0.552-2.028c1.99,2.443,4.959,4.046,8.315,4.214
		c-0.069-0.294-0.102-0.596-0.102-0.914c0-2.24,1.812-4.034,4.038-4.034c1.158,0,2.203,0.49,2.945,1.272
		c0.918-0.187,1.782-0.513,2.561-0.978c-0.305,0.942-0.938,1.733-1.773,2.239c0.815-0.11,1.593-0.322,2.315-0.64
		C165.955,10.206,165.275,10.916,164.491,11.474 M156.563,0l-12.951,7.5v15l12.951,7.5l12.951-7.5v-15L156.563,0z"/>
</g>
</svg>
