<?xml version="1.0" encoding="utf-8"?>
<!-- Generator: Adobe Illustrator 18.0.0, SVG Export Plug-In . SVG Version: 6.00 Build 0)  -->
<!DOCTYPE svg PUBLIC "-//W3C//DTD SVG 1.1//EN" "http://www.w3.org/Graphics/SVG/1.1/DTD/svg11.dtd">
<svg version="1.1" id="Слой_1" xmlns="http://www.w3.org/2000/svg" xmlns:xlink="http://www.w3.org/1999/xlink" x="0px" y="0px"
	 viewBox="0 270.8 400 58.4" enable-background="new 0 270.8 400 58.4" xml:space="preserve">
<g>
	<g>
		<defs>
			<rect id="SVGID_1_" y="270.8" width="400" height="58.4"/>
		</defs>
		<clipPath id="SVGID_2_">
			<use xlink:href="#SVGID_1_"  overflow="visible"/>
		</clipPath>
		<path clip-path="url(#SVGID_2_)" fill="#C7C7C7" d="M35.6,286.1h-4.1c-3.3,0-3.9,1.5-3.9,3.8v5h7.8l-1,7.8h-6.8v20.1h-8.1v-20.1
			h-6.8V295h6.8v-5.8c0-6.7,4.1-10.4,10.1-10.4c2.9,0,5.3,0.2,6.1,0.3V286.1z M25.2,270.8L0,285.4v29.2l25.2,14.6l25.2-14.6v-29.2
			L25.2,270.8z"/>
	</g>
	<g>
		<defs>
			<rect id="SVGID_3_" y="270.8" width="400" height="58.4"/>
		</defs>
		<clipPath id="SVGID_4_">
			<use xlink:href="#SVGID_3_"  overflow="visible"/>
		</clipPath>
		<path clip-path="url(#SVGID_4_)" fill="#C7C7C7" d="M176,287.8c-1,0-2.1,0-3.1,0c-0.5,0-0.9,0.4-0.9,0.9c0,0.5,0,1.1,0,1.6
			c0,0.5,0,1.1,0,1.6c0,0.5,0.4,0.9,0.9,0.9c1,0,2,0,3.1,0c0.5,0,0.9-0.4,0.9-0.9c0-1,0-2.1,0-3.1
			C176.9,288.2,176.6,287.8,176,287.8"/>
	</g>
	<g>
		<defs>
			<rect id="SVGID_5_" y="270.8" width="400" height="58.4"/>
		</defs>
		<clipPath id="SVGID_6_">
			<use xlink:href="#SVGID_5_"  overflow="visible"/>
		</clipPath>
		<path clip-path="url(#SVGID_6_)" fill="#C7C7C7" d="M179.6,294.7c0,0.2,0,0.2-0.2,0.2c0,0-0.1,0-0.1,0c-2.9,0-5.8,0-8.7,0
			c-0.2,0-0.3-0.1-0.5-0.2c-0.4-0.4-0.8-0.7-1.2-1c-1.6-1-3.3-1.3-5.2-1c-1.4,0.3-2.7,0.9-3.8,1.9c-0.1,0.1-0.3,0.2-0.5,0.2
			c-2.9,0-5.8,0-8.7,0c-0.2,0-0.2,0-0.2-0.2c0-0.3,0-0.5,0-0.8c0-1.1-0.1-2.2,0-3.3c0.1-0.7,0.2-1.3,0.5-1.9
			c0.4-0.9,1.1-1.6,1.9-2.3c0,0,0,0,0,0c0,0,0,0,0,0c0,1.7,0,3.5,0,5.2c0,0.2,0,0.5,0,0.7c0,0.2,0.1,0.2,0.2,0.2c0.2,0,0.4,0,0.7,0
			c0.1,0,0.2-0.1,0.2-0.3c0-0.1,0-0.2,0-0.3c0-2,0-3.9,0-5.9c0,0,0-0.1,0-0.1c0-0.2,0-0.2,0.2-0.3c0.2-0.1,0.4-0.2,0.5-0.2
			c0.1,0,0.2,0,0.2,0.2c0,0.1,0,0.1,0,0.2c0,1.8,0,3.5,0,5.3c0,0.4,0,0.8,0,1.2c0,0.2,0.1,0.2,0.2,0.2c0.2,0,0.4,0,0.6,0
			c0.2,0,0.3-0.1,0.3-0.3c0-0.1,0-0.2,0-0.3c0-1,0-2.1,0-3.1c0-1,0-2.1,0-3.1c0-0.3,0-0.3,0.3-0.4h0.3c0.2,0,0.2,0.2,0.2,0.3
			c0,0,0,0.1,0,0.1c0,0.9,0,1.8,0,2.7c0,1,0,2,0,3c0,0.3,0,0.5,0,0.8c0,0.2,0.1,0.2,0.2,0.2c0.2,0,0.5,0,0.7,0
			c0.1,0,0.2-0.1,0.2-0.2c0-0.1,0-0.2,0-0.3c0-0.3,0-0.6,0-1c0-1.8,0-3.6,0-5.4c0-0.2,0-0.3,0.2-0.3h13.2c0,0,0.1,0,0.1,0
			c0.8,0,1.6,0,2.4,0c0.4,0,0.8,0,1.2,0.1c1.2,0.3,2.2,0.9,3,1.9c0.7,0.8,1.1,1.6,1.3,2.6c0.1,0.5,0.1,1.1,0.1,1.6
			C179.6,292.7,179.6,293.7,179.6,294.7 M159.3,300.1c0-3.2,2.6-5.7,5.8-5.7c3.2,0,5.7,2.6,5.7,5.7c0,3.2-2.6,5.7-5.8,5.7
			C161.9,305.9,159.3,303.3,159.3,300.1 M179.6,300.1c0,2.9,0,5.9,0,8.8c0,1.4-0.5,2.7-1.5,3.8c-0.9,0.9-1.9,1.5-3.2,1.8
			c-0.3,0.1-0.6,0.1-1,0.1c-5.9,0-11.8,0-17.7,0c-2.7,0-4.9-1.8-5.5-4.3c-0.1-0.5-0.2-1-0.2-1.5c0-2.7,0-5.5,0-8.2
			c0-1.4,0-2.8,0-4.2c0-0.1,0-0.1,0-0.2c0-0.2,0.1-0.3,0.3-0.3c0.2,0,0.4,0,0.6,0c2.5,0,5,0,7.5,0h0.1c-1.1,1.7-1.6,3.5-1.3,5.5
			c0.3,1.7,1.1,3.2,2.4,4.4c2.7,2.3,6.5,2.5,9.4,0.4c1.6-1.2,2.6-2.8,2.9-4.8c0.3-2-0.2-3.8-1.3-5.4h0.1c2.4,0,4.8,0,7.2,0
			c0.3,0,0.5,0,0.8,0c0.1,0,0.1,0,0.2,0c0.1,0,0.2,0.1,0.2,0.2c0,0.2,0,0.3,0,0.5C179.6,297.7,179.6,298.9,179.6,300.1 M165,270.8
			l-25.2,14.6v29.2l25.2,14.6l25.2-14.6v-29.2L165,270.8z"/>
	</g>
	<g>
		<defs>
			<rect id="SVGID_7_" y="270.8" width="400" height="58.4"/>
		</defs>
		<clipPath id="SVGID_8_">
			<use xlink:href="#SVGID_7_"  overflow="visible"/>
		</clipPath>
		<path clip-path="url(#SVGID_8_)" fill="#C7C7C7" d="M165.2,304.4c2.2-0.1,4.1-2,4.1-4.2c0-2.3-1.8-4.3-4.3-4.3
			c-2.3,0-4.2,2-4.2,4.3C160.9,302.6,162.8,304.4,165.2,304.4"/>
	</g>
	<g>
		<defs>
			<rect id="SVGID_9_" y="270.8" width="400" height="58.4"/>
		</defs>
		<clipPath id="SVGID_10_">
			<use xlink:href="#SVGID_9_"  overflow="visible"/>
		</clipPath>
		<path clip-path="url(#SVGID_10_)" fill="#C7C7C7" d="M107.1,309.5c-0.5,1.1-1.3,2-2.2,2.7c-1.1,0.9-2.3,1.5-3.6,1.8
			c-1.3,0.4-3,0.5-5,0.5H84.6v-29.2h10.3c2.1,0,3.8,0.1,4.9,0.2c1.1,0.2,2.1,0.5,3.1,1c1,0.6,1.8,1.3,2.3,2.3c0.5,0.9,0.8,2,0.8,3.3
			c0,1.4-0.4,2.7-1.1,3.8c-0.7,1.1-1.7,1.9-2.9,2.5v0.2c1.8,0.4,3.2,1.2,4.3,2.3c1.1,1.2,1.6,2.7,1.6,4.7
			C108,307.1,107.7,308.4,107.1,309.5 M95.1,270.8l-25.2,14.6v29.2l25.2,14.6l25.2-14.6v-29.2L95.1,270.8z"/>
	</g>
	<g>
		<defs>
			<rect id="SVGID_11_" y="270.8" width="400" height="58.4"/>
		</defs>
		<clipPath id="SVGID_12_">
			<use xlink:href="#SVGID_11_"  overflow="visible"/>
		</clipPath>
		<path clip-path="url(#SVGID_12_)" fill="#C7C7C7" d="M95.5,296.9c0.5,0,1-0.2,1.6-0.4c0.6-0.3,1-0.7,1.2-1.1
			c0.2-0.5,0.3-1,0.3-1.7c0-0.5-0.1-1-0.4-1.4s-0.6-0.9-1.1-1.1c-0.5-0.2-1-0.3-1.7-0.3c-0.7,0-1.6,0-2.9,0h-0.5v6.2h0.9
			C94.1,297,95,297,95.5,296.9"/>
	</g>
	<g>
		<defs>
			<rect id="SVGID_13_" y="270.8" width="400" height="58.4"/>
		</defs>
		<clipPath id="SVGID_14_">
			<use xlink:href="#SVGID_13_"  overflow="visible"/>
		</clipPath>
		<path clip-path="url(#SVGID_14_)" fill="#C7C7C7" d="M98.2,302.3c-0.4-0.2-1.1-0.3-1.8-0.3c-0.8,0-1.8,0-3.1,0h-1.4v7.3h0.4
			c1.9,0,3.2,0,4,0c0.7,0,1.5-0.2,2.2-0.5c0.7-0.3,1.1-0.7,1.5-1.3c0.3-0.6,0.5-1.2,0.5-1.9c0-0.9-0.2-1.6-0.5-2.1
			C99.5,302.9,98.9,302.5,98.2,302.3"/>
	</g>
	<g>
		<defs>
			<rect id="SVGID_15_" y="270.8" width="400" height="58.4"/>
		</defs>
		<clipPath id="SVGID_16_">
			<use xlink:href="#SVGID_15_"  overflow="visible"/>
		</clipPath>
		<path clip-path="url(#SVGID_16_)" fill="#C7C7C7" d="M248.9,313.6c-0.4,1.5-1.6,2.7-3.1,2.8c-3.6,0.4-7.2,0.4-10.8,0.4
			c-3.6,0-7.2,0-10.8-0.4c-1.5-0.2-2.8-1.3-3.1-2.8c-0.5-2.2-0.5-4.6-0.5-6.8c0-2.3,0-4.6,0.5-6.8c0.4-1.5,1.6-2.7,3.1-2.8
			c3.6-0.4,7.2-0.4,10.8-0.4c3.6,0,7.2,0,10.8,0.4c1.5,0.2,2.8,1.3,3.1,2.8c0.5,2.2,0.5,4.6,0.5,6.8
			C249.4,309,249.4,311.4,248.9,313.6 M227.3,281.9l1.4,5.1l1.3-5.1h2l-2.4,7.8v5.3h-2v-5.3c-0.2-0.9-0.6-2.3-1.2-4.1
			c-0.4-1.2-0.8-2.4-1.3-3.6H227.3z M232,288.4c0-1,0.2-1.8,0.6-2.3c0.5-0.7,1.2-1,2.1-1c0.9,0,1.6,0.3,2.1,1
			c0.4,0.5,0.5,1.3,0.5,2.3v3.4c0,1-0.2,1.8-0.5,2.3c-0.5,0.7-1.2,1-2.1,1c-0.9,0-1.6-0.3-2.1-1c-0.4-0.5-0.6-1.3-0.6-2.3V288.4z
			 M238.7,285.2h1.8v7.2c0,0.4,0,0.6,0,0.7c0,0.3,0.2,0.4,0.4,0.4c0.4,0,0.7-0.3,1.1-0.8v-7.4h1.8v9.7H242v-1.1
			c-0.7,0.8-1.4,1.2-2,1.2c-0.6,0-1-0.2-1.1-0.7c-0.1-0.3-0.2-0.8-0.2-1.4L238.7,285.2L238.7,285.2z M235,270.8l-25.2,14.6v29.2
			l25.2,14.6l25.2-14.6v-29.2L235,270.8z"/>
	</g>
	<g>
		<defs>
			<rect id="SVGID_17_" y="270.8" width="400" height="58.4"/>
		</defs>
		<clipPath id="SVGID_18_">
			<use xlink:href="#SVGID_17_"  overflow="visible"/>
		</clipPath>
		<path clip-path="url(#SVGID_18_)" fill="#C7C7C7" d="M234.6,293.5c0.6,0,0.8-0.5,0.8-1.4V288c0-0.9-0.3-1.3-0.8-1.3
			c-0.6,0-0.8,0.4-0.8,1.3v4.1C233.8,293,234,293.5,234.6,293.5"/>
	</g>
	<g>
		<defs>
			<rect id="SVGID_19_" y="270.8" width="400" height="58.4"/>
		</defs>
		<clipPath id="SVGID_20_">
			<use xlink:href="#SVGID_19_"  overflow="visible"/>
		</clipPath>
		<path clip-path="url(#SVGID_20_)" fill="#C7C7C7" d="M239,310.3c0,0.9-0.3,1.3-0.8,1.3c-0.3,0-0.6-0.1-0.9-0.4v-5.9
			c0.3-0.3,0.6-0.4,0.9-0.4c0.5,0,0.8,0.4,0.8,1.3V310.3z M239.1,303.3c-0.6,0-1.2,0.4-1.8,1v-4.2h-1.7V313h1.7v-0.9
			c0.6,0.7,1.2,1.1,1.8,1.1c0.7,0,1.2-0.4,1.4-1.1c0.1-0.4,0.2-1,0.2-1.9v-3.8c0-0.9-0.1-1.5-0.2-1.9
			C240.3,303.6,239.8,303.3,239.1,303.3"/>
	</g>
	<g>
		<defs>
			<rect id="SVGID_21_" y="270.8" width="400" height="58.4"/>
		</defs>
		<clipPath id="SVGID_22_">
			<use xlink:href="#SVGID_21_"  overflow="visible"/>
		</clipPath>
		<path clip-path="url(#SVGID_22_)" fill="#C7C7C7" d="M245.5,307.1h-1.7v-0.9c0-0.9,0.3-1.3,0.9-1.3c0.6,0,0.9,0.4,0.9,1.3
			L245.5,307.1L245.5,307.1z M244.7,303.3c-0.9,0-1.6,0.3-2.1,1c-0.4,0.5-0.5,1.2-0.5,2.3v3.4c0,1,0.2,1.8,0.6,2.3
			c0.5,0.7,1.2,1,2.1,1s1.6-0.3,2.1-1c0.2-0.3,0.3-0.7,0.4-1c0-0.2,0-0.6,0-1.1v-0.3h-1.8c0,0.7,0,1.1,0,1.2
			c-0.1,0.5-0.4,0.7-0.8,0.7c-0.6,0-0.9-0.4-0.9-1.3v-1.7h3.5v-2c0-1-0.2-1.8-0.5-2.3C246.3,303.6,245.6,303.3,244.7,303.3"/>
	</g>
	<g>
		<defs>
			<rect id="SVGID_23_" y="270.8" width="400" height="58.4"/>
		</defs>
		<clipPath id="SVGID_24_">
			<use xlink:href="#SVGID_23_"  overflow="visible"/>
		</clipPath>
		<path clip-path="url(#SVGID_24_)" fill="#C7C7C7" d="M232.3,310.7c-0.4,0.5-0.8,0.8-1.1,0.8c-0.2,0-0.4-0.1-0.4-0.4
			c0-0.1,0-0.3,0-0.7v-7.1H229v7.6c0,0.7,0.1,1.1,0.2,1.4c0.2,0.5,0.6,0.7,1.1,0.7c0.6,0,1.3-0.4,2-1.2v1.1h1.7v-9.6h-1.7V310.7z"/>
	</g>
</g>
<polygon fill="#C7C7C7" points="222.7,301.9 224.8,301.9 224.8,313 226.7,313 226.7,301.9 228.8,301.9 228.8,300.1 222.7,300.1 "/>
<g>
	<g>
		<defs>
			<rect id="SVGID_25_" y="270.8" width="400" height="58.4"/>
		</defs>
		<clipPath id="SVGID_26_">
			<use xlink:href="#SVGID_25_"  overflow="visible"/>
		</clipPath>
		<path clip-path="url(#SVGID_26_)" fill="#C7C7C7" d="M384.1,305.8c-2.2,1.4-5.3,2-7.3,2.2l1.7,1.7l6.2,6.2c0.9,0.9,0.9,2.5,0,3.4
			l-0.3,0.3c-0.9,0.9-2.5,0.9-3.4,0c-1.6-1.6-3.9-3.9-6.2-6.2l-6.2,6.2c-0.9,0.9-2.5,0.9-3.4,0l-0.3-0.3c-0.9-0.9-0.9-2.5,0-3.4
			c1.6-1.6,3.9-3.9,6.2-6.2l1.7-1.7c-2-0.2-5.1-0.7-7.4-2.2c-2.7-1.7-3.8-2.7-2.8-4.8c0.6-1.2,2.2-2.2,4.4-0.5
			c3,2.3,7.7,2.3,7.7,2.3s4.8,0,7.7-2.3c2.2-1.7,3.8-0.7,4.4,0.5C388,303,386.8,304.1,384.1,305.8 M374.7,278.5
			c5.8,0,10.6,4.7,10.6,10.6c0,5.8-4.7,10.6-10.6,10.6s-10.6-4.7-10.6-10.6C364.2,283.3,368.9,278.5,374.7,278.5 M374.8,270.8
			l-25.2,14.6v29.2l25.2,14.6l25.2-14.6v-29.2L374.8,270.8z"/>
	</g>
	<g>
		<defs>
			<rect id="SVGID_27_" y="270.8" width="400" height="58.4"/>
		</defs>
		<clipPath id="SVGID_28_">
			<use xlink:href="#SVGID_27_"  overflow="visible"/>
		</clipPath>
		<path clip-path="url(#SVGID_28_)" fill="#C7C7C7" d="M374.7,294.3c2.9,0,5.2-2.3,5.2-5.2c0-2.9-2.3-5.2-5.2-5.2s-5.2,2.3-5.2,5.2
			C369.5,292,371.9,294.3,374.7,294.3"/>
	</g>
	<g>
		<defs>
			<rect id="SVGID_29_" y="270.8" width="400" height="58.4"/>
		</defs>
		<clipPath id="SVGID_30_">
			<use xlink:href="#SVGID_29_"  overflow="visible"/>
		</clipPath>
		<path clip-path="url(#SVGID_30_)" fill="#C7C7C7" d="M320.3,293.1c0,0.4,0,0.7,0,1c0,10.4-7.9,22.4-22.4,22.4
			c-4.4,0-8.6-1.3-12-3.5c0.6,0.1,1.2,0.1,1.9,0.1c3.7,0,7.1-1.3,9.8-3.4c-3.4-0.1-6.3-2.4-7.3-5.5c0.5,0.1,1,0.1,1.5,0.1
			c0.7,0,1.4-0.1,2.1-0.3c-3.6-0.7-6.3-3.9-6.3-7.7v-0.1c1.1,0.6,2.3,0.9,3.6,1c-2.1-1.4-3.5-3.8-3.5-6.5c0-1.4,0.4-2.8,1.1-3.9
			c3.9,4.8,9.7,7.9,16.2,8.2c-0.1-0.6-0.2-1.2-0.2-1.8c0-4.4,3.5-7.9,7.9-7.9c2.3,0,4.3,1,5.7,2.5c1.8-0.4,3.5-1,5-1.9
			c-0.6,1.8-1.8,3.4-3.5,4.4c1.6-0.2,3.1-0.6,4.5-1.2C323.2,290.7,321.8,292,320.3,293.1 M304.9,270.8l-25.2,14.6v29.2l25.2,14.6
			l25.2-14.6v-29.2L304.9,270.8z"/>
	</g>
</g>
</svg>
