<?xml version="1.0" encoding="UTF-8" standalone="no"?>
<svg width="9px" height="18px" viewBox="0 0 9 18" version="1.1" xmlns="http://www.w3.org/2000/svg" xmlns:xlink="http://www.w3.org/1999/xlink">
    <!-- Generator: Sketch 39.1 (31720) - http://www.bohemiancoding.com/sketch -->
    <title>fb</title>
    <desc>Created with Sketch.</desc>
    <defs></defs>
    <g id="Page-1" stroke="none" stroke-width="1" fill="none" fill-rule="evenodd">
        <g id="fb" fill="#666666">
            <path d="M3.451,0.517662603 C2.788,0.876662603 2.324,1.3576626 2.069,1.9476626 C1.831,2.5006626 1.715,3.2856626 1.715,4.3506626 L1.715,4.7116626 L0,4.7116626 L0,8.1736626 L1.715,8.1736626 L1.715,17.4146626 L5.835,17.4146626 L5.835,8.1736626 L8.142,8.1736626 L8.142,4.7116626 L5.835,4.7116626 L5.835,4.4056626 C5.835,3.7386626 5.971,3.5716626 5.989,3.5526626 C6.077,3.4566626 6.285,3.4056626 6.572,3.4056626 C6.981,3.4056626 7.418,3.4586626 7.869,3.5676626 L8.392,3.6926626 L9,0.557662603 L8.56,0.417662603 C6.774,-0.142337397 4.713,-0.168337397 3.451,0.517662603" id="Fill-1"></path>
        </g>
    </g>
</svg>