<?xml version="1.0" encoding="UTF-8" standalone="no"?>
<svg width="176px" height="104px" viewBox="0 0 176 104" version="1.1" xmlns="http://www.w3.org/2000/svg" xmlns:xlink="http://www.w3.org/1999/xlink">
    <!-- Generator: Sketch 39.1 (31720) - http://www.bohemiancoding.com/sketch -->
    <title>Page 1</title>
    <desc>Created with Sketch.</desc>
    <defs>
        <polygon id="path-1" points="0.6431 104 104.0961 104 104.0961 0.5484 0.6431 0.5484 0.6431 104"></polygon>
        <polygon id="path-3" points="0 0.2131 0 36.8931 36.6699 36.8931 36.6699 0.2131 6.77626358e-21 0.2131"></polygon>
    </defs>
    <g id="Page-1" stroke="none" stroke-width="1" fill="none" fill-rule="evenodd">
        <g transform="translate(0.000000, -1.000000)">
            <g id="Group-3" transform="translate(41.000000, 0.452000)">
                <mask id="mask-2" fill="white">
                    <use xlink:href="#path-1"></use>
                </mask>
                <g id="Clip-2"></g>
                <polygon id="Fill-1" fill="#D20911" mask="url(#mask-2)" points="0.6431 52.2734 52.3701 0.5484 104.0961 52.2734 52.3701 104.0004"></polygon>
            </g>
            <polygon id="Fill-4" fill="#0072BB" points="83.9248 31.3807 58.8328 78.3347 11.8768 53.2427 36.9698 6.2927"></polygon>
            <g id="Group-8" transform="translate(0.000000, 44.452000)">
                <mask id="mask-4" fill="white">
                    <use xlink:href="#path-3"></use>
                </mask>
                <g id="Clip-7"></g>
                <polygon id="Fill-6" fill="#D20911" mask="url(#mask-4)" points="36.6699 12.9931 23.8999 36.8931 -0.0001 24.1131 12.7729 0.2131"></polygon>
            </g>
            <polygon id="Fill-9" fill="#71196F" points="54.0469 18.9056 89.4499 2.8306 105.5259 38.2406 70.1219 54.3156"></polygon>
            <polygon id="Fill-11" fill="#E60064" points="155.6836 60.3797 119.5236 84.5517 95.3376 48.3917 131.5096 24.2177"></polygon>
            <polygon id="Fill-13" fill="#3F1F71" points="164.8047 69.0652 135.2717 82.5982 121.9107 53.4452 151.4487 39.9102"></polygon>
            <polygon id="Fill-15" fill="#E84E0F" points="176 47.3675 171.488 69.3975 149.734 64.9505 154.248 42.9175"></polygon>
            <polygon id="Fill-17" fill="#E60064" points="157.9268 49.2005 164.0158 37.0985 175.9578 43.1065 169.8698 55.2165"></polygon>
            <path d="M162.0996,50.8035 C162.0296,49.4805 161.0886,48.3805 159.7886,48.3805 C158.4186,48.3805 157.5086,49.3635 157.2716,50.8035 L162.0936,50.8035 L162.0996,50.8035 Z M157.2796,52.9735 C157.3496,54.5985 158.2796,55.6705 159.9296,55.6705 C160.8696,55.6705 161.7796,55.2355 162.1386,54.3695 L165.7716,54.3695 C165.0666,57.1145 162.5326,58.3035 159.8766,58.3035 C156.0116,58.3035 153.3836,55.9715 153.3836,51.9915 C153.3836,48.3615 156.2856,45.7575 159.7846,45.7575 C164.0356,45.7575 166.1596,48.9575 165.9746,52.9795 L157.2676,52.9795 L157.2796,52.9735 Z M145.4496,46.0965 L149.2186,46.0965 L149.2186,48.1715 L149.2586,48.1715 C149.8286,46.6695 151.1596,45.8655 152.8186,45.8655 C153.1196,45.8655 153.4396,45.8895 153.7386,45.9555 L153.7386,49.5055 C153.2386,49.3655 152.7696,49.2755 152.2486,49.2755 C150.3286,49.2755 149.3256,50.5955 149.3256,52.0855 L149.3256,57.9575 L145.4396,57.9575 L145.4396,46.1055 L145.4496,46.0965 Z M138.4686,55.3305 C140.2696,55.3305 140.8386,53.5455 140.8386,52.0415 C140.8386,50.5375 140.2696,48.7255 138.4596,48.7255 C136.6506,48.7255 136.1056,50.5335 136.1056,52.0405 C136.1056,53.5475 136.6486,55.3325 138.4596,55.3325 L138.4686,55.3305 Z M138.4686,45.7555 C142.1386,45.7555 144.7186,48.4755 144.7186,52.0405 C144.7186,55.6065 142.1386,58.3025 138.4586,58.3025 C134.7736,58.3025 132.2186,55.6055 132.2186,52.0375 C132.2186,48.4705 134.7736,45.7515 138.4586,45.7515 L138.4686,45.7555 Z M123.2676,51.9035 C123.2676,53.9835 123.8596,55.3325 125.6196,55.3325 C127.3596,55.3325 127.9496,53.5235 127.9496,51.9035 C127.9496,50.3935 127.3496,48.7235 125.6326,48.7235 C124.5896,48.7235 123.2566,49.4565 123.2566,51.9035 L123.2676,51.9035 Z M119.5216,46.0985 L123.2146,46.0985 L123.2146,47.4685 L123.2656,47.4685 C124.0256,46.3505 125.1646,45.7555 126.5396,45.7555 C130.2636,45.7555 131.8396,48.9555 131.8396,52.2895 C131.8396,55.3795 130.1896,58.3065 126.8296,58.3065 C125.3726,58.3065 124.2476,57.7565 123.4506,56.6835 L123.4026,56.6835 L123.4026,61.9375 L119.5236,61.9375 L119.5236,46.1055 L119.5216,46.0985 Z M112.4116,55.9055 C114.2656,55.9055 114.8816,54.8545 114.7916,52.4075 C114.2406,52.7475 113.2346,52.8175 112.3906,53.0475 C111.5256,53.2485 110.7896,53.6175 110.7896,54.5535 C110.7896,55.5135 111.5446,55.9035 112.4116,55.9035 L112.4116,55.9055 Z M107.3816,49.7545 C107.4566,48.1995 108.1896,47.1945 109.2386,46.5775 C110.2866,45.9805 111.6616,45.7575 113.0076,45.7575 C115.8206,45.7575 118.5386,46.3735 118.5386,49.7325 L118.5386,54.9225 C118.5386,55.9325 118.5386,57.0305 118.9956,57.9655 L115.0876,57.9655 C114.9506,57.5955 114.9046,57.2355 114.8616,56.8455 C113.8616,57.8955 112.3706,58.3105 110.9516,58.3105 C108.6916,58.3105 106.9116,57.1645 106.9116,54.7175 C106.9116,50.8555 111.1196,51.1555 113.8206,50.6035 C114.4806,50.4735 114.8456,50.2435 114.8456,49.5135 C114.8456,48.6235 113.7696,48.2835 112.9726,48.2835 C111.9026,48.2835 111.2076,48.7605 111.0296,49.7655 L107.3966,49.7655 L107.3816,49.7545 Z M100.1616,48.7345 C98.4526,48.7345 97.9006,50.2445 97.9006,51.7045 C97.9006,53.0945 98.5426,54.4845 100.1446,54.4845 C101.7906,54.4845 102.5016,53.2045 102.5016,51.7245 C102.5016,50.2125 101.9046,48.7245 100.1616,48.7245 L100.1616,48.7345 Z M106.1736,56.5305 C106.1736,58.4705 105.8146,62.1275 100.2536,62.1275 C97.4946,62.1275 94.8866,61.5115 94.4296,58.3325 L98.3086,58.3325 C98.3986,58.8605 98.6096,59.1835 98.9686,59.3645 C99.3126,59.5455 99.7866,59.6145 100.3786,59.6145 C102.2346,59.6145 102.4226,58.3135 102.4226,56.8505 L102.4226,55.7305 L102.3726,55.7305 C101.6586,56.8305 100.4726,57.4675 99.2226,57.4675 C95.6326,57.4675 94.0046,54.9075 94.0046,51.5675 C94.0046,48.4145 95.8556,45.7645 99.2206,45.7645 C100.6406,45.7645 101.7046,46.3745 102.4006,47.5945 L102.4456,47.5945 L102.4456,46.1045 L106.1646,46.1045 L106.1646,56.5255 L106.1736,56.5305 Z M81.5036,46.1085 L85.2736,46.1085 L85.2736,47.7315 L85.3186,47.7315 C86.0186,46.5195 87.6196,45.7655 89.0386,45.7655 C92.9986,45.7655 93.3086,48.6425 93.3086,50.3555 L93.3086,57.9695 L89.4296,57.9695 L89.4296,52.2335 C89.4296,50.6075 89.6096,48.9635 87.4866,48.9635 C86.0226,48.9635 85.3826,50.1995 85.3826,51.5005 L85.3826,57.9685 L81.5026,57.9685 L81.5026,46.1085 L81.5036,46.1085 Z M76.9106,57.9685 L80.7956,57.9685 L80.7956,46.1085 L76.9106,46.1085 L76.9106,57.9685 Z M80.7936,44.6235 L76.9106,44.6235 L76.9106,41.6515 L80.7946,41.6515 L80.7946,44.6235 L80.7936,44.6235 Z M66.2236,52.4855 C66.3136,54.4055 67.5036,55.0205 69.3076,55.0205 C70.5876,55.0205 71.9116,54.5635 71.9116,53.3535 C71.9116,51.9135 69.5816,51.6375 67.2296,50.9765 C64.8996,50.3165 62.4536,49.2665 62.4536,46.2765 C62.4536,42.7135 66.0396,41.3215 69.1046,41.3215 C72.3486,41.3215 75.6156,42.8965 75.6386,46.5765 L71.3886,46.5765 C71.4566,45.0905 70.0646,44.6095 68.7616,44.6095 C67.8506,44.6095 66.7106,44.9325 66.7106,45.9995 C66.7106,47.2595 69.0606,47.4895 71.4406,48.1495 C73.7976,48.8095 76.1706,49.9095 76.1706,52.8595 C76.1706,56.9965 72.6506,58.3235 69.0606,58.3235 C65.3206,58.3235 62.0006,56.6775 61.9806,52.4975 L66.2306,52.4975 L66.2236,52.4855 Z M56.1006,46.1095 L59.8706,46.1095 L59.8706,48.1845 L59.9166,48.1845 C60.4866,46.6745 61.8136,45.8745 63.4816,45.8745 C63.7786,45.8745 64.1006,45.8945 64.3956,45.9645 L64.3956,49.5145 C63.8936,49.3745 63.4356,49.2845 62.9096,49.2845 C60.9886,49.2845 59.9786,50.6045 59.9786,52.0945 L59.9786,57.9645 L56.1006,57.9645 L56.1006,46.1055 L56.1006,46.1095 Z M55.3916,57.9695 L51.6226,57.9695 L51.6226,56.3455 L51.5766,56.3455 C50.8446,57.5535 49.3356,58.3135 47.9656,58.3135 C44.5596,58.3135 43.5796,56.3435 43.5796,53.2395 L43.5796,46.1085 L47.4586,46.1085 L47.4586,52.9865 C47.4586,54.5665 48.1396,55.1155 49.3786,55.1155 C50.2186,55.1155 51.4986,54.5665 51.4986,52.4665 L51.4986,46.1165 L55.3816,46.1165 L55.3816,57.9765 L55.3916,57.9695 Z M36.5846,55.3425 C38.3916,55.3425 38.9626,53.5575 38.9626,52.0505 C38.9626,50.5435 38.3916,48.7345 36.5846,48.7345 C34.7806,48.7345 34.2316,50.5345 34.2316,52.0445 C34.2316,53.5545 34.7826,55.3345 36.5846,55.3345 L36.5846,55.3425 Z M36.5846,45.7655 C40.2646,45.7655 42.8486,48.4855 42.8486,52.0515 C42.8486,55.6175 40.2586,58.3145 36.5796,58.3145 C32.8986,58.3145 30.3386,55.6145 30.3386,52.0445 C30.3386,48.4745 32.8986,45.7545 36.5756,45.7545 L36.5846,45.7655 Z M28.2666,51.8895 L28.2666,57.9695 L24.0166,57.9695 L24.0166,51.8895 L18.0796,41.6515 L22.8996,41.6515 L26.1446,48.2795 L29.3876,41.6515 L34.2106,41.6515 L28.2706,51.8895 L28.2666,51.8895 Z" id="Fill-19" fill="#FFFFFF"></path>
        </g>
    </g>
</svg>