<?xml version="1.0" encoding="UTF-8" standalone="no"?>
<svg width="24px" height="14px" viewBox="0 0 24 14" version="1.1" xmlns="http://www.w3.org/2000/svg" xmlns:xlink="http://www.w3.org/1999/xlink">
    <!-- Generator: Sketch 39.1 (31720) - http://www.bohemiancoding.com/sketch -->
    <title>vk</title>
    <desc>Created with Sketch.</desc>
    <defs></defs>
    <g id="Page-1" stroke="none" stroke-width="1" fill="none" fill-rule="evenodd">
        <g id="vk" fill="#666666">
            <path d="M19.2031,13.5665 L19.0921,13.5665 C17.8931,13.3695 17.0761,12.5235 16.3811,11.7405 C15.9861,11.2965 15.3841,10.2965 14.6651,10.4125 C13.6431,10.5765 14.1491,12.3205 13.7241,13.0685 C13.3801,13.6715 11.9131,13.5625 10.9011,13.4555 C7.7101,13.1175 6.0791,11.4135 4.6481,9.5825 C3.1201,7.6255 1.9311,5.5775 0.8301,3.3285 C0.4741,2.5995 0.0001,1.7955 0.0001,0.8925 C0.5181,0.4705 1.3611,0.6175 2.2141,0.6175 C2.9351,0.6175 4.0631,0.4585 4.5931,0.7265 C4.9061,0.8865 5.2251,1.7355 5.4781,2.2775 C6.0601,3.5185 6.5981,4.4145 7.3051,5.4305 C7.6111,5.8725 8.0821,6.7045 8.6331,6.5925 C9.1681,6.4865 9.2181,5.1685 9.2411,4.3245 C9.2681,3.3675 9.2401,2.1765 8.9651,1.6685 C8.7051,1.1895 8.2281,1.1785 7.7481,0.8925 C8.1471,0.0875 9.2461,0.0075 10.5691,0.0075 C11.6831,0.0075 13.2341,-0.1165 13.6691,0.6175 C14.1101,1.3625 13.8081,2.7075 13.7791,3.7155 C13.7481,4.8475 13.5531,6.0175 14.3331,6.5385 C14.9341,6.4725 15.2571,5.8875 15.6051,5.4305 C16.3691,4.4305 16.8421,3.5655 17.4321,2.2775 C17.6741,1.7485 17.9341,0.8375 18.3731,0.6715 C19.0411,0.4185 20.1051,0.6175 21.0851,0.6175 C21.8861,0.6175 23.3171,0.3945 23.5741,0.9495 C23.7881,1.4085 23.1601,2.5675 22.9661,2.8845 C22.2261,4.1005 21.4981,4.8745 20.6961,5.9285 C20.3771,6.3495 19.7181,7.0265 19.7561,7.7005 C19.7851,8.2115 20.3011,8.6045 20.6961,8.9725 C21.5571,9.7695 22.1581,10.3515 22.8541,11.2425 C23.1171,11.5775 23.6841,12.3015 23.6301,12.7365 C23.4621,14.0875 20.2761,13.2405 19.2031,13.5665" id="Fill-1"></path>
        </g>
    </g>
</svg>