<?xml version="1.0" standalone="no"?>
<!DOCTYPE svg PUBLIC "-//W3C//DTD SVG 1.1//EN" "http://www.w3.org/Graphics/SVG/1.1/DTD/svg11.dtd" >
<svg xmlns="http://www.w3.org/2000/svg">
<metadata>
Generated by SVGconv.
</metadata>
<defs>
<font id="PolytechSans-Medium" horiz-adv-x="702" >
<font-face units-per-em="1000" ascent="975" descent="225" />
<missing-glyph horiz-adv-x="500" />
<glyph unicode="&#13;" horiz-adv-x="256" />
<glyph unicode="&#32;" horiz-adv-x="256" />
<glyph unicode="&#33;" horiz-adv-x="345" d="M227 216h-109l-26 507h161zM90 74q0 33 24 57.5q24 24.5 58 24.5q17 0 32 -6.5q15 -6.5 26.5 -18q11.5 -11.5 18 -26.5q6.5 -15 6.5 -31q0 -33 -24 -56.5q-24 -23.5 -59 -23.5q-34 0 -58 23.5t-24 56.5z" />
<glyph unicode="&#34;" horiz-adv-x="361" d="M20 666q0 31 18 50.5q18 19.5 50 19.5q32 0 50 -19.5q18 -19.5 18 -50.5q0 -7 -1 -16q-1 -9 -2 -14l-39 -194h-53l-38 196q-1 5 -2 12.5q-1 7.5 -1 15.5zt0 0zM205 666q0 31 18 50.5q18 19.5 50 19.5q32 0 50 -19.5q18 -19.5 18 -50.5q0 -7 -1 -16q-1 -9 -2 -14l-39 -194h-53l-38 196q-1 5 -2 12.5t-1 15.5z" />
<glyph unicode="&#35;" horiz-adv-x="668" d="M85 512h142l48 183h97l-47 -183h110l47 183h97l-48 -183h110v-95h-133l-35 -139h119v-95h-142l-47 -183h-98l48 183h-111l-46 -183h-97l47 183h-110v95h132l36 139h-119zM267 278h108q2 8 7.5 27.5q5.5 19.5 11.5 42q6 22.5 11 42q5 19.5 7 27.5l-111 0z" />
<glyph unicode="&#36;" horiz-adv-x="554" d="M233 3q-45 4 -78.5 18.5q-33.5 14.5 -58.5 35.5q-25 21 -42 47q-17 26 -28 54q28 12 56 23.5q28 11.5 56 22.5q11 -34 34 -58.5q23 -24.5 61 -32.5l0 179h-2q-39 8 -73 24q-34 16 -59 40q-25 24 -39.5 55q-14.5 31 -14.5 70q0 76 48.5 129q48.5 53 139.5 63l0 105h95v-105q73 -10 117 -47q44 -37 65 -86q-26 -12 -50.5 -24q-24.5 -12 -49.5 -25q-10 23 -31.5 44.5q-21.5 21.5 -50.5 26.5l0 -172q196 -49 196 -194q0 -36 -13 -68.5q-13 -32.5 -38 -58q-25 -25.5 -61.5 -42.5q-36.5 -17 -83.5 -23l0 -97h-95zM327 271q0 -3 -0.5 -5.5q-0.5 -2.5 -1.5 -5.5l0 -151q37 10 56.5 31q19.5 21 19.5 50q0 26 -15.5 46.5q-15.5 20.5 -58.5 34.5zt0 0zM164 491q0 -35 20.5 -52.5q20.5 -17.5 49.5 -28.5l0 160q-35 -8 -52.5 -30.5t-17.5 -48.5z" />
<glyph unicode="&#37;" horiz-adv-x="771" d="M671 677l-548 -717q-4 3 -13.5 10q-9.5 7 -20.5 14.5q-11 7.5 -20.5 14.5q-9.5 7 -12.5 9l551 719zM31 532q0 34 12.5 63.5q12.5 29.5 34.5 51q22 21.5 53 34q31 12.5 67 12.5q37 0 67.5 -12.5q30.5 -12.5 53 -34q22.5 -21.5 35 -51q12.5 -29.5 12.5 -63.5q0 -34 -12.5 -63q-12.5 -29 -35 -50.5q-22.5 -21.5 -53 -34q-30.5 -12.5 -67.5 -12.5q-36 0 -67 12.5q-31 12.5 -53 34q-22 21.5 -34.5 50.5q-12.5 29 -12.5 63zt0 0zM124 532q0 -33 19.5 -55.5q19.5 -22.5 54.5 -22.5q35 0 55 22.5q20 22.5 20 55.5q0 33 -20 55.5q-20 22.5 -55 22.5q-35 0 -54.5 -22.5q-19.5 -22.5 -19.5 -55.5zt0 0zM365 150q0 34 12.5 63.5q12.5 29.5 34.5 51q22 21.5 53 34q31 12.5 67 12.5q37 0 67.5 -12.5q30.5 -12.5 53 -34q22.5 -21.5 35 -51q12.5 -29.5 12.5 -63.5q0 -33 -12.5 -62.5q-12.5 -29.5 -35 -51q-22.5 -21.5 -53 -34q-30.5 -12.5 -67.5 -12.5q-36 0 -67 12.5q-31 12.5 -53 34q-22 21.5 -34.5 51q-12.5 29.5 -12.5 62.5zt0 0zM458 150q0 -32 19.5 -55q19.5 -23 54.5 -23q35 0 55.5 23q20.5 23 20.5 55q0 34 -20.5 56.5q-20.5 22.5 -55.5 22.5q-35 0 -54.5 -22.5t-19.5 -56.5z" />
<glyph unicode="&#38;" horiz-adv-x="720" d="M478 81q-23 -23 -45 -40q-22 -17 -45.5 -28.5q-23.5 -11.5 -51 -17.5q-27.5 -6 -60.5 -6q-56 0 -96 15q-40 15 -65.5 40.5q-25.5 25.5 -38 59.5q-12.5 34 -12.5 71q0 36 11 64.5q11 28.5 30.5 52.5q19.5 24 44.5 43.5q25 19.5 54 37.5q-12 12 -26.5 29.5q-14.5 17.5 -27 38.5q-12.5 21 -21 46q-8.5 25 -8.5 53q0 46 17 80.5q17 34.5 45.5 57.5q28.5 23 65 34.5q36.5 11.5 76.5 11.5q41 0 76.5 -12q35.5 -12 61 -34q25.5 -22 40 -53q14.5 -31 14.5 -69q0 -34 -13 -62q-13 -28 -33 -52q-20 -24 -44 -43.5q-24 -19.5 -47 -35.5l107 -113l77 78l82 -77l-83 -84l94 -98l-89 -83zM282 99q32 0 60.5 18q28.5 18 57.5 47l-123 131q-17 -15 -31.5 -26q-14.5 -11 -25 -23q-10.5 -12 -17 -27q-6.5 -15 -7.5 -37q0 -14 5.5 -29q5.5 -15 16 -27q10.5 -12 26.5 -19.5q16 -7.5 38 -7.5zt0 0zM322 619q-28 0 -52 -16q-24 -16 -25 -53l0 -2q0 -23 11 -43q11 -20 24 -34l26 -30l37 25q30 23 41.5 43.5q11.5 20.5 11.5 40.5q0 31 -19.5 50t-54.5 19z" />
<glyph unicode="&#39;" horiz-adv-x="176" d="M20 666q0 31 18 50.5q18 19.5 50 19.5q32 0 50 -19.5q18 -19.5 18 -50.5q0 -7 -1 -16q-1 -9 -2 -14l-39 -194h-53l-38 196q-1 5 -2 12.5t-1 15.5z" />
<glyph unicode="&#40;" horiz-adv-x="324" d="M56 293q0 83 17 154.5q17 71.5 44.5 132q27.5 60.5 62 111.5q34.5 51 68.5 93q4 -2 14.5 -8.5q10.5 -6.5 22.5 -14q12 -7.5 22.5 -14.5q10.5 -7 13.5 -9q-65 -90 -103 -198.5q-38 -108.5 -38 -246.5q0 -72 10 -133q10 -61 28.5 -114q18.5 -53 44.5 -100.5q26 -47.5 58 -92.5q-4 -2 -14.5 -9q-10.5 -7 -22.5 -14.5q-12 -7.5 -22.5 -14q-10.5 -6.5 -13.5 -8.5q-34 43 -68.5 92.5q-34.5 49.5 -62 109q-27.5 59.5 -44.5 130t-17 154.5z" />
<glyph unicode="&#41;" horiz-adv-x="324" d="M273 293q0 -84 -17 -154.5q-17 -70.5 -44.5 -130q-27.5 -59.5 -62 -109q-34.5 -49.5 -68.5 -92.5q-3 2 -14 9q-11 7 -23 14.5q-12 7.5 -22.5 14q-10.5 6.5 -13.5 8.5q32 45 58 92.5q26 47.5 44.5 100.5q18.5 53 28.5 114q10 61 10 133q0 138 -38 246.5q-38 108.5 -103 198.5q4 2 14.5 9q10.5 7 22.5 14.5q12 7.5 22.5 14q10.5 6.5 13.5 8.5q34 -42 68 -93q34 -51 61.5 -111.5q27.5 -60.5 45 -132t17.5 -154.5z" />
<glyph unicode="&#42;" horiz-adv-x="490" d="M286 593l130 43q9 -25 14 -40q5 -15 8 -23q3 -8 4.5 -11.5q1.5 -3.5 2.5 -5.5l-134 -41q6 -6 16.5 -20q10.5 -14 23 -30q12.5 -16 24.5 -32.5q12 -16.5 20 -27.5q-17 -13 -34 -24.5q-17 -11.5 -34 -23.5l-82 113q-19 -27 -41 -56.5q-22 -29.5 -41 -56.5l-69 50l82 108q-41 13 -65.5 20.5q-24.5 7.5 -38 11.5q-13.5 4 -19.5 5.5q-6 1.5 -10 3.5q8 22 15 40.5q7 18.5 15 39.5l128 -44q0 37 0 61q0 24 -0.5 39q-0.5 15 -0.5 23q0 8 0 13l88 0z" />
<glyph unicode="&#43;" horiz-adv-x="601" d="M253 362v195h103v-195h197v-99h-197v-197h-103v197h-196l0 99z" />
<glyph unicode="&#44;" horiz-adv-x="245" d="M5 -156l64 112q5 10 6.5 16q1.5 6 1.5 11q0 11 -16 23q-11 9 -21 23.5q-10 14.5 -10 40.5q0 39 25 59q25 20 60 20q20 0 35 -7.5q15 -7.5 25 -19.5q10 -12 15 -27q5 -15 5 -30q0 -15 -5 -32q-5 -17 -19 -40l-85 -149z" />
<glyph unicode="&#45;" horiz-adv-x="405" d="M46 258v103h313l0 -103z" />
<glyph unicode="&#46;" horiz-adv-x="213" d="M26 68q0 34 23 57.5q23 23.5 57 23.5q34 0 57.5 -23.5q23.5 -23.5 23.5 -57.5q0 -34 -23.5 -57q-23.5 -23 -57.5 -23q-34 0 -57 23t-23 57z" />
<glyph unicode="&#47;" horiz-adv-x="528" d="M121 -28h-105q6 11 28.5 53.5q22.5 42.5 56 105.5q33.5 63 75.5 141q42 78 85.5 161q43.5 83 86.5 165.5q43 82.5 80 153.5l106 0z" />
<glyph unicode="&#48;" horiz-adv-x="583" d="M150 352q0 -116 34.5 -183.5q34.5 -67.5 106.5 -67.5q72 0 106.5 67.5q34.5 67.5 34.5 183.5q0 57 -8.5 102.5q-8.5 45.5 -26 77.5q-17.5 32 -44 49.5q-26.5 17.5 -62.5 17.5q-72 0 -106.5 -66.5q-34.5 -66.5 -34.5 -180.5zt0 0zM17 352q0 74 16 140q16 66 49.5 115.5q33.5 49.5 85 78q51.5 28.5 123.5 28.5q71 0 123 -28.5q52 -28.5 85.5 -78q33.5 -49.5 49.5 -115.5q16 -66 16 -140q0 -75 -16 -141.5q-16 -66.5 -49.5 -116q-33.5 -49.5 -85.5 -78q-52 -28.5 -123 -28.5q-71 0 -123 28.5q-52 28.5 -85.5 78q-33.5 49.5 -49.5 116t-16 141.5z" />
<glyph unicode="&#49;" horiz-adv-x="583" d="M413 0h-134v532l-145 -158l-78 81l230 246l127 0z" />
<glyph unicode="&#50;" horiz-adv-x="583" d="M48 0v108l272 269q30 29 48 57.5q18 28.5 18 67.5q0 17 -6 34.5q-6 17.5 -18.5 32q-12.5 14.5 -31 23.5q-18.5 9 -42.5 9q-49 0 -78 -30q-29 -30 -34 -87q-32 6 -63 12q-31 6 -63 11q7 52 27.5 90.5q20.5 38.5 52 64q31.5 25.5 73 38.5q41.5 13 89.5 13q52 0 94 -15q42 -15 72 -42.5q30 -27.5 46 -67q16 -39.5 16 -87.5q0 -31 -9.5 -59.5q-9.5 -28.5 -25 -55q-15.5 -26.5 -36.5 -50.5q-21 -24 -45 -46l-189 -176h309l0 -114z" />
<glyph unicode="&#51;" horiz-adv-x="583" d="M152 187q10 -34 27.5 -52q17.5 -18 36 -26.5q18.5 -8.5 34 -9.5q15.5 -1 21.5 -1q30 0 51 9.5q21 9.5 34.5 25q13.5 15.5 19.5 34.5q6 19 6 38q0 28 -9.5 47.5q-9.5 19.5 -25.5 32.5q-16 13 -38 19q-22 6 -47 6h-49v104h42q32 0 52.5 11q20.5 11 32.5 26.5q12 15.5 16.5 32.5q4.5 17 4.5 29q0 38 -22.5 66q-22.5 28 -71.5 28q-9 0 -24 -2.5q-15 -2.5 -30.5 -12.5q-15.5 -10 -29 -29.5q-13.5 -19.5 -17.5 -52.5l-118 31q13 55 39 89q26 34 58.5 52.5q32.5 18.5 68 24.5q35.5 6 65.5 6q49 0 88.5 -13.5q39.5 -13.5 67.5 -38q28 -24.5 43.5 -59.5q15.5 -35 15.5 -78q0 -56 -24.5 -93q-24.5 -37 -58.5 -59q32 -15 52.5 -36q20.5 -21 32 -44q11.5 -23 16 -45q4.5 -22 4.5 -38q0 -53 -19.5 -94.5q-19.5 -41.5 -52.5 -69.5q-33 -28 -77.5 -42.5q-44.5 -14.5 -93.5 -14.5q-96 0 -156 41q-60 41 -85 118z" />
<glyph unicode="&#52;" horiz-adv-x="583" d="M468 253h87v-119h-87v-134h-132v134h-313v114l306 453h139zM336 253v262h-1l-177 -262z" />
<glyph unicode="&#53;" horiz-adv-x="583" d="M489 701v-116h-256q-5 -27 -9 -56q-4 -29 -13 -78q16 8 40 15.5q24 7.5 56 7.5q57 0 101 -17.5q44 -17.5 74 -49.5q30 -32 45.5 -76q15.5 -44 15.5 -97q0 -51 -17.5 -95.5q-17.5 -44.5 -51 -78q-33.5 -33.5 -82 -53q-48.5 -19.5 -109.5 -19.5q-96 0 -154.5 44.5q-58.5 44.5 -83.5 120.5q31 11 62.5 20.5q31.5 9.5 62.5 20.5q14 -44 42 -68.5q28 -24.5 75 -24.5q52 0 86 36.5q34 36.5 34 94.5q0 28 -7.5 53.5q-7.5 25.5 -22.5 44q-15 18.5 -37.5 29.5q-22.5 11 -52.5 11q-26 0 -44.5 -7q-18.5 -7 -31.5 -17.5q-13 -10.5 -21.5 -22.5q-8.5 -12 -14.5 -22q-26 7 -51 13.5q-25 6.5 -51 14.5l60 372z" />
<glyph unicode="&#54;" horiz-adv-x="583" d="M437 701l-156 -231q6 1 12 1q6 0 12 0q51 0 95 -17.5q44 -17.5 76 -48q32 -30.5 50 -73q18 -42.5 18 -92.5q0 -53 -19 -99q-19 -46 -52.5 -80q-33.5 -34 -80 -53.5q-46.5 -19.5 -101.5 -19.5q-66 0 -114.5 24q-48.5 24 -79.5 60q-31 36 -46 78q-15 42 -15 79q0 54 13 92q13 38 27 62q9 16 18.5 31q9.5 15 20.5 32l169 255zM171 237q0 -28 7.5 -53q7.5 -25 22.5 -43.5q15 -18.5 37 -29.5q22 -11 51 -11q30 0 52.5 11q22.5 11 37.5 29.5q15 18.5 22.5 42q7.5 23.5 7.5 48.5q0 28 -9 52.5q-9 24.5 -24.5 42.5q-15.5 18 -37 28.5q-21.5 10.5 -46.5 10.5q-31 0 -53.5 -10.5q-22.5 -10.5 -37.5 -28.5q-15 -18 -22.5 -41t-7.5 -48z" />
<glyph unicode="&#55;" horiz-adv-x="583" d="M519 701v-100q-68 -152 -135.5 -301q-67.5 -149 -135.5 -300l-138 0l268 584h-317l0 117z" />
<glyph unicode="&#56;" horiz-adv-x="583" d="M291 701q49 0 89 -14.5q40 -14.5 69 -40.5q29 -26 45 -61q16 -35 16 -77q0 -25 -7 -46q-7 -21 -17.5 -38q-10.5 -17 -23.5 -30q-13 -13 -26 -23q56 -31 79.5 -76q23.5 -45 23.5 -93q0 -49 -18.5 -88.5q-18.5 -39.5 -51.5 -67.5q-33 -28 -78.5 -43q-45.5 -15 -99.5 -15q-51 0 -96 14.5q-45 14.5 -79 42q-34 27.5 -53.5 67q-19.5 39.5 -19.5 89.5q0 34 10 61q10 27 25 48q15 21 33.5 36q18.5 15 35.5 25q-29 19 -52 54q-23 35 -23 83q0 42 16 77.5q16 35.5 44.5 61q28.5 25.5 69 40q40.5 14.5 89.5 14.5zt0 0zM291 312q-50 0 -80.5 -30.5q-30.5 -30.5 -30.5 -74.5q0 -23 8.5 -42.5q8.5 -19.5 23 -34q14.5 -14.5 35 -23q20.5 -8.5 44.5 -8.5q24 0 44.5 8.5q20.5 8.5 35 23q14.5 14.5 23 34q8.5 19.5 8.5 42.5q0 44 -30.5 74.5q-30.5 30.5 -80.5 30.5zt0 0zM290 593q-41 0 -64 -26.5q-23 -26.5 -23 -59.5q0 -33 22.5 -60.5q22.5 -27.5 64.5 -27.5q44 0 66.5 26.5q22.5 26.5 22.5 61.5q0 33 -23.5 59.5t-65.5 26.5z" />
<glyph unicode="&#57;" horiz-adv-x="583" d="M145 0l156 230q-6 -1 -12 -1.5q-6 -0.5 -12 -0.5q-53 0 -97 18q-44 18 -75.5 49.5q-31.5 31.5 -49 74q-17.5 42.5 -17.5 92.5q0 53 18 99q18 46 51.5 79.5q33.5 33.5 80 53q46.5 19.5 103.5 19.5q66 0 114 -24q48 -24 79.5 -60q31.5 -36 46.5 -78.5q15 -42.5 15 -79.5q0 -34 -5 -60.5q-5 -26.5 -13.5 -49q-8.5 -22.5 -20 -42q-11.5 -19.5 -23.5 -37.5q-47 -71 -93 -141.5q-46 -70.5 -93 -140.5zM411 463q0 28 -7.5 52.5q-7.5 24.5 -22.5 43.5q-15 19 -37 30q-22 11 -51 11q-30 0 -52.5 -11q-22.5 -11 -37.5 -29.5q-15 -18.5 -22.5 -42q-7.5 -23.5 -7.5 -48.5q0 -29 9 -53.5q9 -24.5 24.5 -42.5q15.5 -18 37 -28q21.5 -10 46.5 -10q30 0 53 10.5q23 10.5 38 28.5q15 18 22.5 41t7.5 48z" />
<glyph unicode="&#58;" horiz-adv-x="323" d="M84 446q0 35 24 59q24 24 59 24q35 0 59 -24q24 -24 24 -59q0 -35 -24 -59q-24 -24 -59 -24q-35 0 -59 24q-24 24 -24 59zt0 0zM84 71q0 35 24 59q24 24 59 24q35 0 59 -24q24 -24 24 -59q0 -35 -24 -59q-24 -24 -59 -24q-35 0 -59 24t-24 59z" />
<glyph unicode="&#59;" horiz-adv-x="349" d="M84 446q0 35 24 59q24 24 59 24q35 0 59 -24q24 -24 24 -59q0 -35 -24 -59q-24 -24 -59 -24q-35 0 -59 24q-24 24 -24 59zt0 0zM59 -156l64 112q5 10 6.5 16q1.5 6 1.5 11q0 11 -16 23q-11 9 -21 23.5q-10 14.5 -10 40.5q0 39 25 59q25 20 60 20q20 0 35 -7.5q15 -7.5 25 -19.5q10 -12 15 -27q5 -15 5 -30q0 -15 -5 -32q-5 -17 -19 -40l-85 -149z" />
<glyph unicode="&#60;" horiz-adv-x="499" d="M43 362l417 209v-111l-307 -150q12 -6 36 -18q24 -12 54 -26.5q30 -14.5 63 -30.5q33 -16 63.5 -30.5q30.5 -14.5 54.5 -26.5q24 -12 36 -18l0 -112l-417 209z" />
<glyph unicode="&#61;" horiz-adv-x="618" d="M68 365v99h486v-99zM68 158v98h486l0 -98z" />
<glyph unicode="&#62;" horiz-adv-x="499" d="M463 257q-16 -8 -49 -24.5q-33 -16.5 -74 -37q-41 -20.5 -86 -43q-45 -22.5 -86 -43q-41 -20.5 -73.5 -37q-32.5 -16.5 -48.5 -24.5l0 112l307 150q-12 6 -36 17.5q-24 11.5 -54 26q-30 14.5 -63.5 31q-33.5 16.5 -63.5 31q-30 14.5 -54 26.5q-24 12 -36 18l0 111l417 -209z" />
<glyph unicode="&#63;" horiz-adv-x="506" d="M22 587q28 65 82.5 107q54.5 42 144.5 42q62 0 105.5 -17.5q43.5 -17.5 71.5 -47q28 -29.5 40.5 -67q12.5 -37.5 12.5 -77.5q0 -43 -11.5 -76q-11.5 -33 -32.5 -58.5q-21 -25.5 -51.5 -44q-30.5 -18.5 -68.5 -33.5q-19 -8 -23 -23q-4 -15 -4 -32v-55h-115v56q0 28 1 50q1 22 6.5 39q5.5 17 16 28.5q10.5 11.5 28.5 17.5q37 12 61 25q24 13 38 29q14 16 19.5 35q5.5 19 5.5 43q0 46 -29 69.5q-29 23.5 -70 23.5q-24 0 -43 -7q-19 -7 -33 -18q-14 -11 -23.5 -24.5q-9.5 -13.5 -14.5 -27.5zM154 66q0 33 22.5 56q22.5 23 56.5 23q32 0 55.5 -23q23.5 -23 23.5 -56q0 -15 -6.5 -29q-6.5 -14 -17 -24q-10.5 -10 -25 -16q-14.5 -6 -30.5 -6q-34 0 -56.5 22t-22.5 53z" />
<glyph unicode="&#64;" horiz-adv-x="937" d="M256 281q0 49 15.5 92.5q15.5 43.5 44.5 76q29 32.5 70 51q41 18.5 92 18.5q32 0 62 -14q30 -14 54 -46l9 50h91l-41 -252q0 -8 -1 -17.5q-1 -9.5 -1 -17.5q0 -23 10 -37.5q10 -14.5 31 -14.5q25 0 46 16q21 16 36.5 42.5q15.5 26.5 24 61.5q8.5 35 8.5 73q0 69 -23 123.5q-23 54.5 -65 93q-42 38.5 -100.5 59q-58.5 20.5 -128.5 20.5q-71 0 -134 -25.5q-63 -25.5 -110 -72.5q-47 -47 -74 -114.5q-27 -67.5 -27 -152.5q0 -80 27.5 -142.5q27.5 -62.5 74.5 -105.5q47 -43 110 -65.5q63 -22.5 134 -22.5q51 0 112.5 13.5q61.5 13.5 131.5 49.5l38 -73q-65 -38 -136.5 -56.5q-71.5 -18.5 -145.5 -18.5q-100 0 -182.5 31.5q-82.5 31.5 -142 87.5q-59.5 56 -92 133.5q-32.5 77.5 -32.5 169.5q0 100 35 181q35 81 95.5 139q60.5 58 142.5 89.5q82 31.5 177 31.5q93 0 168 -28q75 -28 127.5 -78.5q52.5 -50.5 81 -119q28.5 -68.5 28.5 -149.5q0 -59 -16.5 -108.5q-16.5 -49.5 -44.5 -86q-28 -36.5 -66.5 -57q-38.5 -20.5 -81.5 -20.5q-40 0 -68.5 14q-28.5 14 -44.5 56q-32 -44 -69.5 -58.5q-37.5 -14.5 -74.5 -14.5q-42 0 -74.5 14.5q-32.5 14.5 -55 40.5q-22.5 26 -34 62q-11.5 36 -11.5 78zt0 0zM482 429q-27 0 -49 -11.5q-22 -11.5 -38 -32q-16 -20.5 -25 -47q-9 -26.5 -9 -56.5q0 -50 22 -77.5q22 -27.5 64 -27.5q27 0 49.5 11.5q22.5 11.5 39 31.5q16.5 20 25.5 48.5q9 28.5 9 61.5q1 44 -20.5 71.5t-67.5 27.5z" />
<glyph unicode="&#65;" horiz-adv-x="695" d="M480 166h-271l-61 -166h-140l265 724h146l268 -724h-146zM246 286h196l-77 210q-6 17 -11.5 33.5q-5.5 16.5 -10.5 36.5l-2 0q-5 -20 -9.5 -35.5q-4.5 -15.5 -11.5 -35.5z" />
<glyph unicode="&#66;" horiz-adv-x="646" d="M365 724q104 0 162 -52q58 -52 58 -144q0 -44 -18.5 -83.5q-18.5 -39.5 -65.5 -63.5q63 -25 89 -70q26 -45 26 -100q0 -49 -16.5 -88q-16.5 -39 -48 -66.5q-31.5 -27.5 -76 -42q-44.5 -14.5 -99.5 -14.5h-288v724zM353 435q45 0 71.5 20.5q26.5 20.5 26.5 62.5q0 42 -27 64q-27 22 -75 22h-126v-169zM360 120q59 0 88 26q29 26 29 70q0 45 -27.5 72q-27.5 27 -88.5 27h-138l0 -195z" />
<glyph unicode="&#67;" horiz-adv-x="737" d="M399 -12q-74 0 -138.5 24.5q-64.5 24.5 -112.5 71.5q-48 47 -76 117q-28 70 -28 160q0 90 28 160q28 70 76.5 117.5q48.5 47.5 113 72.5q64.5 25 137.5 25q64 0 115.5 -17.5q51.5 -17.5 91 -48.5q39.5 -31 67 -74q27.5 -43 42.5 -94l-133 -37q-11 30 -26.5 56.5q-15.5 26.5 -37.5 46.5q-22 20 -51.5 32q-29.5 12 -67.5 12q-48 0 -86.5 -15.5q-38.5 -15.5 -66.5 -47q-28 -31.5 -43 -78.5q-15 -47 -15 -110q0 -62 15.5 -108.5q15.5 -46.5 43.5 -77.5q28 -31 66.5 -47q38.5 -16 85.5 -16q42 0 73 11.5q31 11.5 54 31.5q23 20 38 46.5q15 26.5 25 56.5l132 -38q-17 -50 -44 -92.5q-27 -42.5 -66 -73.5q-39 -31 -92 -48.5t-120 -17.5z" />
<glyph unicode="&#68;" horiz-adv-x="727" d="M88 0v724h241q72 0 136 -23q64 -23 112.5 -68.5q48.5 -45.5 77 -113.5q28.5 -68 28.5 -159q0 -91 -28.5 -158.5q-28.5 -67.5 -77 -112.5q-48.5 -45 -112.5 -67q-64 -22 -136 -22zM307 124q46 0 88 12.5q42 12.5 74 40.5q32 28 51 73q19 45 19 110q0 65 -19 111q-19 46 -51 74.5q-32 28.5 -73.5 41.5q-41.5 13 -86.5 13h-87l0 -476z" />
<glyph unicode="&#69;" horiz-adv-x="590" d="M541 724v-124h-319v-159h286v-124h-286v-193h329v-124h-463l0 724z" />
<glyph unicode="&#70;" horiz-adv-x="576" d="M546 724v-124h-324v-166h261v-124h-261v-310h-134l0 724z" />
<glyph unicode="&#71;" horiz-adv-x="771" d="M602 0v66q-38 -30 -88 -54q-50 -24 -124 -24q-71 0 -134 24q-63 24 -110 71.5q-47 47.5 -74.5 117q-27.5 69.5 -27.5 161.5q0 91 29 160.5q29 69.5 77.5 117q48.5 47.5 113 72q64.5 24.5 136.5 24.5q65 0 116.5 -15.5q51.5 -15.5 90.5 -44.5q39 -29 67 -69.5q28 -40.5 45 -90.5l-134 -43q-23 63 -66 101q-43 38 -117 38q-45 0 -84.5 -15q-39.5 -15 -68 -46q-28.5 -31 -45 -78q-16.5 -47 -16.5 -111q0 -64 16.5 -111q16.5 -47 45.5 -78q29 -31 68 -46q39 -15 84 -15q88 0 136 43q48 43 55 117l-189 0v119h323l0 -391z" />
<glyph unicode="&#72;" horiz-adv-x="734" d="M88 724h134v-288h290v288h134v-724h-134v310h-290v-310l-134 0z" />
<glyph unicode="&#73;" horiz-adv-x="310" d="M222 0h-134v724l134 0z" />
<glyph unicode="&#74;" horiz-adv-x="534" d="M134 202q8 -52 32 -71q24 -19 59 -19q21 0 39 5.5q18 5.5 31 20q13 14.5 20 38q7 23.5 7 59.5v489h134v-475q0 -73 -15.5 -123q-15.5 -50 -45 -80.5q-29.5 -30.5 -71.5 -44q-42 -13.5 -96 -13.5q-95 0 -152.5 46q-57.5 46 -70.5 140z" />
<glyph unicode="&#75;" horiz-adv-x="670" d="M510 0l-234 315l-54 -57v-258h-134v724h134v-311q32 35 68 75q36 40 72.5 80.5q36.5 40.5 72.5 80q36 39.5 68 75.5l171 0l-298 -319l308 -405z" />
<glyph unicode="&#76;" horiz-adv-x="557" d="M222 724v-600h319v-124h-453l0 724z" />
<glyph unicode="&#77;" horiz-adv-x="849" d="M627 0v211q0 35 1 82q1 47 3 89q2 49 5 100v0l-158 -397h-108l-159 401h-3q2 -54 5 -102q1 -21 1.5 -42.5q0.5 -21.5 1.5 -41.5q1 -20 1.5 -37q0.5 -17 0.5 -29v-234h-130v724h159l182 -473q21 53 44 113.5q23 60.5 46 122.5q23 62 46 123q23 61 44 114l152 0l0 -724z" />
<glyph unicode="&#78;" horiz-adv-x="756" d="M541 0l-319 500v-500h-134v724h142q41 -60 78 -119.5q37 -59.5 74 -119q37 -59.5 74 -118.5q37 -59 78 -119l0 476h134l0 -724z" />
<glyph unicode="&#79;" horiz-adv-x="812" d="M406 737q72 0 138 -24q66 -24 115.5 -71.5q49.5 -47.5 79 -117.5q29.5 -70 29.5 -162q0 -92 -29.5 -162q-29.5 -70 -79 -117q-49.5 -47 -115.5 -71q-66 -24 -138 -24q-73 0 -139 24q-66 24 -115.5 71q-49.5 47 -78.5 117q-29 70 -29 162q0 92 29 162q29 70 78.5 117.5q49.5 47.5 115.5 71.5q66 24 139 24zt0 0zM406 613q-48 0 -88 -15.5q-40 -15.5 -69 -47q-29 -31.5 -45 -78.5q-16 -47 -16 -110q0 -63 16 -110q16 -47 45 -78q29 -31 69 -46.5q40 -15.5 88 -15.5q46 0 86 15.5q40 15.5 69 46.5q29 31 46 78q17 47 17 110q0 63 -16 110q-16 47 -45 78.5q-29 31.5 -69 47t-88 15.5z" />
<glyph unicode="&#80;" horiz-adv-x="627" d="M222 276v-276h-134v724h273q57 0 102 -16.5q45 -16.5 76 -46q31 -29.5 47.5 -70q16.5 -40.5 16.5 -87.5q0 -48 -17 -89.5q-17 -41.5 -49 -72q-32 -30.5 -78 -48.5q-46 -18 -103 -18zM351 400q22 0 42 7q20 7 35 20q15 13 24 32.5q9 19.5 9 44.5q0 25 -9 43q-9 18 -24 30q-15 12 -35 17.5q-20 5.5 -42 5.5h-129l0 -200z" />
<glyph unicode="&#81;" horiz-adv-x="815" d="M402 737q72 0 137 -24q65 -24 114 -71.5q49 -47.5 78 -117.5q29 -70 29 -162q0 -73 -18.5 -131.5q-18.5 -58.5 -50.5 -103.5l80 -81l-89 -86l-81 82q-43 -27 -93.5 -40.5q-50.5 -13.5 -105.5 -13.5q-73 0 -138 24q-65 24 -114 71q-49 47 -77.5 117q-28.5 70 -28.5 162q0 92 28.5 162q28.5 70 77.5 117.5q49 47.5 114 71.5q65 24 138 24zt0 0zM402 613q-96 0 -155 -62.5q-59 -62.5 -59 -188.5q0 -126 59 -188q59 -62 155 -62q29 0 56.5 5.5q27.5 5.5 50.5 19.5l-137 141l89 81l129 -131q14 27 20 60.5q6 33.5 6 73.5q0 63 -15.5 110q-15.5 47 -44 78.5q-28.5 31.5 -67.5 47t-87 15.5z" />
<glyph unicode="&#82;" horiz-adv-x="644" d="M363 724q55 0 97.5 -16q42.5 -16 71.5 -44.5q29 -28.5 44 -67.5q15 -39 15 -85q0 -72 -39.5 -126q-39.5 -54 -110.5 -76q8 -13 23 -37.5q15 -24.5 33 -54.5q18 -30 38 -62.5q20 -32.5 38.5 -62.5q18.5 -30 33.5 -54.5q15 -24.5 23 -37.5l-159 0l-175 295h-74v-295h-134v724zM345 417q46 0 75 23.5q29 23.5 29 70.5q0 48 -29 68.5q-29 20.5 -75 20.5h-123l0 -183z" />
<glyph unicode="&#83;" horiz-adv-x="566" d="M403 532q-17 40 -44 62q-27 22 -77 22q-47 0 -69 -24q-22 -24 -22 -53q0 -40 27 -61.5q27 -21.5 74 -38.5l80 -30q37 -14 67 -32q30 -18 51 -41.5q21 -23.5 32.5 -54q11.5 -30.5 11.5 -70.5q0 -50 -17.5 -91.5q-17.5 -41.5 -50 -71q-32.5 -29.5 -79.5 -46q-47 -16.5 -106 -16.5q-53 0 -93 13q-40 13 -70 35.5q-30 22.5 -50.5 52.5q-20.5 30 -35.5 63l110 59q19 -44 53 -72.5q34 -28.5 90 -28.5q57 0 85 22q28 22 28 64q0 37 -24.5 57q-24.5 20 -75.5 40l-84 32q-36 14 -65.5 32q-29.5 18 -50 43q-20.5 25 -31.5 57.5q-11 32.5 -11 74.5q0 45 16 83q16 38 46 65.5q30 27.5 71.5 43.5q41.5 16 92.5 16q50 0 87.5 -11q37.5 -11 65.5 -30.5q28 -19.5 48 -46.5q20 -27 34 -60z" />
<glyph unicode="&#84;" horiz-adv-x="566" d="M12 724h542v-124h-204v-600h-134v600l-204 0z" />
<glyph unicode="&#85;" horiz-adv-x="704" d="M622 275q0 -72 -20 -125.5q-20 -53.5 -56 -88.5q-36 -35 -85.5 -52q-49.5 -17 -108.5 -17q-59 0 -108.5 17q-49.5 17 -85.5 52q-36 35 -56 88.5q-20 53.5 -20 125.5v449h134v-451q0 -157 136 -157q136 0 136 157v451l134 0z" />
<glyph unicode="&#86;" horiz-adv-x="639" d="M251 0l-243 724h149l162 -536l163 536h149l-243 -724z" />
<glyph unicode="&#87;" horiz-adv-x="942" d="M928 724l-190 -724h-136l-131 479l-132 -479h-136l-189 724h142l121 -518l136 517h116l135 -517l121 518z" />
<glyph unicode="&#88;" horiz-adv-x="657" d="M406 376l249 -376h-158l-171 268l-171 -268h-151l249 376l-228 348h159l150 -241l152 241l153 0z" />
<glyph unicode="&#89;" horiz-adv-x="637" d="M0 724h155l125 -226q12 -21 22 -39q10 -18 21 -39q11 22 21 40.5q10 18.5 26 45.5l120 218h146l-249 -419v-305h-135l0 304z" />
<glyph unicode="&#90;" horiz-adv-x="586" d="M39 0v91l322 509h-308v124h496v-89l-324 -511h331l0 -124z" />
<glyph unicode="&#91;" horiz-adv-x="339" d="M93 -184v932h223v-97h-111v-738h111l0 -97z" />
<glyph unicode="&#92;" horiz-adv-x="528" d="M421 -27q-103 195 -205.5 388.5q-102.5 193.5 -205.5 389.5l104 0q103 -196 205 -389.5q102 -193.5 205 -388.5z" />
<glyph unicode="&#93;" horiz-adv-x="339" d="M23 -184v97h111v738h-111v97h223l0 -932z" />
<glyph unicode="&#94;" horiz-adv-x="578" d="M432 411l-137 227q-20 -32 -43.5 -69.5q-23.5 -37.5 -44 -71q-20.5 -33.5 -35 -58q-14.5 -24.5 -17.5 -28.5l-112 0q8 13 24 39q16 26 36 58q20 32 41.5 67.5q21.5 35.5 41 67.5q19.5 32 35.5 57.5q16 25.5 24 39.5l98 0l202 -329z" />
<glyph unicode="&#95;" horiz-adv-x="533" d="M0 -172v65h533l0 -65z" />
<glyph unicode="&#96;" horiz-adv-x="286" d="M18 721h165l81 -154l-103 0z" />
<glyph unicode="&#97;" horiz-adv-x="528" d="M46 389q8 31 24.5 57.5q16.5 26.5 42.5 45.5q26 19 62.5 29.5q36.5 10.5 84.5 10.5q111 0 163.5 -49q52.5 -49 52.5 -147v-191q0 -12 0.5 -31.5q0.5 -19.5 1.5 -40.5q1 -21 3 -40.5q2 -19.5 4 -32.5l-115 0q-8 13 -10.5 29q-2.5 16 -3.5 35l-3 0q-27 -35 -61.5 -55.5q-34.5 -20.5 -87.5 -20.5q-36 0 -67.5 11q-31.5 11 -54 31q-22.5 20 -35.5 48q-13 28 -13 63q0 44 14.5 75.5q14.5 31.5 41 52.5q26.5 21 64.5 32.5q38 11.5 85 15.5l109 9v25q0 34 -20 55q-20 21 -66 21q-48 0 -70 -18q-22 -18 -31 -50zM348 226l-99 -8q-38 -3 -59 -18q-21 -15 -21 -50q0 -20 15 -39q15 -19 50 -19q53 0 83.5 28.5q30.5 28.5 30.5 83.5z" />
<glyph unicode="&#98;" horiz-adv-x="619" d="M83 756h128v-290q27 32 64.5 49q37.5 17 82.5 17q57 0 99 -21.5q42 -21.5 69 -59q27 -37.5 40.5 -88.5q13.5 -51 13.5 -109q0 -57 -13.5 -106q-13.5 -49 -41.5 -84.5q-28 -35.5 -70.5 -55.5q-42.5 -20 -99.5 -20q-41 0 -79 16.5q-38 16.5 -67 52.5l-2 0v-57h-124zM328 420q-31 0 -54 -12.5q-23 -12.5 -38 -34.5q-15 -22 -22 -52q-7 -30 -7 -64q0 -70 30 -113.5q30 -43.5 89 -43.5q61 0 89.5 45q28.5 45 28.5 115q0 34 -7 63q-7 29 -21 50.5q-14 21.5 -36 34t-52 12.5z" />
<glyph unicode="&#99;" horiz-adv-x="555" d="M304 420q-65 0 -97 -44.5q-32 -44.5 -32 -114.5q0 -73 31.5 -117q31.5 -44 96.5 -44q48 0 77.5 25.5q29.5 25.5 46.5 63.5q7 -3 23.5 -10q16.5 -7 34 -14.5q17.5 -7.5 33 -14q15.5 -6.5 22.5 -9.5q-29 -68 -87.5 -110.5q-58.5 -42.5 -151.5 -42.5q-61 0 -109.5 21q-48.5 21 -82.5 57.5q-34 36.5 -52 86.5q-18 50 -18 108q0 56 18.5 105.5q18.5 49.5 53 86q34.5 36.5 83 58q48.5 21.5 107.5 21.5q48 0 86 -10.5q38 -10.5 67 -29.5q29 -19 50.5 -46q21.5 -27 35.5 -61l-114 -51q-17 40 -46 63t-76 23z" />
<glyph unicode="&#100;" horiz-adv-x="619" d="M537 0h-124v57h-2q-29 -36 -67 -52.5q-38 -16.5 -79 -16.5q-57 0 -99.5 20q-42.5 20 -70.5 55.5q-28 35.5 -41.5 84.5q-13.5 49 -13.5 106q0 58 14.5 109q14.5 51 43.5 88.5q29 37.5 72 59q43 21.5 100 21.5q42 0 77 -15q35 -15 62 -47l0 286h128zM292 420q-30 0 -52 -12.5q-22 -12.5 -36 -34q-14 -21.5 -21 -50.5q-7 -29 -7 -63q0 -35 7 -64.5q7 -29.5 21.5 -50.5q14.5 -21 36.5 -33q22 -12 53 -12q59 0 89 43.5q30 43.5 30 113.5q0 34 -7 64q-7 30 -22 52q-15 22 -38 34.5t-54 12.5z" />
<glyph unicode="&#101;" horiz-adv-x="575" d="M418 317q-2 22 -11 42q-9 20 -24 35q-15 15 -36.5 23.5q-21.5 8.5 -48.5 8.5q-26 0 -46.5 -8.5q-20.5 -8.5 -35.5 -23.5q-15 -15 -24.5 -35q-9.5 -20 -12.5 -42zM544 125q-37 -66 -92 -101.5q-55 -35.5 -144 -35.5q-66 0 -116 22q-50 22 -83.5 59.5q-33.5 37.5 -50 87q-16.5 49.5 -16.5 104.5q0 54 17 103q17 49 49.5 86.5q32.5 37.5 81 59.5q48.5 22 111.5 22q64 0 111.5 -22.5q47.5 -22.5 79 -59.5q31.5 -37 47 -85.5q15.5 -48.5 15.5 -99.5q0 -8 0 -19.5q0 -11.5 -1 -19.5l-376 0q2 -26 11 -49.5q9 -23.5 25.5 -41q16.5 -17.5 41 -27.5q24.5 -10 57.5 -10q49 0 79 17.5q30 17.5 50 57.5z" />
<glyph unicode="&#102;" horiz-adv-x="327" d="M276 652q-30 0 -48 -17q-18 -17 -18 -60v-55h118v-100h-118v-420h-127v420h-77v100h77v56q0 91 48.5 135.5q48.5 44.5 131.5 44.5q23 0 45 -3q22 -3 36 -8l-13 -102q-15 5 -27 7t-28 2z" />
<glyph unicode="&#103;" horiz-adv-x="529" d="M444 429q15 -20 19.5 -42q4.5 -22 4.5 -42q0 -36 -13.5 -66.5q-13.5 -30.5 -39 -52.5q-25.5 -22 -62.5 -34.5q-37 -12.5 -85 -12.5q-18 0 -38 2.5q-20 2.5 -34 6.5q-9 -5 -16 -13q-7 -8 -7 -19q0 -12 10.5 -20q10.5 -8 33.5 -9l125 -9q94 -5 134 -37.5q40 -32.5 40 -92.5q0 -37 -17 -69q-17 -32 -50.5 -56q-33.5 -24 -83 -37.5q-49.5 -13.5 -114.5 -13.5q-66 0 -109.5 11.5q-43.5 11.5 -69.5 31q-26 19.5 -36.5 44q-10.5 24.5 -10.5 50.5q0 29 18.5 58q18.5 29 57.5 46q-28 18 -37 40.5q-9 22.5 -9 40.5q0 29 18 52q18 23 47 40q-33 23 -49.5 55.5q-16.5 32.5 -16.5 69.5q0 40 14.5 73.5q14.5 33.5 41 57.5q26.5 24 64.5 37q38 13 85 13q23 0 47 -4q24 -4 46 -10l167 0v-89zM144 -38q0 -28 29 -45q29 -17 86 -17q40 0 66.5 6.5q26.5 6.5 42 16q15.5 9.5 22 21.5q6.5 12 6.5 23q0 14 -13.5 27q-13.5 13 -56.5 15l-130 7q-25 -6 -38.5 -21q-13.5 -15 -13.5 -33zt0 0zM180 351q0 -33 19.5 -57q19.5 -24 61.5 -24q42 0 61.5 24q19.5 24 19.5 57q0 34 -20.5 58.5q-20.5 24.5 -60.5 24.5q-40 0 -60.5 -24.5t-20.5 -58.5z" />
<glyph unicode="&#104;" horiz-adv-x="609" d="M204 756v-316q26 53 70.5 72.5q44.5 19.5 94.5 19.5q35 0 65 -11.5q30 -11.5 51.5 -32.5q21.5 -21 34 -50.5q12.5 -29.5 12.5 -65.5v-372h-128v329q0 47 -24.5 69q-24.5 22 -56.5 22q-20 0 -40 -6q-20 -6 -36 -22.5q-16 -16.5 -26 -47.5q-10 -31 -10 -80v-264h-128l0 756z" />
<glyph unicode="&#105;" horiz-adv-x="270" d="M71 0v516h128v-516zM59 643q0 32 22 54q22 22 54 22q32 0 54 -22q22 -22 22 -54q0 -32 -22 -54q-22 -22 -54 -22q-32 0 -54 22t-22 54z" />
<glyph unicode="&#106;" horiz-adv-x="265" d="M72 520h127v-495q0 -47 -9.5 -86q-9.5 -39 -32.5 -67q-23 -28 -60.5 -44q-37.5 -16 -94.5 -16h-37v107h24q42 0 62.5 18.5q20.5 18.5 20.5 63.5zM60 643q0 32 22 54q22 22 54 22q32 0 54 -22q22 -22 22 -54q0 -32 -22 -54q-22 -22 -54 -22q-32 0 -54 22t-22 54z" />
<glyph unicode="&#107;" horiz-adv-x="544" d="M327 290l224 -290h-156q-39 51 -78 102q-39 51 -78 102l-43 -45v-159h-126v756h126v-446l185 210l164 0z" />
<glyph unicode="&#108;" horiz-adv-x="287" d="M209 756v-756h-128l0 756z" />
<glyph unicode="&#109;" horiz-adv-x="905" d="M397 329q0 47 -22.5 69q-22.5 22 -54.5 22q-20 0 -39.5 -5.5q-19.5 -5.5 -34.5 -22.5q-15 -17 -24.5 -47.5q-9.5 -30.5 -9.5 -79.5v-265h-128v520h121v-80h4q26 52 64.5 72q38.5 20 92.5 20q48 0 83.5 -21.5q35.5 -21.5 55.5 -62.5q16 26 34.5 42.5q18.5 16.5 39.5 25.5q21 9 44.5 12.5q23.5 3.5 50.5 3.5q34 0 63.5 -11q29.5 -11 52 -31.5q22.5 -20.5 35.5 -50q13 -29.5 13 -67.5v-372h-128v330q0 47 -22.5 68.5q-22.5 21.5 -54.5 21.5q-20 0 -39 -5.5q-19 -5.5 -34 -21q-15 -15.5 -24.5 -44.5q-9.5 -29 -10.5 -75l0 -274l-128 0z" />
<glyph unicode="&#110;" horiz-adv-x="607" d="M204 520v-80h4q26 52 66.5 72q40.5 20 94.5 20q35 0 65 -11.5q30 -11.5 51.5 -32.5q21.5 -21 34 -50.5q12.5 -29.5 12.5 -65.5v-372h-128v329q0 47 -24.5 69q-24.5 22 -56.5 22q-20 0 -40 -5.5q-20 -5.5 -36 -22.5q-16 -17 -26 -47.5q-10 -30.5 -10 -79.5v-265h-128l0 520z" />
<glyph unicode="&#111;" horiz-adv-x="618" d="M40 261q0 57 18.5 106q18.5 49 53.5 86q35 37 84.5 58q49.5 21 112.5 21q63 0 113 -21q50 -21 84.5 -58q34.5 -37 53 -86q18.5 -49 18.5 -106q0 -57 -18.5 -106.5q-18.5 -49.5 -53 -86.5q-34.5 -37 -84.5 -58.5q-50 -21.5 -113 -21.5q-63 0 -112.5 21.5q-49.5 21.5 -84.5 58.5q-35 37 -53.5 86.5q-18.5 49.5 -18.5 106.5zt0 0zM176 261q0 -32 8.5 -61.5q8.5 -29.5 25 -51.5q16.5 -22 41.5 -35q25 -13 58 -13q33 0 57.5 13q24.5 13 41.5 35q17 22 25.5 51.5q8.5 29.5 8.5 61.5q0 32 -8.5 61q-8.5 29 -25.5 50.5q-17 21.5 -41.5 34.5q-24.5 13 -57.5 13q-33 0 -57.5 -13q-24.5 -13 -41.5 -34.5q-17 -21.5 -25.5 -50.5t-8.5 -61z" />
<glyph unicode="&#112;" horiz-adv-x="619" d="M83 520h128v-54q27 32 64.5 49q37.5 17 82.5 17q57 0 99 -21.5q42 -21.5 69 -59q27 -37.5 40.5 -88.5q13.5 -51 13.5 -109q0 -57 -13.5 -106q-13.5 -49 -41.5 -84.5q-28 -35.5 -70.5 -55.5q-42.5 -20 -99.5 -20q-13 0 -32 3q-19 3 -39 9.5q-20 6.5 -39.5 18.5q-19.5 12 -33.5 30l0 -237h-128zM328 420q-31 0 -54 -12.5q-23 -12.5 -38 -34.5q-15 -22 -22 -52q-7 -30 -7 -64q0 -70 30 -113.5q30 -43.5 89 -43.5q61 0 89.5 45q28.5 45 28.5 115q0 34 -7 63q-7 29 -21 50.5q-14 21.5 -36 34t-52 12.5z" />
<glyph unicode="&#113;" horiz-adv-x="619" d="M537 -188h-128v245h-2q-29 -36 -65.5 -52.5q-36.5 -16.5 -77.5 -16.5q-57 0 -99.5 20q-42.5 20 -70 55.5q-27.5 35.5 -41 84.5q-13.5 49 -13.5 106q0 58 14 109q14 51 42 88.5q28 37.5 70.5 59q42.5 21.5 99.5 21.5q45 0 80.5 -15q35.5 -15 64.5 -51l2 0v54h124zM292 420q-30 0 -52 -12.5q-22 -12.5 -36 -34q-14 -21.5 -21 -50.5q-7 -29 -7 -63q0 -35 7 -64.5q7 -29.5 21.5 -50.5q14.5 -21 36.5 -33q22 -12 53 -12q59 0 89 43.5q30 43.5 30 113.5q0 34 -7 64q-7 30 -22 52q-15 22 -38 34.5t-54 12.5z" />
<glyph unicode="&#114;" horiz-adv-x="399" d="M390 406q-12 2 -20.5 2.5q-8.5 0.5 -21.5 0.5q-29 0 -54.5 -8q-25.5 -8 -44.5 -28q-19 -20 -30 -54q-11 -34 -11 -86v-233h-127v520h123v-77h2q26 47 62.5 68q36.5 21 85.5 21q18 0 36 -3z" />
<glyph unicode="&#115;" horiz-adv-x="474" d="M335 378q-14 23 -37.5 39q-23.5 16 -58.5 16q-27 0 -45.5 -12q-18.5 -12 -18.5 -35q0 -23 15.5 -35.5q15.5 -12.5 38.5 -20.5l71 -26q34 -12 60 -25q26 -13 43.5 -31q17.5 -18 26.5 -42.5q9 -24.5 9 -59.5q0 -30 -12 -58.5q-12 -28.5 -37 -50.5q-25 -22 -63 -35.5q-38 -13.5 -89 -13.5q-45 0 -80 11.5q-35 11.5 -60 30q-25 18.5 -42 42q-17 23.5 -26 47.5l102 44q11 -35 39.5 -55.5q28.5 -20.5 67.5 -20.5q32 0 53 14.5q21 14.5 21 38.5q0 20 -12.5 32q-12.5 12 -38.5 21l-83 30q-31 10 -55 23q-24 13 -40.5 31.5q-16.5 18.5 -25 43.5q-8.5 25 -8.5 60q0 31 13 59q13 28 37 48q24 20 58.5 32q34.5 12 78.5 12q78 0 122 -28q44 -28 68 -72z" />
<glyph unicode="&#116;" horiz-adv-x="336" d="M230 520h106v-100h-106v-420h-128v420h-96v100h96v137l128 0z" />
<glyph unicode="&#117;" horiz-adv-x="607" d="M408 0v80h-4q-26 -52 -66.5 -72q-40.5 -20 -94.5 -20q-35 0 -65 11.5q-30 11.5 -52 32.5q-22 21 -34 50.5q-12 29.5 -12 65.5v372h128v-330q0 -47 24.5 -69q24.5 -22 56.5 -22q20 0 40 6q20 6 36 22.5q16 16.5 26 47q10 30.5 10 80.5v265h128l0 -520z" />
<glyph unicode="&#118;" horiz-adv-x="539" d="M272 158q6 19 10 31q4 12 7.5 21q3.5 9 6 16.5q2.5 7.5 5.5 15.5q25 70 49.5 139.5q24.5 69.5 49.5 138.5l132 0l-199 -520h-122l-206 520h138l103 -280q8 -20 13 -39.5t13 -42.5z" />
<glyph unicode="&#119;" horiz-adv-x="816" d="M479 521l85 -270q10 -29 14 -44.5q4 -15.5 10 -35.5q22 82 48.5 174.5q26.5 92.5 49.5 175.5l132 0l-171 -521h-126q-28 88 -54.5 175q-26.5 87 -54.5 175q-23 -75 -50 -165q-27 -90 -57 -185l-126 0l-170 521h134l78 -256q3 -13 7 -28q4 -15 7 -28.5q3 -13.5 6 -24q3 -10.5 5 -14.5q13 44 27 90.5q14 46.5 27.5 92q13.5 45.5 26 88.5q12.5 43 24.5 80z" />
<glyph unicode="&#120;" horiz-adv-x="516" d="M187 271l-171 249h146l102 -152l100 152h138l-170 -251l182 -269h-144l-116 172l-113 -172l-138 0z" />
<glyph unicode="&#121;" horiz-adv-x="515" d="M125 -188l79 204q-2 4 -4.5 10.5q-2.5 6.5 -9 23.5q-6.5 17 -19.5 49q-13 32 -34.5 86.5q-21.5 54.5 -54 136q-32.5 81.5 -78.5 198.5l138 0q8 -22 17.5 -46q9.5 -24 24 -60q14.5 -36 35.5 -88.5q21 -52.5 51 -131.5l111 326h133l-261 -708z" />
<glyph unicode="&#122;" horiz-adv-x="496" d="M34 0v71l255 349h-232v100h402v-74l-253 -346h253l0 -100z" />
<glyph unicode="&#123;" horiz-adv-x="363" d="M124 125q0 54 -18.5 73.5q-18.5 19.5 -65.5 19.5l0 113q47 0 65.5 19q18.5 19 18.5 73v198q0 52 29 83.5q29 31.5 77 31.5h93v-102h-29q-25 0 -33.5 -11.5q-8.5 -11.5 -8.5 -41.5v-194q0 -34 -6.5 -55q-6.5 -21 -17.5 -33q-11 -12 -25.5 -17q-14.5 -5 -30.5 -7q16 -3 30.5 -8q14.5 -5 25.5 -17q11 -12 17.5 -33q6.5 -21 6.5 -55v-195q0 -31 8.5 -42q8.5 -11 33.5 -11h29v-102h-93q-48 0 -77 32q-29 32 -29 84z" />
<glyph unicode="&#124;" horiz-adv-x="312" d="M219 775v-827h-126l0 827z" />
<glyph unicode="&#125;" horiz-adv-x="363" d="M239 -72q0 -52 -29 -84q-29 -32 -77 -32h-93v102h29q25 0 33.5 11q8.5 11 8.5 42v195q0 34 6.5 55q6.5 21 17.5 33q11 12 25.5 17q14.5 5 30.5 8q-16 2 -30.5 7q-14.5 5 -25.5 17q-11 12 -17.5 33q-6.5 21 -6.5 55v194q0 30 -8.5 41.5q-8.5 11.5 -33.5 11.5h-29v102h93q48 0 77 -31.5q29 -31.5 29 -83.5v-198q0 -54 18.5 -73q18.5 -19 65.5 -19l0 -113q-47 0 -65.5 -19.5q-18.5 -19.5 -18.5 -73.5z" />
<glyph unicode="&#126;" horiz-adv-x="676" d="M77 329q9 22 24.5 43q15.5 21 36 37q20.5 16 44.5 25.5q24 9.5 51 9.5q33 0 59.5 -9.5q26.5 -9.5 50 -21q23.5 -11.5 46.5 -21q23 -9.5 50 -9.5q30 0 54 15q24 15 41 37l66 -71q-9 -22 -25 -43q-16 -21 -36 -37q-20 -16 -44.5 -25.5q-24.5 -9.5 -50.5 -9.5q-33 0 -59.5 9.5q-26.5 9.5 -50.5 21q-24 11.5 -47 21q-23 9.5 -50 9.5q-30 0 -53.5 -15.5q-23.5 -15.5 -40.5 -37.5z" />
<glyph unicode="&#160;" horiz-adv-x="256" />
<glyph unicode="&#164;" horiz-adv-x="649" d="M420 134q-44 -22 -96 -22q-49 0 -95 23l-44 -44l-93 94l44 44q-11 23 -16 47q-5 24 -5 48q0 48 23 92l-45 45l93 93l45 -45q44 23 93 23q49 0 94 -21l44 44l94 -93l-44 -44q25 -48 23 -101q-2 -49 -22 -90l44 -44l-93 -93zM325 213q22 0 42 9q20 9 34.5 23.5q14.5 14.5 23 34q8.5 19.5 8.5 42.5q0 22 -8.5 42q-8.5 20 -23 34.5q-14.5 14.5 -34.5 23q-20 8.5 -42 8.5q-23 0 -42.5 -8.5q-19.5 -8.5 -34 -23q-14.5 -14.5 -23.5 -34.5q-9 -20 -9 -42q0 -23 9 -42.5q9 -19.5 23.5 -34q14.5 -14.5 34 -23.5t42.5 -9z" />
<glyph unicode="&#166;" horiz-adv-x="312" d="M219 309v-361h-126v361zM93 415v360h126l0 -360z" />
<glyph unicode="&#167;" horiz-adv-x="568" d="M507 230q0 -51 -16 -85q-16 -34 -45 -59q15 -26 20.5 -53.5q5.5 -27.5 5.5 -50.5q0 -47 -15 -84q-15 -37 -41 -63q-26 -26 -60 -40q-34 -14 -72 -14q-80 0 -133 38q-53 38 -73 118l113 37q15 -42 38.5 -57.5q23.5 -15.5 54.5 -15.5q29 0 46 18.5q17 18.5 17 55.5q0 26 -12.5 45q-12.5 19 -36 35q-23.5 16 -56 32q-32.5 16 -71.5 36q-46 23 -77.5 61.5q-31.5 38.5 -31.5 98.5q0 50 16 84.5q16 34.5 45 59.5q-16 26 -21 53q-5 27 -5 50q0 47 15 84.5q15 37.5 41 63.5q26 26 59.5 40q33.5 14 71.5 14q81 0 133.5 -38.5q52.5 -38.5 73.5 -117.5l-114 -37q-14 42 -37.5 57.5q-23.5 15.5 -55.5 15.5q-28 0 -45.5 -18.5q-17.5 -18.5 -17.5 -55.5q0 -27 13 -45.5q13 -18.5 36 -34.5q23 -16 56 -32q33 -16 72 -36q46 -23 77.5 -61.5q31.5 -38.5 31.5 -98.5zt0 0zM395 220q0 23 -17.5 41q-17.5 18 -44.5 33q-27 15 -61 30q-34 15 -67 32q-14 -11 -22.5 -26.5q-8.5 -15.5 -8.5 -36.5q0 -23 17.5 -41q17.5 -18 44.5 -33q27 -15 61 -30q34 -15 67 -32q15 12 23 27t8 36z" />
<glyph unicode="&#169;" horiz-adv-x="874" d="M123 362q0 -67 23.5 -124.5q23.5 -57.5 65 -99.5q41.5 -42 97.5 -65.5q56 -23.5 122 -23.5q67 0 123.5 23.5q56.5 23.5 97.5 65.5q41 42 64.5 99.5q23.5 57.5 23.5 124.5q0 67 -23.5 124q-23.5 57 -64.5 98.5q-41 41.5 -97.5 65q-56.5 23.5 -123.5 23.5q-66 0 -122 -23.5q-56 -23.5 -97.5 -65q-41.5 -41.5 -65 -98.5q-23.5 -57 -23.5 -124zt0 0zM55 362q0 78 29 146.5q29 68.5 80 119q51 50.5 119.5 79.5q68.5 29 147.5 29q80 0 149 -29q69 -29 120 -79.5q51 -50.5 80.5 -119q29.5 -68.5 29.5 -146.5q0 -78 -29.5 -146.5q-29.5 -68.5 -80.5 -119q-51 -50.5 -120 -79.5q-69 -29 -149 -29q-79 0 -147.5 29q-68.5 29 -119.5 79.5q-51 50.5 -80 119q-29 68.5 -29 146.5zt0 0zM432 481q-42 0 -70.5 -31.5q-28.5 -31.5 -28.5 -87.5q0 -57 28.5 -88.5q28.5 -31.5 73.5 -31.5q35 0 59 17.5q24 17.5 37 48.5l84 -22q-7 -28 -23 -52q-16 -24 -39.5 -41.5q-23.5 -17.5 -53.5 -27.5q-30 -10 -64 -10q-42 0 -78.5 14q-36.5 14 -64 41q-27.5 27 -43.5 65.5q-16 38.5 -16 86.5q0 48 16 86.5q16 38.5 43 65q27 26.5 63 40.5q36 14 77 14q71 0 119.5 -36q48.5 -36 62.5 -96l-88 -23q-13 32 -37 50t-57 18z" />
<glyph unicode="&#171;" horiz-adv-x="572" d="M490 75l-242 236l243 236q3 -3 12 -12q9 -9 19 -18.5q10 -9.5 19 -18q9 -8.5 11 -11.5l-151 -176q10 -11 31 -35.5q21 -24.5 44 -52q23 -27.5 44 -52q21 -24.5 31 -34.5zM256 75l-242 236l243 236q3 -3 11.5 -12q8.5 -9 19 -18.5q10.5 -9.5 19 -18q8.5 -8.5 11.5 -11.5l-151 -176q10 -11 31 -35.5q21 -24.5 44 -52q23 -27.5 44 -52q21 -24.5 31 -34.5z" />
<glyph unicode="&#172;" horiz-adv-x="619" d="M430 145v178h-376v109h496l0 -287z" />
<glyph unicode="&#173;" horiz-adv-x="459" d="M57 258v110h344l0 -110z" />
<glyph unicode="&#174;" horiz-adv-x="738" d="M350 405h-23v-124h-77v322h130q54 0 84 -25.5q30 -25.5 30 -70.5q0 -34 -16.5 -58q-16.5 -24 -49.5 -35l77 -133h-88zM370 466q19 0 32.5 12q13.5 12 13.5 27q0 37 -46 37h-43v-76zM54 437q0 65 24.5 122q24.5 57 66.5 99q42 42 99 66q57 24 122 24q66 0 123.5 -24q57.5 -24 100 -66q42.5 -42 67 -99q24.5 -57 24.5 -122q0 -65 -24.5 -121.5q-24.5 -56.5 -67 -98q-42.5 -41.5 -100 -65.5q-57.5 -24 -123.5 -24q-65 0 -122 24q-57 24 -99 65.5q-42 41.5 -66.5 98q-24.5 56.5 -24.5 121.5zt0 0zM118 437q0 -53 19 -99q19 -46 52 -79.5q33 -33.5 78.5 -52.5q45.5 -19 98.5 -19q52 0 97.5 19q45.5 19 79 52q33.5 33 53 79q19.5 46 19.5 100q0 54 -19 100q-19 46 -52 79.5q-33 33.5 -78.5 52.5q-45.5 19 -99.5 19q-53 0 -98.5 -19q-45.5 -19 -78.5 -52.5q-33 -33.5 -52 -79.5t-19 -100z" />
<glyph unicode="&#176;" horiz-adv-x="376" d="M62 613q0 27 9.5 50q9.5 23 26.5 39.5q17 16.5 40 26q23 9.5 50 9.5q27 0 50.5 -9.5q23.5 -9.5 40 -26q16.5 -16.5 26 -39.5q9.5 -23 9.5 -50q0 -27 -9.5 -49.5q-9.5 -22.5 -26 -39.5q-16.5 -17 -40 -26.5q-23.5 -9.5 -50.5 -9.5q-27 0 -50 9.5q-23 9.5 -40 26.5q-17 17 -26.5 39.5q-9.5 22.5 -9.5 49.5zt0 0zM148 613q0 -19 10.5 -30q10.5 -11 29.5 -11q19 0 30 11q11 11 11 30q0 19 -11 30.5q-11 11.5 -30 11.5q-19 0 -29.5 -11.5t-10.5 -30.5z" />
<glyph unicode="&#177;" horiz-adv-x="611" d="M362 659v-191h190v-111h-190v-191h-112v191h-190v111h190v191zM60 112h492v-112l-492 0z" />
<glyph unicode="&#181;" horiz-adv-x="607" d="M396 0v84q-29 -42 -69.5 -67q-40.5 -25 -91.5 -25q-17 0 -32 3l0 -206h-129v732h129v-334q0 -47 21 -66.5q21 -19.5 53 -19.5q23 0 44.5 14q21.5 14 38 41q16.5 27 26.5 66.5q10 39.5 10 90.5v208h128l0 -521z" />
<glyph unicode="&#182;" horiz-adv-x="661" d="M380 -188h-110v474q-45 0 -86 16.5q-41 16.5 -72.5 45.5q-31.5 29 -50 68.5q-18.5 39.5 -18.5 86.5q0 49 18.5 90q18.5 41 51 70q32.5 29 75.5 45q43 16 91 16h366v-103h-60v-809h-110v809l-95 0z" />
<glyph unicode="&#183;" horiz-adv-x="339" d="M83 381q0 37 24.5 61.5q24.5 24.5 62.5 24.5q37 0 61.5 -24.5q24.5 -24.5 24.5 -61.5q0 -38 -24.5 -62.5q-24.5 -24.5 -61.5 -24.5q-38 0 -62.5 24.5t-24.5 62.5z" />
<glyph unicode="&#187;" horiz-adv-x="572" d="M21 137l150 174l-151 176q2 3 11 11.5q9 8.5 19 18q10 9.5 19 18.5q9 9 12 12l242 -236l-241 -236zM255 137l150 174l-151 176q2 3 11 11.5q9 8.5 19 18q10 9.5 19 18.5q9 9 11 12l243 -236l-242 -236z" />
<glyph unicode="&#192;" horiz-adv-x="4000" d="M975 341q23 0 41 -17q18 -17 18 -55q0 -37 -18 -54q-18 -17 -41 -17q-24 0 -41.5 17q-17.5 17 -17.5 54q0 38 17.5 55q17.5 17 41.5 17zt0 0zM546 426v-137h156q4 53 26.5 99.5q22.5 46.5 59.5 81q37 34.5 85 54.5q48 20 102 20q54 0 102.5 -20q48.5 -20 85 -54.5q36.5 -34.5 59.5 -81q23 -46.5 26 -99.5l157 0v241h522v-241h147l307 306l306 -306h130q4 51 25.5 95q21.5 44 56.5 76.5q35 32.5 81 51q46 18.5 97 18.5h660q54 0 102 -20.5q48 -20.5 83 -55.5q35 -35 55.5 -83q20.5 -48 20.5 -102q0 -54 -20.5 -101q-20.5 -47 -55.5 -82.5q-35 -35.5 -83 -56q-48 -20.5 -102 -20.5h-660q-51 0 -97 19q-46 19 -81 51.5q-35 32.5 -56.5 76.5q-21.5 44 -25.5 95l-130 0l-306 -307l-307 307h-147v-242h-522v242h-157q-3 -53 -26 -100q-23 -47 -59.5 -81.5q-36.5 -34.5 -85 -54.5q-48.5 -20 -102.5 -20q-54 0 -102 20q-48 20 -85 54.5q-37 34.5 -59.5 81.5q-22.5 47 -26.5 100l-156 0v-138l-272 -158l-272 158v313l272 158zM354 375h-159v-211h39v173h80v-173h40zM975 162q40 0 69 26.5q29 26.5 29 80.5q0 55 -29 81.5q-29 26.5 -69 26.5q-40 0 -70 -26.5q-30 -26.5 -30 -81.5q0 -54 30 -80.5q30 -26.5 70 -26.5zt0 0zM1737 375h-125l-3 -62q-1 -18 -2 -38q-1 -20 -5 -36.5q-4 -16.5 -12 -27q-8 -10.5 -21 -10.5h-5v-38h10q40 0 54.5 32.5q14.5 32.5 17.5 95.5l2 46h50v-173h39zM2462 375h-42l-82 -142v142h-38v-211h40l82 142v-142h40zM3285 375h-161v-36h61v-175h40v175h60zM3464 200h-95v57h83v35h-83v47h92v36h-132v-211h135zM3688 164l-73 110l69 101h-45l-44 -71l-44 71h-46l66 -101l-74 -110h45l50 79l50 -79z" />
<glyph unicode="&#193;" horiz-adv-x="4000" d="M2817 270q0 56 21.5 103.5q21.5 47.5 57.5 82.5q36 35 83 54.5q47 19.5 98 19.5h660q54 0 102 -20.5q48 -20.5 83 -55.5q35 -35 55.5 -83q20.5 -48 20.5 -102q0 -54 -20.5 -101q-20.5 -47 -55.5 -82.5q-35 -35.5 -83 -56q-48 -20.5 -102 -20.5h-660q-51 0 -98 19q-47 19 -83 53.5q-36 34.5 -57.5 82.5q-21.5 48 -21.5 106zt0 0zM1927 9h-522v521h522zM546 113l-272 -158l-272 158v313l272 158l272 -158zM701 269q0 57 21.5 107q21.5 50 58.5 87.5q37 37.5 87 59q50 21.5 107 21.5q57 0 107 -21.5q50 -21.5 87.5 -59q37.5 -37.5 59 -87.5q21.5 -50 21.5 -107q0 -57 -21.5 -107q-21.5 -50 -59 -87q-37.5 -37 -87.5 -58.5q-50 -21.5 -107 -21.5q-57 0 -107 21.5q-50 21.5 -87 58.5q-37 37 -58.5 87q-21.5 50 -21.5 107zt0 0zM2381 595l324 -325l-324 -326l-326 326z" />
<glyph unicode="&#194;" horiz-adv-x="4000" d="M974 353q25 0 44 -18.5q19 -18.5 19 -58.5q0 -39 -19 -57q-19 -18 -44 -18q-26 0 -44.5 18q-18.5 18 -18.5 57q0 40 18.5 58.5q18.5 18.5 44.5 18.5zt0 0zM578 443v-140h106q4 57 28.5 105.5q24.5 48.5 63.5 84q39 35.5 90 55.5q51 20 108 20q58 0 109 -20q51 -20 90 -55.5q39 -35.5 63 -84q24 -48.5 28 -105.5l106 0v250h555v-250h91l326 319l325 -319h76q4 54 27.5 99.5q23.5 45.5 60.5 79q37 33.5 85.5 52.5q48.5 19 103.5 19h701q58 0 108.5 -21.5q50.5 -21.5 88 -59q37.5 -37.5 59.5 -88q22 -50.5 22 -108.5q0 -57 -22 -107.5q-22 -50.5 -59.5 -88q-37.5 -37.5 -88 -59q-50.5 -21.5 -108.5 -21.5h-701q-55 0 -103.5 19q-48.5 19 -85.5 52.5q-37 33.5 -60.5 79.5q-23.5 46 -27.5 100l-76 0l-325 -320l-326 320h-91v-251h-555v251h-106q-4 -57 -28 -105.5q-24 -48.5 -63 -84q-39 -35.5 -90 -56q-51 -20.5 -109 -20.5q-57 0 -108 20.5q-51 20.5 -90 56q-39 35.5 -63.5 84q-24.5 48.5 -28.5 105.5l-106 0v-140l-289 -168l-289 168v332l289 168zM374 389h-169v-224h41v183h85v-183h43zM974 163q42 0 73 28q31 28 31 85q0 59 -31 87q-31 28 -73 28q-42 0 -74 -28.5q-32 -28.5 -32 -86.5q0 -57 32 -85q32 -28 74 -28zt0 0zM1723 389h-133l-3 -66q-1 -20 -2 -41q-1 -21 -5.5 -38q-4.5 -17 -12.5 -28.5q-8 -11.5 -23 -11.5h-5v-40h11q42 0 57.5 34.5q15.5 34.5 18.5 101.5l2 48h53v-183h42zM2428 389h-45l-87 -151v151h-40v-224h42l88 150v-150h42zM3241 389h-171v-38h64v-186h43v186h64zM3431 203h-101v60h88v38h-88v50h98v38h-141v-224h144zM3669 165l-78 117l73 107h-47l-47 -76l-47 76h-49l70 -107l-78 -117h48l53 84l53 -84z" />
<glyph unicode="&#195;" horiz-adv-x="4000" d="M2743 277q0 64 22.5 115.5q22.5 51.5 61 87q38.5 35.5 88.5 54.5q50 19 105 19h701q58 0 108.5 -21.5q50.5 -21.5 88 -59q37.5 -37.5 59.5 -88q22 -50.5 22 -108.5q0 -57 -22 -107q-22 -50 -59.5 -87.5q-37.5 -37.5 -88 -59q-50.5 -21.5 -108.5 -21.5h-701q-55 0 -105 19q-50 19 -88.5 55q-38.5 36 -61 87q-22.5 51 -22.5 115zt0 0zM1925 1h-555v552h555zM578 111l-289 -168l-289 168v332l289 168l289 -168zM682 276q0 60 23 113.5q23 53.5 62.5 93q39.5 39.5 93 62.5q53.5 23 113.5 23q60 0 113.5 -23q53.5 -23 93 -62.5q39.5 -39.5 62.5 -93q23 -53.5 23 -113.5q0 -60 -23 -113.5q-23 -53.5 -62.5 -93q-39.5 -39.5 -93 -62.5q-53.5 -23 -113.5 -23q-60 0 -113.5 23q-53.5 23 -93 62.5q-39.5 39.5 -62.5 93q-23 53.5 -23 113.5zt0 0zM2342 622l350 -345l-350 -346l-351 346z" />
<glyph unicode="&#196;" horiz-adv-x="1324" d="M50 8v523h1224l0 -523z" />
<glyph unicode="&#197;" horiz-adv-x="1275" d="M1250 269l-220 -261h-784l-221 261l221 263l784 0z" />
<glyph unicode="&#198;" horiz-adv-x="1191" d="M595 -45l-545 156v316l545 158l546 -158l0 -316z" />
<glyph unicode="&#199;" horiz-adv-x="644" d="M594 427v-314l-272 -158l-272 158v314l272 158z" />
<glyph unicode="&#200;" horiz-adv-x="4000" d="M545 426v-137h156q4 53 26.5 99.5q22.5 46.5 59.5 81q37 34.5 85 54.5q48 20 102 20q54 0 102.5 -20q48.5 -20 85 -54.5q36.5 -34.5 59.5 -81q23 -46.5 26 -99.5l157 0v241h522v-241h147l307 306l306 -306h130q4 51 25.5 95q21.5 44 56.5 76.5q35 32.5 81 51q46 18.5 97 18.5h660q54 0 102 -20.5q48 -20.5 83.5 -55.5q35.5 -35 56 -83q20.5 -48 20.5 -102q0 -54 -20.5 -101q-20.5 -47 -56 -82.5q-35.5 -35.5 -83.5 -56q-48 -20.5 -102 -20.5h-660q-51 0 -97 19q-46 19 -81 51.5q-35 32.5 -56.5 76.5q-21.5 44 -25.5 95l-130 0l-306 -307l-307 307h-147v-242h-522v242h-157q-3 -53 -26 -100q-23 -47 -59.5 -81.5q-36.5 -34.5 -85 -54.5q-48.5 -20 -102.5 -20q-54 0 -102 20q-48 20 -85 54.5q-37 34.5 -59.5 81.5q-22.5 47 -26.5 100l-156 0v-138l-272 -158l-272 158v313l272 158z" />
<glyph unicode="&#201;" horiz-adv-x="644" d="M594 427v-314l-272 -158l-272 158v314l272 158zM401 375h-158v-211h38v174h81v-174l39 0z" />
<glyph unicode="&#202;" horiz-adv-x="4000" d="M578 443v-141h106q4 57 28.5 105.5q24.5 48.5 63.5 84q39 35.5 90 56q51 20.5 108 20.5q58 0 109 -20.5q51 -20.5 90 -56q39 -35.5 63 -84q24 -48.5 28 -105.5l106 0v251h555v-251h91l326 320l325 -320h76q4 54 27.5 99.5q23.5 45.5 60.5 79.5q37 34 85.5 53q48.5 19 103.5 19h701q58 0 108.5 -21.5q50.5 -21.5 88 -59q37.5 -37.5 59.5 -88q22 -50.5 22 -108.5q0 -57 -22 -107.5q-22 -50.5 -59.5 -88q-37.5 -37.5 -88 -59q-50.5 -21.5 -108.5 -21.5h-701q-55 0 -103.5 19q-48.5 19 -85.5 53q-37 34 -60.5 80q-23.5 46 -27.5 100l-76 0l-325 -321l-326 321h-91v-252h-555v252h-106q-4 -57 -28 -105.5q-24 -48.5 -63 -84.5q-39 -36 -90 -56.5q-51 -20.5 -109 -20.5q-57 0 -108 20.5q-51 20.5 -90 56.5q-39 36 -63.5 84.5q-24.5 48.5 -28.5 105.5l-106 0v-141l-289 -168l-289 168v332l289 168z" />
<glyph unicode="&#203;" horiz-adv-x="1250" d="M291 503q-47 0 -88.5 -18q-41.5 -18 -73 -48.5q-31.5 -30.5 -49.5 -72q-18 -41.5 -18 -88.5q0 -46 18 -87q18 -41 49.5 -71.5q31.5 -30.5 73 -48.5q41.5 -18 88.5 -18h669q47 0 88.5 18q41.5 18 72.5 48.5q31 30.5 49 71.5q18 41 18 87q0 47 -18 88.5q-18 41.5 -49 72q-31 30.5 -72.5 48.5q-41.5 18 -88.5 18zM974 553q57 0 107 -22q50 -22 87.5 -59.5q37.5 -37.5 59.5 -88q22 -50.5 22 -107.5q0 -57 -22 -107q-22 -50 -59.5 -87.5q-37.5 -37.5 -87.5 -59q-50 -21.5 -107 -21.5h-697q-57 0 -107.5 21.5q-50.5 21.5 -88 59q-37.5 37.5 -59.5 87.5q-22 50 -22 107q0 57 22 107.5q22 50.5 59.5 88q37.5 37.5 88 59.5q50.5 22 107.5 22z" />
<glyph unicode="&#204;" horiz-adv-x="1250" d="M974 553q57 0 107 -22q50 -22 87.5 -59.5q37.5 -37.5 59.5 -88q22 -50.5 22 -107.5q0 -57 -22 -107q-22 -50 -59.5 -87.5q-37.5 -37.5 -87.5 -59q-50 -21.5 -107 -21.5h-697q-57 0 -107.5 21.5q-50.5 21.5 -88 59q-37.5 37.5 -59.5 87.5q-22 50 -22 107q0 57 22 107.5q22 50.5 59.5 88q37.5 37.5 88 59.5q50.5 22 107.5 22z" />
<glyph unicode="&#205;" horiz-adv-x="1178" d="M261 489q-46 0 -86.5 -17q-40.5 -17 -70.5 -47q-30 -30 -47.5 -70.5q-17.5 -40.5 -17.5 -86.5q0 -45 17.5 -85q17.5 -40 47.5 -70q30 -30 70.5 -47.5q40.5 -17.5 86.5 -17.5h657q46 0 86 17.5q40 17.5 70 47.5q30 30 47 70q17 40 17 85q0 46 -17 86.5q-17 40.5 -47 70.5q-30 30 -70 47q-40 17 -86 17zM918 529q54 0 101 -20.5q47 -20.5 82.5 -56q35.5 -35.5 56 -83q20.5 -47.5 20.5 -101.5q0 -54 -20.5 -101q-20.5 -47 -56 -82q-35.5 -35 -82.5 -55.5q-47 -20.5 -101 -20.5h-657q-54 0 -101.5 20.5q-47.5 20.5 -83 55.5q-35.5 35 -56 82q-20.5 47 -20.5 101q0 54 20.5 101.5q20.5 47.5 56 83q35.5 35.5 83 56q47.5 20.5 101.5 20.5z" />
<glyph unicode="&#206;" horiz-adv-x="1178" d="M918 529q54 0 101 -20.5q47 -20.5 82.5 -56q35.5 -35.5 56 -83q20.5 -47.5 20.5 -101.5q0 -54 -20.5 -101q-20.5 -47 -56 -82q-35.5 -35 -82.5 -55.5q-47 -20.5 -101 -20.5h-657q-54 0 -101.5 20.5q-47.5 20.5 -83 55.5q-35.5 35 -56 82q-20.5 47 -20.5 101q0 54 20.5 101.5q20.5 47.5 56 83q35.5 35.5 83 56q47.5 20.5 101.5 20.5z" />
<glyph unicode="&#224;" horiz-adv-x="1088" d="M669 251v-109h-52v270h52v-109h419v-52zM417 412h54v-270h-54v109h-417v52l417 0z" />
<glyph unicode="&#225;" horiz-adv-x="1321" d="M883 171q-38 0 -72.5 23q-34.5 23 -60.5 67q-19 29 -42 45.5q-23 16.5 -47 16.5q-23 0 -46 -16.5q-23 -16.5 -42 -45.5q-26 -44 -60 -67q-34 -23 -73 -23q-38 0 -72.5 23q-34.5 23 -60.5 67q-19 32 -41.5 50q-22.5 18 -47.5 18q-24 0 -46.5 -18q-22.5 -18 -41.5 -50q-26 -41 -59.5 -62.5q-33.5 -21.5 -70.5 -21.5l0 54q23 0 44.5 15q21.5 15 39.5 41q26 45 60.5 69q34.5 24 73.5 24q39 0 74 -24q35 -24 61 -69q19 -30 41 -46.5q22 -16.5 46 -16.5q25 0 47.5 16.5q22.5 16.5 40.5 46.5q26 44 60.5 66.5q34.5 22.5 72.5 22.5q39 0 73.5 -22.5q34.5 -22.5 60.5 -66.5q19 -30 41 -46.5q22 -16.5 47 -16.5q23 0 45.5 16.5q22.5 16.5 40.5 46.5q26 44 61 66.5q35 22.5 74 22.5q38 0 72 -22.5q34 -22.5 61 -66.5q17 -26 39 -41q22 -15 45 -15l0 -54q-38 0 -71.5 21.5q-33.5 21.5 -57.5 60.5q-20 31 -42 47.5q-22 16.5 -46 16.5q-25 0 -47.5 -16.5q-22.5 -16.5 -41.5 -45.5q-26 -44 -60 -67t-72 -23z" />
<glyph unicode="&#226;" horiz-adv-x="1241" d="M908 12q-18 0 -33.5 6.5q-15.5 6.5 -27 18q-11.5 11.5 -18.5 27q-7 15.5 -7 32.5q0 91 1 166q0 32 0 63.5q0 31.5 0.5 57.5q0.5 26 0.5 45q0 19 0 25q0 14 -10 23q-10 9 -23 9q-14 0 -23.5 -9q-9.5 -9 -9.5 -23v-357q0 -35 -24.5 -59.5q-24.5 -24.5 -59.5 -24.5q-35 0 -59 24.5q-24 24.5 -24 59.5v357q0 14 -9.5 23q-9.5 9 -23.5 9q-13 0 -22.5 -9q-9.5 -9 -9.5 -23v-357q0 -35 -24.5 -59.5q-24.5 -24.5 -59.5 -24.5q-35 0 -59 24.5q-24 24.5 -24 59.5v357q0 14 -9 23q-9 9 -23 9q-14 0 -23 -9q-9 -9 -9 -23v-202h-295v52h242v150q0 18 7 33.5q7 15.5 18.5 27q11.5 11.5 27 18.5q15.5 7 32.5 7q17 0 32.5 -7q15.5 -7 27.5 -18.5q12 -11.5 19 -27q7 -15.5 7 -33.5v-357q0 -13 8.5 -23q8.5 -10 20.5 -10q13 0 22 10q9 10 9 23v357q0 18 6.5 33.5q6.5 15.5 18 27q11.5 11.5 27 18.5q15.5 7 33.5 7q18 0 34 -7q16 -7 27.5 -18.5q11.5 -11.5 18 -27q6.5 -15.5 6.5 -33.5v-357q0 -13 8.5 -23q8.5 -10 21.5 -10q13 0 21.5 10q8.5 10 8.5 23v357q0 18 7 33.5q7 15.5 18.5 27q11.5 11.5 27.5 18.5q16 7 34 7q35 0 59.5 -25.5q24.5 -25.5 24.5 -60.5v-357q0 -13 9.5 -23q9.5 -10 23.5 -10q13 0 22.5 10q9.5 10 9.5 23v207h301v-52h-249v-155q0 -35 -24.5 -59.5t-59.5 -24.5z" />
<glyph unicode="&#227;" horiz-adv-x="1241" d="M1069 251v52h137v-52zM862 251v52h137v-52zM656 251v52h137v-52zM448 251v52h138v-52zM242 251v52h136v-52zM35 251v52h137l0 -52z" />
<glyph unicode="&#228;" horiz-adv-x="1520" d="M275 399l-152 -149h-123v52h101l174 172l161 -161l161 161l161 -161l162 161l160 -161l164 161l172 -172h104v-52h-126l-150 149l-164 -161l-160 161l-162 -161l-161 161l-161 -161z" />
<glyph unicode="&#229;" horiz-adv-x="932" d="M582 423l-180 -146l180 -146h350v-52h-369l-212 172h-351v52h351l212 174h369l0 -54z" />
<glyph unicode="&#230;" horiz-adv-x="1282" d="M1143 279q0 13 9.5 21.5q9.5 8.5 22.5 8.5q13 0 22 -8.5q9 -8.5 9 -21.5q0 -13 -9 -22q-9 -9 -22 -9q-13 0 -22.5 9q-9.5 9 -9.5 22zt0 0zM930 279q0 13 9 21.5q9 8.5 21 8.5q14 0 22.5 -8.5q8.5 -8.5 8.5 -21.5q0 -13 -8.5 -22q-8.5 -9 -22.5 -9q-12 0 -21 9q-9 9 -9 22zt0 0zM717 279q0 13 9 21.5q9 8.5 21 8.5q13 0 21.5 -8.5q8.5 -8.5 8.5 -21.5q0 -13 -8.5 -22q-8.5 -9 -21.5 -9q-12 0 -21 9q-9 9 -9 22zt0 0zM502 279q0 13 9 21.5q9 8.5 22 8.5q13 0 22 -8.5q9 -8.5 9 -21.5q0 -13 -9 -22q-9 -9 -22 -9q-13 0 -22 9q-9 9 -9 22zt0 0zM290 279q0 13 8.5 21.5q8.5 8.5 22.5 8.5q11 0 20 -8.5q9 -8.5 9 -21.5q0 -13 -9 -22q-9 -9 -20 -9q-14 0 -22.5 9q-8.5 9 -8.5 22zt0 0zM76 279q0 13 9 21.5q9 8.5 22 8.5q12 0 21.5 -8.5q9.5 -8.5 9.5 -21.5q0 -13 -9.5 -22q-9.5 -9 -21.5 -9q-13 0 -22 9t-9 22z" />
<glyph unicode="&#231;" horiz-adv-x="701" d="M429 25v226h-116q-44 0 -82 -16.5q-38 -16.5 -67 -45.5q-29 -29 -45.5 -67.5q-16.5 -38.5 -16.5 -81.5v-154h-52v154q0 54 20.5 102q20.5 48 56 84q35.5 36 83.5 56.5q48 20.5 103 20.5h116v227l272 -253zM482 145l113 106h-113zM482 303h113l-113 105z" />
<glyph unicode="&#232;" horiz-adv-x="651" d="M378 25v226h-378v52h378v227l273 -253zM432 145l114 106h-114zM432 303h114l-114 105z" />
<glyph unicode="&#233;" horiz-adv-x="749" d="M0 251v52h749l0 -52z" />
<glyph unicode="&#234;" horiz-adv-x="278" d="M32 251v52h214l0 -52z" />
<glyph unicode="&#235;" horiz-adv-x="702" d="M430 25v226h-326v-365h-54v417h380v227l272 -253zM483 145l113 106h-113zM483 303h113l-113 105z" />
<glyph unicode="&#236;" horiz-adv-x="1173" d="M1054 130q44 -89 119 -89l0 -53q-14 0 -32 3q-18 3 -37.5 12.5q-19.5 9.5 -39.5 26q-20 16.5 -38 43.5q-18 -27 -38.5 -43.5q-20.5 -16.5 -40 -26q-19.5 -9.5 -37 -12.5q-17.5 -3 -30.5 -3q-14 0 -31.5 3q-17.5 3 -37 12.5q-19.5 9.5 -40 26q-20.5 16.5 -38.5 43.5q-18 -27 -38.5 -43.5q-20.5 -16.5 -40 -26q-19.5 -9.5 -37 -12.5q-17.5 -3 -31.5 -3q-13 0 -31 3q-18 3 -37.5 12.5q-19.5 9.5 -39.5 26q-20 16.5 -38 43.5q-18 -27 -38 -43.5q-20 -16.5 -39.5 -26q-19.5 -9.5 -37 -12.5q-17.5 -3 -30.5 -3q-14 0 -31.5 3q-17.5 3 -37.5 12.5q-20 9.5 -40.5 26q-20.5 16.5 -38.5 43.5q-18 -27 -38 -43.5q-20 -16.5 -39.5 -26q-19.5 -9.5 -37.5 -12.5q-18 -3 -32 -3l0 53q74 0 119 89q-18 45 -29.5 110q-11.5 65 -11.5 156q0 24 4 48.5q4 24.5 12.5 44q8.5 19.5 21.5 31.5q13 12 31 12q18 0 31 -12q13 -12 22 -31.5q9 -19.5 13 -44q4 -24.5 4 -48.5q0 -91 -11 -156q-11 -65 -29 -110q43 -89 118 -89q74 0 115 89q-18 45 -28 110q-10 65 -10 156q0 24 4 48.5q4 24.5 12.5 44q8.5 19.5 21 31.5q12.5 12 30.5 12q18 0 31 -12q13 -12 21.5 -31.5q8.5 -19.5 12.5 -44q4 -24.5 4 -48.5q0 -91 -11 -156q-11 -65 -29 -110q43 -89 117 -89q73 0 118 89q-18 45 -29.5 110q-11.5 65 -11.5 156q0 24 4 48.5q4 24.5 13 44q9 19.5 22 31.5q13 12 31 12q18 0 31 -12q13 -12 21.5 -31.5q8.5 -19.5 12.5 -44q4 -24.5 4 -48.5q0 -91 -11 -156q-11 -65 -28 -110q41 -89 117 -89q73 0 116 89q-18 45 -29 110q-11 65 -11 156q0 24 4 48.5q4 24.5 13 44q9 19.5 22 31.5q13 12 31 12q18 0 31 -12q13 -12 21.5 -31q8.5 -19 12.5 -43.5q4 -24.5 4 -49.5q0 -91 -11.5 -156q-11.5 -65 -29.5 -110zt0 0zM147 220q17 77 17 176q0 30 -5.5 50.5q-5.5 20.5 -11.5 28.5q-5 -8 -10 -28.5q-5 -20.5 -5 -50.5q0 -101 15 -176zt0 0zM440 220q16 73 16 176q0 30 -5.5 50.5q-5.5 20.5 -10.5 28.5q-5 -8 -11 -28.5q-6 -20.5 -6 -50.5q0 -99 17 -176zt0 0zM733 220q8 38 12.5 81.5q4.5 43.5 4.5 94.5q0 30 -6 50.5q-6 20.5 -11 28.5q-5 -8 -10.5 -28.5q-5.5 -20.5 -5.5 -50.5q0 -103 16 -176zt0 0zM1026 220q15 75 15 176q0 30 -5 50.5q-5 20.5 -10 28.5q-6 -8 -11.5 -28.5q-5.5 -20.5 -5.5 -50.5q0 -99 17 -176z" />
<glyph unicode="&#1025;" horiz-adv-x="590" d="M125 847q0 32 20.5 52.5q20.5 20.5 52.5 20.5q33 0 53.5 -20.5q20.5 -20.5 20.5 -52.5q0 -32 -20.5 -53q-20.5 -21 -53.5 -21q-32 0 -52.5 21q-20.5 21 -20.5 53zt0 0zM339 847q0 32 20.5 52.5q20.5 20.5 52.5 20.5q33 0 53.5 -20.5q20.5 -20.5 20.5 -52.5q0 -32 -20.5 -53q-20.5 -21 -53.5 -21q-32 0 -52.5 21q-20.5 21 -20.5 53zt0 0zM541 724v-124h-319v-159h286v-124h-286v-193h329v-124h-463l0 724z" />
<glyph unicode="&#1026;" horiz-adv-x="723" d="M545 243q0 32 -7.5 53q-7.5 21 -22 33q-14.5 12 -36.5 17q-22 5 -50 5q-19 0 -41 -3q-22 -3 -51 -14l0 -334h-134v600h-191v124h529v-124h-204v-153q24 8 52 13.5q28 5.5 70 5.5q109 0 164.5 -49q55.5 -49 55.5 -166v-50q0 -47 -10.5 -86q-10.5 -39 -34.5 -67q-24 -28 -63 -44q-39 -16 -96 -16h-51v120h24q49 0 73 21q24 21 24 74z" />
<glyph unicode="&#1027;" horiz-adv-x="543" d="M530 724v-124h-308v-600h-134v724zM342 935q12 17 29.5 27.5q17.5 10.5 38.5 10.5q28 0 44.5 -16q16.5 -16 16.5 -42q0 -23 -13.5 -40.5q-13.5 -17.5 -30.5 -27.5l-156 -99l-34 34z" />
<glyph unicode="&#1028;" horiz-adv-x="739" d="M591 507q-23 48 -69 80q-46 32 -114 32q-39 0 -74 -12q-35 -12 -63 -35q-28 -23 -48.5 -58q-20.5 -35 -29.5 -80l297 0v-118h-302q6 -53 25.5 -92.5q19.5 -39.5 49 -65.5q29.5 -26 67.5 -39q38 -13 80 -13q37 0 66.5 9q29.5 9 52.5 24.5q23 15.5 40 36.5q17 21 28 45l119 -51q-19 -40 -47.5 -73.5q-28.5 -33.5 -66.5 -57.5q-38 -24 -86 -37.5q-48 -13.5 -106 -13.5q-77 0 -143.5 24.5q-66.5 24.5 -115.5 72q-49 47.5 -77.5 117q-28.5 69.5 -28.5 159.5q0 90 29 160q29 70 78.5 118q49.5 48 115 73q65.5 25 139.5 25q112 0 189.5 -50.5q77.5 -50.5 114.5 -131.5z" />
<glyph unicode="&#1029;" horiz-adv-x="566" d="M403 532q-17 40 -44 62q-27 22 -77 22q-47 0 -69 -24q-22 -24 -22 -53q0 -40 27 -61.5q27 -21.5 74 -38.5l80 -30q37 -14 67 -32q30 -18 51 -41.5q21 -23.5 32.5 -54q11.5 -30.5 11.5 -70.5q0 -50 -17.5 -91.5q-17.5 -41.5 -50 -71q-32.5 -29.5 -79.5 -46q-47 -16.5 -106 -16.5q-53 0 -93 13q-40 13 -70 35.5q-30 22.5 -50.5 52.5q-20.5 30 -35.5 63l110 59q19 -44 53 -72.5q34 -28.5 90 -28.5q57 0 85 22q28 22 28 64q0 37 -24.5 57q-24.5 20 -75.5 40l-84 32q-36 14 -65.5 32q-29.5 18 -50 43q-20.5 25 -31.5 57.5q-11 32.5 -11 74.5q0 45 16 83q16 38 46 65.5q30 27.5 71.5 43.5q41.5 16 92.5 16q50 0 87.5 -11q37.5 -11 65.5 -30.5q28 -19.5 48 -46.5q20 -27 34 -60z" />
<glyph unicode="&#1030;" horiz-adv-x="318" d="M226 0h-134v724l134 0z" />
<glyph unicode="&#1031;" horiz-adv-x="318" d="M226 0h-134v724h134zM-6 826q0 32 20 52.5q20 20.5 52 20.5q33 0 53.5 -20.5q20.5 -20.5 20.5 -52.5q0 -32 -20.5 -53q-20.5 -21 -53.5 -21q-32 0 -52 21q-20 21 -20 53zt0 0zM178 826q0 32 20.5 52.5q20.5 20.5 52.5 20.5q33 0 53 -20.5q20 -20.5 20 -52.5q0 -32 -20 -53q-20 -21 -53 -21q-32 0 -52.5 21t-20.5 53z" />
<glyph unicode="&#1032;" horiz-adv-x="534" d="M134 202q8 -52 32 -71q24 -19 59 -19q21 0 39 5.5q18 5.5 31 20q13 14.5 20 38q7 23.5 7 59.5v489h134v-475q0 -73 -15.5 -123q-15.5 -50 -45 -80.5q-29.5 -30.5 -71.5 -44q-42 -13.5 -96 -13.5q-95 0 -152.5 46q-57.5 46 -70.5 140z" />
<glyph unicode="&#1033;" horiz-adv-x="1006" d="M615 724v-288h103q76 0 124.5 -21q48.5 -21 76.5 -53.5q28 -32.5 38.5 -71.5q10.5 -39 10.5 -75q0 -48 -16 -87.5q-16 -39.5 -47 -68q-31 -28.5 -78 -44q-47 -15.5 -108 -15.5h-238v607h-167l-18 -242q-4 -42 -11 -86q-7 -44 -19 -85q-12 -41 -30.5 -77.5q-18.5 -36.5 -46 -63.5q-27.5 -27 -65.5 -43q-38 -16 -88 -16h-40v117h11q44 0 72 23q28 23 45 58q17 35 25.5 75.5q8.5 40.5 13.5 76.5q7 49 11.5 99.5q4.5 50.5 7.5 100q3 49.5 5 95.5q2 46 5 85zM709 117q63 0 92.5 27.5q29.5 27.5 29.5 72.5q0 45 -28.5 73q-28.5 28 -92.5 28h-95l0 -201z" />
<glyph unicode="&#1034;" horiz-adv-x="1001" d="M88 724h134v-288h259v288h134v-288h103q76 0 124.5 -21q48.5 -21 76.5 -53.5q28 -32.5 38.5 -71.5q10.5 -39 10.5 -75q0 -48 -16 -87.5q-16 -39.5 -47 -68q-31 -28.5 -78 -44q-47 -15.5 -108 -15.5h-238v310h-259v-310h-134zM709 117q63 0 92.5 27.5q29.5 27.5 29.5 72.5q0 45 -28.5 73q-28.5 28 -92.5 28h-95l0 -201z" />
<glyph unicode="&#1035;" horiz-adv-x="723" d="M545 0v238q0 65 -29.5 89q-29.5 24 -86.5 24q-19 0 -41 -3q-22 -3 -51 -14l0 -334h-134v600h-191v124h529v-124h-204v-153q24 8 52 13.5q28 5.5 70 5.5q57 0 98.5 -11.5q41.5 -11.5 68.5 -37.5q27 -26 40 -67q13 -41 13 -99l0 -251z" />
<glyph unicode="&#1036;" horiz-adv-x="673" d="M223 402l275 322h177l-307 -345q81 -96 162.5 -190q81.5 -94 162.5 -189l-181 0q-72 85 -144 170q-72 85 -145 170l0 -340h-135v724h135zM400 935q12 17 29.5 27.5q17.5 10.5 38.5 10.5q28 0 44.5 -16q16.5 -16 16.5 -42q0 -23 -13.5 -40.5q-13.5 -17.5 -30.5 -27.5l-156 -99l-34 34z" />
<glyph unicode="&#1038;" horiz-adv-x="645" d="M269 173q-2 4 -6 12q-4 8 -13.5 27.5q-9.5 19.5 -26.5 54.5q-17 35 -45 95q-28 60 -69 148q-41 88 -98 214l149 0l182 -391l159 391h141l-314 -749h-151zM501 898q-1 -41 -15.5 -69q-14.5 -28 -37.5 -45q-23 -17 -52.5 -24.5q-29.5 -7.5 -61.5 -7.5q-31 0 -61 7q-30 7 -54 24q-24 17 -38.5 45q-14.5 28 -14.5 70l112 0q1 -31 15.5 -43.5q14.5 -12.5 40.5 -12.5q27 0 40.5 14q13.5 14 15.5 42z" />
<glyph unicode="&#1039;" horiz-adv-x="718" d="M88 724h134v-598h282v598h134v-724h-208v-156h-134v156l-208 0z" />
<glyph unicode="&#1040;" horiz-adv-x="695" d="M480 166h-271l-61 -166h-140l265 724h146l268 -724h-146zM246 286h196l-77 210q-6 17 -11.5 33.5q-5.5 16.5 -10.5 36.5l-2 0q-5 -20 -9.5 -35.5q-4.5 -15.5 -11.5 -35.5z" />
<glyph unicode="&#1041;" horiz-adv-x="644" d="M535 724l1 -120h-311l-1 -167h135q76 0 124.5 -21q48.5 -21 76.5 -53.5q28 -32.5 38.5 -72q10.5 -39.5 10.5 -75.5q0 -48 -16 -87.5q-16 -39.5 -47 -68q-31 -28.5 -78 -44q-47 -15.5 -108 -15.5h-272v724zM350 117q63 0 92.5 27.5q29.5 27.5 29.5 72.5q0 45 -28.5 73.5q-28.5 28.5 -92.5 28.5h-127l0 -202z" />
<glyph unicode="&#1042;" horiz-adv-x="646" d="M365 724q104 0 162 -52q58 -52 58 -144q0 -44 -18.5 -83.5q-18.5 -39.5 -65.5 -63.5q63 -25 89 -70q26 -45 26 -100q0 -49 -16.5 -88q-16.5 -39 -48 -66.5q-31.5 -27.5 -76 -42q-44.5 -14.5 -99.5 -14.5h-288v724zM353 435q45 0 71.5 20.5q26.5 20.5 26.5 62.5q0 42 -27 64q-27 22 -75 22h-126v-169zM360 120q59 0 88 26q29 26 29 70q0 45 -27.5 72q-27.5 27 -88.5 27h-138l0 -195z" />
<glyph unicode="&#1043;" horiz-adv-x="543" d="M530 724v-122h-308v-602h-134l0 724z" />
<glyph unicode="&#1044;" horiz-adv-x="707" d="M605 120h88v-276h-132v156h-424v-156h-131v276h78q40 81 60 157q20 76 29 150q9 74 11 148q2 74 7 149l414 0zM313 606q-2 -45 -4.5 -99q-2.5 -54 -11 -115.5q-8.5 -61.5 -25.5 -130.5q-17 -69 -47 -143l244 0l0 488z" />
<glyph unicode="&#1045;" horiz-adv-x="590" d="M541 724v-124h-319v-159h286v-124h-286v-193h329v-124h-463l0 724z" />
<glyph unicode="&#1046;" horiz-adv-x="1011" d="M573 397h3l256 327h163q-70 -87 -138.5 -172.5q-68.5 -85.5 -137.5 -172.5l292 -379h-170q-67 86 -133 171.5q-66 85.5 -132 172.5l-3 0v-344h-135v344h-3q-66 -87 -132 -172.5q-66 -85.5 -133 -171.5l-169 0l291 379l-275 345h162l256 -327h3v327l135 0z" />
<glyph unicode="&#1047;" horiz-adv-x="601" d="M212 433h62q27 0 50.5 4.5q23.5 4.5 41 15.5q17.5 11 28 30q10.5 19 10.5 49q0 45 -28.5 69.5q-28.5 24.5 -81.5 24.5q-52 0 -89 -24q-37 -24 -59 -86l-124 47q14 33 35.5 64.5q21.5 31.5 53.5 55.5q32 24 77 38.5q45 14.5 107 14.5q57 0 103 -14.5q46 -14.5 78.5 -40.5q32.5 -26 49.5 -62q17 -36 17 -79q0 -21 -4.5 -43q-4.5 -22 -15.5 -43q-11 -21 -29 -39q-18 -18 -46 -31q24 -11 45 -26q21 -15 36.5 -35.5q15.5 -20.5 24.5 -48.5q9 -28 9 -64q0 -42 -17.5 -82q-17.5 -40 -52 -71q-34.5 -31 -86 -50q-51.5 -19 -120.5 -19q-41 0 -82 8.5q-41 8.5 -77.5 28.5q-36.5 20 -66.5 53.5q-30 33.5 -49 83.5l124 50q9 -23 21 -43.5q12 -20.5 30 -35.5q18 -15 44 -24q26 -9 62 -9q60 0 92 33.5q32 33.5 32 82.5q0 20 -5 39q-5 19 -19 34q-14 15 -38.5 24q-24.5 9 -64.5 9l-78 0z" />
<glyph unicode="&#1048;" horiz-adv-x="756" d="M88 0v724h134v-501l315 501h131v-724h-134v498l-315 -498z" />
<glyph unicode="&#1049;" horiz-adv-x="756" d="M88 0v724h134v-501l315 501h131v-724h-134v498l-315 -498zM545 898q-1 -41 -15.5 -69q-14.5 -28 -37.5 -45q-23 -17 -52.5 -24.5q-29.5 -7.5 -61.5 -7.5q-31 0 -61 7q-30 7 -54 24q-24 17 -38.5 45q-14.5 28 -14.5 70l112 0q1 -31 15.5 -43.5q14.5 -12.5 40.5 -12.5q27 0 40.5 14q13.5 14 15.5 42z" />
<glyph unicode="&#1050;" horiz-adv-x="673" d="M223 402l275 322h177l-307 -345q81 -96 162.5 -190q81.5 -94 162.5 -189l-181 0q-72 85 -144 170q-72 85 -145 170l0 -340h-135v724l135 0z" />
<glyph unicode="&#1051;" horiz-adv-x="718" d="M637 724v-724h-136v607h-180l-18 -242q-5 -63 -18 -129q-13 -66 -41.5 -119.5q-28.5 -53.5 -76.5 -88q-48 -34.5 -124 -34.5h-40v117h11q44 0 72 23q28 23 45 58q17 35 25.5 75.5q8.5 40.5 13.5 76.5q7 49 11.5 99.5q4.5 50.5 7.5 100q3 49.5 5 95.5q2 46 5 85z" />
<glyph unicode="&#1052;" horiz-adv-x="849" d="M627 0v211q0 35 1 82q1 47 3 89q2 49 5 100v0l-158 -397h-108l-159 401h-3q2 -54 5 -102q1 -21 1.5 -42.5q0.5 -21.5 1.5 -41.5q1 -20 1.5 -37q0.5 -17 0.5 -29v-234h-130v724h159l182 -473q21 53 44 113.5q23 60.5 46 122.5q23 62 46 123q23 61 44 114l152 0l0 -724z" />
<glyph unicode="&#1053;" horiz-adv-x="734" d="M88 724h134v-288h290v288h134v-724h-134v310h-290v-310l-134 0z" />
<glyph unicode="&#1054;" horiz-adv-x="812" d="M406 737q72 0 138 -24q66 -24 115.5 -71.5q49.5 -47.5 79 -117.5q29.5 -70 29.5 -162q0 -92 -29.5 -162q-29.5 -70 -79 -117q-49.5 -47 -115.5 -71q-66 -24 -138 -24q-73 0 -139 24q-66 24 -115.5 71q-49.5 47 -78.5 117q-29 70 -29 162q0 92 29 162q29 70 78.5 117.5q49.5 47.5 115.5 71.5q66 24 139 24zt0 0zM406 613q-48 0 -88 -15.5q-40 -15.5 -69 -47q-29 -31.5 -45 -78.5q-16 -47 -16 -110q0 -63 16 -110q16 -47 45 -78q29 -31 69 -46.5q40 -15.5 88 -15.5q46 0 86 15.5q40 15.5 69 46.5q29 31 46 78q17 47 17 110q0 63 -16 110q-16 47 -45 78.5q-29 31.5 -69 47t-88 15.5z" />
<glyph unicode="&#1055;" horiz-adv-x="726" d="M88 724h550v-724h-134v598h-282v-598l-134 0z" />
<glyph unicode="&#1056;" horiz-adv-x="627" d="M222 276v-276h-134v724h273q57 0 102 -16.5q45 -16.5 76 -46q31 -29.5 47.5 -70q16.5 -40.5 16.5 -87.5q0 -48 -17 -89.5q-17 -41.5 -49 -72q-32 -30.5 -78 -48.5q-46 -18 -103 -18zM351 400q22 0 42 7q20 7 35 20q15 13 24 32.5q9 19.5 9 44.5q0 25 -9 43q-9 18 -24 30q-15 12 -35 17.5q-20 5.5 -42 5.5h-129l0 -200z" />
<glyph unicode="&#1057;" horiz-adv-x="737" d="M399 -12q-74 0 -138.5 24.5q-64.5 24.5 -112.5 71.5q-48 47 -76 117q-28 70 -28 160q0 90 28 160q28 70 76.5 117.5q48.5 47.5 113 72.5q64.5 25 137.5 25q64 0 115.5 -17.5q51.5 -17.5 91 -48.5q39.5 -31 67 -74q27.5 -43 42.5 -94l-133 -37q-11 30 -26.5 56.5q-15.5 26.5 -37.5 46.5q-22 20 -51.5 32q-29.5 12 -67.5 12q-48 0 -86.5 -15.5q-38.5 -15.5 -66.5 -47q-28 -31.5 -43 -78.5q-15 -47 -15 -110q0 -62 15.5 -108.5q15.5 -46.5 43.5 -77.5q28 -31 66.5 -47q38.5 -16 85.5 -16q42 0 73 11.5q31 11.5 54 31.5q23 20 38 46.5q15 26.5 25 56.5l132 -38q-17 -50 -44 -92.5q-27 -42.5 -66 -73.5q-39 -31 -92 -48.5t-120 -17.5z" />
<glyph unicode="&#1058;" horiz-adv-x="566" d="M12 724h542v-122h-204v-602h-134v602l-204 0z" />
<glyph unicode="&#1059;" horiz-adv-x="645" d="M269 173q-2 4 -6 12q-4 8 -13.5 27.5q-9.5 19.5 -26.5 54.5q-17 35 -45 95q-28 60 -69 148q-41 88 -98 214l149 0l182 -391l159 391h141l-314 -749l-151 0z" />
<glyph unicode="&#1060;" horiz-adv-x="816" d="M340 108q-65 0 -120.5 17q-55.5 17 -96 51q-40.5 34 -63 84q-22.5 50 -22.5 115q0 65 23.5 115q23.5 50 64 83.5q40.5 33.5 96 51q55.5 17.5 118.5 17.5l0 107h135v-107q63 0 118.5 -17.5q55.5 -17.5 96 -51q40.5 -33.5 64 -83.5q23.5 -50 23.5 -115q0 -65 -22.5 -115q-22.5 -50 -63 -84q-40.5 -34 -96 -51q-55.5 -17 -120.5 -17l0 -108h-135zM475 211q76 0 124 41q48 41 48 122q0 74 -40.5 118.5q-40.5 44.5 -131.5 47.5zM340 540q-90 -3 -131 -48q-41 -45 -41 -118q0 -80 48 -121.5q48 -41.5 124 -41.5z" />
<glyph unicode="&#1061;" horiz-adv-x="661" d="M412 376l247 -376h-162l-168 266l-171 -266h-154l248 376l-228 348h163l151 -236q6 9 17.5 27.5q11.5 18.5 26.5 42q15 23.5 31.5 49q16.5 25.5 31.5 48.5q15 23 26.5 41.5q11.5 18.5 17.5 27.5l155 0z" />
<glyph unicode="&#1062;" horiz-adv-x="739" d="M88 0v724h134v-604h288v604h134v-607h88v-273h-132l0 156z" />
<glyph unicode="&#1063;" horiz-adv-x="668" d="M182 724v-224q0 -65 33.5 -89q33.5 -24 105.5 -24q16 0 30 0.5q14 0.5 28 2.5q14 2 30 5q16 3 36 9l0 320h134v-724h-134v291q-37 -9 -74 -14q-37 -5 -70 -5q-130 0 -191.5 49q-61.5 49 -61.5 166l0 237z" />
<glyph unicode="&#1064;" horiz-adv-x="1018" d="M227 724v-604h210v604h134v-604h210v604h134v-724h-822l0 724z" />
<glyph unicode="&#1065;" horiz-adv-x="1026" d="M227 724v-604h210v604h134v-604h210v604h134v-604h88v-276h-132v156h-778l0 724z" />
<glyph unicode="&#1066;" horiz-adv-x="744" d="M342 724q0 -72 -0.5 -144q-0.5 -72 -0.5 -144l120 0q76 0 125 -21q49 -21 77 -53.5q28 -32.5 38.5 -71.5q10.5 -39 10.5 -75q0 -48 -16 -87.5q-16 -39.5 -47.5 -68q-31.5 -28.5 -78 -44q-46.5 -15.5 -107.5 -15.5h-257v602h-202v122zM452 117q63 0 92.5 27.5q29.5 27.5 29.5 72.5q0 45 -28.5 73q-28.5 28 -92.5 28h-112l0 -201z" />
<glyph unicode="&#1067;" horiz-adv-x="904" d="M679 0v714h134v-714zM222 724v-288h121q76 0 124.5 -21q48.5 -21 76.5 -53.5q28 -32.5 38.5 -71.5q10.5 -39 10.5 -75q0 -48 -16 -87.5q-16 -39.5 -47 -68q-31 -28.5 -78 -44q-47 -15.5 -108 -15.5h-256v724zM334 117q63 0 92.5 27.5q29.5 27.5 29.5 72.5q0 45 -28.5 73q-28.5 28 -92.5 28h-113l0 -201z" />
<glyph unicode="&#1068;" horiz-adv-x="632" d="M222 724v-287h127q76 0 124.5 -21q48.5 -21 76.5 -53.5q28 -32.5 38.5 -72q10.5 -39.5 10.5 -75.5q0 -48 -16 -87.5q-16 -39.5 -47 -68q-31 -28.5 -78 -44q-47 -15.5 -108 -15.5h-262v724zM340 117q63 0 92.5 27.5q29.5 27.5 29.5 72.5q0 45 -28.5 73.5q-28.5 28.5 -92.5 28.5h-119l0 -202z" />
<glyph unicode="&#1069;" horiz-adv-x="739" d="M29 555q37 81 114.5 131.5q77.5 50.5 189.5 50.5q74 0 139.5 -25q65.5 -25 115 -73q49.5 -48 78.5 -118q29 -70 29 -160q0 -90 -28.5 -159.5q-28.5 -69.5 -77.5 -117q-49 -47.5 -116 -72q-67 -24.5 -143 -24.5q-58 0 -106 13.5q-48 13.5 -86 37.5q-38 24 -66.5 57.5q-28.5 33.5 -47.5 73.5l119 51q22 -48 67.5 -81.5q45.5 -33.5 119.5 -33.5q42 0 80 13q38 13 67.5 39q29.5 26 49 65.5q19.5 39.5 25.5 92.5l-302 0v118h297q-9 45 -29.5 80q-20.5 35 -48.5 58q-28 23 -63 35q-35 12 -74 12q-68 0 -114 -32q-46 -32 -69 -80z" />
<glyph unicode="&#1070;" horiz-adv-x="1093" d="M686 736q73 0 137.5 -24q64.5 -24 113.5 -71.5q49 -47.5 77.5 -117.5q28.5 -70 28.5 -161q0 -92 -28.5 -162q-28.5 -70 -77.5 -117q-49 -47 -113.5 -71q-64.5 -24 -137.5 -24q-69 0 -130.5 21q-61.5 21 -109.5 62.5q-48 41.5 -78.5 103q-30.5 61.5 -37.5 142.5l-111 0v-317h-134v724h134v-286h115q12 73 43.5 129q31.5 56 78.5 93.5q47 37.5 105.5 56.5q58.5 19 124.5 19zt0 0zM686 620q-48 0 -88 -16.5q-40 -16.5 -68.5 -48.5q-28.5 -32 -44 -80.5q-15.5 -48.5 -15.5 -112.5q0 -64 15.5 -112.5q15.5 -48.5 44 -80.5q28.5 -32 68.5 -48.5q40 -16.5 88 -16.5q47 0 86.5 16.5q39.5 16.5 68 48.5q28.5 32 44.5 80.5q16 48.5 16 112.5q0 64 -15.5 112.5q-15.5 48.5 -44 80.5q-28.5 32 -68 48.5t-87.5 16.5z" />
<glyph unicode="&#1071;" horiz-adv-x="663" d="M574 724v-724h-134v297h-84l-164 -297h-160q46 77 92 155.5q46 78.5 92 155.5q-75 22 -111.5 75q-36.5 53 -36.5 125q0 45 15.5 84q15.5 39 45.5 67.5q30 28.5 73 45q43 16.5 98 16.5zM440 608h-130q-44 0 -72.5 -24.5q-28.5 -24.5 -28.5 -72.5q0 -47 29 -72.5q29 -25.5 76 -25.5l126 0z" />
<glyph unicode="&#1072;" horiz-adv-x="548" d="M46 389q8 31 24.5 57.5q16.5 26.5 42.5 45.5q26 19 62.5 29.5q36.5 10.5 84.5 10.5q111 0 163.5 -49q52.5 -49 52.5 -147v-191q0 -12 0.5 -31.5q0.5 -19.5 1.5 -40.5q1 -21 3 -40.5q2 -19.5 4 -32.5l-115 0q-8 13 -10.5 29q-2.5 16 -3.5 35l-3 0q-27 -35 -61.5 -55.5q-34.5 -20.5 -87.5 -20.5q-36 0 -67.5 11q-31.5 11 -54 31q-22.5 20 -35.5 48q-13 28 -13 63q0 44 14.5 75.5q14.5 31.5 41 52.5q26.5 21 64.5 32.5q38 11.5 85 15.5l109 9v25q0 34 -20 55q-20 21 -66 21q-48 0 -70 -18q-22 -18 -31 -50zM348 226l-99 -8q-38 -3 -59 -18q-21 -15 -21 -50q0 -20 15 -39q15 -19 50 -19q53 0 83.5 28.5q30.5 28.5 30.5 83.5z" />
<glyph unicode="&#1073;" horiz-adv-x="604" d="M165 439q2 -1 5 -1q30 38 75 56q45 18 95 18q54 0 97.5 -20.5q43.5 -20.5 74 -56q30.5 -35.5 46.5 -83q16 -47.5 16 -101.5q0 -56 -19 -104q-19 -48 -53.5 -83.5q-34.5 -35.5 -84 -55.5q-49.5 -20 -110.5 -20q-72 0 -123 25.5q-51 25.5 -83 66.5q-32 41 -46.5 93.5q-14.5 52.5 -14.5 106.5q0 116 21.5 199q21.5 83 76.5 143q42 46 96.5 67.5q54.5 21.5 132.5 34.5l48 9q36 7 61.5 10.5q25.5 3.5 51.5 14.5l0 -117q-21 -10 -46.5 -15q-25.5 -5 -54.5 -10l-88 -14h1q-35 -6 -64.5 -17.5q-29.5 -11.5 -52 -30.5q-22.5 -19 -37.5 -47.5q-15 -28.5 -21 -67.5zt0 0zM308 96q60 0 96 42q36 42 36 109q0 68 -33 111.5q-33 43.5 -98 43.5q-66 0 -101 -42q-35 -42 -35 -107q0 -72 37 -114.5t98 -42.5z" />
<glyph unicode="&#1074;" horiz-adv-x="580" d="M342 520q55 0 89.5 -14q34.5 -14 54.5 -35q20 -21 27.5 -45.5q7.5 -24.5 7.5 -45.5q0 -29 -14 -56q-14 -27 -43 -44q38 -18 59 -49.5q21 -31.5 21 -72.5q0 -41 -15.5 -71q-15.5 -30 -41 -49.5q-25.5 -19.5 -59.5 -28.5q-34 -9 -71 -9h-275v520zM320 316q30 0 49.5 14q19.5 14 19.5 40q0 28 -19.5 39.5q-19.5 11.5 -48.5 11.5h-111v-105zM331 98q38 0 58.5 16q20.5 16 20.5 46q0 26 -19.5 43q-19.5 17 -58.5 17h-122l0 -122z" />
<glyph unicode="&#1075;" horiz-adv-x="445" d="M82 0v520h352v-108h-224l0 -412z" />
<glyph unicode="&#1076;" horiz-adv-x="570" d="M491 520v-412h77v-241h-124v133h-322v-133h-124v241h63q22 45 35.5 87.5q13.5 42.5 20.5 83.5q7 41 9.5 82.5q2.5 41.5 3.5 84.5l2 74zM245 369q-2 -35 -4 -66q-2 -31 -8 -62.5q-6 -31.5 -16.5 -64.5q-10.5 -33 -27.5 -72l174 0v310l-116 0z" />
<glyph unicode="&#1077;" horiz-adv-x="575" d="M408 315q-2 22 -10.5 42q-8.5 20 -23.5 35.5q-15 15.5 -36.5 24.5q-21.5 9 -49.5 9q-27 0 -48 -9q-21 -9 -36 -24.5q-15 -15.5 -24.5 -35.5q-9.5 -20 -12.5 -42zM532 125q-34 -68 -89.5 -102.5q-55.5 -34.5 -145.5 -34.5q-66 0 -116 22q-50 22 -83.5 59.5q-33.5 37.5 -50 87q-16.5 49.5 -16.5 104.5q0 54 17 103q17 49 49.5 86.5q32.5 37.5 81 59.5q48.5 22 111.5 22q64 0 111.5 -22.5q47.5 -22.5 79 -59.5q31.5 -37 47 -85.5q15.5 -48.5 15.5 -99.5q0 -8 0 -20.5q0 -12.5 -1 -20.5l-376 0q2 -26 10.5 -50q8.5 -24 24.5 -42q16 -18 40 -29q24 -11 57 -11q49 0 80.5 20.5q31.5 20.5 51.5 60.5z" />
<glyph unicode="&#1078;" horiz-adv-x="800" d="M335 284v236h129v-236l181 236h153l-198 -243l210 -277h-161l-185 249v-249h-129v248q-47 -63 -92.5 -124.5q-45.5 -61.5 -92.5 -123.5l-160 0l209 276l-197 244l153 0z" />
<glyph unicode="&#1079;" horiz-adv-x="478" d="M16 402q32 73 88.5 100q56.5 27 127.5 27q39 0 74.5 -8.5q35.5 -8.5 62.5 -26q27 -17.5 43.5 -44.5q16.5 -27 16.5 -65q0 -25 -14 -55q-14 -30 -58 -54l0 -2q38 -14 61.5 -43q23.5 -29 23.5 -74q0 -43 -18.5 -74q-18.5 -31 -48.5 -51.5q-30 -20.5 -67.5 -30q-37.5 -9.5 -75.5 -9.5q-73 0 -127.5 27.5q-54.5 27.5 -90.5 95.5l104 47q13 -26 38.5 -46.5q25.5 -20.5 67.5 -20.5q48 0 68 19q20 19 20 45q0 32 -22.5 45.5q-22.5 13.5 -67.5 13.5h-54v97h43q44 0 67 14.5q23 14.5 23 43.5q0 29 -21.5 42.5q-21.5 13.5 -56.5 13.5q-45 0 -69 -18q-24 -18 -38 -50z" />
<glyph unicode="&#1080;" horiz-adv-x="612" d="M208 520v-28q0 -20 -0.5 -49q-0.5 -29 -1.5 -61.5q-1 -32.5 -2 -65.5q-1 -33 -2 -61.5q-1 -28.5 -2 -49.5q-1 -21 -1 -28l4 0l190 343h139v-520h-128v27q0 20 0.5 50q0.5 30 1.5 63q1 33 2.5 67q1.5 34 2.5 62q1 28 2 48q1 20 1 25l-4 0l-191 -342h-139l0 520z" />
<glyph unicode="&#1081;" horiz-adv-x="612" d="M259 699q2 -26 13.5 -37q11.5 -11 33.5 -11q23 0 34.5 11q11.5 11 13.5 37l94 -3q-2 -66 -39 -95q-37 -29 -103 -29q-65 0 -102 29q-37 29 -39 95zM208 520v-28q0 -20 -0.5 -49q-0.5 -29 -1.5 -61.5q-1 -32.5 -2 -65.5q-1 -33 -2 -61.5q-1 -28.5 -2 -49.5q-1 -21 -1 -28l4 0l190 343h139v-520h-128v27q0 20 0.5 50q0.5 30 1.5 63q1 33 2.5 67q1.5 34 2.5 62q1 28 2 48q1 20 1 25l-4 0l-191 -342h-139l0 520z" />
<glyph unicode="&#1082;" horiz-adv-x="575" d="M208 296l182 224h164l-216 -239l233 -281h-166l-197 242v-242h-128v520l128 0z" />
<glyph unicode="&#1083;" horiz-adv-x="599" d="M519 520v-520h-129v413h-134l-7 -108q-2 -33 -5 -66.5q-3 -33.5 -9.5 -65q-6.5 -31.5 -17.5 -60.5q-11 -29 -29 -55q-13 -19 -30.5 -31q-17.5 -12 -37 -18.5q-19.5 -6.5 -39.5 -8.5q-20 -2 -38 -2h-37v112h11q17 0 36.5 5q19.5 5 29.5 18q16 13 25.5 43.5q9.5 30.5 15 66q5.5 35.5 7.5 70q2 34.5 3 55.5l7 152z" />
<glyph unicode="&#1084;" horiz-adv-x="735" d="M525 0v186q0 8 0.5 26.5q0.5 18.5 1 39q0.5 20.5 1.5 39q1 18.5 2 27.5l-4 0l-119 -261h-83l-121 262h-3q0 -8 1 -26q1 -18 2 -38q1 -20 1.5 -39.5q0.5 -19.5 0.5 -30.5v-185h-123v520h140l147 -318l144 318h140l0 -520z" />
<glyph unicode="&#1085;" horiz-adv-x="600" d="M520 0h-128v213h-184v-213h-128v520h128v-195h184v195l128 0z" />
<glyph unicode="&#1086;" horiz-adv-x="614" d="M38 261q0 57 18.5 106q18.5 49 53.5 86q35 37 84.5 58q49.5 21 112.5 21q63 0 113 -21q50 -21 84.5 -58q34.5 -37 53 -86q18.5 -49 18.5 -106q0 -57 -18.5 -106.5q-18.5 -49.5 -53 -86.5q-34.5 -37 -84.5 -58.5q-50 -21.5 -113 -21.5q-63 0 -112.5 21.5q-49.5 21.5 -84.5 58.5q-35 37 -53.5 86.5q-18.5 49.5 -18.5 106.5zt0 0zM174 261q0 -32 8.5 -62q8.5 -30 25 -53q16.5 -23 41.5 -36.5q25 -13.5 58 -13.5q33 0 57.5 13.5q24.5 13.5 41.5 36.5q17 23 25.5 53q8.5 30 8.5 62q0 32 -8.5 61.5q-8.5 29.5 -25.5 52q-17 22.5 -41.5 36q-24.5 13.5 -57.5 13.5q-33 0 -57.5 -13.5q-24.5 -13.5 -41.5 -36q-17 -22.5 -25.5 -52t-8.5 -61.5z" />
<glyph unicode="&#1087;" horiz-adv-x="593" d="M513 0h-128v408h-177v-408h-128v520l433 0z" />
<glyph unicode="&#1088;" horiz-adv-x="617" d="M80 520h128v-54q27 32 64.5 49q37.5 17 82.5 17q57 0 99 -21.5q42 -21.5 69 -59q27 -37.5 40.5 -88.5q13.5 -51 13.5 -109q0 -57 -13.5 -106q-13.5 -49 -41.5 -84.5q-28 -35.5 -70.5 -55.5q-42.5 -20 -99.5 -20q-13 0 -32 3q-19 3 -39 9.5q-20 6.5 -39.5 18.5q-19.5 12 -33.5 30l0 -237h-128zM325 420q-31 0 -54 -12.5q-23 -12.5 -38 -34.5q-15 -22 -22 -52q-7 -30 -7 -64q0 -70 30 -113.5q30 -43.5 89 -43.5q61 0 89.5 45q28.5 45 28.5 115q0 34 -7 63q-7 29 -21 50.5q-14 21.5 -36 34t-52 12.5z" />
<glyph unicode="&#1089;" horiz-adv-x="555" d="M304 424q-33 0 -57 -12.5q-24 -12.5 -40 -34q-16 -21.5 -24 -51.5q-8 -30 -8 -65q0 -73 31.5 -119q31.5 -46 96.5 -46q48 0 77.5 25.5q29.5 25.5 46.5 63.5q7 -3 23.5 -10q16.5 -7 34 -14.5q17.5 -7.5 33 -14q15.5 -6.5 22.5 -9.5q-29 -68 -87 -108.5q-58 -40.5 -152 -40.5q-61 0 -109.5 21q-48.5 21 -82.5 57.5q-34 36.5 -52 86.5q-18 50 -18 108q0 56 18.5 105.5q18.5 49.5 53 86q34.5 36.5 83 58q48.5 21.5 107.5 21.5q48 0 86 -10.5q38 -10.5 67 -29.5q29 -19 50.5 -46q21.5 -27 35.5 -61l-114 -51q-17 40 -46 65t-76 25z" />
<glyph unicode="&#1090;" horiz-adv-x="440" d="M12 520h416v-108h-144v-412h-128v412l-144 0z" />
<glyph unicode="&#1091;" horiz-adv-x="512" d="M141 520l126 -320l108 320h137l-266 -708h-132l88 223l-200 485z" />
<glyph unicode="&#1092;" horiz-adv-x="747" d="M310 724h128v-203q60 0 110 -19.5q50 -19.5 86 -54.5q36 -35 56 -83q20 -48 20 -106q0 -59 -19.5 -107.5q-19.5 -48.5 -55.5 -83.5q-36 -35 -86 -54q-50 -19 -111 -19l0 -182h-128v182q-61 0 -111 19q-50 19 -86 54q-36 35 -56 83.5q-20 48.5 -20 107.5q0 58 20 106q20 48 56 83q36 35 86 54.5q50 19.5 111 19.5zM171 257q0 -38 11 -67.5q11 -29.5 29.5 -49.5q18.5 -20 44.5 -31q26 -11 56 -11l0 319q-30 0 -56 -11q-26 -11 -44.5 -31.5q-18.5 -20.5 -29.5 -50q-11 -29.5 -11 -67.5zt0 0zM577 258q0 37 -11 67q-11 30 -30 50q-19 20 -45 31q-26 11 -56 11l0 -319q30 0 56 10.5q26 10.5 45 31q19 20.5 30 50.5t11 68z" />
<glyph unicode="&#1093;" horiz-adv-x="534" d="M193 268q-7 11 -21 30.5q-14 19.5 -31.5 44q-17.5 24.5 -36.5 51q-19 26.5 -36.5 51q-17.5 24.5 -31.5 44q-14 19.5 -21 29.5l152 0l106 -154q6 9 21 30.5q15 21.5 31.5 46q16.5 24.5 31.5 46.5q15 22 21 31l143 0l-177 -252l190 -266h-151l-120 171q-4 -6 -13.5 -19.5q-9.5 -13.5 -22 -31.5q-12.5 -18 -26 -37.5q-13.5 -19.5 -25 -36.5q-11.5 -17 -20.5 -29.5q-9 -12.5 -11 -16.5l-144 0z" />
<glyph unicode="&#1094;" horiz-adv-x="614" d="M80 520h128v-412h193v412h128v-412h70v-241h-124v133l-395 0z" />
<glyph unicode="&#1095;" horiz-adv-x="550" d="M163 520v-159q0 -44 21 -59.5q21 -15.5 63 -15.5q50 0 95 13l0 221h128v-520h-128v193q-30 -8 -63 -10.5q-33 -2.5 -56 -2.5q-41 0 -75 8q-34 8 -59.5 27q-25.5 19 -39.5 50.5q-14 31.5 -14 78.5l0 176z" />
<glyph unicode="&#1096;" horiz-adv-x="860" d="M208 520v-412h158v412h128v-412h158v412h128v-520h-700l0 520z" />
<glyph unicode="&#1097;" horiz-adv-x="861" d="M208 520v-412h158v412h128v-412h158v412h128v-412h69v-241h-123v133h-646l0 520z" />
<glyph unicode="&#1098;" horiz-adv-x="610" d="M293 520v-186h114q43 0 78.5 -12q35.5 -12 60 -34.5q24.5 -22.5 38 -53.5q13.5 -31 13.5 -68q0 -38 -14 -68.5q-14 -30.5 -39 -52.5q-25 -22 -60 -33.5q-35 -11.5 -77 -11.5h-242v412h-161v108zM293 98h89q36 0 60 15.5q24 15.5 24 50.5q0 36 -23.5 54q-23.5 18 -59.5 18l-90 0z" />
<glyph unicode="&#1099;" horiz-adv-x="786" d="M706 0h-128v520h128zM208 520v-184h115q43 0 78.5 -12.5q35.5 -12.5 60.5 -34.5q25 -22 38.5 -53.5q13.5 -31.5 13.5 -68.5q0 -38 -14 -69q-14 -31 -39 -53q-25 -22 -60 -33.5q-35 -11.5 -78 -11.5h-243v520zM208 98h89q38 0 61.5 16q23.5 16 23.5 52q0 35 -23.5 53.5q-23.5 18.5 -60.5 18.5l-90 0z" />
<glyph unicode="&#1100;" horiz-adv-x="555" d="M208 520v-184h126q89 0 140.5 -46q51.5 -46 51.5 -122q0 -38 -14 -69q-14 -31 -39 -53q-25 -22 -60.5 -34q-35.5 -12 -78.5 -12h-254v520zM208 98h101q38 0 61.5 16q23.5 16 23.5 52q0 36 -23.5 54q-23.5 18 -60.5 18l-102 0z" />
<glyph unicode="&#1101;" horiz-adv-x="563" d="M187 315h200q-9 54 -41.5 84.5q-32.5 30.5 -83.5 30.5q-89 0 -125 -73l-104 48q14 26 33.5 49q19.5 23 47.5 40.5q28 17.5 64 27.5q36 10 83 10q59 0 108 -20.5q49 -20.5 84 -57q35 -36.5 54.5 -86.5q19.5 -50 19.5 -108q0 -59 -18.5 -108.5q-18.5 -49.5 -53.5 -86q-35 -36.5 -85 -57q-50 -20.5 -112 -20.5q-84 0 -141.5 34q-57.5 34 -86.5 91l101 52q16 -35 47.5 -55q31.5 -20 80.5 -20q52 0 88 33.5q36 33.5 43 94.5l-203 0z" />
<glyph unicode="&#1102;" horiz-adv-x="844" d="M546 -12q-56 0 -101 17q-45 17 -78 47q-33 30 -54 72q-21 42 -27 92l-78 0v-216h-128v520h128v-199h80q9 46 30.5 85q21.5 39 54.5 67q33 28 76.5 43.5q43.5 15.5 96.5 15.5q62 0 111 -21q49 -21 82.5 -57.5q33.5 -36.5 51.5 -86q18 -49.5 18 -106.5q0 -59 -18 -108.5q-18 -49.5 -51.5 -86.5q-33.5 -37 -82.5 -57.5q-49 -20.5 -111 -20.5zt0 0zM417 260q0 -76 33 -121q33 -45 96 -45q63 0 96 44.5q33 44.5 33 122.5q0 76 -33 120q-33 44 -96 44q-63 0 -96 -44t-33 -121z" />
<glyph unicode="&#1103;" horiz-adv-x="567" d="M359 0v194h-68l-119 -194h-146l136 208q-54 14 -83.5 51.5q-29.5 37.5 -29.5 94.5q0 77 49.5 121.5q49.5 44.5 138.5 44.5h250v-520zM359 420h-98q-15 0 -30 -3.5q-15 -3.5 -26.5 -11q-11.5 -7.5 -18.5 -20q-7 -12.5 -7 -30.5q0 -35 24 -50q24 -15 56 -15l100 0z" />
<glyph unicode="&#1105;" horiz-adv-x="575" d="M408 315q-2 22 -10.5 42q-8.5 20 -23.5 35.5q-15 15.5 -36.5 24.5q-21.5 9 -49.5 9q-27 0 -48 -9q-21 -9 -36 -24.5q-15 -15.5 -24.5 -35.5q-9.5 -20 -12.5 -42zM532 125q-34 -68 -89.5 -102.5q-55.5 -34.5 -145.5 -34.5q-66 0 -116 22q-50 22 -83.5 59.5q-33.5 37.5 -50 87q-16.5 49.5 -16.5 104.5q0 54 17 103q17 49 49.5 86.5q32.5 37.5 81 59.5q48.5 22 111.5 22q64 0 111.5 -22.5q47.5 -22.5 79 -59.5q31.5 -37 47 -85.5q15.5 -48.5 15.5 -99.5q0 -8 0 -20.5q0 -12.5 -1 -20.5l-376 0q2 -26 10.5 -50q8.5 -24 24.5 -42q16 -18 40 -29q24 -11 57 -11q49 0 80.5 20.5q31.5 20.5 51.5 60.5zM93 650q0 32 20.5 52.5q20.5 20.5 52.5 20.5q33 0 54 -20.5q21 -20.5 21 -52.5q0 -32 -21 -53.5q-21 -21.5 -54 -21.5q-32 0 -52.5 21.5q-20.5 21.5 -20.5 53.5zt0 0zM333 650q0 32 21 52.5q21 20.5 53 20.5q33 0 53.5 -20.5q20.5 -20.5 20.5 -52.5q0 -32 -20.5 -53.5q-20.5 -21.5 -53.5 -21.5q-32 0 -53 21.5t-21 53.5z" />
<glyph unicode="&#1106;" horiz-adv-x="609" d="M7 666h76v90h121v-90h186v-66h-186v-160q26 53 70.5 72.5q44.5 19.5 94.5 19.5q35 0 65 -11.5q30 -11.5 51.5 -32.5q21.5 -21 34 -50.5q12.5 -29.5 12.5 -65.5v-347q0 -49 -9.5 -88.5q-9.5 -39.5 -32.5 -67q-23 -27.5 -61 -42.5q-38 -15 -95 -15h-37v107h24q42 0 62.5 18.5q20.5 18.5 20.5 63.5v328q0 47 -24.5 69q-24.5 22 -56.5 22q-20 0 -40 -6q-20 -6 -36 -22.5q-16 -16.5 -26 -47.5q-10 -31 -10 -80v-264h-128v600l-76 0z" />
<glyph unicode="&#1107;" horiz-adv-x="445" d="M293 739q11 15 26.5 24.5q15.5 9.5 35.5 9.5q26 0 41 -14.5q15 -14.5 15 -38.5q0 -20 -12.5 -36.5q-12.5 -16.5 -27.5 -25.5l-143 -91l-31 32zM82 0v520h352v-112h-224l0 -408z" />
<glyph unicode="&#1108;" horiz-adv-x="549" d="M378 218h-203q7 -61 43 -94.5q36 -33.5 88 -33.5q49 0 80.5 20q31.5 20 47.5 55l101 -52q-29 -57 -86.5 -91q-57.5 -34 -141.5 -34q-62 0 -112 20.5q-50 20.5 -85 57q-35 36.5 -53.5 86q-18.5 49.5 -18.5 108.5q0 58 19.5 108q19.5 50 54.5 86.5q35 36.5 84 57q49 20.5 108 20.5q47 0 83 -10q36 -10 64 -27.5q28 -17.5 47.5 -40.5q19.5 -23 33.5 -49l-104 -48q-36 73 -125 73q-51 0 -83.5 -30.5q-32.5 -30.5 -41.5 -84.5l200 0z" />
<glyph unicode="&#1109;" horiz-adv-x="486" d="M339 378q-14 23 -37.5 39q-23.5 16 -58.5 16q-27 0 -45.5 -12q-18.5 -12 -18.5 -35q0 -23 15.5 -35.5q15.5 -12.5 38.5 -20.5l71 -26q34 -12 60 -25q26 -13 43.5 -31q17.5 -18 26.5 -42.5q9 -24.5 9 -59.5q0 -30 -12 -58.5q-12 -28.5 -37 -50.5q-25 -22 -63 -35.5q-38 -13.5 -89 -13.5q-45 0 -80 11.5q-35 11.5 -60 30q-25 18.5 -42 42q-17 23.5 -26 47.5l102 44q11 -35 39.5 -55.5q28.5 -20.5 67.5 -20.5q32 0 53 14.5q21 14.5 21 38.5q0 20 -12.5 32q-12.5 12 -38.5 21l-83 30q-31 10 -55 23q-24 13 -40.5 31.5q-16.5 18.5 -25 43.5q-8.5 25 -8.5 60q0 31 13 59q13 28 37 48q24 20 58.5 32q34.5 12 78.5 12q78 0 122 -28q44 -28 68 -72z" />
<glyph unicode="&#1110;" horiz-adv-x="270" d="M72 0v516h126v-516zM59 643q0 32 22 54q22 22 54 22q32 0 54 -22q22 -22 22 -54q0 -32 -22 -54q-22 -22 -54 -22q-32 0 -54 22t-22 54z" />
<glyph unicode="&#1111;" horiz-adv-x="270" d="M72 0v516h126v-516zM-8 650q0 29 18.5 47.5q18.5 18.5 47.5 18.5q30 0 49 -18.5q19 -18.5 19 -47.5q0 -29 -19 -48.5q-19 -19.5 -49 -19.5q-29 0 -47.5 19.5q-18.5 19.5 -18.5 48.5zt0 0zM145 650q0 29 19 47.5q19 18.5 48 18.5q30 0 48.5 -18.5q18.5 -18.5 18.5 -47.5q0 -29 -18.5 -48.5q-18.5 -19.5 -48.5 -19.5q-29 0 -48 19.5t-19 48.5z" />
<glyph unicode="&#1112;" horiz-adv-x="269" d="M69 520h127v-495q0 -47 -9.5 -86q-9.5 -39 -32.5 -67q-23 -28 -60.5 -44q-37.5 -16 -94.5 -16h-37v107h24q42 0 62.5 18.5q20.5 18.5 20.5 63.5zM57 643q0 32 22 54q22 22 54 22q32 0 54 -22q22 -22 22 -54q0 -32 -22 -54q-22 -22 -54 -22q-32 0 -54 22t-22 54z" />
<glyph unicode="&#1113;" horiz-adv-x="801" d="M516 520v-192h81q94 0 142.5 -41q48.5 -41 48.5 -121q0 -38 -14 -69q-14 -31 -39 -52.5q-25 -21.5 -60 -33q-35 -11.5 -78 -11.5h-209v411h-134l-7 -106q-2 -33 -5 -66.5q-3 -33.5 -9 -65q-6 -31.5 -17 -61q-11 -29.5 -30 -54.5q-14 -19 -32.5 -31q-18.5 -12 -38 -18.5q-19.5 -6.5 -40 -8.5q-20.5 -2 -38.5 -2h-33v112h11q17 0 36 6.5q19 6.5 30 17.5q17 17 27 48q10 31 15 65q5 34 6.5 67q1.5 33 2.5 54l7 152zM516 230v-132h55q38 0 61.5 16q23.5 16 23.5 51q0 35 -23.5 50q-23.5 15 -60.5 15z" />
<glyph unicode="&#1114;" horiz-adv-x="810" d="M507 328h82q94 0 142.5 -41q48.5 -41 48.5 -121q0 -38 -14 -69q-14 -31 -39 -52.5q-25 -21.5 -60 -33q-35 -11.5 -78 -11.5h-210v216h-169v-216h-128v520h128v-192h169v192h128zM507 98h56q38 0 61.5 16q23.5 16 23.5 51q0 35 -23.5 50q-23.5 15 -60.5 15l-57 0z" />
<glyph unicode="&#1115;" horiz-adv-x="609" d="M7 666h76v90h121v-90h186v-66h-186v-160q26 53 70.5 72.5q44.5 19.5 94.5 19.5q35 0 65 -11.5q30 -11.5 51.5 -32.5q21.5 -21 34 -50.5q12.5 -29.5 12.5 -65.5v-372h-128v329q0 47 -24.5 69q-24.5 22 -56.5 22q-20 0 -40 -6q-20 -6 -36 -22.5q-16 -16.5 -26 -47.5q-10 -31 -10 -80v-264h-128v600l-76 0z" />
<glyph unicode="&#1116;" horiz-adv-x="617" d="M210 296l182 224h164l-216 -239l233 -281h-166l-197 242v-242h-128v520h128zM330 739q11 15 26.5 24.5q15.5 9.5 35.5 9.5q26 0 41 -14.5q15 -14.5 15 -38.5q0 -20 -12.5 -36.5q-12.5 -16.5 -27.5 -25.5l-143 -91l-31 32z" />
<glyph unicode="&#1118;" horiz-adv-x="512" d="M141 520l126 -320l108 320h137l-266 -708h-132l88 223l-200 485zM217 699q2 -26 13.5 -37q11.5 -11 33.5 -11q23 0 34.5 11q11.5 11 13.5 37l94 -3q-2 -66 -39 -95q-37 -29 -103 -29q-65 0 -102 29q-37 29 -39 95z" />
<glyph unicode="&#1119;" horiz-adv-x="597" d="M234 0h-152v520h128v-412h176v412h128v-520h-152v-133l-128 0z" />
<glyph unicode="&#1168;" horiz-adv-x="543" d="M222 0h-134v724h310v172h132v-294l-308 0z" />
<glyph unicode="&#1169;" horiz-adv-x="445" d="M210 0h-128v520h226v129h126v-241l-224 0z" />
<glyph unicode="&#8211;" horiz-adv-x="471" d="M0 384h471v-112l-471 0z" />
<glyph unicode="&#8212;" horiz-adv-x="636" d="M-15 384h663v-112l-663 0z" />
<glyph unicode="&#8216;" horiz-adv-x="198" d="M193 736l-63 -110q-5 -10 -6 -15.5q-1 -5.5 -1 -10.5q0 -12 15 -23q11 -9 21 -23q10 -14 10 -40q0 -38 -24.5 -57.5q-24.5 -19.5 -59.5 -19.5q-20 0 -34.5 7.5q-14.5 7.5 -24 19.5q-9.5 12 -14.5 26.5q-5 14.5 -5 28.5q0 15 5 31.5q5 16.5 18 39.5l84 146z" />
<glyph unicode="&#8217;" horiz-adv-x="209" d="M7 437l63 110q5 10 6 15.5q1 5.5 1 10.5q0 12 -15 23q-11 9 -21 23q-10 14 -10 40q0 38 24.5 57.5q24.5 19.5 59.5 19.5q19 0 34 -7.5q15 -7.5 24.5 -19.5q9.5 -12 14.5 -26.5q5 -14.5 5 -28.5q0 -15 -5 -31.5q-5 -16.5 -18 -39.5l-84 -146z" />
<glyph unicode="&#8218;" horiz-adv-x="216" d="M7 -156l63 110q5 10 6 15.5q1 5.5 1 10.5q0 12 -15 23q-11 9 -21 23q-10 14 -10 40q0 38 24.5 57.5q24.5 19.5 59.5 19.5q19 0 34 -7.5q15 -7.5 24.5 -19.5q9.5 -12 14.5 -26.5q5 -14.5 5 -28.5q0 -15 -5 -31.5q-5 -16.5 -18 -39.5l-84 -146z" />
<glyph unicode="&#8220;" horiz-adv-x="417" d="M401 736l-63 -110q-5 -10 -6 -15.5q-1 -5.5 -1 -10.5q0 -12 15 -23q11 -9 21 -23q10 -14 10 -40q0 -38 -24.5 -57.5q-24.5 -19.5 -59.5 -19.5q-20 0 -34.5 7.5q-14.5 7.5 -24 19.5q-9.5 12 -14.5 26.5q-5 14.5 -5 28.5q0 15 5 31.5q5 16.5 18 39.5l84 146zM193 736l-63 -110q-5 -10 -6 -15.5q-1 -5.5 -1 -10.5q0 -12 15 -23q11 -9 21 -23q10 -14 10 -40q0 -38 -24.5 -57.5q-24.5 -19.5 -59.5 -19.5q-20 0 -34.5 7.5q-14.5 7.5 -24 19.5q-9.5 12 -14.5 26.5q-5 14.5 -5 28.5q0 15 5 31.5q5 16.5 18 39.5l84 146z" />
<glyph unicode="&#8221;" horiz-adv-x="417" d="M7 437l63 110q5 10 6 15.5q1 5.5 1 10.5q0 12 -15 23q-11 9 -21 23q-10 14 -10 40q0 38 24.5 57.5q24.5 19.5 59.5 19.5q19 0 34 -7.5q15 -7.5 24.5 -19.5q9.5 -12 14.5 -26.5q5 -14.5 5 -28.5q0 -15 -5 -31.5q-5 -16.5 -18 -39.5l-84 -146zM215 437l63 110q5 10 6 15.5q1 5.5 1 10.5q0 12 -15 23q-11 9 -21 23q-10 14 -10 40q0 38 24.5 57.5q24.5 19.5 59.5 19.5q19 0 34 -7.5q15 -7.5 24.5 -19.5q9.5 -12 14.5 -26.5q5 -14.5 5 -28.5q0 -15 -5 -31.5q-5 -16.5 -18 -39.5l-84 -146z" />
<glyph unicode="&#8222;" horiz-adv-x="417" d="M7 -156l63 110q5 10 6 15.5q1 5.5 1 10.5q0 12 -15 23q-11 9 -21 23q-10 14 -10 40q0 38 24.5 57.5q24.5 19.5 59.5 19.5q19 0 34 -7.5q15 -7.5 24.5 -19.5q9.5 -12 14.5 -26.5q5 -14.5 5 -28.5q0 -15 -5 -31.5q-5 -16.5 -18 -39.5l-84 -146zM215 -156l63 110q5 10 6 15.5q1 5.5 1 10.5q0 12 -15 23q-11 9 -21 23q-10 14 -10 40q0 38 24.5 57.5q24.5 19.5 59.5 19.5q19 0 34 -7.5q15 -7.5 24.5 -19.5q9.5 -12 14.5 -26.5q5 -14.5 5 -28.5q0 -15 -5 -31.5q-5 -16.5 -18 -39.5l-84 -146z" />
<glyph unicode="&#8224;" horiz-adv-x="480" d="M182 29v394h-143v106h143v200h118v-200h143v-106h-143l0 -394z" />
<glyph unicode="&#8225;" horiz-adv-x="503" d="M187 290v144h-142v105h142v190h118v-190h144v-105h-144v-144h144v-105h-144v-198h-118v198h-142l0 105z" />
<glyph unicode="&#8226;" horiz-adv-x="405" d="M81 341q0 25 9.5 47.5q9.5 22.5 26 39q16.5 16.5 38.5 26q22 9.5 48 9.5q25 0 47.5 -9.5q22.5 -9.5 39 -26q16.5 -16.5 26 -39q9.5 -22.5 9.5 -47.5q0 -25 -9.5 -47.5q-9.5 -22.5 -26 -39q-16.5 -16.5 -39 -26q-22.5 -9.5 -47.5 -9.5q-26 0 -48 9.5q-22 9.5 -38.5 26q-16.5 16.5 -26 39t-9.5 47.5z" />
<glyph unicode="&#8230;" horiz-adv-x="866" d="M83 69q0 32 21.5 54q21.5 22 53.5 22q32 0 53.5 -22q21.5 -22 21.5 -54q0 -32 -21.5 -53.5q-21.5 -21.5 -53.5 -21.5q-32 0 -53.5 21.5q-21.5 21.5 -21.5 53.5zt0 0zM372 69q0 32 21.5 54q21.5 22 53.5 22q32 0 53.5 -22q21.5 -22 21.5 -54q0 -32 -21.5 -53.5q-21.5 -21.5 -53.5 -21.5q-32 0 -53.5 21.5q-21.5 21.5 -21.5 53.5zt0 0zM661 69q0 32 21.5 54q21.5 22 53.5 22q32 0 53.5 -22q21.5 -22 21.5 -54q0 -32 -21.5 -53.5q-21.5 -21.5 -53.5 -21.5q-32 0 -53.5 21.5t-21.5 53.5z" />
<glyph unicode="&#8240;" horiz-adv-x="1083" d="M671 677l-548 -717q-4 3 -13.5 10q-9.5 7 -20.5 14.5q-11 7.5 -20.5 14.5q-9.5 7 -12.5 9l551 719zM31 532q0 34 12.5 63.5q12.5 29.5 34.5 51q22 21.5 53 34q31 12.5 67 12.5q37 0 67.5 -12.5q30.5 -12.5 53 -34q22.5 -21.5 35 -51q12.5 -29.5 12.5 -63.5q0 -34 -12.5 -63q-12.5 -29 -35 -50.5q-22.5 -21.5 -53 -34q-30.5 -12.5 -67.5 -12.5q-36 0 -67 12.5q-31 12.5 -53 34q-22 21.5 -34.5 50.5q-12.5 29 -12.5 63zt0 0zM124 532q0 -33 19.5 -55.5q19.5 -22.5 54.5 -22.5q35 0 55 22.5q20 22.5 20 55.5q0 33 -20 55.5q-20 22.5 -55 22.5q-35 0 -54.5 -22.5q-19.5 -22.5 -19.5 -55.5zt0 0zM365 150q0 34 12.5 63.5q12.5 29.5 34.5 51q22 21.5 53 34q31 12.5 67 12.5q37 0 67.5 -12.5q30.5 -12.5 53 -34q22.5 -21.5 35 -51q12.5 -29.5 12.5 -63.5q0 -33 -12.5 -62.5q-12.5 -29.5 -35 -51q-22.5 -21.5 -53 -34q-30.5 -12.5 -67.5 -12.5q-36 0 -67 12.5q-31 12.5 -53 34q-22 21.5 -34.5 51q-12.5 29.5 -12.5 62.5zt0 0zM458 150q0 -32 19.5 -55q19.5 -23 54.5 -23q35 0 55.5 23q20.5 23 20.5 55q0 34 -20.5 56.5q-20.5 22.5 -55.5 22.5q-35 0 -54.5 -22.5q-19.5 -22.5 -19.5 -56.5zt0 0zM714 150q0 34 12.5 63.5q12.5 29.5 34.5 51q22 21.5 53 34q31 12.5 67 12.5q37 0 67.5 -12.5q30.5 -12.5 53 -34q22.5 -21.5 35 -51q12.5 -29.5 12.5 -63.5q0 -33 -12.5 -62.5q-12.5 -29.5 -35 -51q-22.5 -21.5 -53 -34q-30.5 -12.5 -67.5 -12.5q-36 0 -67 12.5q-31 12.5 -53 34q-22 21.5 -34.5 51q-12.5 29.5 -12.5 62.5zt0 0zM807 150q0 -32 19.5 -55q19.5 -23 54.5 -23q35 0 55.5 23q20.5 23 20.5 55q0 34 -20.5 56.5q-20.5 22.5 -55.5 22.5q-35 0 -54.5 -22.5t-19.5 -56.5z" />
<glyph unicode="&#8249;" horiz-adv-x="338" d="M256 75l-242 236l243 236q3 -3 11.5 -12q8.5 -9 19 -18.5q10.5 -9.5 19 -18q8.5 -8.5 11.5 -11.5l-151 -176q10 -11 31 -35.5q21 -24.5 44 -52q23 -27.5 44 -52q21 -24.5 31 -34.5z" />
<glyph unicode="&#8250;" horiz-adv-x="337" d="M21 137l150 174l-151 176q2 3 11 11.5q9 8.5 19 18q10 9.5 19 18.5q9 9 12 12l242 -236l-241 -236z" />
<glyph unicode="&#8364;" horiz-adv-x="628" d="M78 306q-1 20 -1 30.5q0 10.5 0 17.5q0 7 0 11.5q0 4.5 1 15.5l-88 0l26 85h74q35 115 115.5 175q80.5 60 187.5 60q66 0 117.5 -21q51.5 -21 93.5 -60l-84 -79q-29 28 -60.5 37q-31.5 9 -66.5 9q-52 0 -98.5 -28.5q-46.5 -28.5 -68.5 -92.5l295 0l-47 -85h-269q-1 -8 -1 -19q0 -11 0 -31q0 -7 0 -13q0 -6 2 -12l236 0l-44 -86h-172q10 -31 28 -53q18 -22 40.5 -36.5q22.5 -14.5 48.5 -21q26 -6.5 52 -6.5q37 0 72 14q35 14 63 40q18 -20 36.5 -39.5q18.5 -19.5 36.5 -39.5q-37 -44 -88 -67q-51 -23 -120 -23q-52 0 -100 14q-48 14 -88 42.5q-40 28.5 -70.5 72q-30.5 43.5 -46.5 103.5l-100 0q8 22 14 43.5q6 21.5 13 42.5z" />
<glyph unicode="&#8470;" horiz-adv-x="1010" d="M959 249v-84h-288v84zM489 0l-234 385l-52 89v-474h-123v700h135q66 -112 132 -222q66 -110 133 -222l0 444h121v-700zM814 305q-76 0 -114.5 48q-38.5 48 -38.5 129q0 85 40.5 131q40.5 46 112.5 46q74 0 114.5 -47q40.5 -47 40.5 -132q0 -34 -9 -65.5q-9 -31.5 -28 -56q-19 -24.5 -48.5 -39q-29.5 -14.5 -69.5 -14.5zt0 0zM814 583q-17 0 -28 -10q-11 -10 -17.5 -25q-6.5 -15 -9 -33q-2.5 -18 -2.5 -33q0 -16 2.5 -33.5q2.5 -17.5 9 -32.5q6.5 -15 17.5 -25q11 -10 28 -10q17 0 28 10q11 10 17.5 25q6.5 15 9 32.5q2.5 17.5 2.5 33.5q0 15 -2.5 33q-2.5 18 -9 33q-6.5 15 -17.5 25t-28 10z" />
<glyph unicode="&#65279;" horiz-adv-x="0" />
<glyph unicode="&#8482;" horiz-adv-x="952" d="M256 642v-328h-106v328h-120v83h347v-83zM772 314l3 234h-4l-85 -192h-74l-80 192h-5l2 -234h-103v411h122l104 -237q6 13 20.5 46.5q14.5 33.5 31 72q16.5 38.5 31 72q14.5 33.5 20.5 46.5l122 0l0 -411z" />
</font>
</defs>
</svg>
