<?xml version="1.0" encoding="utf-8"?>
<!-- Generator: Adobe Illustrator 16.0.4, SVG Export Plug-In . SVG Version: 6.00 Build 0)  -->
<!DOCTYPE svg PUBLIC "-//W3C//DTD SVG 1.1//EN" "http://www.w3.org/Graphics/SVG/1.1/DTD/svg11.dtd">
<svg version="1.1" id="Слой_1" xmlns="http://www.w3.org/2000/svg" xmlns:xlink="http://www.w3.org/1999/xlink" x="0px" y="0px"
	 width="120px" height="17px" viewBox="0 0 120 17" enable-background="new 0 0 120 17" xml:space="preserve">
<title>Group 53</title>
<g>
	<path fill="#FFCC4E" d="M0.21,17.003h119.302V0.493H0.211L0.21,17.003z"/>
</g>
<g>
	<path fill="#221F20" d="M20.507,4.205h4.969c0.828,0,1.464,0.205,1.907,0.615s0.665,0.918,0.665,1.523
		c0,0.508-0.158,0.943-0.475,1.307c-0.211,0.242-0.52,0.434-0.926,0.574c0.617,0.148,1.071,0.403,1.362,0.765
		s0.437,0.815,0.437,1.362c0,0.445-0.104,0.846-0.311,1.201s-0.49,0.637-0.85,0.844c-0.223,0.129-0.559,0.223-1.008,0.281
		c-0.598,0.078-0.994,0.117-1.189,0.117h-4.582V4.205z M23.185,7.574h1.154c0.414,0,0.702-0.071,0.864-0.214
		s0.243-0.349,0.243-0.618c0-0.25-0.081-0.445-0.243-0.586s-0.444-0.211-0.847-0.211h-1.172V7.574z M23.185,10.949h1.354
		c0.457,0,0.779-0.081,0.967-0.243s0.281-0.38,0.281-0.653c0-0.254-0.093-0.458-0.278-0.612s-0.511-0.231-0.976-0.231h-1.348V10.949
		z"/>
	<path fill="#221F20" d="M34.874,4.205h2.648v5.117c0,0.508-0.079,0.987-0.237,1.438c-0.158,0.451-0.406,0.846-0.744,1.184
		s-0.692,0.574-1.063,0.711c-0.516,0.191-1.135,0.287-1.857,0.287c-0.418,0-0.874-0.029-1.368-0.088s-0.907-0.175-1.239-0.348
		c-0.332-0.174-0.636-0.422-0.911-0.741c-0.275-0.32-0.464-0.649-0.565-0.989c-0.164-0.547-0.246-1.031-0.246-1.453V4.205h2.648
		v5.24c0,0.468,0.13,0.834,0.39,1.098c0.26,0.263,0.62,0.395,1.081,0.395c0.457,0,0.815-0.13,1.075-0.389
		c0.26-0.26,0.39-0.628,0.39-1.104V4.205z"/>
	<path fill="#221F20" d="M38.173,4.205h2.948l1.731,2.898l1.734-2.898h2.933l-3.34,4.992v3.598h-2.66V9.197L38.173,4.205z"/>
	<path fill="#221F20" d="M51.293,4.205h8.068v2.121h-2.707v6.469H54V6.326h-2.707V4.205z"/>
	<path fill="#221F20" d="M60.428,4.205h2.66v8.59h-2.66V4.205z"/>
	<path fill="#221F20" d="M70.471,9.279l2.326,0.703c-0.156,0.652-0.402,1.197-0.738,1.635s-0.753,0.768-1.251,0.99
		s-1.132,0.334-1.901,0.334c-0.934,0-1.696-0.136-2.288-0.406c-0.592-0.271-1.103-0.749-1.532-1.432
		c-0.43-0.684-0.645-1.559-0.645-2.624c0-1.421,0.378-2.513,1.134-3.276c0.756-0.763,1.825-1.145,3.208-1.145
		c1.082,0,1.933,0.219,2.552,0.656s1.079,1.109,1.38,2.016l-2.344,0.521c-0.082-0.262-0.168-0.453-0.258-0.574
		c-0.148-0.203-0.33-0.359-0.545-0.469s-0.455-0.164-0.721-0.164c-0.602,0-1.062,0.242-1.383,0.726
		c-0.242,0.359-0.363,0.923-0.363,1.691c0,0.952,0.145,1.604,0.434,1.958c0.289,0.353,0.695,0.529,1.219,0.529
		c0.508,0,0.892-0.143,1.151-0.428S70.354,9.822,70.471,9.279z"/>
	<path fill="#221F20" d="M73.858,4.205h2.654v3.246l2.78-3.246h3.53l-3.135,3.242l3.275,5.348h-3.269l-1.812-3.533l-1.371,1.438
		v2.096h-2.654V4.205z"/>
	<path fill="#221F20" d="M83.597,4.205h7.113v1.834h-4.453v1.365h4.131v1.752h-4.131v1.693h4.582v1.945h-7.242V4.205z"/>
	<path fill="#221F20" d="M91.425,4.205h8.068v2.121h-2.707v6.469h-2.654V6.326h-2.707V4.205z"/>
</g>
</svg>
