<?xml version="1.0" encoding="UTF-8" standalone="no"?>
<svg width="120px" height="17px" viewBox="0 0 120 17" version="1.1" xmlns="http://www.w3.org/2000/svg" xmlns:xlink="http://www.w3.org/1999/xlink">
    <!-- Generator: Sketch 3.8.3 (29802) - http://www.bohemiancoding.com/sketch -->
    <title>Group 53</title>
    <desc>Created with Sketch.</desc>
    <defs></defs>
    <g id="V2" stroke="none" stroke-width="1" fill="none" fill-rule="evenodd">
        <g id="Desktop-1240-Copy-3" transform="translate(-27.000000, -26.000000)">
            <g id="Group-2" transform="translate(27.000000, 26.000000)">
                <g id="ticket">
                    <g id="Page-1">
                        <g id="Group-53">
                            <polygon id="Fill-1" fill="#FFCC4E" points="0.210772834 17.0032265 119.511007 17.0032265 119.511007 0.493902439 0.210772834 0.493902439"></polygon>
                            <path d="M16.5917564,10.7882686 C16.2542389,10.1021676 15.9349883,9.59669373 15.6345667,9.27212927 C15.3341452,8.94756481 14.9820141,8.71924077 14.5787354,8.58687491 C14.8752225,8.46692718 15.1087588,8.30690279 15.2796253,8.10623728 C15.4502108,7.90557178 15.6098361,7.60189233 15.7582201,7.19463449 C15.9063232,6.78737666 16.0957377,6.4930108 16.3261827,6.31097247 C16.5566276,6.12893415 16.910726,6.0380561 17.3881967,6.0380561 L17.5303981,6.0380561 L17.5303981,4.11550557 C16.5012646,4.11550557 15.7458548,4.1694115 15.2641686,4.27694111 C14.7824824,4.38447073 14.4345667,4.56114669 14.2204215,4.80696899 C14.0065574,5.05307352 13.7943794,5.45920244 13.5844496,6.02563798 C13.2963934,6.79048118 13.0844965,7.25362056 12.9484778,7.41477387 C12.81274,7.57592718 12.6233255,7.66285401 12.3805152,7.67527213 L12.3805152,4.18380523 L9.58932084,4.18380523 L9.58932084,13.2749969 L12.3805152,13.2749969 L12.3805152,9.67825819 C12.6345667,9.67825819 12.8332553,9.74768676 12.9765808,9.8865439 C13.1201874,10.0251188 13.3208431,10.3722617 13.5791101,10.927408 L14.6700703,13.2749969 L17.8207026,13.2749969 L16.5917564,10.7882686 Z M20.2274473,10.7572233 C20.0874941,11.2409655 19.6948946,11.4828366 19.0490867,11.4828366 C18.831007,11.4828366 18.4856206,11.4580003 18.0126464,11.4083279 L18.0126464,13.287415 C18.8149883,13.3825265 19.3809836,13.4299411 19.7100703,13.4299411 C20.3314286,13.4299411 20.8198595,13.340192 21.1759251,13.1604115 C21.5317096,12.9803488 21.8003747,12.7508958 21.9813583,12.4720526 C22.1623419,12.1929272 22.3742389,11.7701467 22.6170492,11.2037111 L25.5895082,4.18380523 L22.7426698,4.18380523 L21.5047307,7.92956132 L20.2541452,4.18380523 L17.2162061,4.18380523 L20.2274473,10.7572233 Z M34.4697892,4.18380523 L25.8123653,4.18380523 L25.8123653,13.2749969 L28.6035597,13.2749969 L28.6035597,6.41624425 L31.6785948,6.41624425 L31.6785948,13.2749969 L34.4697892,13.2749969 L34.4697892,4.18380523 Z M41.6234192,4.18380523 L38.2187354,9.21314321 L38.2187354,4.18380523 L35.5821077,4.18380523 L35.5821077,13.2749969 L38.2221077,13.2749969 L41.6088056,8.28291324 L41.6088056,13.2749969 L44.2395316,13.2749969 L44.2395316,4.18380523 L41.6234192,4.18380523 Z M44.7155972,6.42866237 L47.5683372,6.42866237 L47.5683372,13.2749969 L50.3657143,13.2749969 L50.3657143,6.42866237 L53.2184543,6.42866237 L53.2184543,4.18380523 L44.7155972,4.18380523 L44.7155972,6.42866237 Z M56.528993,4.18380523 L53.7380796,4.18380523 L53.7380796,13.2749969 L58.5420141,13.2749969 C59.6782201,13.2749969 60.5499766,13.0528819 61.1572834,12.6083697 C61.7643091,12.1638575 62.068103,11.5220666 62.068103,10.6827146 C62.068103,9.6576554 61.7367681,8.90212578 61.0738173,8.41612578 C60.4111475,7.93040801 59.3943794,7.68769024 58.0235129,7.68769024 L56.528993,7.68769024 L56.528993,4.18380523 Z M56.528993,9.529523 L57.9616862,9.529523 C58.8385012,9.529523 59.2769087,9.8083662 59.2769087,10.3666171 C59.2769087,11.0033279 58.8385012,11.3216833 57.9616862,11.3216833 L56.528993,11.3216833 L56.528993,9.529523 Z M69.0162998,6.02563798 L73.8452459,6.02563798 L73.8452459,4.18380523 L66.2253864,4.18380523 L66.2253864,13.2749969 L71.0293208,13.2749969 C72.1655269,13.2749969 73.0372834,13.0528819 73.6445902,12.6083697 C74.2516159,12.1638575 74.5554098,11.5220666 74.5554098,10.6827146 C74.5554098,9.6576554 74.2240749,8.90212578 73.5611241,8.41612578 C72.8984543,7.93040801 71.8816862,7.68769024 70.5108197,7.68769024 L69.0162998,7.68769024 L69.0162998,6.02563798 Z M69.0162998,9.529523 L70.448993,9.529523 C71.325808,9.529523 71.7642155,9.8083662 71.7642155,10.3666171 C71.7642155,11.0033279 71.325808,11.3216833 70.448993,11.3216833 L69.0162998,11.3216833 L69.0162998,9.529523 Z M81.3383607,4.18380523 L77.9336768,9.21314321 L77.9336768,4.18380523 L75.2970492,4.18380523 L75.2970492,13.2749969 L77.9370492,13.2749969 L81.3237471,8.28291324 L81.3237471,13.2749969 L83.9544731,13.2749969 L83.9544731,4.18380523 L81.3383607,4.18380523 Z M93.3844496,4.18380523 L85.6100234,4.18380523 L85.6100234,10.1992547 C85.6100234,10.6457425 85.531897,10.9525265 85.375363,11.1201711 C85.218829,11.2875334 84.9512881,11.3710735 84.57274,11.3710735 L84.1528806,11.3710735 L84.1528806,13.2129063 C84.5480094,13.2789481 84.8978923,13.3122512 85.2025293,13.3122512 C86.1987822,13.3122512 86.9201874,13.1860944 87.3667447,12.9340631 C87.8135831,12.6817495 88.0974239,12.2857808 88.2191101,11.7464394 C88.3402342,11.2068157 88.4012178,10.3623836 88.4012178,9.21314321 L88.4012178,6.41624425 L90.5870726,6.41624425 L90.5870726,13.2749969 L93.3844496,13.2749969 L93.3844496,4.18380523 Z M94.4720375,13.2749969 L102.104262,13.2749969 L102.104262,11.2161293 L97.2753162,11.2161293 L97.2753162,9.42396899 L101.628759,9.42396899 L101.628759,7.56971812 L97.2753162,7.56971812 L97.2753162,6.12498293 L101.968244,6.12498293 L101.968244,4.18380523 L94.4720375,4.18380523 L94.4720375,13.2749969 Z M102.216112,6.42866237 L105.068852,6.42866237 L105.068852,13.2749969 L107.86623,13.2749969 L107.86623,6.42866237 L110.71897,6.42866237 L110.71897,4.18380523 L102.216112,4.18380523 L102.216112,6.42866237 Z" id="Fill-16" fill="#221F20"></path>
                        </g>
                    </g>
                </g>
            </g>
        </g>
    </g>
</svg>