<?xml version="1.0" encoding="UTF-8" standalone="no"?>
<svg width="24px" height="28px" viewBox="0 0 24 28" version="1.1" xmlns="http://www.w3.org/2000/svg" xmlns:xlink="http://www.w3.org/1999/xlink">
    <!-- Generator: Sketch 3.8.3 (29802) - http://www.bohemiancoding.com/sketch -->
    <title>fb</title>
    <desc>Created with Sketch.</desc>
    <defs></defs>
    <g id="V2" stroke="none" stroke-width="1" fill="none" fill-rule="evenodd">
        <g id="Desktop-1240-Copy-3" transform="translate(-1336.000000, -831.000000)" fill="#FCF6D2">
            <g id="share" transform="translate(1296.000000, 830.000000)">
                <g id="Page-1">
                    <path d="M52.0003776,1 L40,7.9820745 L40,21.9450854 L52.0003776,28.9267806 L64.0007552,21.9450854 L64.0007552,7.9820745 L52.0003776,1 Z M56.9166772,8.32842789 L54.9422278,8.32842789 C53.3929515,8.32842789 53.0938955,9.0662782 53.0938955,10.158069 L53.0938955,12.5518148 L56.7860289,12.5518148 L56.3110132,16.2919002 L53.0938955,16.2919002 L53.0938955,25.9237867 L49.2382631,25.9237867 L49.2382631,16.2919002 L46.0132159,16.2919002 L46.0132159,12.5518148 L49.2382631,12.5518148 L49.2382631,9.78136705 C49.2382631,6.57579631 51.1855255,4.82278537 54.0359975,4.82278537 C55.4051605,4.82278537 56.579484,4.92672932 56.9166772,4.97718387 L56.9166772,8.32842789 Z" id="fb"></path>
                </g>
            </g>
        </g>
    </g>
</svg>