<?xml version="1.0" encoding="utf-8"?>
<!-- Generator: Adobe Illustrator 16.0.4, SVG Export Plug-In . SVG Version: 6.00 Build 0)  -->
<!DOCTYPE svg PUBLIC "-//W3C//DTD SVG 1.1//EN" "http://www.w3.org/Graphics/SVG/1.1/DTD/svg11.dtd">
<svg version="1.1" id="Слой_1" xmlns="http://www.w3.org/2000/svg" xmlns:xlink="http://www.w3.org/1999/xlink" x="0px" y="0px"
	 width="120px" height="17px" viewBox="0 0 120 17" enable-background="new 0 0 120 17" xml:space="preserve">
<title>Group 32</title>
<g>
	<path fill="#FFCC4E" d="M0,16.312h119.861V0H0V16.312z"/>
</g>
<g>
	<path fill="#221F20" d="M17.36,8.506c0-1.402,0.391-2.494,1.172-3.275c0.781-0.781,1.869-1.172,3.264-1.172
		c1.43,0,2.531,0.384,3.305,1.151s1.16,1.843,1.16,3.226c0,1.003-0.169,1.828-0.507,2.47s-0.826,1.143-1.465,1.5
		s-1.435,0.535-2.388,0.535c-0.969,0-1.771-0.153-2.405-0.463c-0.634-0.309-1.149-0.797-1.544-1.465S17.36,9.51,17.36,8.506z
		 M20.015,8.518c0,0.867,0.161,1.49,0.483,1.869c0.322,0.379,0.761,0.568,1.315,0.568c0.57,0,1.012-0.186,1.324-0.557
		s0.469-1.037,0.469-1.999c0-0.809-0.163-1.399-0.489-1.772c-0.326-0.373-0.769-0.56-1.327-0.56c-0.535,0-0.965,0.189-1.289,0.568
		C20.177,7.015,20.015,7.643,20.015,8.518z"/>
	<path fill="#221F20" d="M27.485,12.795v-8.59h4.424c0.82,0,1.447,0.07,1.881,0.211s0.783,0.401,1.049,0.782
		c0.266,0.381,0.398,0.845,0.398,1.392c0,0.477-0.102,0.888-0.305,1.233c-0.204,0.346-0.483,0.626-0.838,0.841
		c-0.227,0.137-0.538,0.25-0.932,0.34c0.316,0.105,0.546,0.211,0.691,0.316c0.097,0.07,0.239,0.221,0.424,0.451
		c0.186,0.23,0.31,0.408,0.372,0.533l1.285,2.489h-2.999l-1.419-2.625c-0.18-0.34-0.34-0.562-0.48-0.662
		c-0.191-0.133-0.408-0.198-0.65-0.198h-0.234v3.485L27.485,12.795L27.485,12.795z M30.151,7.686h1.119
		c0.121,0,0.355-0.039,0.703-0.117c0.176-0.035,0.319-0.125,0.431-0.27c0.112-0.145,0.167-0.311,0.167-0.498
		c0-0.277-0.088-0.49-0.264-0.639c-0.176-0.149-0.506-0.223-0.99-0.223h-1.166V7.686z"/>
	<path fill="#221F20" d="M40.646,9.684V7.896h4.102v3.663c-0.785,0.535-1.479,0.898-2.083,1.092
		c-0.604,0.195-1.319,0.291-2.147,0.291c-1.02,0-1.851-0.174-2.493-0.521s-1.141-0.865-1.494-1.553C36.178,10.18,36,9.391,36,8.5
		c0-0.938,0.193-1.753,0.58-2.446c0.387-0.693,0.953-1.22,1.699-1.579c0.582-0.277,1.365-0.416,2.35-0.416
		c0.949,0,1.659,0.086,2.13,0.258c0.471,0.172,0.861,0.438,1.172,0.8c0.311,0.362,0.544,0.819,0.7,1.374L42.07,6.947
		c-0.105-0.324-0.284-0.572-0.536-0.744c-0.252-0.172-0.574-0.258-0.964-0.258c-0.582,0-1.046,0.202-1.392,0.606
		c-0.346,0.404-0.518,1.045-0.518,1.92c0,0.929,0.175,1.593,0.524,1.992s0.837,0.598,1.462,0.598c0.297,0,0.58-0.043,0.85-0.129
		s0.578-0.231,0.926-0.438v-0.81H40.646z"/>
	<path fill="#221F20" d="M51.364,11.377h-3.013l-0.419,1.418h-2.71l3.229-8.59h2.896l3.228,8.59h-2.779L51.364,11.377z M50.814,9.52
		l-0.948-3.087L48.927,9.52H50.814z"/>
	<path fill="#221F20" d="M55.195,4.205h2.479l3.234,4.752V4.205h2.502v8.59h-2.502l-3.217-4.716v4.716h-2.496V4.205z"/>
	<path fill="#221F20" d="M65.039,4.205h2.66v8.59h-2.66V4.205z"/>
	<path fill="#221F20" d="M69.146,4.205h7.513v1.717l-4.822,5.027h4.998v1.846h-8.149v-1.781l4.771-4.975h-4.31V4.205z"/>
	<path fill="#221F20" d="M77.784,4.205h7.112v1.834h-4.453v1.365h4.132v1.752h-4.132v1.693h4.582v1.944h-7.241V4.205z"/>
	<path fill="#221F20" d="M86.251,12.795v-8.59h4.424c0.82,0,1.447,0.07,1.882,0.211c0.434,0.141,0.782,0.401,1.049,0.782
		c0.266,0.381,0.397,0.845,0.397,1.392c0,0.477-0.103,0.888-0.305,1.233c-0.203,0.345-0.483,0.626-0.839,0.841
		c-0.228,0.137-0.537,0.25-0.932,0.34c0.314,0.105,0.545,0.211,0.689,0.316c0.098,0.07,0.238,0.221,0.425,0.451
		s0.31,0.408,0.372,0.533l1.285,2.489H91.7l-1.419-2.625c-0.18-0.34-0.34-0.562-0.48-0.662c-0.191-0.133-0.408-0.198-0.65-0.198
		h-0.233v3.485L86.251,12.795L86.251,12.795z M88.917,7.686h1.119c0.121,0,0.354-0.039,0.702-0.117
		c0.177-0.035,0.32-0.125,0.432-0.27c0.112-0.145,0.167-0.311,0.167-0.498c0-0.277-0.088-0.49-0.264-0.639
		c-0.177-0.149-0.507-0.223-0.99-0.223h-1.166V7.686z"/>
	<path fill="#221F20" d="M94.848,9.953l2.524-0.158c0.056,0.41,0.166,0.723,0.334,0.938c0.272,0.349,0.664,0.521,1.172,0.521
		c0.379,0,0.671-0.089,0.876-0.268c0.205-0.178,0.309-0.383,0.309-0.617c0-0.223-0.099-0.422-0.293-0.598
		c-0.195-0.176-0.649-0.342-1.36-0.498c-1.164-0.262-1.994-0.609-2.49-1.043c-0.5-0.434-0.75-0.986-0.75-1.658
		c0-0.441,0.128-0.858,0.384-1.251c0.256-0.393,0.641-0.701,1.154-0.926s1.218-0.337,2.111-0.337c1.099,0,1.936,0.204,2.512,0.612
		c0.576,0.408,0.919,1.058,1.027,1.948l-2.502,0.146C99.79,6.377,99.65,6.096,99.438,5.92c-0.213-0.176-0.508-0.264-0.883-0.264
		c-0.309,0-0.541,0.065-0.697,0.196c-0.155,0.131-0.233,0.29-0.233,0.478c0,0.137,0.063,0.26,0.192,0.369
		c0.125,0.113,0.422,0.219,0.892,0.316c1.16,0.25,1.991,0.503,2.493,0.759s0.867,0.573,1.096,0.952
		c0.229,0.379,0.344,0.805,0.344,1.274c0,0.551-0.152,1.059-0.457,1.523c-0.306,0.463-0.73,0.816-1.277,1.058
		s-1.236,0.36-2.068,0.36c-1.461,0-2.473-0.281-3.035-0.844C95.241,11.534,94.921,10.82,94.848,9.953z"/>
</g>
</svg>
