<?xml version="1.0" encoding="UTF-8" standalone="no"?>
<svg width="34px" height="38px" viewBox="0 0 34 38" version="1.1" xmlns="http://www.w3.org/2000/svg" xmlns:xlink="http://www.w3.org/1999/xlink">
    <!-- Generator: Sketch 3.8.3 (29802) - http://www.bohemiancoding.com/sketch -->
    <title>Group 8</title>
    <desc>Created with Sketch.</desc>
    <defs>
        <polygon id="path-1" points="0 37.3653846 0 0.0055547088 33.0612141 0.0055547088 33.0612141 37.3653846"></polygon>
    </defs>
    <g id="V1" stroke="none" stroke-width="1" fill="none" fill-rule="evenodd">
        <g id="Desktop-1240" transform="translate(-1101.000000, -742.000000)">
            <g id="Group-2" transform="translate(1101.000000, 722.000000)">
                <g id="Group-8" transform="translate(0.000000, 20.416558)">
                    <path d="M27.20928,19.4835663 C27.20928,25.342124 22.3999624,30.0917106 16.4680094,30.0917106 C10.5354918,30.0917106 5.72617412,25.342124 5.72617412,19.4835663 C5.72617412,13.6252875 10.5354918,8.87570096 16.4680094,8.87570096 C22.3999624,8.87570096 27.20928,13.6252875 27.20928,19.4835663" id="Fill-3" fill="#000000"></path>
                    <mask id="mask-2" fill="white">
                        <use xlink:href="#path-1"></use>
                    </mask>
                    <g id="Clip-6"></g>
                    <path d="M33.0606494,10.0509817 C33.0552847,9.55965481 32.7963671,9.08310673 32.3344376,8.81931827 L17.2587671,0.197395192 C16.7957082,-0.0661144231 16.2473788,-0.0491048077 15.8134024,0.192933654 C15.8105788,0.194606731 15.8071906,0.195722115 15.8040847,0.197395192 L0.728414118,8.81931827 C0.266484706,9.08227019 0.00756705882,9.55798173 0.00163764706,10.048751 C0.00107294118,10.0534913 -5.64705883e-05,10.0585106 -5.64705883e-05,10.0629721 L-5.64705883e-05,27.307376 C-5.64705883e-05,27.8324433 0.286814118,28.2903087 0.71232,28.541549 C0.717402353,28.5443375 0.722202353,28.5482413 0.727849412,28.5510298 L0.754390588,28.5660875 C0.757778824,28.5680394 0.760884706,28.5697125 0.764272941,28.5719433 L15.8040847,37.1735106 C15.8077553,37.1754625 15.8119906,37.1765779 15.8165082,37.1788087 C16.2502024,37.4202894 16.79712,37.4367413 17.2587671,37.1735106 L32.3344376,28.5515875 C32.3417788,28.5474048 32.3485553,28.5426644 32.3556141,28.5376452 C32.7782965,28.2864048 33.0612141,27.8307702 33.0612141,27.307376 L33.0612141,10.0629721 C33.0612141,10.0590683 33.0606494,10.0551644 33.0606494,10.0509817 L33.0606494,10.0509817 Z M23.0114259,22.3565543 L23.0114259,24.434424 C23.0114259,25.2274625 22.3606024,25.8707606 21.5553318,25.8707606 C20.7534494,25.8707606 20.1012141,25.2274625 20.1012141,24.434424 L20.1012141,14.3756067 L12.9613553,14.3756067 L12.9613553,24.434424 C12.9613553,25.2274625 12.3099671,25.8707606 11.5058259,25.8707606 C10.7030965,25.8707606 10.0508612,25.2274625 10.0508612,24.434424 L10.0502965,12.9381548 C10.0502965,12.1448375 10.7025318,11.5018183 11.5058259,11.5018183 L21.5573082,11.5018183 C22.3600376,11.5018183 23.0114259,12.1448375 23.0114259,12.9381548 L23.0114259,22.3565543 Z" id="Fill-5" fill="#FFCB4E" mask="url(#mask-2)"></path>
                </g>
            </g>
        </g>
    </g>
</svg>