<?xml version="1.0" encoding="UTF-8" standalone="no"?>
<svg width="39px" height="38px" viewBox="0 0 39 38" version="1.1" xmlns="http://www.w3.org/2000/svg" xmlns:xlink="http://www.w3.org/1999/xlink">
    <!-- Generator: Sketch 3.8.3 (29802) - http://www.bohemiancoding.com/sketch -->
    <title>Group 34</title>
    <desc>Created with Sketch.</desc>
    <defs></defs>
    <g id="V1" stroke="none" stroke-width="1" fill="none" fill-rule="evenodd">
        <g id="Desktop-1240" transform="translate(-1140.000000, -742.000000)">
            <g id="Group-2" transform="translate(1101.000000, 722.000000)">
                <g id="Group-34" transform="translate(39.000000, 20.000000)">
                    <polygon id="Fill-9" fill="#0070BA" points="0.808941176 37.6754231 38.5420235 37.6754231 38.5420235 0.410701923 0.808941176 0.410701923"></polygon>
                    <polygon id="Fill-10" fill="#FEFEFE" points="6.31115294 12.6601346 33.0386824 12.6601346 33.0386824 11.5776538 6.31115294 11.5776538"></polygon>
                    <path d="M26.7874165,14.6393567 L23.8323106,14.6393567 L23.8323106,24.7611933 L22.4191341,24.7611933 L22.4191341,17.8934913 C22.4191341,17.3185106 22.3844047,16.9548952 22.2742871,16.5993663 C22.0608282,15.889424 21.5627576,15.130126 20.9384753,14.825626 C20.5612518,14.6393567 20.1247341,14.5635106 19.6707106,14.5635106 C19.1398871,14.5635106 18.6423812,14.6736548 18.2239341,14.927126 C17.6668518,15.257001 17.23824,15.9733567 17.04144,16.6674048 C16.9479812,16.9891933 16.9220047,17.3438856 16.9220047,17.8934913 L16.9220047,24.7611933 L15.5099576,24.7611933 L15.5099576,14.6393567 L12.5545694,14.6393567 L12.5545694,24.7611933 L11.1580518,24.7611933 L11.1411106,14.6393567 L8.28059294,14.6393567 L8.28059294,24.7611933 L6.87645176,24.7611933 L6.87645176,14.6393567 L6.31089882,14.6393567 L6.31089882,13.556876 L33.0387106,13.556876 L33.0387106,14.6393567 L32.4740047,14.6393567 L32.4740047,24.7611933 L31.0692988,24.7611933 L31.0692988,14.6393567 L28.19184,14.6393567 L28.19184,24.7611933 L26.7874165,24.7611933 L26.7874165,14.6393567 Z" id="Fill-11" fill="#FEFEFE"></path>
                    <polygon id="Fill-13" fill="#FEFEFE" points="6.75690353 9.69173365 7.57826824 8.60897404 8.39229176 9.69173365 7.57826824 10.7739356"></polygon>
                    <g id="Group-18" transform="translate(6.458824, 8.503096)" fill="#FEFEFE">
                        <path d="M3.97197176,20.5459702 C4.45112471,20.7486913 4.86223059,21.2394606 4.86223059,21.9499606 C4.86223059,22.8634606 4.35653647,23.4465279 3.71503059,23.6244317 C3.32058353,23.741826 2.90976,23.741826 2.53253647,23.741826 L0.245477647,23.741826 L0.245477647,17.5598067 L2.67004235,17.5598067 C2.96990118,17.5598067 3.30420706,17.5690087 3.63794824,17.6532202 C4.21253647,17.8054702 4.74223059,18.2786721 4.74223059,19.1503452 C4.74223059,19.9534221 4.27973647,20.3429702 3.97197176,20.5038644 L3.97197176,20.5459702 Z M2.71296,20.2406337 C2.93573647,20.2406337 3.14100706,20.2152587 3.31183059,20.1143163 C3.56058353,19.979076 3.73168941,19.6915856 3.73168941,19.2599317 C3.73168941,18.837201 3.52641882,18.5586337 3.22599529,18.456576 C3.08143059,18.3977394 2.90128941,18.3801721 2.67004235,18.3801721 L1.23992471,18.3801721 L1.23992471,20.2406337 L2.71296,20.2406337 Z M3.82571294,21.9499606 C3.82571294,21.5010183 3.60350118,21.2475471 3.33780706,21.1376817 C3.16585412,21.0699221 2.96990118,21.0529125 2.79823059,21.0529125 L1.23992471,21.0529125 L1.23992471,22.9306625 L2.78128941,22.9306625 C2.96990118,22.9306625 3.15004235,22.9136529 3.29545412,22.8634606 C3.62919529,22.7365856 3.82571294,22.4401721 3.82571294,21.9499606 L3.82571294,21.9499606 Z" id="Fill-14"></path>
                        <path d="M5.22988235,1.14602981 C5.01585882,1.06962596 4.86225882,0.875549038 4.86225882,0.6390875 C4.86225882,0.342674038 5.10254118,0.105933654 5.41087059,0.105933654 C5.71016471,0.105933654 5.95072941,0.342674038 5.95072941,0.6390875 C5.95072941,0.875549038 5.80418824,1.06962596 5.5896,1.13766442 L6.11251765,2.1869625 L4.70809412,2.1869625 L5.22988235,1.14602981 Z" id="Fill-16"></path>
                    </g>
                    <path d="M19.2689224,31.3407077 L18.6008753,32.2455635 L12.3148518,32.2455635 L15.7231341,26.0627077 L17.8128282,26.0627077 L17.8128282,31.3666404 L19.2689224,31.3407077 Z M16.8367341,31.4079096 L16.8367341,26.8155923 L16.1861929,26.8155923 L13.7110871,31.4079096 L16.8367341,31.4079096 Z" id="Fill-19" fill="#FEFEFE"></path>
                    <polygon id="Fill-20" fill="#FEFEFE" points="15.5099294 10.6898077 23.8334118 10.6898077 23.8334118 9.60676923 15.5099294 9.60676923"></polygon>
                    <polygon id="Fill-21" fill="#FEFEFE" points="17.9841882 8.71055769 21.3577412 8.71055769 21.3577412 7.62779808 17.9841882 7.62779808"></polygon>
                    <polygon id="Fill-22" fill="#FEFEFE" points="18.4288941 4.84770192 20.9127529 4.84770192 20.9127529 3.77330769 18.4288941 3.77330769"></polygon>
                    <polygon id="Fill-23" fill="#FEFEFE" points="18.7544188 5.69475288 20.5871718 5.69475288 19.6706541 6.91219519"></polygon>
                    <polygon id="Fill-24" fill="#FEFEFE" points="25.8123953 26.0627913 25.8123953 32.2453683 24.8187953 32.2453683 24.8187953 29.3788298 21.6420424 29.3788298 21.6420424 32.2453683 20.6563482 32.2453683 20.6563482 26.0627913 21.6420424 26.0627913 21.6420424 28.5325317 24.8187953 28.5325317 24.8187953 26.0627913"></polygon>
                    <path d="M27.3013835,9.64081635 C27.08736,9.57277788 26.9416659,9.37870096 26.9416659,9.14196058 C26.9416659,8.84554712 27.1811012,8.60908558 27.4812424,8.60908558 C27.7895718,8.60908558 28.0292894,8.84554712 28.0292894,9.14196058 C28.0292894,9.37870096 27.8748424,9.57277788 27.6613835,9.64918173 L28.1831718,10.6901144 L26.7790306,10.6901144 L27.3013835,9.64081635 Z" id="Fill-25" fill="#FEFEFE"></path>
                    <polygon id="Fill-27" fill="#FEFEFE" points="30.2385035 29.7256308 28.5175624 32.2455635 27.52368 32.2455635 29.7675388 29.0569577 27.6267388 26.0627077 28.8177035 26.0627077 30.3757271 28.2455154 31.8569506 26.0627077 32.8161035 26.0627077 30.8379388 28.9049865 33.2187388 32.2455635 32.0365271 32.2455635"></polygon>
                    <polygon id="Fill-28" fill="#FEFEFE" points="30.9581929 9.69173365 31.7713694 8.60897404 32.5938635 9.69173365 31.7713694 10.7739356"></polygon>
                </g>
            </g>
        </g>
    </g>
</svg>