<?xml version="1.0" encoding="UTF-8" standalone="no"?>
<svg width="120px" height="17px" viewBox="0 0 120 17" version="1.1" xmlns="http://www.w3.org/2000/svg" xmlns:xlink="http://www.w3.org/1999/xlink">
    <!-- Generator: Sketch 3.8.3 (29802) - http://www.bohemiancoding.com/sketch -->
    <title>Group 32</title>
    <desc>Created with Sketch.</desc>
    <defs></defs>
    <g id="V1" stroke="none" stroke-width="1" fill="none" fill-rule="evenodd">
        <g id="Desktop-1240" transform="translate(-1101.000000, -722.000000)">
            <g id="Group-2" transform="translate(1101.000000, 722.000000)">
                <g id="Group-32">
                    <polygon id="Fill-1" fill="#FFCC4E" points="0 16.3116635 119.861647 16.3116635 119.861647 0.000278846154 0 0.000278846154"></polygon>
                    <g id="Group-33" transform="translate(3.952941, 3.406942)" fill="#221F20">
                        <path d="M1.30187294,1.38988077 C2.40304941,0.311582692 3.74055529,0.175226923 4.80220235,0.175226923 C6.02168471,0.175226923 7.39815529,0.373486538 8.46036706,1.40215 C9.48276706,2.406275 9.67928471,3.71991923 9.67928471,4.69922692 C9.67928471,6.34748654 9.14196706,7.41351538 8.48634353,8.08274615 C7.42441412,9.16104423 6.07392,9.32221731 4.88097882,9.32221731 C3.67476706,9.32221731 2.25904941,9.148775 1.18384941,8.05792885 C0.764555294,7.63659231 0.00389647059,6.62019808 0.00389647059,4.7734 C0.00389647059,3.17449615 0.620272941,2.05911154 1.30187294,1.38988077 M3.62253176,6.58311154 C3.96333176,6.91772692 4.38290824,7.04181346 4.84173176,7.04181346 C5.28728471,7.04181346 5.73312,6.94254423 6.07392,6.58311154 C6.49377882,6.14922692 6.63777882,5.38100577 6.63777882,4.74858269 C6.63777882,4.11643846 6.54601412,3.38530385 6.07392,2.91433269 C5.73312,2.57971731 5.33980235,2.45563077 4.89424941,2.45563077 C4.43542588,2.45563077 4.00257882,2.56744808 3.64879059,2.91433269 C3.12417882,3.43493846 3.04568471,4.27761154 3.04568471,4.74858269 C3.04568471,5.21955385 3.11090824,6.06250577 3.62253176,6.58311154" id="Fill-29"></path>
                        <path d="M15.4870871,0.410656731 C16.32624,0.410656731 17.4144282,0.522195192 18.2007812,1.22879135 C18.9874165,1.93510865 19.0794635,2.86478173 19.0794635,3.47210865 C19.0794635,4.04207019 19.0136753,5.0710125 18.2140518,5.80214712 C17.3489224,6.59546442 16.1952282,6.58319519 15.4870871,6.58319519 L13.6780518,6.58319519 L13.6780518,9.08667596 L10.8197929,9.08667596 L10.8197929,0.410656731 L15.4870871,0.410656731 Z M13.6780518,4.50077212 L15.0415341,4.50077212 C15.2772988,4.50077212 15.6706165,4.50077212 15.9459106,4.25287788 C16.0901929,4.12879135 16.2082165,3.89344519 16.2082165,3.55882981 C16.2082165,3.26130096 16.0901929,3.07558942 15.9721694,2.97632019 C15.7231341,2.7655125 15.30384,2.75324327 15.0415341,2.75324327 L13.6780518,2.75324327 L13.6780518,4.50077212 Z" id="Fill-31"></path>
                    </g>
                    <polygon id="Fill-34" fill="#221F20" points="26.8344282 12.493674 23.9761694 12.493674 23.9761694 3.81765481 30.4920282 3.81765481 30.4920282 6.19732788 26.8344282 6.19732788"></polygon>
                    <path d="M32.0256847,12.493674 L29.0629553,12.493674 L32.4585318,3.81765481 L35.2772612,3.81765481 L38.6728376,12.493674 L35.7098259,12.493674 L35.2905318,11.266751 L32.4452612,11.266751 L32.0256847,12.493674 Z M34.7263906,9.48185673 L33.8612612,6.87910673 L33.00912,9.48185673 L34.7263906,9.48185673 Z" id="Fill-35" fill="#221F20"></path>
                    <polygon id="Fill-36" fill="#221F20" points="42.0158682 12.493674 39.1576094 12.493674 39.1576094 3.81765481 42.0158682 3.81765481 42.0158682 6.80465481 44.5722918 6.80465481 44.5722918 3.81765481 47.4305506 3.81765481 47.4305506 12.493674 44.5722918 12.493674 44.5722918 9.08505865 42.0158682 9.08505865"></polygon>
                    <polygon id="Fill-37" fill="#221F20" points="54.70656 3.81759904 57.4860424 3.81759904 57.4860424 12.4936183 54.70656 12.4936183 54.70656 7.79617596 51.9400659 12.4936183 49.1605835 12.4936183 49.1605835 3.81759904 51.9400659 3.81759904 51.9400659 8.46540673"></polygon>
                    <path d="M61.3272565,9.40743269 C61.3402447,10.0147596 61.7073035,10.3619231 61.7598212,10.4115577 C62.1398682,10.7461731 62.6641976,10.7832596 63.00528,10.7832596 C63.7393976,10.7832596 64.0539388,10.6098173 64.1329976,10.5601827 C64.4080094,10.3990096 64.5785506,10.1014808 64.5785506,9.76686538 C64.5785506,9.45706731 64.42128,9.27107692 64.1457035,9.14726923 C63.88368,9.03573077 63.3985976,8.98609615 63.0445271,8.98609615 L62.2316329,8.98609615 L62.2316329,7.27565385 L63.1495624,7.27565385 C63.6738918,7.27565385 63.8969506,7.16411538 64.0149741,7.08966346 C64.2114918,6.95330769 64.3162447,6.70541346 64.3162447,6.47006731 C64.3162447,6.22217308 64.1982212,5.94946154 63.9491859,5.76347115 C63.6476329,5.54039423 63.2280565,5.51557692 62.9660329,5.51557692 C62.6382212,5.51557692 62.2186447,5.55294231 61.9041035,5.87500962 C61.6810447,6.11063462 61.6025506,6.42043269 61.6155388,6.79241346 L58.8363388,6.79241346 C58.8230682,5.66448077 59.3081506,4.99497115 59.6622212,4.66035577 C60.5928565,3.76804808 62.12688,3.61942308 63.1758212,3.61942308 C64.6570447,3.61942308 65.9025035,3.81768269 66.7024094,4.54881731 C67.0432094,4.85889423 67.39728,5.36695192 67.39728,6.12290385 C67.39728,6.65577885 67.2007624,7.11448077 66.9251859,7.39946154 C66.6891388,7.64735577 66.3090918,7.85816346 65.8502682,7.90779808 L65.8502682,7.98225 C66.3616094,8.06897115 66.7941741,8.30431731 67.0694682,8.57702885 C67.4890447,8.97354808 67.6200565,9.45706731 67.6200565,9.94058654 C67.6200565,10.7584423 67.3317741,11.4524904 66.5448565,11.9730962 C65.5224565,12.6671442 64.2114918,12.7167788 63.0970447,12.7167788 C62.0613741,12.7167788 60.7633976,12.6671442 59.8062212,11.9608269 C58.8885741,11.2913173 58.5870212,10.2255673 58.5607624,9.40743269 L61.3272565,9.40743269 Z" id="Fill-38" fill="#221F20"></path>
                    <path d="M70.3727435,12.493674 L67.4100141,12.493674 L70.8055906,3.81765481 L73.62432,3.81765481 L77.0198965,12.493674 L74.0568847,12.493674 L73.6375906,11.266751 L70.79232,11.266751 L70.3727435,12.493674 Z M73.0734494,9.48185673 L72.20832,6.87910673 L71.3561788,9.48185673 L73.0734494,9.48185673 Z" id="Fill-40" fill="#221F20"></path>
                    <polygon id="Fill-41" fill="#221F20" points="76.1152094 6.1973 76.1152094 3.81762692 84.1650918 3.81762692 84.1650918 6.1973 81.5691388 6.1973 81.5691388 12.4936462 78.7111624 12.4936462 78.7111624 6.1973"></polygon>
                    <g id="Group-48" transform="translate(84.141176, 3.406942)" fill="#221F20">
                        <path d="M1.34792471,1.38988077 C2.44910118,0.311582692 3.78660706,0.175226923 4.84825412,0.175226923 C6.06773647,0.175226923 7.44420706,0.373486538 8.50641882,1.40215 C9.52881882,2.406275 9.72533647,3.71991923 9.72533647,4.69922692 C9.72533647,6.34748654 9.18801882,7.41351538 8.53239529,8.08274615 C7.47046588,9.16104423 6.11997176,9.32221731 4.92703059,9.32221731 C3.72081882,9.32221731 2.30510118,9.148775 1.22990118,8.05792885 C0.810607059,7.63659231 0.0499482353,6.62019808 0.0499482353,4.7734 C0.0499482353,3.17449615 0.666324706,2.05911154 1.34792471,1.38988077 M3.66858353,6.58311154 C4.00938353,6.91772692 4.42896,7.04181346 4.88778353,7.04181346 C5.33333647,7.04181346 5.77917176,6.94254423 6.11997176,6.58311154 C6.53983059,6.14922692 6.68383059,5.38100577 6.68383059,4.74858269 C6.68383059,4.11643846 6.59206588,3.38530385 6.11997176,2.91433269 C5.77917176,2.57971731 5.38585412,2.45563077 4.94030118,2.45563077 C4.48147765,2.45563077 4.04863059,2.56744808 3.69484235,2.91433269 C3.17023059,3.43493846 3.09173647,4.27761154 3.09173647,4.74858269 C3.09173647,5.21955385 3.15696,6.06250577 3.66858353,6.58311154" id="Fill-42"></path>
                        <path d="M15.5331388,0.410656731 C16.3722918,0.410656731 17.46048,0.522195192 18.2468329,1.22879135 C19.0334682,1.93510865 19.1255153,2.86478173 19.1255153,3.47210865 C19.1255153,4.04207019 19.0597271,5.0710125 18.2601035,5.80214712 C17.3949741,6.59546442 16.24128,6.58319519 15.5331388,6.58319519 L13.7241035,6.58319519 L13.7241035,9.08667596 L10.8658447,9.08667596 L10.8658447,0.410656731 L15.5331388,0.410656731 Z M13.7241035,4.50077212 L15.0875859,4.50077212 C15.3233506,4.50077212 15.7166682,4.50077212 15.9919624,4.25287788 C16.1362447,4.12879135 16.2542682,3.89344519 16.2542682,3.55882981 C16.2542682,3.26130096 16.1362447,3.07558942 16.0182212,2.97632019 C15.7691859,2.7655125 15.3498918,2.75324327 15.0875859,2.75324327 L13.7241035,2.75324327 L13.7241035,4.50077212 Z" id="Fill-44"></path>
                        <path d="M22.9140141,3.34818942 L24.73632,3.34818942 C25.5624847,3.34818942 26.7161788,3.47199712 27.5028141,4.21567981 C27.8698729,4.56284327 28.2891671,5.18243942 28.2891671,6.23592019 C28.2891671,7.15332404 27.9616376,7.90927596 27.4895435,8.34316058 C26.7029082,9.06202596 25.4311906,9.08684327 24.7495906,9.08684327 L20.0690259,9.08684327 L20.0690259,0.410545192 L22.9140141,0.410545192 L22.9140141,3.34818942 Z M22.9140141,6.95506442 L24.4085082,6.95506442 C24.6970729,6.95506442 25.0248847,6.89288173 25.2084141,6.73170865 C25.3919435,6.57081442 25.4182024,6.33518942 25.4182024,6.16174712 C25.4182024,5.95093942 25.3656847,5.75267981 25.1429082,5.59150673 C24.9328376,5.44288173 24.6315671,5.40551635 24.4085082,5.40551635 L22.9140141,5.40551635 L22.9140141,6.95506442 Z M28.9055435,9.08684327 L31.76352,9.08684327 L31.76352,0.410824038 L28.9055435,0.410824038 L28.9055435,9.08684327 Z" id="Fill-46"></path>
                    </g>
                </g>
            </g>
        </g>
    </g>
</svg>