<?xml version="1.0" encoding="UTF-8" standalone="no"?>
<svg width="40px" height="55px" viewBox="0 0 40 55" version="1.1" xmlns="http://www.w3.org/2000/svg" xmlns:xlink="http://www.w3.org/1999/xlink">
    <!-- Generator: Sketch 3.8.3 (29802) - http://www.bohemiancoding.com/sketch -->
    <title>Fill 1</title>
    <desc>Created with Sketch.</desc>
    <defs></defs>
    <g id="V1" stroke="none" stroke-width="1" fill="none" fill-rule="evenodd">
        <g id="Desktop-1240" transform="translate(-20.000000, -725.000000)" fill="#221F20">
            <path d="M52.9422361,728.2293 L60,728.2293 L60,725.888647 L52.9422361,725.888647 L52.9422361,728.2293 Z M48.2368199,728.2293 L50.5900684,728.2293 L50.5900684,725.888647 L48.2368199,725.888647 L48.2368199,728.2293 Z M36.4732796,725.888647 L34.119851,728.2293 L34.119851,737.594957 L45.8832112,737.594957 L45.8832112,735.254484 L36.4732796,735.254484 L36.4732796,728.2293 L45.8832112,728.2293 L45.8832112,725.888647 L36.4732796,725.888647 Z M22.3570312,725.888647 L20.0046834,728.2293 L20.0046834,732.913473 L29.414615,732.913473 L29.414615,735.254484 L20.0046834,735.254484 L20.0046834,737.594957 L31.7676834,737.594957 L31.7676834,730.571386 L22.3570312,730.571386 L22.3570312,728.2293 L31.7676834,728.2293 L31.7676834,725.888647 L22.3570312,725.888647 Z M52.9422361,732.913293 L60,732.913293 L60,730.571565 L52.9422361,730.571565 L52.9422361,732.913293 Z M48.2368199,737.596211 L50.5900684,737.596211 L50.5900684,730.571386 L48.2368199,730.571386 L48.2368199,737.596211 Z M52.9422361,737.596211 L60,737.596211 L60,735.254484 L52.9422361,735.254484 L52.9422361,737.596211 Z M48.2368199,739.935788 L48.2368199,749.3027 L50.5900684,751.643711 L60,751.643711 L60,749.3027 L50.5900684,749.3027 L50.5900684,742.277875 L60,742.277875 L60,739.935788 L48.2368199,739.935788 Z M20.0057642,739.935788 L20.0057642,751.643711 L22.3570312,751.643711 L22.3570312,742.277875 L29.414615,742.277875 L29.414615,751.643711 L31.7676834,751.643711 L31.7676834,742.277875 L29.414615,739.935788 L20.0057642,739.935788 Z M36.4732796,739.936864 L34.119851,742.277875 L34.119851,751.643711 L45.8832112,751.643711 L45.8832112,749.3027 L36.4732796,749.3027 L36.4732796,742.277875 L45.8832112,742.277875 L45.8832112,739.936864 L36.4732796,739.936864 Z M52.9409751,746.960434 L60,746.960434 L60,744.619782 L52.9409751,744.619782 L52.9409751,746.960434 Z M50.5900684,753.984543 L48.2368199,756.32645 L48.2368199,761.009009 L57.6465714,761.009009 L57.6465714,763.350199 L48.2368199,763.350199 L48.2368199,765.690852 L60,765.690852 L60,758.667102 L50.5900684,758.667102 L50.5900684,756.32645 L60,756.32645 L60,753.984543 L50.5900684,753.984543 Z M43.5312237,753.984543 L43.5312237,763.350199 L36.4732796,763.350199 L36.4732796,753.984543 L34.1212921,753.984543 L34.1212921,763.350199 L36.4732796,765.690852 L45.8832112,765.690852 L45.8832112,753.984543 L43.5312237,753.984543 Z M20.0046834,753.984543 L20.0046834,765.690852 L22.3570312,765.690852 L22.3570312,756.327525 L29.414615,756.327525 L29.414615,765.690852 L31.7676834,765.690852 L31.7676834,756.327525 L29.414615,753.984543 L20.0046834,753.984543 Z M24.7102797,765.692107 L27.0637083,765.692107 L27.0637083,758.667102 L24.7102797,758.667102 L24.7102797,765.692107 Z M48.2368199,768.032938 L48.2368199,779.739606 L50.5900684,779.739606 L50.5900684,770.37377 L57.6465714,770.37377 L57.6465714,779.739606 L60,779.739606 L60,770.37377 L57.6465714,768.032938 L48.2368199,768.032938 Z M43.5312237,768.032938 L43.5312237,777.39752 L36.4732796,777.39752 L36.4732796,768.032938 L34.119851,768.032938 L34.119851,777.39752 L36.4732796,779.739606 L45.8832112,779.739606 L45.8832112,768.032938 L43.5312237,768.032938 Z M20,768.032938 L20,777.39752 L22.3519875,779.739606 L31.7631801,779.739606 L31.7631801,777.39752 L22.3519875,777.39752 L22.3519875,770.37377 L31.7631801,770.37377 L31.7631801,768.032938 L20,768.032938 Z M24.7102797,775.056509 L31.7694847,775.056509 L31.7694847,772.715856 L24.7102797,772.715856 L24.7102797,775.056509 Z M52.9424162,779.739606 L55.2956647,779.739606 L55.2956647,772.715856 L52.9424162,772.715856 L52.9424162,779.739606 Z" id="Fill-1"></path>
        </g>
    </g>
</svg>