<?xml version="1.0" encoding="UTF-8" standalone="no"?>
<svg width="95px" height="27px" viewBox="0 0 95 27" version="1.1" xmlns="http://www.w3.org/2000/svg" xmlns:xlink="http://www.w3.org/1999/xlink">
    <!-- Generator: Sketch 3.8.3 (29802) - http://www.bohemiancoding.com/sketch -->
    <title>Page 1</title>
    <desc>Created with Sketch.</desc>
    <defs>
        <polygon id="path-1" points="3.69699601 6.47213458 3.69699601 0.16232546 0.087903037 0.16232546 0.087903037 6.47213458"></polygon>
        <polygon id="path-3" points="3.65115625 0.231168508 0.155656452 0.231168508 0.155656452 5.11280793 3.65115625 5.11280793 3.65115625 0.231168508"></polygon>
    </defs>
    <g id="V1" stroke="none" stroke-width="1" fill="none" fill-rule="evenodd">
        <g id="Desktop-1240" transform="translate(-104.000000, -751.000000)">
            <g id="Page-1" transform="translate(104.000000, 751.000000)">
                <path d="M92.3313574,8.44165981 L91.1025038,12.6059917 L90.5017419,12.6059917 L89.2721429,8.44165981 L86.874313,8.44165981 L88.6577161,13.7547292 L86.7244953,19.1594032 L89.1220767,19.1594032 L90.5017419,14.9027054 L91.1025038,14.9027054 L92.4811752,19.1594032 L94.8797504,19.1594032 L92.9450389,13.7547292 L94.7294358,8.44165981 L92.3313574,8.44165981 Z M79.0460234,8.44165981 L78.0271134,19.1594032 L80.274877,19.1594032 L80.4997279,16.6335511 L82.9728394,16.6335511 L83.1989325,19.1594032 L85.4474415,19.1594032 L84.4282831,8.44165981 L79.0460234,8.44165981 Z M81.0252082,10.737866 L82.4490983,10.737866 L82.7787968,14.3368374 L80.694019,14.3368374 L81.0252082,10.737866 Z M69.5466319,8.44165981 L69.5466319,19.1594032 L71.7958862,19.1594032 L71.7958862,15.9438518 L76.5935336,15.9438518 L76.5935336,8.44165981 L69.5466319,8.44165981 Z M71.7958862,13.6471381 L74.3445277,13.6471381 L74.3445277,10.738881 L71.7958862,10.738881 L71.7958862,13.6471381 Z M60.878816,8.44165981 L60.878816,10.737866 L63.2781366,10.737866 L63.2781366,19.1594032 L65.526894,19.1594032 L65.526894,10.737866 L67.9257177,10.737866 L67.9257177,8.44165981 L60.878816,8.44165981 Z M52.2808157,8.44165981 L52.2808157,19.1594032 L59.3267236,19.1594032 L59.3267236,15.8220506 L57.0774693,15.8220506 L57.0774693,16.8631971 L54.5285794,16.8631971 L54.5285794,10.737866 L57.0774693,10.737866 L57.0774693,11.7802812 L59.3267236,11.7802812 L59.3267236,8.44165981 L52.2808157,8.44165981 Z M43.4395789,8.44165981 L43.4395789,19.1594032 L50.4857353,19.1594032 L50.4857353,15.8220506 L48.2379717,15.8220506 L48.2379717,16.8631971 L45.6880879,16.8631971 L45.6880879,10.737866 L48.2379717,10.737866 L48.2379717,11.7802812 L50.4857353,11.7802812 L50.4857353,8.44165981 L43.4395789,8.44165981 Z M34.5317565,19.1594032 L41.5779129,19.1594032 L41.5779129,8.44165981 L34.5317565,8.44165981 L34.5317565,19.1594032 Z M36.7810109,16.8629433 L39.3301492,16.8629433 L39.3301492,10.738881 L36.7810109,10.738881 L36.7810109,16.8629433 Z M26.6212285,8.44165981 L26.6212285,19.1594032 L28.8702344,19.1594032 L28.8702344,10.737866 L32.842766,10.737866 L32.842766,8.44165981 L26.6212285,8.44165981 Z M17.781234,8.44165981 L17.781234,19.1594032 L24.827142,19.1594032 L24.827142,15.8220506 L22.578633,15.8220506 L22.578633,16.8631971 L20.0299915,16.8631971 L20.0299915,10.737866 L22.578633,10.737866 L22.578633,11.7802812 L24.827142,11.7802812 L24.827142,8.44165981 L17.781234,8.44165981 Z M8.87316312,19.1594032 L15.9193195,19.1594032 L15.9193195,8.44165981 L8.87316312,8.44165981 L8.87316312,19.1594032 Z M11.1216721,16.8629433 L13.6708105,16.8629433 L13.6708105,10.738881 L11.1216721,10.738881 L11.1216721,16.8629433 Z M-0.000124227017,8.44165981 L-0.000124227017,19.1594032 L2.24838477,19.1594032 L2.24838477,15.9438518 L7.0457837,15.9438518 L7.0457837,8.44165981 L-0.000124227017,8.44165981 Z M2.24838477,13.6471381 L4.79652934,13.6471381 L4.79652934,10.738881 L2.24838477,10.738881 L2.24838477,13.6471381 Z" id="Fill-1" fill="#221F20"></path>
                <g id="Group-8" transform="translate(0.000000, 21.591545)" fill="#221F20">
                    <path d="M0.692963144,4.14900527 C0.738430232,4.38499507 0.829115954,4.55475548 0.965020311,4.658794 C1.10067621,4.76283251 1.30043326,4.81485177 1.56280071,4.81485177 C1.7439237,4.81485177 1.90417656,4.77983393 2.04281391,4.71106701 C2.1807059,4.64128508 2.2952432,4.52785772 2.38568047,4.37027743 C2.47636619,4.2134584 2.54394569,4.01071017 2.58916433,3.7633015 C2.63438296,3.51589283 2.65748919,3.21113611 2.65748919,2.85055384 C2.3720155,3.2763505 1.96430243,3.48924882 1.43385307,3.48924882 C1.1801815,3.48924882 0.964026494,3.44864843 0.78513959,3.36770139 C0.605755778,3.2870081 0.457428721,3.17561076 0.340406871,3.03452438 C0.222142751,2.89318425 0.135929202,2.72545387 0.0817662223,2.53133322 C0.0273547891,2.33645132 2.48454033e-05,2.12862804 2.48454033e-05,1.90634087 C2.48454033e-05,1.66578352 0.0382867665,1.44451136 0.115307517,1.24328564 C0.192576721,1.04256743 0.301151134,0.869761994 0.441776117,0.726391844 C0.581904191,0.582514189 0.75184675,0.471878108 0.951355339,0.39321484 C1.15111238,0.314297819 1.37273338,0.274966185 1.61770906,0.274966185 C1.93920857,0.274966185 2.20430903,0.341703087 2.41276196,0.4761919 C2.62096644,0.611188219 2.78668528,0.786277428 2.90917312,1.00399705 C3.03116405,1.22171668 3.1173776,1.46709533 3.16706841,1.73987924 C3.21700767,2.01291691 3.24185307,2.28595457 3.24185307,2.55873849 C3.24185307,2.94291974 3.21924375,3.30274075 3.17427357,3.63820153 C3.12880649,3.97391606 3.04383521,4.26674642 2.91911128,4.5161851 C2.79438736,4.76638505 2.6244448,4.96431198 2.40953206,5.1099659 C2.19412241,5.25587358 1.91659926,5.32870054 1.57671414,5.32870054 C1.13719896,5.32870054 0.794083936,5.23328961 0.547617535,5.04399026 C0.300157318,4.85392965 0.156550886,4.55602424 0.115307517,4.14900527 L0.692963144,4.14900527 Z M1.55658936,2.98935644 C1.69249372,2.98935644 1.82168982,2.96829499 1.94368075,2.92642583 C2.06641704,2.88455667 2.174743,2.82061105 2.26965244,2.73458895 C2.36505879,2.64831311 2.44108572,2.53767703 2.4979817,2.40242696 C2.55438076,2.26743064 2.58270452,2.10731283 2.58270452,1.92055101 C2.58270452,1.78047964 2.56307665,1.64193078 2.52456628,1.50465069 C2.48630436,1.36762436 2.4271723,1.2440469 2.34816391,1.13493333 C2.26865862,1.02505851 2.16902856,0.938275163 2.04902526,0.872553271 C1.92927041,0.807846389 1.78516707,0.775112319 1.61770906,0.775112319 C1.30490543,0.775112319 1.0569483,0.872553271 0.873340772,1.06819643 C0.689733242,1.26409334 0.597805249,1.536116 0.597805249,1.88553316 C0.597805249,2.03930717 0.613954762,2.18369233 0.645508424,2.3189424 C0.67731054,2.45368496 0.730479703,2.5704111 0.805512821,2.66785205 C0.880297485,2.76605426 0.978933736,2.84395627 1.10067621,2.90206559 C1.22341251,2.95992116 1.37521792,2.98935644 1.55658936,2.98935644 L1.55658936,2.98935644 Z" id="Fill-2"></path>
                    <path d="M4.73034118,3.97503257 C4.7805289,4.2551753 4.87767443,4.46020731 5.02277158,4.59063608 C5.16762028,4.72182611 5.40067017,4.7870405 5.72291505,4.7870405 C6.0215568,4.7870405 6.2560974,4.69721212 6.42603996,4.51755537 C6.59623097,4.33739111 6.68145071,4.05369584 6.68145071,3.6662158 C6.68145071,3.35232399 6.60741141,3.10009402 6.4593328,2.9085109 C6.31299338,2.71743529 6.06901152,2.62151685 5.72937485,2.62151685 C5.51644975,2.62151685 5.33284222,2.65475843 5.17929762,2.72225658 C5.02451076,2.78873973 4.88438269,2.89201699 4.75742267,3.0308196 L4.24113519,3.0308196 L4.45157576,0.40651147 L7.00692549,0.40651147 L7.00692549,0.94827301 L4.94823537,0.94827301 L4.81879082,2.4476964 C4.96388798,2.33655282 5.11569339,2.25484452 5.27420706,2.20104899 C5.43247228,2.14852223 5.62080044,2.12137072 5.83844617,2.12137072 C6.09186929,2.12137072 6.31075729,2.16171736 6.49411637,2.24317191 C6.67747544,2.32386519 6.82729323,2.43526253 6.9425759,2.57609516 C7.05835548,2.71743529 7.14332676,2.88161314 7.19748973,3.06913622 C7.25165271,3.25640555 7.27898266,3.45407873 7.27898266,3.66266327 C7.27898266,4.2087386 7.1398484,4.62286265 6.86058607,4.9050354 C6.58231755,5.1869544 6.20740041,5.32880204 5.73633157,5.32880204 C5.24240495,5.32880204 4.86301564,5.21537468 4.59791518,4.98801246 C4.33256628,4.76166525 4.18150623,4.42366695 4.14548039,3.97503257 L4.73034118,3.97503257 Z" id="Fill-4"></path>
                    <path d="M13.0156869,0.78851045 L11.4789987,0.78851045 L11.2618499,2.59649686 C11.2074384,3.06898397 11.13166,3.47270416 11.0340175,3.80613492 C10.936872,4.13981943 10.8143842,4.41311085 10.6670509,4.62600918 C10.5199661,4.83992251 10.345303,4.99623404 10.1438067,5.09595877 C9.94231051,5.19542974 9.707273,5.24567273 9.44043337,5.24567273 L9.2975723,5.24567273 L9.2975723,4.68284973 L9.38602193,4.68284973 C9.5532315,4.68284973 9.70404309,4.64605562 9.83795982,4.57170615 C9.97162809,4.49811793 10.0916314,4.37022668 10.1984666,4.19006242 C10.3048049,4.00964441 10.3974783,3.76680329 10.4769836,3.46103155 C10.555992,3.15602107 10.6228261,2.7698098 10.6769891,2.30214398 L10.9222132,0.247002662 L13.6407973,0.247002662 L13.6407973,5.20329606 L13.0156869,5.20329606 L13.0156869,0.78851045 Z" id="Fill-6"></path>
                </g>
                <polygon id="Fill-9" fill="#221F20" points="14.7145659 21.8384965 14.7145659 26.7950437 17.8821064 26.7950437 17.9834756 26.2329819 15.3396762 26.2329819 15.3396762 24.5252278 17.7186236 24.5252278 17.7186236 23.9560609 15.3396762 23.9560609 15.3396762 22.4013195 17.8547764 22.4013195 17.8547764 21.8384965"></polygon>
                <polygon id="Fill-10" fill="#221F20" points="18.4184192 21.8391816 18.4184192 22.4083485 20.02219 22.4083485 20.02219 26.7952213 20.6475488 26.7952213 20.6475488 22.4083485 22.2515681 22.4083485 22.2515681 21.8391816"></polygon>
                <path d="M26.0439953,21.838598 C26.388601,21.838598 26.6715902,21.8723471 26.8937081,21.9393378 C27.115826,22.0060747 27.2912345,22.0971718 27.4204306,22.2100916 C27.5496267,22.323519 27.6385733,22.4577541 27.6892579,22.6127968 C27.7389487,22.7678396 27.7637941,22.9310024 27.7637941,23.1020316 C27.7637941,23.3288863 27.7133579,23.5351871 27.6139763,23.7201726 C27.5140978,23.9051582 27.3354593,24.0553797 27.0768187,24.1713445 C27.2403014,24.2360514 27.3749635,24.3121772 27.4810534,24.400483 C27.5881371,24.4882814 27.6743506,24.5829311 27.739694,24.6849396 C27.8057828,24.7866943 27.8510015,24.8953004 27.8760953,25.0112653 C27.9006923,25.1269764 27.9136119,25.2424338 27.9136119,25.3583986 C27.9136119,25.5619081 27.883052,25.7501925 27.821187,25.9242667 C27.7603157,26.0975796 27.6616795,26.2488161 27.5257751,26.3787374 C27.3898708,26.5078974 27.2107354,26.6101596 26.988866,26.6842553 C26.7667481,26.7583511 26.4929517,26.7948914 26.1664831,26.7948914 L24.4335162,26.7948914 L24.4335162,21.838598 L26.0439953,21.838598 Z M26.1324449,23.9356085 C26.4994115,23.9356085 26.7610336,23.8658266 26.9173112,23.727024 C27.0740857,23.5884751 27.1521003,23.3887719 27.1521003,23.1301981 C27.1521003,22.861728 27.0666321,22.6676074 26.8974349,22.5470749 C26.7269954,22.4262888 26.4360557,22.3666569 26.0238705,22.3666569 L25.0449616,22.3666569 L25.0449616,23.9356085 L26.1324449,23.9356085 Z M26.1458614,26.2681013 C26.3727,26.2681013 26.5595374,26.2465323 26.7068706,26.2049169 C26.8539554,26.1633015 26.9704804,26.1044309 27.0569424,26.0283052 C27.1429075,25.9516719 27.2032818,25.8590523 27.2365746,25.7501925 C27.2708613,25.6420939 27.2880046,25.5175014 27.2880046,25.3792063 C27.2880046,25.0919585 27.2037787,24.8701789 27.0365691,24.7125986 C26.8681173,24.5555258 26.5898488,24.4766088 26.2005213,24.4766088 L25.0449616,24.4766088 L25.0449616,26.2681013 L26.1458614,26.2681013 Z" id="Fill-11" fill="#221F20"></path>
                <polygon id="Fill-13" fill="#221F20" points="32.6573696 21.8384965 31.0667669 26.030995 29.5037425 21.8384965 28.7290629 21.8384965 28.7290629 26.7950437 29.3000102 26.7950437 29.3000102 22.9009581 30.7944612 26.7950437 31.3040405 26.7950437 32.8273121 22.8870018 32.8273121 26.7950437 33.4047193 26.7950437 33.4047193 21.8384965"></polygon>
                <polygon id="Fill-14" fill="#221F20" points="34.4784383 21.8391816 34.4784383 26.7952213 37.6454818 26.7952213 37.7475964 26.2331596 35.1037971 26.2331596 35.1037971 24.5254054 37.4827444 24.5254054 37.4827444 23.9562386 35.1037971 23.9562386 35.1037971 22.4014971 37.6188972 22.4014971 37.6188972 21.8391816"></polygon>
                <g id="Group-17" transform="translate(38.261921, 21.591545)" fill="#221F20">
                    <path d="M4.16851208,3.57235276 C4.14143059,3.82153769 4.08006244,4.05448247 3.985153,4.27067958 C3.8894982,4.48535418 3.76079901,4.67186225 3.59731626,4.82868128 C3.43433041,4.98600782 3.23606409,5.10882402 3.00301421,5.19636862 C2.76971587,5.28467448 2.49865252,5.32882741 2.19106643,5.32882741 C1.85540503,5.32882741 1.55427874,5.27046434 1.28619684,5.15475321 C1.01960566,5.03929584 0.793264037,4.87004293 0.607171966,4.64826327 C0.421576804,4.4259761 0.277473464,4.15395344 0.175855765,3.8327028 C0.073492703,3.51069091 0.0228080803,3.14427233 0.0228080803,2.73217831 C0.0228080803,2.31602424 0.0772195135,1.94605313 0.185793926,1.62175746 C0.294865247,1.29771555 0.446422207,1.02493163 0.640961715,0.802644463 C0.835998131,0.580864798 1.06457584,0.411358142 1.32768866,0.295647012 C1.59055303,0.180189635 1.87851125,0.122080317 2.19106643,0.122080317 C2.48945972,0.122080317 2.74810037,0.161665704 2.9657461,0.240328972 C3.18364029,0.31899224 3.36774473,0.429628321 3.5197986,0.573759728 C3.67135556,0.717383631 3.7938434,0.888159048 3.88676521,1.08710099 C3.97968701,1.28629669 4.05074487,1.50604633 4.10068413,1.74685743 L3.48948721,1.8506422 C3.44327476,1.66565664 3.38886332,1.50173254 3.32600445,1.35760113 C3.26240022,1.21473849 3.17966503,1.09192229 3.07730197,0.989913792 C2.97568427,0.888159048 2.85369334,0.81051079 2.71083227,0.757730275 C2.5679712,0.704442254 2.39430183,0.677798244 2.19106643,0.677798244 C1.9458423,0.677798244 1.72993574,0.72753373 1.54185604,0.826750949 C1.35377634,0.92622192 1.19501421,1.06527828 1.06606657,1.24315877 C0.936373561,1.42154676 0.839228034,1.63672886 0.773636169,1.88895882 C0.708292758,2.14118879 0.674999918,2.42006276 0.674999918,2.72532699 C0.674999918,3.03566627 0.709535028,3.31657026 0.776866071,3.56854647 C0.845439384,3.82077644 0.943578727,4.03646604 1.07252637,4.21485404 C1.20221938,4.39273452 1.3604846,4.53026837 1.5485643,4.62796307 C1.736644,4.72438901 1.95279901,4.77285573 2.19752623,4.77285573 C2.41989259,4.77285573 2.60772384,4.7441817 2.76126843,4.68683364 C2.91555839,4.62872433 3.04376067,4.54752353 3.14587528,4.44348502 C3.24798989,4.338939 3.32824054,4.21358527 3.38712414,4.06514007 C3.44526239,3.91720238 3.49072948,3.75277077 3.52278005,3.57235276 L4.16851208,3.57235276 Z" id="Fill-15"></path>
                </g>
                <polygon id="Fill-18" fill="#221F20" points="42.6958318 21.8384965 42.6958318 22.4081708 44.2996026 22.4081708 44.2996026 26.7950437 44.9249614 26.7950437 44.9249614 22.4081708 46.5292291 22.4081708 46.5292291 21.8384965"></polygon>
                <polygon id="Fill-19" fill="#221F20" points="47.1952847 21.8384965 47.1952847 26.7950437 50.3623282 26.7950437 50.4639459 26.2329819 47.8206435 26.2329819 47.8206435 24.5252278 50.1990939 24.5252278 50.1990939 23.9560609 47.8206435 23.9560609 47.8206435 22.4013195 50.3349983 22.4013195 50.3349983 21.8384965"></polygon>
                <g id="Group-28" transform="translate(52.423801, 21.591545)" fill="#221F20">
                    <g id="Group-22">
                        <path d="M4.29954674,3.57235276 C4.27296215,3.82153769 4.21134555,4.05448247 4.11693302,4.27067958 C4.02102977,4.48535418 3.89183367,4.67186225 3.72909628,4.82868128 C3.56536507,4.98600782 3.36759566,5.10882402 3.13404887,5.19636862 C2.90099898,5.28467448 2.62968718,5.32882741 2.32185263,5.32882741 C1.98643969,5.32882741 1.68556185,5.27046434 1.41847377,5.15475321 C1.15088877,5.03929584 0.924298695,4.87004293 0.738455078,4.64826327 C0.552611461,4.4259761 0.40900503,4.15395344 0.307138876,3.8327028 C0.205272722,3.51069091 0.154339645,3.14427233 0.154339645,2.73217831 C0.154339645,2.31602424 0.208254171,1.94605313 0.316828583,1.62175746 C0.426148358,1.29771555 0.577705318,1.02493163 0.772741734,0.802644463 C0.967529696,0.580864798 1.19635586,0.411358142 1.45897177,0.295647012 C1.72183614,0.180189635 2.00954591,0.122080317 2.32185263,0.122080317 C2.62123974,0.122080317 2.87913503,0.161665704 3.09702922,0.240328972 C3.31417804,0.31899224 3.49877939,0.429628321 3.6505848,0.573759728 C3.80263867,0.717383631 3.92487805,0.888159048 4.01755141,1.08710099 C4.11047322,1.28629669 4.18202798,1.50604633 4.23196724,1.74685743 L3.62002496,1.8506422 C3.57505478,1.66565664 3.52039489,1.50173254 3.45728756,1.35760113 C3.39343488,1.21473849 3.31069968,1.09192229 3.20908198,0.989913792 C3.10671892,0.888159048 2.98497645,0.81051079 2.84236383,0.757730275 C2.69950276,0.704442254 2.52583339,0.677798244 2.32185263,0.677798244 C2.07737386,0.677798244 1.8609704,0.72753373 1.67313915,0.826750949 C1.48505945,0.92622192 1.32629732,1.06527828 1.19710122,1.24315877 C1.06790513,1.42154676 0.970511145,1.63672886 0.90491928,1.88895882 C0.839078961,2.14118879 0.806283029,2.42006276 0.806283029,2.72532699 C0.806283029,3.03566627 0.840569685,3.31657026 0.90864609,3.56854647 C0.976474042,3.82077644 1.07486184,4.03646604 1.20380948,4.21485404 C1.33300558,4.39273452 1.49151925,4.53026837 1.67959896,4.62796307 C1.86767866,4.72438901 2.08433058,4.77285573 2.32880934,4.77285573 C2.5506788,4.77285573 2.73900695,4.7441817 2.89354536,4.68683364 C3.04733841,4.62872433 3.17529224,4.54752353 3.27690994,4.44348502 C3.37877609,4.338939 3.4592752,4.21358527 3.51791035,4.06514007 C3.57704241,3.91720238 3.6225095,3.75277077 3.65406316,3.57235276 L4.29954674,3.57235276 Z" id="Fill-20"></path>
                    </g>
                    <path d="M7.15470595,5.32880204 C6.82351672,5.32880204 6.52189353,5.27170773 6.24710337,5.15878788 C5.97281011,5.04510677 5.73752414,4.87813764 5.54074855,4.65864174 C5.34297914,4.43863835 5.19042836,4.16712319 5.0816055,3.84308128 C4.97228572,3.51903937 4.91812274,3.14906825 4.91812274,2.73240668 C4.91812274,2.31599887 4.9740249,1.94602775 5.0848354,1.62173209 C5.19614281,1.29769017 5.35018431,1.02490626 5.54671145,0.802619088 C5.74448086,0.580839422 5.97976683,0.411332767 6.25406008,0.295621637 C6.52810488,0.180164259 6.8284858,0.122054942 7.15470595,0.122054942 C7.48514981,0.122054942 7.78726992,0.178641745 8.06156317,0.292322855 C8.33585642,0.40549646 8.57014858,0.572719343 8.7656819,0.792468989 C8.95997296,1.01196488 9.11152992,1.28297253 9.22035278,1.60447692 C9.3294241,1.92598131 9.38358708,2.29544492 9.38358708,2.71109148 C9.38358708,3.1280068 9.33041792,3.49950042 9.22407959,3.82557236 C9.11749281,4.15164429 8.96668121,4.42595072 8.77239016,4.64823789 C8.57735374,4.87001756 8.34306159,5.03927046 8.06876834,5.15472784 C7.79497199,5.27069272 7.48962199,5.32880204 7.15470595,5.32880204 M7.15470595,4.77283036 C7.41284969,4.77283036 7.64018513,4.72436364 7.83770609,4.62793769 C8.03473014,4.53049674 8.1987098,4.3929629 8.33014198,4.21482866 C8.46182262,4.03644067 8.56170114,3.82100481 8.62928064,3.5685211 C8.69710859,3.31654489 8.7316437,3.03564089 8.7316437,2.72530161 C8.7316437,2.41546984 8.69710859,2.13431209 8.62928064,1.88233588 C8.56170114,1.63010592 8.4603319,1.41467007 8.32740899,1.23653583 C8.19324381,1.05865534 8.02901569,0.920867743 7.83422773,0.823680544 C7.63943977,0.726239592 7.41284969,0.677772869 7.15470595,0.677772869 C6.88712096,0.677772869 6.65481644,0.726239592 6.45779239,0.823680544 C6.26101679,0.920867743 6.09678868,1.05865534 5.96510804,1.23653583 C5.83417276,1.41467007 5.73479115,1.63010592 5.66944774,1.88233588 C5.60335897,2.13431209 5.57081149,2.41546984 5.57081149,2.72530161 C5.57081149,3.03564089 5.60335897,3.31654489 5.66944774,3.5685211 C5.73479115,3.82100481 5.83417276,4.03644067 5.96510804,4.21482866 C6.09678868,4.3929629 6.26101679,4.53049674 6.45779239,4.62793769 C6.65481644,4.72436364 6.88712096,4.77283036 7.15470595,4.77283036" id="Fill-23"></path>
                    <g id="Group-27" transform="translate(11.428886, 0.000000)">
                        <path d="M4.35038043,3.57235276 C4.32379585,3.82153769 4.2619308,4.05448247 4.1667729,4.27067958 C4.07186346,4.48535418 3.94266736,4.67186225 3.77943306,4.82868128 C3.61619876,4.98600782 3.4181809,5.10882402 3.18488256,5.19636862 C2.95133577,5.28467448 2.68052087,5.32882741 2.37218942,5.32882741 C2.03677647,5.32882741 1.73565019,5.27046434 1.4685621,5.15475321 C1.20097711,5.03929584 0.974635482,4.87004293 0.789040319,4.64826327 C0.603196702,4.4259761 0.459093363,4.15395344 0.357227209,3.8327028 C0.255361055,3.51069091 0.204427979,3.14427233 0.204427979,2.73217831 C0.204427979,2.31602424 0.259087866,1.94605313 0.367662278,1.62175746 C0.476236691,1.29771555 0.628042105,1.02493163 0.823078521,0.802644463 C1.01761803,0.580864798 1.24644419,0.411358142 1.50930856,0.295647012 C1.77242138,0.180189635 2.05963424,0.122080317 2.37218942,0.122080317 C2.67182498,0.122080317 2.92996872,0.161665704 3.14711755,0.240328972 C3.36501174,0.31899224 3.54911617,0.429628321 3.70092159,0.573759728 C3.85247855,0.717383631 3.97571175,0.888159048 4.06813665,1.08710099 C4.16130691,1.28629669 4.23211631,1.50604633 4.28230403,1.74685743 L3.67085865,1.8506422 C3.62539156,1.66565664 3.57122858,1.50173254 3.50712744,1.35760113 C3.44426857,1.21473849 3.36178183,1.09192229 3.25966723,0.989913792 C3.15755262,0.888159048 3.03506478,0.81051079 2.89270062,0.757730275 C2.74983955,0.704442254 2.57666709,0.677798244 2.37218942,0.677798244 C2.12820756,0.677798244 1.9118041,0.72753373 1.72372439,0.826750949 C1.53514778,0.92622192 1.37663411,1.06527828 1.24793492,1.24315877 C1.11824191,1.42154676 1.02159329,1.63672886 0.955007613,1.88895882 C0.889912656,2.14118879 0.85686827,2.42006276 0.85686827,2.72532699 C0.85686827,3.03566627 0.890658018,3.31657026 0.958982878,3.56854647 C1.02656237,3.82077644 1.12544708,4.03646604 1.25464318,4.21485404 C1.38383927,4.39273452 1.54185604,4.53026837 1.73043265,4.62796307 C1.91776699,4.72438901 2.13466736,4.77285573 2.37889768,4.77285573 C2.60151249,4.77285573 2.78909529,4.7441817 2.94338524,4.68683364 C3.09742674,4.62872433 3.22587748,4.54752353 3.32749518,4.44348502 C3.42911288,4.338939 3.50936353,4.21358527 3.56874404,4.06514007 C3.62762765,3.91720238 3.67284628,3.75277077 3.7046484,3.57235276 L4.35038043,3.57235276 Z" id="Fill-25"></path>
                    </g>
                </g>
                <polygon id="Fill-29" fill="#221F20" points="68.4680681 21.8384965 68.4680681 22.4081708 70.0725842 22.4081708 70.0725842 26.7950437 70.6969492 26.7950437 70.6969492 22.4081708 72.3014653 22.4081708 72.3014653 21.8384965"></polygon>
                <path d="M74.592137,21.838598 C74.9496623,21.838598 75.2455711,21.8781834 75.4788694,21.9568467 C75.7119193,22.0352562 75.8957753,22.1415785 76.0294436,22.2765748 C76.1628634,22.4100486 76.2555367,22.5663601 76.3079605,22.7444944 C76.3598874,22.9228824 76.3859751,23.1114204 76.3859751,23.3103624 C76.3859751,23.5186932 76.3591421,23.7176351 76.3049791,23.907442 C76.2505677,24.0972488 76.1554098,24.2637105 76.0202508,24.4073344 C75.8843464,24.5504508 75.7017327,24.6638781 75.4709189,24.7476164 C75.2403536,24.8308472 74.9486685,24.8722089 74.5963607,24.8722089 L73.5931033,24.8722089 L73.5931033,26.7951452 L72.9677445,26.7951452 L72.9677445,21.838598 L74.592137,21.838598 Z M74.5889071,24.3307011 C74.8234477,24.3307011 75.0182356,24.3073559 75.1712833,24.2616804 C75.3250764,24.21499 75.4443343,24.1482531 75.5310448,24.060201 C75.616513,23.9718951 75.6763904,23.8668416 75.7101801,23.7445329 C75.7439699,23.6219704 75.7608648,23.4836753 75.7608648,23.3314238 C75.7608648,23.1740973 75.7427276,23.0352947 75.7069502,22.915016 C75.6704275,22.7944836 75.6078171,22.6950126 75.5203612,22.6163494 C75.432657,22.5376861 75.3114114,22.4788155 75.1576184,22.4394839 C75.0040738,22.4001523 74.8125157,22.3801058 74.5821988,22.3801058 L73.5931033,22.3801058 L73.5931033,24.3307011 L74.5889071,24.3307011 Z" id="Fill-30" fill="#221F20"></path>
                <path d="M78.1391413,21.8384965 L76.2501453,26.7950437 L76.902834,26.7950437 L77.4126617,25.4133614 L79.4919735,25.4133614 L80.0015527,26.7950437 L80.681323,26.7950437 L78.7987868,21.8384965 L78.1391413,21.8384965 Z M78.4452367,22.5609298 L79.3016577,24.8584048 L77.602729,24.8584048 L78.4452367,22.5609298 Z" id="Fill-32" fill="#221F20"></path>
                <polygon id="Fill-33" fill="#221F20" points="84.371561 21.8384965 84.371561 23.935507 81.9183259 23.935507 81.9183259 21.8384965 81.2927186 21.8384965 81.2927186 26.7950437 81.9183259 26.7950437 81.9183259 24.5320791 84.371561 24.5320791 84.371561 26.7950437 84.9966714 26.7950437 84.9966714 21.8384965"></polygon>
                <g id="Group-43" transform="translate(0.000000, 1.037594)">
                    <path d="M88.1371304,25.8827528 C87.8066865,25.8827528 87.503821,25.8256585 87.2300247,25.7127386 C86.9559799,25.5990575 86.7199486,25.4320884 86.523173,25.2125925 C86.325652,24.9925891 86.1728528,24.7210739 86.0647753,24.397032 C85.9557039,24.0729901 85.9012925,23.703019 85.9012925,23.2863574 C85.9012925,22.8699496 85.9569462,22.4999785 86.0677567,22.1756828 C86.1785672,21.8516409 86.3328572,21.578857 86.5298812,21.3565698 C86.7266568,21.1347901 86.9629366,20.9652835 87.2369814,20.8495724 C87.5107777,20.734115 87.8111587,20.6760057 88.1371304,20.6760057 C88.4683196,20.6760057 88.7709366,20.7325925 89.0447329,20.8462736 C89.3190262,20.9594472 89.5533183,21.1266701 89.7483548,21.3464197 C89.9428943,21.5659156 90.0946997,21.8369233 90.2035226,22.1584276 C90.3125939,22.479932 90.3665084,22.8493956 90.3665084,23.2650422 C90.3665084,23.6819575 90.3130908,24.0534511 90.2072494,24.3795231 C90.1006626,24.705595 89.949851,24.9799014 89.7548146,25.2021886 C89.5600266,25.4239683 89.325486,25.5932212 89.0514412,25.7086786 C88.7776449,25.8246434 88.4727918,25.8827528 88.1371304,25.8827528 M88.1371304,25.3267811 C88.395771,25.3267811 88.6233549,25.2783144 88.8201305,25.1818884 C89.0176514,25.0844475 89.1813827,24.9469136 89.3130633,24.7687794 C89.444247,24.5903914 89.5441255,24.3749555 89.612202,24.1224718 C89.6797814,23.8704956 89.7140681,23.5895916 89.7140681,23.2792523 C89.7140681,22.9694206 89.6797814,22.6882628 89.612202,22.4362866 C89.5441255,22.1840566 89.4435017,21.9686208 89.3093365,21.7904865 C89.1764136,21.6126061 89.0121855,21.4748185 88.8173975,21.3776313 C88.6221126,21.2801903 88.395771,21.2317236 88.1371304,21.2317236 C87.8700423,21.2317236 87.6379862,21.2801903 87.4407137,21.3776313 C87.2436897,21.4748185 87.0794615,21.6126061 86.9480294,21.7904865 C86.8165972,21.9686208 86.7179609,22.1840566 86.6521206,22.4362866 C86.5862803,22.6882628 86.5534843,22.9694206 86.5534843,23.2792523 C86.5534843,23.5895916 86.5862803,23.8704956 86.6521206,24.1224718 C86.7179609,24.3749555 86.8165972,24.5903914 86.9480294,24.7687794 C87.0794615,24.9469136 87.2436897,25.0844475 87.4407137,25.1818884 C87.6379862,25.2783144 87.8700423,25.3267811 88.1371304,25.3267811" id="Fill-34" fill="#221F20"></path>
                    <g id="Group-38" transform="translate(91.182630, 19.285188)">
                        <mask id="mask-2" fill="white">
                            <use xlink:href="#path-1"></use>
                        </mask>
                        <g id="Clip-37"></g>
                        <path d="M3.0917123,6.47213458 L3.0917123,2.55724135 L0.699596867,6.47213458 L0.087903037,6.47213458 L0.087903037,1.51584118 L0.699596867,1.51584118 L0.699596867,5.43783948 L3.08525249,1.51584118 L3.69719478,1.51584118 L3.69719478,6.47213458 L3.0917123,6.47213458 Z M1.28396075,0.16232546 C1.29315355,0.338175927 1.35004953,0.475709771 1.45390331,0.575180742 C1.5577571,0.674651713 1.70384807,0.724640952 1.88919478,0.724640952 C2.07478994,0.724640952 2.21963864,0.674651713 2.32398934,0.575180742 C2.42834003,0.475709771 2.48697518,0.338175927 2.50088861,0.16232546 L2.94934814,0.16232546 C2.94934814,0.449573265 2.85791705,0.681756783 2.67381262,0.859891022 C2.49070199,1.03827901 2.2290799,1.12709238 1.88919478,1.12709238 C1.54011686,1.12709238 1.27750095,1.03827901 1.10035322,0.859891022 C0.924199313,0.681756783 0.835749677,0.449573265 0.835749677,0.16232546 L1.28396075,0.16232546 Z" id="Fill-36" fill="#221F20" mask="url(#mask-2)"></path>
                    </g>
                    <path d="M0.694528405,0.755548003 C1.15690136,0.287120929 1.71840748,0.227996602 2.16438247,0.227996602 C2.67619777,0.227996602 3.25435031,0.314272444 3.70007684,0.760876805 C4.12940541,1.19682356 4.21214061,1.76725913 4.21214061,2.19254829 C4.21214061,2.90813027 3.98629589,3.37122855 3.71125728,3.66177513 C3.26528229,4.12994846 2.69831018,4.19998414 2.19742685,4.19998414 C1.69082908,4.19998414 1.09627858,4.12461965 0.645086052,3.65086378 C0.468932142,3.46790824 0.14966871,3.02663268 0.14966871,2.22477485 C0.14966871,1.53050807 0.408309358,1.04584084 0.694528405,0.755548003 M1.66896512,3.01064628 C1.81207465,3.15579269 1.98822856,3.20958822 2.18078043,3.20958822 C2.36786632,3.20958822 2.55520066,3.16670405 2.69831018,3.01064628 C2.87446409,2.82210818 2.93508688,2.48842368 2.93508688,2.21386349 C2.93508688,1.93955707 2.89632805,1.62185896 2.69831018,1.41733447 C2.55520066,1.27218805 2.38997873,1.21813877 2.20289284,1.21813877 C2.01009251,1.21813877 1.82847261,1.26685925 1.6798971,1.41733447 C1.45976683,1.64342792 1.42672244,2.009339 1.42672244,2.21386349 C1.42672244,2.41864174 1.45430084,2.78455282 1.66896512,3.01064628" id="Fill-39" fill="#221F20"></path>
                    <path d="M6.4460902,3.72620289 L6.35267149,3.72620289 C5.74147456,3.72620289 5.24059123,3.6508384 4.87188545,3.29583869 C4.69573154,3.12354075 4.44255688,2.78452744 4.44255688,2.18719411 C4.44255688,1.64340255 4.67361913,1.29906044 4.88281742,1.08920714 C5.24059123,0.733953668 5.70843018,0.626108864 6.36906945,0.626108864 L6.4460902,0.626108864 L6.4460902,0.147277938 L7.64612318,0.147277938 L7.64612318,0.626108864 L7.72339239,0.626108864 C8.35620481,0.626108864 8.86826857,0.739536222 9.2151104,1.07854953 C9.49014902,1.34752716 9.64990496,1.76190496 9.64990496,2.17628275 C9.64990496,2.687594 9.45735309,3.06974523 9.22057639,3.29583869 C8.85162215,3.6508384 8.34527283,3.72620289 7.73979035,3.72620289 L7.64612318,3.72620289 L7.64612318,4.22685653 L6.4460902,4.22685653 L6.4460902,3.72620289 Z M6.53975737,1.50358493 L6.44062421,1.50358493 C6.30844667,1.50358493 6.04980602,1.50891374 5.86818612,1.6383275 C5.80209735,1.68654047 5.62047745,1.84259824 5.62047745,2.19252291 C5.62047745,2.52620742 5.79663136,2.67668264 5.8791181,2.73047816 C6.02769361,2.82741161 6.24260635,2.84898057 6.42969224,2.84898057 L6.53975737,2.84898057 L6.53975737,1.50358493 Z M7.66823559,2.84898057 C7.85532148,2.84898057 8.06998576,2.82741161 8.21856128,2.73047816 C8.30129647,2.67668264 8.47745038,2.52620742 8.47745038,2.19252291 C8.47745038,1.84259824 8.29558203,1.68654047 8.22974171,1.6383275 C8.04812181,1.50891374 7.78923271,1.50358493 7.65730361,1.50358493 L7.55817045,1.50358493 L7.55817045,2.84898057 L7.66823559,2.84898057 Z" id="Fill-41" fill="#221F20"></path>
                </g>
                <polygon id="Fill-44" fill="#221F20" points="12.456069 1.36792886 13.6230576 1.36792886 13.6230576 5.1353919 12.456069 5.1353919 12.456069 3.09572948 11.2945464 5.1353919 10.1275578 5.1353919 10.1275578 1.36792886 11.2945464 1.36792886 11.2945464 3.38602232"></polygon>
                <polygon id="Fill-45" fill="#221F20" points="16.7104717 4.10190881 16.7104717 1.36797961 17.9105047 1.36797961 17.9105047 4.10190881 18.4553644 4.10190881 18.42232 5.92106032 17.3765769 5.92106032 17.3765769 5.1351889 14.3489161 5.1351889 14.3489161 1.36797961 15.5489491 1.36797961 15.5489491 4.10190881"></polygon>
                <polygon id="Fill-46" fill="#221F20" points="21.0968779 1.36792886 22.2638665 1.36792886 22.2638665 5.1353919 21.0968779 5.1353919 21.0968779 3.09572948 19.9353553 5.1353919 18.7683667 5.1353919 18.7683667 1.36792886 19.9353553 1.36792886 19.9353553 3.38602232"></polygon>
                <path d="M23.694117,5.1352904 L22.4501077,5.1352904 L23.8757369,1.36782736 L25.0593719,1.36782736 L26.4850012,5.1352904 L25.2409918,5.1352904 L25.0648379,4.6024102 L23.8702709,4.6024102 L23.694117,5.1352904 Z M24.8280612,3.82745013 L24.4648214,2.69723659 L24.1070476,3.82745013 L24.8280612,3.82745013 Z" id="Fill-47" fill="#221F20"></path>
                <g id="Group-52" transform="translate(26.336128, 1.291346)" fill="#221F20">
                    <path d="M0.115009372,2.86978828 C0.186564134,2.88602843 0.263584884,2.89693979 0.362718043,2.89693979 C0.483715157,2.89693979 0.643471101,2.88602843 0.748070249,2.78909499 C0.913043727,2.64369482 0.91875817,2.32092167 0.924224158,1.99789476 L0.951802556,0.0764809969 L4.13350491,0.0764809969 L4.13350491,3.84394404 L2.92229149,3.84394404 L2.92229149,1.11001484 L2.07456633,1.11001484 L2.04723639,2.35314823 C2.04152195,2.68657899 2.04723639,3.23037055 1.71679252,3.57471266 C1.4196415,3.88149941 1.00124491,3.89773956 0.715025862,3.89773956 C0.511293555,3.89773956 0.335139645,3.88149941 0.115009372,3.83861524 L0.115009372,2.86978828 Z" id="Fill-48"></path>
                    <path d="M6.05375644,1.35201858 L6.8739032,1.35201858 C7.22074503,1.35201858 7.7052304,1.4058141 8.03542581,1.72884101 C8.18971576,1.87956998 8.36586967,2.14880136 8.36586967,2.60606332 C8.36586967,3.00445472 8.22797768,3.33281042 8.02995982,3.52109476 C7.69976441,3.83321031 7.16583669,3.84386791 6.87936919,3.84386791 L4.85918945,3.84386791 L4.85918945,0.0766586236 L6.05375644,0.0766586236 L6.05375644,1.35201858 Z M6.05375644,2.91817887 L6.68135133,2.91817887 C6.80234844,2.91817887 6.93999197,2.89128111 7.01701273,2.82124543 C7.09403348,2.75146349 7.10521391,2.64894749 7.10521391,2.57358301 C7.10521391,2.48223212 7.0831015,2.39621003 6.98968278,2.32617434 C6.9014816,2.26172121 6.77477004,2.24548105 6.68135133,2.24548105 L6.05375644,2.24548105 L6.05375644,2.91817887 Z" id="Fill-50"></path>
                </g>
                <polygon id="Fill-53" fill="#221F20" points="36.2425116 5.1352904 35.0424786 5.1352904 35.0424786 1.36782736 36.2425116 1.36782736 36.2425116 2.66501003 37.315833 2.66501003 37.315833 1.36782736 38.515866 1.36782736 38.515866 5.1352904 37.315833 5.1352904 37.315833 3.65515219 36.2425116 3.65515219"></polygon>
                <g id="Group-59" transform="translate(39.007283, 0.022584)">
                    <path d="M1.42885915,2.62078097 L2.19409757,2.62078097 C2.5409394,2.62078097 3.02517631,2.67457649 3.35537172,2.9976034 C3.50966167,3.14833237 3.68581558,3.41756375 3.68581558,3.87482572 C3.68581558,4.27321711 3.54817205,4.60157281 3.34990573,4.78985715 C3.01971032,5.1019727 2.4857826,5.1126303 2.19956356,5.1126303 L0.234292153,5.1126303 L0.234292153,1.34542101 L1.42885915,1.34542101 L1.42885915,2.62078097 Z M1.42885915,4.18694126 L2.05645403,4.18694126 C2.17745115,4.18694126 2.31509468,4.1600435 2.39211543,4.09000782 C2.46913618,4.02022589 2.48031661,3.91770988 2.48031661,3.8423454 C2.48031661,3.75099451 2.45820421,3.66497242 2.36478549,3.59493673 C2.27658431,3.5304836 2.14987275,3.51424344 2.05645403,3.51424344 L1.42885915,3.51424344 L1.42885915,4.18694126 Z M3.94445623,5.1126303 L5.14448921,5.1126303 L5.14448921,1.34516726 L3.94445623,1.34516726 L3.94445623,5.1126303 Z" id="Fill-54" fill="#221F20"></path>
                    <g id="Group-58" transform="translate(5.714443, 0.000000)">
                        <mask id="mask-4" fill="white">
                            <use xlink:href="#path-3"></use>
                        </mask>
                        <g id="Clip-57"></g>
                        <path d="M2.48416765,1.34534489 L3.65115625,1.34534489 L3.65115625,5.11280793 L2.48416765,5.11280793 L2.48416765,3.07314551 L1.32264505,5.11280793 L0.155656452,5.11280793 L0.155656452,1.34534489 L1.32264505,1.34534489 L1.32264505,3.36343835 L2.48416765,1.34534489 Z M3.07325216,0.231117757 C3.06207173,0.494766582 2.94654061,0.677975871 2.84194146,0.785566922 C2.59969878,1.02764679 2.22006101,1.0601271 1.89508314,1.0601271 C1.57035372,1.0601271 1.1904675,1.02764679 0.948224818,0.785566922 C0.84362567,0.677975871 0.728094544,0.494766582 0.717162567,0.231117757 L1.49333297,0.231117757 C1.49333297,0.3173936 1.52091136,0.419655848 1.57581971,0.473197621 C1.65830644,0.559473464 1.80141597,0.565056018 1.89508314,0.565056018 C1.98875031,0.565056018 2.13185983,0.559473464 2.21434657,0.473197621 C2.26950337,0.419655848 2.29708176,0.3173936 2.29708176,0.231117757 L3.07325216,0.231117757 Z" id="Fill-56" fill="#221F20" mask="url(#mask-4)"></path>
                    </g>
                </g>
                <polygon id="Fill-60" fill="#221F20" points="51.3718715 5.1352904 50.1718385 5.1352904 50.1718385 1.36782736 53.7058487 1.36782736 53.7058487 5.1352904 52.5058157 5.1352904 52.5058157 2.36355208 51.3718715 2.36355208"></polygon>
                <path d="M55.1361737,5.1352904 L53.8921644,5.1352904 L55.3177936,1.36782736 L56.5014286,1.36782736 L57.9270579,5.1352904 L56.6830485,5.1352904 L56.5068946,4.6024102 L55.3123276,4.6024102 L55.1361737,5.1352904 Z M56.2701179,3.82745013 L55.9068781,2.69723659 L55.5491043,3.82745013 L56.2701179,3.82745013 Z" id="Fill-61" fill="#221F20"></path>
                <path d="M60.0896018,1.36792886 C60.4419096,1.36792886 60.8988165,1.41614183 61.229012,1.72292858 C61.5594558,2.02971532 61.5979662,2.43343551 61.5979662,2.69708434 C61.5979662,2.94474676 61.5703878,3.39135112 61.2344779,3.70930297 C60.8712381,4.05364509 60.3870012,4.04831628 60.0896018,4.04831628 L59.3300778,4.04831628 L59.3300778,5.1353919 L58.1300448,5.1353919 L58.1300448,1.36792886 L60.0896018,1.36792886 Z M59.3300778,3.14394245 L59.9025159,3.14394245 C60.001649,3.14394245 60.166871,3.14394245 60.2821536,3.0363514 C60.3430249,2.98230212 60.3924672,2.88029363 60.3924672,2.73489346 C60.3924672,2.60573345 60.3430249,2.52504016 60.2933341,2.48215599 C60.1887349,2.39029759 60.012581,2.38522254 59.9025159,2.38522254 L59.3300778,2.38522254 L59.3300778,3.14394245 Z" id="Fill-62" fill="#221F20"></path>
                <polygon id="Fill-64" fill="#221F20" points="61.6963043 2.4012597 61.6963043 1.36797961 65.076273 1.36797961 65.076273 2.4012597 63.9863051 2.4012597 63.9863051 5.1351889 62.7862721 5.1351889 62.7862721 2.4012597"></polygon>
                <polygon id="Fill-65" fill="#221F20" points="66.5893083 5.1352904 65.3892754 5.1352904 65.3892754 1.36782736 66.5893083 1.36782736 66.5893083 2.66501003 67.6626298 2.66501003 67.6626298 1.36782736 68.8626627 1.36782736 68.8626627 5.1352904 67.6626298 5.1352904 67.6626298 3.65515219 66.5893083 3.65515219"></polygon>
                <polygon id="Fill-66" fill="#221F20" points="72.5004273 2.78879048 72.5004273 3.6766704 70.788579 3.6766704 70.788579 4.13951492 72.8308712 4.13951492 72.8308712 5.13523965 69.588546 5.13523965 69.588546 1.36803036 72.7866464 1.36803036 72.7866464 2.36350133 70.788579 2.36350133 70.788579 2.78879048"></polygon>
                <g id="Group-73" transform="translate(73.293940, 1.291346)" fill="#221F20">
                    <path d="M2.00206745,0.0765824979 C2.35437526,0.0765824979 2.81128223,0.124795469 3.14147764,0.431582215 C3.47192151,0.738368961 3.51043188,1.14208915 3.51043188,1.40573798 C3.51043188,1.6534004 3.48285348,2.10000476 3.14694363,2.41795661 C2.78370383,2.76229873 2.29946692,2.75696992 2.00206745,2.75696992 L1.24254347,2.75696992 L1.24254347,3.84404554 L0.0425104851,3.84404554 L0.0425104851,0.0765824979 L2.00206745,0.0765824979 Z M1.24254347,1.85259609 L1.81498156,1.85259609 C1.91411472,1.85259609 2.07933665,1.85259609 2.19461932,1.74500504 C2.25549056,1.69095576 2.30493291,1.58894727 2.30493291,1.4435471 C2.30493291,1.31438709 2.25549056,1.2336938 2.20579975,1.19080963 C2.1012006,1.09895123 1.9250467,1.09387618 1.81498156,1.09387618 L1.24254347,1.09387618 L1.24254347,1.85259609 Z" id="Fill-67"></path>
                    <path d="M7.15895451,0.0765824979 C7.41237763,0.0765824979 7.79748138,0.0819112999 8.07276845,0.302675956 C8.22680995,0.426507165 8.3810999,0.652600623 8.3810999,1.0185117 C8.3810999,1.2390226 8.32047712,1.42223189 8.14432321,1.59960487 C8.01786011,1.72901863 7.88568256,1.79347176 7.75350502,1.82569833 L7.75350502,1.84726729 C8.07276845,1.90639162 8.26556878,2.07868955 8.29836471,2.11116987 C8.44172269,2.24565868 8.57365178,2.46616958 8.57365178,2.81609425 C8.57365178,3.23580085 8.37538546,3.46722311 8.21041198,3.58572552 C7.90754652,3.81181897 7.42877559,3.84404554 7.14255655,3.84404554 L4.97926728,3.84404554 L4.97926728,0.0765824979 L7.15895451,0.0765824979 Z M6.17930026,1.52982294 L6.79571472,1.52982294 C6.89484788,1.52982294 7.01584499,1.52424039 7.09286574,1.45445845 C7.13162457,1.42223189 7.18106692,1.35752501 7.18106692,1.228365 C7.18106692,1.10453379 7.13162457,1.0344981 7.08193376,0.996942736 C6.99373258,0.932235854 6.83969108,0.926907052 6.77931675,0.926907052 L6.17930026,0.926907052 L6.17930026,1.52982294 Z M6.17930026,2.99346723 L6.90577985,2.99346723 C7.010379,2.99346723 7.13162457,2.98813843 7.2195773,2.9130277 C7.27448564,2.86430722 7.32417645,2.78361393 7.32417645,2.64912512 C7.32417645,2.49306735 7.25808767,2.41795661 7.21411131,2.3854763 C7.13162457,2.32102317 6.99919857,2.31011181 6.90031387,2.31011181 L6.17930026,2.31011181 L6.17930026,2.99346723 Z" id="Fill-69"></path>
                    <path d="M13.0482095,2.81056245 L12.9987672,4.62971396 L12.0297965,4.62971396 L12.0297965,3.84384254 L9.6021521,3.84384254 L9.6021521,4.62971396 L8.62249784,4.62971396 L8.58398747,2.79990484 L9.0572924,2.79990484 C9.18946995,2.57914019 9.3161815,2.2939224 9.37655583,2.02469102 C9.41506621,1.86863325 9.45929103,1.59432682 9.45929103,1.01856245 L9.45929103,0.0766332484 L12.5088158,0.0766332484 L12.5088158,2.81056245 L13.0482095,2.81056245 Z M10.5435444,1.03454885 L10.5435444,1.43268649 C10.5435444,1.62122458 10.5216805,1.96023789 10.4829216,2.14877598 C10.4389453,2.37994449 10.3343461,2.66541603 10.224281,2.88592693 L11.3418272,2.88592693 L11.3418272,1.03454885 L10.5435444,1.03454885 Z" id="Fill-71"></path>
                </g>
                <polygon id="Fill-74" fill="#221F20" points="87.882614 5.1352904 86.6825811 5.1352904 86.6825811 1.36782736 87.882614 1.36782736 87.882614 2.66501003 88.9559355 2.66501003 88.9559355 1.36782736 90.1559684 1.36782736 90.1559684 5.1352904 88.9559355 5.1352904 88.9559355 3.65515219 87.882614 3.65515219"></polygon>
                <polygon id="Fill-75" fill="#221F20" points="91.8451329 5.1352904 90.3588809 5.1352904 91.7902245 3.16540991 90.5514327 1.36782736 91.8727113 1.36782736 92.5003062 2.41734761 93.138833 1.36782736 94.4929075 1.36782736 93.2103878 3.16540991 94.5975067 5.1352904 93.138833 5.1352904 92.5003062 4.03730343"></polygon>
            </g>
        </g>
    </g>
</svg>