<?xml version="1.0" encoding="UTF-8" standalone="no"?>
<svg width="72px" height="42px" viewBox="0 0 72 42" version="1.1" xmlns="http://www.w3.org/2000/svg" xmlns:xlink="http://www.w3.org/1999/xlink">
    <!-- Generator: Sketch 3.8.3 (29802) - http://www.bohemiancoding.com/sketch -->
    <title>Page 1</title>
    <desc>Created with Sketch.</desc>
    <defs></defs>
    <g id="V1" stroke="none" stroke-width="1" fill="none" fill-rule="evenodd">
        <g id="Desktop-1240" transform="translate(-20.000000, -667.000000)" fill="#221F20">
            <g id="Page-1" transform="translate(20.000000, 667.000000)">
                <g id="Group-8" transform="translate(0.000000, 18.518912)">
                    <path d="M4.98865574,5.99635445 C4.9414027,6.55568241 4.69838705,7.12005441 4.40108664,7.49863762 C3.90858617,8.13810977 3.27404529,8.3827457 2.69350789,8.55788597 C2.1534731,8.72041614 1.47871088,8.87622092 0.952176964,8.54359452 C0.621405656,8.33398665 0.270383043,7.83434649 0.270383043,6.8457147 C0.270383043,5.95740325 0.560651742,5.25151791 0.972428269,4.73086092 C1.51246306,4.04347039 2.18750654,3.7464325 2.7472301,3.57773739 C3.52381138,3.34346977 4.05681447,3.40539937 4.40108664,3.65115619 C4.46212183,3.69318986 4.87389835,3.99975538 4.94787187,4.73758631 L3.52381138,5.16660991 C3.49680964,4.99959615 3.40905399,4.87153359 3.30104703,4.80988421 C3.13903659,4.72441576 2.91627224,4.77737818 2.79476441,4.81408758 C2.57200006,4.88134144 2.33545358,4.99315099 2.13997223,5.24703432 C1.86995484,5.59731486 1.83648393,6.04455305 1.83648393,6.33346444 C1.83648393,6.63610682 1.87698654,7.0144098 2.09975089,7.20972623 C2.30901437,7.39523481 2.55174876,7.34227239 2.7542618,7.28146369 C2.95649358,7.22009454 3.14578703,7.13630743 3.32129833,6.92894135 C3.49005921,6.73026223 3.53731225,6.5349458 3.55081312,6.42986164 L4.98865574,5.99635445 Z" id="Fill-2"></path>
                    <path d="M5.7986798,3.31124396 C6.3659976,2.55547867 7.05426069,2.27357289 7.60104591,2.10936138 C8.22883635,1.91992966 8.93763201,1.81428505 9.48441724,2.20772015 C10.0109512,2.59414964 10.1122077,3.27677635 10.1122077,3.80808187 C10.1122077,4.70255825 9.83543985,5.36416813 9.49763684,5.82878024 C8.95085162,6.57866082 8.25555682,6.87597894 7.64154852,7.06092706 C7.02050851,7.24755653 6.29146155,7.3733773 5.73792589,6.94827684 C5.52219324,6.78406532 5.13066802,6.35055813 5.13066802,5.34847557 C5.13066802,4.48090073 5.44765719,3.77977921 5.7986798,3.31124396 M6.99350677,5.76909244 C7.16901808,5.8982759 7.38503199,5.90051769 7.62129722,5.82934069 C7.850812,5.76040548 8.08004552,5.63738695 8.25555682,5.38938833 C8.47157074,5.08898774 8.54610679,4.64931561 8.54610679,4.30688136 C8.54610679,3.96360643 8.49885375,3.58110008 8.25555682,3.39839376 C8.08004552,3.26949052 7.87781374,3.26360581 7.64801769,3.33254101 C7.41203373,3.40371802 7.18926938,3.53122014 7.00728891,3.77417472 C6.73727152,4.13818625 6.69648764,4.6078424 6.69648764,4.86340708 C6.69648764,5.11897176 6.73052108,5.56620995 6.99350677,5.76909244" id="Fill-4"></path>
                    <path d="M15.5933639,3.24721268 L15.53261,5.53888807 L14.3448147,5.89617422 L14.3448147,4.91426781 L11.3678729,5.81070576 L11.3678729,6.79261217 L10.1665768,7.15438191 L10.1190425,4.882042 L10.6998612,4.70746218 C10.8618716,4.38296229 11.0168503,3.97943911 11.0911051,3.62103207 C11.1383582,3.41142419 11.1926429,3.0524567 11.1926429,2.33256014 L11.1926429,1.1553373 L14.93154,0.0293955427 L14.93154,3.44645225 L15.5933639,3.24721268 Z M12.521916,1.95229558 L12.521916,2.4502544 C12.521916,2.68564292 12.4949143,3.11746876 12.4479425,3.36714873 C12.3936578,3.67231314 12.2656808,4.06770981 12.1303908,4.38408319 L13.5010104,3.9713126 L13.5010104,1.65721926 L12.521916,1.95229558 Z" id="Fill-6"></path>
                </g>
                <polygon id="Fill-9" points="19.5761486 18.9255173 19.5761486 20.0349259 17.4767634 20.6671122 17.4767634 21.2454954 19.9808934 20.4919719 19.9808934 21.7358882 16.0054498 22.9330069 16.0054498 18.2249563 19.9268899 17.0438103 19.9268899 18.2885672 17.4767634 19.0261179 17.4767634 19.5577037"></polygon>
                <path d="M22.9983378,16.1189296 C23.4303656,15.9891857 23.9906517,15.8807388 24.3956778,16.1424684 C24.8007039,16.4036376 24.8476757,16.8940303 24.8476757,17.223294 C24.8476757,17.5332223 24.8142048,18.1012372 24.4024283,18.6224546 C23.9568996,19.1865464 23.3631426,19.3591647 22.9983378,19.4684522 L22.0670591,19.7492371 L22.0670591,21.1077651 L20.5954643,21.5510801 L20.5954643,16.842469 L22.9983378,16.1189296 Z M22.0670591,18.6190919 L22.7691043,18.4078027 C22.8906121,18.3710933 23.0931252,18.3102846 23.2348843,18.1329025 C23.3088578,18.0432307 23.3696117,17.8977943 23.3696117,17.7159286 C23.3696117,17.5545193 23.3088578,17.4718531 23.2483852,17.4362646 C23.1201269,17.3608842 22.904113,17.4188907 22.7691043,17.4598035 L22.0670591,17.6710927 L22.0670591,18.6190919 Z" id="Fill-10"></path>
                <polygon id="Fill-12" points="27.5483559 17.4527418 26.380812 19.8088688 24.6864528 20.3191575 26.4010633 17.2535022 24.767458 15.5864471 26.4213146 15.0882081 27.5483559 16.5114679 27.5483559 14.7488563 28.8714412 14.3506574 28.8714412 16.1129888 29.9987638 14.0113056 31.6526203 13.5130665 30.0257655 16.1623083 31.7333443 18.1970179 30.0389851 18.7070264 28.8714412 17.0542627 28.8714412 19.0584278 27.5483559 19.4569069"></polygon>
                <path d="M33.2591394,17.7373377 L31.7335412,18.197186 L33.4819038,12.9620332 L34.9332473,12.5251633 L36.6816099,16.7066723 L35.1560116,17.1665206 L34.9399977,16.5654392 L33.4754346,17.0067927 L33.2591394,17.7373377 Z M34.649729,15.6844136 L34.203919,14.4057495 L33.765422,15.950907 L34.649729,15.6844136 Z" id="Fill-13"></path>
                <polygon id="Fill-14" points="36.2091638 13.4321377 36.2091638 12.1411438 40.3533683 10.8924637 40.3533683 12.1842983 39.0170635 12.5864204 39.0170635 16.0034771 37.54575 16.4467922 37.54575 13.0300157"></polygon>
                <polygon id="Fill-15" points="44.3027384 11.4793658 44.3027384 12.5893347 42.2033531 13.221521 42.2033531 13.7999043 44.7074832 13.0458203 44.7074832 14.2897366 40.7320396 15.4874158 40.7320396 10.7788047 44.6534797 9.59821916 44.6534797 10.8421354 42.2033531 11.5799663 42.2033531 12.1115521"></polygon>
                <g id="Group-20" transform="translate(44.721631, 7.309934)">
                    <path d="M0.100806494,5.72817967 C0.188562147,5.72145428 0.283068235,5.70688261 0.404576063,5.67017321 C0.55308563,5.6253373 0.748848241,5.5530394 0.877106503,5.39387192 C1.07933828,5.15063712 1.08636998,4.74515237 1.09312042,4.33966762 L1.12659133,1.92805617 L5.02834268,0.753635583 L5.02834268,5.46168624 L3.54324701,5.90892443 L3.54324701,2.49186772 L2.50368004,2.80487841 L2.47020913,4.36853073 C2.46317743,4.78802671 2.47020913,5.46504893 2.06518304,6.01765151 C1.70037829,6.5108465 1.18734524,6.68542632 0.836603894,6.79107093 C0.586837804,6.86645131 0.370823889,6.91100699 0.100806494,6.93874921 L0.100806494,5.72817967 Z" id="Fill-16"></path>
                    <path d="M7.3778034,1.63970523 L8.38333693,1.33706285 C8.80861433,1.20900028 9.40237133,1.09747096 9.80767869,1.37909651 C9.99669086,1.51052177 10.2124235,1.78205924 10.2124235,2.35343686 C10.2124235,2.85139567 10.0439439,3.31236486 9.80064698,3.62089195 C9.39590216,4.13286199 8.74139125,4.34359076 8.39036863,4.44923537 L5.91295904,5.1951928 L5.91295904,0.48714215 L7.3778034,0.0460688963 L7.3778034,1.63970523 Z M7.3778034,3.5973531 L8.14679044,3.36588772 C8.29558128,3.32105181 8.46434215,3.23614381 8.55856697,3.1201309 C8.65335433,3.00467843 8.66685519,2.87297295 8.66685519,2.77881754 C8.66685519,2.66420575 8.63985346,2.56472608 8.52509606,2.51148343 C8.41680784,2.46356506 8.26211037,2.49018638 8.14679044,2.52465398 L7.3778034,2.75611936 L7.3778034,3.5973531 Z" id="Fill-18"></path>
                </g>
                <polygon id="Fill-21" points="56.8180727 10.643064 55.3464779 11.086379 55.3464779 6.37776792 56.8180727 5.93501332 56.8180727 7.55611165 58.1344075 7.15931386 58.1344075 5.53821553 59.6054398 5.09546093 59.6054398 9.80351158 58.1344075 10.2468266 58.1344075 8.39678494 56.8180727 8.79358274"></polygon>
                <g id="Group-26" transform="translate(60.472646, 0.024099)">
                    <path d="M1.48214235,5.95804777 L2.4204528,5.67558154 C2.84601147,5.54695853 3.43976847,5.43598966 3.84451329,5.71733498 C4.03352547,5.84848002 4.24953938,6.12001749 4.24953938,6.69195555 C4.24953938,7.18963414 4.08105978,7.6503231 3.83776285,7.95913043 C3.43301803,8.47138069 2.77822585,8.68210946 2.42720324,8.78775407 L0.0175792575,9.51353534 L0.0175792575,4.80492424 L1.48214235,4.36357076 L1.48214235,5.95804777 Z M1.48214235,7.91513519 L2.25141066,7.68366981 C2.4002015,7.6388339 2.56896237,7.55448635 2.66318719,7.43847344 C2.75797454,7.32246052 2.77147541,7.19047481 2.77147541,7.09631941 C2.77147541,6.98198784 2.74447367,6.88250817 2.62971628,6.82982597 C2.52142806,6.78162737 2.36644932,6.80796847 2.25141066,6.84243607 L1.48214235,7.0744619 L1.48214235,7.91513519 Z M6.03812335,2.99159195 L6.03812335,7.70020305 L4.56709109,8.14295765 L4.56709109,3.434907 L6.03812335,2.99159195 Z" id="Fill-22"></path>
                    <path d="M9.77845493,1.8657903 L11.2095471,1.4345249 L11.2095471,6.14313601 L9.77845493,6.57384096 L9.77845493,4.02491954 L8.35439444,7.00286456 L6.92330225,7.43356951 L6.92330225,2.72495841 L8.35439444,2.29425346 L8.35439444,4.81683378 L9.77845493,1.8657903 Z M10.5004702,0.256181174 C10.4872506,0.589368022 10.3457727,0.860905495 10.2172332,1.03380397 C9.92021406,1.4263984 9.45443406,1.60686293 9.0561584,1.72679898 C8.65816401,1.84673504 8.19210274,1.94621471 7.89536487,1.73324415 C7.76710661,1.63768762 7.62534748,1.45133837 7.61184661,1.12571758 L8.56337665,0.839608438 C8.56337665,0.946934395 8.5974101,1.06462866 8.66463318,1.11170636 C8.7658897,1.18876808 8.94140101,1.14225082 9.0561584,1.10778322 C9.17119706,1.07331561 9.3464271,1.01362781 9.44768362,0.87575739 C9.51518797,0.788047143 9.54894014,0.650176723 9.54894014,0.542290318 L10.5004702,0.256181174 Z" id="Fill-24"></path>
                </g>
                <polygon id="Fill-27" points="2.04577554 34.2826288 0.574180739 34.7259438 0.574180739 30.0173327 4.90739739 28.7126078 4.90739739 33.4212189 3.43580258 33.8639735 3.43580258 30.4001193 2.04577554 30.8187746"></polygon>
                <path d="M6.65621004,32.8940887 L5.13061176,33.353937 L6.87869313,28.1187842 L8.33003662,27.6819143 L10.0783993,31.8639837 L8.55280097,32.3232715 L8.33678706,31.7221901 L6.87250523,32.1635436 L6.65621004,32.8940887 Z M8.04651836,30.8411645 L7.60098966,29.5630609 L7.16221139,31.107658 L8.04651836,30.8411645 Z" id="Fill-28"></path>
                <path d="M12.724626,26.3585825 C13.1563725,26.2282781 13.7166586,26.1206719 14.1216847,26.3815609 C14.5267108,26.6432905 14.5739639,27.1336832 14.5739639,27.4632272 C14.5739639,27.7728752 14.5402117,28.3408901 14.1284352,28.8621075 C13.6831877,29.4261993 13.0891495,29.5982571 12.724626,29.7081051 L11.793066,29.9888899 L11.793066,31.347418 L10.3214712,31.790733 L10.3214712,27.0821219 L12.724626,26.3585825 Z M11.793066,28.8587448 L12.4951112,28.6474556 C12.616619,28.6107462 12.8191321,28.5499375 12.9608912,28.3728357 C13.035146,28.2828836 13.0956186,28.1368867 13.0956186,27.955021 C13.0956186,27.7936118 13.035146,27.711506 12.9743921,27.6759175 C12.8461338,27.5999767 12.6301199,27.6585436 12.4951112,27.6988959 L11.793066,27.9107456 L11.793066,28.8587448 Z" id="Fill-29"></path>
                <polygon id="Fill-31" points="14.689115 27.0586391 14.689115 25.7670847 18.8333195 24.5189651 18.8333195 25.8102393 17.4967334 26.2129218 17.4967334 29.6299785 16.0257011 30.0727331 16.0257011 26.6559566"></polygon>
                <polygon id="Fill-32" points="20.6833605 28.67049 19.2117657 29.1132446 19.2117657 24.405194 20.6833605 23.9618789 20.6833605 25.5829773 21.9996953 25.1867399 21.9996953 23.5656416 23.4707276 23.1223266 23.4707276 27.8309377 21.9996953 28.2736923 21.9996953 26.424211 20.6833605 26.8204484"></polygon>
                <polygon id="Fill-33" points="27.9265772 23.5563382 27.9265772 24.6663071 25.8271919 25.2984934 25.8271919 25.8768767 28.331322 25.1227927 28.331322 26.3672694 24.3558784 27.5643882 24.3558784 22.8563375 28.2773185 21.6751915 28.2773185 22.919388 25.8271919 23.6569387 25.8271919 24.1885245"></polygon>
                <g id="Group-42" transform="translate(0.562536, 20.480483)">
                    <path d="M30.7862301,0.269828104 C31.218258,0.139523744 31.7785441,0.0316373382 32.1835701,0.292806507 C32.5885962,0.554536125 32.635568,1.04492888 32.635568,1.37419258 C32.635568,1.68356035 32.6020971,2.25213572 32.1903206,2.77279272 C31.7447919,3.33744494 31.1510349,3.50950274 30.7862301,3.61935072 L29.8546701,3.89957515 L29.8546701,5.25866364 L28.3833566,5.70197869 L28.3833566,0.993367583 L30.7862301,0.269828104 Z M29.8546701,2.76999047 L30.5567153,2.55870125 C30.6785044,2.52199185 30.8810175,2.4606227 31.0227766,2.28380108 C31.0967501,2.19412927 31.157504,2.04813234 31.157504,1.86626668 C31.157504,1.70485741 31.0967501,1.62275165 31.0359962,1.5866027 C30.907738,1.51122233 30.691724,1.56978924 30.5567153,1.61014155 L29.8546701,1.82143077 L29.8546701,2.76999047 Z" id="Fill-34"></path>
                    <path d="M2.6843948,15.8781047 C2.99491481,15.7845097 3.46744525,15.6488811 3.80496699,15.8234609 C3.99397917,15.9206988 4.18271008,16.1462795 4.18271008,16.603886 C4.18271008,16.8796268 4.10873656,17.1309881 3.89272264,17.4176577 C3.73746264,17.6255842 3.57545221,17.7553282 3.41372304,17.8447197 L3.41372304,17.8713411 C3.80496699,17.8276261 4.04123221,17.9716614 4.08173482,17.9994036 C4.25724613,18.1148561 4.41925656,18.3421181 4.41925656,18.7795484 C4.41925656,19.3038484 4.17652218,19.6661785 3.97372786,19.875226 C3.60273521,20.269782 3.01516611,20.4863954 2.66442477,20.5920401 L0.0115038661,21.3912401 L0.0115038661,16.682629 L2.6843948,15.8781047 Z M1.48309867,18.0557287 L2.23914737,17.8281865 C2.3606552,17.7914771 2.50916477,17.740196 2.60338959,17.6239029 C2.6509239,17.5698196 2.71167781,17.4709004 2.71167781,17.3092109 C2.71167781,17.154527 2.6509239,17.0855918 2.59016998,17.0564484 C2.48188176,17.0082498 2.29286958,17.0586902 2.21889607,17.0811082 L1.48309867,17.3027657 L1.48309867,18.0557287 Z M1.48309867,19.8855943 L2.3738748,19.6174195 C2.50241433,19.5784683 2.6509239,19.526907 2.75893086,19.3999653 C2.82615394,19.3195409 2.88690785,19.2001653 2.88690785,19.0323109 C2.88690785,18.8369945 2.80590263,18.7674988 2.75189915,18.7433995 C2.6509239,18.6929591 2.48891346,18.7279871 2.36740563,18.7646965 L1.48309867,19.03119 L1.48309867,19.8855943 Z" id="Fill-36"></path>
                    <path d="M6.46477896,16.3334694 L7.40308941,16.0510032 C7.8283668,15.9229406 8.42240507,15.8114113 8.8271499,16.0933171 C9.01616207,16.2244621 9.23217599,16.4959996 9.23217599,17.0673772 C9.23217599,17.565336 9.06369638,18.0263052 8.82039946,18.3351125 C8.41565464,18.8468023 7.76058119,19.0575311 7.40983984,19.1631757 L5.00021586,19.888957 L5.00021586,15.1809063 L6.46477896,14.7398331 L6.46477896,16.3334694 Z M6.46477896,18.2911173 L7.23432854,18.0590914 C7.3828381,18.014816 7.55159898,17.929908 7.6458238,17.8138951 C7.74061115,17.6984426 7.75411202,17.5664569 7.75411202,17.4723015 C7.75411202,17.3579699 7.72711028,17.2584902 7.61235289,17.2052476 C7.50406466,17.157049 7.34908593,17.1839505 7.23432854,17.2184181 L6.46477896,17.4498835 L6.46477896,18.2911173 Z M11.02076,13.367574 L11.02076,18.0756247 L9.54972769,18.5189397 L9.54972769,13.8108891 L11.02076,13.367574 Z" id="Fill-38"></path>
                    <path d="M16.3204139,14.7446249 C16.2731608,15.3039529 16.0301452,15.8677644 15.733126,16.2463476 C15.2403443,16.8858198 14.6058034,17.1310161 14.025266,17.305596 C13.4852312,17.4686866 12.810469,17.6244914 12.2839351,17.291865 C11.953445,17.0822571 11.6024224,16.5823367 11.6024224,15.5939851 C11.6024224,14.7056737 11.8924099,13.9997884 12.3041864,13.4785709 C12.8445024,12.7917408 13.5192647,12.4941425 14.0792695,12.3254474 C14.8555695,12.0917402 15.3888539,12.1531094 15.733126,12.3994266 C15.7938799,12.4414603 16.2056565,12.7480258 16.27963,13.4858568 L14.8555695,13.9148804 C14.8285678,13.7478666 14.7408121,13.6192436 14.6330864,13.5581547 C14.4707947,13.4721258 14.2480304,13.5256486 14.1265225,13.562358 C13.9037582,13.6293317 13.667493,13.740861 13.4717304,13.9947443 C13.201713,14.3450249 13.168242,14.792263 13.168242,15.0817349 C13.168242,15.3843773 13.2087447,15.7626802 13.431509,15.9574362 C13.6407725,16.1435053 13.8835069,16.0905428 14.0863012,16.0291737 C14.288533,15.968365 14.4775451,15.8845779 14.6530565,15.6772118 C14.8218173,15.4785327 14.8690704,15.2826558 14.8825712,15.1775716 L16.3204139,14.7446249 Z" id="Fill-40"></path>
                </g>
                <polygon id="Fill-43" points="16.9642647 33.5191293 16.9642647 32.2275749 21.1084692 30.9794553 21.1084692 32.2712899 19.7718831 32.673412 19.7718831 36.0904687 18.3005696 36.5337837 18.3005696 33.116727"></polygon>
                <path d="M22.1347603,35.3788948 L20.609162,35.8381826 L22.3575246,30.6035903 L23.8085869,30.1661599 L25.5569495,34.3482293 L24.0313512,34.8075172 L23.8153373,34.2069962 L22.3510555,34.6483497 L22.1347603,35.3788948 Z M23.5253499,33.3259706 L23.0795399,32.0473065 L22.6407616,33.592464 L23.5253499,33.3259706 Z" id="Fill-44"></path>
                <path d="M28.4731655,28.7618712 C28.7836855,28.6682763 29.2559347,28.5332081 29.5934564,28.7072275 C29.7827499,28.8050258 29.9714808,29.0306065 29.9714808,29.4876525 C29.9714808,29.7633933 29.897226,30.0147547 29.6812121,30.3014243 C29.5259521,30.5099112 29.3642229,30.6390947 29.2022125,30.7284863 L29.2022125,30.7551076 C29.5934564,30.7113926 29.8297216,30.855428 29.8702242,30.8837306 C30.0460168,30.9986226 30.2080273,31.2258847 30.2080273,31.663315 C30.2080273,32.1881753 29.9650116,32.5505055 29.7624986,32.7589925 C29.3912246,33.1535485 28.8039368,33.3707224 28.4529142,33.4763671 L25.8002746,34.2750067 L25.8002746,29.566956 L28.4731655,28.7618712 Z M27.2718694,30.9394953 L28.0276368,30.711953 C28.1491446,30.6752436 28.2976542,30.6242428 28.3921603,30.5082299 C28.4394133,30.4535861 28.5001672,30.3546669 28.5001672,30.1929774 C28.5001672,30.038854 28.4394133,29.9693583 28.3786594,29.9407754 C28.2706524,29.8925768 28.081359,29.9430172 28.0073855,29.9648747 L27.2718694,30.1865322 L27.2718694,30.9394953 Z M27.2718694,32.7693608 L28.1626455,32.501186 C28.2909038,32.4622348 28.4394133,32.4106735 28.5477015,32.2842923 C28.6149246,32.2033075 28.6756785,32.0839319 28.6756785,31.9160774 C28.6756785,31.7210412 28.5946733,31.6509851 28.5406698,31.627166 C28.4394133,31.5767256 28.2776842,31.6123141 28.1558951,31.6490235 L27.2718694,31.9149565 L27.2718694,32.7693608 Z" id="Fill-45"></path>
                <polygon id="Fill-47" points="33.5563273 27.2310332 35.2369043 26.7252281 33.5627965 29.4218278 35.3786635 31.3906846 33.6305821 31.9172263 32.293996 30.046448 32.2605251 30.0562559 32.2605251 32.3297167 30.788649 32.7730318 30.788649 28.0647009 32.2605251 27.6213858 32.2605251 29.5653027 32.293996 29.5549344"></polygon>
                <polygon id="Fill-48" points="38.4433609 25.7593225 39.8744531 25.3286176 39.8744531 30.0372287 38.4433609 30.4679336 38.4433609 27.9184517 37.0195817 30.8963968 35.5882082 31.3276622 35.5882082 26.6190511 37.0195817 26.1883461 37.0195817 28.710366"></polygon>
            </g>
        </g>
    </g>
</svg>