<?xml version="1.0" encoding="UTF-8" standalone="no"?>
<svg width="72px" height="30px" viewBox="0 0 72 30" version="1.1" xmlns="http://www.w3.org/2000/svg" xmlns:xlink="http://www.w3.org/1999/xlink">
    <!-- Generator: Sketch 3.8.3 (29802) - http://www.bohemiancoding.com/sketch -->
    <title>Page 1</title>
    <desc>Created with Sketch.</desc>
    <defs>
        <polygon id="path-1" points="0 29.4221242 71.9689927 29.4221242 71.9689927 0.0252929251 0 0.0252929251"></polygon>
        <polygon id="path-3" points="0 29.6549224 71.9689927 29.6549224 71.9689927 0.258091073 0 0.258091073"></polygon>
    </defs>
    <g id="V2" stroke="none" stroke-width="1" fill="none" fill-rule="evenodd">
        <g id="Desktop-1240-Copy-3" transform="translate(-51.000000, -57.000000)">
            <g id="Group-2" transform="translate(27.000000, 26.000000)">
                <g id="ticket">
                    <g id="Page-1" transform="translate(24.000000, 31.000000)">
                        <path d="M70.5383212,10.6958102 C70.6218832,10.6958102 70.7036058,10.703553 70.7863796,10.7084567 L70.7863796,1.4195009 L1.18261314,1.4195009 L1.18261314,10.6958102 C3.57832117,10.6958102 5.52021898,12.6036194 5.52021898,14.9566358 C5.52021898,17.309394 3.57832117,19.2172032 1.18261314,19.2172032 L1.18261314,28.4937706 L70.7863796,28.4937706 L70.7863796,19.2048148 C70.7036058,19.2092024 70.6218832,19.2172032 70.5383212,19.2172032 C68.1426131,19.2172032 66.2004526,17.309394 66.2004526,14.9566358 C66.2004526,12.6036194 68.1426131,10.6958102 70.5383212,10.6958102 L70.5383212,10.6958102 Z" id="Fill-1" fill="#FEFEFE"></path>
                        <g id="Group-5" transform="translate(0.000000, 0.232798)">
                            <mask id="mask-2" fill="white">
                                <use xlink:href="#path-1"></use>
                            </mask>
                            <g id="Clip-4"></g>
                            <path d="M2.3649635,27.0995626 L69.6040292,27.0995626 L69.6040292,20.0681295 C67.0033577,19.6309232 65.0181022,17.4007582 65.0181022,14.7238376 C65.0181022,12.0466589 67.0033577,9.81675205 69.6040292,9.37928768 L69.6040292,2.34811258 L2.3649635,2.34811258 L2.3649635,9.42677643 C4.84265693,9.95999259 6.70283212,12.1326032 6.70283212,14.7238376 C6.70283212,17.3148139 4.84265693,19.4874245 2.3649635,20.0203826 L2.3649635,27.0995626 Z M71.9689927,29.4223823 L0,29.4223823 L0,17.8229952 L1.18248175,17.8229952 C2.92230657,17.8229952 4.33786861,16.4326586 4.33786861,14.7238376 C4.33786861,13.0147585 2.92230657,11.6244219 1.18248175,11.6244219 L0,11.6244219 L0,0.0252929251 L71.9689927,0.0252929251 L71.9689927,11.7072692 L70.6346277,11.6298418 C70.6025693,11.627519 70.5707737,11.6244219 70.5381898,11.6244219 C68.798365,11.6244219 67.3830657,13.0147585 67.3830657,14.7238376 C67.3830657,16.4326586 68.798365,17.8229952 70.5381898,17.8229952 C70.5702482,17.8229952 70.6012555,17.8198981 70.6325255,17.8178334 L71.9689927,17.7440193 L71.9689927,29.4223823 Z" id="Fill-3" fill="#221F20" mask="url(#mask-2)"></path>
                        </g>
                        <path d="M23.7468876,8.13430796 C21.9190336,8.16656934 21.7760847,9.62400963 21.7760847,10.069991 L21.7760847,19.8428676 C21.8091942,21.6384072 23.2928146,21.7785506 23.7468876,21.7785506 L55.8828,21.7785506 C57.7174861,21.7444826 57.860435,20.2885909 57.860435,19.8428676 L57.860435,10.069991 C57.8273255,8.27445141 56.3437051,8.13430796 55.8896321,8.13430796 L23.7468876,8.13430796 Z M55.8896321,24.1013703 L23.7468876,24.1013703 C20.5657489,24.1013703 19.4111212,21.5547857 19.4111212,19.8428676 L19.4111212,10.069991 C19.4111212,6.94554048 22.0039095,5.8114883 23.7468876,5.8114883 L55.8896321,5.8114883 C59.0707708,5.8114883 60.2253985,8.35833101 60.2253985,10.069991 L60.2253985,19.8428676 C60.2253985,22.9673181 57.6326102,24.1013703 55.8896321,24.1013703 L55.8896321,24.1013703 Z" id="Fill-6" fill="#221F20"></path>
                        <mask id="mask-4" fill="white">
                            <use xlink:href="#path-3"></use>
                        </mask>
                        <g id="Clip-9"></g>
                        <path d="M11.3633869,8.07954103 L13.7283504,8.07954103 L13.7283504,2.02911201 L11.3633869,2.02911201 L11.3633869,8.07954103 Z M11.3633869,17.8575794 L13.7283504,17.8575794 L13.7283504,11.8071504 L11.3633869,11.8071504 L11.3633869,17.8575794 Z M11.3633869,27.6351016 L13.7283504,27.6351016 L13.7283504,21.5851888 L11.3633869,21.5851888 L11.3633869,27.6351016 Z" id="Fill-8" fill="#221F20" mask="url(#mask-4)"></path>
                    </g>
                </g>
            </g>
        </g>
    </g>
</svg>