<?xml version="1.0" encoding="UTF-8" standalone="no"?>
<svg width="24px" height="29px" viewBox="0 0 24 29" version="1.1" xmlns="http://www.w3.org/2000/svg" xmlns:xlink="http://www.w3.org/1999/xlink">
    <!-- Generator: Sketch 3.8.3 (29802) - http://www.bohemiancoding.com/sketch -->
    <title>tw</title>
    <desc>Created with Sketch.</desc>
    <defs></defs>
    <g id="V2" stroke="none" stroke-width="1" fill="none" fill-rule="evenodd">
        <g id="Desktop-1240-Copy-3" transform="translate(-1296.000000, -830.000000)" fill="#FCF6D2">
            <g id="share" transform="translate(1296.000000, 830.000000)">
                <g id="Page-1">
                    <path d="M17.7942102,11.2099757 C17.7994965,11.3385779 17.8021397,11.4683182 17.8021397,11.5980584 C17.8021397,15.5665171 14.7957206,20.1427064 9.29792322,20.1427064 C7.60969163,20.1427064 6.03813719,19.6453688 4.7157961,18.7933319 C4.94915041,18.8210249 5.18741347,18.8354405 5.4283197,18.8354405 C6.82920076,18.8354405 8.1183134,18.355174 9.1408433,17.549798 C7.83285085,17.5255191 6.72913782,16.6571699 6.34852108,15.4644699 C6.53127753,15.4997502 6.71818754,15.5179593 6.91076149,15.5179593 C7.18376337,15.5179593 7.44770296,15.481541 7.69842668,15.4128773 C6.33115167,15.1370844 5.30106986,13.9231405 5.30106986,12.4679252 L5.30106986,12.4303688 C5.70396476,12.6557071 6.16500944,12.790379 6.65512901,12.8059327 C5.85273757,12.2676244 5.325236,11.3484412 5.325236,10.3063462 C5.325236,9.75627785 5.47249843,9.24035167 5.72964128,8.79688278 C7.20415356,10.6136258 9.40667086,11.8089812 11.8912524,11.9341692 C11.8395217,11.7145212 11.8134676,11.4857686 11.8134676,11.2498083 C11.8134676,9.59163671 13.1516677,8.24681442 14.8028949,8.24681442 C15.6623033,8.24681442 16.4386407,8.61175632 16.9842668,9.19520813 C17.6650724,9.06091558 18.3054751,8.810919 18.8828194,8.46684176 C18.6592826,9.1678944 18.1857772,9.75665721 17.5684078,10.1280482 C18.1725614,10.0555909 18.7491504,9.89398462 19.2853367,9.65498941 C18.8843298,10.2574091 18.377596,10.7866128 17.7942102,11.2099757 L17.7942102,11.2099757 Z M12.0003776,0.23137013 L0,7.21344463 L0,21.1764556 L12.0003776,28.1585301 L24.0007552,21.1764556 L24.0007552,7.21344463 L12.0003776,0.23137013 Z" id="tw"></path>
                </g>
            </g>
        </g>
    </g>
</svg>