<?xml version="1.0" encoding="UTF-8" standalone="no"?>
<svg width="25px" height="29px" viewBox="0 0 25 29" version="1.1" xmlns="http://www.w3.org/2000/svg" xmlns:xlink="http://www.w3.org/1999/xlink">
    <!-- Generator: Sketch 3.8.3 (29802) - http://www.bohemiancoding.com/sketch -->
    <title>vk</title>
    <desc>Created with Sketch.</desc>
    <defs></defs>
    <g id="V2" stroke="none" stroke-width="1" fill="none" fill-rule="evenodd">
        <g id="Desktop-1240-Copy-3" transform="translate(-1375.000000, -831.000000)" fill="#FCF6D2">
            <g id="share" transform="translate(1296.000000, 830.000000)">
                <g id="Page-1">
                    <g id="vk" transform="translate(79.000000, 1.000000)">
                        <path d="M12.3860289,0.135682502 L0.385651353,7.11775701 L0.385651353,21.0807679 L12.3860289,28.0620837 L24.3864065,21.0807679 L24.3864065,7.11775701 L12.3860289,0.135682502 Z M18.0949025,18.6373264 C17.8347388,19.1615984 17.485085,19.5929279 17.0425425,19.9381432 C16.5210824,20.3501254 15.9490245,20.6407133 15.3222152,20.8167351 C14.6988043,20.9919983 13.9069855,21.0788712 12.9437382,21.0788712 L7.39118943,21.0788712 L7.39118943,7.1427946 L12.29163,7.1427946 C13.3096287,7.1427946 14.0821901,7.18110971 14.6066709,7.26115414 C15.1315293,7.33778435 15.624292,7.50052871 16.0823159,7.75014593 C16.5780994,8.01797232 16.9504091,8.3795 17.1947137,8.82638312 C17.440151,9.27668045 17.5640025,9.79450342 17.5640025,10.3825075 C17.5640025,11.0626955 17.3959723,11.667012 17.0553807,12.1969744 C16.7189427,12.7276955 16.2507237,13.1172956 15.6560101,13.3695684 L15.6560101,13.4427843 C16.5116425,13.6248759 17.1984896,13.9928527 17.7131529,14.5516463 C18.2285714,15.1108192 18.4864695,15.8646025 18.4864695,16.8103407 C18.4864695,17.5034269 18.3561989,18.1138131 18.0949025,18.6373264 L18.0949025,18.6373264 Z" id="Fill-6"></path>
                        <path d="M12.549377,12.62819 C12.78764,12.6156712 13.0357206,12.5511805 13.2902203,12.4335796 C13.5666205,12.3023219 13.7607048,12.1202303 13.8652989,11.8903397 C13.9710258,11.6570349 14.0246444,11.3884498 14.0246444,11.0849638 C14.0246444,10.8584874 13.9676274,10.6282174 13.8532159,10.3918776 C13.7384267,10.1555379 13.5609566,9.98293028 13.3151416,9.8774689 C13.086696,9.77504238 12.8167149,9.72117362 12.5017999,9.71131032 C12.1868848,9.70182638 11.719421,9.69841217 11.0994084,9.69841217 L10.8573694,9.69841217 L10.8573694,12.6471579 L11.2968911,12.6471579 C11.8908496,12.6471579 12.3107363,12.6410882 12.549377,12.62819" id="Fill-8"></path>
                        <path d="M13.8565765,15.1843766 C13.6462555,15.1005386 13.3543738,15.0561538 12.985085,15.0466699 C12.6161737,15.0368066 12.1200126,15.0341511 11.5003776,15.0341511 L10.8573317,15.0341511 L10.8573317,18.5227225 L11.0453744,18.5227225 C11.9512272,18.5227225 12.5780365,18.5158941 12.9246696,18.5037546 C13.2709251,18.4908565 13.6273757,18.4077772 13.9864695,18.2514819 C14.3047829,18.1137751 14.533606,17.9123363 14.6797357,17.6467861 C14.8262429,17.3823739 14.8994965,17.0819228 14.8994965,16.7461914 C14.8994965,16.3144826 14.8137823,15.9798893 14.6385777,15.7367211 C14.4637508,15.4908975 14.2032096,15.3088059 13.8565765,15.1843766" id="Fill-10"></path>
                    </g>
                </g>
            </g>
        </g>
    </g>
</svg>