<?xml version="1.0" encoding="utf-8"?>
<!-- Generator: Adobe Illustrator 18.0.0, SVG Export Plug-In . SVG Version: 6.00 Build 0)  -->
<!DOCTYPE svg PUBLIC "-//W3C//DTD SVG 1.1//EN" "http://www.w3.org/Graphics/SVG/1.1/DTD/svg11.dtd">
<svg version="1.1" id="Слой_1" xmlns="http://www.w3.org/2000/svg" xmlns:xlink="http://www.w3.org/1999/xlink" x="0px" y="0px"
	 viewBox="0 0 25.906 30" enable-background="new 0 0 25.906 30" xml:space="preserve">
<g>
	<defs>
		<rect id="SVGID_1_" width="25.906" height="30"/>
	</defs>
	<clipPath id="SVGID_2_">
		<use xlink:href="#SVGID_1_"  overflow="visible"/>
	</clipPath>
	<polygon clip-path="url(#SVGID_2_)" fill="none" stroke="#C8C8C8" stroke-miterlimit="10" points="12.953,0.578 0.5,7.789 
		0.5,22.211 12.953,29.422 25.406,22.211 25.406,7.789 	"/>
	<path clip-path="url(#SVGID_2_)" fill="#C8C8C8" d="M19.238,15.654h-2.675v0.903h2.675v2.663h0.903v-2.663h2.663v-0.903h-2.663
		v-2.662h-0.903V15.654z M15.413,12.853c-0.04-0.715-0.299-1.278-0.777-1.69c-0.478-0.411-1.062-0.617-1.753-0.617
		c-1.068,0-1.869,0.432-2.403,1.295c-0.534,0.863-0.801,1.978-0.801,3.343c0,1.418,0.261,2.484,0.783,3.199
		c0.522,0.714,1.285,1.072,2.289,1.072c0.871,0,1.564-0.286,2.078-0.859c0.514-0.572,0.771-1.29,0.771-2.153
		c0-0.871-0.271-1.548-0.814-2.03c-0.542-0.482-1.176-0.723-1.903-0.723c-0.912,0-1.598,0.356-2.06,1.066l-0.024-0.024
		c0.008-0.839,0.187-1.584,0.536-2.234c0.349-0.651,0.857-0.976,1.524-0.976c0.422,0,0.756,0.111,1.003,0.334
		c0.247,0.223,0.41,0.555,0.491,0.997H15.413z M11.431,15.178c0.322-0.341,0.753-0.512,1.295-0.512c0.559,0,0.989,0.175,1.292,0.524
		c0.304,0.349,0.455,0.783,0.455,1.301c0,0.594-0.153,1.074-0.461,1.44c-0.307,0.365-0.719,0.548-1.237,0.548
		c-0.542,0-0.982-0.179-1.319-0.536c-0.338-0.358-0.506-0.819-0.506-1.386C10.95,15.979,11.11,15.519,11.431,15.178 M7.022,10.546
		H6.173c-0.157,0.675-0.408,1.113-0.753,1.316c-0.346,0.203-0.872,0.316-1.578,0.34v0.862h2.023v6.156h1.157V10.546z"/>
</g>
</svg>
