<?xml version="1.0" encoding="utf-8"?>
<!-- Generator: Adobe Illustrator 18.0.0, SVG Export Plug-In . SVG Version: 6.00 Build 0)  -->
<!DOCTYPE svg PUBLIC "-//W3C//DTD SVG 1.1//EN" "http://www.w3.org/Graphics/SVG/1.1/DTD/svg11.dtd">
<svg version="1.1" id="Слой_1" xmlns="http://www.w3.org/2000/svg" xmlns:xlink="http://www.w3.org/1999/xlink" x="0px" y="0px"
	 viewBox="0 0 10 10" enable-background="new 0 0 10 10" xml:space="preserve">
<polygon fill="#3D21DE" points="7.085,6.585 4.472,5.055 7.085,3.522 6.503,2.529 2.195,5.056 6.504,7.578 "/>
<g>
	<defs>
		<rect id="SVGID_1_" x="0.081" y="0.049" width="10" height="10"/>
	</defs>
	<clipPath id="SVGID_2_">
		<use xlink:href="#SVGID_1_"  overflow="visible"/>
	</clipPath>
	<path clip-path="url(#SVGID_2_)" fill="#3D21DE" d="M2.359,2.327c0.354-0.354,0.766-0.631,1.224-0.825
		C4.057,1.302,4.561,1.2,5.081,1.2s1.024,0.102,1.498,0.302c0.458,0.194,0.87,0.471,1.224,0.825
		c0.353,0.354,0.631,0.766,0.825,1.224c0.2,0.474,0.302,0.978,0.302,1.498S8.828,6.073,8.628,6.547
		c-0.194,0.458-0.472,0.87-0.825,1.224C7.449,8.124,7.037,8.402,6.579,8.596c-0.474,0.2-0.978,0.302-1.498,0.302
		S4.057,8.796,3.583,8.596c-0.458-0.194-0.87-0.472-1.224-0.825C2.006,7.417,1.728,7.005,1.534,6.547
		c-0.2-0.474-0.302-0.978-0.302-1.498s0.102-1.024,0.302-1.498C1.728,3.093,2.006,2.681,2.359,2.327 M5.081,10.049
		c2.761,0,5-2.239,5-5s-2.239-5-5-5s-5,2.239-5,5S2.32,10.049,5.081,10.049"/>
</g>
</svg>
