<?xml version="1.0" encoding="utf-8"?>
<!-- Generator: Adobe Illustrator 18.0.0, SVG Export Plug-In . SVG Version: 6.00 Build 0)  -->
<!DOCTYPE svg PUBLIC "-//W3C//DTD SVG 1.1//EN" "http://www.w3.org/Graphics/SVG/1.1/DTD/svg11.dtd">
<svg version="1.1" id="Слой_1" xmlns="http://www.w3.org/2000/svg" xmlns:xlink="http://www.w3.org/1999/xlink" x="0px" y="0px"
	 viewBox="0 0 20 20" enable-background="new 0 0 20 20" xml:space="preserve">
<polygon fill="#3D21DE" points="13.073,5.991 10.013,11.218 6.946,5.99 4.961,7.155 10.016,15.771 15.06,7.154 "/>
<g>
	<defs>
		<rect id="SVGID_1_" width="20" height="20"/>
	</defs>
	<clipPath id="SVGID_2_">
		<use xlink:href="#SVGID_1_"  overflow="visible"/>
	</clipPath>
	<path clip-path="url(#SVGID_2_)" fill="#3D21DE" d="M4.557,15.443c-0.708-0.707-1.263-1.531-1.651-2.447
		C2.505,12.048,2.302,11.04,2.302,10s0.203-2.048,0.604-2.996c0.388-0.916,0.943-1.74,1.651-2.447
		c0.707-0.708,1.531-1.263,2.447-1.651C7.952,2.505,8.96,2.302,10,2.302s2.048,0.203,2.996,0.604
		c0.916,0.388,1.74,0.943,2.447,1.651c0.708,0.707,1.263,1.531,1.651,2.447C17.495,7.952,17.698,8.96,17.698,10
		s-0.203,2.048-0.604,2.996c-0.388,0.916-0.943,1.74-1.651,2.447c-0.707,0.708-1.531,1.263-2.447,1.651
		c-0.948,0.401-1.956,0.604-2.996,0.604s-2.048-0.203-2.996-0.604C6.088,16.706,5.264,16.151,4.557,15.443 M20,10
		c0-5.523-4.477-10-10-10S0,4.477,0,10s4.477,10,10,10S20,15.523,20,10"/>
</g>
</svg>
