<?xml version="1.0" encoding="utf-8"?>
<!-- Generator: Adobe Illustrator 18.0.0, SVG Export Plug-In . SVG Version: 6.00 Build 0)  -->
<!DOCTYPE svg PUBLIC "-//W3C//DTD SVG 1.1//EN" "http://www.w3.org/Graphics/SVG/1.1/DTD/svg11.dtd">
<svg version="1.1" id="Слой_1" xmlns="http://www.w3.org/2000/svg" xmlns:xlink="http://www.w3.org/1999/xlink" x="0px" y="0px"
	 viewBox="0 0 20 23.163" enable-background="new 0 0 20 23.163" xml:space="preserve">
<g>
	<defs>
		<rect id="SVGID_1_" y="0" width="20" height="23.163"/>
	</defs>
	<clipPath id="SVGID_2_">
		<use xlink:href="#SVGID_1_"  overflow="visible"/>
	</clipPath>
	<path clip-path="url(#SVGID_2_)" fill="#3D21DE" d="M14.351,6.751c-0.409-0.003-0.818-0.003-1.227,0
		C12.91,6.753,12.77,6.89,12.766,7.103c-0.005,0.212-0.001,0.424-0.001,0.637c0,0.214-0.003,0.429,0.001,0.643
		c0.004,0.209,0.153,0.348,0.362,0.348c0.406,0.001,0.811,0.001,1.217,0c0.216,0,0.368-0.149,0.369-0.365
		c0.001-0.416,0.001-0.832,0-1.247C14.712,6.901,14.568,6.753,14.351,6.751"/>
	<path clip-path="url(#SVGID_2_)" fill="#3D21DE" d="M15.763,9.492c-0.001,0.064-0.018,0.081-0.083,0.082
		c-0.013,0.001-0.027,0.001-0.04,0.001c-1.146,0-2.291-0.001-3.436,0.001c-0.076,0-0.135-0.022-0.19-0.074
		c-0.15-0.144-0.316-0.27-0.494-0.378c-0.637-0.383-1.322-0.517-2.055-0.383C8.895,8.846,8.401,9.107,7.977,9.5
		C7.92,9.552,7.86,9.576,7.783,9.575C6.631,9.574,5.479,9.574,4.327,9.574c-0.07,0-0.087-0.016-0.087-0.087
		c0-0.104,0.002-0.207,0.002-0.311C4.239,8.741,4.221,8.305,4.255,7.869c0.021-0.264,0.08-0.518,0.193-0.759
		c0.169-0.364,0.43-0.652,0.745-0.895C5.198,6.212,5.204,6.21,5.211,6.207c0,0.006,0.001,0.01,0.001,0.013
		c0,0.688-0.001,1.375-0.002,2.063c0,0.095-0.002,0.191,0.002,0.286c0.003,0.065,0.03,0.092,0.094,0.092
		c0.086,0.001,0.173-0.004,0.258-0.013c0.058-0.005,0.086-0.04,0.093-0.099c0.005-0.036,0.008-0.074,0.008-0.111
		c0.001-0.777,0.001-1.555,0.001-2.333c0-0.016,0-0.033-0.003-0.05c-0.01-0.078-0.006-0.087,0.064-0.12
		c0.069-0.033,0.14-0.061,0.218-0.067c0.056-0.004,0.07,0.011,0.062,0.065c-0.003,0.02-0.005,0.04-0.005,0.06
		c0,0.704,0.001,1.407,0.001,2.111c0,0.154-0.001,0.308-0.001,0.462C6.003,8.631,6.027,8.66,6.093,8.662
		c0.083,0.001,0.166,0,0.249-0.007c0.077-0.006,0.109-0.04,0.12-0.117C6.468,8.495,6.47,8.451,6.47,8.407
		C6.471,7.995,6.473,7.582,6.472,7.17c0-0.409-0.003-0.818-0.005-1.227c-0.001-0.11,0.01-0.125,0.108-0.152H6.71
		c0.063,0.017,0.083,0.063,0.083,0.122c0,0.018,0,0.036,0,0.054C6.792,6.327,6.791,6.688,6.79,7.049
		C6.789,7.445,6.789,7.842,6.789,8.238c0,0.109-0.002,0.218,0.001,0.327C6.792,8.631,6.819,8.66,6.884,8.661
		c0.089,0.001,0.179-0.005,0.268-0.013C7.203,8.644,7.236,8.611,7.245,8.56c0.005-0.034,0.01-0.067,0.011-0.101
		c0.001-0.125,0.001-0.251,0.001-0.377c0-0.719-0.001-1.438-0.001-2.157c0-0.075,0-0.113,0.088-0.134h5.233
		c0.012,0.002,0.024,0.004,0.036,0.004c0.311,0.001,0.622,0.002,0.934,0.002c0.158-0.001,0.314,0.016,0.467,0.052
		c0.484,0.116,0.883,0.37,1.207,0.745c0.258,0.299,0.429,0.642,0.5,1.033c0.038,0.209,0.042,0.42,0.043,0.631
		C15.767,8.669,15.764,9.081,15.763,9.492 M7.724,11.632c0-1.25,1.026-2.268,2.284-2.267c1.254,0,2.27,1.02,2.268,2.275
		c-0.002,1.26-1.015,2.266-2.28,2.266C8.741,13.905,7.724,12.887,7.724,11.632 M15.761,11.641c-0.001,1.168,0.001,2.335-0.003,3.503
		c-0.002,0.573-0.21,1.07-0.596,1.491c-0.34,0.371-0.759,0.606-1.255,0.697c-0.125,0.024-0.254,0.037-0.382,0.037
		c-2.342,0.002-4.684,0.007-7.026-0.001c-1.057-0.004-1.935-0.706-2.188-1.714c-0.05-0.2-0.071-0.404-0.07-0.611
		c0-1.089,0-2.178,0-3.267c-0.001-0.557-0.003-1.114-0.004-1.672c0-0.024,0.001-0.049,0.004-0.074
		c0.007-0.069,0.038-0.101,0.108-0.104c0.074-0.004,0.148-0.003,0.223-0.002c0.992,0,1.984,0.001,2.976,0.002h0.047
		c-0.447,0.666-0.637,1.386-0.506,2.178c0.115,0.692,0.427,1.276,0.959,1.739c1.065,0.925,2.593,0.986,3.711,0.143
		c0.635-0.478,1.017-1.116,1.141-1.9c0.124-0.784-0.066-1.501-0.511-2.16h0.042c0.956-0.001,1.913-0.001,2.869-0.002
		c0.106,0,0.211,0,0.317,0c0.02,0,0.041,0,0.061,0.002c0.049,0.006,0.076,0.031,0.08,0.08c0.005,0.066,0.005,0.133,0.005,0.199
		C15.763,10.684,15.761,11.162,15.761,11.641 M10,0L0,5.791v11.582l10,5.79l10-5.79V5.791L10,0z"/>
	<path clip-path="url(#SVGID_2_)" fill="#3D21DE" d="M10.056,13.312c0.889-0.024,1.635-0.776,1.626-1.65
		c0.005-0.931-0.719-1.714-1.697-1.7c-0.927,0.013-1.677,0.785-1.649,1.704C8.365,12.594,9.113,13.337,10.056,13.312"/>
</g>
</svg>
