<?xml version="1.0" encoding="utf-8"?>
<!-- Generator: Adobe Illustrator 18.0.0, SVG Export Plug-In . SVG Version: 6.00 Build 0)  -->
<!DOCTYPE svg PUBLIC "-//W3C//DTD SVG 1.1//EN" "http://www.w3.org/Graphics/SVG/1.1/DTD/svg11.dtd">
<svg version="1.1" id="Слой_1" xmlns="http://www.w3.org/2000/svg" xmlns:xlink="http://www.w3.org/1999/xlink" x="0px" y="0px"
	 viewBox="0 0 30 30" enable-background="new 0 0 30 30" xml:space="preserve">
<g>
	<defs>
		<rect id="SVGID_1_" width="30" height="30"/>
	</defs>
	<clipPath id="SVGID_2_">
		<use xlink:href="#SVGID_1_"  overflow="visible"/>
	</clipPath>
	<path clip-path="url(#SVGID_2_)" fill="#F0F0F0" d="M29.999,15.132c-0.072,8.285-6.847,14.94-15.13,14.868
		C6.585,29.927-0.072,23.155,0,14.87C0.072,6.585,6.847-0.071,15.131,0.001C23.414,0.073,30.071,6.847,29.999,15.132"/>
	<path clip-path="url(#SVGID_2_)" fill="#C8C8C8" d="M20.732,18.701c-0.419-0.544-0.781-0.901-1.299-1.39
		c-0.239-0.226-0.55-0.467-0.565-0.778c-0.02-0.41,0.384-0.817,0.581-1.071c0.492-0.637,0.938-1.103,1.395-1.837
		c0.119-0.193,0.507-0.893,0.379-1.174c-0.153-0.338-1.024-0.21-1.511-0.214c-0.594-0.006-1.24-0.131-1.647,0.019
		c-0.267,0.098-0.43,0.649-0.58,0.97c-0.365,0.779-0.657,1.303-1.126,1.907c-0.214,0.275-0.413,0.629-0.779,0.665
		c-0.471-0.32-0.347-1.03-0.322-1.717c0.023-0.613,0.214-1.428-0.051-1.884c-0.259-0.448-1.203-0.381-1.879-0.386
		c-0.804-0.007-1.471,0.035-1.719,0.523c0.291,0.176,0.58,0.184,0.736,0.477c0.164,0.31,0.175,1.033,0.154,1.615
		c-0.019,0.513-0.056,1.313-0.382,1.375c-0.336,0.065-0.617-0.443-0.801-0.712c-0.424-0.623-0.745-1.169-1.092-1.927
		c-0.152-0.33-0.34-0.847-0.53-0.946c-0.32-0.166-1.006-0.076-1.446-0.08c-0.517-0.004-1.029-0.097-1.346,0.157
		c-0.004,0.548,0.28,1.039,0.492,1.483c0.656,1.373,1.369,2.623,2.287,3.82c0.859,1.12,1.84,2.163,3.778,2.386
		c0.613,0.071,1.504,0.145,1.716-0.22c0.263-0.452-0.035-1.514,0.586-1.609c0.437-0.067,0.798,0.545,1.035,0.816
		c0.419,0.48,0.91,0.998,1.638,1.124l0.067,0.001c0.654-0.193,2.584,0.339,2.694-0.481C21.23,19.35,20.889,18.906,20.732,18.701"/>
</g>
</svg>
