<?xml version="1.0" encoding="utf-8"?>
<!-- Generator: Adobe Illustrator 18.0.0, SVG Export Plug-In . SVG Version: 6.00 Build 0)  -->
<!DOCTYPE svg PUBLIC "-//W3C//DTD SVG 1.1//EN" "http://www.w3.org/Graphics/SVG/1.1/DTD/svg11.dtd">
<svg version="1.1" id="Слой_1" xmlns="http://www.w3.org/2000/svg" xmlns:xlink="http://www.w3.org/1999/xlink" x="0px" y="0px"
	 viewBox="0 0 30 30" enable-background="new 0 0 30 30" xml:space="preserve">
<g>
	<defs>
		<rect id="SVGID_1_" width="30" height="30"/>
	</defs>
	<clipPath id="SVGID_2_">
		<use xlink:href="#SVGID_1_"  overflow="visible"/>
	</clipPath>
	<path clip-path="url(#SVGID_2_)" fill="#F0F0F0" d="M29.999,15.132C29.927,23.417,23.152,30.072,14.868,30
		C6.585,29.927-0.072,23.155,0,14.87C0.072,6.585,6.847-0.071,15.13,0.001C23.414,0.073,30.071,6.847,29.999,15.132"/>
	<path clip-path="url(#SVGID_2_)" fill="#C8C8C8" d="M21.986,10.751c-0.513,0.222-1.064,0.371-1.641,0.434
		c0.592-0.347,1.048-0.902,1.267-1.566c-0.554,0.322-1.166,0.554-1.816,0.676c-0.515-0.558-1.253-0.911-2.074-0.919
		c-1.574-0.013-2.861,1.252-2.875,2.827c-0.002,0.224,0.021,0.441,0.068,0.65c-2.369-0.139-4.459-1.293-5.85-3.03
		c-0.249,0.419-0.394,0.907-0.399,1.43c-0.009,0.99,0.487,1.866,1.248,2.384c-0.467-0.019-0.906-0.151-1.288-0.367
		c0,0.011-0.001,0.023-0.001,0.035c-0.012,1.382,0.961,2.542,2.263,2.816c-0.24,0.063-0.492,0.096-0.753,0.094
		c-0.183-0.002-0.362-0.022-0.535-0.057c0.353,1.136,1.398,1.97,2.645,2.004c-0.982,0.756-2.215,1.201-3.551,1.189
		c-0.23-0.002-0.457-0.017-0.679-0.045c1.254,0.819,2.749,1.305,4.359,1.319c5.243,0.045,8.149-4.274,8.182-8.042
		c0.001-0.123-0.001-0.246-0.005-0.368C21.111,11.817,21.599,11.319,21.986,10.751"/>
</g>
</svg>
