<?xml version="1.0" encoding="UTF-8" standalone="no"?>
<svg width="133px" height="20px" viewBox="0 0 133 20" version="1.1" xmlns="http://www.w3.org/2000/svg" xmlns:xlink="http://www.w3.org/1999/xlink">
    <!-- Generator: Sketch 3.8.3 (29802) - http://www.bohemiancoding.com/sketch -->
    <title>Page 1</title>
    <desc>Created with Sketch.</desc>
    <defs>
        <polygon id="path-1" points="9.23753156 10.4046291 9.23753156 0.713623235 0.389900328 0.713623235 0.389900328 10.4046291 9.23753156 10.4046291"></polygon>
    </defs>
    <g id="V1" stroke="none" stroke-width="1" fill="none" fill-rule="evenodd">
        <g id="Desktop-1440" transform="translate(-20.000000, -81.000000)">
            <g id="main" transform="translate(0.000000, 60.000000)">
                <g id="Page-1" transform="translate(20.000000, 21.000000)">
                    <polygon id="Fill-1" fill="#121313" points="0 10.6178594 0 12.4591271 7.68442085 12.4591271 7.68442085 17.0816594 0 17.0816594 0 18.9229271 9.50295122 18.9229271 9.50295122 10.6178594"></polygon>
                    <polygon id="Fill-2" fill="#121313" points="0 15.6907924 6.30980198 15.6907924 6.30980198 13.8495247 0 13.8495247"></polygon>
                    <polygon id="Fill-3" fill="#121313" points="1.30078816 0.000117352941 1.3019472 9.22640559 9.50329893 9.22640559 9.50329893 3.158085 14.068749 3.158085 14.068749 5.99450559 15.8872793 5.99450559 15.8872793 1.31799088 7.68476857 1.31799088 7.68476857 7.38631147 3.11815949 7.38631147 3.11815949 0.000117352941"></polygon>
                    <polygon id="Fill-4" fill="#121313" points="4.49277836 0.000117352941 4.4939374 5.99450559 6.31014969 5.99450559 6.31014969 0.000117352941"></polygon>
                    <polygon id="Fill-5" fill="#121313" points="10.8757156 10.6178594 10.8757156 18.9229271 20.3786669 18.9229271 20.3786669 17.0816594 12.694246 17.0816594 12.694246 12.4591271 20.3786669 12.4591271 20.3786669 10.6178594"></polygon>
                    <polygon id="Fill-6" fill="#121313" points="14.0684013 15.6907924 20.3793623 15.6907924 20.3793623 13.8495247 14.0684013 13.8495247"></polygon>
                    <polygon id="Fill-7" fill="#121313" points="17.2607392 0.00117352941 17.2607392 7.38619412 12.6952891 7.38619412 12.6952891 4.54977353 10.8767588 4.54977353 10.8767588 9.22628824 19.0792695 9.22628824 19.0792695 0.00117352941"></polygon>
                    <g id="Group-14" transform="translate(24.104745, 8.518181)" fill="#121313">
                        <path d="M8.97187684,10.4046291 L5.55387426,0.713623235 L3.47108327,0.713623235 L0.123781999,10.4046291 L1.98171965,10.4046291 L2.64816641,8.42371147 L6.26320542,8.42371147 L6.93081121,10.4046291 L8.97187684,10.4046291 Z M5.78220472,6.94506441 L3.11525865,6.94506441 L3.98105992,4.47595853 C4.16534693,3.91501147 4.320658,3.35523794 4.43424371,2.85296735 L4.44815217,2.85296735 C4.56173787,3.397485 4.70429953,3.87159088 4.88858654,4.40319971 L5.78220472,6.94506441 Z" id="Fill-8"></path>
                        <path d="M16.6273218,10.4046291 L14.3301088,7.14573794 C14.0890289,6.81597618 13.8201321,6.44279382 13.5512353,6.08369382 C14.9965555,5.85368206 15.9898509,4.81862912 15.9898509,3.38340265 C15.9898509,1.402485 14.6279815,0.656120294 12.5162145,0.656120294 C11.4093334,0.656120294 10.5157152,0.670202647 9.76465872,0.713623235 L9.76465872,10.4046291 L11.6075289,10.4046291 L11.6075289,6.39937324 L11.6793892,6.39937324 L14.3451763,10.4046291 L16.6273218,10.4046291 Z M14.061212,3.56999382 C14.061212,4.47595853 13.3796977,5.04864088 12.2739756,5.04864088 C11.9911704,5.04864088 11.7361821,5.03573206 11.6075289,5.02047618 L11.6075289,2.220435 C11.7918159,2.19227029 12.0618717,2.17818794 12.3307685,2.17818794 C13.4944425,2.17818794 14.061212,2.63703794 14.061212,3.56999382 L14.061212,3.56999382 Z" id="Fill-10"></path>
                        <path d="M23.1172382,7.40356235 C23.1172382,4.37468294 19.0907408,5.02012412 19.0907408,3.28330059 C19.0907408,2.59443882 19.6296934,2.10625059 20.6925311,2.10625059 C21.273209,2.10625059 21.8689545,2.20717412 22.4079071,2.36560059 L22.5075843,0.727353529 C21.9408148,0.628777059 21.3160934,0.554844706 20.7771408,0.554844706 C18.4810869,0.554844706 17.1331259,1.74832412 17.1331259,3.47106529 C17.1331259,6.65719765 21.1468739,5.80990941 21.1468739,7.66291235 C21.1468739,8.55244765 20.4236343,8.93971235 19.4871317,8.93971235 C18.792868,8.93971235 18.026744,8.78245941 17.4877914,8.59586824 L17.3753648,10.3326918 C17.9699512,10.4899447 18.6514654,10.56153 19.3318206,10.56153 C21.6846674,10.56153 23.1172382,9.22722706 23.1172382,7.40356235" id="Fill-12"></path>
                    </g>
                    <polygon id="Fill-15" fill="#121313" points="51.4567597 9.23215588 51.4567597 18.9231618 56.6596805 18.9231618 56.6596805 17.3283353 53.2996298 17.3283353 53.2996298 14.7008029 56.489302 14.7008029 56.489302 13.1799088 53.2996298 13.1799088 53.2996298 10.7964706 56.6596805 10.7964706 56.6596805 9.23215588"></polygon>
                    <polygon id="Fill-16" fill="#121313" points="58.2308722 9.23215588 58.2308722 18.9231618 63.1799638 18.9231618 63.1799638 17.2860882 60.0737424 17.2860882 60.0737424 9.23215588"></polygon>
                    <polygon id="Fill-17" fill="#121313" points="64.096415 9.23215588 64.096415 18.9231618 69.3004949 18.9231618 69.3004949 17.3283353 65.9392852 17.3283353 65.9392852 14.7008029 69.1301163 14.7008029 69.1301163 13.1799088 65.9392852 13.1799088 65.9392852 10.7964706 69.3004949 10.7964706 69.3004949 9.23215588"></polygon>
                    <path d="M77.3090986,18.6210953 L77.0958357,16.9558571 C76.5997675,17.1858688 75.819735,17.3572041 75.239057,17.3572041 C73.3104181,17.3572041 72.4457759,16.1801541 72.4457759,14.0701482 C72.4457759,12.1901541 73.3243265,10.8253394 75.1115629,10.8253394 C75.7629422,10.8253394 76.4154805,10.9262629 77.0390428,11.1116806 L77.2372383,9.41827765 C76.6136759,9.24576882 75.8904363,9.16010118 75.2100811,9.16010118 C72.0053415,9.16010118 70.4174596,11.3135276 70.4174596,14.3858276 C70.4174596,16.7974306 71.4953648,19.0517806 74.8415071,19.0517806 C75.7351252,19.0517806 76.5997675,18.8792718 77.3090986,18.6210953" id="Fill-18" fill="#121313"></path>
                    <polygon id="Fill-20" fill="#121313" points="77.8428355 9.23215588 77.8428355 10.8258088 80.3254946 10.8258088 80.3254946 18.9231618 82.1683648 18.9231618 82.1683648 10.8258088 84.6498648 10.8258088 84.6498648 9.23215588"></polygon>
                    <g id="Group-27" transform="translate(84.609762, 8.518181)" fill="#121313">
                        <path d="M7.74955878,10.4046291 L5.45234579,7.14573794 C5.21126592,6.81597618 4.94236914,6.44279382 4.67231333,6.08369382 C6.11879255,5.85368206 7.11092893,4.81862912 7.11092893,3.38340265 C7.11092893,1.402485 5.75021851,0.656120294 3.63729254,0.656120294 C2.53157044,0.656120294 1.63795227,0.670202647 0.886895752,0.713623235 L0.886895752,10.4046291 L2.72976591,10.4046291 L2.72976591,6.39937324 L2.80162626,6.39937324 L5.46625424,10.4046291 L7.74955878,10.4046291 Z M5.18228997,3.56999382 C5.18228997,4.47595853 4.50193476,5.04864088 3.39621267,5.04864088 C3.1122484,5.04864088 2.85841911,5.03573206 2.72976591,5.02047618 L2.72976591,2.220435 C2.91405293,2.19227029 3.18294971,2.17818794 3.45300552,2.17818794 C4.61552047,2.17818794 5.18228997,2.63703794 5.18228997,3.56999382 L5.18228997,3.56999382 Z" id="Fill-21"></path>
                        <path d="M17.0747136,5.42241 C17.0747136,2.10601588 15.2735688,0.555783529 12.7225265,0.555783529 C10.1564168,0.555783529 8.04233174,2.47919824 8.04233174,5.68058647 C8.04233174,8.68130118 9.4749025,10.5612953 12.3956779,10.5612953 C14.9907636,10.5612953 17.0747136,8.62379824 17.0747136,5.42241 M15.1043493,5.56675412 C15.1043493,7.89151588 13.7714558,8.86789235 12.523172,8.86789235 C10.807796,8.86789235 10.0126961,7.53358941 10.0126961,5.47991294 C10.0126961,3.29832176 11.2331629,2.23510412 12.552148,2.23510412 C14.1968226,2.23510412 15.1043493,3.41332765 15.1043493,5.56675412" id="Fill-23"></path>
                        <path d="M26.2445573,10.4046291 L26.2445573,0.713623235 L24.45848,0.713623235 L24.45848,3.72842029 C24.45848,4.91955265 24.4862969,6.64346735 24.5569983,7.61984382 C24.2034917,6.88756147 23.8198502,6.08369382 23.3805748,5.33732912 L20.7147878,0.713623235 L18.3190566,0.713623235 L18.3190566,10.4046291 L20.1051339,10.4046291 L20.1051339,6.94506441 C20.1051339,5.78209676 20.077317,4.26002912 20.0205242,3.42682324 C20.3044884,4.05818206 20.6440865,4.77755559 21.0555449,5.50866441 L23.8627346,10.4046291 L26.2445573,10.4046291 Z" id="Fill-25"></path>
                    </g>
                    <polygon id="Fill-28" fill="#121313" points="112.893762 18.9226924 114.736633 18.9226924 114.736633 9.23168647 112.893762 9.23168647"></polygon>
                    <g id="Group-34" transform="translate(115.903784, 8.518181)">
                        <path d="M7.03617099,10.1029147 L6.82406707,8.43767647 C6.32683984,8.66768824 5.54796641,8.83902353 4.96612942,8.83902353 C3.0386495,8.83902353 2.17284823,7.66197353 2.17284823,5.55196765 C2.17284823,3.67197353 3.05255795,2.30715882 4.83863526,2.30715882 C5.49117356,2.30715882 6.14255282,2.40808235 6.76611518,2.5935 L6.96546968,0.900097059 C6.34074829,0.727588235 5.61866772,0.641920588 4.93831251,0.641920588 C1.73357289,0.641920588 0.144532018,2.79534706 0.144532018,5.86764706 C0.144532018,8.27925 1.22359624,10.5336 4.56973848,10.5336 C5.46219761,10.5336 6.32683984,10.3610912 7.03617099,10.1029147" id="Fill-29" fill="#121313"></path>
                        <g id="Group-33" transform="translate(6.954227, 0.000000)">
                            <mask id="mask-2" fill="white">
                                <use xlink:href="#path-1"></use>
                            </mask>
                            <g id="Clip-32"></g>
                            <path d="M9.23799517,10.4046291 L5.82115163,0.713623235 L3.73604256,0.713623235 L0.389900328,10.4046291 L2.24783798,10.4046291 L2.91428474,8.42371147 L6.52932375,8.42371147 L7.1957705,10.4046291 L9.23799517,10.4046291 Z M6.04832305,6.94506441 L3.38253602,6.94506441 L4.24717825,4.47595853 C4.43146526,3.91501147 4.58677633,3.35523794 4.70036204,2.85296735 L4.71542953,2.85296735 C4.82901524,3.397485 4.97041786,3.87159088 5.15354584,4.40319971 L6.04832305,6.94506441 Z" id="Fill-31" fill="#121313" mask="url(#mask-2)"></path>
                        </g>
                    </g>
                </g>
            </g>
        </g>
    </g>
</svg>