<?xml version="1.0" encoding="UTF-8" standalone="no"?>
<svg width="24px" height="28px" viewBox="0 0 24 28" version="1.1" xmlns="http://www.w3.org/2000/svg" xmlns:xlink="http://www.w3.org/1999/xlink">
    <!-- Generator: Sketch 3.8.3 (29802) - http://www.bohemiancoding.com/sketch -->
    <title>Fill 4</title>
    <desc>Created with Sketch.</desc>
    <defs></defs>
    <g id="V1" stroke="none" stroke-width="1" fill="none" fill-rule="evenodd">
        <g id="Desktop-1440" transform="translate(-20.000000, -853.000000)" fill="#1571C1">
            <g id="main" transform="translate(0.000000, 60.000000)">
                <g id="share" transform="translate(20.000000, 792.000000)">
                    <g id="Page-1">
                        <path d="M12.0003776,1 L0,7.9820745 L0,21.9450854 L12.0003776,28.9267806 L24.0007552,21.9450854 L24.0007552,7.9820745 L12.0003776,1 Z M16.9166772,8.32842789 L14.9422278,8.32842789 C13.3929515,8.32842789 13.0938955,9.0662782 13.0938955,10.158069 L13.0938955,12.5518148 L16.7860289,12.5518148 L16.3110132,16.2919002 L13.0938955,16.2919002 L13.0938955,25.9237867 L9.23826306,25.9237867 L9.23826306,16.2919002 L6.01321586,16.2919002 L6.01321586,12.5518148 L9.23826306,12.5518148 L9.23826306,9.78136705 C9.23826306,6.57579631 11.1855255,4.82278537 14.0359975,4.82278537 C15.4051605,4.82278537 16.579484,4.92672932 16.9166772,4.97718387 L16.9166772,8.32842789 Z" id="Fill-4"></path>
                    </g>
                </g>
            </g>
        </g>
    </g>
</svg>