<?xml version="1.0" encoding="UTF-8" standalone="no"?>
<svg width="27px" height="30px" viewBox="0 0 27 30" version="1.1" xmlns="http://www.w3.org/2000/svg" xmlns:xlink="http://www.w3.org/1999/xlink">
    <!-- Generator: Sketch 3.8.3 (29802) - http://www.bohemiancoding.com/sketch -->
    <title>Instagram</title>
    <desc>Created with Sketch.</desc>
    <defs></defs>
    <g id="V1" stroke="none" stroke-width="1" fill="none" fill-rule="evenodd">
        <g id="Desktop-1440" transform="translate(-660.000000, -3556.000000)" fill="#FFFFFF">
            <g id="Group-10" transform="translate(0.000000, 3501.000000)">
                <g id="Social" transform="translate(580.000000, 55.000000)">
                    <path d="M100.915749,12.2937443 C100.915749,12.3766352 100.892436,12.3973579 100.80825,12.3999482 L100.756443,12.3999482 C99.2721798,12.3999482 97.7905064,12.3999482 96.3062427,12.4025385 C96.2078099,12.4025385 96.1313949,12.3740448 96.0601606,12.306696 C95.8658852,12.1201917 95.6508872,11.9570004 95.4203471,11.8171221 C94.5953244,11.3210724 93.7081337,11.1475198 92.7587748,11.3210724 C92.0205284,11.4583603 91.3807149,11.7963994 90.8315633,12.3054009 C90.7577386,12.3727496 90.6800285,12.4038337 90.5803005,12.4025385 L86.1041963,12.4025385 C86.0135345,12.4025385 85.9915166,12.3805207 85.9915166,12.2885637 L85.994107,11.8870613 C85.9902215,11.3223676 85.9682036,10.7576739 86.0109442,10.1929802 C86.0368476,9.84976039 86.1145577,9.51949229 86.2609118,9.20865173 C86.4810905,8.73721021 86.8178345,8.36420153 87.2258127,8.04947546 L87.2491258,8.0391141 L87.2517161,8.0559513 C87.2517161,8.94702759 87.2517161,9.8368087 87.2491258,10.727885 C87.2491258,10.850926 87.2465354,10.9739671 87.2517161,11.0983033 C87.2556016,11.1811941 87.2905712,11.2148685 87.373462,11.2148685 C87.4848465,11.2174589 87.5975262,11.210983 87.7076156,11.1993265 C87.7827354,11.1928507 87.8190001,11.1475198 87.8280663,11.0698096 C87.8345422,11.0244787 87.8384277,10.9752623 87.8384277,10.927341 L87.8384277,7.90700686 C87.8384277,7.88628416 87.8384277,7.86426629 87.8358373,7.84224841 C87.8228856,7.74122523 87.8280663,7.72956871 87.9187281,7.68682813 C88.00939,7.64408755 88.1000518,7.60911799 88.201075,7.60005181 C88.2736045,7.59487113 88.2917368,7.6130035 88.2813755,7.68423779 C88.27749,7.71014117 88.2748996,7.73604455 88.2748996,7.76194793 L88.2748996,11.0944178 C88.2748996,11.1786038 88.3072788,11.2161637 88.3914648,11.218754 C88.500259,11.218754 88.6077581,11.218754 88.7152571,11.2096879 C88.8149851,11.2019169 88.8577257,11.1578811 88.8706774,11.0581531 C88.8784484,11.0024608 88.8810387,10.9454734 88.8810387,10.8897811 C88.8810387,10.3548763 88.8849242,9.81997151 88.8836291,9.28636187 C88.8836291,8.75534257 88.8797436,8.22691361 88.8771532,7.69718948 C88.8771532,7.55472089 88.8901049,7.53529336 89.0170315,7.50032379 L89.1918793,7.50032379 C89.2734749,7.52363683 89.2993783,7.58321461 89.2993783,7.65962958 L89.2993783,7.72956871 L89.2941976,9.13094159 L89.2941976,10.6696024 C89.2941976,10.812071 89.2903121,10.9519492 89.2941976,11.0931227 C89.296788,11.1786038 89.3330527,11.2161637 89.4159435,11.2174589 C89.5325087,11.2200492 89.649074,11.2122782 89.7630488,11.2019169 C89.8278073,11.1967362 89.871843,11.1539956 89.8834995,11.087942 C89.8899754,11.0439062 89.8964512,11.0011657 89.8964512,10.9584251 C89.8990416,10.7952338 89.8990416,10.6320425 89.8990416,10.4688512 L89.8990416,7.67387644 C89.8990416,7.57673876 89.8990416,7.52752234 90.0117213,7.50032379 L96.7893408,7.50032379 C96.8048828,7.5042093 96.8204248,7.50679964 96.8359668,7.50679964 L98.0456547,7.50938998 C98.2502914,7.50938998 98.4523378,7.53011268 98.6504986,7.57673876 C99.2773604,7.7256832 99.7941329,8.0559513 100.213768,8.54034451 C100.550512,8.92889522 100.77069,9.37184303 100.861352,9.87825411 C100.913159,10.1502396 100.917044,10.4222251 100.91834,10.6942106 C100.922225,11.2278202 100.91834,11.7614299 100.91834,12.2937443 L100.915749,12.2937443 Z M90.5051807,15.065406 C90.5051807,13.4464448 91.8340241,12.1279627 93.4633467,12.1292579 C95.0874887,12.1292579 96.4033804,13.4503303 96.4007901,15.0757674 C96.3981997,16.7076804 95.0861935,18.0106204 93.4478047,18.0106204 C91.8223676,18.0106204 90.5051807,16.689548 90.5051807,15.065406 L90.5051807,15.065406 Z M100.914454,15.0783577 C100.914454,16.58982 100.917044,18.1012822 100.911864,19.6140396 C100.909273,20.3561715 100.639878,20.9998705 100.139943,21.5438415 C99.6995855,22.0256443 99.1556146,22.3300091 98.5145059,22.4478694 C98.3526098,22.4789535 98.185533,22.4957907 98.0197513,22.4957907 C94.9864655,22.4957907 91.9531796,22.5035617 88.9198938,22.4932004 C87.549605,22.4880197 86.4124466,21.578811 86.0834736,20.2732807 C86.0187152,20.0142469 85.9928118,19.7500324 85.9928118,19.4832276 L85.9928118,15.2506152 L85.9889263,13.0850926 C85.9889263,13.0540085 85.9889263,13.0203342 85.994107,12.9892501 C86.0044683,12.8985883 86.0459137,12.8597332 86.1365756,12.8545525 C86.2311229,12.8493718 86.3269654,12.850667 86.4241031,12.8519622 C87.7089108,12.8519622 88.9937184,12.8519622 90.2785261,12.8545525 L90.339399,12.8545525 C89.7604585,13.7171351 89.5143764,14.6496568 89.6840435,15.6754306 C89.8316928,16.5716876 90.2357855,17.3280663 90.9248154,17.9290247 C92.3041704,19.1257609 94.2831887,19.2047662 95.7298925,18.1129387 C96.55362,17.4938479 97.0483746,16.6675301 97.2089755,15.6521176 C97.3695765,14.6367051 97.1234944,13.7093641 96.5484393,12.8545525 L96.6002461,12.8545525 C97.8397228,12.8545525 99.0791996,12.8545525 100.317381,12.8519622 L100.72795,12.8519622 C100.753853,12.8519622 100.779757,12.8519622 100.80566,12.8545525 C100.870418,12.8623235 100.905388,12.8934076 100.909273,12.958166 C100.917044,13.0436472 100.917044,13.1304235 100.917044,13.2171998 L100.914454,15.0757674 L100.914454,15.0783577 Z M93.4516902,0 L80.5,7.49902862 L80.5,22.5009714 L93.4516902,30 L106.40338,22.5009714 L106.40338,7.49902862 L93.4516902,0 Z M93.5242197,17.24129 C94.6769201,17.2102059 95.641821,16.2362388 95.6301645,15.1042611 C95.6366403,13.8997539 94.6976428,12.8843414 93.4322627,12.9024738 C92.231641,12.919311 91.2602642,13.9191815 91.2952338,15.1094418 C91.3340888,16.3113586 92.3028753,17.272374 93.5229245,17.24129 L93.5242197,17.24129 Z M99.0856754,8.74239088 C98.5572465,8.73980054 98.0275223,8.73980054 97.4977982,8.74239088 C97.220632,8.74627639 97.0393084,8.92371454 97.0341277,9.19958555 C97.0276519,9.47416138 97.0341277,9.74873721 97.0341277,10.0246082 C97.0341277,10.3017744 97.028947,10.5815309 97.0341277,10.8574019 C97.0393084,11.1293874 97.2322886,11.3081207 97.5029789,11.3081207 C98.0288175,11.310711 98.5520658,11.310711 99.0791996,11.3081207 C99.3589561,11.3081207 99.5558218,11.1164357 99.5584121,10.8366792 L99.5584121,9.22160342 C99.5545266,8.93666623 99.3680223,8.74627639 99.0869706,8.74239088 L99.0856754,8.74239088 Z" id="Instagram"></path>
                </g>
            </g>
        </g>
    </g>
</svg>