<?xml version="1.0" encoding="UTF-8" standalone="no"?>
<svg width="26px" height="29px" viewBox="0 0 26 29" version="1.1" xmlns="http://www.w3.org/2000/svg" xmlns:xlink="http://www.w3.org/1999/xlink">
    <!-- Generator: Sketch 3.8.3 (29802) - http://www.bohemiancoding.com/sketch -->
    <title>poly_icon</title>
    <desc>Created with Sketch.</desc>
    <defs></defs>
    <g id="V1" stroke="none" stroke-width="1" fill="none" fill-rule="evenodd">
        <g id="Desktop-1440" transform="translate(-1395.000000, -17.000000)" fill="#000000">
            <g id="menu" transform="translate(20.000000, 17.000000)">
                <path d="M1400.3441,7.79759646 C1400.33998,7.41621207 1400.1415,7.04629951 1399.78739,6.84153808 L1388.23049,0.148913 C1387.87551,-0.0556319774 1387.45517,-0.042428545 1387.12248,0.145449805 C1387.12032,0.146748503 1387.11772,0.147614302 1387.11534,0.148913 L1375.55844,6.84153808 C1375.20433,7.04565016 1375.00584,7.41491337 1375.0013,7.79586486 C1375.00087,7.79954451 1375,7.8034406 1375,7.8069038 L1375,21.1925869 C1375,21.6001617 1375.21991,21.9555721 1375.5461,22.1505933 C1375.55,22.1527578 1375.55368,22.1557881 1375.55801,22.1579526 L1375.57835,22.1696409 C1375.58095,22.171156 1375.58333,22.1724547 1375.58593,22.1741863 L1387.11534,28.8510106 C1387.11815,28.8525257 1387.1214,28.8533915 1387.12486,28.8551231 C1387.45733,29.0425686 1387.87659,29.0553391 1388.23049,28.8510106 L1399.78739,22.1583855 C1399.79302,22.1551387 1399.79821,22.1514591 1399.80362,22.147563 C1400.12765,21.9525418 1400.34453,21.598863 1400.34453,21.1925869 L1400.34453,7.8069038 C1400.34453,7.8038735 1400.3441,7.8008432 1400.3441,7.79759646 L1400.3441,7.79759646 Z M1392.64044,18.9625055 C1392.64044,19.5780885 1392.14152,20.0774379 1391.5242,20.0774379 C1390.90949,20.0774379 1390.40949,19.5780885 1390.40949,18.9625055 L1390.40949,11.154515 L1384.93612,11.154515 L1384.93612,18.9625055 C1384.93612,19.5780885 1384.43677,20.0774379 1383.82033,20.0774379 C1383.20496,20.0774379 1382.70496,19.5780885 1382.70496,18.9625055 L1382.70453,10.0387168 C1382.70453,9.42291734 1383.20453,8.92378431 1383.82033,8.92378431 L1391.52572,8.92378431 C1392.14109,8.92378431 1392.64044,9.42291734 1392.64044,10.0387168 L1392.64044,18.9625055 Z" id="Fill-1"></path>
            </g>
        </g>
    </g>
</svg>