<?xml version="1.0" encoding="UTF-8" standalone="no"?>
<svg width="24px" height="28px" viewBox="0 0 24 28" version="1.1" xmlns="http://www.w3.org/2000/svg" xmlns:xlink="http://www.w3.org/1999/xlink">
    <!-- Generator: Sketch 3.8.3 (29802) - http://www.bohemiancoding.com/sketch -->
    <title>Fill 1</title>
    <desc>Created with Sketch.</desc>
    <defs></defs>
    <g id="V1" stroke="none" stroke-width="1" fill="none" fill-rule="evenodd">
        <g id="Desktop-1440" transform="translate(-100.000000, -852.000000)" fill="#000000">
            <g id="main" transform="translate(0.000000, 60.000000)">
                <g id="share" transform="translate(20.000000, 792.000000)">
                    <g id="Page-1">
                        <path d="M97.7942102,10.9786056 C97.7994965,11.1072078 97.8021397,11.2369481 97.8021397,11.3666883 C97.8021397,15.335147 94.7957206,19.9113363 89.2979232,19.9113363 C87.6096916,19.9113363 86.0381372,19.4139986 84.7157961,18.5619617 C84.9491504,18.5896548 85.1874135,18.6040704 85.4283197,18.6040704 C86.8292008,18.6040704 88.1183134,18.1238038 89.1408433,17.3184279 C87.8328508,17.294149 86.7291378,16.4257997 86.3485211,15.2330998 C86.5312775,15.26838 86.7181875,15.2865892 86.9107615,15.2865892 C87.1837634,15.2865892 87.447703,15.2501709 87.6984267,15.1815072 C86.3311517,14.9057143 85.3010699,13.6917703 85.3010699,12.236555 L85.3010699,12.1989986 C85.7039648,12.424337 86.1650094,12.5590089 86.655129,12.5745625 C85.8527376,12.0362543 85.325236,11.1170711 85.325236,10.0749761 C85.325236,9.52490772 85.4724984,9.00898154 85.7296413,8.56551265 C87.2041536,10.3822556 89.4066709,11.5776111 91.8912524,11.702799 C91.8395217,11.4831511 91.8134676,11.2543985 91.8134676,11.0184381 C91.8134676,9.36026658 93.1516677,8.01544429 94.8028949,8.01544429 C95.6623033,8.01544429 96.4386407,8.38038619 96.9842668,8.963838 C97.6650724,8.82954545 98.3054751,8.57954887 98.8828194,8.23547163 C98.6592826,8.93652427 98.1857772,9.52528708 97.5684078,9.89667806 C98.1725614,9.82422078 98.7491504,9.66261449 99.2853367,9.42361928 C98.8843298,10.026039 98.377596,10.5552427 97.7942102,10.9786056 L97.7942102,10.9786056 Z M92.0003776,0 L80,6.9820745 L80,20.9450854 L92.0003776,27.9271599 L104.000755,20.9450854 L104.000755,6.9820745 L92.0003776,0 Z" id="Fill-1"></path>
                    </g>
                </g>
            </g>
        </g>
    </g>
</svg>