<?xml version="1.0" encoding="UTF-8" standalone="no"?>
<svg width="24px" height="28px" viewBox="0 0 24 28" version="1.1" xmlns="http://www.w3.org/2000/svg" xmlns:xlink="http://www.w3.org/1999/xlink">
    <!-- Generator: Sketch 3.8.3 (29802) - http://www.bohemiancoding.com/sketch -->
    <title>Group 15</title>
    <desc>Created with Sketch.</desc>
    <defs></defs>
    <g id="V1" stroke="none" stroke-width="1" fill="none" fill-rule="evenodd">
        <g id="Desktop-1440" transform="translate(-60.000000, -853.000000)" fill="#000000">
            <g id="main" transform="translate(0.000000, 60.000000)">
                <g id="share" transform="translate(20.000000, 792.000000)">
                    <g id="Page-1">
                        <g id="Group-15" transform="translate(40.000000, 1.000000)">
                            <path d="M12.0003776,0 L0,6.9820745 L0,20.9450854 L12.0003776,27.9264012 L24.0007552,20.9450854 L24.0007552,6.9820745 L12.0003776,0 Z M17.7092511,18.5016439 C17.4490875,19.0259159 17.0994336,19.4572454 16.6568911,19.8024607 C16.1354311,20.2144429 15.5633732,20.5050308 14.9365639,20.6810526 C14.3131529,20.8563158 13.5213342,20.9431887 12.5580868,20.9431887 L7.00553807,20.9431887 L7.00553807,7.0071121 L11.9059786,7.0071121 C12.9239773,7.0071121 13.6965387,7.0454272 14.2210195,7.12547163 C14.7458779,7.20210185 15.2386407,7.36484621 15.6966646,7.61446343 C16.1924481,7.88228982 16.5647577,8.2438175 16.8090623,8.69070062 C17.0544997,9.14099795 17.1783512,9.65882092 17.1783512,10.246825 C17.1783512,10.927013 17.010321,11.5313295 16.6697294,12.0612919 C16.3332914,12.592013 15.8650724,12.9816131 15.2703587,13.2338859 L15.2703587,13.3071018 C16.1259912,13.4891934 16.8128383,13.8571702 17.3275016,14.4159638 C17.8429201,14.9751367 18.1008181,15.72892 18.1008181,16.6746582 C18.1008181,17.3677444 17.9705475,17.9781306 17.7092511,18.5016439 L17.7092511,18.5016439 Z" id="Fill-6"></path>
                            <path d="M11.549377,12.62819 C11.78764,12.6156712 12.0357206,12.5511805 12.2902203,12.4335796 C12.5666205,12.3023219 12.7607048,12.1202303 12.8652989,11.8903397 C12.9710258,11.6570349 13.0246444,11.3884498 13.0246444,11.0849638 C13.0246444,10.8584874 12.9676274,10.6282174 12.8532159,10.3918776 C12.7384267,10.1555379 12.5609566,9.98293028 12.3151416,9.8774689 C12.086696,9.77504238 11.8167149,9.72117362 11.5017999,9.71131032 C11.1868848,9.70182638 10.719421,9.69841217 10.0994084,9.69841217 L9.85736941,9.69841217 L9.85736941,12.6471579 L10.2968911,12.6471579 C10.8908496,12.6471579 11.3107363,12.6410882 11.549377,12.62819" id="Fill-8"></path>
                            <path d="M12.8565765,15.1843766 C12.6462555,15.1005386 12.3543738,15.0561538 11.985085,15.0466699 C11.6161737,15.0368066 11.1200126,15.0341511 10.5003776,15.0341511 L9.85733166,15.0341511 L9.85733166,18.5227225 L10.0453744,18.5227225 C10.9512272,18.5227225 11.5780365,18.5158941 11.9246696,18.5037546 C12.2709251,18.4908565 12.6273757,18.4077772 12.9864695,18.2514819 C13.3047829,18.1137751 13.533606,17.9123363 13.6797357,17.6467861 C13.8262429,17.3823739 13.8994965,17.0819228 13.8994965,16.7461914 C13.8994965,16.3144826 13.8137823,15.9798893 13.6385777,15.7367211 C13.4637508,15.4908975 13.2032096,15.3088059 12.8565765,15.1843766" id="Fill-10"></path>
                        </g>
                    </g>
                </g>
            </g>
        </g>
    </g>
</svg>