<?xml version="1.0" encoding="UTF-8" standalone="no"?>
<svg width="27px" height="30px" viewBox="0 0 27 30" version="1.1" xmlns="http://www.w3.org/2000/svg" xmlns:xlink="http://www.w3.org/1999/xlink">
    <!-- Generator: Sketch 3.8.3 (29802) - http://www.bohemiancoding.com/sketch -->
    <title>YouTube</title>
    <desc>Created with Sketch.</desc>
    <defs></defs>
    <g id="V1" stroke="none" stroke-width="1" fill="none" fill-rule="evenodd">
        <g id="Desktop-1440" transform="translate(-700.000000, -3556.000000)" fill="#FFFFFF">
            <g id="Group-10" transform="translate(0.000000, 3501.000000)">
                <g id="Social" transform="translate(580.000000, 55.000000)">
                    <path d="M140.880812,21.9790183 C140.699488,22.766481 140.051904,23.3480119 139.277393,23.4347882 C137.438253,23.6420153 135.573209,23.6420153 133.721118,23.6420153 C131.866436,23.6420153 130.003983,23.6420153 128.164843,23.4347882 C127.387741,23.3480119 126.742747,22.766481 126.561423,21.9777231 C126.30239,20.850926 126.30239,19.6256962 126.30239,18.467815 C126.30239,17.3112291 126.306275,16.0847041 126.565309,14.9617925 C126.746633,14.1717394 127.391627,13.5915037 128.168728,13.5047274 C130.007868,13.2975003 131.870321,13.2975003 133.725003,13.2975003 C135.577095,13.2975003 137.442138,13.2975003 139.281278,13.5047274 C140.05838,13.5915037 140.702079,14.1730346 140.883402,14.9617925 C141.142436,16.0859992 141.142436,17.3112291 141.142436,18.4691102 C141.142436,19.6269913 141.139846,20.8522212 140.880812,21.9790183 L140.880812,21.9790183 Z M129.75531,5.6896775 L130.467653,8.32405129 L131.154093,5.6896775 L132.16821,5.6896775 L130.959817,9.68268359 L130.959817,12.3999482 L129.954766,12.3999482 L129.954766,9.68397876 C129.864104,9.20217588 129.663353,8.49630877 129.340856,7.55990157 C129.128448,6.93822044 128.90827,6.3126538 128.695862,5.69097267 L129.754015,5.69097267 L129.75531,5.6896775 Z M132.177276,9.03121357 C132.177276,8.4950136 132.267938,8.10387256 132.462213,7.85260977 C132.710886,7.50938998 133.064467,7.33842766 133.515186,7.33842766 C133.968495,7.33842766 134.322076,7.50938998 134.573339,7.8513146 C134.762434,8.10387256 134.854391,8.4950136 134.854391,9.0299184 L134.854391,10.7809869 C134.854391,11.3120062 134.763729,11.7057376 134.573339,11.9570004 C134.322076,12.2976298 133.96979,12.4685922 133.515186,12.4685922 C133.064467,12.4685922 132.712181,12.2976298 132.460918,11.9570004 C132.266643,11.7057376 132.175981,11.3120062 132.175981,10.7809869 L132.175981,9.03121357 L132.177276,9.03121357 Z M135.600408,7.39930061 L136.503141,7.39930061 L136.503141,11.080171 C136.503141,11.2938739 136.503141,11.4039632 136.513502,11.4337521 C136.53552,11.5723352 136.606754,11.6448647 136.7285,11.6448647 C136.909824,11.6448647 137.100214,11.5023961 137.298375,11.2200492 L137.298375,7.39930061 L138.204993,7.39930061 L138.204993,12.398653 L137.298375,12.398653 L137.298375,11.854682 C136.939613,12.2665458 136.595098,12.467297 136.26483,12.467297 C135.973417,12.467297 135.772665,12.3507318 135.682004,12.0955835 C135.630197,11.946639 135.601703,11.7070328 135.601703,11.3534516 L135.601703,7.40059578 L135.600408,7.39930061 Z M133.70169,0 L120.75,7.49902862 L120.75,22.5009714 L133.70169,30 L146.65338,22.5009714 L146.65338,7.49902862 L133.70169,0 Z M133.515186,11.647455 C133.807894,11.647455 133.947772,11.4143246 133.947772,10.9532444 L133.947772,8.84988991 C133.947772,8.3862194 133.807894,8.15697449 133.515186,8.15697449 C133.222478,8.15697449 133.082599,8.3862194 133.082599,8.84988991 L133.082599,10.9532444 C133.082599,11.4156197 133.222478,11.647455 133.515186,11.647455 Z M135.845195,16.6714156 C135.513632,16.6714156 135.206677,16.8527393 134.917854,17.2089108 L134.917854,15.0369123 L134.020302,15.0369123 L134.020302,21.6811294 L134.916559,21.6811294 L134.916559,21.2019169 C135.214448,21.57104 135.522698,21.7484782 135.841309,21.7484782 C136.198776,21.7484782 136.437087,21.5606787 136.558833,21.1915555 C136.618411,20.9843285 136.649495,20.6527652 136.649495,20.1942754 L136.649495,18.2256184 C136.649495,17.7567673 136.618411,17.4290895 136.558833,17.2283383 C136.438382,16.8592151 136.198776,16.6714156 135.841309,16.6714156 L135.845195,16.6714156 Z M135.754533,20.2655096 C135.754533,20.712343 135.625016,20.9338169 135.365982,20.9338169 C135.217038,20.9338169 135.068094,20.8625826 134.917854,20.7136381 L134.917854,17.6958943 C135.066798,17.5495402 135.215743,17.4783059 135.363392,17.4783059 C135.622426,17.4783059 135.751943,17.7075508 135.751943,18.1543841 L135.751943,20.2655096 L135.754533,20.2655096 Z M137.626052,17.1791219 C137.435662,17.4290895 137.348886,17.816345 137.348886,18.344774 L137.348886,20.0777101 C137.348886,20.6035488 137.447319,20.9946898 137.637709,21.2433623 C137.896743,21.5801062 138.251619,21.7484782 138.72047,21.7484782 C139.189321,21.7484782 139.557149,21.57104 139.805822,21.2122782 C139.913321,21.0529724 139.984555,20.8729439 140.013049,20.6747831 C140.02341,20.5841212 140.033772,20.3859604 140.033772,20.0971377 L140.033772,19.9676208 L139.118087,19.9676208 C139.118087,20.3263826 139.107726,20.5245435 139.09866,20.5737599 C139.046853,20.8133661 138.919926,20.9338169 138.697157,20.9338169 C138.390202,20.9338169 138.241258,20.7045719 138.241258,20.2473773 L138.241258,19.3692527 L140.033772,19.3692527 L140.033772,18.3460692 C140.033772,17.8150499 139.94311,17.4290895 139.756605,17.180417 C139.505343,16.8397876 139.147876,16.6714156 138.698452,16.6714156 C138.242553,16.6714156 137.885086,16.8397876 137.626052,17.1791219 Z M139.13881,18.6245305 L138.242553,18.6245305 L138.242553,18.1660407 C138.242553,17.7075508 138.391497,17.4796011 138.691976,17.4796011 C138.989865,17.4796011 139.13881,17.7075508 139.13881,18.1660407 L139.13881,18.6232353 L139.13881,18.6245305 Z M132.346943,20.5154773 C132.147487,20.7952338 131.958393,20.9338169 131.779659,20.9338169 C131.660504,20.9338169 131.59186,20.8625826 131.569842,20.7239995 C131.562071,20.6980961 131.562071,20.5867116 131.562071,20.3768942 L131.562071,16.7335837 L130.665814,16.7335837 L130.665814,20.6449942 C130.665814,20.9946898 130.695603,21.2304106 130.743524,21.3806502 C130.834186,21.631913 131.033642,21.7484782 131.322465,21.7484782 C131.652733,21.7484782 131.990772,21.5503173 132.345648,21.1397487 L132.345648,21.6811294 L133.244496,21.6811294 L133.244496,16.7335837 L132.346943,16.7335837 L132.346943,20.5154773 L132.346943,20.5154773 Z M127.409759,15.9733195 L128.464027,15.9733195 L128.464027,21.6798342 L129.461307,21.6798342 L129.461307,15.9720243 L130.536297,15.9720243 L130.536297,15.0369123 L127.409759,15.0369123 L127.409759,15.9733195 Z" id="YouTube"></path>
                </g>
            </g>
        </g>
    </g>
</svg>