<?xml version="1.0" encoding="utf-8"?>
<!-- Generator: Adobe Illustrator 18.0.0, SVG Export Plug-In . SVG Version: 6.00 Build 0)  -->
<!DOCTYPE svg PUBLIC "-//W3C//DTD SVG 1.1//EN" "http://www.w3.org/Graphics/SVG/1.1/DTD/svg11.dtd">
<svg version="1.1" id="Слой_1" xmlns="http://www.w3.org/2000/svg" xmlns:xlink="http://www.w3.org/1999/xlink" x="0px" y="0px"
	 viewBox="0 0 140 101" enable-background="new 0 0 140 101" xml:space="preserve">
<polygon fill="#231F20" points="14.8,1.2 14.8,10.1 6.6,10.1 6.6,1.2 0,1.2 0,25.1 6.6,25.1 6.6,15.8 14.8,15.8 14.8,25.1 
	21.4,25.1 21.4,1.2 "/>
<g>
	<defs>
		<rect id="SVGID_1_" x="0" width="140" height="101"/>
	</defs>
	<clipPath id="SVGID_2_">
		<use xlink:href="#SVGID_1_"  overflow="visible"/>
	</clipPath>
	<path clip-path="url(#SVGID_2_)" fill="#231F20" d="M33.4,17.6h-0.8c-2.3,0-3.2,0.7-3.2,1.9c0,0.9,0.6,1.6,1.7,1.6
		c1.1,0,2.3-0.6,2.3-2.3V17.6z M39.7,18.9c0,0.9,0.2,1.4,0.9,1.4c0.4,0,0.8-0.2,1.2-0.4v4.6c-0.9,0.6-1.7,0.9-3.2,0.9
		c-2.5,0-3.9-1.1-4.6-3c-1.1,1.9-2.7,3-5.4,3c-3.4,0-5.6-2-5.6-5.2c0-4,2.9-6,8.5-6h1.9V13c0-1.2-0.4-2.1-1.6-2.1
		c-1.1,0-1.7,0.7-1.7,2.2l-6.2-1c0.4-3.9,3.4-6.3,8.2-6.3c5.3,0,7.7,2.4,7.7,6.4V18.9z"/>
	<path clip-path="url(#SVGID_2_)" fill="#231F20" d="M55.6,13.7c-0.8-0.3-1.2-0.5-2.3-0.5c-1.5,0-3.4,0.6-3.4,3.9v7.9h-6.5V6.3H49
		l0.6,4.6c0.5-3.1,3.2-4.6,6.3-4.6L55.6,13.7z"/>
	<path clip-path="url(#SVGID_2_)" fill="#231F20" d="M56.4,6.3h6.9l2.1,7.5c0.8,2.7,1.2,4.6,1.2,4.6h0.1c0,0,0.4-1.9,1.3-4.6
		l2.4-7.5h6.3l-6.8,18.7h-7L56.4,6.3z"/>
	<path clip-path="url(#SVGID_2_)" fill="#231F20" d="M86.1,17.6h-0.8c-2.3,0-3.2,0.7-3.2,1.9c0,0.9,0.6,1.6,1.7,1.6
		c1.1,0,2.3-0.6,2.3-2.3V17.6z M92.4,18.9c0,0.9,0.2,1.4,0.9,1.4c0.4,0,0.8-0.2,1.2-0.4v4.6c-0.9,0.6-1.7,0.9-3.2,0.9
		c-2.5,0-3.9-1.1-4.6-3c-1,1.9-2.7,3-5.4,3c-3.4,0-5.6-2-5.6-5.2c0-4,2.9-6,8.5-6h1.9V13c0-1.2-0.4-2.1-1.6-2.1
		c-1.1,0-1.7,0.7-1.7,2.2l-6.2-1c0.4-3.9,3.4-6.3,8.2-6.3c5.3,0,7.7,2.4,7.7,6.4V18.9z"/>
	<path clip-path="url(#SVGID_2_)" fill="#231F20" d="M108.3,13.7c-0.8-0.3-1.2-0.5-2.3-0.5c-1.5,0-3.4,0.6-3.4,3.9v7.9h-6.5V6.3h5.6
		l0.6,4.6c0.5-3.1,3.2-4.6,6.3-4.6L108.3,13.7z"/>
	<path clip-path="url(#SVGID_2_)" fill="#231F20" d="M122.5,14.4c0-2.4-1.2-3.7-3.1-3.7c-1.9,0-3.5,1.4-3.5,5.2
		c0,3.1,1.3,4.7,3.4,4.7c1.7,0,3.2-1.3,3.2-3.8V14.4z M122.5,0h6.5v25.1h-5.9l-0.6-3.2c-0.7,2.5-2.9,3.7-5.7,3.7
		c-4.4,0-7.5-3.4-7.5-9.5c0-6.3,3-10.2,8.2-10.2c2.4,0,4.3,1.1,4.9,2.9V0z"/>
	<path clip-path="url(#SVGID_2_)" fill="#231F20" d="M6.5,49.7H10c1.7,0,2.6-0.7,2.6-2.1c0-1.4-0.9-2.1-2.6-2.1H6.5V49.7z M6.5,41.2
		h2.5c1.7,0,2.7-0.6,2.7-2.3c0-1.6-1.1-2.3-2.7-2.3H6.5V41.2z M19.4,48.7c0,3.9-2.6,6.5-8.4,6.5H0V31.2h10.6c5.1,0,7.8,2.3,7.8,6.2
		c0,2.8-1.6,4.7-4.2,5.4C17.5,43.6,19.4,45.8,19.4,48.7"/>
	<path clip-path="url(#SVGID_2_)" fill="#231F20" d="M32.2,51.6c-0.5,2.5-2.4,4-5.6,4c-3.4,0-5.8-2.1-5.8-6.5V36.4h6.5v11.3
		c0,1.9,0.5,3,2,3c1.7,0,2.7-1.5,2.7-4.6v-9.7h6.5v18.7h-5.9L32.2,51.6z"/>
	<path clip-path="url(#SVGID_2_)" fill="#231F20" d="M45.4,48.7c0.4,1.5,1.5,2.4,2.9,2.4c1.2,0,2-0.4,2-1.2c0-0.8-0.7-1.2-2-1.5
		l-2.5-0.5c-3.4-0.7-5.2-2.5-5.2-5.6c0-4.5,3.9-6.3,8-6.3c4.5,0,7.2,1.9,7.8,5.4l-5.9,0.9c-0.2-1.1-0.8-1.7-2.1-1.7
		c-0.9,0-1.6,0.4-1.6,1.2c0,0.7,0.5,1.1,1.5,1.3l2.5,0.4c4.1,0.7,5.9,2.9,5.9,6.1c0,4.4-3.8,6.1-8.4,6.1c-4.2,0-7.1-1.5-8.1-4.9
		L45.4,48.7z"/>
	<path clip-path="url(#SVGID_2_)" fill="#231F20" d="M65.1,55.1h-6.5V36.4h6.5V55.1z M61.9,28.3c1.9,0,3.6,1.3,3.6,3.4
		c0,2.1-1.7,3.4-3.6,3.4c-1.9,0-3.6-1.3-3.6-3.4C58.3,29.6,59.9,28.3,61.9,28.3"/>
	<path clip-path="url(#SVGID_2_)" fill="#231F20" d="M74.4,40c1-2.8,3.2-4.1,5.9-4.1c2.9,0,5.5,1.7,5.5,6v13.2h-6.5V44.5
		c0-1.9-0.6-3.1-2.2-3.1c-1.4,0-2.6,0.9-2.6,3.7v10H68V36.4h5.9L74.4,40z"/>
	<path clip-path="url(#SVGID_2_)" fill="#231F20" d="M99.2,43.7c0-1.6-0.6-3-2.4-3c-1.6,0-2.6,1.3-2.7,3H99.2z M99.8,48.4l5.4,1.7
		c-1,4-4.4,5.6-8.1,5.6c-5.5,0-9.6-3.5-9.6-9.7c0-6.3,3.6-10,9.4-10c5.5,0,8.4,3.6,8.4,8.8c0,0.7,0,1.5-0.1,2.4H93.9
		c0.1,2.3,1.3,3.6,3.2,3.6C98.5,50.6,99.4,50,99.8,48.4"/>
	<path clip-path="url(#SVGID_2_)" fill="#231F20" d="M111.4,48.7c0.4,1.5,1.5,2.4,2.9,2.4c1.2,0,2-0.4,2-1.2c0-0.8-0.7-1.2-2-1.5
		l-2.5-0.5c-3.4-0.7-5.2-2.5-5.2-5.6c0-4.5,3.9-6.3,8-6.3c4.5,0,7.2,1.9,7.8,5.4l-5.9,0.9c-0.2-1.1-0.8-1.7-2.1-1.7
		c-0.9,0-1.6,0.4-1.6,1.2c0,0.7,0.5,1.1,1.5,1.3l2.5,0.4c4.1,0.7,5.9,2.9,5.9,6.1c0,4.4-3.8,6.1-8.4,6.1c-4.2,0-7.1-1.5-8.1-4.9
		L111.4,48.7z"/>
	<path clip-path="url(#SVGID_2_)" fill="#231F20" d="M128.6,48.7c0.4,1.5,1.5,2.4,2.9,2.4c1.2,0,2-0.4,2-1.2c0-0.8-0.7-1.2-2-1.5
		l-2.5-0.5c-3.4-0.7-5.2-2.5-5.2-5.6c0-4.5,3.9-6.3,8-6.3c4.5,0,7.2,1.9,7.8,5.4l-5.9,0.9c-0.2-1.1-0.8-1.7-2.1-1.7
		c-0.9,0-1.6,0.4-1.6,1.2c0,0.7,0.5,1.1,1.5,1.3l2.5,0.4c4.1,0.7,5.9,2.9,5.9,6.1c0,4.4-3.8,6.1-8.4,6.1c-4.2,0-7.1-1.5-8.1-4.9
		L128.6,48.7z"/>
	<path clip-path="url(#SVGID_2_)" fill="#231F20" d="M6.6,71.1h2.5c2.3,0,3.3-0.9,3.3-2.6c0-1.7-1-2.6-3.3-2.6H6.6V71.1z M13.3,84.1
		c-0.8-0.6-1.1-1.5-1.3-2.7l-0.7-3c-0.4-1.7-1.1-2-2.6-2H6.6v7.7H0V60.2h10.2c5.3,0,9,2.1,9,7.5c0,3.8-2.4,5.6-5.1,6.1
		c2.2,0.4,3.3,1.4,3.8,3.5l1.1,4.1c0.3,1.1,0.6,1.9,1.5,2.7H13.3z"/>
	<path clip-path="url(#SVGID_2_)" fill="#231F20" d="M31.8,72.7c0-1.6-0.6-3-2.4-3c-1.6,0-2.6,1.3-2.7,3H31.8z M32.4,77.3l5.4,1.7
		c-1.1,4-4.4,5.6-8.1,5.6c-5.5,0-9.6-3.5-9.6-9.7c0-6.3,3.6-10,9.4-10c5.5,0,8.4,3.6,8.4,8.8c0,0.7,0,1.5-0.1,2.4H26.5
		c0.1,2.3,1.3,3.6,3.2,3.6C31,79.6,32,79,32.4,77.3"/>
	<path clip-path="url(#SVGID_2_)" fill="#231F20" d="M37.5,65.4h6.9l2.1,7.5c0.8,2.7,1.2,4.6,1.2,4.6h0.1c0,0,0.4-1.9,1.3-4.6
		l2.4-7.5h6.3L51,84.1h-7L37.5,65.4z"/>
	<path clip-path="url(#SVGID_2_)" fill="#231F20" d="M65.7,84.1h-6.5V65.4h6.5V84.1z M62.4,57.3c1.9,0,3.6,1.3,3.6,3.4
		c0,2.1-1.7,3.4-3.6,3.4c-1.9,0-3.6-1.3-3.6-3.4C58.8,58.6,60.5,57.3,62.4,57.3"/>
	<path clip-path="url(#SVGID_2_)" fill="#231F20" d="M79.3,72.7c0-1.6-0.6-3-2.4-3c-1.6,0-2.6,1.3-2.7,3H79.3z M80,77.3l5.4,1.7
		c-1,4-4.4,5.6-8.1,5.6c-5.5,0-9.6-3.5-9.6-9.7c0-6.3,3.6-10,9.4-10c5.5,0,8.4,3.6,8.4,8.8c0,0.7,0,1.5-0.1,2.4H74
		c0.1,2.3,1.3,3.6,3.2,3.6C78.6,79.6,79.5,79,80,77.3"/>
	<path clip-path="url(#SVGID_2_)" fill="#231F20" d="M103,65.4l1.3,6.5c0.7,3.4,1.1,5.9,1.1,5.9h0.1c0,0,0.4-2.5,1.2-5.8l1.5-6.6
		h6.3l-5.1,18.7h-7.3l-1.1-5.5c-0.6-2.8-1-6-1-6h-0.1c0,0-0.4,3.2-1,6l-1.1,5.5h-7.3l-5.1-18.7H92l1.5,6.6c0.8,3.3,1.2,5.8,1.2,5.8
		h0.1c0,0,0.4-2.5,1.1-5.9l1.3-6.5H103z"/>
	<path clip-path="url(#SVGID_2_)" fill="#4D4D4D" d="M2.4,97.1c0.5,0,0.8,0,1.1-0.1c0.5-0.2,0.8-0.6,0.8-1c0-0.3-0.1-0.6-0.3-0.7
		c-0.2-0.2-0.6-0.3-1.3-0.3H1.1v2.2H2.4z M0,94.1h2.7c0.6,0,0.9,0,1.3,0.1c0.9,0.2,1.5,0.9,1.5,1.7c0,0.5-0.2,1-0.6,1.3
		c-0.5,0.4-1.2,0.6-2.4,0.6H1.1v3H0V94.1z"/>
	<path clip-path="url(#SVGID_2_)" fill="#4D4D4D" d="M9.9,100.2c1.6,0,2.5-0.9,2.5-2.8c0-1.8-0.8-2.6-2.4-2.6
		c-1.7,0-2.6,0.9-2.6,2.7C7.4,99.3,8.3,100.2,9.9,100.2 M10,94c2.3,0,3.6,1.2,3.6,3.4c0,2-1.1,3.6-3.7,3.6c-2.3,0-3.6-1.2-3.6-3.5
		C6.2,95.3,7.6,94,10,94"/>
	<path clip-path="url(#SVGID_2_)" fill="#4D4D4D" d="M19.5,96c0-0.3-0.1-0.4-0.2-0.5c-0.3-0.4-0.8-0.6-1.5-0.6c-1.5,0-2.3,1-2.3,2.8
		c0,1.7,0.8,2.6,2.3,2.6c0.9,0,1.5-0.4,1.7-1.1h1.2c0,0.4-0.1,0.5-0.3,0.8c-0.5,0.7-1.5,1.1-2.7,1.1c-2.1,0-3.3-1.3-3.3-3.4
		c0-1.9,1-3.5,3.5-3.5c0.8,0,1.5,0.2,2,0.5c0.6,0.4,0.8,0.8,0.9,1.4H19.5z"/>
	<path clip-path="url(#SVGID_2_)" fill="#4D4D4D" d="M26.3,96c0-0.3-0.1-0.4-0.2-0.5c-0.3-0.4-0.8-0.6-1.5-0.6c-1.5,0-2.3,1-2.3,2.8
		c0,1.7,0.8,2.6,2.3,2.6c0.9,0,1.5-0.4,1.7-1.1h1.2c0,0.4-0.1,0.5-0.3,0.8c-0.5,0.7-1.5,1.1-2.7,1.1c-2.1,0-3.3-1.3-3.3-3.4
		c0-1.9,1-3.5,3.5-3.5c0.8,0,1.5,0.2,2,0.5c0.6,0.4,0.8,0.8,0.9,1.4H26.3z"/>
</g>
<polygon fill="#4D4D4D" points="33.6,94.1 29.9,99.4 29.8,99.4 29.8,94.1 28.7,94.1 28.7,100.9 29.9,100.9 33.6,95.6 33.6,95.6 
	33.6,100.9 34.7,100.9 34.7,94.1 "/>
<g>
	<defs>
		<rect id="SVGID_3_" x="0" width="140" height="101"/>
	</defs>
	<clipPath id="SVGID_4_">
		<use xlink:href="#SVGID_3_"  overflow="visible"/>
	</clipPath>
	<path clip-path="url(#SVGID_4_)" fill="#4D4D4D" d="M40.9,94.9h-1.8c-1,0-1.5,0.4-1.5,1.1c0,0.7,0.5,1,1.5,1h1.8V94.9z M40.9,100.9
		v-3.1h-1.6c-0.7,0-0.9,0.1-1.2,0.3c-0.4,0.4-0.4,1-0.5,1.5c-0.1,0.4-0.2,0.8-0.3,1.2h-1.2c0.1-0.2,0.1-0.3,0.2-0.5
		c0.1-0.3,0.2-0.6,0.2-1.1l0.1-0.4c0.1-0.4,0.2-0.7,0.3-0.9c0.2-0.2,0.4-0.4,0.9-0.5v0c-0.4-0.1-0.6-0.2-0.8-0.3
		c-0.5-0.3-0.7-0.8-0.7-1.3c0-1.1,1-1.7,2.7-1.7H42v6.7H40.9z"/>
</g>
</svg>
