<?xml version="1.0" encoding="utf-8"?>
<!-- Generator: Adobe Illustrator 18.0.0, SVG Export Plug-In . SVG Version: 6.00 Build 0)  -->
<!DOCTYPE svg PUBLIC "-//W3C//DTD SVG 1.1//EN" "http://www.w3.org/Graphics/SVG/1.1/DTD/svg11.dtd">
<svg version="1.1" id="Слой_1" xmlns="http://www.w3.org/2000/svg" xmlns:xlink="http://www.w3.org/1999/xlink" x="0px" y="0px"
	 viewBox="0 0 16 28" enable-background="new 0 0 16 28" xml:space="preserve">
<g>
	<defs>
		<rect id="SVGID_1_" width="16" height="28"/>
	</defs>
	<clipPath id="SVGID_2_">
		<use xlink:href="#SVGID_1_"  overflow="visible"/>
	</clipPath>
	<path clip-path="url(#SVGID_2_)" fill="#FFFFFF" d="M8,14.2c3.7,0,6.7-3.2,6.7-7.1c0-3.9-3-7.1-6.7-7.1C4.3,0,1.3,3.2,1.3,7.1
		C1.3,11,4.3,14.2,8,14.2 M8,3.6c1.8,0,3.3,1.6,3.3,3.5S9.8,10.6,8,10.6c-1.8,0-3.3-1.6-3.3-3.5S6.2,3.6,8,3.6 M15.8,15
		c-0.4-0.8-1.4-1.5-2.8-0.3C11,16.3,8,16.3,8,16.3s-3,0-4.9-1.6c-1.4-1.2-2.5-0.5-2.8,0.3c-0.7,1.4,0.1,2.1,1.8,3.2
		c1.4,1,3.4,1.3,4.7,1.5l-1.1,1.1c-1.5,1.6-3,3.1-4,4.2c-0.6,0.6-0.6,1.7,0,2.3l0.2,0.2C2.2,27.8,2.6,28,3,28h0
		c0.4,0,0.8-0.2,1.1-0.5l4-4.2c1.5,1.6,3,3.1,4,4.2c0.6,0.6,1.6,0.6,2.2,0l0.2-0.2c0.6-0.6,0.6-1.7,0-2.3l-4-4.2l-1.1-1.1
		c1.3-0.1,3.2-0.5,4.7-1.5C15.7,17.1,16.4,16.4,15.8,15"/>
</g>
</svg>
