<?xml version="1.0" encoding="utf-8"?>
<!-- Generator: Adobe Illustrator 18.0.0, SVG Export Plug-In . SVG Version: 6.00 Build 0)  -->
<!DOCTYPE svg PUBLIC "-//W3C//DTD SVG 1.1//EN" "http://www.w3.org/Graphics/SVG/1.1/DTD/svg11.dtd">
<svg version="1.1" id="Слой_1" xmlns="http://www.w3.org/2000/svg" xmlns:xlink="http://www.w3.org/1999/xlink" x="0px" y="0px"
	 viewBox="0 0 14 17.9" enable-background="new 0 0 14 17.9" xml:space="preserve">
<g>
	<defs>
		<rect id="SVGID_1_" width="14" height="17.9"/>
	</defs>
	<clipPath id="SVGID_2_">
		<use xlink:href="#SVGID_1_"  overflow="visible"/>
	</clipPath>
	<path clip-path="url(#SVGID_2_)" fill="#FFFFFF" d="M6.9,4.2C7.1,0.4,10.5,0,10.5,0C10.7,3.9,6.9,4.2,6.9,4.2 M11.4,9.8
		c0,1.6,1.1,3,2.6,3.5l0,0c-0.9,2.5-2.8,4.1-2.8,4.1c-1,1.1-2.5,0.1-2.5,0.1c-1.2-0.8-3,0-3,0c-1.4,1-2.4,0-2.4,0
		c-1.5-1.1-2.9-4.3-2.9-4.3c-1.9-6,2-7.9,2-7.9C4.4,4,7,5.8,7,5.8c4.5-2.7,6.5,0.6,6.5,0.7C12.3,7.1,11.4,8.3,11.4,9.8"/>
</g>
</svg>
