<?xml version="1.0" encoding="utf-8"?>
<!-- Generator: Adobe Illustrator 18.0.0, SVG Export Plug-In . SVG Version: 6.00 Build 0)  -->
<!DOCTYPE svg PUBLIC "-//W3C//DTD SVG 1.1//EN" "http://www.w3.org/Graphics/SVG/1.1/DTD/svg11.dtd">
<svg version="1.1" id="Слой_1" xmlns="http://www.w3.org/2000/svg" xmlns:xlink="http://www.w3.org/1999/xlink" x="0px" y="0px"
	 viewBox="0 0 9.1 6.3" enable-background="new 0 0 9.1 6.3" xml:space="preserve">
<g>
	<defs>
		<rect id="SVGID_1_" x="0" y="0" width="9.1" height="6.3"/>
	</defs>
	<clipPath id="SVGID_2_">
		<use xlink:href="#SVGID_1_"  overflow="visible"/>
	</clipPath>
	<path clip-path="url(#SVGID_2_)" fill="#C82502" d="M8.8,0.1L4.6,4.3L0.3,0.1C0.2,0,0.2,0,0.1,0C0,0,0,0.1,0,0.2v1.5
		c0,0.1,0,0.2,0.1,0.2l4.3,4.3c0,0,0.1,0.1,0.2,0.1c0.1,0,0.1,0,0.2-0.1L9,1.9c0.1-0.1,0.1-0.1,0.1-0.2V0.2C9.1,0.1,9.1,0,9,0
		C9,0,8.9,0,8.8,0.1"/>
</g>
</svg>
