<?xml version="1.0" encoding="utf-8"?>
<!-- Generator: Adobe Illustrator 18.0.0, SVG Export Plug-In . SVG Version: 6.00 Build 0)  -->
<!DOCTYPE svg PUBLIC "-//W3C//DTD SVG 1.1//EN" "http://www.w3.org/Graphics/SVG/1.1/DTD/svg11.dtd">
<svg version="1.1" id="Слой_1" xmlns="http://www.w3.org/2000/svg" xmlns:xlink="http://www.w3.org/1999/xlink" x="0px" y="0px"
	 viewBox="0 0 6.3 9.1" enable-background="new 0 0 6.3 9.1" xml:space="preserve">
<g>
	<defs>
		<rect id="SVGID_1_" x="0" y="0" width="6.3" height="9.1"/>
	</defs>
	<clipPath id="SVGID_2_">
		<use xlink:href="#SVGID_1_"  overflow="visible"/>
	</clipPath>
	<path clip-path="url(#SVGID_2_)" fill="#C82502" d="M0.1,0.3l4.3,4.3L0.1,8.8C0,8.9,0,9,0,9c0,0.1,0.1,0.1,0.2,0.1h1.5
		c0.1,0,0.1,0,0.2-0.1l4.3-4.3c0,0,0.1-0.1,0.1-0.2c0-0.1,0-0.1-0.1-0.2L1.9,0.1C1.8,0,1.8,0,1.7,0H0.2C0.1,0,0,0,0,0.1
		C0,0.2,0,0.2,0.1,0.3"/>
</g>
</svg>
