<?xml version="1.0" encoding="utf-8"?>
<!-- Generator: Adobe Illustrator 18.0.0, SVG Export Plug-In . SVG Version: 6.00 Build 0)  -->
<!DOCTYPE svg PUBLIC "-//W3C//DTD SVG 1.1//EN" "http://www.w3.org/Graphics/SVG/1.1/DTD/svg11.dtd">
<svg version="1.1" id="Слой_1" xmlns="http://www.w3.org/2000/svg" xmlns:xlink="http://www.w3.org/1999/xlink" x="0px" y="0px"
	 viewBox="0 0 5 7.3" enable-background="new 0 0 5 7.3" xml:space="preserve">
<g>
	<defs>
		<rect id="SVGID_1_" x="0" y="0" width="5" height="7.3"/>
	</defs>
	<clipPath id="SVGID_2_">
		<use xlink:href="#SVGID_1_"  overflow="visible"/>
	</clipPath>
	<path clip-path="url(#SVGID_2_)" fill="#F3F4F5" d="M0.1,0.2l3.4,3.4L0.1,7C0,7.1,0,7.1,0,7.2c0,0.1,0.1,0.1,0.2,0.1h1.2
		c0.1,0,0.1,0,0.2-0.1l3.4-3.4C5,3.7,5,3.7,5,3.6c0,0,0-0.1-0.1-0.1L1.5,0.1C1.4,0,1.4,0,1.3,0H0.2C0.1,0,0,0,0,0.1
		C0,0.1,0,0.2,0.1,0.2"/>
</g>
</svg>
