<?xml version="1.0" encoding="utf-8"?>
<!-- Generator: Adobe Illustrator 18.0.0, SVG Export Plug-In . SVG Version: 6.00 Build 0)  -->
<!DOCTYPE svg PUBLIC "-//W3C//DTD SVG 1.1//EN" "http://www.w3.org/Graphics/SVG/1.1/DTD/svg11.dtd">
<svg version="1.1" id="Слой_1" xmlns="http://www.w3.org/2000/svg" xmlns:xlink="http://www.w3.org/1999/xlink" x="0px" y="0px"
	 viewBox="0 0 12 16" enable-background="new 0 0 12 16" xml:space="preserve">
<g>
	<defs>
		<rect id="SVGID_1_" width="12" height="16"/>
	</defs>
	<clipPath id="SVGID_2_">
		<use xlink:href="#SVGID_1_"  overflow="visible"/>
	</clipPath>
	<path clip-path="url(#SVGID_2_)" fill="#3BB3C2" d="M10.5,14.4h-9V8h0.6h7.8h0.6V14.4z M2.9,5c0-1.9,1.4-3.4,3.1-3.4S9.2,3.1,9.2,5
		v1.4H2.9V5z M11.2,6.4h-0.6V5c0-2.7-2.1-5-4.6-5C3.5,0,1.4,2.2,1.4,5v1.4H0.8C0.3,6.4,0,6.7,0,7.2v8C0,15.6,0.3,16,0.8,16h10.5
		c0.4,0,0.8-0.4,0.8-0.8v-8C12,6.7,11.7,6.4,11.2,6.4"/>
</g>
</svg>
