<?xml version="1.0" encoding="utf-8"?>
<!-- Generator: Adobe Illustrator 18.0.0, SVG Export Plug-In . SVG Version: 6.00 Build 0)  -->
<!DOCTYPE svg PUBLIC "-//W3C//DTD SVG 1.1//EN" "http://www.w3.org/Graphics/SVG/1.1/DTD/svg11.dtd">
<svg version="1.1" id="Слой_1" xmlns="http://www.w3.org/2000/svg" xmlns:xlink="http://www.w3.org/1999/xlink" x="0px" y="0px"
	 viewBox="0 0 15.4 12.6" enable-background="new 0 0 15.4 12.6" xml:space="preserve">
<g>
	<defs>
		<rect id="SVGID_1_" x="0" y="0" width="15.4" height="12.6"/>
	</defs>
	<clipPath id="SVGID_2_">
		<use xlink:href="#SVGID_1_"  overflow="visible"/>
	</clipPath>
	<path clip-path="url(#SVGID_2_)" fill="#FFFFFF" d="M15.4,1.5c-0.6,0.3-1.2,0.4-1.8,0.5c0.7-0.4,1.2-1,1.4-1.8
		c-0.6,0.4-1.3,0.6-2,0.8c-0.6-0.6-1.4-1-2.3-1C8.9,0,7.5,1.4,7.5,3.2c0,0.2,0,0.5,0.1,0.7C5,3.8,2.6,2.5,1.1,0.6
		c-0.3,0.5-0.4,1-0.4,1.6c0,1.1,0.6,2.1,1.4,2.6c-0.5,0-1-0.2-1.4-0.4c0,0,0,0,0,0c0,1.5,1.1,2.8,2.5,3.1C2.9,7.7,2.6,7.7,2.3,7.7
		c-0.2,0-0.4,0-0.6-0.1c0.4,1.3,1.6,2.2,3,2.2c-1.1,0.9-2.4,1.4-3.9,1.4c-0.3,0-0.5,0-0.8,0c1.4,0.9,3.1,1.4,4.8,1.4
		c5.8,0,9-4.8,9-9.1c0-0.1,0-0.3,0-0.4C14.4,2.7,15,2.1,15.4,1.5"/>
</g>
</svg>
