<?xml version="1.0" encoding="utf-8"?>
<!-- Generator: Adobe Illustrator 18.0.0, SVG Export Plug-In . SVG Version: 6.00 Build 0)  -->
<!DOCTYPE svg PUBLIC "-//W3C//DTD SVG 1.1//EN" "http://www.w3.org/Graphics/SVG/1.1/DTD/svg11.dtd">
<svg version="1.1" id="Слой_1" xmlns="http://www.w3.org/2000/svg" xmlns:xlink="http://www.w3.org/1999/xlink" x="0px" y="0px"
	 viewBox="0 0 11.2 15.4" enable-background="new 0 0 11.2 15.4" xml:space="preserve">
<g>
	<defs>
		<rect id="SVGID_1_" x="0" y="0" width="11.2" height="15.4"/>
	</defs>
	<clipPath id="SVGID_2_">
		<use xlink:href="#SVGID_1_"  overflow="visible"/>
	</clipPath>
	<path clip-path="url(#SVGID_2_)" fill="#FFFFFF" d="M3.5,12.6c1.8,0,4,0.3,4.1-1.9c0-2.3-2.3-1.9-4.1-1.9L3.5,12.6z M3.5,4l0,2
		c1.6,0,3.2,0.2,3.2-1.7c0-1.8-1.7-1.5-3.2-1.5L3.5,4z M0,0h6.4c2.1,0,3.9,1.1,3.9,3.4c0,1.9-0.6,2.6-1.9,3.5C8.5,7,9.2,7.2,9.4,7.4
		c0.4,0.2,0.6,0.4,0.9,0.7c0.7,0.8,0.9,1.6,0.9,2.8c0,3-2.6,4.5-5.1,4.5H0L0,0z"/>
</g>
</svg>
