<?xml version="1.0" encoding="utf-8"?>
<!-- Generator: Adobe Illustrator 18.0.0, SVG Export Plug-In . SVG Version: 6.00 Build 0)  -->
<!DOCTYPE svg PUBLIC "-//W3C//DTD SVG 1.1//EN" "http://www.w3.org/Graphics/SVG/1.1/DTD/svg11.dtd">
<svg version="1.1" id="Layer_1" xmlns="http://www.w3.org/2000/svg" xmlns:xlink="http://www.w3.org/1999/xlink" x="0px" y="0px"
	 viewBox="0 0 358.29 115.135" enable-background="new 0 0 358.29 115.135" xml:space="preserve">
<g>
	<path d="M314.164,79.445c0,0,0.657-1.307,1.136-2.347c0.78-1.712,1.112-3.814,1.112-3.814h10.263V84.82
		c0,0,0.098,3.127,3.419,3.127c3.322,0,3.421-1.467,3.421-3.518c0-2.054,0.396-6.355-2.147-10.458
		c-2.541-4.107-8.893-12.218-10.07-13.392c-1.171-1.171-2.247-2.347-2.247-2.347s0.193-4.253-0.294-10.704
		c-0.489-6.455-3.421-13.341-3.421-13.341s3.324-6.063,14.759-6.063c11.439,0,16.034,5.279,16.034,10.264c0,4.986,0,12.121,0,12.121
		h-12.613V39.566c0,0,0.296-3.425-3.321-3.425c-3.615,0-3.615,2.247-3.615,3.226c0,0.979,0,4.792,0,4.792s-0.1,2.441,1.758,4.789
		c1.857,2.345,11.34,14.074,12.61,15.933c1.269,1.854,5.182,6.742,5.276,12.608c0.097,5.864,0,7.821,0,7.821
		s0.097,10.848-15.05,10.848c-13.593,0-16.716-4.692-16.909-9.286C314.064,82.279,314.164,79.445,314.164,79.445z"/>
	<path d="M0,72.587h12.415v11.21c0,2.456,1.196,3.685,3.591,3.685c2.393,0,3.59-1.229,3.59-3.685c0-6.015-2.446-12.063-7.325-18.142
		c-4.884-6.077-8.151-9.987-9.799-11.713C0.821,52.213,0,49.845,0,46.836v-8.049c0-7.635,5.336-11.45,16.007-11.45
		c10.668,0,16.004,3.815,16.004,11.45v11.102H19.597V38.787c0-2.457-1.197-3.689-3.59-3.689c-2.395,0-3.591,1.232-3.591,3.689
		c-0.127,4.458,0.437,7.401,1.697,8.823c1.26,1.423,4.558,5.517,9.894,12.272c5.338,6.757,8.004,12.03,8.004,15.814v8.101
		c0,7.952-5.336,11.927-16.004,11.927C5.336,95.724,0,91.75,0,83.797V72.587z"/>
	<path d="M90.221,95.244H77.803V38.787c0-2.457-1.195-3.689-3.584-3.689c-2.395,0-3.593,1.232-3.593,3.689v56.457H58.209V38.787
		c0-2.457-1.197-3.689-3.591-3.689c-2.391,0-3.584,1.232-3.584,3.689v56.457h-12.42V27.337h12.42v2.425
		c2.391-1.618,5.704-2.425,9.941-2.425c3.203,0,6.419,1.294,9.652,3.876c2.392-2.582,5.397-3.876,9.022-3.876
		c2.391,0,4.753,0.729,7.078,2.182c2.332,1.456,3.495,4.545,3.495,9.268V95.244z"/>
	<path d="M129.365,95.244h-12.417V93.06c-0.969,1.973-3.896,2.96-8.779,2.96c-7.211,0-10.816-2.845-10.816-8.538v-21.78
		c0-2.522,0.836-4.717,2.503-6.593c1.661-1.877,5.259-4.223,10.788-7.035c3.849-1.618,5.948-2.912,6.305-3.884v-9.403
		c0-2.457-1.196-3.689-3.587-3.689c-2.395,0-3.589,1.232-3.589,3.689v10.375H97.353V38.787c0-7.635,5.334-11.45,16.008-11.45
		c10.67,0,16.004,3.815,16.004,11.45V95.244z M116.948,83.797V59.06c-4.816,0.777-7.21,2.199-7.176,4.268v20.47
		c0,2.456,1.194,3.685,3.589,3.685C115.752,87.482,116.948,86.253,116.948,83.797z"/>
	<path d="M168.431,59.119h-12.415V38.787c0-2.457-1.193-3.689-3.59-3.689c-2.395,0-3.588,1.232-3.588,3.689v56.457H136.42V27.337
		h12.418v2.329c2.396-1.551,5.709-2.329,9.943-2.329c2.488,0,4.72,1.052,6.695,3.155c1.969,2.099,2.955,4.866,2.955,8.295V59.119z"
		/>
	<path d="M195.685,35.128h-9.609v45.563c0,4.527,1.197,6.791,3.588,6.791h6.021v7.762h-6.021c-6.012,0-10.185-1.175-12.513-3.518
		c-2.326-2.343-3.491-6.021-3.491-11.035V35.128h-3.687v-7.761h3.687V12.815h12.416v14.552h9.609V35.128z"/>
	<path d="M225.64,58.132c0.14-7.415,1.725-14.673,3.025-21.712c0.674-3.14,1.166-4.87,1.386-6.535
		c0.803-6.233-4.004-11.458-11.242-8.14c-3.003,1.378-8.197,6.132-8.197,6.132l-0.004-4.407l0.043-10.739H198.19v82.251h12.61
		l0.035-2.558c0,0,3.796,1.603,5.48,2.193c1.687,0.585,3.27,0.98,4.646,1.481c8.177,2.979,12.079-1.12,10.331-6.095
		C228.981,83.426,225.274,77.346,225.64,58.132z M209.645,78.414c-6.33-15.197-3.259-32.914-3.259-32.914s0.687-4.199,1.627-7.828
		c0.865-3.335,2.777-5.646,4.794-5.467c3.655,0.325,1.626,7.753,1.082,12.195c-0.58,4.741-1.97,14.951,1.022,28.52
		c1.655,7.471,3.087,11.351,1.077,12.425C215.364,85.681,211.859,83.722,209.645,78.414z"/>
	<path d="M280.73,34.681c-0.84-11.697-8.074-19.237-26.444-19.677c-18.368-0.441-20.974,15.703-21.131,16.861
		c-0.753,5.43-1.702,13.452-1.702,13.452l17.586-0.256c0,0,0.136-11.582,0.136-13.634c0-2.056-0.136-6.453,5.391-6.307
		c5.521,0.146,4.276,5.28,4.416,8.648c0.138,3.374-0.574,10.842-0.574,10.842s0.023-0.136-2.188,1.772
		c-2.207,1.906-8.425,4.397-14.917,8.354c-6.49,3.96-9.443,9.202-9.443,15.647c0,5.302,2.262,16.171,4.195,24.526
		c1.934,8.357,11.049,10.85,17.269,10.557c3.724-0.176,6.63-1.761,6.63-1.761v1.613c0,0,4.419,0.294,7.318,0.294
		c2.9,0,7.457-0.584,7.457-0.584s4.919-17.194,5.819-28.445C281.76,61.533,282.021,52.665,280.73,34.681z M259.394,94.468
		c0,0.607,0.138,3.959-3.865,3.959c-4.005,0-5.985-3.32-6.538-7.834c-1.014-8.277-1.286-14.727-1.1-18.766
		c0.135-3.08,0.729-8.587,5.842-9.762c4.19-0.959,4.478-1.385,4.478-1.385s0.032,9.988,0.505,17.301
		C259.274,86.57,259.394,91.199,259.394,94.468z"/>
	<path d="M293.027,102.317c6.837-13.925,12.026-30.356,12.026-46.851c0-16.634-5.546-33.028-12.093-46.926l-0.807-0.617
		c0,0-2.491-1.53-7.001-3.463c-3.571-1.531-5.084-1.863-6.227-2.006c0,0,8.383,22.209,8.383,55.247
		c0,30.886-8.666,47.938-8.666,47.938s6.337-1.176,9.72-1.955c3.381-0.785,4.656-1.357,4.656-1.357L293.027,102.317z"/>
	<g>
		<path d="M314.535,42.812c-2.358-10.333-7.415-19.64-14.384-27.137c-0.077-0.069-0.15-0.127-0.222-0.179
			c-0.604-0.43-1.594-1.17-1.729-1.274c5.98,12.864,9.911,27.242,9.911,42.361c0,14.545-3.677,28.324-9.245,40.805
			c0.234-0.139,0.568-0.345,0.942-0.591c6.51-6.885,11.388-15.329,14.01-24.712c1.432-5.1,2.194-10.477,2.194-16.031
			C316.013,51.501,315.505,47.071,314.535,42.812z"/>
	</g>
	<path d="M262.718,111.246c-19.003,0.353-31.241-5.611-43.957-13.66c10.523,10.824,25.244,17.55,41.533,17.55
		c12.838,0,24.697-4.177,34.303-11.241C284.789,108.015,274.015,111.038,262.718,111.246z"/>
	<g>
		<path d="M341.523,20.493c0,4.626,3.763,8.385,8.386,8.385s8.381-3.76,8.381-8.385c0-4.62-3.758-8.383-8.381-8.383
			S341.523,15.873,341.523,20.493z M342.643,20.493c0-4.004,3.26-7.266,7.266-7.266c4.005,0,7.266,3.262,7.266,7.266
			c0,4.009-3.261,7.269-7.266,7.269C345.903,27.762,342.643,24.502,342.643,20.493z"/>
	</g>
	<g>
		<path d="M346.314,15.754h4.296c1.054,0,3.218,0.154,3.218,2.605c0,1.096-0.612,2.19-1.664,2.399v0.04
			c1.304,0.474,1.373,1.345,1.401,2.347c0.038,1.341-0.016,1.756,0.388,2.313h-1.373c-0.347-0.43-0.347-0.789-0.359-2.052
			c-0.016-1-0.084-2.064-1.832-2.064h-2.768v4.117h-1.307V15.754z M347.621,20.247h2.908c0.62,0,1.916-0.237,1.916-1.747
			c0-1.277-0.893-1.646-2.112-1.646h-2.712V20.247z"/>
	</g>
	<path d="M257.631,0.104c-15.751,0.91-29.747,7.722-39.996,18.155l-0.034,0.012c0,0-0.147,0.161-0.396,0.432
		c-1.035,1.075-2.031,2.188-2.985,3.336c-0.829,0.95-1.593,1.858-1.994,2.414c-1.166,1.613-2.017,3.226-2.017,3.226l-0.537,1.031
		l0.894-0.717c0,0,2.014-2.907,5.735-6.363c0.876-0.813,1.914-1.613,2.896-2.313c13.719-9.081,28.961-14.609,46.995-16.655
		c4.227-0.478,8.439-0.415,12.564-0.082C272.099,0.575,264.979-0.323,257.631,0.104z"/>
</g>
</svg>
