<?xml version="1.0" encoding="UTF-8" standalone="no"?>
<svg width="61px" height="53px" viewBox="0 0 61 53" version="1.1" xmlns="http://www.w3.org/2000/svg" xmlns:xlink="http://www.w3.org/1999/xlink">
    <!-- Generator: Sketch 39.1 (31720) - http://www.bohemiancoding.com/sketch -->
    <title>Page 1</title>
    <desc>Created with Sketch.</desc>
    <defs>
        <polygon id="path-1" points="0.245851786 52.6899408 47.6436687 52.6899408 47.6436687 0.143729467 0.245851786 0.143729467 0.245851786 52.6899408"></polygon>
        <polygon id="path-3" points="0 52.8178633 61 52.8178633 61 0.271597633 0 0.271597633"></polygon>
    </defs>
    <g id="Page-1" stroke="none" stroke-width="1" fill="none" fill-rule="evenodd">
        <g id="Scroll-menu" transform="translate(-179.000000, -17.000000)">
            <g id="Page-1" transform="translate(179.000000, 17.000000)">
                <g id="Group-3" transform="translate(6.535714, 0.127922)">
                    <mask id="mask-2" fill="white">
                        <use xlink:href="#path-1"></use>
                    </mask>
                    <g id="Clip-2"></g>
                    <path d="M0.245851786,0.143729467 L0.245851786,28.5121022 C0.245851786,35.2251809 4.23944554,41.5020738 11.7939143,46.6635153 C17.4418607,50.5229176 23.0345259,52.389065 23.2703562,52.4670135 L23.9451687,52.6899951 L24.6197089,52.4675567 C24.8549946,52.3901514 30.4471152,50.5234608 36.0964232,46.6640585 C43.6506196,41.502617 47.6436687,35.2251809 47.6436687,28.5126454 L47.6436687,0.143729467 L0.245851786,0.143729467 Z" id="Fill-1" fill="#FFFFFF" mask="url(#mask-2)"></path>
                </g>
                <path d="M30.4696932,4.86534033 C20.1433723,4.86534033 11.7421482,13.4566187 11.7421482,24.0166428 C11.7421482,34.576667 20.1433723,43.1676788 30.4696932,43.1676788 C40.7960141,43.1676788 49.1975054,34.576667 49.1975054,24.0166428 C49.1975054,13.4566187 40.7960141,4.86534033 30.4696932,4.86534033 M30.4092525,44.5165096 C19.3813228,44.5165096 10.4093912,35.3204761 10.4093912,24.0166483 C10.4093912,12.7128205 19.3813228,3.51650959 30.4092525,3.51650959 C41.4374597,3.51650959 50.4093912,12.7128205 50.4093912,24.0166483 C50.4093912,35.3204761 41.4374597,44.5165096 30.4092525,44.5165096" id="Fill-4" fill="#100013"></path>
                <mask id="mask-4" fill="white">
                    <use xlink:href="#path-3"></use>
                </mask>
                <g id="Clip-7"></g>
                <polygon id="Fill-6" fill="#100013" mask="url(#mask-4)" points="0 25.1774396 47.9285714 25.1774396 47.9285714 24.0910491 0 24.0910491"></polygon>
                <polygon id="Fill-8" fill="#100013" mask="url(#mask-4)" points="51.7410714 25.1774396 61 25.1774396 61 24.0910491 51.7410714 24.0910491"></polygon>
                <polygon id="Fill-9" fill="#100013" mask="url(#mask-4)" points="33.3600006 24.6456474 30.8600006 27.1456474 28.3600006 24.6456474 30.8600006 22.1456474"></polygon>
                <path d="M51.7040902,5.55545773 C51.7040902,7.12104666 50.4309875,8.39045777 48.8602375,8.39045777 C47.2897598,8.39045777 46.0166571,7.12104666 46.0166571,5.55545773 C46.0166571,3.9898688 47.2897598,2.72045769 48.8602375,2.72045769 C50.4309875,2.72045769 51.7040902,3.9898688 51.7040902,5.55545773" id="Fill-10" fill="#100013" mask="url(#mask-4)"></path>
            </g>
        </g>
    </g>
</svg>