<?xml version="1.0" encoding="UTF-8" standalone="no"?>
<svg width="15px" height="11px" viewBox="0 0 15 11" version="1.1" xmlns="http://www.w3.org/2000/svg" xmlns:xlink="http://www.w3.org/1999/xlink">
    <!-- Generator: Sketch 39.1 (31720) - http://www.bohemiancoding.com/sketch -->
    <title>Shape</title>
    <desc>Created with Sketch.</desc>
    <defs></defs>
    <g id="Page-1" stroke="none" stroke-width="1" fill="none" fill-rule="evenodd">
        <g id="Advisors" transform="translate(-1065.000000, -80.000000)" fill="#FFFFFF">
            <g id="noun_52714_cc" transform="translate(1072.500000, 85.500000) scale(-1, 1) translate(-1072.500000, -85.500000) translate(1065.000000, 80.000000)">
                <g id="Group">
                    <path d="M5.55032574,0.027 L5.55032574,1.08896128 L13.6499648,1.08896128 L13.6499648,9.93803872 L5.55032574,9.93803872 L5.55032574,11 L15,11 L15,0.0272249441 L5.55032574,0.0272249441 L5.55032574,0.027 Z M3.18797867,3.99816381 C3.16681735,4.00311258 3.14022271,4.01368496 3.11791753,4.03145555 L0.783308951,5.4031649 C0.69323035,5.4740223 0.69323035,5.55365253 0.783308951,5.62428499 L3.11791753,6.99599434 C3.20799614,7.06685175 3.30064841,7.0360344 3.30064841,6.92941088 L3.30064841,6.04448064 L10.0502523,6.04448064 L10.0502523,4.98251936 L3.30036245,4.98251936 L3.30036245,4.09758912 C3.30036245,4.0179589 3.25146264,3.9833175 3.18797867,3.99816381 L3.18797867,3.99816381 Z" id="Shape"></path>
                </g>
            </g>
        </g>
    </g>
</svg>