<?xml version="1.0" encoding="UTF-8" standalone="no"?>
<svg width="18px" height="11px" viewBox="0 0 18 11" version="1.1" xmlns="http://www.w3.org/2000/svg" xmlns:xlink="http://www.w3.org/1999/xlink">
    <!-- Generator: Sketch 39.1 (31720) - http://www.bohemiancoding.com/sketch -->
    <title>noun_253_cc copy 2</title>
    <desc>Created with Sketch.</desc>
    <defs></defs>
    <g id="Symbols" stroke="none" stroke-width="1" fill="none" fill-rule="evenodd">
        <g id="48" transform="translate(-15.000000, -19.000000)" fill="#FFFFFF">
            <g id="noun_253_cc-copy-2" transform="translate(15.000000, 19.000000)">
                <g id="Group">
                    <path d="M16.0491803,0 C14.9536885,0 14.0655738,0.888114754 14.0655738,1.98360656 C14.0655738,2.40088525 14.1952295,2.78786885 14.4152295,3.10740984 L13.6565902,3.86604918 C13.3370492,3.64604918 12.9500656,3.51639344 12.5327869,3.51639344 C12.1155082,3.51639344 11.7285246,3.64604918 11.4089836,3.86604918 L10.6503443,3.10740984 C10.8703443,2.78786885 11,2.40088525 11,1.98360656 C11,0.888114754 10.1118852,0 9.01639344,0 C7.92090164,0 7.03278689,0.888114754 7.03278689,1.98360656 C7.03278689,2.40088525 7.16244262,2.78786885 7.38262295,3.10740984 L6.62380328,3.86604918 C6.3042623,3.64604918 5.91745902,3.51639344 5.5,3.51639344 C5.08254098,3.51639344 4.6957377,3.64604918 4.37619672,3.86604918 L3.61737705,3.10740984 C3.83755738,2.78786885 3.96721311,2.40088525 3.96721311,1.98360656 C3.96721311,0.888114754 3.07909836,0 1.98360656,0 C0.888114754,0 0,0.888114754 0,1.98360656 C0,3.07909836 0.888114754,3.96721311 1.98360656,3.96721311 C2.40106557,3.96721311 2.78786885,3.83755738 3.10740984,3.61755738 L3.86622951,4.37619672 C3.64604918,4.6957377 3.51639344,5.08272131 3.51639344,5.5 C3.51639344,6.5954918 4.4045082,7.48360656 5.5,7.48360656 C5.91745902,7.48360656 6.3042623,7.35395082 6.62380328,7.13395082 L7.38262295,7.89259016 C7.16244262,8.21213115 7.03278689,8.59911475 7.03278689,9.01639344 C7.03278689,10.1118852 7.92090164,11 9.01639344,11 C10.1118852,11 11,10.1118852 11,9.01639344 C11,8.59911475 10.8703443,8.21213115 10.6503443,7.89259016 L11.4089836,7.13395082 C11.7285246,7.35395082 12.1155082,7.48360656 12.5327869,7.48360656 C13.6282787,7.48360656 14.5163934,6.5954918 14.5163934,5.5 C14.5163934,5.08272131 14.3867377,4.6957377 14.1667377,4.37619672 L14.925377,3.61755738 C15.244918,3.83755738 15.6319016,3.96721311 16.0491803,3.96721311 C17.1446721,3.96721311 18.0327869,3.07909836 18.0327869,1.98360656 C18.0327869,0.888114754 17.1446721,0 16.0491803,0 L16.0491803,0 Z M10.8988361,6.62380328 L10.1401967,7.38244262 C9.82065574,7.16244262 9.43367213,7.03278689 9.01639344,7.03278689 C8.59893443,7.03278689 8.21213115,7.16244262 7.89259016,7.38244262 L7.13377049,6.62380328 C7.35395082,6.3042623 7.48360656,5.91727869 7.48360656,5.5 C7.48360656,5.08272131 7.35395082,4.6957377 7.13377049,4.37619672 L7.89259016,3.61755738 C8.21213115,3.83755738 8.59893443,3.96721311 9.01639344,3.96721311 C9.43367213,3.96721311 9.82065574,3.83755738 10.1401967,3.61755738 L10.8988361,4.37619672 C10.6788361,4.6957377 10.5491803,5.08272131 10.5491803,5.5 C10.5491803,5.91727869 10.6788361,6.3042623 10.8988361,6.62380328 L10.8988361,6.62380328 Z" id="Shape"></path>
                </g>
            </g>
        </g>
    </g>
</svg>