<?xml version="1.0" encoding="UTF-8" standalone="no"?>
<svg width="16px" height="17px" viewBox="0 0 16 17" version="1.1" xmlns="http://www.w3.org/2000/svg" xmlns:xlink="http://www.w3.org/1999/xlink" style="background: #FFFFFF;">
    <!-- Generator: Sketch 39.1 (31720) - http://www.bohemiancoding.com/sketch -->
    <title>noun_592798_cc</title>
    <desc>Created with Sketch.</desc>
    <defs></defs>
    <g id="Page-1" stroke="none" stroke-width="1" fill="none" fill-rule="evenodd">
        <g id="News-Full--Main" transform="translate(-841.000000, -75.000000)" fill="#FFFFFF">
            <g id="noun_592798_cc" transform="translate(841.000000, 75.000000)">
                <g id="Group">
                    <path d="M8.03241252,16.0707182 C10.0832413,16.0707182 12.1576427,15.2928177 13.7134438,13.7134438 C14.6799263,12.7469613 15.3871087,11.5447514 15.7642726,10.2246777 L16,9.42320442 L14.4206262,8.97532228 L14.1848987,9.77679558 C13.878453,10.8139963 13.3362799,11.7804788 12.5583794,12.5583794 C10.0596685,15.0570902 6.00515654,15.0570902 3.50644567,12.5583794 C1.00773481,10.0596685 1.00773481,6.00515654 3.50644567,3.50644567 C6.00515654,1.00773481 10.0596685,1.00773481 12.5583794,3.50644567 C12.5819521,3.53001842 12.6055249,3.55359116 12.6055249,3.55359116 L10.9554328,3.53001842 L10.93186,5.1801105 L15.2456722,5.22725599 L15.4578269,0.772007366 L13.8077348,0.701289134 L13.7370166,2.35138122 L13.7370166,2.35138122 C10.6018416,-0.783793738 5.48655617,-0.783793738 2.35138122,2.35138122 C-0.783793738,5.48655617 -0.783793738,10.6018416 2.35138122,13.7370166 C3.90718232,15.2928177 5.98158379,16.0707182 8.03241252,16.0707182 L8.03241252,16.0707182 Z" id="Shape"></path>
                </g>
            </g>
        </g>
    </g>
</svg>