<?xml version="1.0" encoding="UTF-8" standalone="no"?>
<svg width="176px" height="27px" viewBox="0 0 176 27" version="1.1" xmlns="http://www.w3.org/2000/svg" xmlns:xlink="http://www.w3.org/1999/xlink" xmlns:sketch="http://www.bohemiancoding.com/sketch/ns">
    <!-- Generator: Sketch 3.2.2 (9983) - http://www.bohemiancoding.com/sketch -->
    <title>logo-white-427f015ba445b8a09ed536c5303e4581</title>
    <desc>Created with Sketch.</desc>
    <defs></defs>
    <g id="Welcome" stroke="none" stroke-width="1" fill="none" fill-rule="evenodd" sketch:type="MSPage">
        <g id="Desktop-HD" sketch:type="MSArtboardGroup" transform="translate(-1009.000000, -15.000000)">
            <g id="logo-white-427f015ba445b8a09ed536c5303e4581" sketch:type="MSLayerGroup" transform="translate(1009.000000, 15.000000)">
                <path d="M102.179459,11.2101117 L102.920474,11.2101117 C102.982086,10.8441377 103.229614,10.0480167 104.215055,10.0480167 L105.931878,10.0480167 L105.931878,20.5923067 L108.597671,20.5923067 L108.597671,10.0480167 L110.317825,10.0480167 C111.490127,10.0480167 111.614561,11.2101117 111.614561,11.2101117 L112.355412,11.2101117 L112.355412,8.94492476 L102.179459,8.94492476 L102.179459,11.2101117 L102.179459,11.2101117 Z M117.675538,17.1197869 L117.675538,8.94492476 L113.835287,8.94492476 L113.835287,9.55760643 C113.835287,9.55760643 115.005664,9.74111045 115.005664,11.0876142 L115.005664,20.5923067 L116.860307,20.5923067 L123.031971,12.4671092 L123.031971,20.5923067 L125.702988,20.5923067 L125.702988,8.97810993 L123.650708,8.97810993 L117.675538,17.1197869 L117.675538,17.1197869 Z M68.676274,18.6499562 C66.8863774,15.4070184 66.5810576,14.6692541 65.7755242,14.3644158 C67.4420652,13.2643935 67.9354222,9.72346764 69.6617146,9.72346764 L69.6617146,8.92847758 L67.1965295,8.92847758 C66.3324201,8.92847758 66.5810577,9.58966067 64.6049523,12.7730462 C63.9875541,13.7538345 63.2477145,13.813096 63.2477145,13.813096 L62.0465812,13.813096 L62.0465812,8.92847758 L58.1489956,8.92847758 L58.1489956,9.60442755 C58.1489956,9.60442755 59.3829431,9.72346764 59.3829431,11.0712963 L59.3829431,20.5923067 L62.0465812,20.5923067 L62.0465812,14.9780022 L63.0616036,14.9780022 C63.8024554,14.9780022 64.4816294,16.2624656 64.4816294,16.2624656 L66.7650462,20.5923067 L69.9720299,20.5923067 L69.9720299,19.7959595 C69.1077247,19.7959595 68.676274,18.6499562 68.676274,18.6499562 L68.676274,18.6499562 Z M139.72298,14.7656106 C139.72298,11.5206371 137.134537,8.79463826 133.802108,8.79463826 C130.467785,8.79463826 127.75295,11.1817412 127.75295,14.5490184 L127.75295,15.2207355 C127.75295,18.343987 130.715313,20.7333841 133.802108,20.7333841 C136.082194,20.7333841 137.811589,19.6293551 138.984087,18.0383732 L137.936969,17.9149709 C137.009092,18.8962762 135.838716,19.629355 134.110301,19.629355 C132.134392,19.629355 131.045545,18.281688 131.045545,16.6305075 L131.045545,14.7656106 L139.72298,14.7656106 L139.72298,14.7656106 Z M131.045545,12.9565501 C131.045545,11.3052081 132.134392,9.95863971 133.802108,9.95863971 C135.467735,9.95863971 136.824222,11.3052081 136.824222,12.9565501 L136.824222,13.6032894 L131.045545,13.6032894 L131.045545,12.9565501 L131.045545,12.9565501 Z M78.6858704,8.79463826 C77.2667915,8.79463826 76.0430637,9.40525189 75.4276246,10.262541 L75.4276246,8.94492476 L71.590476,8.94492476 L71.590476,9.61896832 C71.590476,9.61896832 72.7639538,9.80224612 72.7639538,11.0876142 L72.7639538,25.8920791 L75.4276245,25.8920791 L75.4276245,19.3226103 C76.5999596,20.6693402 78.0078065,20.7326086 78.500935,20.7326086 C81.7707393,20.6693403 83.9901275,18.1607092 83.9901275,15.0372961 L83.9901275,14.3032478 C83.9901275,10.9382647 81.8949438,8.79463826 78.6858704,8.79463826 L78.6858704,8.79463826 Z M80.7956491,16.5693719 C80.7956491,18.0383732 79.9806469,19.4449463 78.3765019,19.5081823 L78.1320111,19.5081823 C76.7129975,19.5081823 75.6115805,18.4673893 75.4276246,17.3654929 L75.4276246,12.4061028 C75.5489884,11.2432646 76.589544,9.95770265 78.1320111,9.95770265 L78.6232131,9.95770265 C78.6232131,9.95770265 80.7340366,10.0798125 80.7956491,12.8974502 L80.7956491,16.5693719 L80.7956491,16.5693719 Z M40.1073447,8.79350728 C35.7237812,8.79350728 33.7677236,12.1596213 33.7677236,14.3662576 L33.7677236,15.3438146 C33.7677236,17.9138399 36.4655473,20.7312838 40.1073447,20.7312838 C43.5013535,20.7312838 46.5056724,18.2217156 46.5056724,15.2818711 L46.5056724,14.4855885 C46.5056724,11.5490076 43.993731,8.79350728 40.1073447,8.79350728 L40.1073447,8.79350728 Z M43.3311437,16.505942 C43.3311437,18.1586411 42.0197152,19.6281918 40.1073447,19.6281918 C38.1920682,19.6281918 36.9264164,18.1586411 36.9264164,16.505942 L36.9264164,12.8332448 C36.9264164,11.1799963 38.376024,9.89543604 40.1073447,9.89543604 C42.0197152,9.89543604 43.3311437,11.2409704 43.3311437,12.8955437 L43.3311437,16.505942 L43.3311437,16.505942 Z M96.6726349,9.61896827 C96.6726349,9.61896827 97.9057989,9.80224607 97.9057989,11.1487498 L97.9057989,20.5923067 L100.563462,20.5923067 L100.563462,8.94492476 L96.6726349,8.94492476 L96.6726349,9.61896827 L96.6726349,9.61896827 Z M92.5450881,13.7019079 L89.3444386,13.7019079 L89.3444386,8.9453125 L85.5541443,8.9453125 L85.5541443,9.62051929 C85.5541443,9.62051929 86.664018,9.74072265 86.664018,11.0881958 L86.664018,20.5826775 L92.6703048,20.5826775 C94.8898889,20.5826775 96.49485,19.2350104 96.49485,17.339158 L96.49485,17.0686358 C96.49485,14.9833338 94.9536563,13.7019079 92.5450881,13.7019079 L92.5450881,13.7019079 Z M93.7792316,17.339158 C93.7792316,18.4390187 92.73195,19.4184499 91.62126,19.4184499 L89.3444387,19.4184499 L89.3444387,14.8640675 L91.6829052,14.8640675 C92.8554035,14.8640675 93.7792316,15.7811674 93.7792316,17.1290606 L93.7792316,17.339158 L93.7792316,17.339158 Z M47.0758899,11.2432646 L47.8165131,11.2432646 C47.8752523,10.8772906 48.1239551,10.0811373 49.1093958,10.0811373 L50.8283743,10.0811373 L50.8283743,20.5923067 L53.4908369,20.5923067 L53.4908369,10.0811373 L55.1953184,10.0811373 C56.3697432,10.0811373 56.4930661,11.2432646 56.4930661,11.2432646 L57.235028,11.2432646 L57.235028,8.94492476 L47.0758899,8.94492476 L47.0758899,11.2432646 L47.0758899,11.2432646 Z M157.11543,14.1903794 L156.415947,14.1903794 L156.415947,12.7772468 L158.595567,12.7772468 L158.484259,12.1058206 L155.677251,12.1058206 L155.677251,17.3895658 L156.991781,17.3895658 C158.171038,17.3895658 158.956295,16.8446439 158.956295,15.744654 C158.956295,14.7455445 158.265367,14.1903794 157.11543,14.1903794 L157.11543,14.1903794 Z M157.028872,16.7426327 L156.415947,16.7426327 L156.415947,14.8390898 L157.076412,14.8390898 C157.816089,14.8390898 158.209076,15.1514246 158.209076,15.767176 C158.209076,16.4387638 157.767569,16.7426327 157.028872,16.7426327 L157.028872,16.7426327 Z M161.961398,12.0820061 L159.838754,17.390309 L160.610755,17.390309 L161.215158,15.8741311 L163.424294,15.8741311 L164.062916,17.3791288 L164.79296,17.388241 L162.700878,12.0820061 L161.961398,12.0820061 L161.961398,12.0820061 Z M161.450083,15.2273596 L162.3154,12.94062 L163.180456,15.2273596 L161.450083,15.2273596 L161.450083,15.2273596 Z M169.352545,14.3371438 L166.608324,14.3371438 L166.608324,12.1060468 L165.867864,12.1060468 L165.867864,17.4228803 L166.608324,17.4228803 L166.608324,15.0077623 L169.352545,15.0077623 L169.352545,17.4228803 L170.091046,17.4228803 L170.091046,12.1060468 L169.352545,12.1060468 L169.352545,14.3371438 L169.352545,14.3371438 Z M173.278961,14.6340332 L175.668984,12.1064022 L174.726806,12.1064022 L172.476628,14.5241699 L172.476628,12.1064022 L171.735221,12.1064022 L171.735221,17.4230741 L172.476628,17.4230741 L172.476628,14.7595681 L174.984553,17.3783533 L175.803245,17.3723108 L173.278961,14.6340332 L173.278961,14.6340332 Z" id="Shape" fill="#686868" sketch:type="MSShapeGroup"></path>
                <path d="M13.3731112,0.530894118 C5.98811904,0.530894118 0,6.45564669 0,13.7623763 C0,21.0710119 5.98811904,26.9956055 13.3731112,26.9956055 C20.7581035,26.9956055 26.7471857,21.0710119 26.7471857,13.7623763 C26.7471857,6.45564669 20.7581039,0.530894118 13.3731112,0.530894118 L13.3731112,0.530894118 Z M10.5578072,20.2560869 C10.6650117,20.314058 11.029637,20.5457827 11.1251259,21.0072165 C11.188678,21.3394762 11.1459889,21.6300706 10.9821327,21.8995406 C10.7813636,22.2261355 10.4435939,22.4037 10.0173419,22.4037 C9.79897386,22.4037 9.57445317,22.3508647 9.36480502,22.2575293 L8.73992457,21.9644468 C6.01112224,20.5351942 4.31825886,17.6459817 4.31825886,14.4269472 L4.31825886,13.0997119 C4.31825886,9.88088845 6.01711368,6.99130594 8.75185442,5.55310567 C8.77876194,5.54421161 9.36480497,5.26780599 9.36480497,5.26780599 C9.57445312,5.1716115 9.79897381,5.12237647 10.0154165,5.12237647 C10.4407053,5.12237647 10.7813636,5.3051292 10.9821327,5.62791166 C11.1459888,5.89505262 11.188678,6.18585861 11.1251259,6.51965262 C11.0178673,7.05414706 10.5438978,7.27835299 10.5390298,7.28248193 C8.9475943,7.99702899 8.0075723,9.61882909 8.0075723,11.4167639 L8.0075723,16.1127527 C8.00757225,17.9093123 8.94861055,19.5332289 10.5578072,20.2560869 L10.5578072,20.2560869 Z M22.4279631,14.4269472 C22.4279631,17.6459818 20.7362237,20.5351942 18.0073142,21.9644468 L17.3814185,22.2575293 C17.1758354,22.3508646 16.9493883,22.4037 16.7298428,22.4037 C16.304554,22.4037 15.9667842,22.2261355 15.7652672,21.8995406 C15.6042987,21.6300706 15.5596841,21.3394762 15.6232363,21.0072165 C15.7175487,20.5457827 16.0812108,20.314058 16.1884153,20.2560869 C17.796864,19.5332289 18.7427153,17.9093123 18.7427153,16.1127528 L18.7427153,11.416764 C18.7427153,9.61882915 17.8007148,7.99702899 16.2093324,7.28248198 C16.2052673,7.27835305 15.7304949,7.05414711 15.6232363,6.51965268 C15.5596841,6.18585866 15.6042987,5.89505268 15.7652672,5.62791171 C15.9667842,5.30512925 16.304554,5.12237652 16.7298428,5.12237652 C16.9493883,5.12237652 17.1758354,5.17161155 17.3814185,5.26780604 C17.3814185,5.26780604 17.9696002,5.54421166 17.9934048,5.55310572 C20.7341381,6.99130594 22.4279631,9.88088845 22.4279631,13.099712 L22.4279631,14.4269472 L22.4279631,14.4269472 Z" id="Shape" fill="#00B5DB" sketch:type="MSShapeGroup"></path>
                <path d="M147.11225,26.9970353 L147.647204,26.9970353 L147.647204,0.526447059 L147.11225,0.526447059 L147.11225,26.9970353 L147.11225,26.9970353 Z" id="Shape" fill="#A4A4A4" sketch:type="MSShapeGroup"></path>
            </g>
        </g>
    </g>
</svg>