<?xml version="1.0" encoding="utf-8"?>
<!-- Generator: Adobe Illustrator 18.0.0, SVG Export Plug-In . SVG Version: 6.00 Build 0)  -->
<!DOCTYPE svg PUBLIC "-//W3C//DTD SVG 1.1//EN" "http://www.w3.org/Graphics/SVG/1.1/DTD/svg11.dtd">
<svg version="1.1" id="Слой_1" xmlns="http://www.w3.org/2000/svg" xmlns:xlink="http://www.w3.org/1999/xlink" x="0px" y="0px"
	 viewBox="0 0 45.6 46" enable-background="new 0 0 45.6 46" xml:space="preserve">
<path fill-rule="evenodd" clip-rule="evenodd" d="M22.8,0C10.2,0,0,10.3,0,23c0,12.7,10.2,23,22.8,23c12.6,0,22.8-10.3,22.8-23
	C45.6,10.3,35.4,0,22.8,0 M34,25.3c1.9,1.8,3.3,3.2,4,4.3c0.4,0.6,0.5,1,0.3,1.5c-0.1,0.4-0.4,0.6-0.9,0.6l-5,0.2
	c-0.7,0.1-1.6-0.4-2.6-1.3c-1-0.9-1.7-1.7-2-2.3c-0.2-0.4-0.6-0.6-1.1-0.6c-0.5,0-0.9,0.2-1,0.8l-0.2,2c0,0.4-0.2,0.7-0.5,0.9
	c-0.3,0.2-0.5,0.3-0.6,0.3c-0.2,0-0.5,0.1-0.9,0.1c-1.3,0-2.5,0-3.4-0.2c-1-0.2-1.9-0.5-2.7-1.1c-0.8-0.6-1.5-1.1-1.9-1.5
	c-0.5-0.5-1.2-1.2-2.1-2.2c-2.5-3.5-4.3-6.6-5.5-9.2c-0.5-1-0.7-1.9-0.8-2.6c0.2-0.2,0.6-0.3,1.1-0.4c0.6-0.1,1.4-0.1,2.4,0
	c1.1,0,1.7,0,1.9,0c0.5-0.1,0.9,0.2,1.2,0.8c1.3,2.8,2.5,5,3.7,6.6c0.8,0.8,1.3,0.6,1.6-0.4c0.1,0,0.2-1.2,0.2-3.7
	c0-1.6-0.6-2.6-1.9-3c0.3-0.8,1.4-1.2,3.2-1.2c0.5,0,1,0,1.7,0.1c0.7,0.1,1,0.1,1.1,0.1c1.5,0,2.3,0.6,2.3,1.8c0,0.2,0,0.5-0.1,1.1
	c-0.1,0.6-0.1,1.1-0.1,1.7c0,0.5,0,1.1,0,1.7c0,0.6,0.1,1.1,0.2,1.5c0.2,0.4,0.4,0.7,0.6,0.8c0.3-0.2,0.5-0.4,0.8-0.6
	c0.3-0.2,0.5-0.5,0.8-0.9c0.3-0.4,0.5-0.7,0.6-0.9s0.4-0.6,0.7-1.1c0.3-0.6,0.5-0.9,0.5-1.1c0.1-0.2,0.2-0.5,0.5-1.2
	c0.3-0.6,0.5-0.9,0.5-0.9l0.1-0.2c0.2-0.5,0.4-0.7,0.5-0.8c0.1-0.1,0.4-0.1,0.9-0.1h4.7c0.6,0,0.9,0,1,0c0.1,0,0.3,0.1,0.5,0.3
	c0.4,0.5,0,1.4-0.9,3c-1,1.5-1.9,2.8-2.8,3.8C33.3,23.4,33.1,24.5,34,25.3"/>
</svg>
