<?xml version="1.0" encoding="UTF-8" standalone="no"?>
<svg width="20px" height="20px" viewBox="0 0 20 20" version="1.1" xmlns="http://www.w3.org/2000/svg" xmlns:xlink="http://www.w3.org/1999/xlink">
    <!-- Generator: Sketch 39.1 (31720) - http://www.bohemiancoding.com/sketch -->
    <title>icon_linkedin_active</title>
    <desc>Created with Sketch.</desc>
    <defs></defs>
    <g id="Page-1" stroke="none" stroke-width="1" fill="none" fill-rule="evenodd">
        <g id="icon_linkedin_active" transform="translate(0.000000, -1.000000)" fill="#C51D28">
            <g id="Group-3" transform="translate(0.000000, 0.117100)">
                <path d="M2.3975,5.3409 C3.8925,5.3409 4.8225,4.3499 4.8225,3.1119 C4.7935,1.8469 3.8925,0.8829 2.4245,0.8829 C0.9585,0.8829 -0.0005,1.8469 -0.0005,3.1119 C-0.0005,4.3499 0.9295,5.3409 2.3695,5.3409 L2.3975,5.3409 Z M0.2525,19.9989 L4.5395,19.9989 L4.5395,7.1009 L0.2525,7.1009 L0.2525,19.9989 Z" id="Fill-1"></path>
            </g>
            <g id="Group-6" transform="translate(6.000000, 6.117100)">
                <path d="M0.9131,14 L5.2001,14 L5.2001,6.797 C5.2001,6.411 5.2271,6.025 5.3421,5.751 C5.6501,4.979 6.3561,4.182 7.5411,4.182 C9.0931,4.182 9.7131,5.366 9.7131,7.099 L9.7131,14 L14.0001,14 L14.0001,6.604 C14.0001,2.642 11.8851,0.798 9.0631,0.798 C6.7511,0.798 5.7361,2.091 5.1721,2.972 L5.2001,2.972 L5.2001,1.101 L0.9131,1.101 C0.9691,2.311 0.9131,14 0.9131,14" id="Fill-4"></path>
            </g>
        </g>
    </g>
</svg>