<?xml version="1.0" encoding="UTF-8" standalone="no"?>
<svg width="20px" height="18px" viewBox="0 0 20 18" version="1.1" xmlns="http://www.w3.org/2000/svg" xmlns:xlink="http://www.w3.org/1999/xlink">
    <!-- Generator: Sketch 39.1 (31720) - http://www.bohemiancoding.com/sketch -->
    <title>icon_tw</title>
    <desc>Created with Sketch.</desc>
    <defs></defs>
    <g id="Page-1" stroke="none" stroke-width="1" fill="none" fill-rule="evenodd">
        <g id="icon_tw" fill="#666666">
            <path d="M0,9.8486 C0,9.8486 2.495,11.0326 4.887,11.2326 C4,10.1056 3.324,8.7076 2.97,7.0236 C2.97,7.0236 5.945,8.4356 8.512,8.4356 C8.729,8.4356 8.944,8.4236 9.153,8.4036 C9.256,7.6516 9.214,6.7216 8.983,5.5746 C8.245,1.9226 10.624,-0.0004 13.24,-0.0004 C14.764,-0.0004 16.368,0.6526 17.485,1.9946 C17.993,1.9166 18.523,1.8766 19.073,1.8766 C19.376,1.8766 19.685,1.8896 20,1.9146 C20,1.9146 19.281,2.7186 18.528,3.8646 C18.704,4.3716 18.83,4.9286 18.892,5.5376 C19.704,13.4616 14.461,17.5426 9.255,17.5426 C5.158,17.5426 1.085,15.0166 0,9.8486" id="Fill-1"></path>
        </g>
    </g>
</svg>