<?xml version="1.0" encoding="UTF-8" standalone="no"?>
<svg width="9px" height="18px" viewBox="0 0 9 18" version="1.1" xmlns="http://www.w3.org/2000/svg" xmlns:xlink="http://www.w3.org/1999/xlink">
    <!-- Generator: Sketch 39.1 (31720) - http://www.bohemiancoding.com/sketch -->
    <title>icon_fb</title>
    <desc>Created with Sketch.</desc>
    <defs></defs>
    <g id="Page-1" stroke="none" stroke-width="1" fill="none" fill-rule="evenodd">
        <g id="icon_fb" fill="#666666">
            <path d="M3.4511,0.5175 C2.7881,0.8765 2.3241,1.3575 2.0691,1.9475 C1.8311,2.5005 1.7151,3.2855 1.7151,4.3505 L1.7151,4.7115 L0.0001,4.7115 L0.0001,8.1735 L1.7151,8.1735 L1.7151,17.4145 L5.8351,17.4145 L5.8351,8.1735 L8.1421,8.1735 L8.1421,4.7115 L5.8351,4.7115 L5.8351,4.4055 C5.8351,3.7385 5.9711,3.5715 5.9891,3.5525 C6.0771,3.4565 6.2851,3.4055 6.5721,3.4055 C6.9811,3.4055 7.4181,3.4585 7.8691,3.5675 L8.3921,3.6925 L9.0001,0.5575 L8.5601,0.4175 C6.7741,-0.1425 4.7131,-0.1685 3.4511,0.5175" id="Fill-1"></path>
        </g>
    </g>
</svg>