<?xml version="1.0" encoding="UTF-8" standalone="no"?>
<svg width="253px" height="45px" viewBox="0 0 253 45" version="1.1" xmlns="http://www.w3.org/2000/svg" xmlns:xlink="http://www.w3.org/1999/xlink">
    <!-- Generator: Sketch 39.1 (31720) - http://www.bohemiancoding.com/sketch -->
    <title>vedomosti_footer_logo</title>
    <desc>Created with Sketch.</desc>
    <defs>
        <polygon id="path-1" points="0.8163 44 25.0653 44 25.0653 0.5131 0.8163 0.5131"></polygon>
    </defs>
    <g id="Page-1" stroke="none" stroke-width="1" fill="none" fill-rule="evenodd">
        <g id="vedomosto_footer_logo">
            <path d="M13.0385,37.5113 L13.0385,20.0953 L14.4605,20.0953 C15.4315,20.0953 17.1305,19.9893 17.1305,24.6923 L17.1305,32.9183 C17.1305,37.6183 15.4315,37.5113 14.4605,37.5113 L13.0385,37.5113 Z M2.5695,37.5113 L0.0005,37.5113 L0.0005,38.8993 L18.5685,38.8993 C23.1525,38.8993 27.8415,37.2993 27.8415,30.0423 C27.8415,25.1343 26.0355,20.3873 19.0205,19.6943 L19.0205,19.1593 C22.4715,18.9223 27.1835,17.2723 27.1835,10.3043 C27.1835,2.3763 20.9435,1.5753 18.9715,1.5753 L0.0005,1.5753 L0.0005,2.9623 L2.5695,2.9623 L2.5695,37.5113 Z M13.0385,18.7103 L13.0385,2.9623 L14.4605,2.9623 C15.4315,2.9623 17.1305,2.8563 17.1305,7.5363 L17.1305,14.1353 C17.1305,18.8173 15.4315,18.7103 14.4605,18.7103 L13.0385,18.7103 Z" id="Fill-1" fill="#000000"></path>
            <path d="M32.1074,2.962 L29.5434,2.962 L29.5434,1.575 L53.0534,1.575 L53.0534,14.907 L52.1504,14.907 C51.0464,3.068 45.0804,2.962 43.2044,2.962 L42.5794,2.962 L42.5794,19.358 L43.0624,19.358 C46.4914,19.358 47.8024,15.192 47.6974,11.398 L48.5964,11.398 L48.5964,28.676 L47.6974,28.676 C47.8024,24.896 46.4914,20.744 43.0624,20.744 L42.5794,20.744 L42.5794,37.511 C49.6694,37.726 52.1584,31.176 52.8144,24.525 L53.7164,24.525 L53.7164,38.899 L29.4754,38.899 L29.4754,37.511 L32.1074,37.511 L32.1074,2.962 Z" id="Fill-3" fill="#000000"></path>
            <g id="Group-7" transform="translate(55.000000, 1.062100)">
                <mask id="mask-2" fill="white">
                    <use xlink:href="#path-1"></use>
                </mask>
                <g id="Clip-6"></g>
                <path d="M3.4243,0.5131 L3.4243,1.9001 L4.7513,1.9001 C5.6533,1.9001 6.7723,2.1161 6.7723,5.4191 L6.7723,16.2971 C6.7723,31.4391 4.6433,36.4491 1.3323,36.4491 L0.8163,36.4491 L0.8163,44.0001 L1.7143,44.0001 C1.8903,38.4531 3.9103,37.8371 8.4483,37.8371 L17.4493,37.8371 C21.9903,37.8371 23.9923,38.4531 24.1653,44.0001 L25.0653,44.0001 L25.0653,36.4491 L21.8163,36.4491 L21.8163,1.9001 L24.3763,1.9001 L24.3763,0.5131 L3.4243,0.5131 Z M11.3453,1.9001 L11.3453,36.4491 L4.3963,36.4491 C7.4523,32.0251 7.7933,25.5191 7.7933,16.2971 L7.7933,4.9921 C7.7933,2.0621 8.7583,1.9001 9.5193,1.9001 L11.3453,1.9001 Z" id="Fill-5" fill="#000000" mask="url(#mask-2)"></path>
            </g>
            <path d="M79.643,20.2837 C79.643,29.5527 84.006,39.7347 92.704,39.7347 C101.4,39.7347 105.765,29.5527 105.765,20.2837 C105.765,11.0137 101.4,0.8337 92.704,0.8337 C84.006,0.8337 79.643,11.0137 79.643,20.2837 L79.643,20.2837 Z M90.659,5.5797 C90.659,3.2877 91.457,2.2207 92.704,2.2207 C93.952,2.2207 94.753,3.2877 94.753,5.5797 L94.753,34.9867 C94.753,37.2817 93.952,38.3457 92.704,38.3457 C91.457,38.3457 90.659,37.2817 90.659,34.9867 L90.659,5.5797 Z" id="Fill-8" fill="#000000"></path>
            <path d="M110.3984,5.8433 L110.2584,5.8433 L110.2584,32.9283 C110.2584,37.1373 111.7824,37.5113 112.9624,37.5113 L113.5824,37.5113 L113.5824,38.8993 L106.6704,38.8993 L106.6704,37.5113 C107.7774,37.6713 109.2324,37.0313 109.2324,32.9283 L109.2324,2.9623 L106.6704,2.9623 L106.6704,1.5753 L119.7174,1.5753 L123.0784,16.7713 L123.2184,16.7713 L126.6824,1.5753 L139.7884,1.5753 L139.7884,2.9623 L137.2214,2.9623 L137.2214,37.5113 L139.7884,37.5113 L139.7884,38.8993 L124.1874,38.8993 L124.1874,37.5113 L126.7484,37.5113 L126.7484,6.0023 L126.6124,6.0023 L119.1944,38.8993 L117.7434,38.8993 L110.3984,5.8433 Z" id="Fill-10" fill="#000000"></path>
            <path d="M141.0595,20.2837 C141.0595,29.5527 145.4275,39.7347 154.1235,39.7347 C162.8205,39.7347 167.1835,29.5527 167.1835,20.2837 C167.1835,11.0137 162.8205,0.8337 154.1235,0.8337 C145.4275,0.8337 141.0595,11.0137 141.0595,20.2837 L141.0595,20.2837 Z M152.0775,5.5797 C152.0775,3.2877 152.8715,2.2207 154.1235,2.2207 C155.3705,2.2207 156.1735,3.2877 156.1735,5.5797 L156.1735,34.9867 C156.1735,37.2817 155.3705,38.3457 154.1235,38.3457 C152.8715,38.3457 152.0775,37.2817 152.0775,34.9867 L152.0775,5.5797 Z" id="Fill-12" fill="#000000"></path>
            <path d="M192.6787,13.8663 L191.7807,13.8663 C190.9117,7.7953 187.9277,3.0563 184.5327,3.0563 C180.7877,3.0563 180.5777,8.5423 180.5777,11.1523 L180.5777,28.4063 C180.5777,30.0563 180.6867,36.4993 184.9837,36.4993 C189.6987,36.4993 191.5707,29.9493 192.2627,24.9993 L193.1297,25.3173 C192.3677,31.4933 189.9727,39.7263 182.6217,39.7263 C173.8957,39.7263 169.5667,29.1513 169.5667,20.2563 C169.5667,9.5543 174.9037,0.8343 182.6217,0.8343 C184.1517,0.8343 186.5107,1.3093 188.6357,3.2553 L191.4127,0.0003 L192.3107,0.0003 L192.6787,13.8663 Z" id="Fill-14" fill="#000000"></path>
            <path d="M202.3974,2.962 C197.5834,3.388 195.8834,10.907 195.5384,14.907 L194.6314,14.907 L194.6314,1.575 L220.6364,1.575 L220.6364,14.907 L219.7344,14.907 C219.3874,10.907 217.6834,3.388 212.8714,2.962 L212.8714,37.511 L215.9884,37.511 L215.9884,38.899 L199.2814,38.899 L199.2814,37.511 L202.3974,37.511 L202.3974,2.962 Z" id="Fill-16" fill="#000000"></path>
            <polygon id="Fill-18" fill="#000000" points="225.0029 2.962 222.4379 2.962 222.4379 1.575 236.7209 1.575 236.7209 2.962 235.4779 2.962 235.4779 27.594 235.6119 27.594 239.5669 5.523 239.5669 2.962 238.3179 2.962 238.3179 1.575 252.5989 1.575 252.5989 2.962 250.0419 2.962 250.0419 37.511 252.5989 37.511 252.5989 38.899 238.3179 38.899 238.3179 37.511 239.5669 37.511 239.5669 11.387 239.4289 11.387 235.4779 33.461 235.4779 37.511 236.7209 37.511 236.7209 38.899 222.4379 38.899 222.4379 37.511 225.0029 37.511"></polygon>
        </g>
    </g>
</svg>