<?xml version="1.0" encoding="UTF-8" standalone="no"?>
<svg width="26px" height="23px" viewBox="0 0 26 23" version="1.1" xmlns="http://www.w3.org/2000/svg" xmlns:xlink="http://www.w3.org/1999/xlink">
    <!-- Generator: Sketch 39.1 (31720) - http://www.bohemiancoding.com/sketch -->
    <title>Page 1</title>
    <desc>Created with Sketch.</desc>
    <defs>
        <polygon id="path-1" points="0.104789286 22.4420118 20.3071375 22.4420118 20.3071375 0.0612181065 0.104789286 0.0612181065 0.104789286 22.4420118"></polygon>
        <polygon id="path-3" points="0 22.4964973 26 22.4964973 26 0.115680473 0 0.115680473"></polygon>
    </defs>
    <g id="Symbols" stroke="none" stroke-width="1" fill="none" fill-rule="evenodd">
        <g id="128" transform="translate(-51.000000, -52.000000)">
            <g id="Page-1" transform="translate(51.000000, 52.000000)">
                <g id="Group-3" transform="translate(2.785714, 0.054486)">
                    <mask id="mask-2" fill="white">
                        <use xlink:href="#path-1"></use>
                    </mask>
                    <g id="Clip-2"></g>
                    <path d="M0.104789286,0.0612181065 L0.104789286,12.1440436 C0.104789286,15.0033178 1.80697679,17.6768092 5.02691429,19.8752009 C7.43423571,21.5190205 9.81799464,22.313861 9.9185125,22.3470613 L10.2061375,22.442035 L10.4936464,22.3472927 C10.5939321,22.3143237 12.9774589,21.5192518 15.3853607,19.8754323 C18.6051821,17.6770406 20.3071375,15.0033178 20.3071375,12.1442749 L20.3071375,0.0612181065 L0.104789286,0.0612181065 Z" id="Fill-1" fill="#FFFFFF" mask="url(#mask-2)"></path>
                </g>
                <path d="M12.9870823,2.07227459 C8.58569966,2.07227459 5.00485006,5.73152277 5.00485006,10.2293108 C5.00485006,14.7270989 8.58569966,18.3862336 12.9870823,18.3862336 C17.388465,18.3862336 20.9694285,14.7270989 20.9694285,10.2293108 C20.9694285,5.73152277 17.388465,2.07227459 12.9870823,2.07227459 M12.9613208,18.9607356 C8.26089166,18.9607356 4.43678971,15.0439065 4.43678971,10.2293132 C4.43678971,5.41471986 8.26089166,1.4977726 12.9613208,1.4977726 C17.6618681,1.4977726 21.48597,5.41471986 21.48597,10.2293132 C21.48597,15.0439065 17.6618681,18.9607356 12.9613208,18.9607356" id="Fill-4" fill="#100013"></path>
                <mask id="mask-4" fill="white">
                    <use xlink:href="#path-3"></use>
                </mask>
                <g id="Clip-7"></g>
                <polygon id="Fill-6" fill="#100013" mask="url(#mask-4)" points="0 10.7237243 20.4285714 10.7237243 20.4285714 10.2610024 0 10.2610024"></polygon>
                <polygon id="Fill-8" fill="#100013" mask="url(#mask-4)" points="22.0535714 10.7237243 26 10.7237243 26 10.2610024 22.0535714 10.2610024"></polygon>
                <polygon id="Fill-9" fill="#100013" mask="url(#mask-4)" points="14.2190167 10.4972202 13.1534429 11.562035 12.0878691 10.4972202 13.1534429 9.43240536"></polygon>
                <path d="M22.0378089,2.36621348 C22.0378089,3.03303839 21.495175,3.57371349 20.825675,3.57371349 C20.1562911,3.57371349 19.6136571,3.03303839 19.6136571,2.36621348 C19.6136571,1.69938856 20.1562911,1.15871346 20.825675,1.15871346 C21.495175,1.15871346 22.0378089,1.69938856 22.0378089,2.36621348" id="Fill-10" fill="#100013" mask="url(#mask-4)"></path>
            </g>
        </g>
    </g>
</svg>