<?xml version="1.0" encoding="UTF-8" standalone="no"?>
<svg width="85px" height="74px" viewBox="0 0 85 74" version="1.1" xmlns="http://www.w3.org/2000/svg" xmlns:xlink="http://www.w3.org/1999/xlink">
    <!-- Generator: Sketch 39.1 (31720) - http://www.bohemiancoding.com/sketch -->
    <title>Page 1</title>
    <desc>Created with Sketch.</desc>
    <defs>
        <polygon id="path-1" points="0.342580357 73.1804734 66.3887188 73.1804734 66.3887188 0.19962426 0.342580357 0.19962426 0.342580357 73.1804734"></polygon>
    </defs>
    <g id="Page-1" stroke="none" stroke-width="1" fill="none" fill-rule="evenodd">
        <g id="News-Full--Main" transform="translate(-178.000000, -48.000000)">
            <g id="Page-1" transform="translate(178.000000, 48.000000)">
                <g id="Group-3" transform="translate(9.107143, 0.177670)">
                    <mask id="mask-2" fill="white">
                        <use xlink:href="#path-1"></use>
                    </mask>
                    <g id="Clip-2"></g>
                    <path d="M0.342580357,0.19962426 L0.342580357,39.600142 C0.342580357,48.9238624 5.90742411,57.6417692 16.4341429,64.8104379 C24.3042321,70.1707189 32.0972902,72.7625902 32.4259063,72.8708521 L33.3662188,73.1805488 L34.3061518,72.8716065 C34.6340089,72.7640991 42.426308,70.1714734 50.2982946,64.8111923 C60.8246339,57.6425237 66.3887188,48.9238624 66.3887188,39.6008964 L66.3887188,0.19962426 L0.342580357,0.19962426 Z" id="Fill-1" fill="#FFFFFF" mask="url(#mask-2)"></path>
                </g>
                <path d="M42.4577656,6.24648151 C27.7922299,6.24648151 15.8607344,18.40802 15.8607344,33.3564519 C15.8607344,48.3048839 27.7922299,60.4660451 42.4577656,60.4660451 C57.1233013,60.4660451 69.0551763,48.3048839 69.0551763,33.3564519 C69.0551763,18.40802 57.1233013,6.24648151 42.4577656,6.24648151 M42.4577656,61.220483 C27.3736808,61.220483 15.1018058,48.7209564 15.1018058,33.3564519 C15.1018058,17.9919475 27.3736808,5.49204364 42.4577656,5.49204364 C57.5422299,5.49204364 69.8141049,17.9919475 69.8141049,33.3564519 C69.8141049,48.7209564 57.5422299,61.220483 42.4577656,61.220483" id="Fill-4" fill="#100013"></path>
                <polygon id="Fill-6" fill="#100013" points="0 38.380895 66.7857143 38.380895 66.7857143 37.6264571 0 37.6264571"></polygon>
                <polygon id="Fill-8" fill="#100013" points="72.0982143 38.380895 85 38.380895 85 37.6264571 72.0982143 37.6264571"></polygon>
                <polygon id="Fill-9" fill="#100013" points="44.7032835 37.9294771 42.4727924 40.2022212 40.2423013 37.9294771 42.4727924 35.656733"></polygon>
                <path d="M72.046683,7.7177108 C72.046683,9.8931324 70.2726875,11.6570081 68.0839375,11.6570081 C65.895567,11.6570081 64.1215714,9.8931324 64.1215714,7.7177108 C64.1215714,5.5422892 65.895567,3.77841346 68.0839375,3.77841346 C70.2726875,3.77841346 72.046683,5.5422892 72.046683,7.7177108" id="Fill-10" fill="#100013"></path>
                <path d="M20.4283839,28.6309549 C20.4283839,27.0349416 21.7367768,25.7346679 23.3422902,25.7346679 C24.321308,25.7346679 25.0916205,26.1258439 25.6456384,26.8037064 L24.6742098,27.5936028 C24.3292768,27.1628188 23.9520893,26.96327 23.3422902,26.96327 C22.4190536,26.96327 21.7208393,27.72148 21.7208393,28.6309549 C21.7208393,29.540807 22.4190536,30.2986398 23.3422902,30.2986398 C23.8075134,30.2986398 24.1607946,30.2186694 24.4415982,30.0194978 L24.4415982,29.2296013 L23.0694554,29.2296013 L23.615125,28.0326857 L25.6858616,28.0326857 L25.6858616,30.6019238 C25.123875,31.2401783 24.3053705,31.5276191 23.3422902,31.5276191 C21.7367768,31.5276191 20.4283839,30.2269682 20.4283839,28.6309549" id="Fill-11" fill="#100013"></path>
                <path d="M27.0638482,29.165625 L27.0638482,25.7981916 L28.3479554,25.7981916 L28.3479554,29.1814682 C28.3479554,29.8676294 28.7733348,30.2984135 29.3994509,30.2984135 C30.025567,30.2984135 30.4509464,29.8676294 30.4509464,29.1814682 L30.4509464,25.7981916 L31.7350536,25.7981916 L31.7350536,29.165625 C31.7350536,30.5858543 30.7640045,31.5273928 29.3994509,31.5273928 C28.0348973,31.5273928 27.0638482,30.5858543 27.0638482,29.165625" id="Fill-12" fill="#100013"></path>
                <path d="M35.6490379,29.5487663 L35.1113371,28.3676938 L34.5732567,29.5487663 L35.6490379,29.5487663 Z M35.1113371,25.7347056 L37.9205112,31.4635296 L36.5718951,31.4635296 L36.1628326,30.5861183 L34.0598415,30.5861183 L33.6503996,31.4635296 L32.3017835,31.4635296 L35.1113371,25.7347056 Z" id="Fill-13" fill="#100013"></path>
                <path d="M40.8722879,28.0885141 C41.2176004,28.0885141 41.4661496,27.8410584 41.4661496,27.5298528 C41.4661496,27.2186472 41.2176004,26.96327 40.8722879,26.96327 L40.1501674,26.96327 L40.1501674,28.0885141 L40.8722879,28.0885141 Z M40.1661049,29.1654741 L40.1501674,29.1654741 L40.1501674,31.4634919 L38.8656808,31.4634919 L38.8656808,25.7984179 L41.0168638,25.7984179 C41.9480692,25.7984179 42.7104129,26.556628 42.7104129,27.4823232 C42.7104129,28.1922493 42.269096,28.8063617 41.6107254,29.0617389 L43.4647879,31.4634919 L41.9321317,31.4634919 L40.1661049,29.1654741 Z" id="Fill-14" fill="#100013"></path>
                <path d="M46.3895089,30.2985643 C47.3446205,30.2985643 47.9946429,29.5407315 47.9946429,28.6308794 C47.9946429,27.7214046 47.3446205,26.9635717 46.3895089,26.9635717 L45.6749777,26.9635717 L45.6749777,30.2985643 L46.3895089,30.2985643 Z M44.3908705,25.7983425 L46.3895089,25.7983425 C47.9946429,25.7983425 49.2870982,27.067307 49.2870982,28.6308794 C49.2870982,30.1952064 47.9946429,31.4634164 46.3895089,31.4634164 L44.3908705,31.4634164 L44.3908705,25.7983425 Z" id="Fill-15" fill="#100013"></path>
                <polygon id="Fill-16" fill="#100013" points="50.5886607 31.4634541 51.8727679 31.4634541 51.8727679 25.7983802 50.5886607 25.7983802"></polygon>
                <path d="M56.1581719,29.5487663 L55.620471,28.3676938 L55.0823906,29.5487663 L56.1581719,29.5487663 Z M55.620471,25.7347056 L58.4296451,31.4635296 L57.081029,31.4635296 L56.6719665,30.5861183 L54.5689754,30.5861183 L54.1595335,31.4635296 L52.8109174,31.4635296 L55.620471,25.7347056 Z" id="Fill-17" fill="#100013"></path>
                <polygon id="Fill-18" fill="#100013" points="60.6594531 28.5034549 60.6594531 31.4634919 59.375346 31.4634919 59.375346 25.7346679 62.9711496 28.7588321 62.9711496 25.7984179 64.2552567 25.7984179 64.2552567 31.5276191"></polygon>
                <polygon id="Fill-19" fill="#100013" points="36.6886942 43.3959075 40.059096 43.3959075 40.059096 44.6565732 37.9728013 44.6565732 37.9728013 45.6135777 39.5775558 45.6135777 39.5775558 46.842557 37.9728013 46.842557 37.9728013 49.0602271 36.6886942 49.0602271"></polygon>
                <polygon id="Fill-20" fill="#100013" points="41.2833996 43.3321575 44.1240692 46.1643173 46.9654978 43.3321575 46.9654978 49.0602271 45.6813906 49.0602271 45.6813906 46.2838957 44.1240692 47.831625 42.5675067 46.2838957 42.5675067 49.0602271 41.2833996 49.0602271"></polygon>
            </g>
        </g>
    </g>
</svg>