<?xml version="1.0" encoding="UTF-8"?>
<svg width="60px" height="60px" viewBox="0 0 60 60" version="1.1" xmlns="http://www.w3.org/2000/svg" xmlns:xlink="http://www.w3.org/1999/xlink">
    <!-- Generator: Sketch 40.1 (33804) - http://www.bohemiancoding.com/sketch -->
    <title>Page 1</title>
    <desc>Created with Sketch.</desc>
    <defs>
        <polygon id="path-1" points="2.48044003e-13 0.0381315821 59.9432727 0.0381315821 59.9432727 59.9210576 2.48044003e-13 59.9210576 2.48044003e-13 0.0381668248 -7.03991243e-05 59.9210737 59.9432711 59.9210737 59.9432711 0.0381668248 2.4804399e-13 0.0381668248"></polygon>
    </defs>
    <g id="Symbols" stroke="none" stroke-width="1" fill="none" fill-rule="evenodd">
        <g id="512" transform="translate(-142.000000, -9.000000)">
            <g id="Page-1" transform="translate(142.000000, 9.000000)">
                <g id="Group-3" transform="translate(0.000000, 0.143447)">
                    <mask id="mask-2" fill="white">
                        <use xlink:href="#path-1"></use>
                    </mask>
                    <g id="Clip-2"></g>
                    <path d="M30.0016545,0.30234713 C13.9100182,0.214644491 0.253109091,13.2810666 0.252563636,29.9765259 C0.252018182,46.4615351 13.5585636,59.4471546 29.5305636,59.6697704 C46.1178364,59.9009205 59.4420182,46.6520115 59.7111091,30.5199917 C59.9940182,13.5735903 46.2140182,0.223905018 30.0016545,0.30234713 M59.9425636,29.9832443 C60.0551091,46.2022404 46.7252909,60.1293468 29.5762,59.9187152 C13.1060182,59.7164362 -0.0394363636,46.2427325 1.81818184e-05,29.8875522 C0.0398363636,13.4684561 13.5222,-0.182650278 30.4051091,0.0408734244 C46.8298364,0.258405021 60.0376545,13.7306561 59.9425636,29.9832443" id="Fill-1" fill="#FFFFFF" mask="url(#mask-2)"></path>
                </g>
                <path d="M50.4947455,14.2911178 C50.4974727,14.3038283 50.5003818,14.3165388 50.5031091,14.3292493 C50.9720182,14.2589783 51.4469273,14.2157625 51.9076545,14.109902 C52.2731091,14.0261941 52.3736545,13.804123 52.2878364,13.4333387 C52.1607455,12.8844255 51.8825636,12.4168597 51.4714727,12.0368149 C51.0447455,11.6422439 50.2638364,11.5774202 49.9440182,11.9687228 C49.6187455,12.3667439 49.3412909,12.8254124 49.1431091,13.299515 C48.9425636,13.7787019 49.1938364,14.1414967 49.7118364,14.2399125 C49.9667455,14.2882125 50.2334727,14.2758651 50.4947455,14.2911178 M9.3982,14.3118178 C9.81456364,14.275502 10.1047455,14.2796783 10.3809273,14.2193941 C10.8640182,14.1137151 11.0900182,13.7692598 10.8947455,13.318944 C10.6856545,12.8368518 10.3922,12.3812702 10.0716545,11.9629123 C9.95510909,11.8109307 9.65092727,11.7281307 9.43765455,11.7375728 C8.5922,11.7747965 7.71601818,12.7742071 7.72092727,13.6298072 C7.72256364,13.9107098 7.88165455,14.059423 8.1162,14.1068151 C8.58056364,14.2003283 9.0522,14.2580704 9.3982,14.3118178 M34.6882,9.10649365 C34.3560182,9.26864366 34.0852909,9.36633314 33.8516545,9.5203121 C32.3229273,10.5271674 31.5414727,12.0310044 31.0805636,13.7392993 C31.0443818,13.8733046 31.0374727,14.0296441 31.0692909,14.1632862 C31.0987455,14.2865783 31.1752909,14.4409204 31.2760182,14.4903099 C31.3445636,14.523902 31.5276545,14.4292993 31.5956545,14.3421414 C31.9898364,13.8369888 32.3642,13.3165835 32.7465636,12.8023518 C33.1138364,12.3088202 33.4731091,11.8087518 33.8542,11.3259333 C34.1631091,10.9342675 34.5178364,10.5776464 34.8142,10.1772648 C34.9383818,10.0094858 35.0245636,9.76617002 35.0151091,9.56243842 C35.0082,9.41408841 34.8160182,9.27427261 34.6882,9.10649365 M29.0218364,14.1129888 C28.9932909,13.9561046 28.9840182,13.8851072 28.9671091,13.8162888 C28.6427455,12.4896729 28.1003818,11.2718228 27.1227455,10.2912964 C26.6700182,9.83698581 26.1938364,9.39302525 25.5460182,9.22034366 C25.1823818,9.12338049 24.9194727,9.36724104 25.0014727,9.72985422 C25.0369273,9.88619371 25.1151091,10.0458016 25.2143818,10.1723622 C25.4932909,10.5278938 25.7958364,10.8649043 26.0840182,11.2133543 C26.4322,11.6342544 26.7914727,12.0471649 27.1165636,12.485315 C27.5476545,13.0663677 27.9407455,13.6757467 28.3736545,14.2555283 C28.4627455,14.3748257 28.6896545,14.5091941 28.7912909,14.4712441 C28.9134727,14.4254862 28.9694727,14.2032335 29.0218364,14.1129888 M39.1436545,9.86186213 C38.8572909,9.66030948 38.5696545,9.74783054 38.2842,9.82645423 C36.0998364,10.4276622 34.7092909,12.0077623 33.4476545,13.7449282 C33.3858364,13.8300888 33.3323818,13.9324993 33.3127455,14.0341835 C33.2836545,14.1848941 33.2882,14.3419599 33.2785636,14.4964836 C33.4243818,14.4908546 33.5818364,14.5186362 33.7143818,14.4736046 C34.1645636,14.3205335 34.6031091,14.1333256 35.0514727,13.9740809 C37.0585636,13.2608387 38.3465636,11.8307228 39.1436545,9.86186213 M21.3167455,9.72041212 C21.1923818,9.82463844 20.7747455,9.65340948 20.9571091,10.0309121 C21.2709273,10.6807832 21.6176545,11.3297465 22.0489273,11.9057149 C23.1574727,13.3857651 24.8338364,13.9582835 26.4922,14.5347967 C26.7494727,14.6243152 26.8916545,14.4634362 26.7882,14.2021441 C26.6842,13.9397625 26.5609273,13.6721151 26.3876545,13.4525861 C25.9900182,12.9487045 25.5458364,12.4816834 25.1403818,11.9836123 C24.2578364,10.8992227 23.0851091,10.2744095 21.7894727,9.8388016 C21.6442,9.78995686 21.4914727,9.76344633 21.3167455,9.72041212 M41.0572909,4.71428013 C40.8614727,4.77674329 40.4585636,4.87025645 40.0849273,5.03131699 C38.8212909,5.5758723 38.3707455,6.74832766 37.9298364,7.91043302 C37.7625636,8.35148832 37.9767455,8.5786436 38.4262,8.42557254 C39.9318364,7.91297513 41.4272909,7.37023561 42.9251091,6.83512241 C43.0243818,6.79971451 43.1152909,6.73652503 43.2042,6.67714871 C43.8607455,6.23827236 43.8702,5.70588284 43.2094727,5.27572228 C42.6267455,4.89622225 41.9663818,4.7567696 41.0572909,4.71428013 M19.0980182,4.73498013 C18.1456545,4.73534329 17.3220182,4.9536012 16.8743818,5.24067754 C16.1509273,5.70461179 16.1345636,6.26133288 16.8745636,6.68731713 C17.3031091,6.93390136 17.7794727,7.10513032 18.2474727,7.27345402 C19.3422,7.66693563 20.4420182,8.04625408 21.5471091,8.40923043 C21.7027455,8.46025412 21.9972909,8.44899622 22.0540182,8.35838832 C22.1411091,8.21911726 22.1360182,7.96163829 22.0672909,7.79730933 C21.8389273,7.25057507 21.6156545,6.69040397 21.2969273,6.19523814 C20.7185636,5.29678544 19.8649273,4.80198276 19.0980182,4.73498013 M33.9089273,7.02668821 C33.9483818,7.0432119 33.9876545,7.05991716 34.0271091,7.07662243 C33.9447455,7.4143593 33.8407455,7.74900932 33.7894727,8.09146725 C33.7638364,8.26251463 33.7807455,8.55576465 33.8742,8.60243045 C34.0331091,8.68196203 34.3025636,8.67560677 34.4645636,8.59026466 C35.0747455,8.26868831 35.6832909,7.93385671 36.2500182,7.54255404 C37.1580182,6.91592504 37.7967455,6.06395655 38.1236545,5.00244594 C38.4380182,3.98124585 37.9047455,3.02160104 36.8776545,2.76811681 C34.3562,2.14602728 31.7998364,1.86421673 29.1982,1.93775621 C27.1647455,1.99513516 25.1678364,2.27131677 23.1927455,2.73870102 C22.3716545,2.93317208 21.7849273,3.66856688 21.8309273,4.51018537 C21.8742,5.30386702 22.2889273,5.94901707 22.7489273,6.56456975 C23.4511091,7.50442246 24.4865636,7.99613829 25.4734727,8.54341728 C25.6636545,8.64891466 25.9378364,8.60351992 26.1731091,8.62766992 C26.1922,8.40360148 26.2418364,8.17662778 26.2214727,7.95619092 C26.2009273,7.73502774 26.1071091,7.52094615 26.0522,7.3021435 C26.0314727,7.21988823 26.0298364,7.1329119 26.0194727,7.04811453 C26.0487455,7.03685663 26.0782,7.02541716 26.1074727,7.01415926 C26.5847455,7.8545067 27.0242,8.71918572 27.5496545,9.52830158 C28.0776545,10.3414122 28.5162,11.2275175 29.2683818,11.9098912 C29.3663818,11.7043439 29.4343818,11.5147754 29.4371091,11.3242991 C29.4472909,10.6219517 29.4154727,9.91869634 29.4367455,9.21689365 C29.4774727,7.87193828 29.1923818,6.62122239 28.4402,5.49125651 C28.4336545,5.48126966 28.4289273,5.47037492 28.4234727,5.45966177 C28.1792909,4.98356173 27.9258364,4.51181958 27.6989273,4.02773007 C27.6534727,3.93094848 27.7087455,3.78695636 27.7174727,3.66475372 C27.8307455,3.7072432 27.9802,3.71795636 28.0500182,3.79821426 C28.2442,4.02119323 28.4016545,4.27576693 28.5803818,4.51272748 C28.9163818,4.95759594 29.2292909,5.42425387 29.6049273,5.83316969 C29.8972909,6.15147761 30.1212909,6.13586182 30.4405636,5.83698285 C30.6816545,5.6112802 30.8918364,5.34690123 31.0863818,5.07852752 C31.3447455,4.72263276 31.5622,4.33695904 31.8218364,3.98215375 C31.9322,3.83144321 32.1051091,3.72630899 32.2496545,3.60047477 C32.2972909,3.62535109 32.3447455,3.65022741 32.3923818,3.67510372 C32.3416545,3.87574848 32.3247455,4.09346165 32.2343818,4.2743143 C31.9258364,4.89131961 31.5943818,5.49706703 31.2662,6.10426708 C30.8643818,6.84819609 30.6082,7.62099615 30.6280182,8.48585675 C30.6507455,9.4720121 30.6098364,10.4596201 30.6163818,11.4465017 C30.6174727,11.5921281 30.7278364,11.7372097 30.7876545,11.8824728 C30.9107455,11.7813333 31.0656545,11.7018018 31.1512909,11.5752412 C31.6260182,10.8759806 32.0987455,10.1745411 32.5425636,9.45548841 C32.8600182,8.94107521 33.1292909,8.39706464 33.4236545,7.86848828 C33.5812909,7.58558826 33.7469273,7.30704613 33.9089273,7.02668821 M20.1378364,12.8541018 C20.1369273,12.7956334 20.1360182,12.737165 20.1351091,12.6788782 C20.3154727,12.6639887 20.4954727,12.6416545 20.6762,12.6354808 C21.2040182,12.6175045 21.4145636,12.3543965 21.2703818,11.8436149 C21.1736545,11.501157 21.0527455,11.1632386 20.9140182,10.8353069 C20.3862,9.5876779 19.4754727,8.82413836 18.1334727,8.50474096 C17.2965636,8.30536726 16.4992909,7.94075671 15.6834727,7.65222774 C15.5607455,7.60883036 15.4360182,7.55381194 15.3087455,7.54182773 C14.0520182,7.42325666 12.8794727,7.60011457 11.9274727,8.52870939 C11.8167455,8.63674887 11.7016545,8.74133835 11.5802,8.83703047 C11.0080182,9.28843577 10.8445636,9.89581739 10.9132909,10.5867253 C11.0251091,11.7125149 11.5763818,12.6116939 12.4016545,13.349994 C13.9311091,14.7181915 15.7103818,15.6251784 17.6932909,16.1354153 C18.0014727,16.2147653 18.3287455,16.2735969 18.6427455,16.25671 C18.8223818,16.2469048 19.0660182,16.1029126 19.1449273,15.94966 C19.2122,15.8187416 19.1382,15.5483705 19.0332909,15.4105521 C18.8485636,15.1679626 18.5612909,15.003452 18.3743818,14.7617704 C18.1320182,14.4483651 17.9292909,14.1002783 17.7465636,13.7478335 C17.6956545,13.6495993 17.7756545,13.4838177 17.7954727,13.3489045 C17.8352909,13.3378282 17.8751091,13.3267519 17.9149273,13.3156756 C18.1283818,13.4988887 18.3771091,13.6541388 18.5489273,13.8703993 C19.0889273,14.5505941 19.6582,15.2184415 20.1045636,15.9583758 C20.4909273,16.5986232 20.9663818,17.1108575 21.6178364,17.4253522 C22.3000182,17.754918 23.0189273,18.0147575 23.7352909,18.2669707 C25.1022,18.7479734 26.3034727,19.4401524 27.1645636,20.6547341 C27.4716545,21.0879815 27.8645636,21.4674815 28.2569273,21.8297315 C28.3985636,21.9602868 28.6534727,21.9684579 28.8565636,22.0323737 C28.9100182,21.85025 29.0240182,21.6621342 29.0065636,21.4869105 C28.9298364,20.7186499 28.8045636,19.9554735 28.7163818,19.1883024 C28.4732909,17.0710917 27.3769273,15.6271758 25.4002,14.7910046 C24.4616545,14.3938915 23.5647455,13.8803861 22.6962,13.3438203 C22.3003818,13.0992334 21.9367455,12.9490676 21.4747455,12.9526992 C21.0294727,12.9563308 20.5834727,12.8896913 20.1378364,12.8541018 M39.8996545,12.6801492 C39.9020182,12.7162834 39.9045636,12.7522361 39.9071091,12.7881887 C39.7765636,12.8225071 39.6447455,12.891144 39.5160182,12.8856966 C38.4063818,12.839394 37.4605636,13.2072729 36.5378364,13.8270019 C35.7645636,14.3464993 34.8518364,14.6544573 34.0218364,15.095331 C32.8794727,15.7018047 31.9563818,16.559039 31.6427455,17.8442549 C31.3482,19.0521181 31.2012909,20.2970235 31.0152909,21.5293999 C30.9916545,21.6855578 31.0802,21.9497552 31.1969273,22.0107658 C31.3163818,22.0732289 31.5423818,21.9655526 31.7067455,21.8967342 C31.8103818,21.8533368 31.8949273,21.7518342 31.9736545,21.6635868 C32.3942,21.1929341 32.8338364,20.7368078 33.2218364,20.240734 C33.7663818,19.5449235 34.4492909,19.0404971 35.2523818,18.7078444 C36.0652909,18.371197 36.9082,18.1069997 37.7222,17.7727128 C38.6391091,17.3959364 39.4032909,16.8593706 39.9382,15.9576495 C40.4256545,15.1358231 41.0849273,14.4133204 41.6942,13.6681203 C41.8105636,13.525944 42.0478364,13.4821835 42.2292909,13.3930282 C42.2198364,13.6172782 42.2562,13.8569625 42.1878364,14.0616019 C42.1191091,14.2667862 41.9614727,14.4503625 41.8143818,14.6186862 C41.6663818,14.7879178 41.4752909,14.9184731 41.3176545,15.0802599 C41.0774727,15.326481 40.7080182,15.5251284 40.8776545,15.9640047 C40.9920182,16.2603416 41.3534727,16.3524021 41.8963818,16.2376442 C43.9894727,15.7954995 45.8500182,14.871081 47.4796545,13.4941677 C48.3092909,12.7930913 48.9147455,11.9369465 49.0929273,10.8336727 C49.1863818,10.2542543 49.2018364,9.65032264 48.7956545,9.19964365 C48.0734727,8.39851727 47.2683818,7.65785668 46.1194727,7.56398036 C45.5469273,7.51731457 44.8994727,7.45721193 44.3983818,7.66875142 C43.5376545,8.03245408 42.6720182,8.33623569 41.7660182,8.54523307 C40.5969273,8.81469625 39.7569273,9.50614894 39.2431091,10.5780096 C39.0489273,10.9832938 38.9062,11.416178 38.7711091,11.846157 C38.6136545,12.3467702 38.8312909,12.6175045 39.3627455,12.6356624 C39.5420182,12.6416545 39.7207455,12.6648966 39.8996545,12.6801492 M9.53729091,44.6832597 C9.20110909,45.3516519 9.47365455,45.8834967 9.78547273,46.3988178 C10.0440182,46.8264362 10.3043818,47.2569599 10.6065636,47.65371 C11.2182,48.4568337 12.0043818,49.0113759 13.0198364,49.1905943 C13.1467455,49.2131101 13.2809273,49.1936812 13.4145636,49.1936812 C13.1347455,48.6997864 12.8312909,48.2723495 12.6400182,47.7995179 C12.3949273,47.193952 12.5767455,46.5803967 13.0065636,46.3674046 C12.9989273,46.476352 13.0054727,46.5662336 12.9851091,46.6493967 C12.7992909,47.4060363 13.0180182,48.0640784 13.5745636,48.5636022 C13.9663818,48.9149575 14.4331091,49.2027601 14.9060182,49.4397207 C15.7296545,49.8524496 16.5622,50.2226891 17.0851091,51.0476024 C17.3269273,51.4289182 17.6687455,51.3539261 17.8696545,50.9431945 C18.1460182,50.3777576 18.4414727,49.8208549 18.7476545,49.2706706 C19.0485636,48.7301101 19.3972909,48.2151521 19.6811091,47.6662389 C20.0334727,46.9849547 19.8820182,46.4048099 19.2838364,45.925623 C19.1880182,45.8488151 19.0931091,45.7710993 18.9976545,45.6939282 C19.0147455,45.6639677 19.0316545,45.6340072 19.0487455,45.6040467 C19.2398364,45.6837598 19.4767455,45.7173519 19.6127455,45.8522651 C19.8952909,46.1324414 20.1596545,46.445302 20.3629273,46.785581 C20.5032909,47.0203626 20.5920182,47.0561336 20.8567455,46.9776915 C21.5142,46.7826757 22.1823818,46.576402 22.8598364,46.5070388 C23.7507455,46.4157046 24.6002,46.624702 25.2369273,47.3252336 C25.3576545,47.4581494 25.3811091,47.6793126 25.4492909,47.8598021 C25.2712909,47.8095047 25.0929273,47.76066 24.9158364,47.7070942 C24.8832909,47.6972889 24.8571091,47.6669652 24.8272909,47.6473547 C22.9989273,46.4476625 21.0583818,46.8594836 19.8767455,48.7005127 C19.8176545,48.7927548 19.7847455,48.9017022 19.7311091,49.022089 C20.1000182,49.022089 20.4218364,48.9855917 20.7307455,49.0326206 C21.0223818,49.0771075 21.3005636,49.2096601 21.5845636,49.3035364 C21.5771091,49.3449364 21.5694727,49.386518 21.5620182,49.427918 C20.4747455,49.2730312 19.6374727,49.5867996 19.2054727,50.652305 C18.9136545,51.3724471 18.8714727,52.3635051 19.1494727,52.6434999 C19.5387455,51.7228945 20.2665636,51.2607761 21.2152909,51.1037103 C20.5807455,51.3631866 20.1223818,51.8204024 19.8187455,52.4168893 C19.7002,52.6498551 19.6167455,52.9434683 19.6396545,53.1984052 C19.8116545,55.1026238 21.1874727,56.616266 23.0634727,56.9480107 C23.6456545,57.050966 24.2471091,57.0573213 24.8409273,57.0800187 C26.2932909,57.1355818 27.1945636,56.392016 27.6620182,55.0706659 C27.8518364,54.5341 28.0287455,53.9880921 28.1496545,53.4328236 C28.6049273,51.3415787 28.7238364,49.2116575 28.7571091,47.082281 C28.8074727,43.866336 28.7936545,40.6493015 28.8032909,37.4328118 C28.8136545,33.9078194 28.7871091,30.3848243 28.4485636,26.8703635 C28.2912909,25.2379687 27.8278364,23.7497475 26.7185636,22.5042974 C26.4254727,22.1750947 26.1456545,21.8339079 25.8485636,21.5081552 C24.7763818,20.3320683 23.5871091,19.3326576 22.0120182,18.8763497 C20.9965636,18.5821918 19.9900182,18.2531707 18.9907455,17.907626 C17.8322,17.5068812 16.6816545,17.0818048 15.5356545,16.6463785 C14.6014727,16.2913916 13.7029273,15.8187416 12.7454727,15.5534547 C11.1992909,15.1251099 9.61929091,15.3451836 8.06238182,15.5854126 C6.94310909,15.7580942 6.02529091,16.3738285 5.17947273,17.0843469 C4.91601818,17.3056917 4.67692727,17.5980338 4.52747273,17.9065365 C2.78056364,21.5137841 1.86929091,25.3291213 1.74965455,29.3313032 C1.66801818,32.0600719 1.95110909,34.7561563 2.69165455,37.383967 C5.08383636,45.871694 10.3220182,51.9760156 18.2607455,55.7913528 C18.7703818,56.0361212 19.3016545,56.2362212 19.8227455,56.4570212 C19.7927455,56.3320949 19.7311091,56.2669081 19.6598364,56.2147949 C18.7783818,55.5696448 17.9860182,54.8249895 17.3436545,53.9459658 C16.9478364,53.4043157 16.6023818,52.8120051 16.3280182,52.2006288 C16.1609273,51.8283919 16.0171091,51.461784 15.6525636,51.2782076 C14.9207455,50.9092392 14.1840182,50.539726 13.4187455,50.2515602 C12.8722,50.0458312 12.3378364,50.1502391 11.9602,50.6853523 C11.8612909,50.8255313 11.7018364,50.9321181 11.5512909,51.0232708 C11.4712909,51.0717524 11.3512909,51.0543208 11.2492909,51.0668497 L11.2105636,50.9722471 C11.4405636,50.7761418 11.6992909,50.6038234 11.8898364,50.3750339 C12.0080182,50.2330391 12.1243818,49.9628496 12.0658364,49.8239417 C11.8523818,49.3167917 10.7976545,48.9915838 10.2951091,49.2221891 C10.1134727,49.3055338 9.92110909,49.3661812 9.73365455,49.4371786 C9.70801818,49.3906943 9.6822,49.3440285 9.65638182,49.2973627 C9.80729091,49.1904127 9.9482,49.0645785 10.1105636,48.9799627 C10.7018364,48.6721864 10.7138364,48.620618 10.3576545,48.0480995 C10.0309273,47.5227916 9.68292727,47.0052915 9.41710909,46.4496599 C9.24783636,46.0961256 9.17510909,45.6830335 9.1302,45.288644 C9.10474545,45.0663913 9.17565455,44.7969282 9.53729091,44.6832597 M48.8472909,51.0924524 C51.5576545,48.6759995 53.7272909,45.8419151 55.3234727,42.5865675 C57.7822,37.5719013 58.6665636,32.2810535 58.0147455,26.7323635 C57.6360182,23.5097001 56.7069273,20.4544525 55.2720182,17.5484628 C55.2200182,17.443147 55.1614727,17.3280259 55.0743818,17.2550312 C54.0505636,16.3954364 52.9691091,15.6482389 51.5785636,15.52531 C50.9262,15.4675679 50.2754727,15.3831336 49.6220182,15.3502678 C48.4816545,15.2932521 47.3774727,15.4201757 46.3065636,15.8882863 C44.9218364,16.4936706 43.5147455,17.0536601 42.0940182,17.5693443 C41.0565636,17.9459391 39.9665636,18.1772707 38.9271091,18.5489628 C37.5420182,19.0441287 36.1071091,19.469205 35.0727455,20.628042 C34.8191091,20.9120315 34.5236545,21.1582525 34.2643818,21.437521 C33.3131091,22.4612632 32.3320182,23.4862764 31.9762,24.8822555 C31.7367455,25.8215634 31.5743818,26.7959162 31.5163818,27.7630057 C31.3736545,30.1384217 31.2505636,32.5181956 31.2303818,34.8972431 C31.1980182,38.7556145 31.2529273,42.6148938 31.2738364,46.4736283 C31.2849273,48.4991416 31.4011091,50.5182997 31.7125636,52.5212972 C31.8883818,53.6516263 32.1298364,54.7694264 32.7162,55.7748291 C33.1060182,56.4434028 33.6405636,56.9512792 34.4483818,57.0092029 C35.1345636,57.0582292 35.8309273,57.0762055 36.5151091,57.0179186 C38.3732909,56.8597634 39.5845636,55.827487 40.2147455,54.1068447 C40.6098364,53.0280841 40.4038364,52.3012235 39.5365636,51.5547524 C39.3231091,51.3709945 39.0598364,51.2451603 38.7845636,51.0706629 C39.7723818,51.2575076 40.5058364,51.7287051 40.9529273,52.6440446 C41.1698364,51.9513209 41.0712909,51.3003603 40.8309273,50.6651971 C40.4149273,49.5648286 39.5380182,49.2810206 38.4431091,49.3896049 C39.0096545,48.9647101 39.6391091,48.9679785 40.3263818,49.0584048 C40.2642,48.9084206 40.2451091,48.8281627 40.2020182,48.7638838 C39.0709273,47.0706599 37.2700182,46.318923 35.2771091,47.6074073 C35.1471091,47.6914784 35.0242,47.7902574 34.8856545,47.8565337 C34.8116545,47.8919416 34.7111091,47.8721495 34.6225636,47.8774153 C34.6189273,47.7868074 34.5787455,47.6731389 34.6185636,47.6097679 C34.7309273,47.4310942 34.8529273,47.2449757 35.0131091,47.1118784 C35.4454727,46.7527152 35.9602,46.5733152 36.5176545,46.5123046 C37.4556545,46.4098941 38.3445636,46.6045467 39.1967455,46.9784178 C39.4383818,47.0844599 39.5400182,47.0365231 39.6663818,46.8070073 C39.8358364,46.4990494 40.0425636,46.1972651 40.2920182,45.9521335 C40.4643818,45.7825388 40.7356545,45.7133572 40.9629273,45.599144 C40.9803818,45.633644 40.9978364,45.6679624 41.0152909,45.7024625 C40.9352909,45.7705546 40.8562,45.839373 40.7756545,45.9063756 C40.1412909,46.4336809 40.0087455,46.9328415 40.3616545,47.6693258 C40.5667455,48.0971258 40.8374727,48.4929679 41.0662,48.9100548 C41.4431091,49.5971496 41.8182,50.2853339 42.1776545,50.981326 C42.3722,51.3581024 42.6849273,51.3918761 42.9631091,51.0519603 C43.1725636,50.7961155 43.3600182,50.4981444 43.6245636,50.316747 C44.1023818,49.9886339 44.6158364,49.702647 45.1414727,49.4566075 C45.7014727,49.1945891 46.2158364,48.8846338 46.6122,48.40926 C47.0100182,47.931889 47.2271091,47.396231 47.0716545,46.7565283 C47.0416545,46.6332362 47.0672909,46.4963257 47.0672909,46.3655888 C47.1005636,46.3577809 47.1338364,46.3497915 47.1669273,46.341802 C47.2585636,46.5137573 47.3927455,46.6760888 47.4343818,46.859302 C47.6432909,47.7809968 47.1556545,48.4689995 46.5216545,49.1762496 C46.7234727,49.1927733 46.8258364,49.2214627 46.9205636,49.2054838 C47.9936545,49.0249943 48.8938364,48.5087653 49.5049273,47.6242942 C50.0991091,46.7641546 50.9892909,45.9755572 50.5429273,44.6629229 C50.8803818,44.8764598 50.9576545,45.1584519 50.9074727,45.4324545 C50.8358364,45.8250283 50.7374727,46.2281335 50.5611091,46.5823941 C50.3020182,47.1022547 49.9656545,47.5839837 49.6587455,48.0796942 C49.3342,48.6042758 49.3616545,48.689618 49.9049273,48.9685232 C50.0782,49.0576785 50.2291091,49.1904127 50.3902,49.3033549 C50.3678364,49.3431206 50.3454727,49.383068 50.3231091,49.4228338 C50.1940182,49.388697 50.0427455,49.386518 49.9396545,49.3149759 C49.3794727,48.9267601 48.8865636,49.1119706 48.3920182,49.450797 C47.7605636,49.8833181 47.7527455,50.0674391 48.3454727,50.5740444 C48.5305636,50.7323813 48.6869273,50.9243103 48.8547455,51.099534 C48.4938364,51.1205971 48.2438364,50.9201339 48.0505636,50.6564813 C47.7460182,50.2404839 47.3389273,50.0939497 46.8587455,50.2032602 C45.8731091,50.4276918 44.9667455,50.8462313 44.1636545,51.4579708 C43.9794727,51.5983314 43.8712909,51.8536314 43.7614727,52.0726156 C43.5820182,52.4308709 43.4716545,52.8290736 43.2587455,53.1640868 C42.5372909,54.3002263 41.6169273,55.2615053 40.5520182,56.0847844 C40.4562,56.1588686 40.3622,56.2351317 40.2052909,56.3595133 C42.0156545,56.0077949 46.7363818,53.1099762 48.8472909,51.0924524 M29.9976545,0.945608762 C46.0165636,0.850824544 59.3191091,14.028373 59.2194727,30.3181849 C59.1223818,46.1685756 46.1916545,59.320703 29.9678364,59.3230636 C13.9043818,59.3252425 0.513654545,46.2379388 0.748381818,29.6795717 C0.976745455,13.5606256 14.2332909,0.843016648 29.9976545,0.945608762" id="Fill-4" fill="#FFFFFF"></path>
                <path d="M19.2688727,28.9457748 C19.4983273,29.1482353 19.7279636,29.3505143 20.0145091,29.6034538 C19.9050545,29.1573142 19.6286909,29.0096905 19.2688727,28.9457748 L19.2688727,28.9457748 Z M16.8976,29.14533 C16.8901455,29.0966669 16.8828727,29.0480037 16.8754182,28.9993405 C16.5772364,29.0779642 16.2790545,29.1565879 15.9810545,29.2352116 C15.9892364,29.2662616 15.9976,29.2974932 16.0057818,29.3287248 C16.3030545,29.2675327 16.6003273,29.2065221 16.8976,29.14533 L16.8976,29.14533 Z M21.2699636,31.2304013 C20.9726909,30.8864907 20.6716,30.8283854 20.4368727,31.0339328 C20.6959636,31.0949434 20.9574182,31.1566802 21.2699636,31.2304013 L21.2699636,31.2304013 Z M24.5836,36.0751096 C24.2917818,36.0418806 24.0468727,36.014099 23.7501455,35.9803253 C24.0837818,36.3638201 24.2317818,36.3765306 24.5836,36.0751096 L24.5836,36.0751096 Z M20.3699636,38.8792335 C20.3432364,38.3519282 20.1605091,38.1550966 19.7132364,38.173436 C19.9385091,38.4154808 20.1336,38.6252045 20.3699636,38.8792335 L20.3699636,38.8792335 Z M21.4481455,38.9849124 C21.4741455,38.9613072 21.5003273,38.9378835 21.5265091,38.9142782 C21.3350545,38.7165387 21.1436,38.5187992 20.9521455,38.3212413 C20.9659636,38.757394 21.1039636,38.9071966 21.4481455,38.9849124 L21.4481455,38.9849124 Z M14.2516,36.2243675 C13.7803273,36.5246991 13.3088727,36.8252122 12.8376,37.1255439 C13.3981455,36.9673886 13.9012364,36.7175359 14.2516,36.2243675 L14.2516,36.2243675 Z M11.6868727,28.3091589 C12.2456,28.6258326 12.8312364,28.8092274 13.4790545,28.6895668 C12.8816,28.5628247 12.2843273,28.4360826 11.6868727,28.3091589 L11.6868727,28.3091589 Z M11.6590545,21.7274663 C11.6141455,21.76469 11.5692364,21.8017321 11.5243273,21.8387742 C11.8723273,22.2300768 12.2203273,22.6213795 12.5683273,23.0126822 C12.6112364,22.9749137 12.6539636,22.9371453 12.6968727,22.8991953 C12.3508727,22.508619 12.0050545,22.1180426 11.6590545,21.7274663 L11.6590545,21.7274663 Z M18.7185091,31.374575 C18.1519636,31.2718013 17.5537818,31.1635802 16.9790545,31.0593539 C17.6108727,31.5354539 18.3714182,31.6551145 18.7185091,31.374575 L18.7185091,31.374575 Z M14.1357818,28.2895484 C13.3976,28.1424694 12.6005091,27.9837694 11.8816,27.8406852 C12.2648727,28.2639458 13.5639636,28.5942379 14.1357818,28.2895484 L14.1357818,28.2895484 Z M18.0319636,27.4130667 C17.1199636,26.8585246 16.0881455,27.5020404 15.0997818,27.2823299 C15.0985091,27.3259088 15.0972364,27.3694878 15.0961455,27.4130667 L18.0319636,27.4130667 Z M17.5177818,27.0263035 C16.5668727,26.321414 15.3377818,26.7886167 14.3423273,26.2467851 C15.2826909,26.9899878 16.5048727,26.5605535 17.5177818,27.0263035 L17.5177818,27.0263035 Z M10.6221455,20.3491004 C10.5892364,20.3500083 10.5561455,20.3509162 10.5232364,20.351824 C9.91232727,21.5918268 10.3574182,23.4074348 11.2839636,23.8975164 C10.8974182,23.3998085 10.6157818,22.8643321 10.6210545,22.2177295 C10.6261455,21.5949136 10.6221455,20.9719162 10.6221455,20.3491004 L10.6221455,20.3491004 Z M8.82341818,26.5787114 C8.79523636,26.6070377 8.76705455,26.6355456 8.73887273,26.6638719 C8.81250909,27.0306614 8.76341818,27.079143 8.37396364,27.0578983 C7.7816,27.0255772 7.18832727,26.9692878 6.59669091,26.9810904 C6.01032727,26.992893 5.32305455,27.3121088 5.09269091,27.6013641 C6.15014545,27.188272 6.22178182,27.1840957 7.38250909,27.2696194 C7.84396364,27.3035746 8.30832727,27.3184641 8.77087273,27.310293 C8.98887273,27.3064799 9.24669091,27.2069746 9.21232727,26.9498588 C9.19378182,26.8113141 8.95996364,26.7014588 8.82341818,26.5787114 L8.82341818,26.5787114 Z M17.2483273,29.4727169 C17.4197818,29.9789591 17.7619636,30.2097459 18.2728727,30.2311722 C18.4005091,30.236438 18.5285091,30.3392117 18.6476,30.4116617 C18.7530545,30.4757591 18.8463273,30.5598302 18.9812364,30.6627854 C18.7132364,29.3348985 18.3908727,29.1213616 17.2483273,29.4727169 L17.2483273,29.4727169 Z M6.99414545,34.0387015 C7.01196364,34.0706594 7.02978182,34.1026173 7.0476,34.1345752 C7.7616,33.8366041 8.47596364,33.8578488 9.21650909,34.0321646 C9.83541818,34.1776094 10.4108727,33.9682489 10.9345091,33.6316015 C10.7628727,33.6152594 10.6006909,33.6470357 10.4370545,33.6590199 C9.81214545,33.7049594 9.20832727,33.7665146 8.58214545,33.5030436 C7.9496,33.2370304 7.25887273,33.3209199 6.5096,33.6109015 L7.7556,33.6109015 C7.45487273,33.7797699 7.22450909,33.9092357 6.99414545,34.0387015 L6.99414545,34.0387015 Z M2.63541818,30.0813696 C2.7716,29.0993906 2.91269091,28.2196405 3.01123636,27.3351694 C3.11687273,26.386964 3.68269091,25.8491271 4.52178182,25.5259166 C4.64250909,25.4794324 4.76578182,25.4389403 4.90814545,25.3882797 C4.75250909,25.1504113 4.60723636,24.9283402 4.47723636,24.7295112 C5.27269091,24.9247086 6.0676,25.0975718 6.84923636,25.3176455 C7.59832727,25.5284587 8.13778182,25.2430166 8.61123636,24.6988244 C9.40487273,23.7869349 9.73305455,22.72724 9.77469091,21.5264584 C9.79996364,20.7970557 9.99050909,20.0731003 10.1141455,19.347874 C10.1337818,19.2327529 10.1825091,19.1192661 10.2354182,19.0137687 C10.3657818,18.753566 10.4457818,18.4227292 10.8196,18.4185528 C11.2166909,18.4141949 11.4434182,18.6753055 11.5999636,19.0046897 C12.3339636,20.5502899 13.0630545,22.0982505 13.7997818,23.6425796 C13.9070545,23.8673743 14.0134182,24.1074217 14.1801455,24.2842796 C14.3314182,24.4447954 14.5588727,24.5393981 14.7628727,24.6436244 C15.0150545,24.772727 15.3039636,24.8446323 15.5312364,25.0056929 C17.0186909,26.0597587 18.5116,27.1074693 19.9605091,28.2127405 C20.3497818,28.5098037 20.6506909,28.9677458 20.8879636,29.4078932 C21.2325091,30.0472327 21.6401455,30.6032275 22.1970545,31.0787828 C23.4732364,32.1688013 24.8896,33.045283 26.3246909,33.8987041 C26.6072364,34.0666647 26.8646909,34.2533278 26.8497818,34.6404542 C26.8410545,34.8728752 26.7608727,35.0163226 26.5066909,34.9685674 C26.1412364,34.8999305 26.0208727,35.07352 26.0554182,35.4043569 C26.0770545,35.6122648 25.9690545,35.6901622 25.7894182,35.7602516 C25.6016,35.8332464 25.4165091,35.9411043 25.2654182,36.0736569 C25.0606909,36.2532385 24.9032364,36.4862043 24.7003273,36.668328 C24.4216,36.9185438 24.1272364,36.9041991 23.8143273,36.6908438 C23.7370545,36.6380043 23.6148727,36.6396385 23.5128727,36.6365517 C23.2763273,36.629107 23.0396,36.6341912 22.7225091,36.6341912 C23.0219636,36.219828 22.9959636,35.9570832 22.5736,35.6549358 C22.1566909,35.3566016 21.8625091,35.5539779 21.5056,35.727749 C21.4961455,35.5636016 21.4979636,35.4570148 21.4825091,35.35297 C21.4136,34.8844963 21.2008727,34.7822673 20.7819636,34.99417 C20.6081455,35.0822358 20.4177818,35.1377989 20.1839636,35.2276805 C20.2314182,35.0473726 20.2908727,34.9340674 20.2823273,34.8262095 C20.2714182,34.6907515 20.2441455,34.50427 20.1528727,34.4396278 C20.0043273,34.334312 19.8159636,34.2151962 19.6072364,34.4062173 C19.4468727,34.5529331 19.2441455,34.6533463 19.0068727,34.8095042 C18.9957818,34.6188463 18.9901455,34.5046331 18.9819636,34.3906015 C18.9681455,34.1955857 19.0161455,33.9869515 18.7446909,33.8950725 C18.4899636,33.8088225 18.2806909,33.7574357 18.0899636,34.0199989 C17.9906909,34.1563647 17.8301455,34.2482436 17.6637818,34.388241 C17.6328727,34.1245883 17.6090545,33.9215831 17.5716,33.6025488 C17.2888727,33.7830383 17.0477818,33.8865383 16.8736,34.0579489 C16.4416,34.4832068 16.3452364,35.3704016 16.6388727,35.895528 C16.8710545,36.310799 17.0014182,36.3770754 17.4705091,36.2989964 C17.6419636,36.2704885 17.8101455,36.2234596 18.0277818,36.1740701 C17.9396,36.413028 17.8632364,36.6196649 17.7716,36.8680649 C18.2814182,37.0151438 18.7441455,36.8103228 19.2572364,36.6913886 C19.2021455,36.9633938 19.1539636,37.2014439 19.0826909,37.5540702 C19.5508727,37.4587412 19.9565091,37.3761228 20.4032364,37.2853333 C20.3574182,37.4587412 20.3110545,37.6345097 20.2610545,37.8238965 C20.8066909,38.2262755 21.1668727,37.7016939 21.6643273,37.5135781 C21.6505091,37.7666992 21.6390545,37.9807808 21.6257818,38.2259124 L22.4112364,38.2259124 C22.3899636,38.3844308 22.3985091,38.5186176 22.3517818,38.629744 C22.1908727,39.0123308 22.0434182,39.4065388 21.8305091,39.7602546 C21.3917818,40.488931 20.6414182,40.6948415 19.8836,40.3042652 C19.0790545,39.8895388 18.2966909,39.4319598 17.4890545,39.0237703 C17.2232364,38.8895835 16.9068727,38.7735545 16.6172364,38.7811808 C14.9508727,38.8247598 13.2856,38.9081045 11.6201455,38.9774677 C11.5506909,38.980373 11.4808727,38.9778308 11.3605091,38.9778308 C11.5446909,38.4862966 11.8785091,38.2504255 12.3372364,38.1481966 C12.8474182,38.0343466 13.3450545,37.8878123 13.7952364,37.4636439 C13.2045091,37.5943807 12.6799636,37.6873492 12.1708727,37.8342465 C11.9545091,37.8967097 11.7585091,38.0568623 11.5759636,38.2015808 C11.4383273,38.3107097 11.3494182,38.4797598 11.2172364,38.5979677 C10.2783273,39.4383151 9.33414545,40.2724888 8.39032727,41.1073889 C8.36669091,41.1282705 8.32832727,41.1326284 8.25632727,41.1602284 C8.34069091,40.9368863 8.41378182,40.7435047 8.48687273,40.5503047 C8.45850909,40.5257915 8.43014545,40.5012783 8.40178182,40.4769468 C7.39814545,40.8014284 6.84414545,41.6388705 6.26541818,42.4904759 C5.84523636,41.9444679 5.79269091,41.3556074 5.94032727,40.7469547 C6.15123636,39.8782809 6.72087273,39.2358546 7.34923636,38.6386413 C7.45541818,38.5376834 7.56269091,38.437815 7.63741818,38.3043545 C6.83432727,38.6911177 6.32596364,39.3983677 5.7356,40.0653073 C5.29905455,39.4374072 4.63269091,39.2189677 3.91741818,39.0005282 C4.30832727,38.6991071 4.54141818,38.3326808 4.43687273,37.8787334 C4.34323636,37.4712702 4.15487273,37.0855965 4.00632727,36.6853964 C5.1516,37.1260886 6.02850909,36.6892096 6.77523636,35.7860358 C7.25050909,35.2111569 7.91469091,34.9482305 8.64450909,34.8363779 C8.64014545,34.8013331 8.6356,34.7662884 8.63123636,34.7312437 C8.36178182,34.7543042 8.05796364,34.705641 7.82996364,34.8149516 C7.33250909,35.0535463 6.79705455,35.2966805 6.41850909,35.6779964 C5.95087273,36.1491938 5.42541818,36.2931859 4.82032727,36.3322254 C4.6896,36.340578 4.55796364,36.3396701 4.42687273,36.3360385 C3.86705455,36.321149 3.5096,35.9924911 3.45650909,35.4412174 C3.41705455,35.03212 3.46505455,34.5901568 2.98487273,34.364091 C2.9596,34.3522884 2.99869091,34.0414252 3.07578182,34.001841 C3.52596364,33.7710541 3.99105455,33.4227857 4.46105455,33.4068067 C5.51687273,33.3708541 6.49978182,33.0761514 7.50178182,32.8255724 C7.67923636,32.7810856 7.86741818,32.7783619 8.04505455,32.6799461 C7.69196364,32.6982856 7.33687273,32.6999198 6.98596364,32.7384145 C6.13596364,32.8315645 5.27705455,32.8902146 4.44323636,33.0647119 C3.9476,33.1685751 3.48705455,33.454562 3.0216,33.6806278 C2.74378182,33.8157225 2.49323636,33.9270304 2.27614545,33.6012778 C2.27069091,33.5931067 2.27341818,33.5791251 2.27669091,33.6121725 C2.54669091,33.385562 2.82614545,33.2018041 3.04178182,32.9612119 C3.98941818,31.9038776 5.21214545,31.5131197 6.58032727,31.4319539 C7.60123636,31.3714881 8.62305455,31.310296 9.6396,31.2038907 C10.0572364,31.1603118 10.4737818,31.0221302 10.7826909,30.680217 C9.52069091,31.1588591 8.20450909,31.0767855 6.90432727,31.0448276 C5.79123636,31.0175907 4.78850909,31.3142907 3.82796364,31.8274329 C3.4836,32.0111908 3.14432727,32.2045724 2.72869091,32.4344514 C2.78341818,32.0963513 2.86141818,31.8245276 2.86196364,31.5527039 C2.86250909,31.2806986 2.7856,31.0085118 2.72178182,30.6035907 C3.45596364,29.5818459 4.65378182,28.96248 5.90123636,28.41048 C5.88941818,28.3756168 5.8776,28.3407537 5.86596364,28.3057089 C5.66305455,28.3561879 5.43378182,28.3627247 5.26196364,28.4651352 C4.55796364,28.8844011 3.87250909,29.3345353 3.17814545,29.7699617 C3.01450909,29.8725538 2.84323636,29.9626169 2.63541818,30.0813696 L2.63541818,30.0813696 Z" id="Fill-6" fill="#FFFFFF"></path>
                <path d="M17.7900364,23.1960043 C18.4373091,21.7517252 20.2934909,20.9536857 21.9027636,21.4092673 C21.5662182,22.9928174 19.6964,23.8151885 17.7900364,23.1960043" id="Fill-8" fill="#FFFFFF"></path>
                <path d="M25.2592182,22.9700293 C24.8684909,24.2140267 23.4850364,24.8348452 22.0703091,24.4224794 C22.5617636,23.0916872 24.0077636,22.2709503 25.2592182,22.9700293" id="Fill-10" fill="#FFFFFF"></path>
                <path d="M15.6087818,20.224628 C16.4616909,19.4556411 18.0020545,19.29912 18.8035091,19.8999648 C18.1664182,20.8022307 16.5427818,20.9671044 15.6087818,20.224628" id="Fill-12" fill="#FFFFFF"></path>
                <path d="M43.1798909,29.0063132 C43.1735273,29.0526158 43.1671636,29.0991 43.1609818,29.1454027 C43.4500727,29.2065948 43.7393455,29.2677869 44.0286182,29.328979 C44.0366182,29.2948422 44.0448,29.2607053 44.0528,29.22675 C43.7618909,29.1532106 43.4708,29.0798527 43.1798909,29.0063132 M39.1828,29.6383895 C39.2635273,29.6723448 39.2935273,29.6888685 39.2958909,29.6854185 C39.5068,29.3925316 39.7153455,29.097829 39.9240727,28.8034895 C39.8971636,28.7840605 39.8700727,28.76445 39.8431636,28.7450211 C39.6262545,29.0384527 39.4093455,29.3318843 39.1828,29.6383895 M38.7666182,31.2406423 C39.0913455,31.1589318 39.3664364,31.0895686 39.6558909,31.0167555 C39.2818909,30.8424396 39.0411636,30.8985475 38.7666182,31.2406423 M35.4904364,36.0728217 C35.7622545,36.3869533 36.0055273,36.3648006 36.2311636,35.988569 C35.9735273,36.0178032 35.7358909,36.0448585 35.4904364,36.0728217 M38.4535273,38.9857114 C38.9106182,38.9415877 39.0980727,38.7438482 39.0778909,38.3205876 C38.8891636,38.5215955 38.7004364,38.7224219 38.4535273,38.9857114 M39.6855273,38.8762193 C39.9182545,38.6138377 40.1053455,38.4032061 40.3418909,38.1364666 C39.8464364,38.1933008 39.6838909,38.3790561 39.6855273,38.8762193 M45.7495273,36.1930269 C45.7249818,36.2315217 45.7002545,36.2700164 45.6757091,36.3085112 C46.1366182,36.6024875 46.5973455,36.8962823 47.0582545,37.1902586 C47.0804364,37.1553954 47.1026182,37.1205323 47.1249818,37.0856691 C46.6664364,36.7880612 46.2080727,36.4904533 45.7495273,36.1930269 M48.4480727,21.9147468 C48.4111636,21.8831521 48.3742545,21.8513757 48.3373455,21.8195994 C47.9800727,22.1482574 47.6129818,22.4685626 47.3971636,22.9170627 C47.4275273,22.9433916 47.4580727,22.969539 47.4886182,22.9958679 C47.8084364,22.6356153 48.1282545,22.275181 48.4480727,21.9147468 M46.5642545,28.6947237 C47.2217091,28.81275 47.8073455,28.6175526 48.3649818,28.3014236 C47.7648,28.4325237 47.1646182,28.5636237 46.5642545,28.6947237 M43.0700727,31.0576107 C42.4853455,31.1611107 41.8766182,31.2687871 41.3135273,31.3684739 C41.6026182,31.6660818 42.3898909,31.5515055 43.0700727,31.0576107 M48.0942545,27.8705368 C47.3857091,28.0036342 46.6228,28.1470815 45.9088,28.2810868 C46.4622545,28.5512763 47.5217091,28.3535368 48.0942545,27.8705368 M41.9522545,27.4806867 C42.9368,27.4523604 43.9215273,27.4240341 44.9062545,27.3955262 C44.4157091,27.3107288 43.9362545,27.2698736 43.4598909,27.2074104 C42.9237091,27.1369578 42.4238909,27.2321051 41.9522545,27.4806867 M45.5788,26.3625235 C45.0097091,26.429163 44.4026182,26.4938051 43.7975273,26.5727919 C43.1249818,26.6604946 42.7775273,26.7903235 42.5428,27.0396314 C43.5157091,26.5631682 44.6951636,26.9887893 45.5788,26.3625235 M49.4638909,20.2750888 C49.4368,20.9872415 49.3891636,21.6194994 49.3964364,22.251031 C49.4024364,22.7650811 49.2411636,23.2023232 48.9484364,23.6076075 C48.8897091,23.6889548 48.8388,23.7757496 48.7589818,23.8992233 C49.8211636,23.304189 50.0366182,21.3086362 49.4638909,20.2750888 M51.2848,26.5344788 C51.0871636,26.7046183 50.9515273,26.8213735 50.8158909,26.9383104 C50.9518909,27.0625104 51.0709818,27.2573446 51.2277091,27.2947499 C51.4857091,27.3563052 51.7680727,27.3207157 52.0400727,27.3172657 C52.6913455,27.3090946 53.3435273,27.2691472 53.9929818,27.2965657 C54.2828,27.3087315 54.5669818,27.4518157 54.8538909,27.5355236 C54.6131636,27.3472262 54.3504364,27.2135841 54.0740727,27.1195262 C53.2958909,26.8546025 52.5055273,26.9283235 51.7113455,27.0485288 C51.2975273,27.1111736 51.2631636,27.0621472 51.2848,26.5344788 M42.8097091,29.4649816 C41.5822545,29.15775 41.3318909,29.3222606 41.0544364,30.6563212 C41.1837091,30.5646238 41.2689818,30.4961686 41.3618909,30.4404238 C41.4906182,30.3632528 41.6228,30.2395975 41.7577091,30.233787 C42.2788,30.2112712 42.6180727,29.9666843 42.8097091,29.4649816 M49.1217091,33.6171478 C49.7500727,34.0375031 50.4246182,34.1851268 51.1495273,33.9759478 C51.6255273,33.8386741 52.0904364,33.8724478 52.5582545,33.9973741 C52.7033455,34.0360504 52.8488,34.072911 52.9940727,34.1106794 C53.0064364,34.0850768 53.0186182,34.0592925 53.0309818,34.0336899 C52.8120727,33.907311 52.5931636,33.780932 52.3595273,33.6458372 C52.4148,33.6227767 52.4655273,33.584282 52.5171636,33.5831925 C52.8106182,33.577382 53.1042545,33.5804688 53.3520727,33.5804688 C52.9751636,33.332432 51.8998909,33.3088267 51.3742545,33.5013004 C51.0388,33.6242294 50.6669818,33.6832425 50.3084364,33.698132 C49.9146182,33.7146557 49.5173455,33.647653 49.1217091,33.6171478 M55.5886182,24.6952655 C55.4509818,24.9035365 55.3015273,25.1297839 55.1353455,25.3814524 C55.2913455,25.4419182 55.4300727,25.4969366 55.5697091,25.5494129 C56.4406182,25.8777077 56.9462545,26.4820024 57.0491636,27.424942 C57.1429818,28.2854447 57.2729818,29.1419527 57.3953455,30.0614685 C57.2255273,29.9735843 57.0604364,29.9042212 56.9120727,29.8088922 C56.2517091,29.3849053 55.6048,28.9387658 54.9335273,28.5331184 C54.7122545,28.3992947 54.4318909,28.3626158 54.1513455,28.3393737 C55.3569818,28.9600105 56.5588,29.5652132 57.3920727,30.6993554 C56.9953455,31.2515371 57.2337091,31.8206055 57.3311636,32.4503214 C57.1860727,32.3700635 57.0791636,32.3130477 56.9740727,32.2527634 C56.0524364,31.7240055 55.1255273,31.1836265 54.0429818,31.0886607 C53.2849818,31.0220212 52.5180727,31.0552502 51.7551636,31.0496212 C50.9086182,31.043266 50.0700727,30.9926055 49.2768,30.6461528 C49.2620727,30.6773844 49.2473455,30.708616 49.2326182,30.739666 C49.4615273,30.8538791 49.6797091,31.029466 49.9209818,31.0710476 C50.7626182,31.2159476 51.6089818,31.3613923 52.4593455,31.4175002 C53.3253455,31.4743344 54.1966182,31.4142318 55.0386182,31.7042134 C55.7860727,31.9616924 56.4397091,32.3451871 56.9749818,32.9367714 C57.1931636,33.1779083 57.4675273,33.3683846 57.7491636,33.6102478 C57.6726182,33.7852899 57.5048,33.8744452 57.2488,33.7832925 C57.2040727,33.7674952 57.1535273,33.7562373 57.1178909,33.7277294 C56.4022545,33.1552109 55.5677091,33.0159398 54.6768,32.9872504 C54.1231636,32.9694556 53.5760727,32.7996793 53.0217091,32.7366714 C52.6744364,32.6972687 52.3191636,32.7294082 52.0544364,32.7294082 C52.8264364,32.9137109 53.6744364,33.1363267 54.5318909,33.3119135 C54.9477091,33.3970741 55.3955273,33.340603 55.8031636,33.4466451 C56.1971636,33.5494188 56.5766182,33.7480662 56.9273455,33.9619662 C57.2040727,34.1306531 57.1844364,34.300611 56.9124364,34.4702057 C56.6471636,34.6358058 56.6235273,34.8856584 56.6140727,35.1522163 C56.5831636,36.0138085 56.2297091,36.3490033 55.3657091,36.3366559 C55.2702545,36.3353848 55.1744364,36.3373822 55.0797091,36.3281217 C54.5231636,36.2731033 54.0331636,36.1249348 53.6308,35.6713506 C53.1735273,35.1556663 52.5797091,34.8130268 51.8677091,34.7416663 C51.7091636,34.7256873 51.5475273,34.7393058 51.2973455,34.7393058 C51.8088,34.9390426 52.2397091,35.0621532 52.6233455,35.2718769 C52.9077091,35.4273084 53.1593455,35.6702611 53.3755273,35.9177532 C54.0766182,36.7199691 54.9000727,37.0753191 55.9540727,36.7123428 C55.9840727,36.7019928 56.0188,36.7054428 56.0758909,36.700177 C55.6664364,37.4649876 55.2222545,38.215635 56.0931636,38.9949719 C55.4271636,39.2388324 54.7338909,39.4140561 54.3173455,40.0780904 C53.7213455,39.4187772 53.2128,38.6933692 52.3620727,38.3336613 C52.4644364,38.4286271 52.5678909,38.5225034 52.6691636,38.6185587 C53.3611636,39.2746035 53.9638909,39.9862115 54.1489818,40.96238 C54.2464364,41.4771563 54.1248,42.0057327 53.7731636,42.4772932 C53.1893455,41.6596432 52.6531636,40.7931484 51.5224364,40.4470589 C51.6378909,40.7559247 51.7215273,40.9798115 51.8053455,41.20388 C51.7922545,41.2171352 51.7791636,41.2303905 51.7660727,41.2436458 C51.3917091,40.8861168 51.0213455,40.5242299 50.6417091,40.1725115 C50.3282545,39.8819851 50.0035273,39.6036246 49.6838909,39.3198167 C49.3286182,39.0042324 48.9451636,38.7142508 48.6266182,38.3654376 C48.3220727,38.0318771 47.9904364,37.8116218 47.5409818,37.7433481 C47.1480727,37.6834271 46.7611636,37.583377 46.3626182,37.5287218 C46.7311636,37.9005955 47.2071636,38.0358718 47.6929818,38.1459087 C48.1484364,38.2490455 48.4949818,38.4732955 48.6711636,38.9866193 C48.3504364,38.9568403 48.0711636,38.9168929 47.7909818,38.9076324 C46.2908,38.8571535 44.7902545,38.8075824 43.2895273,38.7770771 C43.0860727,38.7729008 42.8618909,38.8429903 42.6791636,38.9390456 C41.8464364,39.3766509 41.0282545,39.8420378 40.1984364,40.285272 C39.4075273,40.7079878 38.6098909,40.4942694 38.1755273,39.7132983 C37.9255273,39.2642535 37.7469818,38.7754429 37.5060727,38.2370613 L38.4035273,38.2370613 L38.4035273,37.5056613 C38.8542545,37.7043086 39.2078909,38.2067376 39.7844364,37.832685 C39.7291636,37.6447507 39.6744364,37.4589955 39.6200727,37.2739665 C40.0628,37.369477 40.4800727,37.4593586 40.9540727,37.5615876 C40.8915273,37.2220349 40.8477091,36.9845296 40.8031636,36.7423033 C41.3006182,36.817477 41.7564364,36.8862954 42.2977091,36.9681875 C42.1813455,36.6480638 42.1068,36.4430612 42.0133455,36.1857638 C42.1989818,36.2284348 42.3318909,36.2638427 42.4668,36.2890822 C43.0348,36.3951243 43.3035273,36.2375138 43.4884364,35.6949558 C43.7608,34.8954637 43.3728,33.9755846 42.6566182,33.7255504 C42.6129818,33.7102978 42.5649818,33.7077557 42.4729818,33.6908688 C42.4366182,33.9015004 42.4017091,34.1021452 42.3562545,34.3645268 C42.1960727,34.2308847 42.0500727,34.1457241 41.9549818,34.0217057 C41.7777091,33.7896478 41.5908,33.8007241 41.3333455,33.8788031 C41.0564364,33.9626925 41.0820727,34.1571636 41.0689818,34.3529057 C41.0604364,34.4814636 41.0673455,34.611111 41.0673455,34.8204716 C40.8582545,34.6924584 40.6558909,34.6149242 40.5180727,34.4740189 C40.2858909,34.2365136 40.0342545,34.2871741 39.8575273,34.4567689 C39.7571636,34.5531873 39.8035273,34.80649 39.7938909,34.9897031 C39.7911636,35.0418163 39.8231636,35.0957453 39.8673455,35.2408269 C39.5960727,35.1298821 39.3875273,35.0614268 39.1948,34.9619216 C38.8682545,34.7934163 38.6411636,34.88929 38.5818909,35.2482716 C38.5591636,35.3855453 38.5589818,35.5266321 38.5460727,35.7002216 C38.4284364,35.660819 38.3298909,35.6317664 38.2342545,35.595269 C38.1068,35.5467874 37.9415273,35.4144163 37.8624364,35.4547269 C37.5895273,35.5936348 37.2955273,35.7525164 37.1157091,35.9853006 C37.0315273,36.094248 37.1902545,36.3900401 37.2493455,36.6473375 C37.0662545,36.6473375 36.8680727,36.6513322 36.6700727,36.6460664 C36.4751636,36.6409822 36.3162545,36.6331743 36.1206182,36.7751691 C35.9742545,36.8813928 35.6331636,36.8136638 35.4269818,36.718698 C35.2244364,36.625548 35.0755273,36.4069269 34.9164364,36.2311585 C34.7111636,36.0043664 34.5497091,35.7388979 34.1828,35.7225558 C34.1098909,35.7192874 33.9922545,35.5048427 33.9898909,35.3859084 C33.9842545,35.0988321 33.9264364,34.9279663 33.5864364,34.9608321 C33.2497091,34.9935163 33.0711636,34.77199 33.2075273,34.455861 C33.2908,34.262661 33.4577091,34.0770873 33.6342545,33.9577899 C34.0975273,33.6445662 34.6057091,33.3959846 35.0617091,33.0735004 C36.0918909,32.3450056 37.1300727,31.6226844 38.1051636,30.8248265 C38.5042545,30.4983475 38.8124364,30.0153475 39.0475273,29.546329 C39.3842545,28.87485 39.8338909,28.3440947 40.4448,27.9139341 C41.6626182,27.0568814 42.8584364,26.1685972 44.0684364,25.3004681 C44.4822545,25.003405 44.8906182,24.7121523 45.4218909,24.6081076 C45.6364364,24.5659812 45.8729818,24.3168549 45.9811636,24.1025917 C46.8055273,22.4687442 47.7920727,20.9122494 48.3751636,19.1612834 C48.4231636,19.0171097 48.4991636,18.8749334 48.5913455,18.7540018 C48.9682545,18.2604702 49.5242545,18.2853465 49.7206182,18.8642202 C49.9624364,19.5781887 50.1058909,20.3304704 50.2349818,21.0760336 C50.3340727,21.6481889 50.2586182,22.2599284 50.4138909,22.8112021 C50.7055273,23.8458391 51.2033455,24.816197 52.2313455,25.2883023 C52.5900727,25.453176 53.1175273,25.3284313 53.5484364,25.2410918 C54.2315273,25.1025471 54.8984364,24.8842892 55.5886182,24.6952655" id="Fill-14" fill="#FFFFFF"></path>
                <path d="M38.1175273,21.4241749 C39.6777091,20.9259223 41.7555273,21.8260092 42.2193455,23.1813145 C40.5297091,23.8130278 38.5864364,23.1001487 38.1175273,21.4241749" id="Fill-16" fill="#FFFFFF"></path>
                <path d="M37.9935818,24.4120204 C36.5570364,24.8418178 35.2379455,24.2509599 34.7721273,22.9882598 C36.0008545,22.2510492 37.3957636,23.0469098 37.9935818,24.4120204" id="Fill-18" fill="#FFFFFF"></path>
                <path d="M44.4285273,20.2269704 C43.4607091,20.9587336 42.0150727,20.8131072 41.2161636,19.919194 C41.9619818,19.3005545 43.5303455,19.4427308 44.4285273,20.2269704" id="Fill-20" fill="#FFFFFF"></path>
                <path d="M45.0152545,12.3726997 C43.2814364,12.6207366 41.3401636,11.8748102 40.9056182,10.4563153 C42.7516182,10.0192548 44.8041636,10.9763575 45.0152545,12.3726997" id="Fill-22" fill="#FFFFFF"></path>
                <path d="M35.8103273,15.4586886 C36.6285091,14.7975596 37.7923273,14.8770912 38.4668727,15.6222913 C37.7872364,16.3593203 36.4352364,16.158494 35.8103273,15.4586886" id="Fill-24" fill="#FFFFFF"></path>
                <path d="M44.4304545,9.24650918 C45.3984545,8.66091703 46.9526364,8.87227494 47.6333636,9.68756448 C46.4893636,10.0105935 45.4482727,9.8315566 44.4304545,9.24650918" id="Fill-26" fill="#FFFFFF"></path>
                <path d="M33.3906545,16.7361693 C33.9339273,16.510285 34.5859273,16.8175166 34.9095636,17.4325246 C34.2459273,17.6210036 33.6819273,17.3691535 33.3906545,16.7361693" id="Fill-28" fill="#FFFFFF"></path>
                <path d="M15.0204364,12.3570658 C15.3228,10.9349393 17.0638909,10.1205577 19.1229818,10.4383209 C18.9455273,11.6656131 16.5231636,12.7984842 15.0204364,12.3570658" id="Fill-30" fill="#FFFFFF"></path>
                <path d="M24.2492545,15.4651892 C23.4741636,16.224734 22.2479818,16.2935524 21.5683455,15.6327866 C22.1916182,14.8754207 23.3848909,14.7928023 24.2492545,15.4651892" id="Fill-32" fill="#FFFFFF"></path>
                <path d="M12.4036,9.69016106 C13.1157818,8.86996889 14.5185091,8.67931098 15.6219636,9.23131102 C14.6076,9.83251897 13.5703273,10.0044742 12.4036,9.69016106" id="Fill-34" fill="#FFFFFF"></path>
                <path d="M25.1417636,17.4279125 C25.4323091,16.8192598 26.1243091,16.5007703 26.6432182,16.7370045 C26.3954,17.349652 25.7835818,17.6312809 25.1417636,17.4279125" id="Fill-36" fill="#FFFFFF"></path>
                <path d="M36.5783455,4.3503051 C35.9558,5.47191835 34.6901636,5.732121 33.7681636,4.94588409 C34.1923455,3.89581295 35.5781636,3.59312082 36.5783455,4.3503051" id="Fill-38" fill="#FFFFFF"></path>
                <path d="M26.2872182,4.95287488 C25.2295818,5.70896968 24.0114,5.4404144 23.4621273,4.34912483 C24.4257636,3.59793267 25.7855818,3.88028795 26.2872182,4.95287488" id="Fill-40" fill="#FFFFFF"></path>
            </g>
        </g>
    </g>
</svg>