<?xml version="1.0" encoding="UTF-8"?>
<svg width="56px" height="58px" viewBox="0 0 56 58" version="1.1" xmlns="http://www.w3.org/2000/svg" xmlns:xlink="http://www.w3.org/1999/xlink">
    <!-- Generator: Sketch 40.1 (33804) - http://www.bohemiancoding.com/sketch -->
    <title>Page 1</title>
    <desc>Created with Sketch.</desc>
    <defs>
        <polyline id="path-1" points="0 0.195446494 55.8085073 0.195446494 55.8085073 57.15625 0 57.15625"></polyline>
    </defs>
    <g id="Symbols" stroke="none" stroke-width="1" fill="none" fill-rule="evenodd">
        <g id="512" transform="translate(-274.000000, -12.000000)">
            <g id="Page-1" transform="translate(274.000000, 12.000000)">
                <path d="M27.9127766,18.1556968 L34.3025132,17.8863654 C34.3025132,17.8863654 35.9732254,17.8863654 37.2044059,16.7198202 C38.4353132,15.5529963 40.1647571,14.625671 40.8097132,13.24946 C41.4543961,11.873249 42.0993522,11.3945306 42.0993522,10.916091 C42.0993522,10.4373725 42.5096546,10.1680411 42.3337327,9.09099431 C42.1578107,8.01422633 41.7475083,7.86450483 41.7475083,7.86450483 C41.7475083,7.86450483 41.718279,8.61255468 41.5715863,8.88160727 L41.4251668,9.15093867 C41.4251668,9.15093867 40.6337912,7.68495056 38.2596644,6.66784813 C35.8852644,5.65074569 32.7784937,5.08225011 32.7784937,5.08225011 C32.7784937,5.08225011 36.3542985,6.81756962 37.5559766,7.80456047 C38.7579278,8.79183014 40.0183376,10.287651 39.9888351,10.916091 C39.9596059,11.5442521 39.3441522,12.5911873 38.3181229,13.24946 C37.2923668,13.9074539 36.9405229,15.0742779 36.3542985,15.2538321 C35.7680741,15.4333864 35.5921522,15.2538321 35.5921522,15.2538321 C35.5921522,15.2538321 35.6508839,14.625671 33.92144,13.3392371 C32.1922693,12.0528033 32.1922693,11.3945306 32.1922693,11.3945306 C32.1922693,11.3945306 33.0153327,10.9908123 33.2980644,11.6189734 C33.4835473,12.0310561 33.371001,12.3031756 33.371001,12.3031756 C33.371001,12.3031756 34.8581424,11.4034525 34.6215766,9.86525239 C34.3852839,8.32705224 32.6451863,7.70390971 31.6923668,7.4878312 C30.7395473,7.2717527 29.2573229,7.23578608 28.9043863,7.05567419 C28.5514498,6.8755623 28.4454595,6.62323837 28.4454595,6.62323837 C28.4454595,6.62323837 28.6547083,7.14126916 28.995079,7.3606934 C29.6657132,7.79285041 31.7267863,8.25288852 32.5042302,8.78458105 C33.1084839,9.19805773 33.56304,9.79331916 33.2453424,10.1535429 C32.9276449,10.5137667 32.6042107,9.78551245 31.5511376,9.43309538 C30.2732449,9.00512053 28.4495571,9.0932248 27.9043083,9.13197953 C27.3587863,9.0932248 25.5350985,9.00512053 24.2572059,9.43309538 C23.2044059,9.78551245 22.8809717,10.5137667 22.5632741,10.1535429 C22.2455766,9.79331916 22.6998595,9.19805773 23.3043863,8.78458105 C24.0818302,8.25288852 26.1429034,7.79285041 26.8135376,7.3606934 C27.1536351,7.14126916 27.3631571,6.62323837 27.3631571,6.62323837 C27.3631571,6.62323837 27.2571668,6.8755623 26.9042302,7.05567419 C26.5512937,7.23578608 25.0690693,7.2717527 24.1162498,7.4878312 C23.1631571,7.70390971 21.4233327,8.32705224 21.1867668,9.86525239 C20.9504741,11.4034525 22.4373424,12.3031756 22.4373424,12.3031756 C22.4373424,12.3031756 22.3250693,12.0310561 22.5105522,11.6189734 C22.7930107,10.9908123 23.6163473,11.3945306 23.6163473,11.3945306 C23.6163473,11.3945306 23.6163473,12.0528033 21.8869034,13.3392371 C20.1577327,14.625671 20.2161912,15.2538321 20.2161912,15.2538321 C20.2161912,15.2538321 20.0402693,15.4333864 19.4540449,15.2538321 C18.8678205,15.0742779 18.5162498,13.9074539 17.4902205,13.24946 C16.4644644,12.5911873 15.8490107,11.5442521 15.8195083,10.916091 C15.790279,10.287651 17.0506888,8.79183014 18.2523668,7.80456047 C19.4540449,6.81756962 23.0301229,5.08225011 23.0301229,5.08225011 C23.0301229,5.08225011 19.923079,5.65074569 17.5489522,6.66784813 C15.1748254,7.68495056 14.3834498,9.15093867 14.3834498,9.15093867 L14.2367571,8.88160727 C14.0903376,8.61255468 14.0608351,7.86450483 14.0608351,7.86450483 C14.0608351,7.86450483 13.6505327,8.01422633 13.4746107,9.09099431 C13.298962,10.1680411 13.7092644,10.4373725 13.7092644,10.916091 C13.7092644,11.3945306 14.3539473,11.873249 14.9989034,13.24946 C15.6438595,14.625671 17.3730302,15.5529963 18.6042107,16.7198202 C19.835118,17.8863654 21.5058302,17.8863654 21.5058302,17.8863654 L27.89584,18.1556968 L27.9043083,17.7121085 L27.9127766,18.1556968 Z" id="Fill-1" fill="#FFFFFF"></path>
                <path d="M30.543602,19.7612855 C30.543602,19.7612855 28.5642068,20.1636098 27.9042263,20.164725 C27.2442459,20.1658402 25.263758,19.7707651 25.263758,19.7707651 C25.2006556,20.2756918 25.1818068,20.9777378 25.4000702,21.6457689 C25.7027434,22.5728154 27.1595629,23.7995837 27.9042263,24.3530235 C28.6488898,23.7995837 30.1057093,22.5728154 30.4083824,21.6457689 C30.6280117,20.9735556 30.6075239,20.2670486 30.543602,19.7612855" id="Fill-3" fill="#FFFFFF"></path>
                <path d="M41.6763473,35.2976647 C41.6176156,33.5026796 39.8589424,31.0494218 39.8589424,31.0494218 C39.8589424,31.0494218 40.7970107,30.7505365 40.7970107,29.6135453 C40.7970107,28.476833 39.44864,26.6219036 39.0383376,26.0835196 C38.6280351,25.5448568 38.1002693,23.8098161 38.3349229,22.7327693 C38.5693034,21.6560013 39.5073717,22.5534938 39.5073717,22.5534938 C39.5073717,22.5534938 42.1653229,23.8321209 42.5556839,25.3655813 C42.6930888,25.9050805 42.4772839,28.1143787 42.4781034,29.7353857 C42.4789229,31.1517455 43.1913522,31.9187545 43.1913522,31.9187545 C43.1913522,31.9187545 43.9291863,26.2747839 43.8704546,24.778963 C43.8117229,23.2831421 42.7900644,22.4935494 40.3867083,20.429233 C37.983079,18.3651953 33.7038595,19.2027435 32.4139473,19.3822978 C32.1079961,19.424677 31.6911376,19.5063686 31.2343961,19.6056254 C31.3149815,20.1939165 31.3469424,21.0428959 31.0756839,21.8729162 C30.664562,23.1320266 28.81984,24.5639997 28.258201,24.9774764 L27.9855766,39.9412615 L27.9749229,39.9412615 L27.8334205,39.9412615 L27.8227668,39.9412615 L27.5504156,24.9774764 C26.9885034,24.5639997 25.1437815,23.1320266 24.7326595,21.8729162 C24.46304,21.0470781 24.4930888,20.202002 24.5725815,19.6142685 C24.0997229,19.5111084 23.66784,19.4260711 23.352601,19.3822978 C22.062962,19.2027435 17.7834693,18.3651953 15.37984,20.429233 C12.9764839,22.4935494 11.9548254,23.2831421 11.8960937,24.778963 C11.8376351,26.2747839 12.5751961,31.9187545 12.5751961,31.9187545 C12.5751961,31.9187545 13.2876254,31.1517455 13.2884449,29.7353857 C13.2892644,28.1143787 13.0734595,25.9050805 13.2108644,25.3655813 C13.6012254,23.8321209 16.2591766,22.5534938 16.2591766,22.5534938 C16.2591766,22.5534938 17.1972449,21.6560013 17.4316254,22.7327693 C17.666279,23.8098161 17.1385132,25.5448568 16.7282107,26.0835196 C16.3179083,26.6219036 14.9695376,28.476833 14.9695376,29.6135453 C14.9695376,30.7505365 15.9076059,31.0494218 15.9076059,31.0494218 C15.9076059,31.0494218 14.1489327,33.5026796 14.090201,35.2976647 C14.0314693,37.0926497 13.445518,39.3663532 12.9764839,40.3834557 C12.5074498,41.4005581 11.9212254,42.4776049 12.3902595,43.9134814 C12.8592937,45.3496368 13.7970888,46.5460147 14.1489327,47.7426714 C14.5005034,48.9393281 16.6110205,51.9309699 20.5386693,52.8284624 C24.466318,53.7259549 26.8112156,53.6662894 26.8112156,53.6662894 C26.8112156,53.6662894 23.821362,52.1105241 23.4110595,51.3925859 C23.0007571,50.6746476 21.7695766,50.3155391 21.1248937,50.3155391 C20.4799376,50.3155391 18.0765815,49.9567093 16.9625912,48.6401639 C15.8488741,47.3238973 14.6764254,43.4947074 14.6764254,43.4947074 C14.6764254,43.4947074 15.4385717,44.3322555 16.0247961,44.5717542 C16.6110205,44.810974 17.0800546,44.810974 17.0800546,44.810974 C17.0800546,44.810974 15.3213815,43.3151531 15.0282693,41.8193322 C14.7351571,40.3235113 15.0867278,38.4089164 15.7901424,37.3918139 C16.4938302,36.3747115 17.4903571,35.9559374 17.4903571,35.9559374 C17.4903571,35.9559374 18.1937717,41.1613383 21.711118,43.9734258 C25.0511766,46.6438773 27.6200741,46.8858853 27.8708449,46.9034504 L27.8708449,46.9051232 C27.8708449,46.9051232 27.8798595,46.9045656 27.8834107,46.9042868 C27.8866888,46.9045656 27.8957034,46.9051232 27.8957034,46.9051232 L27.8957034,46.9034504 C28.1464741,46.8858853 30.7153717,46.6438773 34.0554302,43.9734258 C37.5727766,41.1613383 38.2761912,35.9559374 38.2761912,35.9559374 C38.2761912,35.9559374 39.272718,36.3747115 39.9764059,37.3918139 C40.6798205,38.4089164 41.0313912,40.3235113 40.738279,41.8193322 C40.4451668,43.3151531 38.6864937,44.810974 38.6864937,44.810974 C38.6864937,44.810974 39.1555278,44.810974 39.7417522,44.5717542 C40.3279766,44.3322555 41.0901229,43.4947074 41.0901229,43.4947074 C41.0901229,43.4947074 39.9176741,47.3238973 38.8039571,48.6401639 C37.6899668,49.9567093 35.2866107,50.3155391 34.6416546,50.3155391 C33.9969717,50.3155391 32.7657912,50.6746476 32.3554888,51.3925859 C31.9451863,52.1105241 28.9553327,53.6662894 28.9553327,53.6662894 C28.9553327,53.6662894 31.3002302,53.7259549 35.227879,52.8284624 C39.1555278,51.9309699 41.2660449,48.9393281 41.6176156,47.7426714 C41.9694595,46.5460147 42.9075278,45.3496368 43.3762888,43.9134814 C43.8453229,42.4776049 43.2590985,41.4005581 42.7900644,40.3834557 C42.3213034,39.3663532 41.735079,37.0926497 41.6763473,35.2976647" id="Fill-5" fill="#FFFFFF"></path>
                <g id="Group-9">
                    <mask id="mask-2" fill="white">
                        <use xlink:href="#path-1"></use>
                    </mask>
                    <g id="Clip-8"></g>
                    <path d="M27.9042537,55.8118792 C14.5186146,55.8118792 3.66745366,43.662691 3.66745366,28.6757646 C3.66745366,13.689117 14.5186146,1.53992878 27.9042537,1.53992878 C41.2898927,1.53992878 52.1410537,13.689117 52.1410537,28.6757646 C52.1410537,43.662691 41.2898927,55.8118792 27.9042537,55.8118792 M27.9042537,0.195502256 C12.4930537,0.195502256 0.000136585366,12.9466434 0.000136585366,28.6757646 C0.000136585366,44.4051646 12.4930537,57.1563058 27.9042537,57.1563058 C43.3154537,57.1563058 55.8083707,44.4051646 55.8083707,28.6757646 C55.8083707,12.9466434 43.3154537,0.195502256 27.9042537,0.195502256" id="Fill-7" fill="#FFFFFF" mask="url(#mask-2)"></path>
                </g>
            </g>
        </g>
    </g>
</svg>