<svg xmlns="http://www.w3.org/2000/svg" xmlns:xlink="http://www.w3.org/1999/xlink" viewBox="0 0 215.846 248"><defs><path id="a" d="M0 0h215.846v248H0z"/></defs><clipPath id="b"><use xlink:href="#a" overflow="visible"/></clipPath><path clip-path="url(#b)" fill="#3D21DE" d="M133.994 109.163l-17.385 9.894c.83 1.458 1.313 3.143 1.313 4.943 0 5.522-4.477 10-10 10s-10-4.478-10-10c0-5.523 4.477-10 10-10 .056 0 .11.01.165.01v-.02c5.446-.088 9.835-4.523 9.835-9.99 0-5.468-4.39-9.903-9.835-9.992v-.003c-.055 0-.11-.006-.165-.006-16.57 0-30 13.43-30 30 0 16.568 13.43 30 30 30s30-13.432 30-30c0-5.4-1.433-10.46-3.93-14.837"/><path clip-path="url(#b)" fill="#282828" d="M117.923 124c0 5.523-4.477 10-10 10s-10-4.477-10-10 4.477-10 10-10 10 4.477 10 10"/><path clip-path="url(#b)" fill="#FF3B29" d="M168.65 89.198L151.3 99.14c4.206 7.326 6.624 15.808 6.624 24.86 0 27.614-22.386 50-50 50-8.975 0-17.39-2.376-24.67-6.516l-.012.02c-1.542-.97-3.362-1.542-5.32-1.542-5.522 0-10 4.477-10 10 0 3.89 2.227 7.253 5.47 8.906l-.007.01C83.58 190.674 95.36 194 107.923 194c38.66 0 70-31.34 70-70 0-12.673-3.384-24.548-9.273-34.802"/><path clip-path="url(#b)" fill="#282828" d="M7.998 64c0 2.207-1.79 3.998-4 3.998S0 66.208 0 63.998C0 61.79 1.79 60 4 60s3.998 1.79 3.998 4M7.998 184c0 2.21-1.79 4-4 4S0 186.21 0 184c0-2.207 1.79-3.998 4-3.998s3.998 1.79 3.998 4M215.846 184c0 2.21-1.79 4-4 4s-3.998-1.79-3.998-4c0-2.207 1.79-3.998 4-3.998s3.998 1.79 3.998 4M215.846 64c0 2.207-1.79 3.998-4 3.998s-3.998-1.79-3.998-4c0-2.208 1.79-3.998 4-3.998s3.998 1.79 3.998 4M111.922 244c0 2.21-1.79 4-4 4s-3.998-1.79-3.998-4c0-2.208 1.79-3.998 4-3.998s3.998 1.79 3.998 4M111.922 4c0 2.208-1.79 3.998-4 3.998s-3.998-1.79-3.998-4c0-2.207 1.79-3.998 4-3.998s3.998 1.79 3.998 4M197.924 124c0-49.706-40.295-90-90-90S17.92 74.293 17.92 124s40.295 90 90 90l.166-.002v-20l-.165.003c-38.66 0-70-31.34-70-70s31.34-70 70-70 70 31.34 70 70c0 12.872-3.49 24.923-9.55 35.285l.01.007c-.75 1.404-1.177 3.006-1.177 4.708 0 5.523 4.477 10 10 10 3.547 0 6.656-1.852 8.43-4.637l.023.013c7.792-13.323 12.264-28.826 12.264-45.376"/><path clip-path="url(#b)" fill="#FAAB17" d="M107.923 74.023c-27.615 0-50 22.374-50 49.99 0 27.613 22.385 49.993 50 49.993l.165-.003v-20.006c-.055 0-.11.004-.165.004-16.57 0-30-13.43-30-30 0-16.568 13.43-30 30-30s30 13.43 30 30c0 5.462-1.467 10.578-4.017 14.99l.01.005c-.854 1.473-1.352 3.18-1.352 5.005 0 5.523 4.477 10.188 10 10.188 3.708 0 6.936-1.91 8.663-4.83.006 0 .01-.207.016-.216.06-.104.12-.3.175-.407 4.13-7.275 6.505-15.724 6.505-24.688 0-27.615-22.385-50.024-50-50.024"/></svg>