<svg xmlns="http://www.w3.org/2000/svg" xmlns:xlink="http://www.w3.org/1999/xlink" viewBox="0 0 120 19.59"><defs><path id="a" d="M0 0h120v19.59H0z"/></defs><clipPath id="b"><use xlink:href="#a" overflow="visible"/></clipPath><path clip-path="url(#b)" fill="#282828" d="M112.01 17.62c4.597 0 7.99-3.885 7.99-7.825 0-4.323-3.393-7.825-7.88-7.825H92.367c-4.16 0-7.552 3.174-7.825 7.223h-3.94L71.41 0l-9.194 9.193h-4.432V1.97h-15.65v7.223h-4.706c-.328-4.268-3.885-7.606-8.208-7.606s-7.934 3.338-8.208 7.606h-4.65V5.09L8.207.382 0 5.09v9.41l8.208 4.707L16.36 14.5v-4.103h4.652c.33 4.213 3.885 7.606 8.208 7.606s7.88-3.393 8.208-7.606h4.706v7.223h15.65v-7.223h4.432l9.193 9.193 9.192-9.193h3.94c.273 4.05 3.666 7.223 7.825 7.223h19.644zm-18.275-11h4.98v1.096h-1.916v5.253h-1.15V7.715h-1.915V6.62zm10.068 0v1.096h-2.736v1.532h2.68v1.094h-2.68v1.532h2.845v1.095h-3.994V6.62h3.885zm5.964 0l-1.64 2.9 1.97 3.45h-1.315l-1.313-2.3-1.314 2.3h-1.26l1.97-3.45-1.695-2.9h1.314l.985 1.807 1.04-1.806h1.257zM6.02 6.73h4.596v6.293H9.412V7.825H7.168v5.198h-1.15V6.73zm42.188-.11h3.885v6.35H50.89v-5.2H49.3l-.054 3.12c-.055 1.86-.985 2.08-2.19 2.08v-1.15c.548 0 1.04-.055 1.04-.876l.11-4.323zm21.833.11v4.16l2.3-4.16h1.258v6.293h-1.204V8.865l-2.298 4.158h-1.26V6.73h1.205zM27.415 9.796c0 1.477.876 2.134 1.806 2.134s1.806-.658 1.806-2.135S30.15 7.66 29.22 7.66s-1.806.658-1.806 2.135m4.76 0c0 2.19-1.367 3.228-2.954 3.228s-2.955-1.04-2.955-3.228 1.368-3.228 2.955-3.228 2.955 1.04 2.955 3.228"/></svg>