<svg xmlns="http://www.w3.org/2000/svg" xmlns:xlink="http://www.w3.org/1999/xlink" viewBox="0 0 797.978 807.115"><defs><path id="a" d="M0 0h797.978v807.115H0z"/></defs><clipPath id="b"><use xlink:href="#a" overflow="visible"/></clipPath><path clip-path="url(#b)" fill="#FF3B29" d="M687.768 792.1h60.06v-20.02h-40.04v-20.02h20.02v-20.02h-20.02v-20.02h40.04V692h-60.06v100.1zm-78.035 0h60.06v-20.02h-40.04v-20.02h30.03v-20.02h-30.03v-20.02h40.04V692h-60.06v100.1zm-118.23 0h80.08v15.015h20.02V772.08h-10.01V692h-20.02v80.08h-15.016V692h-20.02v80.08h-15.015V692h-20.02v100.1zm-44.716-40.04c3.432 0 6.864-.572 10.01-1.716v11.726c0 5.434-4.576 10.01-10.01 10.01s-10.01-4.576-10.01-10.01 4.576-10.01 10.01-10.01m10.01-30.03c0 5.434-4.576 10.01-10.01 10.01s-10.01-4.576-10.01-10.01V692h-20.02v30.03c0 7.722 2.86 14.73 7.722 20.02-4.863 5.29-7.723 12.44-7.723 20.02 0 16.445 13.585 30.03 30.03 30.03s30.03-13.585 30.03-30.03V692h-20.02v30.03zm-107.42 50.05l22.022-55.055v55.055h-22.023zM361.39 692l-32.033 80.08h-8.008v35.035h20.02V792.1h40.04v15.015h20.02V772.08h-10.01V692h-30.03zm-78.65 100.1L322.78 692h-20.02l-15.015 37.61L272.73 692h-20.02l25.025 62.634L262.72 792.1h20.02zm-75.29-40.04c5.434 0 10.01 4.576 10.01 10.01s-4.576 10.01-10.01 10.01h-10.01v-20.02h10.01zm-30.03 40.04h30.03c16.445 0 30.03-13.585 30.03-30.03s-13.585-30.03-30.03-30.03h-10.01v-20.02h35.035V692H177.42v100.1zM70.17 692H50.15v100.1h20.02l20.02-50.05v50.05h20.02V692H90.19l-20.02 50.05V692zM767.948 539.02c5.434 0 10.01 4.576 10.01 10.01s-4.576 10.01-10.01 10.01h-10.01v-20.02h10.01zm-30.03 80.08h20.02v-40.04h10.01c16.445 0 30.03-13.585 30.03-30.03S784.393 519 767.948 519h-30.03v100.1zm-34.26 0h20.02V519h-20.02l-10.01 50.05h10.01v50.05zM683.637 519h-20.02v100.1h20.02l10.01-50.05h-10.01V519zM624.85 619.1h20.02V519h-30.03l-10.01 50.05L594.82 519h-30.03v100.1h20.02v-50.05l10.01 50.05h20.02l10.01-50.05v50.05zm-187.33-80.08h20.02v80.08h20.02v-80.08h20.02V519h-60.06v20.02zm-27.427 30.03l-12.012 30.03h-6.005l-12.012-30.03 12.012-30.03h6.006l12.013 30.03zm-30.03 50.05h30.03l20.02-50.05-20.02-50.05h-30.03l-20.02 50.05V519h-20.02v100.1h20.02l10.01-25.025 10.01 25.025zm-98.755-70.07c0-5.434 4.576-10.01 10.01-10.01h10.01v20.02h-10.01c-5.434 0-10.01-4.576-10.01-10.01m40.04-30.03h-30.03c-16.445 0-30.03 13.585-30.03 30.03 0 7.722 2.86 14.73 7.722 20.02-4.862 5.434-7.722 12.44-7.722 20.02v30.03h20.02v-30.03c0-5.434 4.576-10.01 10.01-10.01h10.01v40.04h20.02V519zM220.004 619.1h20.02V519h-20.02v40.04h-20.02V519h-20.02v100.1h20.02v-40.04h20.02v40.04zm-118.074 0h60.06v-20.02h-40.04v-20.02h30.03v-20.02h-30.03v-20.02h40.04V519h-60.06v100.1zm-41.87 0h20.02V519H50.05l-10.01 50.05L30.03 519H0v100.1h20.02v-50.05l10.01 50.05h20.02l10.01-50.05v50.05zM614.53 406.06h-4.003l2.002-10.01 2 10.01zm-12.01 40.04l4.003-20.02h12.012l4.004 20.02h20.02L622.54 346h-20.02L582.5 446.1h20.02zM548.937 346l-20.02 50.05V346h-20.02v100.1h20.02l13.3-33.32 6.72 33.32h20.02l-10.01-50.05h-10.01l20.02-50.05h-20.02zm-95.795 100.1l40.04-100.1h-20.02l-15.015 37.61L443.133 346h-20.02l25.025 62.634-15.015 37.466h20.02zm-76.475-70.07c0-5.434 4.576-10.01 10.01-10.01s10.01 4.576 10.01 10.01-4.576 10.01-10.01 10.01-10.01-4.576-10.01-10.01m40.04 70.07v-30.03c0-7.58-3.003-14.586-7.722-20.02 4.72-5.29 7.722-12.298 7.722-20.02 0-16.445-13.585-30.03-30.03-30.03s-30.03 13.585-30.03 30.03c0 7.722 2.86 14.73 7.722 20.02-4.862 5.434-7.722 12.44-7.722 20.02v30.03h20.02v-30.03c0-5.434 4.433-10.01 10.01-10.01 5.434 0 10.01 4.576 10.01 10.01v30.03h20.02zm-98.984 0h20.02V346h-20.02v40.04h-20.02V346h-20.02v100.1h20.02v-40.04h20.02v40.04zM170.434 346h-20.02v100.1h20.02l20.02-50.05v50.05h20.02V346h-20.02l-20.02 50.05V346zM758.91 273.1h20.02V173h-20.02l-10.01 50.05h10.01v50.05zM738.89 173h-20.02v100.1h20.02l10.01-50.05h-10.01V173zm-78.735 0h-20.02v100.1h20.02l20.02-50.05v50.05h20.02V173h-20.02l-20.02 50.05V173zm-93.05 100.1h20.02v-80.08h35.036V173h-55.054v100.1zm-40.996-30.03c0 5.434-4.578 10.01-10.01 10.01-5.435 0-10.01-4.576-10.01-10.01v-40.04c0-5.434 4.575-10.01 10.01-10.01 5.432 0 10.01 4.576 10.01 10.01v40.04zm20.02-40.04c0-16.445-13.586-30.03-30.03-30.03-16.446 0-30.03 13.585-30.03 30.03v40.04c0 16.445 13.584 30.03 30.03 30.03 16.444 0 30.03-13.585 30.03-30.03v-40.04zM440.065 173l-40.04 100.1h20.02l25.025-62.49v62.49h20.02V173h-25.024zm-73.244 70.07c0 5.434-4.576 10.01-10.01 10.01s-10.01-4.576-10.01-10.01v-40.04c0-5.434 4.576-10.01 10.01-10.01s10.01 4.576 10.01 10.01v40.04zm20.02-40.04c0-16.445-13.585-30.03-30.03-30.03s-30.03 13.585-30.03 30.03v40.04c0 16.445 13.585 30.03 30.03 30.03s30.03-13.585 30.03-30.03v-40.04zM285.784 273.1h20.02V173h-20.02v40.04h-20.02V173h-20.02v100.1h20.02v-40.04h20.02v40.04zm-100.3 0l10.01-25.025 10.01 25.025h20.02l-20.02-50.05 20.02-50.05h-20.02l-10.01 25.025L185.484 173h-20.02l20.02 50.05-20.02 50.05h20.02zM132.947 173l-6.006 30.03h20.02l6.007-30.03h-20.02zm-8.008 70.07l-12.013 30.03 8.008-40.04h22.022v-20.02H116.93L132.948 173h-20.02l-24.024 60.06h12.012l-8.008 40.04h40.04l12.012-30.03h-20.02zM19.047 193.02h20.02v80.08h20.02v-80.08h20.02V173h-60.06v20.02zM444.734 100.1h20.02V60.06h9.01l16.015 40.04h20.02l-20.02-50.05L509.8 0h-20.02l-16.017 40.04h-9.01V0h-20.02v100.1zM402.25 60.06l4.004-10.01v10.01h-4.004zm-36.036 20.02h8.008l-8.008 20.02h20.02l8.008-20.02h12.012v20.02h20.02V0h-20.02L382.23 60.06h-16.016v20.02zM318.21 60.06c5.433 0 10.01 4.576 10.01 10.01v30.03h20.02V70.07c0-7.58-3.004-14.586-7.723-20.02 4.72-5.29 7.722-12.298 7.722-20.02V0h-20.02v30.03c0 5.434-4.577 10.01-10.01 10.01H308.2V0h-20.02v100.1h20.02V60.06h10.01z"/></svg>