<?xml version="1.0" encoding="utf-8"?>
<!-- Generator: Adobe Illustrator 18.0.0, SVG Export Plug-In . SVG Version: 6.00 Build 0)  -->
<!DOCTYPE svg PUBLIC "-//W3C//DTD SVG 1.1//EN" "http://www.w3.org/Graphics/SVG/1.1/DTD/svg11.dtd">
<svg version="1.1" id="Layer_1" xmlns="http://www.w3.org/2000/svg" xmlns:xlink="http://www.w3.org/1999/xlink" x="0px" y="0px"
	 viewBox="0 0 370.3 45.8" enable-background="new 0 0 370.3 45.8" xml:space="preserve">
<g>
	<path d="M12,11.9L22.6,0h14.1L23.3,13.8l14.8,22.9H23.7l-8.8-14.6l-2.9,3v11.6H0V0h12V11.9z"/>
	<path d="M52,9.2c9.4,0,15.3,5.6,15.3,13.9c0,9.8-6.6,14.4-15.2,14.4s-15.2-4.7-15.2-13.8C36.8,14.4,43,9.2,52,9.2z M47.5,23.1
		c0,5.1,1.9,7.2,4.6,7.2c2.9,0,4.6-2.2,4.6-7.2c0-3.9-1.8-6.7-4.5-6.7C48.5,16.4,47.5,20.1,47.5,23.1z"/>
	<path d="M82.3,10l4.6,14.8L91.6,10h12.1v26.7h-9.4V25.6l1-6.8h-0.2l-5.7,18h-5l-5.7-18h-0.2l1,7.4v10.5h-9.4V10H82.3z"/>
	<path d="M119.7,10l4.6,14.8L129,10h12.1v26.7h-9.4V25.6l1-6.8h-0.2l-5.7,18h-5l-5.7-18H116l1,7.4v10.5h-9.4V10H119.7z"/>
	<path d="M154.4,25.8c0,3.2,2.4,5.3,5.3,5.3c1.7,0,3.2-0.8,4-2.3h10.2c-1.8,6.6-8.6,8.8-14.8,8.8c-8.6,0-15.2-4.9-15.2-13.9
		c0-8.8,6.6-14.4,15.2-14.4c9.9,0,15.7,6.5,15.7,16.5H154.4z M164,20.4c0-2.4-2.2-4.6-4.7-4.6c-3.2,0-4.9,1.8-4.9,4.6H164z"/>
	<path d="M186.1,10v4h0.1c1.5-3.3,5.3-4.7,8.4-4.7c8.1,0,11.9,6.6,11.9,13.9c0,10.5-6.5,14.3-12.5,14.3c-2.9,0-5.1-1.2-6.8-3.4v11.7
		h-10.6V10H186.1z M195.9,23.3c0-4.2-1.8-6.3-4.6-6.3c-2.6,0-4.3,2.5-4.3,6.1c0,3.7,1.6,6.3,4.3,6.3C194.1,29.4,195.9,27,195.9,23.3
		z"/>
	<path d="M227.9,20.2c0-2.1-1.5-3.8-3.9-3.8c-4,0-4.6,4.1-4.6,7.3c0,4,1.5,6.7,4.6,6.7c2.8,0,3.8-1.9,4.1-4h10.7
		c-0.9,8.1-7.4,11.1-14.8,11.1c-8.6,0-15.3-4.8-15.3-13.9c0-9.1,6.4-14.4,15.3-14.4c7.1,0,13.9,3.1,14.6,11H227.9z"/>
	<path d="M241.6,18.2c0-5.7,4-9,14.6-9c12.7,0,13.4,4.7,13.4,11.1v12.5c0,1.5,0.1,2.3,1.4,3.4v0.5h-11l-0.5-2.9
		c-3,2.8-6.1,3.6-10,3.6c-5.1,0-9.5-2.5-9.5-8.1c0-12.1,19-6.6,19-11.6c0-1.9-2.3-2.2-3.5-2.2c-1.5,0-3.5,0.3-3.7,2.6H241.6z
		 M250.9,29.2c0,1.3,1.3,2.2,3.4,2.2c3.7,0,4.7-2.5,4.7-6.6C255.5,26.6,250.9,25.8,250.9,29.2z"/>
	<path d="M285.1,18.9h7.9V10h10.6v26.7H293v-10h-7.9v10h-10.6V10h10.6V18.9z"/>
	<path d="M334.4,10v7.8h-9.2v19h-10.6v-19h-9.2V10H334.4z"/>
	<path d="M352.7,10v9.4h5.9c7.8,0,11.6,4.2,11.6,8.7c0,5.5-3.8,8.6-11.7,8.6h-16.1V16.1h-6.8V10H352.7z M352.7,30.6h3.4
		c2.6,0,4-0.4,4-2.5c0-2-1.4-2.6-4-2.6h-3.4V30.6z"/>
</g>
</svg>
