<?xml version="1.0" encoding="utf-8"?>
<!-- Generator: Adobe Illustrator 18.0.0, SVG Export Plug-In . SVG Version: 6.00 Build 0)  -->
<!DOCTYPE svg PUBLIC "-//W3C//DTD SVG 1.1//EN" "http://www.w3.org/Graphics/SVG/1.1/DTD/svg11.dtd">
<svg version="1.1" id="Слой_1" xmlns="http://www.w3.org/2000/svg" xmlns:xlink="http://www.w3.org/1999/xlink" x="0px" y="0px"
	 viewBox="0 0 102.5 27" enable-background="new 0 0 102.5 27" xml:space="preserve">
<g>
	<defs>
		<rect id="SVGID_1_" y="0" width="102.5" height="27"/>
	</defs>
	<clipPath id="SVGID_2_">
		<use xlink:href="#SVGID_1_"  overflow="visible"/>
	</clipPath>
	<path clip-path="url(#SVGID_2_)" fill="#585757" d="M75.1,5.7h7.5v1.7h-0.5c0,0-0.1-0.9-0.9-0.9h-1.3v7.7H78V6.5h-1.4
		c-0.7,0-0.9,0.6-0.9,0.9h-0.5V5.7z"/>
	<path clip-path="url(#SVGID_2_)" fill="#585757" d="M90.7,5.7h1.3v8.5h-1.8V8.2l-4.5,5.9h-1.3V7.2c0-1-0.9-1.1-0.9-1.1V5.7h2.7v6
		L90.7,5.7z"/>
	<path clip-path="url(#SVGID_2_)" fill="#585757" d="M51.7,14.2h-2.3L47.7,11c0,0-0.5-0.9-1-0.9H46v4.1h-1.8V7.2
		c0-1-0.9-1.1-0.9-1.1V5.7H46v3.6h0.8c0,0,0.5,0,1-0.8c1.4-2.3,1.3-2.8,1.9-2.8h1.8v0.6c-1.3,0-1.6,2.6-2.8,3.4
		c0.6,0.2,0.8,0.8,2.1,3.2c0,0,0.3,0.8,0.9,0.8V14.2z"/>
	<path clip-path="url(#SVGID_2_)" fill="#585757" d="M102,12.3c-0.9,1.2-2.1,2-3.8,2c-2.2,0-4.4-1.8-4.4-4.1V9.8
		c0-2.5,2-4.2,4.4-4.2c2.4,0,4.3,2,4.3,4.4H96v1.4c0,1.2,1,2.2,2.4,2.2c1.3,0,2.1-0.5,2.8-1.3L102,12.3z M96,9h4.4V8.6
		c0-1.2-1-2.2-2.2-2.2c-1.2,0-2.2,1-2.2,2.2V9z"/>
	<path clip-path="url(#SVGID_2_)" fill="#585757" d="M59.8,11.2c0,1.1-0.8,2.1-1.9,2.2h-0.2c-1,0-1.9-0.8-2.1-1.6V8.2
		c0.1-0.9,0.9-1.8,2.1-1.8H58c0,0,1.7,0.1,1.8,2.2V11.2z M58.1,5.5c-1,0-2,0.4-2.5,1.1V5.7h-2.7v0.5c0,0,0.9,0.1,0.9,1.1V18h1.8
		v-4.8c0.9,1,2,1,2.3,1c2.4,0,4-1.9,4-4.2V9.6C61.9,7.1,60.4,5.5,58.1,5.5"/>
	<path clip-path="url(#SVGID_2_)" fill="#585757" d="M32.4,11.2c0,1.2-0.9,2.3-2.3,2.3c-1.4,0-2.3-1.1-2.3-2.3V8.5
		c0-1.2,1-2.2,2.3-2.2c1.4,0,2.3,1,2.3,2.2V11.2z M30,5.5c-3.2,0-4.5,2.5-4.5,4.1v0.7c0,1.9,1.8,4,4.5,4c2.5,0,4.5-1.8,4.5-4V9.7
		C34.6,7.6,32.8,5.5,30,5.5"/>
	<path clip-path="url(#SVGID_2_)" fill="#585757" d="M73.9,5.7h-2.7v0.5c0,0,0.9,0.1,0.9,1.1v6.9h1.8V5.7z"/>
	<path clip-path="url(#SVGID_2_)" fill="#585757" d="M66,13.3V9.8h1.6c0.9,0,1.5,0.7,1.5,1.7v0.4c0,0.8-0.8,1.5-1.6,1.5H66z M66,8.9
		V5.7h-2.7v0.5c0,0,0.8,0.1,0.8,1.1v6.9h4.2c1.6,0,2.8-1,2.8-2.4v-0.4c0-1.5-1.1-2.5-2.9-2.5H66z"/>
	<path clip-path="url(#SVGID_2_)" fill="#585757" d="M34.9,5.7h7.5v1.7h-0.5c0,0-0.1-0.9-0.9-0.9h-1.3v7.7h-1.8V6.5h-1.4
		c-0.7,0-0.9,0.6-0.9,0.9h-0.5V5.7z"/>
	<path clip-path="url(#SVGID_2_)" fill="#5CB4DF" d="M16.6,10.4c0,2.4-1.3,4.6-3.3,5.7l-0.5,0.2c-0.2,0.1-0.3,0.1-0.5,0.1
		c-0.3,0-0.6-0.1-0.7-0.4c-0.1-0.2-0.2-0.4-0.1-0.7c0.1-0.3,0.3-0.5,0.4-0.6c1.2-0.5,2-1.8,2-3.1V8.2c0-1.3-0.8-2.6-1.9-3.1
		c0,0-0.4-0.2-0.4-0.6c0-0.2,0-0.5,0.1-0.7c0.1-0.2,0.4-0.4,0.7-0.4c0.2,0,0.3,0,0.5,0.1c0,0,0.4,0.2,0.5,0.2c2,1.1,3.3,3.2,3.3,5.7
		V10.4z M7.8,14.8c0.1,0,0.3,0.2,0.4,0.6c0,0.2,0,0.5-0.1,0.7c-0.1,0.2-0.4,0.4-0.7,0.4c-0.2,0-0.3,0-0.5-0.1l-0.5-0.2
		c-2-1.1-3.3-3.2-3.3-5.7v-1c0-2.4,1.3-4.6,3.3-5.7c0,0,0.5-0.2,0.5-0.2c0.2-0.1,0.3-0.1,0.5-0.1c0.3,0,0.6,0.1,0.7,0.4
		C8.3,4,8.3,4.2,8.3,4.5C8.2,4.9,7.8,5.1,7.8,5.1C6.6,5.6,5.9,6.8,5.9,8.2v3.5C5.9,13,6.6,14.2,7.8,14.8 M9.9,0C4.4,0,0,4.4,0,9.9
		c0,5.5,4.4,9.9,9.9,9.9c5.5,0,9.9-4.4,9.9-9.9C19.8,4.4,15.4,0,9.9,0"/>
	<path clip-path="url(#SVGID_2_)" fill="#585757" d="M27.6,26.9h-1.4v-5.7h2.9l0.1,0.7H27v1.6h0.7c1.2,0,1.9,0.6,1.9,1.6
		C29.6,26.3,28.8,26.9,27.6,26.9 M27.7,24.2H27v2h0.6c0.8,0,1.2-0.3,1.2-1C28.8,24.6,28.4,24.2,27.7,24.2"/>
	<path clip-path="url(#SVGID_2_)" fill="#585757" d="M32.7,21.2h0.8l2.2,5.6L34.9,27l-0.7-1.8h-2.3l-0.6,1.7h-0.8L32.7,21.2z
		 M32.2,24.5H34l-0.9-2.4L32.2,24.5z"/>
	<polygon clip-path="url(#SVGID_2_)" fill="#585757" points="40.6,26.9 40.6,24.3 37.7,24.3 37.7,26.9 36.9,26.9 36.9,21.3 
		37.7,21.3 37.7,23.6 40.6,23.6 40.6,21.3 41.3,21.3 41.3,26.9 	"/>
	<polygon clip-path="url(#SVGID_2_)" fill="#585757" points="46.4,27 43.8,24 43.8,26.9 43,26.9 43,21.3 43.8,21.3 43.8,23.8 
		46.1,21.3 47.1,21.3 44.6,23.9 47.3,26.8 	"/>
</g>
</svg>
