<?xml version="1.0" encoding="utf-8"?>
<!-- Generator: Adobe Illustrator 18.0.0, SVG Export Plug-In . SVG Version: 6.00 Build 0)  -->
<!DOCTYPE svg PUBLIC "-//W3C//DTD SVG 1.1//EN" "http://www.w3.org/Graphics/SVG/1.1/DTD/svg11.dtd">
<svg version="1.1" id="Слой_1" xmlns="http://www.w3.org/2000/svg" xmlns:xlink="http://www.w3.org/1999/xlink" x="0px" y="0px"
	 viewBox="0 0 351.6 53.8" enable-background="new 0 0 351.6 53.8" xml:space="preserve">
<g>
	<defs>
		<rect id="SVGID_1_" y="0" width="351.6" height="53.8"/>
	</defs>
	<clipPath id="SVGID_2_">
		<use xlink:href="#SVGID_1_"  overflow="visible"/>
	</clipPath>
	<path clip-path="url(#SVGID_2_)" fill="#2D4E9E" d="M23.3,37.7c0.5,1.2,0.3,2.8,0.1,3.7c-0.4,1.7-1.6,3.4-4.9,3.4
		c-3.1,0-5.1-1.8-5.1-4.6l0-4.9H0l0,3.9c0,11.2,8.8,14.6,18.3,14.6c9.1,0,16.6-3.1,17.8-11.5c0.6-4.3,0.2-7.2,0-8.2
		c-2.1-10.5-21.2-13.7-22.6-19.5c-0.2-1-0.2-2.1-0.1-2.6c0.4-1.6,1.5-3.4,4.6-3.4c2.9,0,4.7,1.8,4.7,4.6v3.1h12.5v-3.5
		C35.1,1.7,25.3,0,18.2,0C9.2,0,1.9,3,0.6,11.2c-0.4,2.2-0.4,4.2,0.1,6.8C2.9,28.2,20.7,31.2,23.3,37.7"/>
	<path clip-path="url(#SVGID_2_)" fill="#2D4E9E" d="M186.7,37.6c0.5,1.2,0.3,2.7,0.1,3.7c-0.4,1.7-1.5,3.3-4.9,3.3
		c-3.1,0-5-1.8-5-4.5l0-4.8h-13.3l0,3.8c0,11.1,8.7,14.5,18.1,14.5c9,0,16.4-3.1,17.6-11.4c0.6-4.3,0.2-7.1-0.1-8.2
		c-2.1-10.4-21-13.5-22.4-19.3c-0.2-1-0.2-2.1-0.1-2.6c0.4-1.6,1.4-3.3,4.5-3.3c2.9,0,4.6,1.8,4.6,4.5v3.1h12.4v-3.5
		c0-10.8-9.7-12.5-16.8-12.5c-8.8,0-16.1,2.9-17.4,11c-0.4,2.2-0.4,4.2,0.1,6.7C166.5,28.2,184.1,31.1,186.7,37.6"/>
	<polygon clip-path="url(#SVGID_2_)" fill="#2D4E9E" points="290.9,42 290.2,1.6 302.7,1.6 302.7,51.3 284.8,51.3 272.1,9.6 
		272.8,51.3 260.4,51.3 260.4,1.6 279.1,1.6 	"/>
	<polygon clip-path="url(#SVGID_2_)" fill="#2D4E9E" points="65.1,5.3 58.1,51.8 44.5,51.8 53.8,1.6 76.2,1.6 85.4,51.8 71.9,51.8 	
		"/>
	<polygon clip-path="url(#SVGID_2_)" fill="#2D4E9E" points="138.4,5.3 129.8,51.8 117,51.8 108.4,5.3 108,51.8 95.5,51.8 96.6,1.6 
		117,1.6 123.4,40.9 129.7,1.6 150.2,1.6 151.3,51.8 138.7,51.8 	"/>
	<path clip-path="url(#SVGID_2_)" fill="#2D4E9E" d="M228.9,44.3c3.5,0,4.6-2.4,4.8-3.6c0.1-0.5,0.1-1.3,0.1-1.9V1.6h12.7v36
		c0,0.9-0.1,2.8-0.1,3.3c-0.9,9.4-8.3,12.4-17.5,12.4c-9.2,0-16.7-3-17.5-12.4c0-0.5-0.1-2.4-0.1-3.3v-36h12.7v37.2
		c0,0.6,0,1.4,0.1,1.9C224.3,41.9,225.4,44.3,228.9,44.3"/>
	<path clip-path="url(#SVGID_2_)" fill="#2D4E9E" d="M333.7,43.8c3.6,0,4.9-2.3,5.1-3.6c0.1-0.6,0.1-1.3,0.1-1.9V31h-5.2v-7.3h17.8
		v13.5c0,0.9,0,1.6-0.2,3.3c-0.8,9.1-8.8,12.4-17.7,12.4c-8.9,0-16.8-3.3-17.7-12.4c-0.2-1.7-0.2-2.4-0.2-3.3l0-21.1
		c0-0.9,0.1-2.5,0.2-3.3c1.1-9.4,8.7-12.4,17.6-12.4c8.9,0,16.7,3,17.6,12.4c0.2,1.6,0.1,3.3,0.1,3.3v1.7h-12.7v-2.8
		c0,0,0-1.2-0.2-1.9c-0.2-1.1-1.2-3.6-5-3.6c-3.7,0-4.7,2.4-5,3.6c-0.1,0.7-0.2,1.6-0.2,2.4v23c0,0.6,0,1.3,0.1,1.9
		C328.8,41.5,330.1,43.8,333.7,43.8"/>
</g>
</svg>
