<?xml version="1.0" encoding="utf-8"?>
<!-- Generator: Adobe Illustrator 18.0.0, SVG Export Plug-In . SVG Version: 6.00 Build 0)  -->
<!DOCTYPE svg PUBLIC "-//W3C//DTD SVG 1.1//EN" "http://www.w3.org/Graphics/SVG/1.1/DTD/svg11.dtd">
<svg version="1.1" id="Layer_1" xmlns="http://www.w3.org/2000/svg" xmlns:xlink="http://www.w3.org/1999/xlink" x="0px" y="0px"
	 viewBox="0 0 175.3 175.6" enable-background="new 0 0 175.3 175.6" xml:space="preserve">
<g>
	<g>
		<path fill="#CC2128" d="M43.6,61.8c0-7.8,7.3-14.1,7.3-14.1s7,6.3,7,14.1s-7,14.1-7,14.1S43.6,69.6,43.6,61.8 M50.9,16.2
			c0,0-17.6,15.5-17.6,34.7c0,19.2,17.6,34.7,17.6,34.7S68.2,70,68.2,50.9C68.2,31.7,50.9,16.2,50.9,16.2"/>
	</g>
	<polygon points="50.9,97.5 15.9,64.9 15.9,175.1 31.8,175.1 31.8,101.3 50.9,120 69.5,101.3 69.5,143.9 85.5,143.9 85.5,64.9 	"/>
	<polygon points="129.6,149.2 124.4,164.6 124.4,149.2 118.4,149.2 118.4,175.2 124.7,175.2 129.7,159.9 129.7,175.2 135.8,175.2 
		135.8,149.2 	"/>
	<path d="M146.4,154.5l1.8,10.9h-3.9L146.4,154.5z M143.1,149.2l-5.8,26h5.1l1.1-5.3h5.5l1,5.3h6.1l-5.2-26H143.1z"/>
	<polygon points="35.9,149.1 35.9,175.2 51.1,175.2 51.1,169.8 41.9,169.8 41.9,164.6 48.1,164.6 48.1,159.6 41.9,159.6 41.9,154.4 
		51.1,154.4 51.1,149.1 	"/>
	<polygon points="68.3,149.1 65.1,164.2 62.2,149.1 53.9,149.1 53.9,175.2 58.5,175.2 58.5,155.3 62.4,175.2 66.2,175.2 70.4,155.3 
		70.3,175.2 76.3,175.2 76.3,149.1 	"/>
	<g>
		<path d="M116.6,156.9c0-6.4-4.8-7.7-8.3-7.7h-8.8v26h6.1v-10.6h2.7C111.8,164.6,116.6,163.1,116.6,156.9 M110.3,157
			c0,2.5-2.2,3.2-3.8,3.2h-1.1v-6.3h1C108.2,153.9,110.3,154.5,110.3,157"/>
		<path d="M175.2,175.1v-25.9h-15.4v9.6c0,10.7,0.4,12.3-1.6,12.3c-0.5,0-0.9,0-1.4-0.2v4.1c1,0.5,1.8,0.7,3,0.7c3,0,5-1.3,5-7.2
			c0-1.5,0-3.3,0-5.4v-8.8h4.3v20.9H175.2z"/>
		<path d="M97.3,162.2c0,4.2-0.8,7.4-2.5,9.8c-1.7,2.4-3.9,3.6-6.8,3.6c-2.9,0-5.2-1.2-6.8-3.6c-1.7-2.4-2.5-5.7-2.5-9.8
			c0-4.1,0.8-7.4,2.5-9.8c1.7-2.4,3.9-3.6,6.8-3.6c2.9,0,5.2,1.2,6.8,3.6C96.5,154.8,97.3,158,97.3,162.2 M90.9,162.2
			c0-1.6-0.1-2.9-0.2-4c-0.1-1.1-0.4-2-0.6-2.7c-0.3-0.7-0.6-1.2-0.9-1.5c-0.3-0.3-0.7-0.5-1.1-0.5c-0.4,0-0.7,0.1-1.1,0.4
			c-0.3,0.3-0.6,0.8-0.9,1.5c-0.3,0.7-0.5,1.6-0.6,2.7c-0.2,1.1-0.2,2.5-0.2,4.1c0,1.6,0.1,3,0.2,4c0.2,1.1,0.4,2,0.6,2.7
			c0.3,0.7,0.6,1.3,0.9,1.6c0.3,0.3,0.7,0.5,1.1,0.5c0.4,0,0.7-0.2,1.1-0.5c0.3-0.3,0.6-0.9,0.9-1.6c0.3-0.8,0.5-1.7,0.6-2.7
			C90.8,165.1,90.9,163.8,90.9,162.2"/>
	</g>
	<polygon points="0.1,0.1 0.1,175.2 8.1,175.2 8.1,8 167.3,8 167.3,145.6 175.2,145.6 175.2,0.1 	"/>
	<g>
		<polygon fill="none" stroke="#000000" stroke-width="0.2034" stroke-miterlimit="22.926" points="0.1,175.2 0.1,0.1 175.2,0.1 
			175.2,145.6 167.3,145.6 167.3,8 8.1,8 8.1,175.2 		"/>
	</g>
</g>
</svg>
