<?xml version="1.0" encoding="utf-8"?>
<!-- Generator: Adobe Illustrator 18.0.0, SVG Export Plug-In . SVG Version: 6.00 Build 0)  -->
<!DOCTYPE svg PUBLIC "-//W3C//DTD SVG 1.1//EN" "http://www.w3.org/Graphics/SVG/1.1/DTD/svg11.dtd">
<svg version="1.1" id="Layer_1" xmlns="http://www.w3.org/2000/svg" xmlns:xlink="http://www.w3.org/1999/xlink" x="0px" y="0px"
	 viewBox="0 0 544.2 79.5" enable-background="new 0 0 544.2 79.5" xml:space="preserve">
<g>
	<g>
		<g>
			<path d="M17.7,3.6c0.3-0.1,0.5-0.1,0.5,0.4c-0.8,13.6-0.5,38.7,0,55.6c0.1,1.9,1.1,1.1,1.4,0.8c5-4.5,13.1-15,21.3-25.4
				c9.6-12.1,19.1-24.4,23.8-30.6C64.9,4.3,65.3,4,65.6,4c0.9-0.1,1.4-0.3,1.8-0.3c0.3-0.1,0.4,0.1,0.3,0.5c-0.6,6-2.5,37,0.3,65.7
				c0.1,0.9-0.2,1.2-0.8,1.3c-0.5,0.2-5,1.2-5.3,1.3c-0.2,0.2-0.5-0.1-0.5-0.8c0.7-9.1,0.8-35.4-0.4-54.4c0-1.5-0.3-1.4-1-0.8
				c-9.2,8.6-30.8,37.2-44.3,54.7c-1,1.3-2.1,1.2-3.1,1.3c-0.3,0.1-0.5,0-0.4-0.5c1-16.2,1.6-46.9-0.6-66.5C11.4,5.2,11.6,5,11.8,5
				C12.1,4.9,17.6,3.6,17.7,3.6"/>
			<path d="M130,7.4c-2-2.2-13.8-6-26.1-4.3C91.2,4.7,73.2,14.7,74.7,40.8c1.3,24.5,21.8,32.5,33.4,32.5c2.9,0,16.1-0.6,20.9-5
				c1.7-1.6,1.7-2.4,1.5-10.3c0-1-0.5-0.9-0.6-0.2c-0.2,3-1,4.5-1.8,5.7c-1.6,2.3-7.8,7-18.2,7.2c-13.6,0.3-27.8-11-29.9-32.6
				c-1.6-17,10-31.8,25.1-32.7c14.1-0.8,19.5,4.9,20.5,6.5c0.7,1.2,0.6,2.3-0.6,3.8c-0.4,0.6,0.2,1,0.5,0.6c0.4-0.4,4.1-5.7,4.8-6.6
				C130.9,8.9,130.8,8.1,130,7.4"/>
			<path d="M304.3,6.5c-2.1-2.2-13.5-5.5-25.8-3.8c-12.7,1.6-30.9,12.1-29.5,38.2c1.4,24.5,22.2,32.4,33.8,32.4
				c2.9,0,15.7-0.5,20.5-4.9c1.8-1.5,2.2-2.7,1.9-10.5c0-1-0.4-0.9-0.4-0.2c-0.3,3.1-1.5,4.9-2.3,6.1c-1.6,2.3-7.8,7.1-18.1,7.3
				c-13.6,0.2-27.8-11.2-30-32.6c-1.8-17.6,10.6-32.3,25.2-33.3c14.1-0.9,19.2,4.4,20.2,6c0.8,1.2,0.6,2.3-0.6,3.8
				c-0.5,0.5,0.2,0.9,0.5,0.5c0.3-0.3,4.1-5.6,4.7-6.5C305.3,8,305,7.3,304.3,6.5"/>
			<path d="M363.8,7.2c-2.1-2.2-14-6-25.7-4.5c-13.5,1.6-30.8,11.6-29.3,38.4c1.3,23.8,22.1,32.2,33.6,32.2c3,0,15.3-0.5,20.1-4.9
				c1.6-1.5,2.1-2.7,1.9-10.5c0-1-0.5-0.9-0.5-0.2c-0.3,3.4-1,4.7-2,6.1c-1.7,2.2-7.7,6.7-18.1,7c-13.6,0.2-27.5-10.9-29.8-32.3
				c-1.7-17.6,9.5-32.1,25.4-33.3c13.4-1,18.9,4.9,20,6.6c0.7,1.2,0.5,2.2-0.6,3.8c-0.5,0.6,0.2,0.9,0.5,0.6
				c0.2-0.3,4.1-5.7,4.7-6.5C364.6,8.6,364.5,8,363.8,7.2"/>
			<path d="M138,4.9c0-0.2,0-0.4,0.3-0.4c0.2,0,5.4-1.2,6.6-1.6c0.4-0.2,0.5,0.1,0.5,0.6c-0.3,2.1-0.7,8.2-0.8,10.8
				c0,6-0.6,32.6,0.7,55.8c0.1,0.7-0.2,0.6-0.6,0.7c-0.4,0.2-6.3,1.3-6.3,1.3c0.9-9.8,0.8-21.8,0.8-36.5
				C139.3,21,138.8,11.4,138,4.9"/>
			<path d="M146.8,37.1c-0.4-0.3-0.3-0.5,0-0.8c5.6-4.8,18-16.9,32.2-32.5c1.4-1.6,2.2-1.2,3-0.3c0.7,0.8,4,5,4.5,5.7
				c0.3,0.5,0,0.8-0.4,0.4c0,0-1.1-3-5.8-0.3c-4.1,2.6-12.5,9.2-26.4,25c-0.6,0.8-0.5,1.6,0.1,2.2c0.6,0.6,24.8,25.3,34.9,32.9
				c0.3,0.3,0.4,0.6-0.1,0.9c-0.5,0.3-5.1,2.3-5.5,2.6c-0.3,0.2-0.8,0-1.3-0.5C169.9,59.6,156.7,46.9,146.8,37.1"/>
			<path d="M189.2,4.4l7.1-1.3c1.3,5.7,18,41.2,25.2,55.3c0.5,0.8,1.2,0.8,1.4,0.1c0.4-0.7,22.9-47.5,23.8-55.4l5.3,1.9
				c0,0-4.4,6.8-8.4,15.2c-4.1,8.5-25.3,55.4-26.3,57.6c-1.1,2.2-3.1,1.6-4.2,1.1c-1-0.5-6.8-3.8-7.1-4c-0.4-0.1-0.3-0.7,0.2-0.4
				c2.6,1.3,5.5,2.2,8.4-1.9c2.9-4,3.8-5.9,4.1-6.5c0.2-0.5,0.3-0.8,0-1.3C212,50.1,194,11.9,189.2,4.4"/>
			<path d="M367.6,10.2c0.4-0.8,2.2-4.4,2.4-5c0-0.6,1-0.7,1.8-0.7c1,0,18.3,0.2,23,0.2c4.7,0,16.3,0.3,21.6-0.7
				c3.1-0.6,4.8-1,5.9-3.6c0.3-0.6,0.8-0.4,0.5,0.1c-0.8,2.1-2.1,5-2.9,6.5c-1.1,2-2.2,2.4-4.8,2C412,8.7,404.8,7.7,399,7.9
				c-0.8,0-1,0.6-1,1.1c0,0.6-0.3,16.7-0.3,29.2C397.6,50.6,397.5,65,398,70c0.1,0.6,0,0.9-0.4,1c-1.6,0.4-4.9,1.1-6.1,1.5
				c-0.3,0.1-0.4,0.1-0.4-0.4c0.7-6.4,0.9-14.5,1-33.7c0.1-7.8,0.4-27.3,0.3-29.4c-0.1-0.9-0.5-1.1-1.2-1.1
				c-0.6,0-14.6-0.3-18.5,0.2c-2.8,0.3-4,1.2-4.8,2.4C367.8,10.8,367.4,10.9,367.6,10.2"/>
			<path d="M453.2,35.1c-0.4-0.1-0.6-0.5-0.1-0.7c5.7-2.3,10.1-7.8,10.2-14.5c0.1-4.6-2.3-10.5-9-14.4c-8-4.7-25.7-0.1-25.7-0.1
				c1.4,6.3,1.1,19.5,1.2,29.8c0.2,14.4,0.1,26.3-0.6,34.8c1,0.2,10.8,3.2,19.5,2.9c10.6-0.4,21.1-7.5,21.2-18.7
				C470.3,41.3,459.4,36.2,453.2,35.1 M447.9,70.2c-4,0.2-8.3-0.6-12.7-2.8c-0.1-11.7,0-23.7-0.1-32.6c-0.1-8.8-0.1-17.8,0-26.6
				c0-0.6,0.4-1.1,1.2-1.4c0.8-0.3,8.3-2.6,13.9,1.2c5.9,3.9,7.8,8.3,7.8,13.7c0,7.7-6.1,13.8-18.3,12.5c-0.4,0-0.7,0.1-0.5,0.3
				c0.1,0.3,0.7,1.9,0.8,2c0.1,0.1,0.2,0.3,0.5,0.3c11.1-0.6,23.3,3.6,23.7,17.9C464.5,60.6,459.4,69.7,447.9,70.2"/>
			<path d="M510.2,3.5c-18,0-33,14.3-32.8,36.1c0.3,20.1,15.8,33.3,33,33.9c16.2,0.5,33.9-13.7,33.9-34.4
				C544.2,17.1,529.5,3.5,510.2,3.5 M522.6,68.6c-17.7,6.8-34.2-3.3-38.5-23c-4.5-21,4.9-33.6,15.2-37.5
				c14.8-5.8,32.5,0.1,38.1,22.5C542.3,50.9,532.2,64.9,522.6,68.6"/>
			<path d="M1.3,73c-0.9-0.2-0.9-0.2-1.2-0.2c0.1-0.8,0.1-1.5,0.1-1.9c0-1.2-0.1-1.7-0.1-2.1c0.1,0.1,0.5,0.1,1.2,0.2v0.2
				c-0.2,0-0.3,0-0.4,0c-0.4,0-0.5,0-0.5,0.9v0.5h3.4c0.3,0,1-0.1,1-0.4v-0.2H5v0.2c0,0.1,0,0.3,0,0.3c0,0.1,0,0.2,0,0.3
				c0,0.1,0,0.2,0,0.3c0,0.2,0,0.3,0,0.3v0.2H4.8v-0.2c0-0.4-0.6-0.3-1-0.3H0.4v0.4c0,0.6,0,1,0.9,1.2V73"/>
			<path d="M0.2,68.5v-0.2c0-0.1,0-0.3,0-0.3c0-0.1,0-0.2,0-0.3c0-0.1,0-0.2,0-0.2c0-0.1,0-0.2,0-0.4v-0.2h0.1v0.2
				c0,0.4,0.5,0.4,1.1,0.4h0.9c0.1-0.4,0.2-0.9,0.2-1.6c0-0.7-0.1-1.1-0.2-1.5H1.4c-0.5,0-1.1,0-1.1,0.5v0.1H0.2v-0.3
				c0-0.1,0-0.2,0-0.3c0-0.1,0-0.2,0-0.3c0,0,0-0.1,0-0.2c0-0.1,0-0.2,0-0.2v-0.3h0.1v0.1c0,0.4,0.5,0.4,1.1,0.4h2.3
				c0.4,0,1.1,0,1.1-0.4v-0.1H5v0.3c0,0.1,0,0.1,0,0.2c0,0.1,0,0.2,0,0.2c0,0.1,0,0.3,0,0.3c0,0.1,0,0.2,0,0.3V65H4.8v-0.2
				c0-0.4-0.6-0.4-1.1-0.4H2.6c0,0.5,0,1.1,0,1.5c0,0.5,0,1.1,0,1.6h1.1c0.5,0,1.1,0,1.1-0.4V67H5v0.2c0,0.1,0,0.2,0,0.3
				c0,0.1,0,0.1,0,0.2c0,0.1,0,0.2,0,0.3c0,0,0,0.1,0,0.2v0.3H4.8v-0.2c0-0.4-0.7-0.3-1.1-0.3H1.4c-0.5,0-1.1-0.1-1.1,0.3v0.1H0.2"
				/>
			<path d="M1.4,62.2c-0.4,0-1.1,0-1.1,0.4v0.1H0.2c0-0.6,0-0.9,0-1.5c0-0.6,0-0.9,0-1.5c0.2,0,0.7,0.2,1.1,0.3v0.2
				c-0.2-0.1-0.4-0.1-0.4-0.1c-0.2,0-0.5,0.1-0.5,0.6v0.9c0.4,0,0.8,0,1.1,0h0.8l0-0.4v-0.5c0-0.2-0.1-0.5-0.6-0.5v-0.2
				c0.4,0.1,0.9,0.1,1.5,0.1v0.2c-0.5-0.1-0.6,0-0.6,0.4v0.5l0,0.4h1.1c0.9,0,0.9-0.2,0.9-0.7c0-0.6,0-1-0.8-1.2v-0.3
				c0.2,0,0.7,0.1,0.9,0.3C5,59.9,5,60,5,60.2c0,0.3,0,0.5,0,0.8c0,0.2,0,0.4,0,0.5c0,0.1,0,0.2,0,0.2c0,0.4,0,0.6,0,0.8v0.2H4.8
				v-0.2c0-0.4-0.7-0.4-1-0.4H1.4"/>
			<path d="M0,55.1c0.4,0,1.3-0.3,2.6-0.8C3,54.1,4,53.8,4.2,53.7c0.2,0,0.6-0.3,0.6-0.6v-0.2H5v0.3c0,0.1,0,0.1,0,0.2
				c0,0.1,0,0.2,0,0.3c0,0.2,0,0.2,0,0.4c0,0.1,0,0.2,0,0.3v0.2H4.8v-0.2c0-0.2-0.2-0.3-0.5-0.2c-0.4,0.1-0.7,0.2-1,0.3
				c0,0.2,0,0.4,0,0.6c0,0.4,0,0.8,0,1.1l0.6,0.2c0.5,0.2,0.9,0.3,0.9-0.1V56H5v0.2c0,0.1,0,0.2,0,0.2c0,0.1,0,0.2,0,0.3
				c0,0.1,0,0.2,0,0.3c0,0.1,0,0.2,0,0.2v0.3H4.8v-0.2c0-0.5-1.1-0.7-2.5-1.2c-0.7-0.3-1.3-0.5-2.2-0.8L0,55.1z M0.9,55.4
				c0.7,0.2,1,0.3,2.2,0.7c0-0.2,0-0.6,0-1c0-0.1,0-0.3,0-0.4C2.1,55,1.7,55.2,0.9,55.4L0.9,55.4"/>
			<path d="M0.2,52.2c0-0.2,0-0.3,0-0.4c0-0.5-0.1-0.7-0.1-1.2c0-1,0.7-1.5,1.3-1.5c1.1,0,1.4,0.9,1.5,1.5l0,0c0-0.6,0.3-1,1.2-1.6
				C4.7,48.7,5,48.5,5,48.1h0.2c0,0.7-0.2,1-0.9,1.5C3.8,50.1,3,50.5,3,51.2v0.2h0.7c0.5,0,1.2,0.1,1.2-0.4v-0.1H5v0.2
				c0,0.2,0,0.2,0,0.3c0,0.1,0,0.2,0,0.2c0,0.1,0,0.2,0,0.3c0,0.1,0,0.2,0,0.3v0.3H4.8v-0.1c0-0.4-0.7-0.4-1.2-0.4H1.5
				c-0.5,0-1.1,0-1.1,0.4v0.1H0.2V52.2z M2.8,51.4v-0.2c0-1.3-0.7-1.6-1.2-1.6c-0.6,0-1.2,0.3-1.2,1.2c0,0.2,0,0.3,0,0.5H2.8"/>
			<path d="M1.3,48c-0.9-0.2-0.9-0.2-1.2-0.2C0.2,47,0.2,46.3,0.2,46c0-1.2-0.1-1.7-0.1-2.1c0.1,0,0.5,0,1.2,0.1v0.3
				c-0.2,0-0.3,0-0.4,0c-0.4,0-0.5,0.1-0.5,0.9v0.6h3.4c0.3,0,1,0,1-0.4v-0.2H5v0.2c0,0.1,0,0.3,0,0.3c0,0.1,0,0.2,0,0.3
				c0,0.1,0,0.2,0,0.3c0,0.1,0,0.1,0,0.3v0.2H4.8v-0.2c0-0.3-0.6-0.3-1-0.3H0.4v0.4c0,0.6,0,1,0.9,1.2V48"/>
			<path d="M0.1,40.8c1.3-0.5,1.7-0.8,2.5-1.1c0.8-0.4,1.2-0.5,1.6-0.7v0c-0.3-0.1-0.4-0.1-0.9-0.4l-1-0.5c-0.5-0.2-1.7-0.7-2-0.9
				l-0.1-0.3c0.5-0.1,0.7-0.1,1.7-0.1c1-0.1,0.9-0.1,1.4-0.1c0.5-0.1,1.5-0.1,1.5-0.5V36H5v0.3c0,0.1,0,0.2,0,0.3c0,0.1,0,0.2,0,0.2
				c0,0.1,0,0.2,0,0.3c0,0.1,0,0.2,0,0.3v0.2H4.8v-0.1c0-0.4-0.4-0.4-0.6-0.4c-1.6,0-2.2,0.2-3.1,0.1v0.1c0.7,0.3,1.3,0.5,2.2,1
				c0.9,0.4,1,0.5,1.4,0.6v0.1c-2.2,1.1-2.7,1.4-3.7,1.7v0.1c0.7,0,1,0,1.4,0C3,41,3.9,41,4.2,41c0.2,0,0.6,0,0.6-0.3v-0.1H5v0.2
				c0,0.1,0,0.1,0,0.3c0,0.1,0,0.1,0,0.3c0,0.1,0,0.2,0,0.3c0,0.1,0,0.1,0,0.2v0.3H4.8V42c0-0.6-1.3-0.6-2.2-0.7
				c-1.3-0.1-1.6-0.2-2.4-0.2L0.1,40.8"/>
			<path d="M0,33.5c0.4-0.1,1.3-0.4,2.6-0.9C3,32.5,4,32.1,4.2,32c0.2-0.1,0.6-0.2,0.6-0.5v-0.2H5v0.3c0,0.1,0,0.2,0,0.3
				c0,0,0,0.1,0,0.3c0,0.1,0,0.2,0,0.3c0,0.1,0,0.2,0,0.4V33H4.8v-0.2c0-0.2-0.2-0.3-0.5-0.2c-0.4,0.1-0.7,0.2-1,0.3
				c0,0.2,0,0.3,0,0.5c0,0.4,0,0.8,0,1.1l0.6,0.2c0.5,0.1,0.9,0.3,0.9-0.2v-0.2H5v0.2c0,0.1,0,0.2,0,0.2C5,35,5,35,5,35.1
				c0,0.1,0,0.2,0,0.3c0,0.1,0,0.1,0,0.2v0.3H4.8v-0.1c0-0.4-1.1-0.8-2.5-1.3C1.6,34.3,1,34,0.1,33.8L0,33.5z M0.9,33.8
				c0.7,0.1,1,0.2,2.2,0.6c0-0.2,0-0.6,0-1c0-0.1,0-0.2,0-0.4C2.1,33.3,1.7,33.6,0.9,33.8L0.9,33.8"/>
			<path d="M2.8,26.2v0.1c0,0.3,0.3,0.3,0.6,0.3h1.4c0.2,0.4,0.3,1.2,0.3,1.6c0,1.4-1,2.7-2.6,2.7c-1.7,0-2.5-1.3-2.5-2.6
				c0-0.3,0-0.5,0.1-0.8c0-0.3,0-0.5,0-0.8c0.5,0,0.5,0,1.1,0V27c-0.5,0-1,0.1-1,1.3c0,1.1,0.6,2.1,2.2,2.1c1.3,0,2.2-1,2.2-2.2
				c0-0.4-0.1-0.6-0.2-0.9H3.4c-0.6,0-0.6,0.1-0.6,0.4v0.2H2.6v-0.3c0-0.1,0-0.2,0-0.3c0.1-0.1,0-0.1,0-0.2c0-0.1,0-0.1,0-0.2
				c0-0.1,0-0.2,0-0.3v-0.3H2.8"/>
			<path d="M0,23.4c0.4-0.1,1.3-0.3,2.6-0.9C3,22.4,4,22.1,4.2,22c0.2-0.1,0.6-0.3,0.6-0.6v-0.2H5v0.3c0,0.1,0,0.2,0,0.3
				c0,0.1,0,0.2,0,0.3c0,0.1,0,0.3,0,0.4c0,0.2,0,0.3,0,0.4v0.1H4.8v-0.1c0-0.2-0.2-0.3-0.5-0.2c-0.4,0.1-0.7,0.2-1,0.3
				c0,0.2,0,0.2,0,0.5c0,0.4,0,0.8,0,1l0.6,0.2c0.5,0.2,0.9,0.3,0.9,0v-0.3H5v0.3c0,0,0,0.1,0,0.2c0,0.1,0,0.1,0,0.2
				c0,0.2,0,0.3,0,0.4c0,0.1,0,0.1,0,0.3v0.3H4.8v-0.1c0-0.5-1.1-0.8-2.5-1.4C1.6,24.2,1,24,0.1,23.7L0,23.4z M0.9,23.7
				c0.7,0.2,1,0.3,2.2,0.7c0-0.3,0-0.6,0-0.9c0-0.2,0-0.3,0-0.5C2.1,23.2,1.7,23.4,0.9,23.7L0.9,23.7"/>
			<path d="M0.4,16.8c1,0.9,1.7,1.3,2.4,1.8c0.9,0.8,1.4,1.1,1.9,1.6c0-0.1,0-0.3,0-0.3c0-0.1,0-0.3,0-0.9c0-0.4,0.1-0.8,0.1-1
				c0-0.4-0.1-0.7-0.3-0.9c-0.1-0.2-0.3-0.3-0.6-0.4l0-0.3c0.8,0.2,1.1,0.4,1.1,0.6C5,17,5,17.2,5,17.5c0,0.3,0,0.6,0,1
				c0,0.4,0,0.9,0,1.4c0,0.4,0,0.5,0,1H4.7c-0.6-0.6-1.2-1-2.3-1.9c-1.5-1-1.8-1.3-2.1-1.6c0,0.3,0,0.6,0,1.1c0,0.4,0,0.6,0,1
				c0,0.3,0,0.5,0.1,0.7c0.2,0.2,0.3,0.3,0.6,0.5v0.2c-0.5-0.1-0.8-0.2-1-0.2c0-0.2,0-0.8,0-2.1c0-0.6,0-1.3,0-1.8H0.4"/>
			<path d="M4.8,15.7L4.8,15.7c0-0.5-0.7-0.5-1.2-0.5H1.4c-0.5,0-1.1,0-1.1,0.4v0.1H0.2v-0.2c0-0.1,0-0.2,0-0.3c0-0.1,0-0.1,0-0.2
				c0-0.3,0-0.2,0-0.5v-0.3h0.1v0.2c0,0.4,0.6,0.4,1.1,0.4h2.2c0.5,0,1.2,0,1.2-0.4v-0.2H5v0.3c0,0.1,0,0.2,0,0.2c0,0.1,0,0.2,0,0.3
				c0,0.1,0,0.2,0,0.3c0,0.1,0,0.1,0,0.2v0.2H4.8"/>
			<path d="M4.8,13.9c0-0.2-0.1-0.4-0.4-0.4c-0.3-0.1-0.8-0.1-1.1-0.1H1.5c-0.6,0-0.9,0-1.3,0l-0.1-0.2c0.9-0.7,2.3-1.9,2.8-2.3
				c0.5-0.5,0.8-0.7,1.3-1v0c-0.2,0-0.4,0-0.6,0H1.8c-0.8,0-1,0-1.2,0.1c-0.2,0.1-0.2,0.2-0.2,0.3v0.2H0.2v-0.2c0-0.1,0-0.3,0-0.4
				c0,0,0-0.1,0-0.2c0-0.2,0-0.2,0-0.3c0-0.1,0-0.2,0-0.4V8.9h0.1v0.1c0,0.1,0,0.3,0.2,0.3c0.1,0,0.3,0.2,1.2,0.2h1.9
				c0.5,0,0.9,0,1.4,0l0.1,0.3c-0.7,0.5-1.7,1.5-2.4,2.1c-1.2,1-1.4,1.1-1.7,1.3v0c0.2,0,0.4,0,0.6,0h1.7c0.7,0,1-0.1,1.1-0.2
				c0.3-0.1,0.4-0.2,0.4-0.4v-0.1H5v0.1c0,0.1,0,0.3,0,0.4c0,0.1,0,0.2,0,0.3c0,0.1,0,0.2,0,0.3c0,0.1,0,0.2,0,0.3V14L4.8,13.9
				L4.8,13.9"/>
			<path d="M1.4,7.4C1,7.4,0.4,7.3,0.4,7.8v0.1H0.2c0-0.5,0-0.9,0-1.4c0-0.6,0-0.9,0-1.5c0.2,0,0.7,0.1,1.1,0.2v0.3
				c-0.2,0-0.4,0-0.4,0c-0.2,0-0.5,0-0.5,0.5v0.8c0.4,0.1,0.8,0.1,1.1,0.1h0.8l0-0.5V5.9c0-0.3-0.1-0.4-0.6-0.5V5.2
				c0.4,0.1,0.9,0.1,1.5,0.1v0.3c-0.5-0.1-0.6,0-0.6,0.4v0.4l0,0.5h1.1c0.9,0,0.9-0.2,0.9-0.8c0-0.6,0-1-0.8-1.2V4.6
				c0.2,0.1,0.7,0.3,0.9,0.3C5,5,5,5.2,5,5.4c0,0.2,0,0.4,0,0.6c0,0.2,0,0.4,0,0.6c0,0,0,0.2,0,0.3c0,0.4,0,0.5,0,0.8v0.1H4.8V7.7
				c0-0.3-0.7-0.3-1-0.3H1.4"/>
		</g>
	</g>
</g>
</svg>
