<?xml version="1.0" encoding="utf-8"?>
<!-- Generator: Adobe Illustrator 18.0.0, SVG Export Plug-In . SVG Version: 6.00 Build 0)  -->
<!DOCTYPE svg PUBLIC "-//W3C//DTD SVG 1.1//EN" "http://www.w3.org/Graphics/SVG/1.1/DTD/svg11.dtd">
<svg version="1.1" id="Слой_1" xmlns="http://www.w3.org/2000/svg" xmlns:xlink="http://www.w3.org/1999/xlink" x="0px" y="0px"
	 viewBox="0 0 27 7.7" enable-background="new 0 0 27 7.7" xml:space="preserve">
<polygon points="17.9,1.6 16.5,3 18.1,3 18.1,7.5 19.6,7.5 19.6,3 21.2,3 21.2,1.6 "/>
<g>
	<defs>
		<rect id="SVGID_1_" y="0" width="27" height="7.7"/>
	</defs>
	<clipPath id="SVGID_2_">
		<use xlink:href="#SVGID_1_"  overflow="visible"/>
	</clipPath>
	<path clip-path="url(#SVGID_2_)" d="M3.2,2.9c0.6,0,1.1,0.4,1.3,0.9l1.3-0.6C5.4,2.3,4.6,1.5,3.2,1.5C1.4,1.5,0,2.8,0,4.6
		c0,1.8,1.4,3,3.2,3c1.4,0,2.2-0.8,2.6-1.6L4.5,5.4C4.3,5.9,3.8,6.3,3.2,6.3c-1,0-1.6-0.7-1.6-1.7S2.2,2.9,3.2,2.9"/>
	<path clip-path="url(#SVGID_2_)" d="M9.3,6.3c-1,0-1.6-0.8-1.6-1.7c0-1,0.6-1.7,1.6-1.7c1,0,1.6,0.7,1.6,1.7
		C10.9,5.6,10.3,6.3,9.3,6.3 M9.3,1.6c-1.8,0-3.2,1.3-3.2,3c0,1.8,1.4,3,3.2,3s3.1-1.3,3.1-3C12.5,2.8,11.1,1.6,9.3,1.6"/>
</g>
<polygon points="13.1,1.6 13.1,7.5 17,7.5 17,6.2 14.6,6.2 14.6,3.7 13.6,4.6 14.6,2.5 14.6,1.6 "/>
<path d="M23.9,3.1l0.8,2.2h-1.5L23.9,3.1z M22.9,1.6l-2.2,5.9h1.7l0.3-0.8H25l0.3,0.8H27l-2.2-5.9H22.9z"/>
<polygon fill="#CD3430" points="15.8,0 13.6,4.6 18.6,0 "/>
</svg>
