<?xml version="1.0" encoding="utf-8"?>
<!-- Generator: Adobe Illustrator 18.0.0, SVG Export Plug-In . SVG Version: 6.00 Build 0)  -->
<!DOCTYPE svg PUBLIC "-//W3C//DTD SVG 1.1//EN" "http://www.w3.org/Graphics/SVG/1.1/DTD/svg11.dtd">
<svg version="1.1" id="Layer_1" xmlns="http://www.w3.org/2000/svg" xmlns:xlink="http://www.w3.org/1999/xlink" x="0px" y="0px"
	 viewBox="0 0 156.8 164.8" enable-background="new 0 0 156.8 164.8" xml:space="preserve">
<path d="M51.2,36.7l0,14h-5.3v-9.3H13.7v9.3H8.3l0.1-14h3.7c3.8-4.8,7.9-12.7,7.9-28.2V0.1h25.3v36.7H51.2z M25.5,4.7v5.1
	c0,10.9-1.5,19-6.8,26.9h21v-32H25.5z"/>
<path d="M82.2,0.1h5.5v41.3h-5.5V7.9l-22,33.5h-5.5V0.1h5.5v33.2L82.2,0.1z"/>
<path d="M12.2,86.8h-6l15.6-41.3h5.9l15.6,41.3h-6l-3.9-10.7H16.1L12.2,86.8z M32.1,71.4L24.8,51l-7.2,20.4H32.1z"/>
<path d="M44.8,81.9c5.4,0.9,9.7-3.1,9.7-18.7V45.4h25.9v41.3H75V50.1H60.1v14.3c0,19.1-7,23.8-15.3,22.4V81.9z"/>
<path d="M103.3,44.2c9.2,0,19.7,5.1,19.7,21.9c0,21.6-17.2,21.9-19.7,21.9c-2.7,0-19.7-0.3-19.7-21.9
	C83.5,51.6,91.7,44.2,103.3,44.2z M103.3,83.3c2.8,0,13.8-0.6,13.8-17.2c0-9.7-4.3-17.2-13.8-17.2c-12.6,0-13.8,12.8-13.8,17.2
	C89.4,72.8,91.5,83.3,103.3,83.3z"/>
<path d="M131.8,86.8h-5.5V45.4h23.2v4.7h-17.7V86.8z"/>
<path d="M35.9,90.3h5.5v41.3h-5.5V98.1l-22,33.5H8.3V90.3h5.5v33.2L35.9,90.3z"/>
<path d="M81.8,117.9c-0.8,5.9-4.2,14.9-17.5,14.9c-12.3,0-19.7-8-19.7-21.2c0-22,16-22.6,19.5-22.6c13.2,0,16.5,7.7,17.1,14h-5.6
	c-0.3-3-2.1-9.3-11.6-9.3c-10.3,0-13.6,8.7-13.6,17.7c0,9.6,5.3,16.8,14,16.8c6.6,0,11.4-4.4,11.7-10.3H81.8z"/>
<path d="M109.5,90.3h6.8l-19.7,19.1l21,22.2h-7.3l-19.4-21.5v21.5h-5.5V90.3h5.5v18.8L109.5,90.3z"/>
<path d="M143.4,90.3h5.8l-14,33.9c-3.3,7.9-7.2,8-10.5,8c-1.8,0-2.9-0.1-4.6-0.6v-4.8c1.4,0.5,2.5,0.6,3.9,0.6
	c2.3,0,4.8-0.4,6.5-6.1l-15.7-31.1h6.8l11.9,24.9L143.4,90.3z"/>
<rect x="0" y="0" width="4.5" height="164.8"/>
<rect x="152.2" y="45.4" width="4.5" height="119.4"/>
<path d="M122.7,164.8v-8.5h11.5c5.8,0,9.5,1.8,9.5,7.1c0,0.5,0,0.9-0.1,1.3h5.7c0-0.3,0-0.6,0-0.8c0-7.4-5.3-9.7-8.7-10.3v-0.2
	c3.9-0.6,6.9-4.4,6.9-8.9c0-4.8-2.3-10.5-12.3-10.5h-18.1v30.7H122.7z M122.7,138.8H134c6.9,0,7.9,4.1,7.9,6.4c0,3.4-2,6.4-8.1,6.4
	h-11.2V138.8z"/>
<polygon points="95.7,164.8 101.2,164.8 101.2,138.8 114.6,138.8 114.6,134.1 82.2,134.1 82.2,138.8 95.7,138.8 "/>
<g>
	<path d="M52.7,164.8c-1.4-2.7-2.1-5.9-2.1-9.5c0-9,3.2-17.7,13.6-17.7c9.4,0,11.3,6.3,11.6,9.3h5.6c-0.7-6.3-4-14-17.1-14
		c-3.5,0-19.5,0.7-19.5,22.6c0,3.5,0.5,6.6,1.5,9.3H52.7z"/>
</g>
<g>
	<path d="M14.3,164.8c-1.4-2.7-2.1-5.9-2.1-9.5c0-9,3.2-17.7,13.6-17.7c9.4,0,11.3,6.3,11.6,9.3h5.5c-0.6-6.3-4-14-17.1-14
		c-3.5,0-19.5,0.7-19.5,22.6c0,3.5,0.5,6.6,1.5,9.3H14.3z"/>
</g>
</svg>
