<svg xmlns="http://www.w3.org/2000/svg" xmlns:xlink="http://www.w3.org/1999/xlink" viewBox="0 0 120 50.4"><defs><path id="a" d="M0 0h120v50.4H0z"/></defs><clipPath id="b"><use xlink:href="#a" overflow="visible"/></clipPath><path clip-path="url(#b)" fill="#2E2B2B" d="M35.9 15.1c0-2.1.4-4 1.2-5.9.8-1.8 1.9-3.5 3.2-4.8 1.4-1.4 3-2.4 4.8-3.2C46.9.4 48.9 0 51 0c2.1 0 4 .4 5.9 1.2 1.8.8 3.5 1.9 4.8 3.2 1.4 1.4 2.4 3 3.2 4.8.8 1.8 1.2 3.8 1.2 5.9H56c0-1.4-.5-2.6-1.5-3.6S52.3 10 50.9 10s-2.6.5-3.6 1.5-1.5 2.2-1.5 3.6v6c.8-.3 1.6-.5 2.4-.7.8-.2 1.7-.3 2.6-.3 2.1 0 4 .4 5.9 1.2 1.8.8 3.5 1.9 4.8 3.2 1.4 1.4 2.4 3 3.2 4.8.8 1.8 1.2 3.8 1.2 5.9 0 2.1-.4 4-1.2 5.9-.6 1.9-1.7 3.5-3 4.9-1.4 1.4-3 2.4-4.8 3.2-1.9.8-3.9 1.2-5.9 1.2-2.1 0-4-.4-5.9-1.2-1.8-.8-3.5-1.9-4.8-3.2-1.4-1.4-2.4-3-3.2-4.8-.8-1.8-1.2-3.8-1.2-5.9V15.1zm10 20.2c0 1.4.5 2.6 1.5 3.6s2.2 1.5 3.6 1.5 2.6-.5 3.6-1.5 1.5-2.2 1.5-3.6-.5-2.6-1.5-3.6-2.2-1.5-3.6-1.5-2.6.5-3.6 1.5-1.5 2.2-1.5 3.6M6.4 15.1c-2.7 0-5-2.3-5-5 0-1 .4-1.9.7-2.6C4 4.2 8.4 0 15.1 0c8.3 0 15.1 6.8 15.1 15.1 0 3.9-1.5 7.4-3.9 10.1 2.4 2.7 3.9 6.3 3.9 10.1 0 8.3-6.8 15.1-15.1 15.1S0 43.5 0 35.3h10.1c0 2.7 2.3 5 5 5s5-2.3 5-5-2.3-5-5-5-5-2.3-5-5 2.3-5 5-5 5-2.3 5-5-2.3-5-5-5c-1.9 0-3.5 1.1-4.4 2.6-.8 1.3-2.5 2.2-4.3 2.2M99.9 25.2c0 2.8-2.3 5-5 5-2.8 0-5-2.3-5-5s2.3-5 5-5c2.7-.1 5 2.2 5 5"/><path clip-path="url(#b)" fill="#3D21DE" d="M99.2 27.7c-.9 1.5-2.5 2.5-4.3 2.5-2.8 0-5-2.3-5-5s2.2-5 5-5 5-2.2 5-5-2.3-5-5-5c-8.3 0-15.1 6.8-15.1 15.1s6.8 15.1 15.1 15.1c5.6 0 10.4-3 13-7.5l-8.7-5.2z"/><path clip-path="url(#b)" fill="#2E2B2B" d="M94.9 0C81 0 69.7 11.3 69.7 25.2 69.7 39 81 50.3 94.9 50.3V40.2c-8.3 0-15.1-6.8-15.1-15.1S86.6 10 94.9 10 110 16.8 110 25.1c0 2.7-.7 5.3-2 7.5l8.7 5c2.1-3.7 3.4-8 3.4-12.6-.1-13.7-11.4-25-25.2-25"/></svg>