<svg xmlns="http://www.w3.org/2000/svg" xmlns:xlink="http://www.w3.org/1999/xlink" viewBox="0 0 120 50.342"><defs><path id="a" d="M0 0h120v50.342H0z"/></defs><clipPath id="b"><use xlink:href="#a" overflow="visible"/></clipPath><path clip-path="url(#b)" fill="#282828" d="M99.114 27.69c-1.388 2.4-4.46 3.22-6.86 1.834-2.403-1.386-3.226-4.456-1.84-6.858 1.386-2.4 4.458-3.223 6.858-1.836 2.402 1.386 3.228 4.456 1.842 6.86M45.88 35.245c0 1.39.49 2.576 1.472 3.557.983.983 2.167 1.474 3.56 1.474 1.388 0 2.575-.49 3.558-1.474.98-.98 1.473-2.168 1.473-3.557 0-1.39-.492-2.577-1.473-3.56-.983-.98-2.17-1.474-3.56-1.474-1.39 0-2.575.494-3.558 1.475-.983.983-1.473 2.17-1.473 3.56m-10.066-20.13c0-2.06.396-4.016 1.185-5.86.79-1.845 1.87-3.45 3.235-4.817s2.97-2.445 4.817-3.236C46.896.412 48.85.017 50.912.017c2.058 0 4.014.394 5.858 1.185 1.845.79 3.45 1.87 4.817 3.236s2.445 2.972 3.236 4.817c.79 1.844 1.185 3.8 1.185 5.86H55.943c0-1.39-.492-2.577-1.473-3.56-.983-.98-2.17-1.475-3.56-1.475-1.39 0-2.575.494-3.558 1.474-.983.984-1.473 2.17-1.473 3.56v5.968c.812-.29 1.627-.515 2.444-.683.813-.17 1.676-.254 2.587-.254 2.06 0 4.016.395 5.86 1.187 1.845.79 3.45 1.87 4.817 3.236 1.366 1.365 2.445 2.97 3.236 4.816.79 1.844 1.185 3.797 1.185 5.86 0 2.06-.394 4.013-1.185 5.858-.79 1.844-1.87 3.45-3.236 4.817s-2.972 2.445-4.817 3.235c-1.844.79-3.8 1.187-5.86 1.187-2.06 0-4.014-.396-5.858-1.187-1.847-.79-3.45-1.868-4.817-3.234C38.87 44.556 37.79 42.95 37 41.105c-.79-1.845-1.186-3.798-1.186-5.86v-20.13zM114.768 30.875c2.406 1.39 3.23 4.466 1.838 6.872-1.39 2.41-4.468 3.23-6.874 1.843-2.404-1.392-3.227-4.466-1.838-6.877 1.387-2.404 4.468-3.225 6.874-1.838"/><path clip-path="url(#b)" fill="#282828" d="M107.9 32.696l8.72 5.034c2.135-3.698 3.376-7.974 3.38-12.55l-10.072-.003c-.002 2.743-.746 5.302-2.027 7.52"/><path clip-path="url(#b)" fill="#282828" d="M114.96 20.148c2.78-.002 5.03 2.25 5.03 5.03.002 2.782-2.258 5.033-5.034 5.033-2.777 0-5.03-2.25-5.032-5.034 0-2.777 2.256-5.03 5.036-5.028"/><path clip-path="url(#b)" fill="#282828" d="M109.922 25.156h10.067c.002-4.272-1.06-8.595-3.35-12.557l-8.72 5.033c1.368 2.374 2.002 4.966 2.002 7.523"/><path clip-path="url(#b)" fill="#282828" d="M109.76 10.76c2.408-1.39 5.48-.565 6.872 1.84 1.39 2.412.562 5.488-1.845 6.877-2.404 1.388-5.478.564-6.874-1.844-1.387-2.404-.56-5.483 1.847-6.872"/><path clip-path="url(#b)" fill="#282828" d="M107.905 17.618l8.714-5.036c-2.132-3.7-5.213-6.912-9.177-9.2l-5.038 8.722c2.375 1.372 4.22 3.297 5.5 5.514"/><path clip-path="url(#b)" fill="#282828" d="M100.565 5.232c1.39-2.406 4.464-3.232 6.872-1.84 2.408 1.39 3.232 4.467 1.84 6.874-1.39 2.406-4.46 3.23-6.874 1.84-2.402-1.39-3.227-4.47-1.838-6.874"/><path clip-path="url(#b)" fill="#282828" d="M102.388 12.097l5.027-8.72C103.72 1.243 99.445 0 94.87 0l-.003 10.07c2.742 0 5.304.746 7.52 2.027M94.848 10.076L94.844.008c-4.27-.002-8.59 1.06-12.553 3.35l5.03 8.722c2.382-1.37 4.97-2.004 7.528-2.004"/><path clip-path="url(#b)" fill="#282828" d="M80.45 10.238c-1.388-2.404-.563-5.483 1.843-6.87 2.41-1.394 5.485-.564 6.874 1.843 1.388 2.407.564 5.48-1.846 6.875-2.403 1.387-5.48.56-6.87-1.847"/><path clip-path="url(#b)" fill="#282828" d="M87.308 12.095l-5.034-8.717c-3.702 2.134-6.914 5.215-9.2 9.18l8.72 5.032c1.374-2.372 3.297-4.216 5.514-5.495"/><path clip-path="url(#b)" fill="#282828" d="M74.922 19.433c-2.406-1.387-3.232-4.464-1.84-6.87 1.39-2.41 4.47-3.232 6.874-1.844 2.408 1.39 3.23 4.464 1.838 6.877-1.385 2.402-4.468 3.227-6.872 1.836"/><path clip-path="url(#b)" fill="#282828" d="M81.787 17.612l-8.716-5.03c-2.138 3.698-3.38 7.972-3.376 12.547l10.066.003c.006-2.743.748-5.304 2.027-7.52M100.53 5.257c1.39-2.406 4.467-3.23 6.87-1.838 2.41 1.386 3.232 4.466 1.845 6.873-1.39 2.404-4.465 3.227-6.876 1.838-2.405-1.388-3.228-4.467-1.84-6.873"/><path clip-path="url(#b)" fill="#282828" d="M102.35 12.125l5.034-8.72C103.686 1.27 99.41.03 94.836.026L94.834 10.1c2.74 0 5.3.744 7.516 2.027M94.812 10.104V.036c-4.272-.002-8.593 1.06-12.555 3.35l5.032 8.72c2.373-1.37 4.965-2.002 7.522-2.002"/><path clip-path="url(#b)" fill="#282828" d="M80.42 10.265c-1.392-2.408-.567-5.483 1.84-6.872 2.408-1.39 5.484-.564 6.873 1.842 1.387 2.407.566 5.48-1.844 6.875-2.405 1.39-5.484.56-6.87-1.845"/><path clip-path="url(#b)" fill="#282828" d="M87.274 12.12L82.24 3.408c-3.7 2.13-6.914 5.212-9.2 9.176l8.72 5.038c1.372-2.374 3.297-4.218 5.514-5.5"/><path clip-path="url(#b)" fill="#282828" d="M74.89 19.46c-2.408-1.388-3.232-4.463-1.843-6.87 1.392-2.41 4.47-3.233 6.875-1.843 2.406 1.39 3.23 4.463 1.84 6.876-1.387 2.402-4.468 3.227-6.872 1.838"/><path clip-path="url(#b)" fill="#282828" d="M81.753 17.637l-8.717-5.03c-2.138 3.698-3.378 7.972-3.378 12.55h10.067c.005-2.74.75-5.303 2.028-7.52M79.734 25.177l-10.068.004c-.002 4.27 1.06 8.594 3.35 12.556l8.72-5.032c-1.37-2.378-2.004-4.968-2.002-7.527"/><path clip-path="url(#b)" fill="#282828" d="M79.896 39.574c-2.406 1.392-5.483.566-6.87-1.84-1.393-2.41-.564-5.487 1.84-6.874 2.407-1.39 5.48-.566 6.875 1.844 1.388 2.404.56 5.48-1.844 6.87"/><path clip-path="url(#b)" fill="#282828" d="M81.75 32.717l-8.715 5.036c2.134 3.7 5.214 6.912 9.178 9.2l5.036-8.722c-2.376-1.373-4.218-3.294-5.5-5.513"/><path clip-path="url(#b)" fill="#282828" d="M89.09 45.104c-1.388 2.41-4.464 3.232-6.87 1.84-2.41-1.39-3.232-4.47-1.843-6.873 1.39-2.408 4.464-3.23 6.876-1.838 2.402 1.387 3.228 4.468 1.836 6.872"/><path clip-path="url(#b)" fill="#282828" d="M87.268 38.238l-5.03 8.716c3.698 2.14 7.973 3.383 12.547 3.38l.004-10.07c-2.744-.003-5.305-.746-7.522-2.026M6.4 15.1c-2.732 0-5.034-2.3-5.034-5.033 0-1.006.36-1.942.72-2.59C4.025 4.17 8.41 0 15.095 0c8.27 0 15.1 6.83 15.1 15.1 0 3.884-1.51 7.407-3.882 10.066 2.372 2.732 3.883 6.255 3.883 10.068 0 8.268-6.83 15.1-15.1 15.1C6.83 50.333 0 43.5 0 35.233h10.064c0 2.732 2.302 5.03 5.033 5.03 2.734 0 5.034-2.298 5.034-5.03 0-2.734-2.3-5.034-5.033-5.034-2.73 0-5.033-2.302-5.033-5.034s2.302-5.034 5.033-5.034c2.734 0 5.034-2.3 5.034-5.03 0-2.735-2.3-5.035-5.033-5.035-1.867 0-3.522 1.08-4.384 2.587C9.85 14.164 8.197 15.1 6.4 15.1"/></svg>