<svg xmlns="http://www.w3.org/2000/svg" xmlns:xlink="http://www.w3.org/1999/xlink" viewBox="0 64.8 400 470.5"><defs><path id="a" d="M0 64.8h400v470.5H0z"/></defs><clipPath id="b"><use xlink:href="#a" overflow="visible"/></clipPath><path clip-path="url(#b)" d="M306.8 93.6c31.1-9.6 62.1-19.2 93.2-28.9v31.1c-10.3 3.2-20.7 6.4-31 9.6v186.8c-10.4 3.2-20.7 6.4-31.1 9.6V115c-10.3 3.2-20.7 6.4-31 9.6-.1-10.2-.1-20.6-.1-31"/><defs><path id="c" d="M0 64.8h400v470.5H0z"/></defs><clipPath id="d"><use xlink:href="#c" overflow="visible"/></clipPath><path clip-path="url(#d)" fill="#282828" d="M258.5 264.6c6.8-2.1 13.7-4.2 20.5-6.3-3.5-24-7.1-48-10.6-72l-9.9 78.3m-5.7-154.3l31.2-9.6c10.3 69.4 20.7 138.8 31 208.2-10.6 3.3-21.1 6.6-31.7 9.9-1.1-9.9-2.1-19.7-3.2-29.6-7.9 2.4-15.7 4.9-23.5 7.3-1 10.5-2.1 21-3.1 31.6-10.6 3.3-21.1 6.6-31.7 9.9 10.4-76 20.7-151.8 31-227.7"/><g><defs><path id="e" d="M0 64.8h400v470.5H0z"/></defs><clipPath id="f"><use xlink:href="#e" overflow="visible"/></clipPath><path clip-path="url(#f)" d="M117.4 152.4c31.1-9.6 62.1-19.3 93.2-28.9v31.2c-20.7 6.4-41.5 12.8-62.2 19.2V205c20.7-6.4 41.4-12.8 62.2-19.2v31.1c-20.7 6.4-41.4 12.9-62.2 19.3v31.1c20.7-6.4 41.4-12.8 62.2-19.2v31.1c-20.7 6.4-41.5 12.8-62.2 19.3v31.2c20.7-6.4 41.4-12.8 62.2-19.2v31.1c-31.1 9.6-62.1 19.2-93.2 28.9V152.4"/></g><g><defs><path id="g" d="M0 64.8h400v470.5H0z"/></defs><clipPath id="h"><use xlink:href="#g" overflow="visible"/></clipPath><path clip-path="url(#h)" fill="#282828" d="M31.6 334.4v31.1c5.4-1.7 10.8-3.3 16.3-5 5.3-1.7 9.5-5.8 12.3-10.5 2.5-4.3 3.6-9.8 1.8-14.6-1.9-5-7.9-7.6-13-6.2-5.8 1.6-11.6 3.5-17.4 5.2m16.6-67.3c-5.6 1.6-11.1 3.4-16.6 5.1v31.1c4.8-1.5 9.6-3 14.4-4.4 8.7-2.2 15.7-10.2 16.8-19.1.3-3.5-.4-7.5-3.1-10-2.9-3-7.5-3.8-11.5-2.7m-.3-62.1c-5.4 1.6-10.8 3.3-16.2 5v31.1c5.4-1.7 10.8-3.3 16.2-5 3.6-1.1 6.7-3.4 9.2-6.2 3.4-3.8 5.9-8.6 5.9-13.8.1-3.3-1-6.9-3.6-9-3.2-2.8-7.7-3.3-11.5-2.1m-6.3-29.2c6.8-2.2 13.7-4.4 20.9-4.1 11.4.2 22.7 6.7 27.9 17 3.8 7.6 4.3 16.5 3.3 24.9-1.3 9.9-5.6 19.3-11.3 27.4 6.6 5.3 10.6 13.4 11.5 21.7 1.8 14.4-3.2 28.9-11.6 40.5 6.3 5.1 10.3 12.7 11.4 20.7 1.7 12.4-1.4 25.2-7.8 35.9-5.3 8.8-12.1 16.8-20.4 22.8-5.8 4.2-12.4 7.4-19.3 9.5-15.3 4.7-30.5 9.4-45.8 14.1 0-72.6 0-145.2.1-217.8 13.6-4.2 27.4-8.4 41.1-12.6"/></g><g><defs><path id="i" d="M0 64.8h400v470.5H0z"/></defs><clipPath id="j"><use xlink:href="#i" overflow="visible"/></clipPath><path clip-path="url(#j)" d="M362.8 397c-6 6.7-15.4 9.7-24.2 8.8V387c2.4 2.7 6.2 4.5 9.9 3.6 2.8-.7 5.7-3.1 5.4-6.2-.1-2.1-2.2-3.1-3.9-3.8-3.9-1.7-8.1-3.9-10.1-7.9-2.3-4.7-1.6-10.3 0-15.1 2.4-7.1 7.6-13.5 14.6-16.4 4.4-1.9 9.4-2.4 14.1-1.4V358c-2.4-2.7-6.4-4.7-10-3.3-2.2.9-4.4 3.1-3.8 5.7.9 2.5 3.8 3.2 6 4.2 3.9 1.5 7.8 4.3 8.9 8.6 2 8.5-1.2 17.6-6.9 23.8m-81.4 27.6c-.6-12.5-.9-25.1-1.6-37.6-1.9 13.5-4.5 26.8-6.9 40.2-4.5 1.4-8.9 2.7-13.4 4.1-1.9-11.7-3.7-23.4-5.6-35.2 0-.4-.2-.7-.6-.9.6 12.8-.9 25.6-1.4 38.4l-17.7 5.4c2.4-20.8 4.7-41.6 7.1-62.4 6.8-2.1 13.7-4.2 20.5-6.2 1.6 10.3 3.1 20.5 4.8 30.8 1.3-11.4 3.7-22.6 5.6-33.9 6.8-2.1 13.5-4.1 20.3-6.2 2 19.5 3.9 38.9 5.9 58.4-5.6 1.7-11.3 3.4-17 5.1m-85.6 26.1c-9.6 2.9-19.2 5.8-28.8 8.8v-60.2c5.5-1.7 11-3.3 16.5-5v46c4.1-1.2 8.2-2.5 12.3-3.7v14.1zm-74 22.5c-5.5 1.7-11 3.3-16.5 5V418c5.5-1.7 11-3.3 16.5-5v60.2M60 445.9c-4.2 1.3-8.4 2.5-12.6 3.8v8.7c3.9-1.2 7.8-2.4 11.8-3.6V469c-3.9 1.2-7.9 2.4-11.8 3.6v23.1c-5.5 1.7-11 3.3-16.5 5v-60.2c9.7-2.9 19.4-5.9 29-8.8.1 4.8.1 9.5.1 14.2m339.3-142.5L0 424.9v110.3l399.3-121.5V303.4"/></g></svg>