<svg xmlns="http://www.w3.org/2000/svg" xmlns:xlink="http://www.w3.org/1999/xlink" viewBox="0 0 160 26.119"><defs><path id="a" d="M0 0h160v26.12H0z"/></defs><clipPath id="b"><use xlink:href="#a" overflow="visible"/></clipPath><path clip-path="url(#b)" fill="#C8C8C8" d="M149.348 23.493c6.128 0 10.652-5.18 10.652-10.433 0-5.764-4.524-10.433-10.506-10.433h-26.34c-5.544 0-10.067 4.23-10.432 9.63h-5.253L95.21 0 82.955 12.257h-5.91v-9.63H56.18v9.63h-6.276c-.438-5.69-5.18-10.14-10.944-10.14s-10.58 4.45-10.944 10.14h-6.2V6.785L10.943.51 0 6.786v12.55l10.944 6.274 10.87-6.275v-5.472h6.202c.438 5.617 5.18 10.14 10.944 10.14s10.506-4.523 10.944-10.14h6.275v9.63h20.865v-9.63h5.91L95.212 26.12l12.257-12.257h5.252c.365 5.4 4.888 9.63 10.433 9.63h26.193zm-24.37-14.665h6.64v1.46h-2.553v7.004h-1.532v-7.004h-2.554v-1.46zm13.426 0v1.46h-3.648v2.042h3.575v1.46h-3.574v2.042h3.794v1.46h-5.326V8.828h5.18zm7.952 0l-2.188 3.867 2.626 4.597h-1.75l-1.752-3.065-1.75 3.065h-1.68l2.628-4.597-2.262-3.867h1.75l1.314 2.408 1.386-2.408h1.678zm-138.33.146h6.128v8.39H12.55v-6.93H9.557v6.93H8.025v-8.39zm56.25-.146h5.18v8.464h-1.604v-6.93h-2.116l-.073 4.157C65.59 17 64.35 17.29 62.745 17.29V15.76c.73 0 1.386-.073 1.386-1.168l.147-5.764zm29.112.146v5.545l3.064-5.546h1.678v8.39h-1.605V11.82l-3.064 5.545h-1.677v-8.39h1.605zM36.553 13.06c0 1.97 1.167 2.845 2.407 2.845s2.408-.875 2.408-2.845-1.167-2.845-2.408-2.845c-1.24 0-2.407.875-2.407 2.845m6.347 0c0 2.918-1.824 4.305-3.94 4.305s-3.94-1.387-3.94-4.305 1.824-4.305 3.94-4.305 3.94 1.387 3.94 4.305"/></svg>