<svg xmlns="http://www.w3.org/2000/svg" xmlns:xlink="http://www.w3.org/1999/xlink" viewBox="0 0 401.4 90"><defs><path id="a" d="M-199.3-255h800v600h-800z"/></defs><clipPath id="b"><use xlink:href="#a" overflow="visible"/></clipPath><path clip-path="url(#b)" fill="#C8C8C8" d="M59.6 32.3c0-6.1-5.1-8.7-10.8-8.7H2.6v8.6h35.1c2.7 0 4.9 1 4.9 4.2V38H9.2C3.4 38 0 42.2 0 46.8v10.3c0 4.2 3.2 9.2 9.2 9.2h50.4v-34zM16.8 51c0-2.3 1.3-4.2 4.9-4.2h21V57H21.8c-4.1 0-5-2.5-5-3.8V51zM401.5 32.3c0-6.1-5.1-8.7-10.8-8.7h-46.2v8.6h35.1c2.7 0 4.9 1 4.9 4.2V38H351c-5.8 0-9.2 4.2-9.2 8.9v10.3c0 4.2 3.2 9.2 9.2 9.2h50.4l.1-34.1zM358.7 51c0-2.3 1.3-4.2 4.9-4.2h21V57h-20.9c-4.1 0-5-2.5-5-3.8V51zM213.7 44.7v21.6h17.6V23.7h-17.6l-25.3 27.9s.1-2.2.1-5V23.7h-17.6v42.6h17.6l25.3-28.1s-.1 4.3-.1 6.5"/><path fill="#C8C8C8" d="M333.8 23.7h-17.5V57h-20.6V23.7h-17.5V57h-20.6V23.7H240v42.6h93.8"/><g><defs><path id="c" d="M-199.3-255h800v600h-800z"/></defs><clipPath id="d"><use xlink:href="#c" overflow="visible"/></clipPath><path clip-path="url(#d)" fill="#C8C8C8" d="M146 52.7c0 3.1-2.2 4.6-4.9 4.6h-16.9V32.1H141c2.7 0 4.9 1.4 4.9 4.6v16zm-39.4 4.6H89.7c-2.7 0-4.9-1.4-4.9-4.6v-16c0-3.2 2.2-4.6 4.9-4.6h16.9v25.2zm45.5-33.8h-28V0h-17.6v23.5h-28c-5.7 0-10.8 2.6-10.8 8.7v25c0 6.1 5.1 9.3 10.8 9.3h28V90h17.6V66.5h28c5.7 0 10.8-3.2 10.8-9.3v-25c0-6.1-5.1-8.7-10.8-8.7"/></g></svg>