<svg xmlns="http://www.w3.org/2000/svg" xmlns:xlink="http://www.w3.org/1999/xlink" viewBox="0 0 60 70.571"><defs><path id="a" d="M0 0h60v70.57H0z"/></defs><clipPath id="b"><use xlink:href="#a" overflow="visible"/></clipPath><path clip-path="url(#b)" fill="#C8C8C8" d="M46.023 4.33L60 0c-.002 1.555.002 3.11-.003 4.665-1.55.478-3.1.96-4.652 1.438v28.023c-1.555.483-3.11.965-4.667 1.445 0-9.338.002-18.678-.002-28.018-1.55.48-3.102.962-4.653 1.44v-4.66M38.78 29.977c1.025-.316 2.05-.63 3.078-.948-.53-3.6-1.06-7.2-1.588-10.8-.498 3.916-.994 7.832-1.49 11.747m-.854-23.14c1.56-.48 3.12-.964 4.68-1.444l4.65 31.23c-1.582.495-3.164.988-4.747 1.48l-.483-4.444c-1.178.365-2.355.73-3.532 1.1l-.47 4.732-4.75 1.478c1.55-11.378 3.102-22.755 4.65-34.133M17.605 13.142l13.98-4.332v4.674c-3.108.963-6.218 1.922-9.326 2.884 0 1.554-.002 3.108 0 4.662 3.108-.96 6.216-1.925 9.324-2.887.002 1.556 0 3.11 0 4.666-3.107.965-6.216 1.928-9.324 2.894-.002 1.555 0 3.11 0 4.666 3.108-.962 6.216-1.926 9.325-2.887v4.662c-3.11.96-6.218 1.925-9.326 2.89v4.672c3.108-.96 6.216-1.924 9.325-2.884v4.66c-4.66 1.445-9.32 2.887-13.98 4.33v-32.67M4.745 40.45v4.663c.812-.252 1.626-.5 2.44-.753.79-.257 1.42-.873 1.84-1.576.38-.65.538-1.47.276-2.19-.288-.755-1.19-1.133-1.952-.935-.873.243-1.735.53-2.603.79m2.49-10.094c-.834.242-1.66.506-2.49.758v4.663c.718-.22 1.438-.444 2.157-.664 1.304-.334 2.36-1.53 2.517-2.868.05-.53-.06-1.12-.46-1.5-.443-.446-1.135-.564-1.726-.39M7.18 21.03c-.813.24-1.622.5-2.435.746-.002 1.553 0 3.106 0 4.66.81-.25 1.62-.502 2.43-.745.538-.166 1.007-.51 1.378-.926.51-.566.886-1.295.885-2.072.015-.5-.153-1.028-.546-1.356-.46-.412-1.136-.474-1.71-.306m-.943-4.374c1.014-.324 2.054-.657 3.134-.613 1.712.023 3.41 1.005 4.188 2.547.576 1.147.65 2.48.488 3.734-.2 1.488-.837 2.89-1.695 4.11.993.794 1.592 2.007 1.72 3.263.264 2.16-.48 4.334-1.733 6.077.948.762 1.548 1.903 1.704 3.103.26 1.864-.21 3.785-1.17 5.392-.79 1.32-1.817 2.516-3.064 3.425-.874.637-1.86 1.116-2.895 1.426-2.29.705-4.582 1.41-6.872 2.112C.038 40.34.05 29.448.055 18.556l6.184-1.9M54.416 49.835c-.9 1.008-2.305 1.45-3.63 1.326-.003-.94.003-1.88 0-2.82.364.407.93.682 1.48.544.418-.1.852-.462.804-.928-.016-.313-.325-.47-.58-.574-.586-.26-1.217-.58-1.52-1.18-.35-.705-.238-1.54.002-2.262.354-1.07 1.136-2.025 2.194-2.456.665-.28 1.414-.357 2.122-.214.002.912-.004 1.824.004 2.735-.366-.41-.96-.698-1.507-.5-.33.133-.663.47-.574.857.14.378.577.475.903.63.588.228 1.168.643 1.334 1.285.31 1.26-.165 2.622-1.03 3.558M42.213 53.98c-.085-1.882-.14-3.765-.242-5.644-.29 2.02-.673 4.022-1.03 6.03l-2.008.61c-.28-1.758-.56-3.516-.836-5.275-.002-.063-.03-.11-.086-.138.094 1.92-.132 3.838-.204 5.756-.884.27-1.767.538-2.65.806.353-3.118.707-6.236 1.062-9.353l3.076-.933c.243 1.54.458 3.082.717 4.618.194-1.71.554-3.396.843-5.092 1.013-.31 2.027-.617 3.04-.925l.885 8.76c-.855.26-1.71.522-2.566.78M29.37 57.886l-4.322 1.313v-9.03l2.468-.75c.002 2.3 0 4.598 0 6.897.62-.186 1.236-.375 1.853-.562v2.132zM18.267 61.26l-2.47.75v-9.03l2.47-.75v9.03m-9.262-4.083c-.63.192-1.26.38-1.888.574v1.306c.59-.18 1.178-.36 1.768-.537v2.13c-.59.18-1.18.358-1.767.538v3.46c-.824.252-1.647.5-2.47.752-.002-3.01 0-6.02 0-9.03 1.45-.443 2.904-.884 4.356-1.325v2.132M59.89 35.8C39.93 41.875 19.965 47.945 0 54.02v16.55c19.964-6.076 39.928-12.147 59.89-18.223 0-5.517-.002-11.034 0-16.55"/></svg>