<svg xmlns="http://www.w3.org/2000/svg" xmlns:xlink="http://www.w3.org/1999/xlink" viewBox="0 0 543.4 580.4"><defs><path id="a" d="M0 0h543.4v580.4H0z"/></defs><clipPath id="b"><use xlink:href="#a" overflow="visible"/></clipPath><path clip-path="url(#b)" fill="#FF3B29" d="M523.4 420.3h20v-20h-20v20zm-21.7-100.1h-20l-20 50-20-50h-20v100.1h20v-50.1l20 50.1 20-50.1v50.1h20V320.2zM377.8 420.3h20V320.2h-20l-10 50h10v50.1zm-20-100.1h-20v100.1h20l10-50.1h-10v-50zm-100.7 0v20h.7c5.1.4 9.3 4.9 9.3 10v70.1h20v-70.1c0-3.4-.7-6.9-1.9-10h31.9v-20h-60zm-82 100.1h10c16.4 0 30-13.6 30-30v-7.4l25-62.6h-20l-15 37.6-15-37.6h-20l25 62.6v7.4c0 5.4-4.6 10-10 10h-10v20zm-45.9-80.1c5.4 0 10 4.6 10 10s-4.6 10-10 10h-10v-20h10zm-30.1 80.1h20v-40h10c16.4 0 30-13.6 30-30s-13.6-30-30-30h-30v100zM41 340.2h9v60.1H29l12-60.1zm-16-20L9 400.3H0v35h20v-15h40v15h20v-35H70v-80.1H25zM426.3 180.1h25v80.1h20v-80.1h25v-20h-70.1v20zm-33.4-20l-6 30h20l6-30h-20zm-8 70.1l-12 30 8-40h22v-20h-26l16-40h-20l-24 60.1h12l-8 40h40l12-30h-20zm-71.8 30h20V160.1h-20v40h-20v-40h-20v100.1h20v-40h20v40zm-88.2-40h-4l2-10 2 10zm-12.1 40l4-20h12l4 20h20l-20-100.1h-20l-20 100.1h20zm-98.4-80.1h25v80.1h20v-80.1h25v-20h-70.1v20zm-27.3 50.1c0 5.4-4.6 10-10 10s-10-4.6-10-10v-40c0-5.4 4.6-10 10-10s10 4.6 10 10h20c0-16.4-13.6-30-30-30s-30 13.6-30 30v40c0 16.4 13.6 30 30 30s30-13.6 30-30h-20zM366.9 30c0-5.4 4.6-10 10-10s10 4.6 10 10-4.6 10-10 10-10-4.5-10-10m0 40.1c0-5.4 4.6-10 10-10 16.4 0 30-13.6 30-30s-13.6-30-30-30-30 13.6-30 30c0 7.7 2.9 14.7 7.7 20-4.9 5.4-7.7 12.4-7.7 20v30h20v-30zm-90.8 10h13l17-42.5v62.5h20V0h-20v20h-13l-17 42.6V0h-20v100.1h20v-20zM234.1 0h-20l-20 50.1-20-50.1h-20v100.1h20v-50l20 50 20-50v50h20V0zM444.6 480.3h-20v100.1h20l20-50v50h20V480.3h-20l-20 50.1v-50.1zm-73.5 30c0-5.4 4.6-10 10-10s10 4.6 10 10-4.6 10-10 10c-5.5 0-10-4.5-10-10m0 40.1c0-5.4 4.6-10 10-10 16.4 0 30-13.6 30-30s-13.6-30-30-30-30 13.6-30 30c0 7.7 2.9 14.7 7.7 20-4.9 5.4-7.7 12.4-7.7 20v30h20v-30zm-103.6-50.1h25v80.1h20v-80.1h25v-20h-70.1v20zm-32.1 50.1c0 5.4-4.6 10-10 10s-10-4.6-10-10v-40c0-5.4 4.6-10 10-10s10 4.6 10 10v40zm-40.1-40.1v50l20 20h20l20-20v-50c0-16.4-13.6-30-30-30s-30 13.6-30 30m-38.9 70.1h20V480.3h-30l-10 50.1-10-50.1h-30v100.1h20v-50l10 50h20l10-50v50zm-99.3-30c0 5.4-4.6 10-10 10s-10-4.6-10-10v-40c0-5.4 4.6-10 10-10s10 4.6 10 10h20c0-16.4-13.6-30-30-30s-30 13.6-30 30v40c0 16.4 13.6 30 30 30s30-13.6 30-30h-20z"/><path fill="#FF3B29" d="M506.3 580.4h20v-20h-20v20zm0-100.1v20l10 50.1 10-50.1v-20h-20z"/></svg>