<svg xmlns="http://www.w3.org/2000/svg" xmlns:xlink="http://www.w3.org/1999/xlink" viewBox="0 86.4 400 427.2"><defs><path id="a" d="M0 86.4h400v427.2H0z"/></defs><clipPath id="b"><use xlink:href="#a" overflow="visible"/></clipPath><path clip-path="url(#b)" fill="#FF3B29" d="M385.3 395.8H400V381h-14.7v14.8zm-16-73.7h-14.7l-14.7 36.8-14.7-36.8h-14.7v73.7h14.7v-36.9l14.7 36.9 14.7-36.9v36.9h14.7v-73.7zm-91.2 73.7h14.7v-73.7h-14.7l-7.4 36.8h7.4v36.9zm-14.7-73.7h-14.7v73.7h14.7l7.4-36.9h-7.4v-36.8zm-74.1 0v14.7h.5c3.8.3 6.8 3.6 6.8 7.4v51.6h14.7v-51.6c0-2.5-.5-5.1-1.4-7.4h23.5v-14.7h-44.1zm-60.4 73.7h7.4c12.1 0 22.1-10 22.1-22.1v-5.4l18.4-46.1H162l-11 27.7-11-27.7h-14.7l18.4 46.1v5.4c0 4-3.4 7.4-7.4 7.4h-7.4v14.7zm-33.8-59c4 0 7.4 3.4 7.4 7.4s-3.4 7.4-7.4 7.4h-7.4v-14.7h7.4zm-22.2 59h14.7v-29.4H95c12.1 0 22.1-10 22.1-22.1 0-12.1-10-22.1-22.1-22.1H72.9v73.6zm-42.7-59h6.6V381H21.3l8.9-44.2zm-11.8-14.7L6.6 381H0v25.8h14.7v-11h29.4v11h14.7V381h-7.4v-59l-33 .1z"/><defs><path id="c" d="M0 86.4h400v427.2H0z"/></defs><clipPath id="d"><use xlink:href="#c" overflow="visible"/></clipPath><path clip-path="url(#d)" fill="#FF3B29" d="M313.8 219h18.4v59h14.7v-59h18.4v-14.7h-51.6l.1 14.7zm-24.6-14.8l-4.4 22.1h14.7l4.4-22.1h-14.7zm-5.9 51.6l-8.8 22.1 5.9-29.4h16.2v-14.7h-19.1l11.8-29.4h-14.7l-17.7 44.2h8.8l-5.9 29.4h29.4l8.8-22.1-14.7-.1zm-52.8 22.1h14.7v-73.7h-14.7v29.4h-14.7v-29.4H201v73.7h14.7v-29.4h14.7v29.4zm-64.9-29.4h-2.9l1.5-7.4 1.4 7.4zm-9 29.4l2.9-14.7h8.8l2.9 14.7h14.7l-14.7-73.7h-14.7l-14.7 73.7h14.8zM84.2 219h18.4v59h14.7v-59h18.4v-14.7H84.1l.1 14.7zm-20.1 36.8c0 4-3.4 7.4-7.4 7.4s-7.4-3.4-7.4-7.4v-29.4c0-4 3.4-7.4 7.4-7.4s7.4 3.4 7.4 7.4h14.7c0-12.1-10-22.1-22.1-22.1s-22.1 10-22.1 22.1v29.4c0 12.1 10 22.1 22.1 22.1s22.1-10 22.1-22.1H64.1z"/><g><defs><path id="e" d="M0 86.4h400v427.2H0z"/></defs><clipPath id="f"><use xlink:href="#e" overflow="visible"/></clipPath><path clip-path="url(#f)" fill="#FF3B29" d="M270.1 108.5c0-4 3.4-7.4 7.4-7.4s7.4 3.4 7.4 7.4-3.4 7.4-7.4 7.4c-4-.1-7.4-3.4-7.4-7.4m0 29.5c0-4 3.4-7.4 7.4-7.4 12.1 0 22.1-10 22.1-22.1s-10-22.1-22.1-22.1c-12.1 0-22.1 10-22.1 22.1 0 5.7 2.1 10.8 5.7 14.7-3.6 4-5.7 9.1-5.7 14.7V160h14.7v-22zm-66.9 7.3h9.6l12.5-31.3v46H240V86.4h-14.7v14.7h-9.6l-12.5 31.4V86.4h-14.7v73.7h14.7v-14.8zm-30.9-58.9h-14.7l-14.7 36.9-14.7-36.9h-14.7v73.7h14.7v-36.8l14.7 36.8 14.7-36.8v36.8h14.7V86.4z"/></g><g><defs><path id="g" d="M0 86.4h400v427.2H0z"/></defs><clipPath id="h"><use xlink:href="#g" overflow="visible"/></clipPath><path clip-path="url(#h)" fill="#FF3B29" d="M327.3 439.9h-14.7v73.7h14.7l14.7-36.8v36.8h14.7v-73.7H342l-14.7 36.9v-36.9zM273.2 462c0-4 3.4-7.4 7.4-7.4s7.4 3.4 7.4 7.4-3.4 7.4-7.4 7.4c-4.1 0-7.4-3.3-7.4-7.4m0 29.5c0-4 3.4-7.4 7.4-7.4 12.1 0 22.1-10 22.1-22.1s-10-22.1-22.1-22.1c-12.1 0-22.1 10-22.1 22.1 0 5.7 2.1 10.8 5.7 14.7-3.6 4-5.7 9.1-5.7 14.7v22.1h14.7v-22zm-76.3-36.8h18.4v59H230v-59h18.4V440h-51.6l.1 14.7zm-23.6 36.8c0 4-3.4 7.4-7.4 7.4s-7.4-3.4-7.4-7.4v-29.4c0-4 3.4-7.4 7.4-7.4s7.4 3.4 7.4 7.4v29.4zM143.8 462v36.8l14.7 14.7h14.7l14.7-14.7V462c0-12.1-10-22.1-22.1-22.1s-22 10-22 22.1m-28.7 51.6h14.7v-73.7h-22.1l-7.4 36.9-7.3-36.9H71v73.7h14.7v-36.8l7.4 36.8h14.7l7.4-36.8v36.8zM42 491.5c0 4-3.4 7.4-7.4 7.4s-7.4-3.4-7.4-7.4v-29.4c0-4 3.4-7.4 7.4-7.4s7.4 3.4 7.4 7.4h14.7c0-12.1-10-22.1-22.1-22.1s-22.1 10-22.1 22.1v29.4c0 12.1 10 22.1 22.1 22.1s22.1-10 22.1-22.1H42z"/></g><path fill="#FF3B29" d="M372.7 498.9h14.7v14.7h-14.7z"/></svg>