<?xml version="1.0" encoding="UTF-8" standalone="no"?>
<svg width="92px" height="29px" viewBox="0 0 92 29" version="1.1" xmlns="http://www.w3.org/2000/svg" xmlns:xlink="http://www.w3.org/1999/xlink">
    <!-- Generator: Sketch 3.8.3 (29802) - http://www.bohemiancoding.com/sketch -->
    <title>Group 320</title>
    <desc>Created with Sketch.</desc>
    <defs>
        <polygon id="path-1" points="0.0910749172 28.7952203 96.7370555 28.7952203 96.7370555 0.486508475 0.0910749172 0.486508475"></polygon>
    </defs>
    <g id="V2" stroke="none" stroke-width="1" fill="none" fill-rule="evenodd">
        <g id="Desktop-1240-Copy-3" transform="translate(-543.000000, -2224.000000)">
            <g id="Group-11" transform="translate(-7.000000, 1523.000000)">
                <g id="partners">
                    <g id="Group-14" transform="translate(0.000000, 59.000000)">
                        <g id="Group-57" transform="translate(526.000000, 597.000000)">
                            <g id="Group-320" transform="translate(24.000000, 45.000000)">
                                <mask id="mask-2" fill="white">
                                    <use xlink:href="#path-1"></use>
                                </mask>
                                <g id="Clip-234"></g>
                                <path d="M89.1891336,7.1877661 L89.1983148,7.17718983 L89.1825755,7.18115593 C89.1786407,7.1758678 89.1747059,7.16925763 89.1720826,7.16000339 C89.7334517,6.56641017 90.08234,5.75996949 90.08234,4.87156271 C90.08234,3.03790169 88.6080904,1.55193559 86.7875757,1.55193559 C85.9009274,1.55193559 85.0982221,1.90624068 84.5040628,2.47868136 C82.4264726,1.21613898 79.9947477,0.487698305 77.3885787,0.487698305 C72.0988557,0.487698305 67.5055976,3.49135932 65.1919176,7.89902034 L66.3461344,7.89902034 C68.5627552,4.07569831 72.6746525,1.50698644 77.3833322,1.50698644 C79.7206212,1.50698644 81.9136331,2.14420678 83.7997282,3.25074915 L73.5783517,14.3571559 L83.5085508,5.3118 L83.5216669,5.28007119 C83.5859358,5.81813898 83.7170968,6.2438339 84.0095858,6.67349492 L84.0200787,6.69861356 L72.067377,19.6558678 L84.9670611,7.63990169 C85.3671021,7.90695254 85.8301004,8.08542712 86.325889,8.15681695 L70.4947567,25.1885797 L88.4297114,7.91752881 C89.5301522,9.81861356 90.1636598,12.0264102 90.1636598,14.3875627 C90.1636598,21.5014271 84.4424171,27.2654949 77.3833322,27.2654949 C72.2510024,27.2654949 67.8256304,24.2142407 65.7939466,19.8131898 L64.6869477,19.8131898 C66.7842121,24.7959356 71.6830753,28.2900712 77.3885787,28.2900712 C85.007721,28.2900712 91.1801575,22.0672576 91.1801575,14.3875627 C91.1801575,11.7527492 90.452214,9.28847797 89.1891336,7.1877661" id="Fill-283" fill="#221F20" mask="url(#mask-2)"></path>
                                <path d="M5.3196769,14.5524203 L7.34742591,14.5524203 C6.82278192,15.6007932 6.02925789,16.4640814 4.73732207,16.4640814 C3.73787527,16.4640814 3.54506861,15.7607593 3.7942745,14.8445898 L0.803803774,14.8445898 C0.0902879512,17.3141492 1.24712794,18.8014373 3.74836815,18.8014373 C6.83720963,18.8014373 9.47485728,16.9162169 10.7431841,13.8887593 L5.58593372,13.8887593 L5.3196769,14.5524203 Z" id="Fill-284" fill="#221F20" mask="url(#mask-2)"></path>
                                <path d="M8.08481303,8.73824746 C5.18746661,8.73824746 2.98789669,10.1845525 1.7523601,12.6408915 L4.70348253,12.6408915 C5.19402466,11.6454 6.04263631,11.0742814 7.01716252,11.0742814 C7.87233222,11.0742814 8.2251553,11.6718407 7.97857262,12.814078 L6.01640411,12.814078 L5.77244466,13.4235356 L10.9205138,13.4235356 C11.9356999,10.5282814 10.6345828,8.73824746 8.08481303,8.73824746" id="Fill-285" fill="#221F20" mask="url(#mask-2)"></path>
                                <polygon id="Fill-286" fill="#221F20" mask="url(#mask-2)" points="10.3162551 18.5482678 13.4247707 18.5482678 15.0262465 14.5517593 17.9629412 14.5517593 16.3614654 18.5482678 19.469981 18.5482678 21.3377136 13.8894203 12.1839877 13.8894203"></polygon>
                                <polygon id="Fill-287" fill="#221F20" mask="url(#mask-2)" points="23.3006691 8.98996271 20.1921535 8.98996271 18.8569345 12.3214881 15.9202398 12.3214881 17.2554588 8.98996271 14.1469431 8.98996271 12.3697116 13.4240644 21.5234376 13.4240644"></polygon>
                                <polygon id="Fill-288" fill="#221F20" mask="url(#mask-2)" points="30.7224141 12.5880102 26.8111932 12.5880102 27.3581346 11.2197051 31.9815597 11.2197051 32.8760777 8.9894339 25.1441369 8.9894339 23.3669054 13.4235356 30.3879536 13.4235356"></polygon>
                                <polygon id="Fill-289" fill="#221F20" mask="url(#mask-2)" points="21.3133177 18.5482678 29.2288839 18.5482678 30.1220902 16.3179966 25.3150397 16.3179966 25.9170687 14.8188102 29.8282896 14.8188102 30.2007868 13.8894203 23.1810503 13.8894203"></polygon>
                                <path d="M38.925354,12.2292102 C38.5961399,13.0528373 37.9521394,13.3450068 37.2281307,13.3450068 L35.9361949,13.3450068 L36.7887414,11.2204983 L37.6701433,11.2204983 C38.3285715,11.2204983 39.2821119,11.3394814 38.925354,12.2292102 M41.8935274,12.2159898 C42.681805,10.2514475 41.87123,8.99022712 39.1443929,8.99022712 L34.5747438,8.99022712 L32.7975123,13.4243288 L41.2377224,13.4243288 C41.4974212,13.0581254 41.7177717,12.6562271 41.8935274,12.2159898" id="Fill-290" fill="#221F20" mask="url(#mask-2)"></path>
                                <path d="M30.7427441,18.5482678 L33.8512597,18.5482678 L35.0435132,15.5750136 L36.6108871,15.5750136 C38.494359,15.5750136 39.9043397,14.9523356 40.8670614,13.8894203 L32.6104767,13.8894203 L30.7427441,18.5482678 Z" id="Fill-291" fill="#221F20" mask="url(#mask-2)"></path>
                                <polygon id="Fill-292" fill="#221F20" mask="url(#mask-2)" points="46.8363296 11.2203661 51.1043084 11.2203661 51.9975148 8.99009492 44.6223319 8.99009492 42.8451004 13.4241966 45.953616 13.4241966"></polygon>
                                <polygon id="Fill-293" fill="#221F20" mask="url(#mask-2)" points="40.7912504 18.5482678 43.899766 18.5482678 45.7674986 13.8894203 42.658983 13.8894203"></polygon>
                                <polygon id="Fill-294" fill="#221F20" mask="url(#mask-2)" points="56.9188065 15.5081186 55.7003209 18.5487966 58.6763639 18.5487966 60.5440965 13.8886271 57.6729823 13.8886271"></polygon>
                                <polygon id="Fill-295" fill="#221F20" mask="url(#mask-2)" points="55.1124573 12.0306407 56.330943 8.98996271 53.3548999 8.98996271 51.5776684 13.4240644 54.4632104 13.4240644"></polygon>
                                <polygon id="Fill-296" fill="#221F20" mask="url(#mask-2)" points="58.0557101 13.0657932 57.8891356 13.4227424 60.7313944 13.4227424 62.5086259 8.98996271 59.5968518 8.98996271 55.0508116 13.4227424 57.6884593 13.4227424"></polygon>
                                <polygon id="Fill-297" fill="#221F20" mask="url(#mask-2)" points="53.9747668 14.4725695 54.2462701 13.8895525 51.3908952 13.8895525 49.5231626 18.5484 52.4336251 18.5484 57.2105086 13.8895525 54.572861 13.8895525"></polygon>
                                <path d="M63.5331245,14.7787525 L60.0730974,18.5478712 L63.4045867,18.5478712 L66.1891346,15.2163458 L67.0980803,15.2163458 L65.7628614,18.5478712 L68.871377,18.5478712 L70.737798,13.8890237 L62.8235435,13.8890237 C62.9665089,14.2935661 63.2091568,14.6201085 63.5331245,14.7787525" id="Fill-298" fill="#221F20" mask="url(#mask-2)"></path>
                                <path d="M66.87209,13.1185424 C65.9106798,13.1185424 65.4922763,12.8792542 65.7585331,12.2155932 C66.0300364,11.5387119 66.6845297,11.2201017 67.4085384,11.2201017 L68.7004742,11.2201017 L67.9384289,13.1185424 L66.87209,13.1185424 Z M72.7021963,8.98983051 L68.1443516,8.98983051 C65.3401295,8.98983051 63.5983115,10.2113898 62.8703679,12.0305085 C62.6841193,12.4918983 62.644771,12.9797288 62.7077283,13.4239322 L70.9249648,13.4239322 L72.7021963,8.98983051 Z" id="Fill-299" fill="#221F20" mask="url(#mask-2)"></path>
                                <polygon id="Fill-300" fill="#FEFEFE" mask="url(#mask-2)" points="57.6888528 13.4234034 57.2101151 13.8052339 57.6731134 13.8052339 57.8895291 13.4234034"></polygon>
                                <polygon id="Fill-301" fill="#FEFEFE" mask="url(#mask-2)" points="54.5733856 13.8056305 55.0508116 13.4238 54.464522 13.4238 54.2467947 13.8056305"></polygon>
                            </g>
                        </g>
                    </g>
                </g>
            </g>
        </g>
    </g>
</svg>