<?xml version="1.0" encoding="UTF-8" standalone="no"?>
<svg width="159px" height="30px" viewBox="0 0 159 30" version="1.1" xmlns="http://www.w3.org/2000/svg" xmlns:xlink="http://www.w3.org/1999/xlink">
    <!-- Generator: Sketch 3.8.3 (29802) - http://www.bohemiancoding.com/sketch -->
    <title>Group 22</title>
    <desc>Created with Sketch.</desc>
    <defs></defs>
    <g id="V2" stroke="none" stroke-width="1" fill="none" fill-rule="evenodd">
        <g id="Desktop-1240-Copy-4" transform="translate(-381.000000, -3291.000000)">
            <g id="Page-1" transform="translate(372.393285, 3282.656929)">
                <g id="Group-22" transform="translate(8.000000, 8.000000)">
                    <path d="M73.115964,18.0284063 L84.8558931,18.0284063 L84.8558931,12.6247709 L81.1081766,12.6247709 L81.1081766,14.3091555 L76.8617221,14.3091555 L76.8617221,4.39266522 L81.1081766,4.39266522 L81.1081766,6.08093684 L84.8558931,6.08093684 L84.8558931,0.674710169 L73.115964,0.674710169 L73.115964,18.0284063 Z M58.2739363,18.0284063 L70.0164765,18.0284063 L70.0164765,0.674710169 L58.2739363,0.674710169 L58.2739363,18.0284063 Z M62.0216527,14.3098034 L66.2668017,14.3098034 L66.2668017,4.39266522 L62.0216527,4.39266522 L62.0216527,14.3098034 Z M45.0945864,18.0284063 L48.8396917,18.0284063 L48.8396917,4.39266522 L55.4597217,4.39266522 L55.4597217,0.674710169 L45.0945864,0.674710169 L45.0945864,18.0284063 Z M30.3628816,18.0284063 L42.1028107,18.0284063 L42.1028107,12.6247709 L38.3570526,12.6247709 L38.3570526,14.3091555 L34.1099453,14.3091555 L34.1099453,4.39266522 L38.3570526,4.39266522 L38.3570526,6.08093684 L42.1028107,6.08093684 L42.1028107,0.674710169 L30.3628816,0.674710169 L30.3628816,18.0284063 Z M87.8444048,18.0284063 L99.5823755,18.0284063 L99.5823755,12.6247709 L95.8366174,12.6247709 L95.8366174,14.3091555 L91.5921213,14.3091555 L91.5921213,4.39266522 L95.8366174,4.39266522 L95.8366174,6.08093684 L99.5823755,6.08093684 L99.5823755,0.674710169 L87.8444048,0.674710169 L87.8444048,18.0284063 Z M116.612584,18.0284063 L120.361606,18.0284063 L120.361606,12.8230101 L128.353819,12.8230101 L128.353819,0.674710169 L116.612584,0.674710169 L116.612584,18.0284063 Z M120.361606,9.10246364 L124.606755,9.10246364 L124.606755,4.39266522 L120.361606,4.39266522 L120.361606,9.10246364 Z M158.571863,0.674710169 L154.574778,0.674710169 L152.526296,7.41937474 L151.528167,7.41937474 L149.479685,0.674710169 L145.4826,0.674710169 L148.455444,9.27802835 L145.233883,18.0284063 L149.229011,18.0284063 L151.528167,11.1347384 L152.526296,11.1347384 L154.824147,18.0284063 L158.819927,18.0284063 L155.599672,9.27802835 L158.571863,0.674710169 Z M0.73953638,18.0284063 L4.48529444,18.0284063 L4.48529444,12.8230101 L12.4781598,12.8230101 L12.4781598,0.674710169 L0.73953638,0.674710169 L0.73953638,18.0284063 Z M4.48529444,9.10246364 L8.73044339,9.10246364 L8.73044339,4.39266522 L4.48529444,4.39266522 L4.48529444,9.10246364 Z M132.439685,0.674710169 L130.741756,18.0284063 L134.488167,18.0284063 L134.862873,13.9372952 L138.98399,13.9372952 L139.360002,18.0284063 L143.10576,18.0284063 L141.407178,0.674710169 L132.439685,0.674710169 Z M135.189272,10.2193402 L135.737623,4.39266522 L138.107935,4.39266522 L138.658244,10.2193402 L135.189272,10.2193402 Z M15.5228123,18.0284063 L27.2640469,18.0284063 L27.2640469,0.674710169 L15.5228123,0.674710169 L15.5228123,18.0284063 Z M19.2705287,14.3098034 L23.5156777,14.3098034 L23.5156777,4.39266522 L19.2705287,4.39266522 L19.2705287,14.3098034 Z M102.172027,4.39266522 L106.169766,4.39266522 L106.169766,18.0284063 L109.914871,18.0284063 L109.914871,4.39266522 L113.910651,4.39266522 L113.910651,0.674710169 L102.172027,0.674710169 L102.172027,4.39266522 Z" id="Fill-2" fill="#941013"></path>
                    <g id="Group-43" transform="translate(0.486381, 19.209289)" fill="#57585A">
                        <path d="M2.81519373,7.19426569 C3.04106203,7.19426569 3.25452715,7.160578 3.4568947,7.09320261 C3.65991505,7.02582723 3.84008745,6.92282064 3.9980647,6.78418283 C4.15604195,6.64554502 4.28137927,6.46738896 4.37538226,6.24971464 C4.46873245,6.03204033 4.51573394,5.77355208 4.51573394,5.47360205 C4.51573394,5.2488015 4.48439961,5.02529662 4.42042536,4.8043831 C4.3564511,4.58346959 4.25853132,4.38458264 4.12731881,4.2083701 C3.9961063,4.03215756 3.83094827,3.89157623 3.63184471,3.78662611 C3.43274116,3.68167599 3.19446969,3.62920094 2.91637751,3.62920094 C2.39870826,3.62920094 1.98744517,3.78662611 1.68389385,4.10147646 C1.37968973,4.41632681 1.22758767,4.85491464 1.22758767,5.41723995 C1.22758767,5.66471492 1.25369961,5.89728956 1.30592349,6.11496388 C1.35880017,6.33199035 1.44692798,6.51921618 1.5709597,6.67728919 C1.69499143,6.83471436 1.85819106,6.96039537 2.06121141,7.05368436 C2.26357896,7.14762119 2.5149064,7.19426569 2.81519373,7.19426569 L2.81519373,7.19426569 Z M1.38556491,9.06069337 C1.45998395,9.44097559 1.61012761,9.715012 1.83534311,9.88215478 C2.06121141,10.0499454 2.39152747,10.1335168 2.82694411,10.1335168 C3.12723144,10.1335168 3.39161485,10.0778025 3.62009434,9.96572617 C3.84987943,9.85429765 4.03919101,9.67160671 4.18933467,9.41830118 C4.33947834,9.16499565 4.45241249,8.83913202 4.52748432,8.44071028 C4.60190335,8.04228854 4.63976567,7.55187349 4.63976567,6.97076081 C4.16648672,7.65617577 3.49084023,7.99888325 2.61217338,7.99888325 C2.19242392,7.99888325 1.83338472,7.93409922 1.53701418,7.8032355 C1.24064364,7.67301961 0.994538585,7.49421571 0.79935182,7.26682379 C0.604165055,7.04007972 0.461854972,6.76993034 0.371768772,6.45637567 C0.281682573,6.14346885 0.236639473,5.80853545 0.236639473,5.45092765 C0.236639473,5.06351919 0.299960932,4.70785491 0.427909447,4.3839348 C0.555205164,4.05936684 0.735377563,3.78209123 0.968426644,3.55081227 C1.20082293,3.32018115 1.4828319,3.14137725 1.81314796,3.01440056 C2.14346403,2.88807172 2.51098961,2.82458338 2.91637751,2.82458338 C3.44971392,2.82458338 3.88904734,2.93277269 4.23437777,3.14850349 C4.5797082,3.36488212 4.85388359,3.6479883 5.05690394,3.99782202 C5.25927149,4.34830358 5.40158157,4.74283828 5.48448699,5.18272179 C5.5673924,5.62260531 5.60786591,6.06184098 5.60786591,6.50172449 C5.60786591,7.11976406 5.5706564,7.69893322 5.49558456,8.23923197 C5.42051273,8.77953072 5.27950824,9.25051056 5.0732239,9.65281934 C4.86693956,10.055776 4.58558339,10.3738655 4.22850258,10.6090315 C3.87207458,10.8435497 3.4125044,10.9608088 2.84913926,10.9608088 C2.12126888,10.9608088 1.55202854,10.8079185 1.14272386,10.5021379 C0.734071965,10.1970051 0.495147697,9.71695552 0.427909447,9.06069337 L1.38556491,9.06069337 Z" id="Fill-3"></path>
                        <path d="M8.0745305,8.78127989 C8.15743592,9.23217668 8.31867716,9.5625752 8.55890702,9.77312327 C8.79913689,9.98367134 9.18559363,10.0892693 9.71893004,10.0892693 C10.2144041,10.0892693 10.6028193,9.94415309 10.8848282,9.65456851 C11.1655316,9.36498393 11.3065361,8.90825657 11.3065361,8.28438643 C11.3065361,7.77907106 11.1851156,7.37287524 10.9409689,7.06450329 C10.6968223,6.75613135 10.29274,6.60194537 9.73002761,6.60194537 C9.3768636,6.60194537 9.07265948,6.65636395 8.81806804,6.76390543 C8.56282381,6.87209475 8.32977473,7.03794184 8.1195736,7.26144672 L7.26375471,7.26144672 L7.61300193,3.03688062 L11.8470533,3.03688062 L11.8470533,3.90887356 L8.4348753,3.90887356 L8.22141017,6.32272624 C8.46164004,6.14392233 8.71296748,6.01176293 8.97539249,5.92560018 C9.23847031,5.84008527 9.54985522,5.79732781 9.91085281,5.79732781 C10.3306023,5.79732781 10.6929055,5.86275968 10.9971096,5.99297556 C11.3006609,6.12319145 11.5487244,6.30199535 11.7399943,6.52938727 C11.9319171,6.75677919 12.0722688,7.021098 12.1630078,7.32299154 C12.2524412,7.62488509 12.2981371,7.94362248 12.2981371,8.27855587 C12.2981371,9.15767506 12.0670464,9.82430265 11.604865,10.2790865 C11.1433365,10.7338703 10.5218723,10.9606144 9.74177799,10.9606144 C8.92316861,10.9606144 8.29452361,10.7785713 7.85519019,10.4131894 C7.41585677,10.0484554 7.16583492,9.50426958 7.10643026,8.78127989 L8.0745305,8.78127989 Z" id="Fill-5"></path>
                        <path d="M21.802427,3.65135707 L19.2578182,3.65135707 L18.8968206,6.5621032 C18.8067344,7.32266762 18.6813971,7.97245137 18.5201559,8.50951091 C18.3582618,9.0472183 18.1552415,9.48710181 17.9117476,9.83045713 C17.667601,10.1738124 17.3784112,10.4258223 17.0441784,10.5858388 C16.7099455,10.7465032 16.3215304,10.8268354 15.878933,10.8268354 L15.6419671,10.8268354 L15.6419671,9.92115476 L15.7888468,9.92115476 C16.0662861,9.92115476 16.316308,9.86155346 16.5376067,9.74235086 C16.7589054,9.62314826 16.958009,9.41843075 17.1349174,9.12819833 C17.3105202,8.83731807 17.4645806,8.44602257 17.5964459,7.95431184 C17.7276584,7.46260111 17.8386342,6.84067449 17.9280676,6.08788415 L18.3341083,2.77936413 L22.8384183,2.77936413 L22.8384183,10.75946 L21.802427,10.75946 L21.802427,3.65135707 Z" id="Fill-7"></path>
                        <polygon id="Fill-9" points="29.8208821 2.77955848 29.8208821 3.68459127 25.654069 3.68459127 25.654069 6.18849374 29.5956666 6.18849374 29.5956666 7.10518766 25.654069 7.10518766 25.654069 9.85397373 30.035 9.85397373 29.8659252 10.7596544 24.6180777 10.7596544 24.6180777 2.77955848"></polygon>
                        <polygon id="Fill-11" points="30.6203645 3.69631718 30.6203645 2.77962327 36.9714415 2.77962327 36.9714415 3.69631718 34.3138986 3.69631718 34.3138986 10.7597191 33.2779073 10.7597191 33.2779073 3.69631718"></polygon>
                        <path d="M43.2332157,9.91027104 C43.6085749,9.91027104 43.9186542,9.87658335 44.1628009,9.80985581 C44.4062947,9.74248043 44.6001759,9.64789575 44.7431388,9.52480611 C44.8847961,9.40171647 44.9846742,9.25271322 45.0414677,9.07779636 C45.0969556,8.90223166 45.1250259,8.70334471 45.1250259,8.47983983 C45.1250259,8.01792975 44.9866326,7.66032195 44.7091932,7.40701642 C44.4311011,7.15371089 43.9689197,7.02673421 43.3239547,7.02673421 L41.4086438,7.02673421 L41.4086438,9.91027104 L43.2332157,9.91027104 Z M43.2110206,6.15538911 C43.818776,6.15538911 44.2528871,6.04331275 44.5113953,5.81980787 C44.7705563,5.59630299 44.9004632,5.27626992 44.9004632,4.85841298 C44.9004632,4.42630355 44.7594587,4.11339672 44.4774498,3.91969249 C44.1967464,3.72598827 43.7136755,3.62946007 43.0301954,3.62946007 L41.4086438,3.62946007 L41.4086438,6.15538911 L43.2110206,6.15538911 Z M43.0641409,2.7794937 C43.6346868,2.7794937 44.104049,2.83391228 44.4722274,2.94210159 C44.839753,3.05029091 45.1309011,3.19540712 45.345019,3.37809806 C45.559137,3.56014117 45.7073222,3.7765198 45.7895748,4.02593829 C45.8724803,4.27535678 45.9136066,4.53837991 45.9136066,4.813712 C45.9136066,5.17909389 45.8307011,5.51014024 45.6661959,5.80814675 C45.5010379,6.10680109 45.2046673,6.34844549 44.7764315,6.53502348 C45.0460373,6.63932575 45.2699472,6.7624154 45.4468556,6.90364456 C45.6224584,7.04552157 45.7654213,7.19776403 45.8744387,7.3616676 C45.9828032,7.52621902 46.057875,7.70113588 46.0996542,7.88706602 C46.1407805,8.07364401 46.1610172,8.26022199 46.1610172,8.44615214 C46.1610172,8.77395929 46.1107517,9.07779636 46.009568,9.35701549 C45.9083842,9.63623463 45.7451845,9.88047039 45.5193162,10.0890749 C45.2941007,10.2976795 44.9977302,10.4615831 44.6302046,10.5807857 C44.2620262,10.6999883 43.8076785,10.7595896 43.2671613,10.7595896 L40.3955005,10.7595896 L40.3955005,2.7794937 L43.0641409,2.7794937 Z" id="Fill-13"></path>
                        <polygon id="Fill-15" points="47.51342 2.77955848 48.7968219 2.77955848 51.3877793 9.53005362 54.0224743 2.77955848 55.2614859 2.77955848 55.2614859 10.7596544 54.3038304 10.7596544 54.3038304 4.46718227 51.7814169 10.7596544 50.9366955 10.7596544 48.4586723 4.48985667 48.4586723 10.7596544 47.51342 10.7596544"></polygon>
                        <polygon id="Fill-17" points="62.1082982 2.77955848 62.1082982 3.68459127 57.9414851 3.68459127 57.9414851 6.18849374 61.8830827 6.18849374 61.8830827 7.10518766 57.9414851 7.10518766 57.9414851 9.85397373 62.3224161 9.85397373 62.1533413 10.7596544 56.9054938 10.7596544 56.9054938 2.77955848"></polygon>
                        <path d="M70.1828287,8.13311574 C70.1377856,8.53542452 70.035949,8.90987617 69.8786246,9.25647069 C69.7213001,9.60306521 69.5071822,9.90301523 69.2369236,10.1563208 C68.966665,10.4096263 68.6383073,10.6072176 68.2511978,10.7484467 C67.864741,10.8896759 67.4162684,10.9609383 66.9051272,10.9609383 C66.3502484,10.9609383 65.8508575,10.8676493 65.4082601,10.6817192 C64.9650099,10.4951412 64.5896507,10.2230483 64.2815298,9.8654405 C63.9734089,9.5078327 63.7351374,9.06989271 63.5660626,8.55226837 C63.3969878,8.03464403 63.3134296,7.44446158 63.3134296,6.78107319 C63.3134296,6.10991072 63.402863,5.51454556 63.5836882,4.99238634 C63.7638606,4.4715228 64.015188,4.03163928 64.3383233,3.67403148 C64.6608058,3.31577584 65.0400817,3.04433078 65.4754984,2.8577528 C65.910915,2.67182265 66.3881107,2.57853366 66.9051272,2.57853366 C67.4012541,2.57853366 67.8294899,2.642022 68.1891819,2.76835085 C68.5495267,2.89532753 68.8556892,3.07413143 69.1076695,3.30476255 C69.3583441,3.53604151 69.5613645,3.81202145 69.7154249,4.13205452 C69.8694854,4.45273543 69.9876419,4.80645619 70.0698945,5.19386464 L69.0560984,5.36165526 C68.9816794,5.06364876 68.8909404,4.79932995 68.7858398,4.56805099 C68.6807392,4.33741987 68.5443043,4.13918076 68.3752295,3.97592502 C68.2068075,3.81202145 68.0037871,3.68698828 67.7674741,3.60082553 C67.5305082,3.51595846 67.2432768,3.47255317 66.9051272,3.47255317 C66.4997393,3.47255317 66.1420057,3.55288536 65.829968,3.71290189 C65.5179303,3.87291843 65.2555053,4.09707115 65.0420401,4.38341652 C64.8279222,4.67040974 64.666681,5.01700426 64.5576636,5.42255224 C64.4486463,5.82874806 64.394464,6.27770134 64.394464,6.77005991 C64.394464,7.26889688 64.4506046,7.7217372 64.5635388,8.12728518 C64.6751673,8.53412884 64.8390198,8.88007552 65.0531377,9.16706874 C65.2672556,9.45406196 65.5296806,9.67562332 65.8417184,9.83240065 C66.1524505,9.98853014 66.5114897,10.066271 66.9168776,10.066271 C67.2850559,10.066271 67.5964408,10.0202743 67.8516851,9.92698532 C68.1062765,9.83369633 68.3190888,9.70348045 68.4875109,9.53568983 C68.6565857,9.36789921 68.7897566,9.16512522 68.8876764,8.92672002 C68.9849434,8.68831481 69.0600152,8.423996 69.1128919,8.13311574 L70.1828287,8.13311574 Z" id="Fill-19"></path>
                        <polygon id="Fill-21" points="70.9032572 3.69631718 70.9032572 2.77962327 77.2543342 2.77962327 77.2543342 3.69631718 74.5967913 3.69631718 74.5967913 10.7597191 73.5608 10.7597191 73.5608 3.69631718"></polygon>
                        <polygon id="Fill-23" points="83.4377073 2.77955848 83.4377073 3.68459127 79.2708942 3.68459127 79.2708942 6.18849374 83.2124918 6.18849374 83.2124918 7.10518766 79.2708942 7.10518766 79.2708942 9.85397373 83.6518253 9.85397373 83.4827504 10.7596544 78.2349029 10.7596544 78.2349029 2.77955848"></polygon>
                        <path d="M94.0240108,8.13311574 C93.9789677,8.53542452 93.8771311,8.90987617 93.7198067,9.25647069 C93.5624822,9.60306521 93.3483643,9.90301523 93.0781057,10.1563208 C92.8078471,10.4096263 92.4794894,10.6072176 92.0923799,10.7484467 C91.7059232,10.8896759 91.2574506,10.9609383 90.7463093,10.9609383 C90.1914305,10.9609383 89.6920396,10.8676493 89.2494422,10.6817192 C88.806192,10.4951412 88.4308329,10.2230483 88.1227119,9.8654405 C87.814591,9.5078327 87.5763196,9.06989271 87.4072447,8.55226837 C87.2381699,8.03464403 87.1546117,7.44446158 87.1546117,6.78107319 C87.1546117,6.10991072 87.2440451,5.51454556 87.4248703,4.99238634 C87.6050427,4.4715228 87.8563701,4.03163928 88.1795054,3.67403148 C88.5019879,3.31577584 88.8812638,3.04433078 89.3166805,2.8577528 C89.7520971,2.67182265 90.2292928,2.57853366 90.7463093,2.57853366 C91.2424362,2.57853366 91.670672,2.642022 92.030364,2.76835085 C92.3907088,2.89532753 92.6968714,3.07413143 92.9488516,3.30476255 C93.1995262,3.53604151 93.4025466,3.81202145 93.556607,4.13205452 C93.7106675,4.45273543 93.828824,4.80645619 93.9110767,5.19386464 L92.8972805,5.36165526 C92.8228615,5.06364876 92.7321225,4.79932995 92.6270219,4.56805099 C92.5219213,4.33741987 92.3854864,4.13918076 92.2164116,3.97592502 C92.0479896,3.81202145 91.8449693,3.68698828 91.6086562,3.60082553 C91.3716903,3.51595846 91.0844589,3.47255317 90.7463093,3.47255317 C90.3409214,3.47255317 89.9831878,3.55288536 89.6711501,3.71290189 C89.3591124,3.87291843 89.0966874,4.09707115 88.8832222,4.38341652 C88.6691043,4.67040974 88.5078631,5.01700426 88.3988457,5.42255224 C88.2898284,5.82874806 88.2356461,6.27770134 88.2356461,6.77005991 C88.2356461,7.26889688 88.2917868,7.7217372 88.4047209,8.12728518 C88.5163495,8.53412884 88.6802019,8.88007552 88.8943198,9.16706874 C89.1084377,9.45406196 89.3708628,9.67562332 89.6829005,9.83240065 C89.9936326,9.98853014 90.3526718,10.066271 90.7580597,10.066271 C91.1262381,10.066271 91.437623,10.0202743 91.6928672,9.92698532 C91.9474586,9.83369633 92.1602709,9.70348045 92.328693,9.53568983 C92.4977678,9.36789921 92.6309387,9.16512522 92.7288585,8.92672002 C92.8261255,8.68831481 92.9011973,8.423996 92.954074,8.13311574 L94.0240108,8.13311574 Z" id="Fill-25"></path>
                        <path d="M98.8549812,10.0665301 C99.2825642,10.0665301 99.6598818,9.98814144 99.986281,9.83201195 C100.313333,9.67523461 100.584897,9.45367325 100.802932,9.16668004 C101.020967,8.88033466 101.186125,8.53374014 101.298406,8.12754432 C101.41134,7.7213485 101.467481,7.26915602 101.467481,6.76967121 C101.467481,6.27083423 101.41134,5.81799392 101.298406,5.4117981 C101.186125,5.00560228 101.018356,4.65900776 100.79771,4.37201454 C100.576411,4.08566916 100.304194,3.8641078 99.9810587,3.70733047 C99.6579234,3.55055313 99.2825642,3.47281231 98.8549812,3.47281231 C98.4117309,3.47281231 98.0272326,3.55055313 97.7001805,3.70733047 C97.3737813,3.8641078 97.1015643,4.08566916 96.8835296,4.37201454 C96.6661476,4.65900776 96.502948,5.00560228 96.3939306,5.4117981 C96.2849133,5.81799392 96.230731,6.27083423 96.230731,6.76967121 C96.230731,7.26915602 96.2849133,7.7213485 96.3939306,8.12754432 C96.502948,8.53374014 96.6661476,8.88033466 96.8835296,9.16668004 C97.1015643,9.45367325 97.3737813,9.67523461 97.7001805,9.83201195 C98.0272326,9.98814144 98.4117309,10.0665301 98.8549812,10.0665301 M98.8549812,10.9605496 C98.3066304,10.9605496 97.8059339,10.8692041 97.3515861,10.687161 C96.8972383,10.5044701 96.5068648,10.2362642 96.1798127,9.88189564 C95.8534134,9.52817488 95.6007804,9.09088273 95.4199552,8.56872351 C95.2397828,8.04785997 95.1496966,7.45119912 95.1496966,6.78068449 C95.1496966,6.11016986 95.2417412,5.51415685 95.4258304,4.99264547 C95.6092668,4.47113409 95.8651638,4.03189842 96.1915631,3.67364277 C96.5179624,3.31603497 96.9089887,3.04458992 97.3626837,2.85801193 C97.8170315,2.67143395 98.314464,2.5787928 98.8549812,2.5787928 C99.4026791,2.5787928 99.9040284,2.67013827 100.358376,2.85218137 C100.812724,3.03487231 101.201139,3.30372601 101.524274,3.65679893 C101.846757,4.01116753 102.098737,4.447164 102.278257,4.96478834 C102.459082,5.48241268 102.548515,6.07648217 102.548515,6.7469968 C102.548515,7.41815927 102.460388,8.01546796 102.284132,8.54151422 C102.107224,9.0662648 101.858507,9.50809183 101.534719,9.86569964 C101.212237,10.2233074 100.823822,10.4954003 100.369474,10.6813305 C99.915126,10.8672606 99.4105127,10.9605496 98.8549812,10.9605496" id="Fill-27"></path>
                        <path d="M113.145786,8.13311574 C113.100743,8.53542452 112.998906,8.90987617 112.841582,9.25647069 C112.684257,9.60306521 112.470139,9.90301523 112.199881,10.1563208 C111.929622,10.4096263 111.601264,10.6072176 111.214155,10.7484467 C110.827698,10.8896759 110.379226,10.9609383 109.868084,10.9609383 C109.313206,10.9609383 108.813815,10.8676493 108.371217,10.6817192 C107.927967,10.4951412 107.552608,10.2230483 107.244487,9.8654405 C106.936366,9.5078327 106.698095,9.06989271 106.52902,8.55226837 C106.359945,8.03464403 106.276387,7.44446158 106.276387,6.78107319 C106.276387,6.10991072 106.36582,5.51454556 106.546645,4.99238634 C106.726818,4.4715228 106.978145,4.03163928 107.30128,3.67403148 C107.623763,3.31577584 108.003039,3.04433078 108.438456,2.8577528 C108.873872,2.67182265 109.351068,2.57853366 109.868084,2.57853366 C110.364211,2.57853366 110.792447,2.642022 111.152139,2.76835085 C111.512484,2.89532753 111.818646,3.07413143 112.070627,3.30476255 C112.321301,3.53604151 112.524322,3.81202145 112.678382,4.13205452 C112.832443,4.45273543 112.950599,4.80645619 113.032852,5.19386464 L112.019056,5.36165526 C111.944636,5.06364876 111.853897,4.79932995 111.748797,4.56805099 C111.643696,4.33741987 111.507261,4.13918076 111.338187,3.97592502 C111.169765,3.81202145 110.966744,3.68698828 110.730431,3.60082553 C110.493465,3.51595846 110.206234,3.47255317 109.868084,3.47255317 C109.462696,3.47255317 109.104963,3.55288536 108.792925,3.71290189 C108.480887,3.87291843 108.218462,4.09707115 108.004997,4.38341652 C107.790879,4.67040974 107.629638,5.01700426 107.520621,5.42255224 C107.411603,5.82874806 107.357421,6.27770134 107.357421,6.77005991 C107.357421,7.26889688 107.413562,7.7217372 107.526496,8.12728518 C107.638124,8.53412884 107.801977,8.88007552 108.016095,9.16706874 C108.230213,9.45406196 108.492638,9.67562332 108.804675,9.83240065 C109.115408,9.98853014 109.474447,10.066271 109.879835,10.066271 C110.248013,10.066271 110.559398,10.0202743 110.814642,9.92698532 C111.069234,9.83369633 111.282046,9.70348045 111.450468,9.53568983 C111.619543,9.36789921 111.752714,9.16512522 111.850634,8.92672002 C111.9479,8.68831481 112.022972,8.423996 112.075849,8.13311574 L113.145786,8.13311574 Z" id="Fill-29"></path>
                        <polygon id="Fill-31" points="113.866802 3.69631718 113.866802 2.77962327 120.217879 2.77962327 120.217879 3.69631718 117.560336 3.69631718 117.560336 10.7597191 116.524345 10.7597191 116.524345 3.69631718"></polygon>
                        <path d="M123.895942,6.79189213 C124.28501,6.79189213 124.606839,6.75496523 124.861431,6.68046361 C125.115369,6.60596198 125.31382,6.49777266 125.45613,6.35589565 C125.597788,6.21466649 125.697666,6.04493235 125.753806,5.84734108 C125.809947,5.65039765 125.838017,5.42883629 125.838017,5.18265701 C125.838017,4.92935148 125.807989,4.7058466 125.747931,4.51214238 C125.687874,4.31843815 125.585384,4.15842161 125.439157,4.03144493 C125.293583,3.90446825 125.093174,3.80988357 124.838583,3.74639523 C124.584644,3.68355473 124.266078,3.65116272 123.884191,3.65116272 L122.245667,3.65116272 L122.245667,6.79189213 L123.895942,6.79189213 Z M123.901164,2.77981762 C124.493905,2.77981762 124.983504,2.84330596 125.370614,2.9696348 C125.75707,3.09661149 126.060622,3.26764131 126.282573,3.48401994 C126.503872,3.70039858 126.657932,3.95176058 126.744102,4.23810596 C126.830271,4.52509918 126.874009,4.82893625 126.874009,5.14896932 C126.874009,5.48455055 126.828966,5.80523146 126.738879,6.11036421 C126.649446,6.41549696 126.492122,6.68370281 126.267559,6.91498177 C126.042343,7.14561289 125.738792,7.32830383 125.356905,7.46240676 C124.975018,7.59650968 124.491947,7.66388507 123.908345,7.66388507 L122.245667,7.66388507 L122.245667,10.7599135 L121.209676,10.7599135 L121.209676,2.77981762 L123.901164,2.77981762 Z" id="Fill-33"></path>
                        <path d="M131.130908,3.94210776 L129.734572,7.64127544 L132.550092,7.64127544 L131.130908,3.94210776 Z M131.716468,2.7798824 L134.836193,10.7593304 L133.710115,10.7593304 L132.865394,8.53529495 L129.41927,8.53529495 L128.574549,10.7593304 L127.493515,10.7593304 L130.624336,2.7798824 L131.716468,2.7798824 Z" id="Fill-35"></path>
                        <polygon id="Fill-37" points="136.885588 2.77955848 136.885588 6.15480605 140.951218 6.15480605 140.951218 2.77955848 141.986556 2.77955848 141.986556 10.7596544 140.951218 10.7596544 140.951218 7.11620094 136.885588 7.11620094 136.885588 10.7596544 135.849597 10.7596544 135.849597 2.77955848"></polygon>
                        <path d="M147.190144,10.0665301 C147.617727,10.0665301 147.995045,9.98814144 148.321444,9.83201195 C148.648496,9.67523461 148.92006,9.45367325 149.138095,9.16668004 C149.35613,8.88033466 149.521288,8.53374014 149.633569,8.12754432 C149.746503,7.7213485 149.802644,7.26915602 149.802644,6.76967121 C149.802644,6.27083423 149.746503,5.81799392 149.633569,5.4117981 C149.521288,5.00560228 149.353518,4.65900776 149.132872,4.37201454 C148.911574,4.08566916 148.639357,3.8641078 148.316221,3.70733047 C147.993086,3.55055313 147.617727,3.47281231 147.190144,3.47281231 C146.746894,3.47281231 146.362395,3.55055313 146.035343,3.70733047 C145.708944,3.8641078 145.436727,4.08566916 145.218692,4.37201454 C145.00131,4.65900776 144.838111,5.00560228 144.729093,5.4117981 C144.620076,5.81799392 144.565894,6.27083423 144.565894,6.76967121 C144.565894,7.26915602 144.620076,7.7213485 144.729093,8.12754432 C144.838111,8.53374014 145.00131,8.88033466 145.218692,9.16668004 C145.436727,9.45367325 145.708944,9.67523461 146.035343,9.83201195 C146.362395,9.98814144 146.746894,10.0665301 147.190144,10.0665301 M147.190144,10.9605496 C146.641793,10.9605496 146.141097,10.8692041 145.686749,10.687161 C145.232401,10.5044701 144.842028,10.2362642 144.514975,9.88189564 C144.188576,9.52817488 143.935943,9.09088273 143.755118,8.56872351 C143.574946,8.04785997 143.484859,7.45119912 143.484859,6.78068449 C143.484859,6.11016986 143.576904,5.51415685 143.760993,4.99264547 C143.94443,4.47113409 144.200327,4.03189842 144.526726,3.67364277 C144.853125,3.31603497 145.244151,3.04458992 145.697846,2.85801193 C146.152194,2.67143395 146.649627,2.5787928 147.190144,2.5787928 C147.737842,2.5787928 148.239191,2.67013827 148.693539,2.85218137 C149.147887,3.03487231 149.536302,3.30372601 149.859437,3.65679893 C150.18192,4.01116753 150.4339,4.447164 150.61342,4.96478834 C150.794245,5.48241268 150.883678,6.07648217 150.883678,6.7469968 C150.883678,7.41815927 150.79555,8.01546796 150.619295,8.54151422 C150.442386,9.0662648 150.19367,9.50809183 149.869882,9.86569964 C149.547399,10.2233074 149.158984,10.4954003 148.704637,10.6813305 C148.250289,10.8672606 147.745675,10.9605496 147.190144,10.9605496" id="Fill-39"></path>
                        <path d="M154.363878,0.60041832 C154.378239,0.883524498 154.472242,1.10508585 154.645234,1.26510239 C154.817573,1.42576677 155.057803,1.50545111 155.365923,1.50545111 C155.674044,1.50545111 155.914274,1.42576677 156.087266,1.26510239 C156.258952,1.10508585 156.357524,0.883524498 156.37972,0.60041832 L157.123257,0.60041832 C157.123257,1.0623284 156.970502,1.43678005 156.666298,1.72377327 C156.362747,2.01076649 155.928636,2.15393918 155.365923,2.15393918 C154.787544,2.15393918 154.352127,2.01076649 154.059674,1.72377327 C153.766567,1.43678005 153.62034,1.0623284 153.62034,0.60041832 L154.363878,0.60041832 Z M157.35957,10.7598487 L157.35957,4.45636333 L153.395125,10.7598487 L152.381981,10.7598487 L152.381981,2.77975283 L153.395125,2.77975283 L153.395125,9.0942515 L157.34782,2.77975283 L158.361616,2.77975283 L158.361616,10.7598487 L157.35957,10.7598487 Z" id="Fill-41"></path>
                    </g>
                </g>
            </g>
        </g>
    </g>
</svg>