<?xml version="1.0" encoding="UTF-8" standalone="no"?>
<svg width="45px" height="30px" viewBox="0 0 45 30" version="1.1" xmlns="http://www.w3.org/2000/svg" xmlns:xlink="http://www.w3.org/1999/xlink">
    <!-- Generator: Sketch 3.8.3 (29802) - http://www.bohemiancoding.com/sketch -->
    <title>Group 41</title>
    <desc>Created with Sketch.</desc>
    <defs>
        <polygon id="path-1" points="0.63 30.3419843 44.3169 30.3419843 44.3169 0.417245396 0.63 0.417245396"></polygon>
    </defs>
    <g id="V2" stroke="none" stroke-width="1" fill="none" fill-rule="evenodd">
        <g id="Desktop-1240-Copy-3" transform="translate(-880.000000, -1987.000000)">
            <g id="Group-11" transform="translate(-7.000000, 1523.000000)">
                <g id="partners">
                    <g id="Group-14" transform="translate(0.000000, 59.000000)">
                        <g id="Group-84" transform="translate(852.000000, 355.781585)">
                            <g id="Group-45" transform="translate(0.000000, 0.191649)">
                                <g id="Group-41" transform="translate(35.000000, 48.281585)">
                                    <path d="M34.14294,0.782671606 L34.14294,4.13998285 L37.13634,4.13998285 L37.13634,14.2077105 L34.14294,14.2077105 L34.14294,17.5641805 L44.31744,17.5641805 L44.31744,14.2077105 L41.32494,14.2077105 L41.32494,0.782671606 L34.14294,0.782671606 Z M11.40174,0.782671606 L11.40174,10.8512404 L10.80324,10.8512404 L4.22064,0.782671606 L0.62964,0.782671606 L0.62964,17.5641805 L4.22064,17.5641805 L4.22064,7.49477043 L4.81914,7.49477043 L11.40174,17.5641805 L14.99274,17.5641805 L14.99274,0.782671606 L11.40174,0.782671606 Z M23.67054,3.8598564 L23.67054,7.2154852 L20.37834,7.2154852 L20.37834,10.5719552 L23.67054,10.5719552 L23.67054,14.2077105 L27.26154,14.2077105 L27.26154,10.5719552 L30.55284,10.5719552 L30.55284,7.2154852 L27.26154,7.2154852 L27.26154,3.8598564 L23.67054,3.8598564 Z" id="Fill-1035" fill="#000000"></path>
                                    <g id="Group-1048" transform="translate(0.000000, 0.365679)">
                                        <path d="M4.15494,23.8689603 L4.18284,24.4569735 C4.36104,24.2466684 4.57704,24.0809479 4.82994,23.9614946 C5.08284,23.8420413 5.36634,23.7823146 5.68044,23.7823146 C5.92434,23.7823146 6.14484,23.8134398 6.34194,23.8748489 C6.53904,23.9370992 6.70644,24.0372044 6.84594,24.1734822 C6.98454,24.3106011 7.09164,24.485575 7.16724,24.7009275 C7.24284,24.9154387 7.28064,25.1753758 7.28064,25.4807389 L7.28064,28.5444642 L6.42474,28.5444642 L6.42474,25.4723267 C6.42474,25.2906231 6.40314,25.1358385 6.35994,25.0071317 C6.31674,24.8792662 6.25284,24.7749549 6.16824,24.6941977 C6.08364,24.6134405 5.97924,24.5545551 5.85414,24.5175414 C5.72904,24.4796864 5.58504,24.4611796 5.42214,24.4611796 C5.14404,24.4611796 4.90104,24.5301597 4.69134,24.6681199 C4.48164,24.80608 4.31784,24.9877837 4.20084,25.2123896 L4.20084,28.5444642 L3.34584,28.5444642 L3.34584,23.8689603 L4.15494,23.8689603 L4.15494,23.8689603 Z" id="Fill-1036" fill="#000100"></path>
                                        <path d="M11.94039,26.1678479 C11.94039,25.9339885 11.91429,25.7152712 11.86209,25.5091722 C11.80899,25.3030731 11.72799,25.1222107 11.61729,24.9665849 C11.50569,24.8109591 11.36529,24.6872997 11.19609,24.5972891 C11.02689,24.5064373 10.82439,24.4610113 10.59039,24.4610113 C10.44549,24.4610113 10.31409,24.4769945 10.19529,24.5081197 C10.07649,24.5400861 9.96939,24.5846708 9.87399,24.642715 C9.77859,24.699918 9.69309,24.7688981 9.61929,24.8479728 C9.54549,24.9270475 9.48069,25.0120108 9.42489,25.1053863 L9.42489,27.3388269 C9.48069,27.4305199 9.54549,27.5171656 9.61929,27.5962404 C9.69309,27.6753151 9.77859,27.7426127 9.87399,27.7989745 C9.96939,27.8553363 10.07739,27.8990798 10.19709,27.9310461 C10.31769,27.9621713 10.45179,27.9789957 10.59939,27.9789957 C10.83069,27.9789957 11.03049,27.9327286 11.19789,27.8401943 C11.36619,27.7476601 11.50569,27.6240006 11.61729,27.4683748 C11.72799,27.312749 11.80899,27.1310454 11.86209,26.9215815 C11.91429,26.7129588 11.94039,26.4917178 11.94039,26.2586997 L11.94039,26.1678479 Z M12.79539,26.2586997 C12.79539,26.6019177 12.75219,26.9173754 12.66579,27.2067552 C12.58029,27.4969763 12.45429,27.7468188 12.28959,27.9588064 C12.12489,28.170794 11.92149,28.3356732 11.68119,28.4534441 C11.44089,28.5720562 11.16639,28.6309416 10.85859,28.6309416 C10.54449,28.6309416 10.26909,28.5846745 10.03329,28.4929815 C9.79749,28.4004472 9.59499,28.2666931 9.42489,28.0908781 L9.42489,30.3419843 L8.56989,30.3419843 L8.56989,23.8687921 L9.35109,23.8687921 L9.39339,24.3878252 C9.56259,24.1918208 9.76779,24.0412423 10.00809,23.9377722 C10.24839,23.834302 10.52739,23.7821464 10.84419,23.7821464 C11.15919,23.7821464 11.43729,23.8401906 11.67939,23.9554378 C11.92149,24.070685 12.12579,24.2321994 12.29139,24.4416633 C12.45879,24.650286 12.58389,24.9009697 12.66849,25.1937145 C12.75309,25.485618 12.79539,25.8103291 12.79539,26.1678479 L12.79539,26.2586997 Z" id="Fill-1038" fill="#000100"></path>
                                        <mask id="mask-2" fill="white">
                                            <use xlink:href="#path-1"></use>
                                        </mask>
                                        <g id="Clip-1041"></g>
                                        <polygon id="Fill-1040" fill="#000100" mask="url(#mask-2)" points="13.9563 28.5442959 14.8113 28.5442959 14.8113 21.9070657 13.9563 21.9070657"></polygon>
                                        <path d="M19.26828,28.0822135 C19.11168,28.2546637 18.91188,28.3901002 18.67158,28.4859993 C18.43128,28.5827397 18.14148,28.6306893 17.80308,28.6306893 C17.55558,28.6306893 17.33238,28.5987229 17.13258,28.5339489 C16.93188,28.4691749 16.75908,28.366546 16.61418,28.2269034 C16.46928,28.0872608 16.35768,27.9072396 16.27938,27.6868398 C16.20108,27.46644 16.16148,27.2006143 16.16148,26.8893627 L16.16148,23.8693809 L17.01648,23.8693809 L17.01648,26.8977749 C17.01648,27.1080801 17.04258,27.2822127 17.09568,27.4193317 C17.14788,27.5556094 17.21718,27.6641269 17.30358,27.7432016 C17.38998,27.8222763 17.48808,27.8769557 17.59878,27.9072396 C17.71038,27.9375235 17.82378,27.9526655 17.94168,27.9526655 C18.28998,27.9526655 18.56898,27.8904152 18.78048,27.7667558 C18.99198,27.6422551 19.14678,27.4773759 19.24488,27.2695944 L19.24488,23.8693809 L20.10078,23.8693809 L20.10078,28.5448848 L19.28718,28.5448848 L19.26828,28.0822135 Z" id="Fill-1042" fill="#000100" mask="url(#mask-2)"></path>
                                        <path d="M24.31242,27.3041686 C24.31242,27.2175229 24.29802,27.1359245 24.27012,27.0602146 C24.24312,26.9836636 24.18822,26.9113186 24.10632,26.8440209 C24.02442,26.7767233 23.90832,26.7136318 23.75712,26.6555875 C23.60592,26.5983845 23.40702,26.5453876 23.16042,26.4965969 C22.88322,26.4419175 22.63392,26.3771435 22.41252,26.3014337 C22.19022,26.2265651 22.00122,26.1365545 21.84552,26.0314019 C21.68982,25.9262493 21.57102,25.8017487 21.48732,25.6579 C21.40452,25.5140512 21.36222,25.3449659 21.36222,25.1523264 C21.36222,24.9680991 21.40632,24.7931252 21.49452,24.6274048 C21.58182,24.4616843 21.70602,24.3161532 21.86712,24.1908113 C22.02642,24.0654694 22.22082,23.9662054 22.44942,23.8930192 C22.67712,23.8189918 22.93092,23.7819781 23.21172,23.7819781 C23.51052,23.7819781 23.77782,23.8206743 24.01452,23.8972253 C24.25032,23.9729352 24.45012,24.0780878 24.61482,24.2101594 C24.77952,24.3430722 24.90552,24.4978568 24.99192,24.6745131 C25.07832,24.8520107 25.12152,25.0412853 25.12152,25.2431782 L24.26112,25.2431782 C24.26112,25.1481203 24.23862,25.0522212 24.19182,24.9554808 C24.14592,24.8595816 24.07842,24.7729359 23.98842,24.6963849 C23.89932,24.6198338 23.78952,24.5584247 23.66082,24.5104751 C23.53122,24.4625255 23.38182,24.4389714 23.21172,24.4389714 C23.03352,24.4389714 22.88142,24.4583194 22.75632,24.4978568 C22.63212,24.536553 22.52952,24.5878674 22.44942,24.6534826 C22.36842,24.7174154 22.30992,24.7914428 22.27302,24.8738824 C22.23612,24.9554808 22.21812,25.0396028 22.21812,25.1262486 C22.21812,25.2128943 22.23342,25.2902866 22.26402,25.3601079 C22.29552,25.429088 22.35312,25.4913383 22.43952,25.5477001 C22.52592,25.6040618 22.64382,25.6553763 22.79322,25.7033259 C22.94262,25.7504342 23.13612,25.799225 23.37372,25.8480158 C23.67882,25.9144722 23.94432,25.9893409 24.16842,26.0726217 C24.39342,26.1559025 24.58062,26.2534841 24.72822,26.3645252 C24.87582,26.4755663 24.98652,26.6025906 25.05942,26.7464394 C25.13142,26.8911293 25.16742,27.057691 25.16742,27.2478068 C25.16742,27.4522234 25.12242,27.6398156 25.03062,27.8097421 C24.94062,27.9796687 24.81012,28.1251999 24.64092,28.2463356 C24.47082,28.3674714 24.26742,28.4616881 24.02982,28.5298269 C23.79222,28.5971246 23.52942,28.6307734 23.23962,28.6307734 C22.90662,28.6307734 22.61322,28.5878712 22.35852,28.5012254 C22.10472,28.4145797 21.89142,28.3001737 21.71862,28.1580075 C21.54582,28.015 21.41532,27.8518032 21.32532,27.6692583 C21.23622,27.4867134 21.19122,27.29828 21.19122,27.1056405 L22.04622,27.1056405 C22.05612,27.2696785 22.09842,27.4076387 22.17402,27.5178386 C22.24872,27.6288797 22.34412,27.7188903 22.45842,27.7878704 C22.57272,27.8576917 22.69692,27.9064825 22.83282,27.935084 C22.96872,27.9636855 23.10372,27.9788275 23.23962,27.9788275 C23.41512,27.9788275 23.56902,27.9611618 23.70222,27.9266718 C23.83452,27.8921818 23.94612,27.8442322 24.03702,27.7836643 C24.12792,27.7230964 24.19632,27.6515927 24.24312,27.5699943 C24.28902,27.4875547 24.31242,27.3992265 24.31242,27.3041686" id="Fill-1043" fill="#000100" mask="url(#mask-2)"></path>
                                        <polygon id="Fill-1044" fill="#000100" mask="url(#mask-2)" points="29.00475 28.5445483 28.14525 28.5445483 28.14525 23.2162573 26.41995 23.8084766 26.41995 23.0825032 28.87065 22.2227758 29.00475 22.2227758"></polygon>
                                        <path d="M31.617,28.1253681 C31.617,27.9874079 31.6611,27.8721607 31.7484,27.7796264 C31.8366,27.6870922 31.968,27.6416663 32.1444,27.6416663 C32.3199,27.6416663 32.4531,27.6870922 32.544,27.7796264 C32.6349,27.8721607 32.6799,27.9874079 32.6799,28.1253681 C32.6799,28.2582809 32.6349,28.3684808 32.544,28.4584914 C32.4531,28.5468196 32.3199,28.5922455 32.1444,28.5922455 C31.968,28.5922455 31.8366,28.5468196 31.7484,28.4584914 C31.6611,28.3684808 31.617,28.2582809 31.617,28.1253681" id="Fill-1045" fill="#000100" mask="url(#mask-2)"></path>
                                        <path d="M36.50832,24.5862691 C36.43452,24.574492 36.36522,24.566921 36.30222,24.5627149 C36.23922,24.5585088 36.16722,24.5559851 36.08802,24.5559851 C35.79192,24.5559851 35.54982,24.616553 35.36442,24.7376888 C35.17722,24.8588246 35.03772,25.0211801 34.94592,25.2255967 L34.94592,28.545053 L34.09002,28.545053 L34.09002,23.868708 L34.92252,23.868708 L34.93602,24.4087716 C35.06562,24.216132 35.22762,24.0638711 35.42202,23.9511476 C35.61552,23.8392652 35.85132,23.7829035 36.12942,23.7829035 C36.19062,23.7829035 36.26172,23.788792 36.34182,23.8022515 C36.42192,23.8148698 36.47772,23.8283294 36.50832,23.8426301 L36.50832,24.5862691 Z" id="Fill-1046" fill="#000100" mask="url(#mask-2)"></path>
                                        <path d="M40.38246,28.0822135 C40.22586,28.2546637 40.02606,28.3901002 39.78576,28.4859993 C39.54546,28.5827397 39.25566,28.6306893 38.91726,28.6306893 C38.66976,28.6306893 38.44656,28.5987229 38.24676,28.5339489 C38.04606,28.4691749 37.87326,28.366546 37.72836,28.2269034 C37.58346,28.0872608 37.47186,27.9072396 37.39356,27.6868398 C37.31526,27.46644 37.27566,27.2006143 37.27566,26.8893627 L37.27566,23.8693809 L38.13066,23.8693809 L38.13066,26.8977749 C38.13066,27.1080801 38.15676,27.2822127 38.20986,27.4193317 C38.26206,27.5556094 38.33136,27.6641269 38.41776,27.7432016 C38.50416,27.8222763 38.60316,27.8769557 38.71386,27.9072396 C38.82456,27.9375235 38.93796,27.9526655 39.05586,27.9526655 C39.40416,27.9526655 39.68406,27.8904152 39.89466,27.7667558 C40.10616,27.6422551 40.26096,27.4773759 40.35906,27.2695944 L40.35906,23.8693809 L41.21496,23.8693809 L41.21496,28.5448848 L40.40136,28.5448848 L40.38246,28.0822135 Z" id="Fill-1047" fill="#000100" mask="url(#mask-2)"></path>
                                    </g>
                                </g>
                            </g>
                        </g>
                    </g>
                </g>
            </g>
        </g>
    </g>
</svg>