<?xml version="1.0" encoding="UTF-8" standalone="no"?>
<svg width="132px" height="63px" viewBox="0 0 132 63" version="1.1" xmlns="http://www.w3.org/2000/svg" xmlns:xlink="http://www.w3.org/1999/xlink">
    <!-- Generator: Sketch 3.8.3 (29802) - http://www.bohemiancoding.com/sketch -->
    <title>Group 12</title>
    <desc>Created with Sketch.</desc>
    <defs>
        <polygon id="path-1" points="0 76.7887842 145.95542 76.7887842 145.95542 0.00223874006 0 0.00223874006"></polygon>
    </defs>
    <g id="V2" stroke="none" stroke-width="1" fill="none" fill-rule="evenodd">
        <g id="Desktop-1240-Copy-3" transform="translate(-510.000000, -1680.000000)">
            <g id="Group-11" transform="translate(-7.000000, 1523.000000)">
                <g id="partners">
                    <g id="Group-14" transform="translate(0.000000, 59.000000)">
                        <g id="Group-86" transform="translate(510.000000, 62.000000)">
                            <g id="%d0%91%d0%b0%d0%bd%d0%bd%d0%b5%d1%80%20%d0%a0%d0%9e%d0%a1%d0%93%d0%9e%d0%a1%d0%a1%d0%a2%d0%a0%d0%90%d0%a5%20%d0%a7%d0%a0%d0%a4%20CMYK" transform="translate(0.000000, 30.000000)">
                                <g id="Group-12">
                                    <path d="M103.593999,53.5303122 L113.351926,53.5303122 L113.351926,63.7479219 L106.707477,63.7479219 L106.707477,68.1262258 L103.593999,68.1262258 L103.593999,53.5303122 Z M106.707477,60.6190587 L110.237111,60.6190587 L110.237111,56.6573843 L106.707477,56.6573843 L106.707477,60.6190587 Z M44.1468113,53.5303122 L52.7630403,53.5303122 L52.7630403,56.6573843 L47.2602892,56.6573843 L47.2602892,68.1262258 L44.1468113,68.1262258 L44.1468113,53.5303122 Z M31.9055472,53.5303122 L41.6636968,53.5303122 L41.6636968,58.0767455 L38.5486586,58.0767455 L38.5486586,56.6573843 L35.0205853,56.6573843 L35.0205853,64.9975866 L38.5486586,64.9975866 L38.5486586,63.5802402 L41.6636968,63.5802402 L41.6636968,68.1262258 L31.9055472,68.1262258 L31.9055472,53.5303122 Z M55.1043899,68.1262258 L64.8609792,68.1262258 L64.8609792,53.5303122 L55.1043899,53.5303122 L55.1043899,68.1262258 Z M58.2176449,64.9975866 L61.7475014,64.9975866 L61.7475014,56.6573843 L58.2176449,56.6573843 L58.2176449,64.9975866 Z M19.5691044,68.1262258 L29.3274769,68.1262258 L29.3274769,53.5303122 L19.5691044,53.5303122 L19.5691044,68.1262258 Z M22.6821365,64.9975866 L26.2137762,64.9975866 L26.2137762,56.6573843 L22.6821365,56.6573843 L22.6821365,64.9975866 Z M7.28259145,53.5303122 L17.0391808,53.5303122 L17.0391808,63.7479219 L10.3942861,63.7479219 L10.3942861,68.1262258 L7.28259145,68.1262258 L7.28259145,53.5303122 Z M10.3942861,60.6190587 L13.9241426,60.6190587 L13.9241426,56.6573843 L10.3942861,56.6573843 L10.3942861,60.6190587 Z M135.14694,53.5303122 L138.468607,53.5303122 L135.994631,60.7650246 L138.673453,68.1262258 L135.353346,68.1262258 L133.443086,62.3305755 L132.612112,62.3305755 L130.70319,68.1262258 L127.381746,68.1262258 L130.058784,60.7650246 L127.589935,53.5303122 L130.908036,53.5303122 L132.612112,59.2019363 L133.443086,59.2019363 L135.14694,53.5303122 Z M91.5914617,53.5303122 L101.347828,53.5303122 L101.347828,56.6573843 L98.0246006,56.6573843 L98.0246006,68.1262258 L94.9111227,68.1262258 L94.9111227,56.6573843 L91.5914617,56.6573843 L91.5914617,53.5303122 Z M79.6820968,53.5303122 L89.4406922,53.5303122 L89.4406922,58.0767455 L86.3254311,58.0767455 L86.3254311,56.6573843 L82.7953518,56.6573843 L82.7953518,64.9975866 L86.3254311,64.9975866 L86.3254311,63.5802402 L89.4406922,63.5802402 L89.4406922,68.1262258 L79.6820968,68.1262258 L79.6820968,53.5303122 Z M67.4390495,53.5303122 L77.195193,53.5303122 L77.195193,58.0767455 L74.0821609,58.0767455 L74.0821609,56.6573843 L70.5525273,56.6573843 L70.5525273,64.9975866 L74.0821609,64.9975866 L74.0821609,63.5802402 L77.195193,63.5802402 L77.195193,68.1262258 L67.4390495,68.1262258 L67.4390495,53.5303122 Z M119.489053,56.6573843 L119.030991,61.5584341 L121.916219,61.5584341 L121.460164,56.6573843 L119.489053,56.6573843 Z M116.749602,53.5303122 L124.199837,53.5303122 L125.613251,68.1262258 L122.499773,68.1262258 L122.187489,64.6855062 L118.76039,64.6855062 L118.449443,68.1262258 L115.336188,68.1262258 L116.749602,53.5303122 Z" id="Fill-2" fill="#7E1B1F"></path>
                                    <g id="Group-22" transform="translate(0.000000, 0.221635)">
                                        <path d="M68.1963102,12.0655776 C68.3962522,12.9863714 69.1224629,13.7256034 70.0434889,13.9575369 L70.0434889,14.9779546 L75.9240568,14.9779546 L75.9240568,13.9517161 C76.8562278,13.7157529 77.5770889,12.9686854 77.7672232,12.0304294 C77.7928568,12.4479544 77.9927988,12.777497 78.3075347,13.0506233 L78.3075347,13.5832195 L77.4683133,13.5832195 C77.5440995,14.3907331 77.8895957,14.8277351 78.3732904,15.0636983 L75.8993148,17.6736215 C74.924124,17.7712306 73.960524,17.841527 72.9837728,17.841527 C72.0030095,17.841527 71.0358431,17.7712306 70.072466,17.6736215 L67.5942553,15.0636983 C68.0739377,14.8277351 68.4254522,14.3907331 68.4992324,13.5832195 L67.6604568,13.5832195 L67.6604568,13.0506233 C67.9673911,12.7851087 68.165327,12.4654166 68.1963102,12.0655776 L68.1963102,12.0655776 Z M80.5097942,34.3363399 C80.5583866,34.394771 80.6167866,34.455217 80.6789759,34.5234986 C81.4497667,35.3507131 83.0695866,35.53026 84.1785179,34.4688733 C85.1454614,34.7574469 86.0976934,34.3813386 86.7111163,33.7377008 C87.6646858,33.9403068 88.571669,33.5288264 89.1447469,32.8715323 C89.9471896,32.978768 90.6985881,32.6646727 91.22664,32.1497625 C93.6564812,33.8017288 96.2532751,35.2316121 98.9800202,36.4215024 C99.1235682,36.4859781 99.2713515,36.5345588 99.4108873,36.5757516 L75.3627927,36.5757516 C77.1558064,35.9983806 78.7680476,35.2257914 80.5097942,34.3363399 L80.5097942,34.3363399 Z M54.7293148,32.1497625 C55.263385,32.6646727 56.0150064,32.978768 56.8170034,32.8715323 C57.3880751,33.5288264 58.2932751,33.9403068 59.2448385,33.7377008 C59.8624965,34.3813386 60.816066,34.7574469 61.7814492,34.4688733 C62.8903805,35.53026 64.5122064,35.3507131 65.2769789,34.5234986 C65.3474156,34.455217 65.3937789,34.394771 65.4499499,34.3363399 C67.1105606,35.1868373 68.7925698,35.9943508 70.5679744,36.5757516 L46.5466278,36.5757516 C46.6846034,36.5345588 46.8321637,36.4859781 46.9759347,36.4215024 C49.7066919,35.2316121 52.3034858,33.8017288 54.7293148,32.1497625 L54.7293148,32.1497625 Z M120.074457,29.0520179 C119.466161,29.0753008 118.85831,29.0932107 118.242435,29.0932107 C109.003867,29.0932107 100.568634,25.6849528 94.1499835,20.0748941 C94.0102247,19.9501963 93.4235499,19.4272266 93.4235499,19.4272266 C91.6247408,17.8316766 89.6750278,16.6162646 87.093614,16.7841701 C85.3380476,16.8992413 83.7688263,17.640712 83.5434736,19.9479575 C83.4777179,20.633012 83.1863866,21.0697902 82.3099408,21.3897061 C82.2927774,21.3955269 82.2635774,21.4033625 82.244185,21.4114219 C81.8891041,21.530299 81.5213179,21.6220874 81.1328018,21.6843243 L81.1328018,19.415809 C80.7215499,19.3902874 80.3640171,19.3766311 80.0301118,19.3533482 L81.1328018,17.4083308 C81.4190064,17.5157903 81.7257179,17.5742214 82.0478095,17.5742214 C82.8716507,17.5742214 83.2637331,17.3149753 83.892982,16.8562575 L82.6425087,16.2457531 L82.716066,16.2457531 C83.2599438,16.2457531 83.8423835,16.3668689 84.3182766,16.6534277 C84.3806889,16.6923817 84.6327896,16.8858089 84.6327896,16.8858089 C84.7415652,16.6827552 84.8447682,16.485746 84.8837759,16.2515738 C85.0915194,15.0227294 83.9226278,14.4959539 82.8830186,14.3222276 L83.3043011,13.5753839 L82.5644934,13.5753839 L82.5644934,13.0506233 C82.9044171,12.7560051 83.1027988,12.3969112 83.1027988,11.9368501 C83.1027988,11.142769 82.4572782,10.4991312 81.655727,10.4991312 L81.3334125,10.4991312 L81.2186186,10.961431 L81.2208476,10.9262828 C81.2208476,10.5517416 80.9567102,10.2416761 80.6009606,10.1617531 L80.6009606,9.93541647 L80.995495,9.93541647 L80.995495,9.61348565 L80.6009606,9.61348565 L80.6009606,9.22148226 L80.2652721,9.22148226 L80.2652721,9.61348565 L79.8765331,9.61348565 L79.8765331,9.93541647 L80.2652721,9.93541647 L80.2652721,10.1617531 C79.9133118,10.2416761 79.647614,10.5537565 79.647614,10.9262828 L79.647614,10.961431 L79.530814,10.4991312 L79.2163011,10.4991312 C78.5518339,10.4991312 77.9845515,10.9439689 77.8175988,11.5484287 L77.8175988,11.5309665 C77.8175988,10.3175694 77.0468079,9.48072836 75.9862461,9.13954438 L76.1244446,8.6226193 L74.5648079,8.6226193 L74.4517973,9.028279 L73.6827896,9.028279 C73.8107347,8.87223881 73.8867438,8.67321482 73.8867438,8.45672866 C73.8867438,8.03920364 73.5971957,7.68436334 73.2091255,7.58675427 L73.2091255,7.32526943 L73.7396293,7.32526943 L73.7396293,6.86520835 L73.2091255,6.86520835 L73.2091255,6.34805939 L72.7526247,6.34805939 L72.7526247,6.86520835 L72.2223438,6.86520835 L72.2223438,7.32526943 L72.7526247,7.32526943 L72.7526247,7.58675427 C72.356753,7.68436334 72.069211,8.03920364 72.069211,8.45672866 C72.069211,8.67321482 72.1507927,8.87223881 72.2767316,9.028279 L71.5037118,9.028279 L71.3951591,8.6226193 L69.8317331,8.6226193 L69.9654736,9.1238732 C68.9151652,9.42431211 68.1481637,10.3818212 68.1401392,11.5152953 C67.9613728,10.9262828 67.4021148,10.4991312 66.7552568,10.4991312 L66.4351713,10.4991312 L66.3201545,10.961431 L66.3201545,10.9262828 C66.3201545,10.5537565 66.0522278,10.2416761 65.694695,10.1617531 L65.694695,9.93541647 L66.0927957,9.93541647 L66.0927957,9.61348565 L65.694695,9.61348565 L65.694695,9.22148226 L65.366585,9.22148226 L65.366585,9.61348565 L64.9760629,9.61348565 L64.9760629,9.93541647 L65.366585,9.93541647 L65.366585,10.1617531 C65.0110583,10.2416761 64.7393423,10.5517416 64.7393423,10.9262828 L64.7449148,10.961431 L64.6325728,10.4991312 L64.3178369,10.4991312 C63.5138339,10.4991312 62.8651927,11.142769 62.8651927,11.9368501 C62.8651927,12.3969112 63.0669179,12.7560051 63.4070644,13.0506233 L63.4070644,13.5753839 L62.6670339,13.5753839 L63.0883163,14.3222276 C62.0453637,14.4959539 60.8800385,15.0227294 61.0859988,16.2515738 C61.1230003,16.485746 61.2219682,16.6827552 61.3307438,16.8858089 C61.3307438,16.8858089 61.5852965,16.6923817 61.6532812,16.6534277 C62.1173606,16.3668689 62.7078247,16.2457531 63.2494736,16.2457531 L63.3234766,16.2457531 L62.0707744,16.8562575 C62.7078247,17.3149753 63.1019133,17.5742214 63.9197362,17.5742214 C64.2420507,17.5742214 64.5525515,17.5157903 64.8285026,17.4083308 L65.9316385,19.3511094 C65.6033056,19.3746162 65.2422064,19.3902874 64.820924,19.415809 L64.820924,21.6843243 C64.4382034,21.6220874 64.0672965,21.530299 63.7137759,21.4114219 C63.7001789,21.4033625 63.6689728,21.3955269 63.6477973,21.3897061 C62.7778156,21.0697902 62.4862614,20.633012 62.4124812,19.9479575 C62.1911408,17.640712 60.6199133,16.8992413 58.8565453,16.7841701 C56.283156,16.6162646 54.3309911,17.8316766 52.534411,19.4272266 C52.534411,19.4272266 51.9479591,19.9501963 51.8084232,20.0748941 C45.3873209,25.6849528 36.9543163,29.0932107 27.7112904,29.0932107 C27.1016568,29.0932107 26.4915774,29.0753008 25.883727,29.0520179 L25.7459744,29.0479882 L25.7439682,29.1827603 C25.7341606,30.7178644 26.4666125,32.1123756 28.3503469,32.0873017 C28.9853911,32.0716305 29.6244476,32.0481237 30.2479011,32.0091696 C30.5508232,33.1542852 31.2792629,33.6264355 32.1396598,33.7668045 C32.5767682,33.835086 33.0486492,33.8194149 33.5147347,33.7706103 C33.93624,33.7258355 34.3537331,33.6497184 34.7460385,33.5832278 C35.1539469,34.6600617 35.8957606,35.0639305 36.7465728,35.1263913 C37.17744,35.1633305 37.6301515,35.1089291 38.0750614,35.0171408 C38.4769515,34.9412475 38.8808476,34.8299821 39.2577728,34.7245375 C39.7606369,35.7391345 40.5200598,36.0783036 41.3534858,36.072259 C41.7767744,36.070468 42.2176721,35.9771125 42.6449728,35.8557728 C43.0274705,35.7391345 43.4139805,35.5983177 43.7808751,35.4637694 C44.1036354,35.9771125 44.6047163,36.3962047 45.2143499,36.5757516 L39.4093453,36.5757516 L39.0422278,36.5757516 L39.0422278,36.9442482 C39.0382156,37.1121537 38.9742431,37.9742925 37.9914736,37.9742925 L37.624356,37.9742925 L37.624356,45.187513 L37.624356,45.5504128 L37.9914736,45.5582484 C38.1682339,45.5602632 39.0422278,45.6171272 39.0422278,46.5880688 L39.0422278,46.9628339 L106.547055,46.9628339 L106.917516,46.9588042 L106.923758,46.5918747 C106.923758,46.4163574 106.983941,45.5582484 107.960692,45.5582484 L108.337617,45.5582484 L108.337617,37.9742925 L107.96671,37.9742925 C107.791956,37.9742925 106.923758,37.9098168 106.923758,36.9442482 L106.923758,36.5757516 L100.741605,36.5757516 C101.355474,36.3962047 101.859898,35.9771125 102.182658,35.4637694 C102.545764,35.5983177 102.928484,35.7391345 103.315217,35.8557728 C103.742295,35.9771125 104.183193,36.070468 104.600909,36.072259 C105.437455,36.0783036 106.197324,35.7391345 106.694393,34.7245375 C107.08068,34.8299821 107.479003,34.9412475 107.887135,35.0171408 C108.329816,35.1089291 108.78431,35.1633305 109.213617,35.1263913 C110.054176,35.0639305 110.798442,34.6600617 111.2117,33.5832278 C111.602222,33.6497184 112.027739,33.7258355 112.441666,33.7706103 C112.909312,33.8194149 113.385205,33.835086 113.818301,33.7668045 C114.682487,33.6264355 115.41271,33.1542852 115.707831,32.0091696 C116.339086,32.0481237 116.970564,32.0716305 117.60806,32.0873017 C119.493355,32.1123756 120.221571,30.7178644 120.211987,29.1827603 L120.211987,29.0479882 L120.074457,29.0520179 L120.074457,29.0520179 Z" id="Fill-3" fill="#FFFFFF"></path>
                                        <path d="M116.496766,31.2778628 C114.800937,31.1509262 112.988976,30.9832446 111.037257,30.61833 C108.129517,30.079913 104.631758,29.1555372 99.850091,26.6994155 C99.9764757,26.6546407 100.502744,26.5532258 101.151163,25.7730249 C102.124347,26.2373395 105.11367,27.8366955 109.753572,28.8920375 C112.435291,29.5123924 115.659551,29.9805129 119.394476,29.8576061 C119.163105,31.2895043 117.755264,31.375248 116.496766,31.2778628 L116.496766,31.2778628 Z M112.387144,32.9786336 C111.891636,32.9025165 105.195251,32.1263453 98.0414742,28.0923596 C98.5102345,27.9497518 98.9297337,27.6710287 99.3550284,27.1849982 C103.262256,29.3482927 108.45406,31.2250285 114.911718,31.8256825 C114.468815,33.1854932 113.4165,33.1268382 112.387144,32.9786336 L112.387144,32.9786336 Z M108.42486,34.3559065 C107.638244,34.2115078 106.164424,33.8253251 103.45083,32.8635624 C101.35534,32.1203007 98.8167231,30.9516784 96.1289856,29.3892617 C96.7174437,29.2471017 97.2149582,28.8141294 97.4710711,28.5154814 C99.3238223,29.6077627 104.021679,32.0929881 110.442781,33.3122059 C110.236821,33.9247252 109.556973,34.5587364 108.42486,34.3559065 L108.42486,34.3559065 Z M103.880137,35.2317016 C103.068332,35.0172303 101.934436,34.5529156 101.199978,34.2406114 C98.8089215,33.2184027 96.3931231,32.0461984 94.1264452,30.6046737 C94.6491475,30.4757222 95.0505918,30.2050586 95.4747719,29.7620119 C96.705407,30.4837817 100.564711,32.8440854 105.967825,34.3812043 C105.494161,35.2220751 104.816766,35.4795302 103.880137,35.2317016 L103.880137,35.2317016 Z M99.3162437,35.7134785 C98.0147261,35.1477489 97.1039536,34.6816432 96.8418223,34.5529156 C96.5522742,34.4141138 95.0958406,33.7335368 92.0017551,31.7262824 C92.2502895,31.6716572 92.860146,31.4824836 93.3808421,30.916754 C97.1039536,33.3023554 99.9608727,34.4436651 101.479496,35.0602141 C101.044616,35.6474357 100.481123,36.222568 99.3162437,35.7134785 L99.3162437,35.7134785 Z M106.199196,37.3150731 C106.352552,38.19848 107.032399,38.5656333 107.587645,38.6726451 L107.587645,44.8464186 C106.694259,44.9964142 106.321569,45.6671407 106.210787,46.2178708 L39.7569368,46.2178708 C39.6053643,45.3380459 38.9235108,44.9668628 38.368265,44.8558213 L38.368265,38.6865253 C39.257862,38.5398878 39.6325582,37.8593108 39.7451231,37.3150731 L106.199196,37.3150731 Z M44.4784208,35.0602141 C45.9950376,34.4436651 48.8519566,33.3023554 52.5772971,30.916754 C53.0997765,31.4824836 53.709633,31.6716572 53.9501429,31.7262824 C50.8605154,33.7335368 49.4094315,34.4141138 49.1238956,34.5529156 C48.8577521,34.6816432 47.9431902,35.1477489 46.6401124,35.7134785 C45.4709979,36.222568 44.9193185,35.6474357 44.4784208,35.0602141 L44.4784208,35.0602141 Z M42.0739902,35.2317016 C41.1418192,35.4795302 40.4637551,35.2220751 39.9918742,34.3812043 C45.3871872,32.8440854 49.2505032,30.4837817 50.4833673,29.7620119 C50.9066559,30.2050586 51.3092147,30.4757222 51.8372666,30.6046737 C49.5650162,32.0461984 47.1489948,33.2184027 44.754149,34.2406114 C44.0277154,34.5529156 42.8933734,35.0172303 42.0739902,35.2317016 L42.0739902,35.2317016 Z M37.535062,34.3559065 C36.4009429,34.5587364 35.713294,33.9247252 35.5151353,33.3122059 C41.9340085,32.0929881 46.6323108,29.6077627 48.4890742,28.5154814 C48.743404,28.8141294 49.2462681,29.2471017 49.821575,29.3892617 C47.1389643,30.9516784 44.6045826,32.1203007 42.5030742,32.8635624 C39.7997337,33.8253251 38.3194498,34.2115078 37.535062,34.3559065 L37.535062,34.3559065 Z M33.5730009,32.9786336 C32.5434223,33.1268382 31.4850895,33.1854932 31.0461979,31.8256825 C37.5000666,31.2250285 42.6934315,29.3482927 46.6031108,27.1849982 C47.0246162,27.6710287 47.4438925,27.9497518 47.9159963,28.0923596 C40.7611047,32.1263453 34.0662803,32.9025165 33.5730009,32.9786336 L33.5730009,32.9786336 Z M29.4593673,31.2778628 C28.206665,31.375248 26.7928055,31.2895043 26.5656696,29.8576061 C30.2963597,29.9805129 33.5224024,29.5123924 36.200778,28.8920375 C40.8484818,27.8366955 43.8315627,26.2373395 44.8007353,25.7730249 C45.4513826,26.5532258 45.9756452,26.6546407 46.1076024,26.6994155 C41.3261582,29.1555372 37.8341948,30.079913 34.9168696,30.61833 C32.9669337,30.9832446 31.1529673,31.1509262 29.4593673,31.2778628 L29.4593673,31.2778628 Z M50.3745918,22.2579791 C50.6251322,22.4352873 51.0100818,22.8254997 51.8218864,22.9481826 C49.4288238,24.7935761 48.2171353,25.5446734 47.4730925,25.9230204 C46.4689246,26.4457662 45.7059353,25.8822754 45.3677948,25.4743769 C46.6245093,24.8090234 49.1357093,23.2642927 50.3745918,22.2579791 L50.3745918,22.2579791 Z M52.3325521,20.6622052 C52.5813093,20.4416893 52.8180299,20.2249792 53.0647811,20.0008814 C54.5020452,18.7270383 55.989462,17.6658755 58.159178,17.5644605 C59.9051597,17.4807317 61.4277948,17.9604937 61.6299658,20.0185674 C61.7287108,21.0327166 62.2529734,21.7056819 63.38152,22.1270128 C63.4145093,22.1366394 63.4555231,22.1502957 63.4887353,22.1583552 C63.911578,22.2987242 64.3622834,22.4079747 64.8210131,22.4742414 L64.8210131,24.9769289 C64.2303261,25.650118 63.6184635,26.309427 62.966033,26.9725418 C62.2572085,27.6123737 61.4101856,27.5420773 60.7889612,27.1032842 C61.8082864,26.1318949 62.7872666,25.1253574 63.7098528,24.0639707 C63.4804879,23.9997189 63.2495627,23.9294224 63.0184147,23.855544 L63.0146253,23.855544 C62.3075841,24.6473864 61.5677765,25.4237814 60.7811597,26.1963706 C60.0605215,26.8205313 59.2137215,26.728743 58.6058711,26.2760698 C58.833007,26.0732399 59.0527872,25.8643655 59.2681093,25.6579536 C60.0565093,24.9167068 60.8101368,24.1459086 61.5423658,23.3482455 C61.3152299,23.2663076 61.0976788,23.1823549 60.8763383,23.0925814 C60.6663658,23.3247387 60.4530498,23.5530902 60.2375047,23.7733822 C59.738207,24.2885163 59.2273185,24.7935761 58.6950315,25.2986358 C57.9590131,25.8977227 57.1180085,25.7942929 56.523978,25.3340079 C56.7841032,25.1076713 57.0326376,24.8793198 57.2851841,24.6511922 C58.0385887,23.9607648 58.7672513,23.2428008 59.4700574,22.4977481 C59.2605307,22.4079747 59.0467689,22.3065597 58.833007,22.2071597 C58.4716849,22.5855068 58.1047902,22.9580331 57.7316544,23.3229477 C57.3997551,23.6446547 57.054036,23.9647945 56.7101002,24.2844866 C55.9607078,24.8696932 55.131294,24.7508161 54.542836,24.2786659 C54.8321612,24.0348671 55.115691,23.7832327 55.3954315,23.5336132 C56.121865,22.8917664 56.8206589,22.2246219 57.4967169,21.5301647 C57.296775,21.4227052 57.0908147,21.3154695 56.8868605,21.1986073 C56.3568024,21.742845 55.8129246,22.2673818 55.2534437,22.7746803 C55.1136849,22.9054227 54.97192,23.0341503 54.8203475,23.1628778 C54.0727383,23.7362191 53.2377521,23.5998799 52.6646742,23.1219089 C53.6920238,22.2792471 54.6823719,21.3877808 55.6225673,20.4477339 C55.4284208,20.3304239 55.2380635,20.2097558 55.0419108,20.0808044 C54.3872513,20.7284719 53.7270192,21.3488267 53.0375872,21.945451 C52.2781643,22.4977481 51.4505337,22.3513345 50.8796849,21.8677667 C51.3729643,21.4775543 51.8606711,21.0774914 52.3325521,20.6622052 L52.3325521,20.6622052 Z M57.4677398,31.792773 C56.8614498,32.2373868 56.0518742,32.2841765 55.3158559,31.5859134 C56.8558773,30.5285565 58.8894009,28.8685307 60.3208696,27.5420773 L60.3246589,27.5382714 C60.7889612,27.8776644 61.2960605,28.0825091 61.818094,28.1001952 C60.9463292,28.9504686 58.8737979,30.7685494 57.4677398,31.792773 L57.4677398,31.792773 Z M64.1255627,28.7731604 C62.0260605,30.8406369 60.8567231,31.7497892 59.7636177,32.6645384 C59.3184849,33.0370647 58.4349063,33.2866843 57.5745093,32.5360347 C59.4740696,31.1099573 61.1538498,29.6666416 62.6185307,28.2501907 L62.6261093,28.2423552 C63.0942009,28.5680918 63.5952818,28.7653248 64.1255627,28.7731604 L64.1255627,28.7731604 Z M63.0770376,27.7997562 C63.6770864,27.2026843 64.2577429,26.5903889 64.8210131,25.9677952 L64.8210131,27.9284838 C64.2265368,28.2423552 63.5799017,28.1371344 63.0770376,27.7997562 L63.0770376,27.7997562 Z M64.8210131,31.9333659 L64.8210131,33.8700999 C64.7878009,33.8994274 64.7568177,33.9325608 64.7195933,33.967709 C63.9372116,34.7400743 62.909862,34.426203 62.4533612,34.0203194 C63.1561673,33.4467542 64.0167872,32.6860303 64.8210131,31.9333659 L64.8210131,31.9333659 Z M62.1560116,33.411606 C61.3852208,33.9912158 60.5439933,33.8448022 59.9653429,33.3435483 C61.5927414,32.0815705 63.3719353,30.4837817 64.8210131,29.0149443 L64.8210131,31.0201838 C63.9702009,31.8335181 63.0826101,32.631405 62.1560116,33.411606 L62.1560116,33.411606 Z M58.1259658,26.6994155 C58.5517063,27.027167 59.075746,27.2767866 59.6138284,27.2964875 C58.3281368,28.4785422 56.2384421,30.1345383 55.2710528,30.8135481 C54.513636,31.3519651 53.608436,31.0846595 53.1073551,30.5697493 C54.9855169,29.2997121 56.2070131,28.381157 58.1259658,26.6994155 L58.1259658,26.6994155 Z M56.0400605,25.7495181 C56.508375,26.1182386 57.0192635,26.3385306 57.5067475,26.3678581 C56.5277673,27.2320118 54.585633,28.7926375 53.1735566,29.7248488 C52.404549,30.2402068 51.5149521,29.9628269 51.0196666,29.4286635 C53.049178,28.1624321 55.1509093,26.5277041 56.0400605,25.7495181 L56.0400605,25.7495181 Z M47.1583566,26.8731417 C49.5063933,25.5310171 51.1438223,24.3294853 52.1618101,23.5141361 C52.6004788,23.8808418 53.062775,24.1324761 53.6184666,24.1909073 C51.5089337,25.850933 50.4833673,26.5064361 49.2832696,27.2788014 C48.5936147,27.7178184 47.6460635,27.4798403 47.1583566,26.8731417 L47.1583566,26.8731417 Z M54.0495566,24.6843256 C54.5058345,25.0530461 54.9915353,25.2910241 55.5100024,25.3340079 C54.15432,26.4733028 52.5906711,27.6123737 51.1785948,28.5506297 C50.4543902,29.0306155 49.5199902,28.7476388 49.0365185,28.1953416 C49.5688055,27.8718437 51.4913246,26.7580705 54.0495566,24.6843256 L54.0495566,24.6843256 Z M65.2770681,34.5235882 C65.3472818,34.4553066 65.3936452,34.3946367 65.4500391,34.3364295 C67.1106498,35.186703 68.7926589,35.9944404 70.5678406,36.5758412 L46.5467169,36.5758412 C46.6846925,36.5346484 46.8320299,36.4860677 46.9760238,36.421592 C49.7065582,35.2317016 52.303575,33.8018184 54.7291811,32.1498521 C55.2634742,32.6645384 56.0150956,32.9786336 56.8170925,32.871398 C57.3881643,33.5286921 58.2931414,33.9403964 59.2447047,33.7375665 C59.8623627,34.3812043 60.8159322,34.7575365 61.7813154,34.4689629 C62.8904696,35.5303496 64.5120727,35.3505787 65.2770681,34.5235882 L65.2770681,34.5235882 Z M65.6132024,20.1549067 C67.3825887,20.0749836 68.4293307,19.7022334 69.6762376,18.4189876 C70.7755841,18.5454764 71.8669063,18.6218175 72.9782895,18.6218175 L72.983862,18.6218175 C74.0849918,18.6218175 75.1803261,18.5454764 76.2854681,18.4189876 C77.5263566,19.7022334 78.5846895,20.0749836 80.3482803,20.1549067 L80.3482803,33.5385425 C79.6550589,33.8936067 76.1885063,35.7855659 72.983862,36.3884586 C69.884204,35.8148934 66.7163383,34.0984514 65.6406192,33.5521988 C65.6169918,33.5461542 65.6132024,33.5385425 65.6132024,33.5385425 L65.6132024,20.1549067 Z M65.9181307,18.3974957 C66.0384971,18.3954809 66.1608696,18.3641385 66.2736574,18.2978718 C66.3900116,18.2374258 66.4892024,18.1476523 66.5589704,18.0384018 L67.2446131,19.1268772 C66.9980849,19.21083 66.7341704,19.2654552 66.4325856,19.3006035 L65.9181307,18.3974957 Z M65.5666162,17.7713201 L65.0129307,16.7938862 C65.2657002,16.7645587 65.4790162,16.7023217 65.6638009,16.6163541 L66.2172635,17.4923731 C66.3900116,17.8297512 65.7899627,18.1516821 65.5666162,17.7713201 L65.5666162,17.7713201 Z M64.7646192,16.358899 L64.185746,15.3348993 L64.3061124,15.3348993 L64.5994498,15.3348993 L64.9003658,15.8343622 C65.1781002,15.8283176 65.4908299,15.6528004 65.6033948,15.3348993 C65.7551902,15.3348993 65.9025276,15.3348993 66.0500879,15.3290786 C65.9705124,15.8692866 65.6169918,16.3159152 64.7646192,16.358899 L64.7646192,16.358899 Z M63.9198253,17.1178319 C63.5721002,17.1178319 63.282775,17.0649976 62.9912208,16.916793 L64.2167292,16.3199449 L64.4926803,16.8194078 L64.6110406,17.0065665 C64.3914834,17.0806688 64.1645704,17.1178319 63.9198253,17.1178319 L63.9198253,17.1178319 Z M63.2495627,15.7875725 C62.6669002,15.7875725 62.0590498,15.9122704 61.5423658,16.1932322 C61.3716238,15.182665 62.536949,14.845063 63.325349,14.7458868 L63.5894864,15.2140073 L63.9175963,15.7875725 L63.2495627,15.7875725 Z M63.3233429,11.9367158 C63.3233429,11.4083731 63.7468544,10.9769679 64.2711169,10.955476 L64.6966345,12.6428144 L63.6362956,12.6428144 C63.4439322,12.4655062 63.3233429,12.2138718 63.3233429,11.9367158 L63.3233429,11.9367158 Z M67.200033,13.0992935 L67.200033,13.5830852 L63.8672208,13.5752496 L63.8672208,13.0992935 L67.200033,13.0992935 Z M65.5298376,11.7067972 C65.8463566,11.7067972 66.1180727,11.5290412 66.2466864,11.2657654 L65.8947261,12.6428144 L65.1705215,12.6428144 L64.8227963,11.2677802 C64.9509643,11.5290412 65.2191139,11.7067972 65.5298376,11.7067972 L65.5298376,11.7067972 Z M65.5298376,10.6064564 C65.7123933,10.6064564 65.8597307,10.7508552 65.8597307,10.9263724 C65.8597307,11.1059193 65.7123933,11.2521091 65.5298376,11.2521091 C65.3550834,11.2521091 65.2070773,11.1059193 65.2070773,10.9263724 C65.2070773,10.7508552 65.3550834,10.6064564 65.5298376,10.6064564 L65.5298376,10.6064564 Z M66.79792,10.955476 C67.3241887,10.9769679 67.7439108,11.4083731 67.7439108,11.9367158 C67.7439108,12.2138718 67.6233215,12.4655062 67.4331872,12.6428144 L66.3728482,12.6428144 L66.79792,10.955476 Z M68.0002467,17.1588008 C68.1072391,17.1411148 68.206207,17.1001458 68.3013856,17.035894 C68.4253185,16.9557471 68.5051169,16.8507502 68.5577215,16.7354551 L69.3715322,17.5978178 C69.1693612,17.8122891 68.9732085,18.0034775 68.7926589,18.1653384 L68.0002467,17.1588008 Z M67.3417979,17.6815466 C67.4525795,17.6054295 67.5419627,17.5080443 67.6001398,17.3967789 L68.4471627,18.4677922 C68.1787902,18.6762189 67.9282498,18.8362888 67.6759261,18.9533749 L66.9650956,17.8219156 C67.0950467,17.8044535 67.229233,17.7556489 67.3417979,17.6815466 L67.3417979,17.6815466 Z M67.1690498,16.8507502 C67.4427719,17.1937252 66.8231078,17.5879673 66.6055566,17.2463356 L66.5939658,17.2250675 L66.0347078,16.3452427 C66.1822681,16.2028588 66.2872544,16.0331623 66.3668299,15.8343622 L67.1690498,16.8507502 Z M67.1184513,15.2294547 L67.9866498,16.1383831 C67.9982406,16.1540543 68.0120605,16.1679345 68.0234284,16.1775611 C68.4021368,16.6026978 67.8254925,16.915002 67.543746,16.5854595 L66.5357887,15.3116164 C66.741749,15.2939304 66.9321063,15.2646029 67.1184513,15.2294547 L67.1184513,15.2294547 Z M66.3784208,14.8725995 L63.9216085,14.8725995 L63.4555231,14.0395643 L67.9536605,14.0395643 C67.6913063,14.6715606 66.970891,14.8725995 66.3784208,14.8725995 L66.3784208,14.8725995 Z M68.1963994,12.0656672 C68.3963414,12.9862371 69.1225521,13.7254691 70.043578,13.9576264 L70.043578,14.9778203 L75.924146,14.9778203 L75.924146,13.9518057 C76.856094,13.7158425 77.577178,12.9687749 77.7673124,12.0302951 C77.7927231,12.448044 77.9928879,12.7773627 78.3076238,13.0507128 L78.3076238,13.5830852 L77.4681795,13.5830852 C77.5439658,14.3905987 77.8896849,14.8278247 78.3733795,15.063564 L75.8991811,17.6737111 C74.9239902,17.7713201 73.9606131,17.8416166 72.983862,17.8416166 C72.0028757,17.8416166 71.0357093,17.7713201 70.0725551,17.6737111 L67.5943444,15.063564 C68.0740269,14.8278247 68.4253185,14.3905987 68.4993215,13.5830852 L67.660546,13.5830852 L67.660546,13.0507128 C67.9672574,12.7851982 68.1654162,12.4655062 68.1963994,12.0656672 L68.1963994,12.0656672 Z M70.0899414,9.5627558 L71.189065,13.5830852 L70.6768391,13.5830852 C69.5286773,13.5830852 68.6005185,12.6625153 68.6005185,11.5310561 C68.6005185,10.6006357 69.2295444,9.81259919 70.0899414,9.5627558 L70.0899414,9.5627558 Z M71.0415047,9.08097894 L72.2692421,13.5830852 L71.663175,13.5830852 L70.4318711,9.08097894 L71.0415047,9.08097894 Z M72.125694,9.47902692 L72.983862,12.5143107 L73.8324452,9.47902692 L74.3312971,9.47902692 L73.2092147,13.5830852 L72.7527139,13.5830852 L71.6301856,9.47902692 L72.125694,9.47902692 Z M73.4227536,9.23903399 L72.983862,10.815107 L72.5331566,9.23903399 C72.669349,9.31112142 72.8186925,9.35209036 72.983862,9.35209036 C73.1412299,9.35209036 73.2903505,9.31112142 73.4227536,9.23903399 L73.4227536,9.23903399 Z M72.983862,8.01780128 C73.228607,8.01780128 73.4227536,8.21100455 73.4227536,8.45681821 C73.4227536,8.700617 73.228607,8.89964099 72.983862,8.89964099 C72.7295322,8.89964099 72.5331566,8.700617 72.5331566,8.45681821 C72.5331566,8.21100455 72.7295322,8.01780128 72.983862,8.01780128 L72.983862,8.01780128 Z M74.9141826,9.08097894 L75.5244849,9.08097894 L74.2925124,13.5830852 L73.6866681,13.5830852 L74.9141826,9.08097894 Z M75.4660849,14.0395643 L75.4660849,14.521565 L70.5016391,14.521565 L70.5016391,14.0395643 L70.6768391,14.0395643 L71.3134437,14.0395643 L74.6424666,14.0395643 L75.2833063,14.0395643 L75.4660849,14.0395643 Z M77.3573979,11.5310561 C77.3573979,12.6625153 76.429462,13.5830852 75.2833063,13.5830852 L74.7643933,13.5830852 L75.865746,9.5627558 C76.728149,9.81259919 77.3573979,10.6006357 77.3573979,11.5310561 L77.3573979,11.5310561 Z M79.1740391,10.955476 L79.5950986,12.6428144 L78.538549,12.6428144 C78.3401673,12.4655062 78.2242589,12.2138718 78.2242589,11.9367158 C78.2242589,11.4083731 78.6435353,10.9769679 79.1740391,10.955476 L79.1740391,10.955476 Z M82.1045154,13.0992935 L82.1045154,13.5752496 L79.6633063,13.5830852 L78.7679139,13.5830852 L78.7679139,13.0992935 L82.1045154,13.0992935 Z M80.4338742,11.7067972 C80.7523994,11.7067972 81.0145307,11.5290412 81.1426986,11.2677802 L80.7969795,12.6428144 L80.0709918,12.6428144 L79.7230437,11.2657654 C79.8512116,11.5290412 80.1193612,11.7067972 80.4338742,11.7067972 L80.4338742,11.7067972 Z M80.4338742,10.6064564 C80.6144238,10.6064564 80.7642131,10.7508552 80.7642131,10.9263724 C80.7642131,11.1059193 80.6144238,11.2521091 80.4338742,11.2521091 C80.2531017,11.2521091 80.1075475,11.1059193 80.1075475,10.9263724 C80.1075475,10.7508552 80.2531017,10.6064564 80.4338742,10.6064564 L80.4338742,10.6064564 Z M81.6983902,10.955476 C82.2251047,10.9769679 82.642375,11.4083731 82.642375,11.9367158 C82.642375,12.2138718 82.525575,12.4655062 82.3294223,12.6428144 L81.2751017,12.6428144 L81.6983902,10.955476 Z M82.6405918,14.7458868 C83.4350101,14.845063 84.6018956,15.182665 84.4293704,16.1932322 C83.9064452,15.9122704 83.3043902,15.7875725 82.7159322,15.7875725 L82.0519108,15.7875725 L82.3764544,15.2140073 L82.6405918,14.7458868 Z M82.9780635,16.916793 C82.6833887,17.0649976 82.3956238,17.1178319 82.0476757,17.1178319 C81.8051597,17.1178319 81.5757948,17.0806688 81.3602498,17.0065665 L81.4732605,16.8194078 L81.750549,16.3199449 L82.9780635,16.916793 Z M79.9212024,15.3290786 C80.0609612,15.3348993 80.2143169,15.3348993 80.3638834,15.3348993 C80.4748879,15.6528004 80.7876177,15.8283176 81.063346,15.8343622 L81.366491,15.3348993 L81.6631719,15.3348993 L81.7875505,15.3348993 L81.2013215,16.358899 C80.3429307,16.3159152 80.000778,15.8692866 79.9212024,15.3290786 L79.9212024,15.3290786 Z M80.4066803,17.7713201 C80.1757551,18.1516821 79.5835078,17.8297512 79.7522437,17.4923731 L80.3077124,16.6163541 C80.488262,16.7023217 80.7040299,16.7645587 80.9505582,16.7938862 L80.4066803,17.7713201 Z M78.3691444,17.3967789 C78.4235322,17.5080443 78.5111322,17.6054295 78.6277093,17.6815466 C78.736262,17.7556489 78.8704482,17.8044535 79.0006223,17.8219156 L78.2839963,18.9591956 C78.0318956,18.8383036 77.7869276,18.6802486 77.518778,18.4677922 L78.3691444,17.3967789 Z M77.965694,17.1588008 L77.1708299,18.1711591 C76.9905032,18.0052685 76.7981398,17.8199008 76.5926253,17.6034146 L77.4117856,16.7354551 C77.4628299,16.8507502 77.5439658,16.9557471 77.6703505,17.035894 C77.7575047,17.1001458 77.860262,17.1411148 77.965694,17.1588008 L77.965694,17.1588008 Z M79.4299292,15.3116164 L78.4199658,16.5854595 C78.1424544,16.915002 77.5631353,16.6026978 77.9436269,16.1775611 C77.9554406,16.1679345 77.965694,16.1540543 77.9810742,16.1383831 L78.8532849,15.2294547 C79.0358406,15.2646029 79.2299872,15.2939304 79.4299292,15.3116164 L79.4299292,15.3116164 Z M79.5950986,15.8343622 C79.6764574,16.0331623 79.7892452,16.2028588 79.9347994,16.3452427 L79.3753185,17.2250675 L79.3637276,17.2463356 C79.1499658,17.5879673 78.522946,17.1937252 78.8006803,16.8507502 L79.5950986,15.8343622 Z M79.5893032,14.8725995 C78.9288482,14.8316305 78.2741887,14.6715606 78.0100513,14.0395643 L80.8321979,14.0395643 L82.5117551,14.0395643 L82.0443322,14.8743905 L79.5893032,14.8725995 Z M79.5324635,19.3023945 C79.2391261,19.2674701 78.9734284,19.2128448 78.722665,19.1288921 L79.4065246,18.0384018 C79.4823108,18.1476523 79.5835078,18.2374258 79.6902773,18.2978718 C79.8064085,18.3641385 79.9272208,18.3954809 80.0453582,18.3974957 L79.5324635,19.3023945 Z M80.679065,34.5235882 C81.4498559,35.3505787 83.0694528,35.5303496 84.178607,34.4689629 C85.1455505,34.7575365 86.0975597,34.3812043 86.7112055,33.7375665 C87.6645521,33.9403964 88.5717582,33.5286921 89.144836,32.871398 C89.9472788,32.9786336 90.6986773,32.6645384 91.2267292,32.1498521 C93.6563475,33.8018184 96.2533643,35.2317016 98.9801093,36.421592 C99.1236574,36.4860677 99.2714406,36.5346484 99.4109765,36.5758412 L75.3628818,36.5758412 C77.1558956,35.9982462 78.7679139,35.2258809 80.5098834,34.3364295 C80.5584757,34.3946367 80.6166528,34.4553066 80.679065,34.5235882 L80.679065,34.5235882 Z M81.132891,31.9333659 C81.9449185,32.6860303 82.8015261,33.4507839 83.504778,34.0203194 C83.0522895,34.426203 82.0209276,34.7400743 81.2365398,33.967709 C81.2013215,33.9325608 81.1701154,33.8994274 81.132891,33.8700999 L81.132891,31.9333659 Z M81.132891,29.0149443 C82.5917765,30.4837817 84.3607169,32.0815705 85.9921276,33.3435483 C85.4076818,33.8448022 84.5747017,33.9912158 83.7978925,33.411606 C82.8753063,32.631405 81.9935108,31.8335181 81.132891,31.0201838 L81.132891,29.0149443 Z M81.132891,25.9677952 C81.7059689,26.5903889 82.2866253,27.2026843 82.8828849,27.7997562 C82.3764544,28.1371344 81.7331627,28.2423552 81.132891,27.9284838 L81.132891,25.9677952 Z M81.132891,22.4742414 C81.5976391,22.4079747 82.0458925,22.2987242 82.4734162,22.1583552 C82.5023933,22.1502957 82.545636,22.1366394 82.5746131,22.1270128 C83.7067261,21.7056819 84.2289826,21.0327166 84.3283963,20.0185674 C84.5301215,17.9604937 86.0529795,17.4807317 87.7987383,17.5644605 C89.9662253,17.6658755 91.4523047,18.7270383 92.8933582,20.0008814 C93.1378803,20.2249792 93.3808421,20.4416893 93.6271475,20.6622052 C94.095462,21.0774914 94.5811627,21.4775543 95.0760024,21.8677667 C94.5051536,22.3513345 93.6801979,22.4977481 92.9203292,21.945451 C92.2389215,21.3488267 91.5628635,20.7284719 90.9162284,20.0808044 C90.7180696,20.2097558 90.5277124,20.3304239 90.3333429,20.4477339 C91.2713093,21.3877808 92.2658925,22.2792471 93.2994834,23.1219089 C92.716375,23.5998799 91.8831719,23.7362191 91.1315505,23.1628778 C90.9882253,23.0341503 90.8500269,22.9054227 90.7002376,22.7746803 C90.146775,22.2673818 89.6049032,21.742845 89.0710559,21.1986073 C88.857294,21.3154695 88.6593582,21.4227052 88.4669948,21.5301647 C89.1368116,22.2246219 89.8340452,22.8917664 90.5607017,23.5336132 C90.8417795,23.7832327 91.1217429,24.0348671 91.4173093,24.2786659 C90.8268452,24.7508161 89.991636,24.8696932 89.2455872,24.2844866 C88.9018742,23.9647945 88.5579383,23.6446547 88.226262,23.3229477 C87.8531261,22.9580331 87.4902437,22.5855068 87.1269154,22.2071597 C86.9113704,22.3065597 86.703404,22.4079747 86.4860757,22.4977481 C87.192894,23.2428008 87.9213337,23.9607648 88.6729551,24.6511922 C88.9237185,24.8793198 89.1798315,25.1076713 89.4321551,25.3340079 C88.8321063,25.7942929 87.9946681,25.8977227 87.2646681,25.2986358 C86.730375,24.7935761 86.2217154,24.2885163 85.7246467,23.7733822 C85.5113307,23.5530902 85.2991292,23.3247387 85.0875963,23.0925814 C84.8602376,23.1823549 84.6411261,23.2663076 84.4173337,23.3482455 C85.1455505,24.1459086 85.9034131,24.9167068 86.6878009,25.6579536 C86.9093643,25.8643655 87.1327108,26.0732399 87.350262,26.2760698 C86.7457551,26.728743 85.901407,26.8205313 85.1787627,26.1963706 C84.3883566,25.4237814 83.6505551,24.6473864 82.9392788,23.855544 C82.7083536,23.9294224 82.4772055,23.9997189 82.2500696,24.0639707 C83.1782284,25.1253574 84.1529734,26.1318949 85.166949,27.1032842 C84.5472849,27.5420773 83.7009307,27.6123737 82.9898773,26.9725418 C82.3450253,26.309427 81.7311566,25.650118 81.132891,24.9769289 L81.132891,22.4742414 Z M96.6764299,27.2788014 C95.4725429,26.5064361 94.4489826,25.850933 92.3398956,24.1909073 C92.9009368,24.1324761 93.3574376,23.8808418 93.7941002,23.5141361 C94.8138711,24.3294853 96.4510773,25.5310171 98.7993368,26.8731417 C98.3062803,27.4798403 97.3620727,27.7178184 96.6764299,27.2788014 L96.6764299,27.2788014 Z M94.7773154,28.5506297 C93.3710345,27.6123737 91.8078315,26.4733028 90.44992,25.3340079 C90.9663811,25.2910241 91.4523047,25.0530461 91.9065765,24.6843256 C94.4659231,26.7580705 96.3871047,27.8718437 96.9193918,28.1953416 C96.4356971,28.7476388 95.5075383,29.0306155 94.7773154,28.5506297 L94.7773154,28.5506297 Z M92.7845826,29.7248488 C91.3785246,28.7926375 89.4321551,27.2320118 88.4513918,26.3678581 C88.9373154,26.3385306 89.4493185,26.1182386 89.9196391,25.7495181 C90.8090131,26.5277041 92.9089612,28.1624321 94.9360208,29.4286635 C94.4449704,29.9628269 93.5533673,30.2402068 92.7845826,29.7248488 L92.7845826,29.7248488 Z M86.3420818,27.2964875 C86.8799414,27.2767866 87.4048727,27.027167 87.8299444,26.6994155 C89.7488971,28.381157 90.9744055,29.2997121 92.8505612,30.5697493 C92.3494803,31.0846595 91.4440574,31.3519651 90.6890925,30.8135481 C89.7212574,30.1345383 87.6320085,28.4785422 86.3420818,27.2964875 L86.3420818,27.2964875 Z M88.383407,32.5360347 C87.523233,33.2866843 86.6432208,33.0370647 86.1929612,32.6645384 C85.0989643,31.7497892 83.931633,30.8406369 81.8325765,28.7731604 C82.3686528,28.7653248 82.8637154,28.5680918 83.3376024,28.2423552 L83.3393856,28.2501907 C84.8040666,29.6666416 86.4860757,31.1099573 88.383407,32.5360347 L88.383407,32.5360347 Z M84.1416055,28.1001952 C84.6625246,28.0825091 85.166949,27.8776644 85.6292452,27.5382714 L85.6392757,27.5420773 C87.0705215,28.8685307 89.1018162,30.5285565 90.6425063,31.5859134 C89.9042589,32.2841765 89.0962437,32.2373868 88.4924055,31.792773 C87.0861246,30.7685494 85.0135933,28.9504686 84.1416055,28.1001952 L84.1416055,28.1001952 Z M100.588115,25.4743769 C100.25421,25.8822754 99.4852024,26.4457662 98.4830406,25.9230204 C97.738775,25.5446734 96.5308757,24.7935761 94.1398192,22.9481826 C94.9460513,22.8254997 95.3345673,22.4352873 95.5835475,22.2579791 C96.8204238,23.2642927 99.335636,24.8090234 100.588115,25.4743769 L100.588115,25.4743769 Z M120.074546,29.0521074 C119.466027,29.0753903 118.858399,29.0930764 118.242525,29.0930764 C109.003957,29.0930764 100.568723,25.6850424 94.1498498,20.0749836 C94.010091,19.950062 93.4234162,19.4273161 93.4234162,19.4273161 C91.6248299,17.8315422 89.6751169,16.6163541 87.0937032,16.7840358 C85.3381368,16.8993309 83.7689154,17.6405777 83.5433398,19.9480471 C83.4775841,20.6328777 83.1864757,21.0698797 82.3100299,21.3897957 C82.2928666,21.3956164 82.2636666,21.403452 82.2442742,21.4112876 C81.8889704,21.5301647 81.521407,21.621953 81.132891,21.6844139 L81.132891,19.4156747 C80.7216391,19.3903769 80.3638834,19.3767206 80.029978,19.3532139 L81.132891,17.4084204 C81.4190956,17.515656 81.725807,17.574311 82.0476757,17.574311 C82.8715169,17.574311 83.2635994,17.314841 83.8928482,16.8563471 L82.642375,16.2456188 L82.7159322,16.2456188 C83.260033,16.2456188 83.8424727,16.3669585 84.3183658,16.6535172 C84.380778,16.6924713 84.6328788,16.8856746 84.6328788,16.8856746 C84.7414315,16.6828447 84.8448574,16.4856117 84.883865,16.2516634 C85.0913856,15.0228189 83.922494,14.4960434 82.8828849,14.3223172 L83.3043902,13.5752496 L82.5645826,13.5752496 L82.5645826,13.0507128 C82.9045063,12.7560946 83.1028879,12.3970007 83.1028879,11.9367158 C83.1028879,11.1428585 82.4573673,10.4992208 81.6555933,10.4992208 L81.3332788,10.4992208 L81.2184849,10.9615206 L81.2207139,10.9263724 C81.2207139,10.5518312 80.9567994,10.2417657 80.6010498,10.1616188 L80.6010498,9.93528215 L80.9953612,9.93528215 L80.9953612,9.6135752 L80.6010498,9.6135752 L80.6010498,9.22157181 L80.2651383,9.22157181 L80.2651383,9.6135752 L79.8766223,9.6135752 L79.8766223,9.93528215 L80.2651383,9.93528215 L80.2651383,10.1616188 C79.9134009,10.2417657 79.6477032,10.5536222 79.6477032,10.9263724 L79.6477032,10.9615206 L79.5306803,10.4992208 L79.2163902,10.4992208 C78.5519231,10.4992208 77.9846406,10.9438345 77.8176879,11.5485182 L77.8176879,11.5310561 C77.8176879,10.3176589 77.0468971,9.48081791 75.9863353,9.13963393 L76.1245337,8.62270885 L74.5648971,8.62270885 L74.4518864,9.02836855 L73.6828788,9.02836855 C73.8108238,8.87210449 73.886833,8.67330437 73.886833,8.45681821 C73.886833,8.03929319 73.5972849,7.68445288 73.2092147,7.58684382 L73.2092147,7.32535898 L73.7397185,7.32535898 L73.7397185,6.86507402 L73.2092147,6.86507402 L73.2092147,6.34814894 L72.7527139,6.34814894 L72.7527139,6.86507402 L72.222433,6.86507402 L72.222433,7.32535898 L72.7527139,7.32535898 L72.7527139,7.58684382 C72.3566192,7.68445288 72.0693002,8.03929319 72.0693002,8.45681821 C72.0693002,8.67330437 72.1506589,8.87210449 72.2765979,9.02836855 L71.5038009,9.02836855 L71.3952482,8.62270885 L69.8315994,8.62270885 L69.9655627,9.12373887 C68.9150315,9.42417779 68.1480299,10.3819108 68.1400055,11.5153849 C67.961462,10.9263724 67.402204,10.4992208 66.755346,10.4992208 L66.4350376,10.4992208 L66.3202437,10.9615206 L66.3202437,10.9263724 C66.3202437,10.5536222 66.0523169,10.2417657 65.6945612,10.1616188 L65.6945612,9.93528215 L66.0928849,9.93528215 L66.0928849,9.6135752 L65.6945612,9.6135752 L65.6945612,9.22157181 L65.3666742,9.22157181 L65.3666742,9.6135752 L64.9761521,9.6135752 L64.9761521,9.93528215 L65.3666742,9.93528215 L65.3666742,10.1616188 C65.0111475,10.2417657 64.7392085,10.5518312 64.7392085,10.9263724 L64.745004,10.9615206 L64.6324391,10.4992208 L64.3179261,10.4992208 C63.5137002,10.4992208 62.8650589,11.1428585 62.8650589,11.9367158 C62.8650589,12.3970007 63.067007,12.7560946 63.4069307,13.0507128 L63.4069307,13.5752496 L62.6669002,13.5752496 L63.0884055,14.3223172 C62.0454528,14.4960434 60.8801276,15.0228189 61.0860879,16.2516634 C61.1230895,16.4856117 61.2220574,16.6828447 61.330833,16.8856746 C61.330833,16.8856746 61.5851627,16.6924713 61.6531475,16.6535172 C62.1172269,16.3669585 62.7079139,16.2456188 63.2495627,16.2456188 L63.3233429,16.2456188 L62.0708635,16.8563471 C62.7079139,17.314841 63.1020024,17.574311 63.9198253,17.574311 C64.2421398,17.574311 64.5526406,17.515656 64.8285918,17.4084204 L65.9317276,19.351199 C65.6033948,19.3747058 65.2422956,19.3903769 64.8210131,19.4156747 L64.8210131,21.6844139 C64.4382925,21.621953 64.0673856,21.5301647 63.7136421,21.4112876 C63.7000452,21.403452 63.669062,21.3956164 63.6476635,21.3897957 C62.7776818,21.0698797 62.4863505,20.6328777 62.4125704,19.9480471 C62.191007,17.6405777 60.6200024,16.8993309 58.8564116,16.7840358 C56.2830223,16.6163541 54.3308574,17.8315422 52.5345002,19.4273161 C52.5345002,19.4273161 51.9480482,19.950062 51.8082895,20.0749836 C45.3871872,25.6850424 36.9541826,29.0930764 27.7113795,29.0930764 C27.101746,29.0930764 26.4916666,29.0753903 25.8838162,29.0521074 L25.7458406,29.0480777 L25.7440574,29.1828499 C25.7342498,30.7179539 26.4664788,32.1124651 28.350436,32.0873912 C28.9854803,32.0714962 29.6245368,32.0482133 30.2479902,32.0092592 C30.5509124,33.1541509 31.2793521,33.626525 32.1395261,33.7666701 C32.5766345,33.8349517 33.0485154,33.8195044 33.5146009,33.7706999 C33.9361063,33.7259251 34.3535994,33.649584 34.7459047,33.5833173 C35.1538131,34.6601513 35.8956269,35.0637961 36.7464391,35.126257 C37.1775292,35.1634201 37.6300177,35.1090187 38.0749276,35.0172303 C38.4770406,34.9411132 38.8809368,34.8300717 39.257862,34.724627 C39.7607261,35.7390001 40.520149,36.0781693 41.3533521,36.0723485 C41.7768635,36.0705575 42.2175383,35.9769782 42.6448391,35.8558624 C43.0275597,35.7390001 43.4140696,35.5984073 43.7809643,35.463859 C44.1037246,35.9769782 44.6045826,36.3962942 45.2144391,36.5758412 L39.4094345,36.5758412 L39.0423169,36.5758412 L39.0423169,36.9443378 C39.0383047,37.1122433 38.9741093,37.9743821 37.9913398,37.9743821 L37.6244452,37.9743821 L37.6244452,45.1876026 L37.6244452,45.5505023 L37.9913398,45.5583379 C38.1681002,45.5603528 39.0423169,45.6172168 39.0423169,46.5881584 L39.0423169,46.9629234 L106.546922,46.9629234 L106.917383,46.9588937 L106.923847,46.5917403 C106.923847,46.416447 106.983807,45.5583379 107.960558,45.5583379 L108.337706,45.5583379 L108.337706,37.9743821 L107.966576,37.9743821 C107.791822,37.9743821 106.923847,37.9099064 106.923847,36.9443378 L106.923847,36.5758412 L100.741471,36.5758412 C101.35534,36.3962942 101.859987,35.9769782 102.182525,35.463859 C102.54563,35.5984073 102.928573,35.7390001 103.315083,35.8558624 C103.742161,35.9769782 104.183282,36.0705575 104.600998,36.0723485 C105.437544,36.0781693 106.197413,35.7390001 106.694259,34.724627 C107.080769,34.8300717 107.479093,34.9411132 107.887224,35.0172303 C108.329682,35.1090187 108.784176,35.1634201 109.213483,35.126257 C110.054265,35.0637961 110.798531,34.6601513 111.211789,33.5833173 C111.602311,33.649584 112.027605,33.7259251 112.441755,33.7706999 C112.909178,33.8195044 113.385294,33.8349517 113.818167,33.7666701 C114.682354,33.626525 115.412799,33.1541509 115.70792,32.0092592 C116.339175,32.0482133 116.970653,32.0714962 117.607926,32.0873912 C119.493221,32.1124651 120.22166,30.7179539 120.212076,29.1828499 L120.212076,29.0480777 L120.074546,29.0521074 Z" id="Fill-5" fill="#966E2D"></path>
                                        <polygon id="Fill-7" fill="#966E2D" points="54.517626 44.4287145 58.1259435 44.4287145 58.1259435 42.7707036 56.9764443 42.7707036 56.9764443 43.2858377 55.6711374 43.2858377 55.6711374 40.2429422 56.9764443 40.2429422 56.9764443 40.7634492 58.1259435 40.7634492 58.1259435 39.1034235 54.517626 39.1034235"></polygon>
                                        <polygon id="Fill-9" fill="#966E2D" points="60.4352846 44.4287145 61.591025 44.4287145 61.591025 40.2429422 63.6345792 40.2429422 63.6345792 39.1034235 60.4352846 39.1034235"></polygon>
                                        <mask id="mask-2" fill="white">
                                            <use xlink:href="#path-1"></use>
                                        </mask>
                                        <g id="Clip-12"></g>
                                        <path d="M49.6658565,43.2858153 L50.9769588,43.2858153 L50.9769588,40.2411288 L49.6658565,40.2411288 L49.6658565,43.2858153 Z M48.5199237,44.4309308 L52.1302473,44.4309308 L52.1302473,39.1034011 L48.5199237,39.1034011 L48.5199237,44.4309308 Z" id="Fill-11" fill="#966E2D" mask="url(#mask-2)"></path>
                                        <polygon id="Fill-13" fill="#966E2D" mask="url(#mask-2)" points="104.089641 39.1034011 102.862127 39.1034011 102.227528 41.1711014 101.920594 41.1711014 101.293574 39.1034011 100.063608 39.1034011 100.976609 41.7448905 99.9840321 44.4286921 101.215559 44.4286921 101.920594 42.3164408 102.227528 42.3164408 102.934124 44.4286921 104.167434 44.4286921 103.175079 41.7448905"></polygon>
                                        <path d="M43.7110626,41.6900414 L45.0143634,41.6900414 L45.0143634,40.2429198 L43.7110626,40.2429198 L43.7110626,41.6900414 Z M42.5613405,44.4286921 L43.7110626,44.4286921 L43.7110626,42.833142 L46.171887,42.833142 L46.171887,39.1034011 L42.5613405,39.1034011 L42.5613405,44.4286921 Z" id="Fill-14" fill="#966E2D" mask="url(#mask-2)"></path>
                                        <polygon id="Fill-15" fill="#966E2D" mask="url(#mask-2)" points="77.6506684 44.4287145 81.2672333 44.4287145 81.2672333 42.7707036 80.1074806 42.7707036 80.1074806 43.2858377 78.8006134 43.2858377 78.8006134 40.2429422 80.1074806 40.2429422 80.1074806 40.7634492 81.2672333 40.7634492 81.2672333 39.1034235 77.6506684 39.1034235"></polygon>
                                        <path d="M90.0474504,41.6900414 L91.3565466,41.6900414 L91.3565466,40.2429198 L90.0474504,40.2429198 L90.0474504,41.6900414 Z M88.8961679,44.4286921 L90.0474504,44.4286921 L90.0474504,42.833142 L92.5105038,42.833142 L92.5105038,39.1034011 L88.8961679,39.1034011 L88.8961679,44.4286921 Z" id="Fill-16" fill="#966E2D" mask="url(#mask-2)"></path>
                                        <path d="M95.8205579,42.0316955 L95.9872876,40.2429422 L96.7172876,40.2429422 L96.8862464,42.0316955 L95.8205579,42.0316955 Z M94.971306,39.1034235 L94.4490495,44.4287145 L95.5972113,44.4287145 L95.7149029,43.1687516 L96.9816479,43.1687516 L97.1040205,44.4287145 L98.2515136,44.4287145 L97.7350525,39.1034235 L94.971306,39.1034235 Z" id="Fill-17" fill="#966E2D" mask="url(#mask-2)"></path>
                                        <polygon id="Fill-18" fill="#966E2D" mask="url(#mask-2)" points="83.1687551 40.242875 84.3962696 40.242875 84.3962696 44.4286473 85.5437627 44.4286473 85.5437627 40.242875 86.7846513 40.242875 86.7846513 39.1033563 83.1687551 39.1033563"></polygon>
                                        <polygon id="Fill-19" fill="#966E2D" mask="url(#mask-2)" points="71.7273481 44.4287145 75.3419069 44.4287145 75.3419069 42.7707036 74.1881725 42.7707036 74.1881725 43.2858377 72.8810824 43.2858377 72.8810824 40.2429422 74.1881725 40.2429422 74.1881725 40.7634492 75.3419069 40.7634492 75.3419069 39.1034235 71.7273481 39.1034235"></polygon>
                                        <path d="M66.881374,43.2858153 L68.1846748,43.2858153 L68.1846748,40.2411288 L66.881374,40.2411288 L66.881374,43.2858153 Z M65.7238504,44.4309308 L69.3401924,44.4309308 L69.3401924,39.1034011 L65.7238504,39.1034011 L65.7238504,44.4309308 Z" id="Fill-20" fill="#966E2D" mask="url(#mask-2)"></path>
                                        <path d="M70.614516,26.8241357 L72.0421954,26.8241357 L72.0421954,25.8236428 L70.614516,25.8236428 L70.614516,26.8241357 Z M76.0700122,19.0039928 C75.0520244,19.119064 74.0090718,19.1797339 72.9837282,19.1797339 C71.9450107,19.1797339 70.9076305,19.119064 69.8903115,19.0039928 C68.9015237,20.016351 67.5904214,20.613423 66.1743328,20.6893163 L66.1743328,33.2029778 C66.4734656,33.3668535 70.0762107,35.2959759 72.9837282,35.8267811 C75.8872336,35.2959759 79.4897557,33.3668535 79.7813099,33.2029778 L79.7813099,20.6893163 C78.3692336,20.613423 77.0545649,20.016351 76.0700122,19.0039928 L76.0700122,19.0039928 Z M73.0283084,35.0091933 L72.9837282,35.0172527 L72.9391481,35.0091933 C71.2261557,34.6677854 69.2492489,33.9401949 67.2175084,32.8947033 L67.2175084,32.3797931 C67.526226,32.5456837 70.2861832,34.0185508 72.9781557,34.552938 L72.9837282,34.5567439 L72.9917527,34.552938 C75.5820824,34.036013 78.4198321,32.5494895 78.7361282,32.3820318 L78.7361282,32.8947033 C76.6783084,33.9424336 74.6964977,34.6758449 73.0283084,35.0091933 L73.0283084,35.0091933 Z M67.6488214,25.8236428 L67.6488214,25.1367973 L68.8005496,25.1367973 L68.8005496,28.8255693 L69.2878107,28.8255693 L69.2878107,29.4342827 L67.6488214,29.4342827 L67.6488214,28.8255693 L68.1806626,28.8255693 L68.1806626,25.8236428 L67.6488214,25.8236428 Z M69.9988641,27.512996 L69.9988641,25.1367973 L72.6616366,25.1367973 L72.6616366,29.4342827 L69.9988641,29.4342827 L69.9988641,28.8255693 L72.0421954,28.8255693 L72.0421954,27.512996 L69.9988641,27.512996 Z M73.3682321,25.8236428 L73.3682321,25.1367973 L75.9574473,25.1367973 L75.9574473,27.512996 L73.9899023,27.512996 L73.9899023,28.8255693 L75.8564733,28.8255693 L75.8564733,29.4342827 L73.3682321,29.4342827 L73.3682321,26.8241357 L75.3420183,26.8241357 L75.3420183,25.8236428 L73.3682321,25.8236428 Z M76.6698382,25.8236428 L76.6698382,25.1367973 L77.8253557,25.1367973 L77.8253557,28.8255693 L78.307713,28.8255693 L78.307713,29.4342827 L76.6698382,29.4342827 L76.6698382,28.8255693 L77.200342,28.8255693 L77.200342,25.8236428 L76.6698382,25.8236428 Z M78.7361282,21.8248053 C78.5386382,21.7838363 77.8253557,21.6219754 77.1631176,21.2881793 C76.3867542,20.8981908 75.951429,20.5236495 75.7668672,20.3304463 L75.7476977,20.31679 L75.7320947,20.31679 C75.4095573,20.353953 74.2457924,20.4475324 72.9917527,20.4475324 L72.9781557,20.4475324 C71.7214412,20.4475324 70.5563389,20.353953 70.2317954,20.31679 L70.2166382,20.31679 L70.2048244,20.3304463 C70.0140214,20.5236495 69.5833771,20.8961759 68.8081282,21.2881793 C68.1400947,21.6257813 67.427258,21.7858512 67.2175084,21.8286111 L67.2175084,21.3645203 C67.5864092,21.2767617 68.0738931,21.1460193 68.6006076,20.8865493 C69.5597496,20.4007427 69.9482656,19.9424726 69.9482656,19.9384429 L70.0258351,19.8428487 L70.1540031,19.856505 C70.1600214,19.8585199 71.4809313,19.9930681 72.9837282,19.9930681 C74.4831817,19.9930681 75.8023084,19.8585199 75.8176885,19.856505 L75.9418443,19.8428487 L76.0211969,19.9404578 C76.039029,19.9599348 76.4295511,20.414399 77.3693008,20.8865493 C77.8819725,21.1399747 78.3692336,21.272732 78.7361282,21.3625054 L78.7361282,21.8248053 Z" id="Fill-21" fill="#7E1B1F" mask="url(#mask-2)"></path>
                                    </g>
                                </g>
                            </g>
                        </g>
                    </g>
                </g>
            </g>
        </g>
    </g>
</svg>