<?xml version="1.0" encoding="UTF-8" standalone="no"?>
<svg width="96px" height="33px" viewBox="0 0 96 33" version="1.1" xmlns="http://www.w3.org/2000/svg" xmlns:xlink="http://www.w3.org/1999/xlink">
    <!-- Generator: Sketch 3.8.3 (29802) - http://www.bohemiancoding.com/sketch -->
    <title>Group 21</title>
    <desc>Created with Sketch.</desc>
    <defs></defs>
    <g id="V2" stroke="none" stroke-width="1" fill="none" fill-rule="evenodd">
        <g id="Desktop-1240-Copy-3" transform="translate(-1080.000000, -1859.000000)" fill="#221E1F">
            <g id="Group-11" transform="translate(-7.000000, 1523.000000)">
                <g id="partners">
                    <g id="Group-14" transform="translate(0.000000, 59.000000)">
                        <g id="Group-82" transform="translate(1051.000000, 215.819058)">
                            <g id="Group-21" transform="translate(36.000000, 61.689507)">
                                <path d="M24.2776,6.2109364 C24.7176,5.30232774 25.7976,4.86438048 26.6913143,5.23373359 C27.5850286,5.60203141 27.9530286,6.63727542 27.5130286,7.54588407 C27.0730286,8.45449273 25.9930286,8.89243999 25.0993143,8.52308688 C24.2056,8.15478906 23.8376,7.11954505 24.2776,6.2109364" id="Fill-1"></path>
                                <path d="M25.4685714,11.0909352 C24.2537143,11.2165153 22.9085714,11.5964214 21.592,12.2380405 C20.9451429,12.5525183 20.3657143,12.9102631 19.8262857,13.2827821 C19.2937143,13.65108 19.3097143,13.9550048 19.4971429,14.1249072 C19.6354286,14.2504873 19.8937143,14.2431002 20.1725714,14.0964143 C20.9017143,13.712287 21.7017143,13.4305234 22.2662857,13.4305234 C22.4034286,13.4305234 22.5417143,13.4875093 22.616,13.6057023 C22.6754286,13.6975129 22.6834286,13.8536965 22.6114286,14.023599 C22.6114286,14.023599 19.7245714,19.9860135 18.7474286,22.0216768 C18.2182857,23.1244596 19.5405714,23.8230647 21.0057143,23.5402457 C21.9714286,23.3534586 22.9165714,23.0263172 23.92,22.5377158 C25.1657143,21.9319767 26.2205714,21.205934 26.984,20.3838595 C27.3748571,19.9638523 27.3005714,19.5459556 27.0971429,19.4530897 C26.9691429,19.3950485 26.808,19.4161544 26.6354286,19.5427897 C26.2731429,19.8097793 25.9062857,20.0641053 25.4788571,20.3057677 C24.8422857,20.6687891 24.2445714,20.9611057 23.656,21.1236211 C23.1165714,21.2713623 22.7782857,20.8123091 22.9691429,20.4144631 C22.9691429,20.4144631 25.8137143,14.5343615 26.7611429,12.5535736 C27.0628571,11.9214521 26.504,11.0096776 25.4685714,11.0909352" id="Fill-3"></path>
                                <path d="M11.4861714,23.4404148 C9.48617143,18.9269198 5.4816,9.89676387 3.46674286,5.39487708 C3.18902857,4.77541915 2.09417143,3.50273385 0.786742857,3.2790114 C0.603885714,3.24735256 0.4656,3.09961131 0.4656,2.92126653 C0.4656,2.72076055 0.6416,2.55718989 0.858742857,2.55718989 L9.08388571,2.55718989 C9.30102857,2.55718989 9.47702857,2.72076055 9.47702857,2.92126653 C9.47702857,3.1217725 9.30102857,3.28534317 9.08388571,3.28534317 C8.0976,3.28534317 7.39131429,3.76972339 7.39131429,4.36807543 C7.39131429,4.48099195 7.43017143,4.6086826 7.46445714,4.69099558 L13.1661714,17.0717119 C13.2061714,17.1540249 13.2964571,17.1920155 13.3924571,17.1920155 C13.4896,17.1920155 13.5833143,17.1413613 13.6176,17.0717119 L19.5124571,4.6878297 C19.5593143,4.58757671 19.5844571,4.48099195 19.5844571,4.37124131 C19.5844571,3.77183398 18.8381714,3.2980067 17.9101714,3.28534317 C17.6907429,3.28217728 17.5170286,3.1217725 17.5170286,2.92126653 C17.5170286,2.72076055 17.6930286,2.55718989 17.9101714,2.55718989 L23.5981714,2.55718989 C23.8153143,2.55718989 23.9913143,2.72076055 23.9913143,2.92126653 C23.9913143,3.1217725 23.8153143,3.27584551 23.5981714,3.28534317 C22.8838857,3.31594671 21.9536,3.70007394 21.2061714,4.48837901 C20.9216,4.78913798 20.6941714,5.10994754 20.5296,5.42864651 L12.0473143,23.4784054 C11.9890286,23.5849902 11.8918857,23.6208702 11.7764571,23.6208702 C11.6461714,23.6208702 11.5330286,23.5459443 11.4861714,23.4404148" id="Fill-5"></path>
                                <path d="M54.5065143,19.697707 C54.5065143,20.5662144 54.1785143,21.2479348 53.6368,21.5413067 C53.3476571,21.6985456 53.0390857,21.7850797 52.7236571,21.8262362 C51.9510857,21.9275445 51.2150857,21.377736 50.9099429,20.4110861 C50.6265143,19.5130304 50.8756571,18.7669371 51.4688,18.3965287 C51.8665143,18.1485345 52.3019429,18.0187333 52.7888,17.8836556 C53.3568,17.7264167 54.0242286,17.6293296 54.5065143,17.5997813 L54.5065143,19.697707 Z M60.5202286,21.0389864 C60.5202286,21.0389864 59.5442286,21.4305007 59.3110857,21.4769337 C59.2276571,21.4938184 59.1419429,21.5022608 59.0528,21.5022608 C58.3979429,21.5022608 57.8665143,21.0126041 57.8665143,20.406865 L57.8665143,14.2333915 C57.8619429,12.7834167 57.0790857,11.4083679 55.6916571,10.7118734 C55.2162286,10.4733768 54.7099429,10.3298568 54.1945143,10.2855344 C53.3545143,10.2137744 52.4196571,10.3129721 51.4745143,10.5736298 C48.7499429,11.3260549 46.9533714,13.2298063 47.4230857,14.8496836 C47.7510857,14.7853106 48.1008,14.7040529 48.4756571,14.600634 C49.8756571,14.2186174 50.8768,13.7595642 50.8768,13.49363 L50.8768,12.2336082 C50.8768,12.1491847 50.9339429,12.0668717 51.0059429,12.0225493 C51.4688,11.7333986 52.2413714,11.6194268 53.0048,11.8737528 C53.8756571,12.1650141 54.5065143,12.8361815 54.5065143,13.4915194 L54.5065143,16.2310642 C54.5065143,16.5001643 54.2802286,16.6299656 54.0162286,16.699615 C54.0162286,16.699615 50.3922286,17.6641543 49.1945143,18.0155674 C47.6802286,18.461957 46.9042286,19.9858024 47.3910857,21.5180902 C47.8779429,23.0503779 49.4630857,23.849236 50.9568,23.5653617 C52.5956571,23.2540498 53.8768,22.2789576 54.0528,22.158654 C54.1865143,22.0678987 54.3499429,22.051014 54.4390857,22.1449352 C54.4608,22.1670964 54.4722286,22.1955893 54.4836571,22.2240823 C54.5293714,22.3443859 54.5682286,22.4435835 54.6230857,22.5459471 C55.2962286,23.7753653 57.2173714,24.1309996 58.9145143,23.340584 C59.6208,23.0102767 60.2253714,22.5069012 60.4642286,22.0024704 C60.6905143,21.5233667 60.6025143,21.2067783 60.5202286,21.0389864 L60.5202286,21.0389864 Z" id="Fill-7"></path>
                                <path d="M36.4753143,22.4034824 C36.3153143,22.3749894 36.1541714,22.3338329 35.9953143,22.2757917 C35.1633143,21.9718669 34.5770286,21.3291924 34.5770286,20.6886286 L34.5770286,0.508229882 C34.5096,0.423806313 34.4067429,0.364709816 34.2890286,0.346769807 C34.2867429,0.347825102 34.2833143,0.349935691 34.2810286,0.350990986 C33.2524571,1.09602898 31.6284571,1.71021044 29.6376,2.1091118 C29.6376,2.1091118 29.6376,2.11016709 29.6364571,2.11016709 C29.4707429,2.15448947 29.3701714,2.30012012 29.3701714,2.45419313 C29.3701714,2.61459791 29.4787429,2.76022857 29.6387429,2.79716388 C30.5084571,2.99555927 30.9278857,3.63823368 30.9278857,4.19542923 L30.9278857,20.6886286 C30.9278857,21.3291924 30.3438857,21.9718669 29.5107429,22.2757917 C29.3518857,22.3338329 29.2021714,22.3697129 29.0433143,22.4013718 C28.8238857,22.4456941 28.6753143,22.5997671 28.6753143,22.7960519 C28.6753143,23.0155532 28.8684571,23.193898 29.1073143,23.193898 L36.3987429,23.193898 C36.6376,23.193898 36.8307429,23.0155532 36.8307429,22.7960519 C36.8307429,22.5997671 36.6936,22.441473 36.4753143,22.4034824" id="Fill-9"></path>
                                <path d="M45.8389714,22.4034824 C45.6801143,22.3749894 45.5189714,22.3338329 45.3589714,22.2757917 C44.5269714,21.9718669 43.9406857,21.3291924 43.9406857,20.6886286 L43.9406857,0.508229882 C43.8721143,0.423806313 43.7704,0.364709816 43.6526857,0.346769807 C43.6492571,0.347825102 43.6469714,0.349935691 43.6446857,0.350990986 C42.6161143,1.09602898 40.9921143,1.71021044 39.0024,2.1091118 C39.0012571,2.1091118 39.0012571,2.11016709 39.0012571,2.11016709 C38.8344,2.15448947 38.7338286,2.30012012 38.7338286,2.45419313 C38.7338286,2.61459791 38.8424,2.76022857 39.0024,2.79716388 C39.8721143,2.99555927 40.2915429,3.63823368 40.2915429,4.19542923 L40.2915429,20.6886286 C40.2915429,21.3291924 39.7075429,21.9718669 38.8744,22.2757917 C38.7155429,22.3338329 38.5658286,22.3697129 38.4069714,22.4013718 C38.1875429,22.4456941 38.0389714,22.5997671 38.0389714,22.7960519 C38.0389714,23.0155532 38.2321143,23.193898 38.4709714,23.193898 L45.7635429,23.193898 C46.0012571,23.193898 46.1944,23.0155532 46.1944,22.7960519 C46.1944,22.5997671 46.0561143,22.441473 45.8389714,22.4034824" id="Fill-11"></path>
                                <path d="M73.2611429,29.251289 C72.5217143,30.2031648 70.9834286,30.8384521 69.2234286,30.8205121 C67.5868571,30.8046827 66.1902857,30.1989436 65.3868571,29.3684267 C64.9274286,28.8935442 64.6177143,28.2688098 64.6177143,27.5628177 C64.6177143,26.15611 65.8005714,25.0691565 67.2348571,25.0153365 C67.5902857,25.002673 67.956,24.99212 68.3285714,24.99212 C69.5274286,24.99212 70.6565714,25.0543824 71.6268571,25.2168978 C72.8622857,25.4226802 73.7822857,26.482196 73.7822857,27.735886 C73.7822857,28.3057451 73.588,28.8291712 73.2611429,29.251289 M67.9502857,11.1033877 C69.268,10.9851947 70.5114286,12.6135143 70.7262857,14.7399329 C70.9411429,16.8663516 70.0462857,18.6867348 68.7285714,18.8049277 C67.4097143,18.9231207 66.1662857,17.2948012 65.9514286,15.1694378 C65.7365714,13.0419639 66.6314286,11.222636 67.9502857,11.1033877 M71.0074286,21.7080432 C69.9182857,21.7080432 66.6897143,21.7069879 66.6897143,21.7069879 C66.4714286,21.7080432 66.228,21.6299514 66.02,21.4980396 C65.4691429,21.1476818 65.3045714,20.4849568 65.6531429,20.016406 C65.9022857,19.6818776 66.3445714,19.5383575 66.7788571,19.6090622 C67.3891429,19.7072046 68.0325714,19.7293658 68.692,19.6660481 C72.0062857,19.3526256 74.444,16.9222822 74.2577143,14.3895751 C74.2245714,13.9389643 74.0748571,13.321617 73.9662857,12.9712592 C73.9377143,12.8593979 74.0394286,12.8034673 74.1342857,12.8034673 L76.1102857,12.8034673 C76.684,12.2853177 76.9022857,11.6014868 76.6497143,11.0770054 L72.5765714,11.0770054 C71.5628571,10.6591087 70.364,10.3984509 69.0794286,10.2992532 C68.6165714,10.2633732 68.1342857,10.2570414 67.6508571,10.3024191 C64.3262857,10.6179522 61.8645714,12.9691486 62.1514286,15.5546204 C62.3171429,17.0446963 63.3685714,18.2878334 64.8588571,19.0128208 C64.9777143,19.0719173 65.0805714,19.1753362 65.0805714,19.3114692 C65.0805714,19.4191092 65.0497143,19.5003669 64.9354286,19.5721269 L62.156,21.2468795 C62.0371429,21.3249713 61.9525714,21.4547725 61.94,21.6014585 C61.8805714,22.3190588 62.26,23.3722428 63.0554286,24.039189 C63.556,24.4591962 64.1537143,24.6892505 64.6942857,24.8243282 C64.764,24.8412129 64.8108571,24.9055859 64.8108571,24.9762906 C64.8108571,25.0427742 64.772,25.0870965 64.7068571,25.1240318 C64.7068571,25.1240318 62.9777143,26.1466123 62.3697143,26.5127995 C61.6314286,26.9581339 61.5171429,27.5934212 61.4874286,27.8762402 C61.4451429,28.2645886 61.5022857,28.9441983 61.6988571,29.4539056 C62.7137143,32.0742021 66.82,33.1157779 70.8691429,31.7797749 C74.9194286,30.4416614 77.38,27.2335658 76.3651429,24.612214 C75.676,22.831932 73.5594286,21.7080432 71.0074286,21.7080432" id="Fill-13"></path>
                                <path d="M81.2627429,11.8730141 C81.5781714,11.5711998 82.1187429,11.256722 82.6056,11.256722 C83.3358857,11.256722 83.8684571,11.6872822 84.1027429,12.2096531 C84.1838857,12.3901084 84.3141714,12.6792592 84.3141714,13.2723347 C84.3141714,13.835862 83.8033143,14.2938599 83.1736,14.2938599 L80.2193143,14.2938599 C80.0810286,14.2938599 79.9690286,14.190441 79.9690286,14.0627504 C79.9690286,13.8200326 80.4307429,12.6676509 81.2627429,11.8730141 M95.6970286,17.7172356 C95.5930286,17.2001412 95.0993143,16.8075716 94.5118857,16.8075716 C93.8558857,16.8075716 93.3244571,17.2982836 93.3244571,17.9040227 C93.3244571,18.1245793 93.4250286,18.3831265 93.5758857,18.5846878 C93.8113143,18.9002209 93.8810286,19.205201 93.8810286,19.5903835 C93.8810286,20.1855697 93.6250286,20.7427652 93.0581714,21.1659384 C92.3370286,21.7030833 91.4101714,22.0587176 90.4650286,22.3320389 C85.8558857,23.6669866 81.1073143,21.7685116 79.8581714,18.0918652 C79.5816,17.2792883 79.5164571,16.2788691 79.5884571,15.6298629 C79.6090286,15.4356887 79.7438857,15.307998 79.9370286,15.307998 L79.9370286,15.307998 L86.2101714,15.307998 L86.2101714,15.307998 C86.7633143,15.307998 87.2136,14.8742719 87.2124571,14.3381823 C87.2113143,13.6480196 87.0124571,12.8554934 86.4936,12.1210083 C86.1278857,11.6049692 85.6730286,11.1944596 85.1918857,10.9063642 C84.0821714,10.2425839 82.6136,10.0072532 80.9816,10.6446512 C80.2444571,10.9338019 79.3827429,11.539541 78.8536,12.07352 C76.6513143,14.2938599 75.8673143,17.4808496 77.1050286,20.1813485 C78.9850286,24.2874998 84.9233143,25.8926029 90.3678857,23.7661843 C91.5038857,23.3229605 92.5370286,22.7615438 93.4216,22.0893211 C93.6513143,21.9141422 93.9324571,21.6693139 94.2387429,21.3421726 C95.3827429,20.1190861 95.8970286,18.7071019 95.6970286,17.7172356" id="Fill-15"></path>
                                <path d="M58.0986286,4.52309821 L58.0986286,6.69806039 C58.0986286,6.89540048 58.2369143,7.06319232 58.4289143,7.12334411 L58.6129143,7.18877238 C58.6780571,7.2035465 58.7260571,7.25736653 58.7260571,7.3217395 C58.7260571,7.39772071 58.6597714,7.4589278 58.5774857,7.4589278 L56.4163429,7.4589278 C56.3340571,7.4589278 56.2677714,7.39772071 56.2677714,7.3217395 C56.2677714,7.25736653 56.3180571,7.20987827 56.3809143,7.18877238 C56.4460571,7.16661119 56.5180571,7.13811824 56.5649143,7.12228882 C56.7546286,7.05791585 56.8963429,6.89540048 56.8963429,6.69806039 L56.8963429,4.78586656 C56.8940571,4.46083583 56.7466286,4.15796627 56.4632,3.97434501 C56.0654857,3.71579783 55.5203429,3.76961786 55.1112,4.06932153 L55.1112,6.55454032 C55.1112,6.78459455 55.2620571,6.98193464 55.4757714,7.0674135 C55.4757714,7.0674135 55.6974857,7.14761589 55.8140571,7.18877238 C55.8769143,7.20987827 55.9283429,7.25736653 55.9283429,7.3217395 C55.9283429,7.39772071 55.8609143,7.4589278 55.7797714,7.4589278 L53.2952,7.4589278 C53.2129143,7.4589278 53.1466286,7.39772071 53.1466286,7.3217395 C53.1466286,7.262643 53.1866286,7.21198886 53.2426286,7.19299356 C53.2426286,7.19299356 53.5100571,7.10118293 53.5980571,7.0674135 C53.8152,6.98615582 53.9626286,6.78459455 53.9626286,6.55454032 L53.9626286,1.43636149 C53.9626286,1.35299321 53.8894857,1.28545436 53.8003429,1.28545436 L51.5534857,1.28545436 C51.4632,1.28545436 51.3900571,1.35299321 51.3900571,1.43636149 L51.3900571,6.48805676 C51.3900571,6.80253455 51.6426286,7.05791585 51.9694857,7.1064594 C52.0849143,7.12439941 52.3134857,7.1645006 52.4277714,7.1845512 C52.5066286,7.19932533 52.5637714,7.24997947 52.5637714,7.3217395 C52.5637714,7.39772071 52.4974857,7.4589278 52.4152,7.4589278 L49.0060571,7.4589278 C48.9226286,7.4589278 48.8563429,7.39772071 48.8563429,7.3217395 C48.8563429,7.24997947 48.9123429,7.19932533 48.9923429,7.1845512 C49.1066286,7.1645006 49.3352,7.12439941 49.4494857,7.1064594 C49.7774857,7.05791585 50.0300571,6.80253455 50.0300571,6.48805676 L50.0300571,1.43636149 C50.0300571,1.35299321 49.9569143,1.28545436 49.8666286,1.28545436 L48.3786286,1.28545436 C48.1157714,1.28545436 47.8780571,1.4142003 47.7752,1.62842511 C47.6986286,1.785664 47.4769143,2.26054657 47.4769143,2.26054657 C47.4563429,2.30064777 47.4129143,2.32808543 47.3626286,2.32808543 C47.2929143,2.32808543 47.2369143,2.2753207 47.2369143,2.21094773 L47.2369143,0.749364699 C47.2369143,0.686047023 47.2917714,0.634337587 47.3614857,0.634337587 C47.4037714,0.634337587 47.4403429,0.655443479 47.4643429,0.684991728 C47.5363429,0.791576483 47.6677714,0.863336517 47.8140571,0.863336517 L53.3740571,0.863336517 C54.0026286,0.863336517 54.5717714,0.66705172 54.9843429,0.349408044 C55.0540571,0.349408044 55.1112,0.401117479 55.1112,0.46549045 L55.1112,3.79388964 C55.2826286,3.61976603 55.5009143,3.47096949 55.7569143,3.36649532 C56.6380571,3.00241868 57.6334857,3.28945881 57.9797714,4.00494856 C58.0597714,4.1727404 58.0986286,4.3479193 58.0986286,4.52309821" id="Fill-17"></path>
                                <path d="M60.4893714,3.93392723 C60.8093714,3.54979999 61.3328,3.42527523 61.6596571,3.65744004 C61.8402286,3.78513069 61.9145143,3.99407902 61.9065143,4.22202266 C61.9008,4.38031685 61.7670857,4.50906279 61.5956571,4.50906279 L60.3408,4.50906279 C60.2962286,4.50906279 60.2573714,4.47529336 60.2596571,4.43413687 C60.2710857,4.26528974 60.3590857,4.09011083 60.4893714,3.93392723 M62.8985143,6.27351537 C62.8482286,6.27351537 62.8128,6.30306362 62.7888,6.33999893 C62.5522286,6.70302027 61.8368,6.84231916 61.3373714,6.72518146 C60.5053714,6.52889666 60.0002286,5.73425983 60.1693714,4.9185171 C60.1796571,4.86469707 60.2322286,4.82354058 60.2939429,4.82354058 L62.7533714,4.82354058 C62.9053714,4.82354058 63.0299429,4.70956876 63.0299429,4.56921458 C63.0299429,4.14182027 62.7213714,3.74608479 62.3602286,3.50547762 C61.6722286,3.04536917 60.6573714,3.05803271 59.8928,3.7239236 C59.8082286,3.79779423 59.7282286,3.87799662 59.6516571,3.96242018 C58.7533714,4.96600535 58.8025143,6.37271306 59.7613714,7.10508752 C59.9968,7.2844876 60.2653714,7.40690178 60.5499429,7.47444063 C61.1065143,7.60635246 61.7396571,7.54936655 62.2745143,7.25704994 C62.6196571,7.0692075 63.0162286,6.71357322 63.0162286,6.38221071 C63.0162286,6.32205892 62.9636571,6.27351537 62.8985143,6.27351537" id="Fill-19"></path>
                            </g>
                        </g>
                    </g>
                </g>
            </g>
        </g>
    </g>
</svg>