<?xml version="1.0" encoding="UTF-8" standalone="no"?>
<svg width="66px" height="34px" viewBox="0 0 66 34" version="1.1" xmlns="http://www.w3.org/2000/svg" xmlns:xlink="http://www.w3.org/1999/xlink">
    <!-- Generator: Sketch 3.8.3 (29802) - http://www.bohemiancoding.com/sketch -->
    <title>Group 63</title>
    <desc>Created with Sketch.</desc>
    <defs>
        <polygon id="path-1" points="65.6686 33.0637066 0.558 33.0637066 0.558 0.312560171 65.6686 0.312560171 65.6686 33.0637066"></polygon>
        <polygon id="path-3" points="0.558 33.0637066 65.669 33.0637066 65.669 0.312186296 0.558 0.312186296"></polygon>
    </defs>
    <g id="V2" stroke="none" stroke-width="1" fill="none" fill-rule="evenodd">
        <g id="Desktop-1240-Copy-3" transform="translate(-773.000000, -1860.000000)">
            <g id="Group-11" transform="translate(-7.000000, 1523.000000)">
                <g id="partners">
                    <g id="Group-14" transform="translate(0.000000, 59.000000)">
                        <g id="Group-81" transform="translate(731.000000, 214.819058)">
                            <g id="Group-63" transform="translate(49.000000, 63.624197)">
                                <g id="Group-24">
                                    <mask id="mask-2" fill="white">
                                        <use xlink:href="#path-1"></use>
                                    </mask>
                                    <g id="Clip-23"></g>
                                    <path d="M65.6686,28.664497 C65.6686,31.0946897 63.5616,33.0640805 60.9616,33.0640805 L5.2636,33.0640805 C2.6646,33.0640805 0.5576,31.0946897 0.5576,28.664497 L0.5576,4.71214368 C0.5576,2.28195096 2.6646,0.312560171 5.2636,0.312560171 L60.9616,0.312560171 C63.5616,0.312560171 65.6686,2.28195096 65.6686,4.71214368 L65.6686,28.664497 Z" id="Fill-22" fill="#270F0E" mask="url(#mask-2)"></path>
                                </g>
                                <path d="M14.4424,15.3158223 C17.4534,14.5119893 19.5374,12.3005139 19.5374,9.57963276 C19.5374,7.52331585 18.3134,6.27083191 16.5934,6.27083191 C15.4024,6.27083191 14.1284,6.87370664 14.1284,8.6056863 C14.1284,9.93481478 14.9064,11.1872987 16.7594,11.1872987 C17.5854,11.1872987 18.2974,10.9087612 18.7434,10.692848 L17.7844,11.8836424 C17.5034,12.1004904 17.0564,12.3631381 16.0304,12.3631381 C13.7314,12.3631381 12.2264,10.9554957 12.2264,8.96086831 C12.2264,7.04382013 13.7154,5.00245824 16.7254,5.00245824 C19.5374,5.00245824 21.4404,7.01297537 21.4404,9.61047752 C21.4404,12.9968576 18.0654,15.7794283 13.6654,16.2897687 L14.4424,15.3158223 Z" id="Fill-25" fill="#FEFEFE"></path>
                                <path d="M27.8752,9.71871456 C28.7862,9.17752934 29.4642,8.60549936 29.4642,7.80073169 C29.4642,6.90436445 28.6862,5.94537302 26.8172,5.94537302 C25.4112,5.94537302 24.5172,6.56413747 24.5172,7.43059465 C24.5172,8.49707537 25.6762,9.00741585 26.4032,9.23921884 L27.8752,9.71871456 Z M26.0892,10.8478195 C24.9142,11.2338463 24.1042,12.068524 24.1042,13.0434051 C24.1042,14.0481964 25.0472,15.2689009 26.9652,15.2689009 C28.9672,15.2689009 29.9102,14.2491546 29.9102,13.3210079 C29.9102,12.1311482 28.7862,11.6516525 27.5452,11.2805807 L26.0892,10.8478195 Z M22.7642,7.81662141 C22.7642,6.45571349 23.9222,5.003206 26.9492,5.003206 C29.7942,5.003206 31.0852,6.23980021 31.0852,7.66239764 C31.0852,9.06910535 29.6782,9.82713854 28.7692,10.1047413 C30.5892,10.7393955 31.7302,11.5282734 31.7302,13.0275154 C31.7302,14.9445636 29.7612,16.2905165 27.0152,16.2905165 C24.3192,16.2905165 22.3342,15.1614116 22.3342,13.2125839 C22.3342,12.4704405 22.5822,11.1871118 24.9812,10.337479 C24.0042,10.0280968 22.7642,9.20837409 22.7642,7.81662141 L22.7642,7.81662141 Z" id="Fill-27" fill="#FEFEFE"></path>
                                <path d="M38.569,5.23482206 C38.784,5.23482206 38.982,5.21893233 39.165,5.18902227 L39.165,7.0126015 C38.85,6.67237452 38.403,6.44057152 37.428,6.45646124 L35.194,6.50319572 L35.194,9.59514861 L37.576,9.59514861 C37.791,9.59514861 37.99,9.57925889 38.172,9.54934882 L38.172,11.2336593 C38.039,11.1102803 37.709,10.8326775 36.915,10.8326775 L35.194,10.8326775 L35.194,14.5116154 C35.194,14.9761561 35.227,15.5790308 36.037,16.0585266 L32.746,16.0585266 C33.507,15.5631411 33.507,14.9135319 33.507,14.5116154 L33.507,6.7807985 C33.507,6.37888201 33.507,5.73020749 32.746,5.23482206 L38.569,5.23482206 Z" id="Fill-29" fill="#FEFEFE"></path>
                                <path d="M43.2079,5.23482206 L46.5499,13.3217557 L49.6599,6.31719251 C49.8249,5.9610758 49.9409,5.55915931 50.0069,5.23482206 L52.8689,5.23482206 C52.5549,5.41989058 52.2079,5.77600728 52.3399,6.79668822 L53.4149,14.6826636 C53.4809,15.1462696 53.5969,15.6715651 54.2249,16.0585266 L51.0159,16.0585266 C51.8269,15.5481861 51.6939,14.8368874 51.6109,14.1255887 L50.7349,6.85837773 L46.6489,16.2127503 L46.1849,15.8416786 C45.7879,15.5173413 45.5239,15.0528006 45.3089,14.5424602 L42.0669,6.88922248 L40.9579,14.2489677 C40.8589,14.8985769 40.7259,15.6248306 41.6199,16.0585266 L38.7409,16.0585266 C39.1719,15.6874548 39.5029,15.1771143 39.6349,14.2957021 L40.7929,6.8434227 C40.8909,6.17792377 41.0399,5.6675833 40.2629,5.23482206 L43.2079,5.23482206 Z" id="Fill-31" fill="#FEFEFE"></path>
                                <path d="M8.4234,21.957539 C8.2924,21.8734169 7.7834,21.5453409 7.0604,21.5453409 C6.1584,21.5453409 5.2564,22.1061546 5.2564,23.2062842 C5.2564,24.1456471 5.8344,25.148569 7.2254,25.148569 C8.1764,25.148569 8.6364,24.8335786 8.8434,24.6737467 L8.3754,25.5345957 C7.9694,25.6579747 7.6244,25.696297 7.1704,25.696297 C5.1044,25.696297 4.4644,24.3765154 4.4644,23.3801364 C4.4644,22.1444769 5.4014,20.9985475 7.1434,20.9985475 C7.5624,20.9985475 7.8104,21.0564983 8.0374,21.1013634 C8.1764,21.1340775 8.2724,21.153706 8.4234,21.1723998 L8.4234,21.957539 Z" id="Fill-33" fill="#FEFEFE"></path>
                                <path d="M14.8042,22.8715718 L14.8042,21.7387282 C14.8042,21.5265536 14.7972,21.3012935 14.4872,21.0947271 L15.8232,21.0947271 C15.5132,21.3012935 15.5072,21.5265536 15.5072,21.7387282 L15.5072,24.9559294 C15.5072,25.168104 15.5132,25.3942988 15.8232,25.5989958 L14.4872,25.5989958 C14.7972,25.3942988 14.8042,25.168104 14.8042,24.9559294 L14.8042,23.3865858 L12.1532,23.3865858 L12.1532,24.9559294 C12.1532,25.168104 12.1602,25.3942988 12.4702,25.5989958 L11.1342,25.5989958 C11.4442,25.3942988 11.4512,25.168104 11.4512,24.9559294 L11.4512,21.7387282 C11.4512,21.5265536 11.4442,21.3012935 11.1342,21.0947271 L12.4702,21.0947271 C12.1602,21.3012935 12.1532,21.5265536 12.1532,21.7387282 L12.1532,22.8715718 L14.8042,22.8715718 Z" id="Fill-35" fill="#FEFEFE"></path>
                                <path d="M19.141,23.2446064 C19.141,24.3643645 19.892,25.1681974 20.98,25.1681974 C21.868,25.1681974 22.845,24.6344897 22.845,23.4511728 C22.845,22.3304801 22.095,21.5257124 21.007,21.5257124 C20.119,21.5257124 19.141,22.0603548 19.141,23.2446064 M23.637,23.3474223 C23.637,24.5503677 22.728,25.696297 20.993,25.696297 C19.189,25.696297 18.35,24.480266 18.35,23.3474223 C18.35,22.1444769 19.258,20.9985475 20.993,20.9985475 C22.797,20.9985475 23.637,22.2145786 23.637,23.3474223" id="Fill-37" fill="#FEFEFE"></path>
                                <path d="M30.1397,21.957539 C30.0087,21.8734169 29.4997,21.5453409 28.7767,21.5453409 C27.8747,21.5453409 26.9727,22.1061546 26.9727,23.2062842 C26.9727,24.1456471 27.5507,25.148569 28.9417,25.148569 C29.8927,25.148569 30.3527,24.8335786 30.5597,24.6737467 L30.0917,25.5345957 C29.6857,25.6579747 29.3407,25.696297 28.8867,25.696297 C26.8217,25.696297 26.1807,24.3765154 26.1807,23.3801364 C26.1807,22.1444769 27.1177,20.9985475 28.8597,20.9985475 C29.2797,20.9985475 29.5277,21.0564983 29.7537,21.1013634 C29.8927,21.1340775 29.9887,21.153706 30.1397,21.1723998 L30.1397,21.957539 Z" id="Fill-39" fill="#FEFEFE"></path>
                                <path d="M33.5726,23.2446064 C33.5726,24.3643645 34.3226,25.1681974 35.4106,25.1681974 C36.2986,25.1681974 37.2766,24.6344897 37.2766,23.4511728 C37.2766,22.3304801 36.5256,21.5257124 35.4386,21.5257124 C34.5496,21.5257124 33.5726,22.0603548 33.5726,23.2446064 M38.0676,23.3474223 C38.0676,24.5503677 37.1596,25.696297 35.4246,25.696297 C33.6206,25.696297 32.7806,24.480266 32.7806,23.3474223 C32.7806,22.1444769 33.6896,20.9985475 35.4246,20.9985475 C37.2276,20.9985475 38.0676,22.2145786 38.0676,23.3474223" id="Fill-41" fill="#FEFEFE"></path>
                                <path d="M41.9861,21.0950075 C41.6481,21.295031 41.6351,21.578242 41.6351,21.7390086 L41.6351,25.0272463 C41.8621,25.0524829 42.1991,25.085197 42.4261,25.085197 C42.8741,25.085197 43.5281,25.0076178 43.9621,24.6664561 L43.5761,25.5992762 L40.6161,25.5992762 C40.9321,25.3936445 40.9321,25.1356702 40.9321,24.9562099 L40.9321,21.7390086 C40.9321,21.5586135 40.9321,21.3006392 40.6161,21.0950075 L41.9861,21.0950075 Z" id="Fill-43" fill="#FEFEFE"></path>
                                <path d="M47.619,23.4569679 L49.113,23.4569679 L48.363,21.6810578 L47.619,23.4569679 Z M48.844,21.0950075 L50.503,24.9365814 C50.614,25.1880128 50.751,25.4329015 51.089,25.5992762 L49.608,25.5992762 C49.932,25.4646809 49.876,25.2459636 49.816,25.0982827 L49.292,23.8878597 L47.44,23.8878597 L47.006,24.8982591 C46.91,25.1235193 46.848,25.3871017 47.171,25.5992762 L45.87,25.5992762 C46.229,25.3805589 46.366,25.0908051 46.496,24.7823576 L47.873,21.5258994 C47.901,21.4623405 47.998,21.2174518 47.715,21.0950075 L48.844,21.0950075 Z" id="Fill-45" fill="#FEFEFE"></path>
                                <path d="M54.7338,24.9560229 C54.7338,25.1354833 54.7338,25.3934576 55.0508,25.5990893 L53.7148,25.5990893 C54.0308,25.3934576 54.0308,25.1354833 54.0308,24.9560229 L54.0308,21.6098345 L53.2128,21.6042263 C53.0468,21.6042263 52.7508,21.6285283 52.4968,21.8734169 L52.7708,21.0695839 C52.9368,21.0948206 53.0318,21.0948206 53.2128,21.0948206 L55.8768,21.0948206 C56.0208,21.0948206 56.1728,21.0817349 56.2968,21.0695839 L56.0548,21.8229437 C55.9238,21.6042263 55.6768,21.6042263 55.5058,21.6042263 L54.7338,21.6098345 L54.7338,24.9560229 Z" id="Fill-47" fill="#FEFEFE"></path>
                                <path d="M61.305,21.0950075 L61.305,21.8352816 C61.174,21.6932088 60.988,21.5969358 60.582,21.6034786 L59.653,21.6231071 L59.653,22.9092398 L60.644,22.9092398 C60.734,22.9092398 60.816,22.902697 60.892,22.890546 L60.892,23.5915632 C60.761,23.4700535 60.61,23.4242537 60.369,23.4242537 L59.653,23.4242537 L59.653,25.0393972 C60.073,25.0786542 60.41,25.085197 60.548,25.085197 C61.305,25.085197 61.684,24.9431242 61.987,24.6926274 L61.635,25.5992762 L58.634,25.5992762 C58.95,25.3936445 58.95,25.1235193 58.95,24.9562099 L58.95,21.7390086 C58.95,21.5707645 58.95,21.3006392 58.634,21.0950075 L61.305,21.0950075 Z" id="Fill-49" fill="#FEFEFE"></path>
                                <path d="M12.8014,27.4160322 C12.9234,27.4122935 13.0444,27.4085547 13.1664,27.4085547 C14.1224,27.4085547 14.2184,27.9058095 14.2184,28.1207881 C14.2184,28.4423213 13.9464,28.744226 13.4934,28.8152624 C13.8204,29.2966275 14.4274,30.0060569 14.8424,30.1668234 C14.5504,30.1864519 14.4364,30.1901907 14.3904,30.1901907 C13.9084,30.1901907 13.2544,29.1984851 12.9904,28.7358138 C13.2924,28.7087078 13.7364,28.5488759 13.7364,28.1563063 C13.7364,27.97965 13.6654,27.6983085 13.1494,27.6983085 C13.0444,27.6983085 12.9654,27.7020472 12.8684,27.7254145 L12.8684,29.7751885 C12.8684,29.8845472 12.8684,30.0406404 13.0614,30.1668234 L12.2484,30.1668234 C12.4414,30.0406404 12.4414,29.8845472 12.4414,29.7751885 L12.4414,27.8151446 C12.4414,27.705786 12.4414,27.5487581 12.2484,27.4235097 C12.4334,27.4235097 12.6174,27.419771 12.8014,27.4160322" id="Fill-51" fill="#FEFEFE"></path>
                                <path d="M22.8746,28.8617165 L23.7846,28.8617165 L23.3276,27.7802807 L22.8746,28.8617165 Z M23.6216,27.4232293 L24.6316,29.7627572 C24.6986,29.9151116 24.7826,30.0646619 24.9876,30.166543 L24.0866,30.166543 C24.2836,30.0833557 24.2496,29.9506298 24.2126,29.8608996 L23.8936,29.1243642 L22.7666,29.1243642 L22.5016,29.7384552 C22.4436,29.8758546 22.4056,30.0366212 22.6026,30.166543 L21.8106,30.166543 C22.0286,30.0328824 22.1126,29.8571608 22.1916,29.6683535 L23.0306,27.6868118 C23.0466,27.6466201 23.1056,27.4980045 22.9336,27.4232293 L23.6216,27.4232293 Z" id="Fill-53" fill="#FEFEFE"></path>
                                <path d="M32.8751,29.8093982 C33.0091,29.8374389 33.1181,29.8449164 33.2561,29.8449164 C34.0361,29.8449164 34.5051,29.4570202 34.5051,28.7672194 C34.5051,28.109198 33.9981,27.7100855 33.3451,27.7100855 C33.1931,27.7100855 32.9421,27.7325181 32.8751,27.741865 L32.8751,29.8093982 Z M32.4471,27.8147708 C32.4471,27.7054121 32.4471,27.549319 32.2541,27.4231359 C32.5181,27.4081808 33.0551,27.3885524 33.3451,27.3885524 C34.5511,27.3885524 34.9871,28.0736798 34.9871,28.7831091 C34.9871,29.5906808 34.3591,30.1664496 33.3401,30.1664496 L32.2541,30.1664496 C32.4471,30.0402665 32.4471,29.8841733 32.4471,29.7748147 L32.4471,27.8147708 Z" id="Fill-55" fill="#FEFEFE"></path>
                                <path d="M43.2342,27.4235097 C43.0412,27.5487581 43.0412,27.705786 43.0412,27.8151446 L43.0412,29.7751885 C43.0412,29.8845472 43.0412,30.0406404 43.2342,30.1668234 L42.4202,30.1668234 C42.6142,30.0406404 42.6142,29.8845472 42.6142,29.7751885 L42.6142,27.8151446 C42.6142,27.705786 42.6142,27.5487581 42.4202,27.4235097 L43.2342,27.4235097 Z" id="Fill-57" fill="#FEFEFE"></path>
                                <path d="M51.1417,28.7321685 C51.1417,29.4144919 51.5987,29.9033345 52.2607,29.9033345 C52.8017,29.9033345 53.3967,29.5789972 53.3967,28.8574169 C53.3967,28.1760283 52.9397,27.6871857 52.2767,27.6871857 C51.7367,27.6871857 51.1417,28.0115229 51.1417,28.7321685 M53.8787,28.7957274 C53.8787,29.528524 53.3247,30.2248677 52.2697,30.2248677 C51.1707,30.2248677 50.6597,29.4845936 50.6597,28.7957274 C50.6597,28.0619961 51.2127,27.3647178 52.2697,27.3647178 C53.3677,27.3647178 53.8787,28.1059266 53.8787,28.7957274" id="Fill-59" fill="#FEFEFE"></path>
                                <mask id="mask-4" fill="white">
                                    <use xlink:href="#path-3"></use>
                                </mask>
                                <g id="Clip-62"></g>
                                <polygon id="Fill-61" fill="#FEFEFE" mask="url(#mask-4)" points="12.103 18.5444122 54.349 18.5444122 54.349 18.3414122 12.103 18.3414122"></polygon>
                            </g>
                        </g>
                    </g>
                </g>
            </g>
        </g>
    </g>
</svg>