<?xml version="1.0" encoding="UTF-8" standalone="no"?>
<svg width="67px" height="31px" viewBox="0 0 67 31" version="1.1" xmlns="http://www.w3.org/2000/svg" xmlns:xlink="http://www.w3.org/1999/xlink">
    <!-- Generator: Sketch 3.8.3 (29802) - http://www.bohemiancoding.com/sketch -->
    <title>Group 1034</title>
    <desc>Created with Sketch.</desc>
    <defs>
        <polygon id="path-1" points="13.8360009 0.288716927 0.0835370241 0.288716927 0.0835370241 13.3464584 13.8360009 13.3464584 13.8360009 0.288716927"></polygon>
        <polygon id="path-3" points="0.442003866 30.4700041 66.9115351 30.4700041 66.9115351 0.288716927 0.442003866 0.288716927"></polygon>
    </defs>
    <g id="V2" stroke="none" stroke-width="1" fill="none" fill-rule="evenodd">
        <g id="Desktop-1240-Copy-3" transform="translate(-751.000000, -1986.000000)">
            <g id="Group-11" transform="translate(-7.000000, 1523.000000)">
                <g id="partners">
                    <g id="Group-14" transform="translate(0.000000, 59.000000)">
                        <g id="Group-80" transform="translate(732.000000, 355.973233)">
                            <g id="Group-1034" transform="translate(26.000000, 48.281585)">
                                <path d="M12.9119739,17.0774467 L12.9119739,19.3887773 L14.0835402,19.3887773 C14.8387012,19.3887773 15.2320676,18.7802385 15.2320676,18.2211486 C15.2320676,17.6612611 14.8301683,17.0774467 14.0835402,17.0774467 L12.9119739,17.0774467 L12.9119739,17.0774467 Z M11.6909169,16.015096 L14.3796316,16.015096 C15.7483076,16.015096 16.4855496,17.027998 16.4855496,18.1964242 C16.4855496,19.543504 15.4854945,20.4431523 14.3796316,20.4431523 L12.9119739,20.4431523 L12.9119739,22.5032513 L11.6909169,22.5032513 L11.6909169,16.015096 L11.6909169,16.015096 Z" id="Fill-962" fill="#221F20"></path>
                                <path d="M24.4905127,21.4412994 L27.2773556,21.4412994 L27.2773556,17.0770479 L25.0972014,17.0770479 L25.0972014,17.9049158 C25.0972014,19.5351296 24.9086244,20.7027583 24.4905127,21.4412994 L24.4905127,21.4412994 Z M22.4409117,21.4412994 L22.8923018,21.4412994 C23.7447378,21.2379214 23.9409944,20.0543415 23.9409944,17.8235646 L23.9409944,16.0146973 L28.4984126,16.0146973 L28.4984126,21.4412994 L29.4412973,21.4412994 L29.4412973,23.8443494 L28.2697311,23.8443494 L28.2697311,22.5036501 L23.6133313,22.5036501 L23.6133313,23.8443494 L22.4409117,23.8443494 L22.4409117,21.4412994 Z" id="Fill-964" fill="#221F20"></path>
                                <polygon id="Fill-966" fill="#221F20" points="35.0183109 17.8234051 34.985886 17.8234051 31.411457 22.5034906 30.2561033 22.5034906 30.2561033 16.0145377 31.4771603 16.0145377 31.4771603 20.7025988 31.5019057 20.7025988 35.0754813 16.0145377 36.2316884 16.0145377 36.2316884 22.5034906 35.0183109 22.5034906"></polygon>
                                <polygon id="Fill-968" fill="#221F20" points="42.1477992 19.7456059 38.6723518 19.7456059 38.6723518 22.5035703 37.4504415 22.5035703 37.4504415 16.0146175 38.6723518 16.0146175 38.6723518 18.6912308 42.1477992 18.6912308 42.1477992 16.0146175 43.3688562 16.0146175 43.3688562 22.5035703 42.1477992 22.5035703"></polygon>
                                <polygon id="Fill-970" fill="#221F20" points="46.4191948 17.1014533 46.4191948 22.503331 45.1981378 22.503331 45.1981378 16.0143782 49.5174884 16.0143782 49.5174884 17.1014533"></polygon>
                                <polygon id="Fill-972" fill="#221F20" points="50.4029467 22.5035703 50.4029467 16.0146175 54.6327018 16.0146175 54.6327018 17.0769682 51.6240037 17.0769682 51.6240037 18.7638088 53.9765223 18.7638088 53.9765223 19.7535815 51.6240037 19.7535815 51.6240037 21.4412196 54.6898722 21.4412196 54.6898722 22.5035703"></polygon>
                                <path d="M57.1945323,17.0774467 L57.1945323,19.3887773 L58.3669519,19.3887773 C59.1212596,19.3887773 59.514626,18.7802385 59.514626,18.2211486 C59.514626,17.6612611 59.1127267,17.0774467 58.3669519,17.0774467 L57.1945323,17.0774467 Z M55.9734753,16.015096 L58.66219,16.015096 C60.030866,16.015096 60.7689613,17.027998 60.7689613,18.1964242 C60.7689613,19.543504 59.7680529,20.4431523 58.66219,20.4431523 L57.1945323,20.4431523 L57.1945323,22.5032513 L55.9734753,22.5032513 L55.9734753,16.015096 Z" id="Fill-974" fill="#221F20"></path>
                                <path d="M63.0588485,16.0145377 L60.4597292,22.5034906 L61.7558757,22.5034906 L62.3540315,20.8732767 L65.0256804,20.8732767 L65.5914112,22.5034906 L66.9114498,22.5034906 L64.4275246,16.0145377 L63.0588485,16.0145377 Z M63.7227076,17.1821664 L63.747453,17.1821664 L64.6732719,19.8675529 L62.7303321,19.8675529 L63.7227076,17.1821664 Z" id="Fill-976" fill="#221F20"></path>
                                <polygon id="Fill-978" fill="#221F20" points="18.7233008 21.4412994 18.7233008 19.7536612 21.0758195 19.7536612 21.0758195 18.7638885 18.7233008 18.7638885 18.7233008 17.0770479 21.731999 17.0770479 21.731999 16.0146973 17.5022438 16.0146973 17.5022438 22.5036501 21.7891694 22.5036501 21.7891694 21.4412994"></polygon>
                                <path d="M18.0096097,15.237953 L19.0830476,15.237953 C19.146191,15.237953 19.2033614,15.2004677 19.2281068,15.1430433 C19.2519989,15.0848214 19.2383463,15.0186239 19.1939752,14.9739605 L18.6572562,14.44119 C18.6273911,14.4124778 18.5881398,14.395729 18.5463286,14.395729 C18.5045175,14.395729 18.4652662,14.4124778 18.435401,14.44119 L17.898682,14.9739605 C17.854311,15.0186239 17.8415117,15.0848214 17.8654038,15.1430433 C17.8892959,15.2004677 17.9464662,15.237953 18.0096097,15.237953" id="Fill-980" fill="#221F20"></path>
                                <path d="M20.0718393,15.237953 L21.1196786,15.237953 C21.1811154,15.237953 21.2374325,15.2012652 21.2613246,15.1446384 C21.2843634,15.0888092 21.2715641,15.0234092 21.2280463,14.9803409 L20.7032734,14.4603315 C20.6751148,14.4324168 20.6367168,14.4164656 20.5957589,14.4164656 C20.5556543,14.4164656 20.516403,14.4324168 20.4873912,14.4603315 L19.9634715,14.9803409 C19.9199538,15.0234092 19.9071544,15.0888092 19.9310465,15.1446384 C19.9549386,15.2012652 20.0104024,15.237953 20.0718393,15.237953" id="Fill-982" fill="#221F20"></path>
                                <path d="M27.0719688,6.35990751 L22.8319742,4.70576688 L22.8319742,0.729927435 C22.8319742,0.581581169 22.7551782,0.445995872 22.6323045,0.375810541 C22.5094309,0.306422772 22.3601052,0.314398377 22.2440579,0.397344677 L18.5467553,3.03248481 L14.0968515,1.29619544 C13.9859239,1.25153205 13.8621969,1.25153205 13.750416,1.29619544 L9.30051224,3.03248481 L5.60406292,0.397344677 C5.48801557,0.314398377 5.33868994,0.306422772 5.21496299,0.375810541 C5.09208933,0.445995872 5.01529329,0.581581169 5.01529329,0.729927435 L5.01529329,4.70576688 L0.776151963,6.35990751 C0.583308577,6.4348782 0.453608601,6.6270903 0.447635576,6.84402678 C0.441662551,7.06176081 0.561976344,7.26194852 0.749699994,7.34808506 L13.7248174,13.3034698 C13.7879608,13.332182 13.8562239,13.3465381 13.9236338,13.3465381 C13.9918969,13.3465381 14.0601601,13.332182 14.1233035,13.3034698 L27.0975675,7.34808506 C27.2861445,7.26194852 27.4064583,7.06176081 27.4004852,6.84402678 C27.3953655,6.6270903 27.2648122,6.43567576 27.0719688,6.35990751" id="Fill-984" fill="#221F20"></path>
                                <path d="M19.1818585,6.69257002 L19.7254038,6.20286783 C19.86449,6.07765082 19.86449,5.87347532 19.7254038,5.74825831 C19.5863177,5.6230413 19.3610493,5.6230413 19.2219631,5.74825831 L18.6784178,6.23875806 L18.1357258,5.74825831 C17.9966397,5.6230413 17.770518,5.6230413 17.6314318,5.74825831 C17.493199,5.87347532 17.493199,6.07765082 17.6314318,6.20286783 L18.1749771,6.69257002 L17.6314318,7.18306978 C17.493199,7.30828679 17.493199,7.51086717 17.6314318,7.63688174 C17.7014016,7.69988903 17.7927035,7.73099389 17.8831522,7.73099389 C17.9744541,7.73099389 18.0657561,7.69988903 18.1357258,7.63688174 L18.6784178,7.14717955 L19.2219631,7.63688174 C19.2910796,7.69988903 19.3823815,7.73099389 19.4736835,7.73099389 C19.5641321,7.73099389 19.6554341,7.69988903 19.7254038,7.63688174 C19.86449,7.51086717 19.86449,7.30828679 19.7254038,7.18306978 L19.1818585,6.69257002 Z" id="Fill-986" fill="#FEFEFE"></path>
                                <path d="M8.8638841,6.17567102 C8.54816705,6.17567102 8.29132697,6.40776114 8.29132697,6.69249027 C8.29132697,6.97801695 8.54816705,7.20930952 8.8638841,7.20930952 C9.17960115,7.20930952 9.43729452,6.97801695 9.43729452,6.69249027 C9.43729452,6.40776114 9.17960115,6.17567102 8.8638841,6.17567102 M8.8638841,7.85214334 C8.15565396,7.85214334 7.57883039,7.33213385 7.57883039,6.69249027 C7.57883039,6.05364425 8.15565396,5.5328372 8.8638841,5.5328372 C9.57296752,5.5328372 10.1489378,6.05364425 10.1489378,6.69249027 C10.1489378,7.33213385 9.57296752,7.85214334 8.8638841,7.85214334" id="Fill-988" fill="#FEFEFE"></path>
                                <path d="M13.7525493,9.06523297 C13.6945256,9.06523297 13.6382085,9.04449639 13.5972506,9.00701105 L12.846356,8.32748944 C12.7840659,8.27086264 12.7652935,8.18632122 12.7994251,8.11214809 C12.8327034,8.03877251 12.9129126,7.99091888 13.0008014,7.99091888 L14.5042971,7.99091888 C14.5921859,7.99091888 14.6723951,8.03877251 14.7056734,8.11214809 C14.739805,8.18632122 14.7210326,8.27086264 14.6587425,8.32748944 L13.9078479,9.00701105 C13.86689,9.04449639 13.8105729,9.06523297 13.7525493,9.06523297" id="Fill-990" fill="#FEFEFE"></path>
                                <path d="M40.9854485,12.5876592 L36.6217269,6.55889887 L40.9632629,1.04137484 C41.0383524,0.94566757 41.0502985,0.818057878 40.9922748,0.711982322 C40.9351044,0.605906766 40.8182038,0.538911678 40.6910637,0.538911678 L38.6064779,0.538911678 C38.494697,0.538911678 38.3905957,0.589955555 38.3274522,0.676092097 L34.5593266,5.80679925 L32.9227177,5.80600169 L32.9227177,0.854745665 C32.9227177,0.680079899 32.7716855,0.538911678 32.5856684,0.538911678 L30.7212313,0.538911678 C30.5352142,0.538911678 30.384182,0.680079899 30.384182,0.854745665 L30.384182,12.7647177 C30.384182,12.9385859 30.5352142,13.0805517 30.7212313,13.0805517 L32.5856684,13.0805517 C32.7716855,13.0805517 32.9227177,12.9385859 32.9227177,12.7647177 L32.9227177,7.79671288 L34.5593266,7.79671288 L38.1405819,12.9369908 C38.202872,13.0263175 38.3095332,13.0805517 38.4238739,13.0805517 L40.7055696,13.0805517 C40.8310031,13.0805517 40.9453439,13.0159493 41.0042208,12.9122664 C41.0630978,12.8093811 41.0554182,12.6841641 40.9854485,12.5876592" id="Fill-992" fill="#221F20"></path>
                                <g id="Group-996" transform="translate(41.811177, 0.000000)">
                                    <mask id="mask-2" fill="white">
                                        <use xlink:href="#path-1"></use>
                                    </mask>
                                    <g id="Clip-995"></g>
                                    <path d="M6.96787523,2.27950787 C9.51579714,2.27950787 11.2283488,4.06205575 11.2283488,6.71553977 C11.2283488,9.5245481 9.54907542,11.339796 6.95080945,11.339796 C4.36278295,11.339796 2.69118918,9.55565296 2.69118918,6.7937007 C2.69118918,4.05168746 4.36960926,2.27950787 6.96787523,2.27950787 M6.98494102,0.287999122 C2.79273061,0.287999122 0.0835370241,2.83620515 0.0835370241,6.77854705 C0.0835370241,10.7065329 2.8567273,13.3464584 6.98494102,13.3464584 C11.0824363,13.3464584 13.8360009,10.7009499 13.8360009,6.76259584 C13.8360009,2.82982466 11.146433,0.287999122 6.98494102,0.287999122" id="Fill-994" fill="#221F20" mask="url(#mask-2)"></path>
                                </g>
                                <path d="M66.5736325,0.538831922 L56.7172876,0.538831922 C56.5304173,0.538831922 56.3793851,0.680000143 56.3793851,0.854665909 L56.3793851,2.27751397 C56.3793851,2.45138217 56.5304173,2.59334795 56.7172876,2.59334795 L60.366806,2.59334795 L60.366806,12.7646379 C60.366806,12.9385061 60.5178382,13.0796744 60.7047086,13.0796744 L62.5682925,13.0796744 C62.7551628,13.0796744 62.906195,12.9385061 62.906195,12.7646379 L62.906195,2.59334795 L66.5736325,2.59334795 C66.7605029,2.59334795 66.9115351,2.45138217 66.9115351,2.27751397 L66.9115351,0.854665909 C66.9115351,0.680000143 66.7605029,0.538831922 66.5736325,0.538831922" id="Fill-997" fill="#221F20"></path>
                                <path d="M64.8230242,30.4284512 C65.3631563,30.4284512 65.621703,30.1660537 65.621703,29.4307029 L65.621703,28.7487886 L66.1925535,28.7487886 L66.1925535,30.4284512 L66.6337041,30.4284512 L66.6337041,28.3866961 L65.2163905,28.3866961 L65.2163905,29.3613151 C65.2163905,29.9299758 65.1319149,30.0496099 64.8230242,30.0496099 L64.8230242,30.4284512 Z" id="Fill-999" fill="#221F20"></path>
                                <path d="M62.8334948,29.6040926 L63.0766822,28.9405222 L63.3138967,29.6040926 L62.8334948,29.6040926 Z M63.3010973,28.3870151 L62.8676264,28.3870151 L62.1124653,30.2907922 L62.1124653,30.4287702 L62.5211909,30.4287702 L62.7020882,29.9486387 L63.4487164,29.9486387 L63.6227874,30.4287702 L64.0605248,30.4287702 L64.0605248,30.2907922 L63.3010973,28.3870151 Z" id="Fill-1001" fill="#221F20"></path>
                                <polygon id="Fill-1003" fill="#221F20" points="59.4535305 30.4284512 59.8946811 30.4284512 59.8946811 29.5910126 60.6933599 29.5910126 60.6933599 30.4284512 61.1336571 30.4284512 61.1336571 28.3866961 60.6933599 28.3866961 60.6933599 29.2289201 59.8946811 29.2289201 59.8946811 28.3866961 59.4535305 28.3866961"></polygon>
                                <path d="M57.6875629,29.3121056 L57.2361729,29.3121056 L57.2361729,28.7482303 L57.6875629,28.7482303 C57.8181162,28.7482303 57.9452563,28.8327717 57.9452563,29.0289716 C57.9452563,29.2275642 57.8181162,29.3121056 57.6875629,29.3121056 M57.7686254,28.3869354 L56.7958756,28.3869354 L56.7958756,30.4286904 L57.2361729,30.4286904 L57.2361729,29.6741981 L57.7686254,29.6741981 C58.1611385,29.6741981 58.395793,29.4229666 58.395793,29.0321619 C58.395793,28.6373694 58.1611385,28.3869354 57.7686254,28.3869354" id="Fill-1005" fill="#221F20"></path>
                                <polygon id="Fill-1007" fill="#221F20" points="54.5163132 30.2913505 54.5163132 30.4285309 54.9403979 30.4285309 55.8491511 28.5239563 55.8491511 28.3867759 55.4617577 28.3867759 54.9873289 29.3845241 54.4446369 28.3867759 54.0359113 28.3867759 54.0359113 28.5239563 54.7629138 29.8271703"></polygon>
                                <polygon id="Fill-1009" fill="#221F20" points="51.6676068 30.4284512 52.1087573 30.4284512 52.1087573 29.5910126 52.3741303 29.5910126 52.8289335 30.4284512 53.2760571 30.4284512 53.2760571 30.2912708 52.7512842 29.3804566 53.2316861 28.5246741 53.2316861 28.3866961 52.8263737 28.3866961 52.3638909 29.2289201 52.1087573 29.2289201 52.1087573 28.3866961 51.6676068 28.3866961 51.6676068 29.2289201 51.41162 29.2289201 50.9499905 28.3866961 50.544678 28.3866961 50.544678 28.5246741 51.0250799 29.3804566 50.500307 30.2912708 50.500307 30.4284512 50.9465773 30.4284512 51.4022338 29.5910126 51.6676068 29.5910126"></polygon>
                                <path d="M46.9532686,28.3365388 C47.2561863,28.3365388 47.4652422,28.180405 47.4652422,27.8820779 L47.4652422,27.8365388 L47.1213666,27.8365388 L47.1213666,27.8783604 C47.1213666,27.965721 47.075289,28.0307767 46.9532686,28.0307767 C46.8346614,28.0307767 46.7851706,27.965721 46.7851706,27.8783604 L46.7851706,27.8365388 L46.4387352,27.8365388 L46.4387352,27.8820779 C46.4387352,28.180405 46.6503509,28.3365388 46.9532686,28.3365388" id="Fill-1011" fill="#221F20"></path>
                                <polygon id="Fill-1013" fill="#221F20" points="46.1033925 30.4284512 46.5069983 30.4284512 47.3611409 29.1276299 47.3611409 30.4284512 47.8014382 30.4284512 47.8014382 28.3866961 47.3978324 28.3866961 46.544543 29.6875174 46.544543 28.3866961 46.1033925 28.3866961"></polygon>
                                <path d="M43.5338823,30.0669967 L43.0901719,30.0669967 L43.0901719,29.5198702 L43.5338823,29.5198702 C43.6618757,29.5198702 43.786456,29.6012213 43.786456,29.7934334 C43.786456,29.9856455 43.6618757,30.0669967 43.5338823,30.0669967 M43.6149448,29.1577777 L43.0901719,29.1577777 L43.0901719,28.3873342 L42.6498746,28.3873342 L42.6498746,30.4290892 L43.6149448,30.4290892 C44.004898,30.4290892 44.2361395,30.1802503 44.2361395,29.7934334 C44.2361395,29.405819 44.004898,29.1577777 43.6149448,29.1577777" id="Fill-1015" fill="#221F20"></path>
                                <mask id="mask-4" fill="white">
                                    <use xlink:href="#path-3"></use>
                                </mask>
                                <g id="Clip-1018"></g>
                                <polygon id="Fill-1017" fill="#221F20" mask="url(#mask-4)" points="44.464053 30.4285309 44.964053 30.4285309 44.964053 28.3867759 44.464053 28.3867759"></polygon>
                                <polygon id="Fill-1019" fill="#221F20" mask="url(#mask-4)" points="39.7701085 30.4284512 40.2112591 30.4284512 40.2112591 29.5910126 41.0099379 29.5910126 41.0099379 30.4284512 41.4502352 30.4284512 41.4502352 28.3866961 41.0099379 28.3866961 41.0099379 29.2289201 40.2112591 29.2289201 40.2112591 28.3866961 39.7701085 28.3866961"></polygon>
                                <path d="M38.0044822,29.3121056 L37.5530922,29.3121056 L37.5530922,28.7482303 L38.0044822,28.7482303 C38.1350355,28.7482303 38.2630289,28.8327717 38.2630289,29.0289716 C38.2630289,29.2275642 38.1350355,29.3121056 38.0044822,29.3121056 M38.0855447,28.3869354 L37.1119416,28.3869354 L37.1119416,30.4286904 L37.5530922,30.4286904 L37.5530922,29.6741981 L38.0855447,29.6741981 C38.4780578,29.6741981 38.7118591,29.4229666 38.7118591,29.0321619 C38.7118591,28.6373694 38.4780578,28.3869354 38.0855447,28.3869354" id="Fill-1020" fill="#221F20" mask="url(#mask-4)"></path>
                                <path d="M35.4758447,29.3496707 L35.1174632,29.3496707 C34.9101139,29.3496707 34.7752941,29.267522 34.7752941,29.0458002 C34.7752941,28.8296612 34.8947547,28.7483101 35.102104,28.7483101 L35.4758447,28.7483101 L35.4758447,29.3496707 Z M35.004829,28.3870151 C34.5585587,28.3870151 34.3256107,28.6430321 34.3256107,29.0545733 C34.3256107,29.3353147 34.4646968,29.5418828 34.6882586,29.6439706 L34.2786798,30.2907922 L34.2786798,30.4287702 L34.6882586,30.4287702 L35.1208763,29.6990023 L35.4758447,29.6990023 L35.4758447,30.4287702 L35.9169953,30.4287702 L35.9169953,28.3870151 L35.004829,28.3870151 Z" id="Fill-1021" fill="#221F20" mask="url(#mask-4)"></path>
                                <path d="M31.4223791,30.4284512 C31.9625112,30.4284512 32.2210579,30.1660537 32.2210579,29.4307029 L32.2210579,28.7487886 L32.7919085,28.7487886 L32.7919085,30.4284512 L33.233059,30.4284512 L33.233059,28.3866961 L31.8157455,28.3866961 L31.8157455,29.3613151 C31.8157455,29.9299758 31.7312698,30.0496099 31.4223791,30.0496099 L31.4223791,30.4284512 Z" id="Fill-1022" fill="#221F20" mask="url(#mask-4)"></path>
                                <polygon id="Fill-1023" fill="#221F20" mask="url(#mask-4)" points="29.4516221 30.2913505 29.4516221 30.4285309 29.8757069 30.4285309 30.78446 28.5239563 30.78446 28.3867759 30.3970667 28.3867759 29.9226378 29.3845241 29.3799458 28.3867759 28.9712202 28.3867759 28.9712202 28.5239563 29.6982227 29.8271703"></polygon>
                                <polygon id="Fill-1024" fill="#221F20" mask="url(#mask-4)" points="26.3618615 30.4284512 26.8030121 30.4284512 26.8030121 28.7487886 27.5837718 28.7487886 27.5837718 30.4284512 28.0240691 30.4284512 28.0240691 28.3866961 26.3618615 28.3866961"></polygon>
                                <path d="M24.7859214,29.7538744 C24.7859214,29.9285402 24.6545149,30.0912426 24.3575702,30.0912426 C24.0606255,30.0912426 23.929219,29.9285402 23.929219,29.7538744 L23.929219,29.0615919 C23.929219,28.8869261 24.0606255,28.7242237 24.3575702,28.7242237 C24.6545149,28.7242237 24.7859214,28.8869261 24.7859214,29.0615919 L24.7859214,29.7538744 Z M24.3575702,28.3453825 C23.8268242,28.3453825 23.4889217,28.6157555 23.4889217,29.0815309 L23.4889217,29.7339354 C23.4889217,30.1989132 23.8268242,30.4700838 24.3575702,30.4700838 C24.8917293,30.4700838 25.227072,30.1989132 25.227072,29.7339354 L25.227072,29.0815309 C25.227072,28.6157555 24.8917293,28.3453825 24.3575702,28.3453825 L24.3575702,28.3453825 Z" id="Fill-1025" fill="#221F20" mask="url(#mask-4)"></path>
                                <polygon id="Fill-1026" fill="#221F20" mask="url(#mask-4)" points="20.690218 30.4284512 21.1313686 30.4284512 21.1313686 28.7487886 21.9121283 28.7487886 21.9121283 30.4284512 22.3524256 30.4284512 22.3524256 28.3866961 20.690218 28.3866961"></polygon>
                                <polygon id="Fill-1027" fill="#221F20" mask="url(#mask-4)" points="18.0479223 29.6667901 19.5104602 29.6667901 19.5104602 29.1667901 18.0479223 29.1667901"></polygon>
                                <path d="M16.4898161,29.7538744 C16.4898161,29.9285402 16.3584095,30.0912426 16.0614648,30.0912426 C15.7645201,30.0912426 15.6331136,29.9285402 15.6331136,29.7538744 L15.6331136,29.0615919 C15.6331136,28.8869261 15.7645201,28.7242237 16.0614648,28.7242237 C16.3584095,28.7242237 16.4898161,28.8869261 16.4898161,29.0615919 L16.4898161,29.7538744 Z M16.0614648,28.3453825 C15.5307189,28.3453825 15.1928163,28.6157555 15.1928163,29.0815309 L15.1928163,29.7339354 C15.1928163,30.1989132 15.5307189,30.4700838 16.0614648,30.4700838 C16.5956239,30.4700838 16.9309666,30.1989132 16.9309666,29.7339354 L16.9309666,29.0815309 C16.9309666,28.6157555 16.5956239,28.3453825 16.0614648,28.3453825 L16.0614648,28.3453825 Z" id="Fill-1028" fill="#221F20" mask="url(#mask-4)"></path>
                                <polygon id="Fill-1029" fill="#221F20" mask="url(#mask-4)" points="12.375255 30.4284512 12.8164055 30.4284512 12.8164055 29.5910126 13.6150843 29.5910126 13.6150843 30.4284512 14.0553816 30.4284512 14.0553816 28.3866961 13.6150843 28.3866961 13.6150843 29.2289201 12.8164055 29.2289201 12.8164055 28.3866961 12.375255 28.3866961"></polygon>
                                <path d="M10.7354889,30.4284512 L11.1766395,30.4284512 L11.1766395,28.3866961 L10.7354889,28.3866961 L10.7354889,29.3094737 C10.629681,29.3326029 10.5417922,29.3413761 10.4112389,29.3413761 C10.1270936,29.3413761 10.0084864,29.2392884 10.0084864,29.0582421 L10.0084864,28.3866961 L9.56733581,28.3866961 L9.56733581,29.1045006 C9.56733581,29.6093565 9.98032784,29.7202174 10.3762541,29.7202174 C10.5016876,29.7202174 10.6202948,29.7058613 10.7354889,29.6875174 L10.7354889,30.4284512 Z" id="Fill-1030" fill="#221F20" mask="url(#mask-4)"></path>
                                <polygon id="Fill-1031" fill="#221F20" mask="url(#mask-4)" points="7.38189121 30.2913505 7.38189121 30.4285309 7.805976 30.4285309 8.71472913 28.5239563 8.71472913 28.3867759 8.32733578 28.3867759 7.85290691 29.3845241 7.31021491 28.3867759 6.90148933 28.3867759 6.90148933 28.5239563 7.62849182 29.8271703"></polygon>
                                <polygon id="Fill-1032" fill="#221F20" mask="url(#mask-4)" points="1.6309772 30.4284512 2.07212778 30.4284512 2.07212778 29.5910126 2.87080658 29.5910126 2.87080658 30.4284512 3.31110387 30.4284512 3.31110387 28.3866961 2.87080658 28.3866961 2.87080658 29.2289201 2.07212778 29.2289201 2.07212778 28.3866961 1.6309772 28.3866961"></polygon>
                                <path d="M5.01085619,29.6040926 L5.25404364,28.9405222 L5.49125807,29.6040926 L5.01085619,29.6040926 Z M5.47931202,28.3870151 L5.04498776,28.3870151 L4.28982671,30.2907922 L4.28982671,30.4287702 L4.6985523,30.4287702 L4.87944963,29.9486387 L5.62607778,29.9486387 L5.8001488,30.4287702 L6.23703293,30.4287702 L6.23703293,30.2907922 L5.47931202,28.3870151 Z" id="Fill-1033" fill="#221F20" mask="url(#mask-4)"></path>
                                <polygon id="Fill-961" fill="#221F20" mask="url(#mask-4)" points="2.1170108 16.0145377 3.33806781 16.0145377 3.33806781 21.4411399 5.5352878 21.4411399 5.5352878 16.0145377 6.74866521 16.0145377 6.74866521 21.4411399 8.94503191 21.4411399 8.94503191 16.0145377 10.1660889 16.0145377 10.1660889 22.5034906 2.1170108 22.5034906"></polygon>
                            </g>
                        </g>
                    </g>
                </g>
            </g>
        </g>
    </g>
</svg>