<?xml version="1.0" encoding="UTF-8" standalone="no"?>
<svg width="628px" height="597px" viewBox="0 0 628 597" version="1.1" xmlns="http://www.w3.org/2000/svg" xmlns:xlink="http://www.w3.org/1999/xlink">
    <!-- Generator: Sketch 3.8.3 (29802) - http://www.bohemiancoding.com/sketch -->
    <title>Group</title>
    <desc>Created with Sketch.</desc>
    <defs></defs>
    <g id="Page-1" stroke="none" stroke-width="1" fill="none" fill-rule="evenodd">
        <g id="Лого-(2)" transform="translate(-253.000000, -505.000000)" fill="#1B1918">
            <g id="Group" transform="translate(253.000000, 505.000000)">
                <path d="M315.2,199.6 L192.8,199.6 L192.5,330.5 L256.5,331 L256.6,238.8 L315.2,238.9 L373.8,238.8 L373.9,331 L437.9,330.5 L437.6,199.6 L315.2,199.6 L315.2,199.6 Z M315.2,224.8 L242.8,224.8 L242.7,271.1 C242.6,285 242.4,300.7 242.6,314.5 C242.6,317 242.8,316.7 242.1,317 L242.5,224.7 C244.4,224.1 307.3,224.5 314.9,224.5 L315.2,224.5 L315.5,224.5 C323.1,224.5 386,224.1 387.9,224.7 L388.3,317 L424,317 L424,213.9 L315.2,213.8 L206.4,213.9 L206.4,317 L242.1,317 L242.5,224.7 C244.4,224.1 307.3,224.5 314.9,224.5 L315.2,224.5 L315.5,224.5 C323.1,224.5 386,224.1 387.9,224.7 L388.3,317 C387.7,316.7 387.8,317 387.8,314.5 C388,300.7 387.8,285 387.7,271.1 L387.7,224.8 L315.2,224.8 L315.2,224.8 Z M315.2,459.7 C324.4,459.7 333.8,458.4 343.1,455.2 C357.8,450.3 370.8,441.8 380.3,431.5 C386.5,424.7 390.8,418.7 395.2,409.8 C397.9,404.3 400.1,398.4 401.7,391.9 C403.8,383.6 404,379 404.8,370.7 C405.3,370.3 405.8,370.3 406.5,370.3 C407.1,370.3 407.8,370.4 408.5,370.4 L438,370.4 C438.9,376.9 436.5,391.9 435.1,398.1 C431.1,416.4 421.9,435.8 409.8,449.3 C407.2,452.2 405,454.9 402.3,457.4 C379.1,479.1 349.8,492.9 315.5,493.4 L315.2,493.4 L314.9,493.4 C280.6,492.9 251.3,479.1 228.2,457.4 C225.4,454.9 223.2,452.2 220.6,449.3 C208.5,435.8 199.3,416.4 195.3,398.1 C193.9,391.9 191.6,376.9 192.4,370.4 L221.9,370.4 C222.6,370.4 223.3,370.3 223.9,370.3 C224.6,370.3 225.1,370.3 225.6,370.7 C226.5,379 226.6,383.6 228.7,391.9 C230.3,398.4 232.5,404.3 235.2,409.8 C239.6,418.7 243.9,424.7 250.1,431.5 C259.6,441.8 272.6,450.3 287.3,455.2 C296.6,458.4 306,459.7 315.2,459.7 L315.2,459.7 Z M315.2,483.3 L315.5,483.3 C331.4,483 346.1,479.6 359,474 C365.3,471.3 371,468.2 376.2,464.9 C383.4,460.4 392.5,452.9 397.9,446.8 C404.4,439.5 409.5,433.2 414.4,423.9 C417.5,418 420,412.3 422.3,405.4 C423.7,401.1 427.1,388.3 426.9,383.8 L415.9,383.7 C414.6,391.9 414.3,395.2 411.7,403.3 C404.4,425.6 389.6,443.7 370.1,456.2 C365.4,459.2 360.2,462 354.7,464.3 C342.8,469.2 329.8,472.2 315.5,472.3 L315.2,472.3 L314.9,472.3 C300.6,472.2 287.6,469.2 275.7,464.3 C270.2,462 265,459.2 260.3,456.2 C240.8,443.7 226,425.6 218.7,403.3 C216.1,395.2 215.9,391.9 214.5,383.7 L203.5,383.8 C203.3,388.3 206.7,401.1 208.1,405.4 C210.4,412.3 212.9,418 216,423.9 C220.9,433.2 226,439.5 232.5,446.8 C237.9,452.9 247,460.4 254.2,464.9 C259.4,468.2 265.1,471.3 271.4,474 C284.3,479.6 299,483 314.9,483.3 L315.2,483.3 L315.2,483.3 Z M315.2,352.9 L323.7,327.5 C326.5,318.8 329.3,310.1 332.1,301.6 C334.9,293 337.7,284.4 340.5,275.7 L349,250 L365.6,250 L365.7,342.1 L452.1,342.1 L452,358.9 C450.1,359.5 368.4,358.7 351.6,358.5 L351.5,315.3 C351.5,315.3 351.4,315.3 351.4,315.4 L349.1,322 C348.3,324.3 347.5,326.6 346.8,328.8 C345.3,333.5 343.7,338.1 342.2,342.7 C339.2,352 336.3,360.9 333.2,370.2 C327.5,387.8 321.3,406 315.7,423.6 C315.5,424.4 315.4,424.6 315.2,424.9 C315,424.6 314.9,424.4 314.7,423.6 C309.1,406 303,387.8 297.2,370.2 C294.1,360.9 291.2,352 288.2,342.7 C286.7,338.1 285.1,333.5 283.6,328.8 C282.9,326.6 282.1,324.3 281.3,322 L279,315.4 C279,315.3 278.9,315.3 278.9,315.3 L278.8,358.5 C262,358.7 180.3,359.5 178.4,358.9 L178.3,342.1 L264.7,342.1 L264.8,250 L281.4,250 L289.9,275.7 C292.7,284.4 295.5,293 298.3,301.6 C301.1,310.1 303.9,318.8 306.7,327.5 L315.2,352.9 L315.2,352.9 Z" id="Fill-3"></path>
                <path d="M5.6,27.9 L11.7,27.9 L11.7,42.5 L17.1,42.5 L17.1,8.5 L11.7,8.5 L11.7,23 L5.6,23 L5.6,8.5 L0.3,8.5 L0.3,42.5 L5.6,42.5 L5.6,27.9 L5.6,27.9 Z M32.8,8.5 L25,8.5 L19.6,42.5 L24.5,42.5 L25.4,36.3 L32,36.3 L32.9,42.5 L38.3,42.5 L32.8,8.5 L32.8,8.5 Z M28.7,14.5 L31.2,31.7 L26.1,31.7 L28.7,14.5 L28.7,14.5 Z M58.3,8.5 L52.7,8.5 L50.3,20.1 L49,28.1 L47.4,20.1 L44.5,8.5 L39.2,8.5 L46.5,34.7 L46.5,35 C46.1,37.5 44.5,37.9 41.8,37.7 L41.8,42.5 C49.2,43 51.3,39.9 52.6,33.8 L58.3,8.5 L58.3,8.5 Z M71.4,8.5 L71.4,22.2 C71.4,24.5 70.3,25.7 68.6,25.7 C66.9,25.7 65.5,24.7 65.5,22.4 L65.5,8.5 L60.2,8.5 L60.2,22.8 C60.2,27.5 62.4,30.7 66.8,30.7 C68.3,30.7 70.2,30 71.4,28.8 L71.4,42.5 L76.7,42.5 L76.7,8.5 L71.4,8.5 L71.4,8.5 Z M86,27.9 L92,27.9 L92,42.5 L97.5,42.5 L97.5,8.5 L92,8.5 L92,23 L86,23 L86,8.5 L80.6,8.5 L80.6,42.5 L86,42.5 L86,27.9 L86,27.9 Z M106.2,16.3 C106.2,13.9 107.3,12.9 109,12.9 C110.7,12.9 111.8,13.9 111.8,16.3 L111.8,34.6 C111.8,37.1 110.7,38 109,38 C107.3,38 106.2,37.1 106.2,34.6 L106.2,16.3 L106.2,16.3 Z M100.9,34.3 C100.9,39.7 103.8,42.8 109,42.8 C114.2,42.8 117.1,39.7 117.1,34.3 L117.1,16.6 C117.1,11.2 114.2,8.1 109,8.1 C103.8,8.1 100.9,11.2 100.9,16.6 L100.9,34.3 L100.9,34.3 Z M120.3,27.9 L130,27.9 L130,23 L120.3,23 L120.3,27.9 L120.3,27.9 Z M143.6,26.9 L145.7,18.5 L145.7,42.5 L150.6,42.5 L150.6,8.5 L144.7,8.5 L140.3,22.5 L138.4,30 L138.4,8.5 L133.6,8.5 L133.6,42.5 L139.1,42.5 L143.6,26.9 L143.6,26.9 Z M164.8,29.8 L164.8,34.6 C164.8,37.1 163.7,37.9 162,37.9 C160.3,37.9 159.2,37.1 159.2,34.6 L159.2,16.3 C159.2,13.9 160.3,12.9 162,12.9 C163.7,12.9 164.8,13.9 164.8,16.3 L164.8,19.9 L169.8,19.9 L169.8,16.6 C169.8,11.2 167.1,8.1 161.9,8.1 C156.6,8.1 153.9,11.2 153.9,16.6 L153.9,34.3 C153.9,39.7 156.6,42.8 161.9,42.8 C167.1,42.8 169.8,39.7 169.8,34.3 L169.8,29.8 L164.8,29.8 L164.8,29.8 Z M183.5,29.8 L183.5,34.6 C183.5,37.1 182.4,37.9 180.7,37.9 C179,37.9 178,37.1 178,34.6 L178,16.3 C178,13.9 179,12.9 180.7,12.9 C182.4,12.9 183.5,13.9 183.5,16.3 L183.5,19.9 L188.5,19.9 L188.5,16.6 C188.5,11.2 185.8,8.1 180.6,8.1 C175.3,8.1 172.6,11.2 172.6,16.6 L172.6,34.3 C172.6,39.7 175.3,42.8 180.6,42.8 C185.8,42.8 188.5,39.7 188.5,34.3 L188.5,29.8 L183.5,29.8 L183.5,29.8 Z M190.3,42.5 L191.1,42.5 C196.4,42.5 198.7,40.1 198.8,33.9 L199.4,13.3 L204.1,13.3 L204.1,42.5 L209.5,42.5 L209.5,8.5 L194.4,8.5 L193.6,34.1 C193.5,37.3 192.7,37.6 190.3,37.6 L190.3,42.5 L190.3,42.5 Z M218.9,13.3 L228.2,13.3 L228.2,8.5 L213.6,8.5 L213.6,42.5 L228.2,42.5 L228.2,37.6 L218.9,37.6 L218.9,27.7 L226.3,27.7 L226.3,22.8 L218.9,22.8 L218.9,13.3 L218.9,13.3 Z M252.1,47 L252.1,37.7 L249.8,37.7 L249.8,8.5 L234.9,8.5 L233.7,33.3 C233.6,35.3 233.3,36.5 232.3,37.7 L230.3,37.7 L230.3,47 L235.5,47 L235.5,42.5 L246.9,42.5 L246.9,47 L252.1,47 L252.1,47 Z M239.9,13.3 L244.4,13.3 L244.4,37.7 L237.4,37.7 C238.3,36.9 238.8,35.8 238.9,33.2 L239.9,13.3 L239.9,13.3 Z M260,16.3 C260,13.9 261.1,12.9 262.8,12.9 C264.5,12.9 265.5,13.9 265.5,16.3 L265.5,34.6 C265.5,37.1 264.5,38 262.8,38 C261.1,38 260,37.1 260,34.6 L260,16.3 L260,16.3 Z M254.7,34.3 C254.7,39.7 257.5,42.8 262.8,42.8 C268,42.8 270.9,39.7 270.9,34.3 L270.9,16.6 C270.9,11.2 268,8.1 262.8,8.1 C257.5,8.1 254.7,11.2 254.7,16.6 L254.7,34.3 L254.7,34.3 Z M282.4,8.5 L274.3,8.5 L274.3,42.5 L282.7,42.5 C288,42.5 290.8,39.6 290.8,34.4 L290.8,31.6 C290.8,28.1 289.7,25.4 286.8,24.3 C289.2,23.2 290.3,21 290.3,17.5 L290.3,16.3 C290.3,11 287.9,8.5 282.4,8.5 L282.4,8.5 Z M282,27.2 C284.4,27.2 285.5,28.1 285.5,31.3 L285.5,34.3 C285.5,36.8 284.5,37.6 282.7,37.6 L279.6,37.6 L279.6,27.2 L282,27.2 L282,27.2 Z M282.2,13.3 C284.1,13.3 284.9,14.4 284.9,16.8 L284.9,18.7 C284.9,21.4 283.7,22.3 281.7,22.3 L279.6,22.3 L279.6,13.3 L282.2,13.3 L282.2,13.3 Z M305.8,8.5 L298,8.5 L292.6,42.5 L297.5,42.5 L298.4,36.3 L304.9,36.3 L305.9,42.5 L311.3,42.5 L305.8,8.5 L305.8,8.5 Z M301.7,14.5 L304.2,31.7 L299.1,31.7 L301.7,14.5 L301.7,14.5 Z M312.2,13.3 L317.8,13.3 L317.8,42.5 L323.1,42.5 L323.1,13.3 L328.7,13.3 L328.7,8.5 L312.2,8.5 L312.2,13.3 L312.2,13.3 Z M336.4,13.3 L345.6,13.3 L345.6,8.5 L331,8.5 L331,42.5 L345.6,42.5 L345.6,37.6 L336.4,37.6 L336.4,27.7 L343.7,27.7 L343.7,22.8 L336.4,22.8 L336.4,13.3 L336.4,13.3 Z M347.3,42.5 L348.2,42.5 C353.5,42.5 355.7,40.1 355.9,33.9 L356.5,13.3 L361.2,13.3 L361.2,42.5 L366.6,42.5 L366.6,8.5 L351.5,8.5 L350.7,34.1 C350.6,37.3 349.8,37.6 347.3,37.6 L347.3,42.5 L347.3,42.5 Z M378.5,42.5 C383.9,42.5 386.5,39.5 386.5,34.1 L386.5,29.6 C386.5,24.2 383.9,21.2 378.5,21.2 L376,21.2 L376,8.5 L370.7,8.5 L370.7,42.5 L378.5,42.5 L378.5,42.5 Z M376,37.6 L376,26.1 L378.5,26.1 C380.2,26.1 381.2,26.9 381.2,29.3 L381.2,34.4 C381.2,36.8 380.2,37.6 378.5,37.6 L376,37.6 L376,37.6 Z M400.1,29.8 L400.1,34.6 C400.1,37.1 399.1,37.9 397.4,37.9 C395.7,37.9 394.6,37.1 394.6,34.6 L394.6,16.3 C394.6,13.9 395.7,12.9 397.4,12.9 C399.1,12.9 400.1,13.9 400.1,16.3 L400.1,19.9 L405.1,19.9 L405.1,16.6 C405.1,11.2 402.5,8.1 397.2,8.1 C392,8.1 389.2,11.2 389.2,16.6 L389.2,34.3 C389.2,39.7 392,42.8 397.2,42.8 C402.5,42.8 405.1,39.7 405.1,34.3 L405.1,29.8 L400.1,29.8 L400.1,29.8 Z M420.6,42.5 L426.1,42.5 L418.6,23.6 L426.1,8.5 L420.7,8.5 L413.7,23.3 L413.7,8.5 L408.4,8.5 L408.4,42.5 L413.7,42.5 L413.7,32 L415.4,28.9 L420.6,42.5 L420.6,42.5 Z M438.4,26.9 L440.6,18.5 L440.6,42.5 L445.4,42.5 L445.4,8.5 L439.5,8.5 L435.2,22.5 L433.2,30 L433.2,8.5 L428.5,8.5 L428.5,42.5 L433.9,42.5 L438.4,26.9 L438.4,26.9 Z M454.7,42.5 L449.2,42.5 L449.2,8.5 L453.9,8.5 L453.9,30 L455.9,22.5 L460.3,8.5 L466.1,8.5 L466.1,42.5 L461.3,42.5 L461.3,18.5 L459.1,26.9 L454.7,42.5 L454.7,42.5 Z M460.1,0.9 C460,2.7 459.2,3.1 457.7,3.1 C456.3,3.1 455.6,2.7 455.4,0.9 L452.1,0.9 C452.2,4.2 454,6.3 457.7,6.3 C461.5,6.3 463.4,4.2 463.4,0.9 L460.1,0.9 L460.1,0.9 Z M487.4,26.9 L489.6,18.5 L489.6,42.5 L494.4,42.5 L494.4,8.5 L488.6,8.5 L484.2,22.5 L482.3,30 L482.3,8.5 L477.5,8.5 L477.5,42.5 L483,42.5 L487.4,26.9 L487.4,26.9 Z M503.5,27.9 L509.6,27.9 L509.6,42.5 L515,42.5 L515,8.5 L509.6,8.5 L509.6,23 L503.5,23 L503.5,8.5 L498.2,8.5 L498.2,42.5 L503.5,42.5 L503.5,27.9 L503.5,27.9 Z M529.3,29.8 L529.3,34.6 C529.3,37.1 528.3,37.9 526.6,37.9 C524.9,37.9 523.8,37.1 523.8,34.6 L523.8,16.3 C523.8,13.9 524.9,12.9 526.6,12.9 C528.3,12.9 529.3,13.9 529.3,16.3 L529.3,19.9 L534.4,19.9 L534.4,16.6 C534.4,11.2 531.7,8.1 526.4,8.1 C521.2,8.1 518.5,11.2 518.5,16.6 L518.5,34.3 C518.5,39.7 521.2,42.8 526.4,42.8 C531.7,42.8 534.4,39.7 534.4,34.3 L534.4,29.8 L529.3,29.8 L529.3,29.8 Z M536.1,13.3 L541.7,13.3 L541.7,42.5 L547,42.5 L547,13.3 L552.6,13.3 L552.6,8.5 L536.1,8.5 L536.1,13.3 L536.1,13.3 Z M564.8,26.9 L567,18.5 L567,42.5 L571.8,42.5 L571.8,8.5 L566,8.5 L561.6,22.5 L559.6,30 L559.6,8.5 L554.9,8.5 L554.9,42.5 L560.4,42.5 L564.8,26.9 L564.8,26.9 Z M574,13.3 L579.6,13.3 L579.6,42.5 L584.9,42.5 L584.9,13.3 L590.5,13.3 L590.5,8.5 L574,8.5 L574,13.3 L574,13.3 Z M610.4,8.5 L604.8,8.5 L602.4,20.1 L601.2,28.1 L599.5,20.1 L596.6,8.5 L591.3,8.5 L598.7,34.7 L598.6,35 C598.2,37.5 596.6,37.9 593.9,37.7 L593.9,42.5 C601.3,43 603.4,39.9 604.7,33.8 L610.4,8.5 L610.4,8.5 Z M611.1,13.3 L616.7,13.3 L616.7,42.5 L622,42.5 L622,13.3 L627.6,13.3 L627.6,8.5 L611.1,8.5 L611.1,13.3 L611.1,13.3 Z M109.2,71.5 L115.2,71.5 L115.2,100.7 L120.7,100.7 L120.7,66.7 L103.9,66.7 L103.9,100.7 L109.2,100.7 L109.2,71.5 L109.2,71.5 Z M129.5,74.5 C129.5,72.1 130.5,71.1 132.2,71.1 C133.9,71.1 135,72.1 135,74.5 L135,92.9 C135,95.3 133.9,96.2 132.2,96.2 C130.5,96.2 129.5,95.3 129.5,92.9 L129.5,74.5 L129.5,74.5 Z M124.1,92.5 C124.1,98 127,101 132.2,101 C137.5,101 140.3,98 140.3,92.5 L140.3,74.8 C140.3,69.4 137.5,66.3 132.2,66.3 C127,66.3 124.1,69.4 124.1,74.8 L124.1,92.5 L124.1,92.5 Z M142.3,100.7 L143.1,100.7 C148.4,100.7 150.7,98.3 150.9,92.1 L151.4,71.5 L156.1,71.5 L156.1,100.7 L161.5,100.7 L161.5,66.7 L146.4,66.7 L145.6,92.4 C145.5,95.5 144.7,95.9 142.3,95.9 L142.3,100.7 L142.3,100.7 Z M175.5,85.1 L177.7,76.8 L177.7,100.7 L182.5,100.7 L182.5,66.7 L176.6,66.7 L172.3,80.7 L170.4,88.2 L170.4,66.7 L165.6,66.7 L165.6,100.7 L171.1,100.7 L175.5,85.1 L175.5,85.1 Z M193.7,66.7 L186.3,66.7 L186.3,100.7 L190.9,100.7 L190.9,76.7 L194.9,100.7 L199.9,100.7 L203.6,76.3 L203.6,100.7 L208.7,100.7 L208.7,66.7 L201.2,66.7 L197.6,90.8 L193.7,66.7 L193.7,66.7 Z M217.9,71.5 L227.1,71.5 L227.1,66.7 L212.5,66.7 L212.5,100.7 L227.1,100.7 L227.1,95.8 L217.9,95.8 L217.9,85.9 L225.2,85.9 L225.2,81 L217.9,81 L217.9,71.5 L217.9,71.5 Z M238.2,66.7 L230.4,66.7 L230.4,100.7 L235.7,100.7 L235.7,87.9 L238.2,87.9 C243.6,87.9 246.2,84.9 246.2,79.5 L246.2,75.1 C246.2,69.6 243.6,66.7 238.2,66.7 L238.2,66.7 Z M238.2,71.5 C239.9,71.5 240.9,72.3 240.9,74.7 L240.9,79.9 C240.9,82.3 239.9,83.1 238.2,83.1 L235.7,83.1 L235.7,71.5 L238.2,71.5 L238.2,71.5 Z M254,86.1 L260,86.1 L260,100.7 L265.5,100.7 L265.5,66.7 L260,66.7 L260,81.3 L254,81.3 L254,66.7 L248.6,66.7 L248.6,100.7 L254,100.7 L254,86.1 L254,86.1 Z M277.2,100.7 C282.5,100.7 285.2,97.7 285.2,92.3 L285.2,87.9 C285.2,82.4 282.5,79.5 277.2,79.5 L274.7,79.5 L274.7,66.7 L269.4,66.7 L269.4,100.7 L277.2,100.7 L277.2,100.7 Z M274.7,95.8 L274.7,84.3 L277.2,84.3 C278.9,84.3 279.8,85.1 279.8,87.5 L279.8,92.6 C279.8,95 278.9,95.8 277.2,95.8 L274.7,95.8 L274.7,95.8 Z M293.5,100.7 L293.5,66.7 L288.2,66.7 L288.2,100.7 L293.5,100.7 L293.5,100.7 Z M310.3,66.7 L306.2,79.2 L302.1,66.7 L296.6,66.7 L302.2,83.2 L296.2,100.7 L301.2,100.7 L305.6,87.2 L310,100.7 L315.7,100.7 L309.6,83.2 L315.3,66.7 L310.3,66.7 L310.3,66.7 Z M333.2,66.7 L325.8,66.7 L325.8,100.7 L330.4,100.7 L330.4,76.7 L334.4,100.7 L339.4,100.7 L343.1,76.3 L343.1,100.7 L348.2,100.7 L348.2,66.7 L340.8,66.7 L337.1,90.8 L333.2,66.7 L333.2,66.7 Z M363.9,66.7 L356.1,66.7 L350.7,100.7 L355.5,100.7 L356.5,94.5 L363,94.5 L363.9,100.7 L369.3,100.7 L363.9,66.7 L363.9,66.7 Z M359.7,72.7 L362.3,89.9 L357.2,89.9 L359.7,72.7 L359.7,72.7 Z M370.3,71.5 L375.8,71.5 L375.8,100.7 L381.2,100.7 L381.2,71.5 L386.7,71.5 L386.7,66.7 L370.3,66.7 L370.3,71.5 L370.3,71.5 Z M394.4,71.5 L403.6,71.5 L403.6,66.7 L389,66.7 L389,100.7 L403.6,100.7 L403.6,95.8 L394.4,95.8 L394.4,85.9 L401.7,85.9 L401.7,81 L394.4,81 L394.4,71.5 L394.4,71.5 Z M414.8,66.7 L406.9,66.7 L406.9,100.7 L412.2,100.7 L412.2,87.9 L414.8,87.9 C420.1,87.9 422.7,84.9 422.7,79.5 L422.7,75.1 C422.7,69.6 420.1,66.7 414.8,66.7 L414.8,66.7 Z M414.8,71.5 C416.5,71.5 417.4,72.3 417.4,74.7 L417.4,79.9 C417.4,82.3 416.5,83.1 414.8,83.1 L412.2,83.1 L412.2,71.5 L414.8,71.5 L414.8,71.5 Z M435.1,85.1 L437.3,76.8 L437.3,100.7 L442.1,100.7 L442.1,66.7 L436.2,66.7 L431.9,80.7 L429.9,88.2 L429.9,66.7 L425.2,66.7 L425.2,100.7 L430.7,100.7 L435.1,85.1 L435.1,85.1 Z M457.7,66.7 L449.9,66.7 L444.5,100.7 L449.4,100.7 L450.3,94.5 L456.9,94.5 L457.8,100.7 L463.1,100.7 L457.7,66.7 L457.7,66.7 Z M453.5,72.7 L456.1,89.9 L451,89.9 L453.5,72.7 L453.5,72.7 Z M464.1,100.7 L464.9,100.7 C470.3,100.7 472.5,98.3 472.7,92.1 L473.3,71.5 L477.9,71.5 L477.9,100.7 L483.4,100.7 L483.4,66.7 L468.3,66.7 L467.4,92.4 C467.3,95.5 466.5,95.9 464.1,95.9 L464.1,100.7 L464.1,100.7 Z M492.3,74.5 C492.3,72.1 493.4,71.1 495.1,71.1 C496.8,71.1 497.9,72.1 497.9,74.5 L497.9,92.9 C497.9,95.3 496.8,96.2 495.1,96.2 C493.4,96.2 492.3,95.3 492.3,92.9 L492.3,74.5 L492.3,74.5 Z M487,92.5 C487,98 489.9,101 495.1,101 C500.3,101 503.2,98 503.2,92.5 L503.2,74.8 C503.2,69.4 500.3,66.3 495.1,66.3 C489.9,66.3 487,69.4 487,74.8 L487,92.5 L487,92.5 Z M514.7,66.7 L506.7,66.7 L506.7,100.7 L515,100.7 C520.4,100.7 523.1,97.8 523.1,92.6 L523.1,89.9 C523.1,86.3 522,83.7 519.2,82.6 C521.5,81.5 522.6,79.2 522.6,75.7 L522.6,74.5 C522.6,69.3 520.2,66.7 514.7,66.7 L514.7,66.7 Z M514.4,85.4 C516.8,85.4 517.8,86.4 517.8,89.5 L517.8,92.5 C517.8,95 516.8,95.8 515,95.8 L512,95.8 L512,85.4 L514.4,85.4 L514.4,85.4 Z M514.5,71.5 C516.4,71.5 517.3,72.6 517.3,75 L517.3,77 C517.3,79.7 516,80.6 514.1,80.6 L512,80.6 L512,71.5 L514.5,71.5 L514.5,71.5 Z" id="Fill-4"></path>
                <path d="M226,569.4 L237.2,569.4 L237.2,596.2 L247.2,596.2 L247.2,533.5 L237.2,533.5 L237.2,560.4 L226,560.4 L226,533.5 L216.1,533.5 L216.1,596.2 L226,596.2 L226,569.4 L226,569.4 Z M272.7,567.5 L276.8,552 L276.8,596.2 L285.6,596.2 L285.6,533.5 L274.8,533.5 L266.7,559.4 L263.2,573.2 L263.2,533.5 L254.4,533.5 L254.4,596.2 L264.5,596.2 L272.7,567.5 L272.7,567.5 Z M311,567.5 L315,552 L315,596.2 L323.9,596.2 L323.9,533.5 L313.1,533.5 L305,559.4 L301.4,573.2 L301.4,533.5 L292.6,533.5 L292.6,596.2 L302.7,596.2 L311,567.5 L311,567.5 Z M340.7,542.5 L351.9,542.5 L351.9,596.2 L362,596.2 L362,533.5 L330.9,533.5 L330.9,596.2 L340.7,596.2 L340.7,542.5 L340.7,542.5 Z M382.8,533.5 L369.1,533.5 L369.1,596.2 L377.7,596.2 L377.7,551.8 L385,596.2 L394.3,596.2 L401.1,551.2 L401.1,596.2 L410.4,596.2 L410.4,533.5 L396.7,533.5 L390,578 L382.8,533.5 L382.8,533.5 Z" id="Fill-5"></path>
            </g>
        </g>
    </g>
</svg>