<?xml version="1.0" encoding="UTF-8" standalone="no"?>
<svg width="147px" height="22px" viewBox="0 0 147 22" version="1.1" xmlns="http://www.w3.org/2000/svg" xmlns:xlink="http://www.w3.org/1999/xlink">
    <!-- Generator: Sketch 3.8.3 (29802) - http://www.bohemiancoding.com/sketch -->
    <title>Group 16</title>
    <desc>Created with Sketch.</desc>
    <defs>
        <polygon id="path-1" points="0 21.9952031 146.148605 21.9952031 146.148605 0.69302262 0 0.69302262"></polygon>
        <polygon id="path-3" points="19.1631281 0.183669361 0 0.183669361 0 10.3842845 0 20.5848996 19.1631281 20.5848996 19.1631281 0.183669361"></polygon>
    </defs>
    <g id="V2" stroke="none" stroke-width="1" fill="none" fill-rule="evenodd">
        <g id="Desktop-1240-Copy-3" transform="translate(-876.000000, -1703.000000)">
            <g id="Group-11" transform="translate(-7.000000, 1523.000000)">
                <g id="partners">
                    <g id="Group-14" transform="translate(0.000000, 59.000000)">
                        <g id="Group-88" transform="translate(883.000000, 62.000000)">
                            <g id="Group-16" transform="translate(0.000000, 59.000000)">
                                <g id="Page-1" transform="translate(0.000000, 0.205625)">
                                    <path d="M44.5618548,10.529106 C44.5618548,10.529106 42.366211,10.6725761 42.366211,12.9050252 L42.366211,21.0945994 L36.3687889,21.0945994 L36.3687889,6.38857486 L41.923523,6.38857486 L42.0792424,7.98337939 C42.0792424,7.98337939 44.1547598,5.91727235 47.4092956,5.91727235 C50.6601238,5.91727235 52.9877583,8.39715527 53.0151946,11.8064745 L53.0151946,21.0966787 L46.7293208,21.0966787 L46.7293208,12.2597566 C46.7293208,12.2597566 46.7916086,10.529106 44.5618548,10.529106 L44.5618548,10.529106 Z" id="Fill-1" fill="#005AAA"></path>
                                    <path d="M70.7886381,16.2020635 C70.7886381,22.0302735 78.8853062,21.5354059 78.8853062,21.5354059 C87.1577149,21.5354059 86.7105777,16.2803829 86.7105777,16.2803829 C86.7105777,13.4331612 83.9669499,12.3318382 82.3393112,11.9402412 C80.6849778,11.5472581 79.2412363,11.2922003 78.0095699,11.0925898 C76.7771619,10.898524 76.8053397,10.2414729 76.8053397,10.2414729 C76.8053397,9.29748169 78.5204779,9.20807283 78.5204779,9.20807283 C80.7346597,9.20807283 80.5982198,10.6545557 80.5982198,10.6545557 L86.0951153,10.6545557 C86.0951153,5.58320204 78.5204779,6.06143547 78.5204779,6.06143547 C78.5204779,6.06143547 70.8998662,5.84519079 70.8998662,10.898524 C70.8998662,14.8006316 76.3448552,15.285796 76.3448552,15.285796 C77.6721778,15.4493657 79.6572296,15.8444281 79.6572296,15.8444281 C80.8280914,16.1902809 80.7064819,16.9970399 80.7064819,16.9970399 C80.7064819,18.2224265 78.9238653,18.2446054 78.9238653,18.2446054 C76.0957041,18.2446054 76.3470797,16.2020635 76.3470797,16.2020635 L70.7886381,16.2020635" id="Fill-6" fill="#005AAA"></path>
                                    <path d="M34.8968697,16.4201795 L34.8968697,11.5803186 C34.8850053,5.8075559 27.2829317,6.04459334 27.2829317,6.04459334 C18.162223,6.04459334 19.5644392,11.447938 19.5644392,11.447938 L24.8566749,11.5491294 C24.8566749,11.1048575 25.0324153,9.60223421 27.0908777,9.60223421 C29.1493401,9.60223421 29.0618406,10.8983161 29.0618406,10.8983161 C29.0618406,10.8983161 29.0707389,11.6551725 28.3611033,11.8859721 C27.64776,12.1230096 25.2452319,12.5243098 25.2452319,12.5243098 L24.0120824,12.7405545 C20.4609382,13.4177053 18.7591474,14.9279526 18.7591474,17.1908977 C18.7591474,19.4593876 20.5083955,21.5102466 23.9928029,21.5102466 C27.4757272,21.5102466 28.9995529,19.6610774 28.9995529,19.6610774 C29.1878992,20.8476508 29.5912867,21.0971639 29.5912867,21.0971639 L35.6628609,21.0971639 C34.8167854,20.7187357 34.8968697,16.4201795 34.8968697,16.4201795 M26.1684256,18.1820192 C25.0702329,18.1820192 24.3190721,17.7689364 24.3190721,16.8325692 C24.3190721,15.8968951 25.7998896,15.6113412 25.7998896,15.6113412 C27.6863191,15.1982584 29.1018828,14.576555 29.1018828,14.576555 C29.7633195,18.2513284 26.1684256,18.1820192 26.1684256,18.1820192" id="Fill-8" fill="#005AAA"></path>
                                    <path d="M69.8258472,16.4201795 L69.8258472,11.5803186 C69.8110168,5.8075559 62.2104262,6.04459334 62.2104262,6.04459334 C53.0897174,6.04459334 54.4911922,11.447938 54.4911922,11.447938 L59.7849109,11.5491294 C59.7849109,11.1048575 59.9599098,9.60223421 62.0183722,9.60223421 C64.0783176,9.60223421 63.9885936,10.8983161 63.9885936,10.8983161 C63.9885936,10.8983161 63.9982334,11.6551725 63.2878562,11.8859721 C62.575996,12.1230096 60.1712433,12.5243098 60.1712433,12.5243098 L58.9395769,12.7405545 C55.3899157,13.4177053 53.6881249,14.9279526 53.6881249,17.1908977 C53.6881249,19.4593876 55.4381146,21.5102466 58.9210389,21.5102466 C62.4039631,21.5102466 63.9255643,19.6610774 63.9255643,19.6610774 C64.1183598,20.8476508 64.5187811,21.0971639 64.5187811,21.0971639 L70.5888723,21.0971639 C69.7413138,20.7187357 69.8258472,16.4201795 69.8258472,16.4201795 M61.09592,18.1820192 C59.9984689,18.1820192 59.2487912,17.7689364 59.2487912,16.8325692 C59.2487912,15.8968951 60.7288671,15.6113412 60.7288671,15.6113412 C62.6138136,15.1982584 64.0271527,14.576555 64.0271527,14.576555 C64.6900725,18.2513284 61.09592,18.1820192 61.09592,18.1820192" id="Fill-10" fill="#005AAA"></path>
                                    <path d="M101.528837,7.8032448 C101.171424,7.5370975 100.739118,7.30213933 100.325349,7.05955716 C100.325349,7.05955716 99.7514115,6.79063749 98.8549126,6.52934183 C98.0785401,6.30547314 97.055241,6.09061464 95.9407349,6.06289096 L95.538089,6.06011859 C94.4117186,6.08160444 93.3758137,6.29854222 92.5905429,6.52587637 C91.6895948,6.78232039 91.1223312,7.0560917 91.1223312,7.0560917 C90.7018888,7.2965946 90.2732897,7.53155276 89.9173596,7.80047243 C87.2019095,9.84093507 87.0128217,12.8974705 87.006148,13.6286825 L87.006148,14.0168139 C87.0261691,14.8471381 87.2753201,17.7997097 89.9173596,19.7854181 C90.2732897,20.0529516 90.7018888,20.289989 91.1223312,20.5277195 C91.1223312,20.5277195 91.6895948,20.7987185 92.5905429,21.0600141 C93.3758137,21.2838828 94.4117186,21.5015137 95.538089,21.526465 L95.9407349,21.5202272 C97.055241,21.4952759 98.0785401,21.2769519 98.8549126,21.0544694 C99.7514115,20.7959461 100.325349,20.5256403 100.325349,20.5256403 C100.739118,20.2830581 101.171424,20.0494861 101.528837,19.777101 C104.184966,17.7844617 104.423736,14.8097111 104.437083,14.002259 L104.438566,13.6349203 C104.432634,12.9002428 104.242063,9.84578671 101.528837,7.8032448 M98.3543859,14.0452307 C98.3150853,17.2778115 96.7289718,17.8489192 96.0260098,17.9334764 C95.6315207,17.9833791 95.4424328,17.9466452 95.4424328,17.9466452 C94.7987925,17.8828807 93.1177644,17.4185091 93.034714,14.1720665 L93.034714,13.7125466 C93.1096076,10.4383803 94.7987925,9.97331563 95.4424328,9.91440281 C95.4424328,9.91440281 95.6315207,9.87558967 96.0260098,9.92271992 C96.7289718,10.0100495 98.3180514,10.5818503 98.3543859,13.8178966 L98.3543859,14.0452307" id="Fill-12" fill="#005AAA"></path>
                                    <path d="M113.437739,10.529106 C113.437739,10.529106 111.24432,10.6725761 111.24432,12.9050252 L111.24432,21.0945994 L105.249123,21.0945994 L105.249123,6.38857486 L110.804598,6.38857486 L110.961059,7.98337939 C110.961059,7.98337939 113.035093,5.91727235 116.285922,5.91727235 C119.53675,5.91727235 121.866609,8.39715527 121.898494,11.8064745 L121.898494,21.0966787 L115.604464,21.0966787 L115.604464,12.2597566 C115.604464,12.2597566 115.671942,10.529106 113.437739,10.529106" id="Fill-14" fill="#005AAA"></path>
                                    <mask id="mask-2" fill="white">
                                        <use xlink:href="#path-1"></use>
                                    </mask>
                                    <g id="Clip-17"></g>
                                    <polygon id="Fill-16" fill="#005AAA" mask="url(#mask-2)" points="122.994611 21.0962628 128.880063 21.0962628 128.880063 6.38330736 122.994611 6.38330736"></polygon>
                                    <polygon id="Fill-18" fill="#005AAA" mask="url(#mask-2)" points="122.994611 4.3532411 128.880063 4.3532411 128.880063 0.701339723 122.994611 0.701339723"></polygon>
                                    <path d="M145.610038,11.9229832 L140.515047,11.9229832 C140.515047,11.9229832 140.338565,10.1257959 138.297899,10.1257959 C138.297899,10.1257959 135.487535,9.91093735 135.487535,13.8310653 C135.487535,17.7505002 138.413577,17.5356417 138.413577,17.5356417 C138.413577,17.5356417 140.721932,17.6784186 140.721932,14.9809048 L146.148383,14.9809048 L146.145416,15.2144768 C146.097959,16.3795643 145.477306,21.5105239 138.042816,21.5105239 C138.042816,21.5105239 133.016045,21.9644991 130.399959,17.0421602 C130.399959,17.0421602 129.728141,15.449435 129.728141,13.542046 C129.728141,11.6388155 130.485975,6.70053554 137.873749,6.08714918 L138.318662,6.08160444 C145.807283,6.22646066 145.95707,11.9229832 145.95707,11.9229832 L145.610038,11.9229832" id="Fill-19" fill="#005AAA" mask="url(#mask-2)"></path>
                                </g>
                                <g id="Group-5" transform="translate(0.000000, 0.714978)">
                                    <mask id="mask-4" fill="white">
                                        <use xlink:href="#path-3"></use>
                                    </mask>
                                    <g id="Clip-4"></g>
                                    <path d="M13.0841386,0.337605079 C11.9295904,0.122053489 9.65831146,0.192055774 9.65831146,0.192055774 L0,0.192055774 L0,20.5848996 L6.65515127,20.5848996 L6.65515127,14.3560824 L10.8892364,14.3560824 L10.9863756,14.3623203 C11.9481284,14.3623203 13.1442018,14.1938989 13.1442018,14.1938989 C13.9658071,14.0954799 14.6776673,13.8154707 15.2901637,13.5416994 C19.1290181,11.8256038 19.1631281,7.27892075 19.1631281,7.27892075 C19.1631281,1.0660447 13.0841386,0.337605079 13.0841386,0.337605079 M10.5436876,9.39770278 L6.65515127,9.40116824 L6.65515127,5.1705351 L10.5436876,5.1705351 C10.5436876,5.1705351 12.7964285,5.15598017 12.7964285,7.2408007 C12.7964285,9.32977977 10.5436876,9.39770278 10.5436876,9.39770278" id="Fill-3" fill="#005AAA" mask="url(#mask-4)"></path>
                                </g>
                            </g>
                        </g>
                    </g>
                </g>
            </g>
        </g>
    </g>
</svg>