<?xml version="1.0" encoding="UTF-8" standalone="no"?>
<svg width="39px" height="48px" viewBox="0 0 39 48" version="1.1" xmlns="http://www.w3.org/2000/svg" xmlns:xlink="http://www.w3.org/1999/xlink">
    <!-- Generator: Sketch 3.8.3 (29802) - http://www.bohemiancoding.com/sketch -->
    <title>Group 40</title>
    <desc>Created with Sketch.</desc>
    <defs>
        <polygon id="path-1" points="0.034 0.416964989 0.034 2.83781081 2.0612 2.83781081 2.0612 0.416964989 0.034 0.416964989"></polygon>
        <polygon id="path-3" points="0.034 0.58352666 0.034 3.00437248 2.5114 3.00437248 2.5114 0.58352666 0.034 0.58352666"></polygon>
    </defs>
    <g id="V2" stroke="none" stroke-width="1" fill="none" fill-rule="evenodd">
        <g id="Desktop-1240-Copy-3" transform="translate(-448.000000, -1856.000000)">
            <g id="Group-11" transform="translate(-7.000000, 1523.000000)">
                <g id="partners">
                    <g id="Group-14" transform="translate(0.000000, 59.000000)">
                        <g id="Group-75" transform="translate(411.000000, 214.819058)">
                            <g id="Group-25" transform="translate(2.000000, 0.000000)">
                                <g id="Group-40" transform="translate(42.000000, 59.885439)">
                                    <polygon id="Fill-70" fill="#221F73" points="0.034 36.2969846 38.867 36.2969846 38.867 0.000186937901 0.034 0.000186937901"></polygon>
                                    <g id="Group-73" transform="translate(0.000000, 39.510447)">
                                        <mask id="mask-2" fill="white">
                                            <use xlink:href="#path-1"></use>
                                        </mask>
                                        <g id="Clip-72"></g>
                                        <path d="M0.0002,0.416964989 L0.3702,0.416964989 L0.3702,2.06669197 L0.3592,2.36766199 L0.3772,2.36766199 C0.4662,2.20128726 0.5182,2.12557741 0.6102,1.98724336 L1.6462,0.416964989 L2.0612,0.416964989 L2.0612,2.83781081 L1.6912,2.83781081 L1.6912,1.18808383 L1.7022,0.887113812 L1.6842,0.887113812 C1.5872,1.07779047 1.5282,1.14976156 1.4502,1.26753244 L0.4142,2.83781081 L0.0002,2.83781081 L0.0002,0.416964989 Z" id="Fill-71" fill="#221F73" mask="url(#mask-2)"></path>
                                    </g>
                                    <polygon id="Fill-74" fill="#221F73" points="2.8273 39.9274121 3.1973 39.9274121 3.1973 40.9406155 4.4333 40.9406155 4.4333 39.9274121 4.8033 39.9274121 4.8033 42.3482579 4.4333 42.3482579 4.4333 41.2453243 3.1973 41.2453243 3.1973 42.3482579 2.8273 42.3482579"></polygon>
                                    <g id="Group-138" transform="translate(0.000000, 22.686036)">
                                        <path d="M6.9608,19.0950524 L7.0648,19.0950524 C7.2088,19.0950524 7.4118,19.0744892 7.5748,18.918396 C7.6748,18.8249271 7.7638,18.6735074 7.7638,18.4174025 C7.7638,18.1407344 7.6488,17.9846412 7.5488,17.8986498 C7.3858,17.756577 7.1868,17.7397526 7.0648,17.7397526 L6.9608,17.7397526 L6.9608,19.0950524 Z M6.4868,17.7397526 C6.3648,17.7397526 6.1658,17.756577 6.0028,17.8986498 C5.9028,17.9846412 5.7878,18.1407344 5.7878,18.4174025 C5.7878,18.6735074 5.8768,18.8249271 5.9768,18.918396 C6.1398,19.0744892 6.3428,19.0950524 6.4868,19.0950524 L6.5908,19.0950524 L6.5908,17.7397526 L6.4868,17.7397526 Z M6.9608,17.455607 L7.0568,17.455607 C7.3858,17.455607 7.6198,17.5593575 7.7638,17.663108 C7.9788,17.8154624 8.1558,18.0781102 8.1558,18.4174025 C8.1558,18.7183725 8.0148,18.9950406 7.7968,19.1604806 C7.7048,19.2296476 7.4678,19.3782633 7.0568,19.3782633 L6.9608,19.3782633 L6.9608,19.6969924 L6.5908,19.6969924 L6.5908,19.3782633 L6.4948,19.3782633 C6.0838,19.3782633 5.8468,19.2296476 5.7548,19.1604806 C5.5358,18.9950406 5.3958,18.7183725 5.3958,18.4174025 C5.3958,18.0781102 5.5738,17.8154624 5.7878,17.663108 C5.9318,17.5593575 6.1658,17.455607 6.4948,17.455607 L6.5908,17.455607 L6.5908,17.1443554 L6.9608,17.1443554 L6.9608,17.455607 Z" id="Fill-75" fill="#221F73"></path>
                                        <path d="M9.2849,17.7878891 C9.1519,17.9467863 9.0669,18.2028912 9.0669,18.4515186 C9.0669,18.6562156 9.1259,18.9254062 9.2849,19.1160829 C9.4109,19.2684373 9.6069,19.392751 9.9179,19.392751 C10.2279,19.392751 10.4249,19.2684373 10.5499,19.1160829 C10.7089,18.9254062 10.7689,18.6562156 10.7689,18.4515186 C10.7689,18.2028912 10.6839,17.9467863 10.5499,17.7878891 C10.4319,17.6458163 10.2209,17.511221 9.9179,17.511221 C9.6139,17.511221 9.4029,17.6458163 9.2849,17.7878891 M10.8429,17.5738452 C11.0349,17.7776075 11.1609,18.0823163 11.1609,18.4515186 C11.1609,18.8291332 11.0279,19.136646 10.8429,19.3338655 C10.6799,19.5105218 10.3909,19.6965251 9.9179,19.6965251 C9.4439,19.6965251 9.1549,19.5105218 8.9929,19.3338655 C8.8079,19.136646 8.6739,18.8291332 8.6739,18.4515186 C8.6739,18.0823163 8.7999,17.7776075 8.9929,17.5738452 C9.2029,17.3448463 9.5029,17.2065122 9.9179,17.2065122 C10.3319,17.2065122 10.6319,17.3448463 10.8429,17.5738452" id="Fill-77" fill="#221F73"></path>
                                        <path d="M12.1358,18.3895487 L12.5018,18.3895487 C12.6428,18.3895487 12.8018,18.3484224 12.8938,18.2680391 C12.9538,18.2166312 13.0198,18.1194234 13.0198,17.9708078 C13.0198,17.8259309 12.9608,17.7259192 12.8498,17.6492746 C12.7168,17.5595444 12.5648,17.5455241 12.4498,17.5455241 L12.1358,17.5455241 L12.1358,18.3895487 Z M11.7658,17.24175 L12.4428,17.24175 C12.6388,17.24175 12.9388,17.2623132 13.1528,17.4174716 C13.2788,17.5081365 13.4118,17.6707725 13.4118,17.9577222 C13.4118,18.1755048 13.3308,18.3381408 13.2378,18.4381526 C13.0168,18.6802372 12.6608,18.6942575 12.4988,18.6942575 L12.1358,18.6942575 L12.1358,19.6625958 L11.7658,19.6625958 L11.7658,17.24175 Z" id="Fill-79" fill="#221F73"></path>
                                        <polygon id="Fill-81" fill="#221F73" points="13.9571 17.2413761 14.5671 17.2413761 15.3781 19.2537626 16.1731 17.2413761 16.7841 17.2413761 16.7841 19.6622219 16.4141 19.6622219 16.4141 17.5666481 16.4061 17.5666481 15.5521 19.6622219 15.1891 19.6622219 14.3341 17.5666481 14.3271 17.5666481 14.3271 19.6622219 13.9571 19.6622219"></polygon>
                                        <path d="M18.5882,17.5663677 L18.0742,18.766509 L19.1022,18.766509 L18.5882,17.5663677 Z M18.4072,17.2410957 L18.7952,17.2410957 L19.8872,19.6619415 L19.4842,19.6619415 L19.2212,19.0497199 L17.9552,19.0497199 L17.6932,19.6619415 L17.3042,19.6619415 L18.4072,17.2410957 Z" id="Fill-83" fill="#221F73"></path>
                                        <polygon id="Fill-85" fill="#221F73" points="20.7756 17.2413761 20.7756 19.3575132 21.9186 19.3575132 21.9186 17.2413761 22.2886 17.2413761 22.2886 19.3575132 22.5846 19.3575132 22.5846 20.2015378 22.2216 20.2015378 22.2216 19.6622219 20.4056 19.6622219 20.4056 17.2413761"></polygon>
                                        <path d="M23.1166,17.2413761 L23.4866,17.2413761 L23.4866,18.8911031 L23.4756,19.1920731 L23.4936,19.1920731 C23.5826,19.0256984 23.6346,18.9499885 23.7266,18.8116545 L24.7626,17.2413761 L25.1776,17.2413761 L25.1776,19.6622219 L24.8076,19.6622219 L24.8076,18.012495 L24.8186,17.7115249 L24.8006,17.7115249 C24.7036,17.9022016 24.6446,17.9741727 24.5666,18.0919436 L23.5306,19.6622219 L23.1166,19.6622219 L23.1166,17.2413761 Z" id="Fill-87" fill="#221F73"></path>
                                        <path d="M26.4117,17.7878891 C26.2787,17.9467863 26.1937,18.2028912 26.1937,18.4515186 C26.1937,18.6562156 26.2527,18.9254062 26.4117,19.1160829 C26.5377,19.2684373 26.7337,19.392751 27.0447,19.392751 C27.3547,19.392751 27.5517,19.2684373 27.6767,19.1160829 C27.8357,18.9254062 27.8957,18.6562156 27.8957,18.4515186 C27.8957,18.2028912 27.8107,17.9467863 27.6767,17.7878891 C27.5587,17.6458163 27.3477,17.511221 27.0447,17.511221 C26.7407,17.511221 26.5297,17.6458163 26.4117,17.7878891 M27.9687,17.5738452 C28.1617,17.7776075 28.2877,18.0823163 28.2877,18.4515186 C28.2877,18.8291332 28.1547,19.136646 27.9687,19.3338655 C27.8067,19.5105218 27.5177,19.6965251 27.0447,19.6965251 C26.5707,19.6965251 26.2817,19.5105218 26.1197,19.3338655 C25.9347,19.136646 25.8007,18.8291332 25.8007,18.4515186 C25.8007,18.0823163 25.9267,17.7776075 26.1197,17.5738452 C26.3297,17.3448463 26.6297,17.2065122 27.0447,17.2065122 C27.4587,17.2065122 27.7587,17.3448463 27.9687,17.5738452" id="Fill-89" fill="#221F73"></path>
                                        <polygon id="Fill-91" fill="#221F73" points="28.9128 17.2413761 29.2828 17.2413761 29.2828 18.2545796 30.5188 18.2545796 30.5188 17.2413761 30.8888 17.2413761 30.8888 19.6622219 30.5188 19.6622219 30.5188 18.5592883 29.2828 18.5592883 29.2828 19.6622219 28.9128 19.6622219"></polygon>
                                        <polygon id="Fill-93" fill="#221F73" points="31.6549 17.2413761 32.0249 17.2413761 32.0249 18.2545796 33.2609 18.2545796 33.2609 17.2413761 33.6309 17.2413761 33.6309 19.6622219 33.2609 19.6622219 33.2609 18.5592883 32.0249 18.5592883 32.0249 19.6622219 31.6549 19.6622219"></polygon>
                                        <path d="M34.865,17.7878891 C34.732,17.9467863 34.647,18.2028912 34.647,18.4515186 C34.647,18.6562156 34.706,18.9254062 34.865,19.1160829 C34.991,19.2684373 35.187,19.392751 35.498,19.392751 C35.808,19.392751 36.005,19.2684373 36.13,19.1160829 C36.289,18.9254062 36.349,18.6562156 36.349,18.4515186 C36.349,18.2028912 36.264,17.9467863 36.13,17.7878891 C36.012,17.6458163 35.801,17.511221 35.498,17.511221 C35.194,17.511221 34.983,17.6458163 34.865,17.7878891 M36.423,17.5738452 C36.615,17.7776075 36.741,18.0823163 36.741,18.4515186 C36.741,18.8291332 36.608,19.136646 36.423,19.3338655 C36.26,19.5105218 35.971,19.6965251 35.498,19.6965251 C35.024,19.6965251 34.735,19.5105218 34.573,19.3338655 C34.388,19.136646 34.255,18.8291332 34.255,18.4515186 C34.255,18.0823163 34.38,17.7776075 34.573,17.5738452 C34.783,17.3448463 35.083,17.2065122 35.498,17.2065122 C35.912,17.2065122 36.212,17.3448463 36.423,17.5738452" id="Fill-95" fill="#221F73"></path>
                                        <polygon id="Fill-97" fill="#221F73" points="37.3662 17.2413761 38.8132 17.2413761 38.8132 17.5460849 37.7362 17.5460849 37.7362 18.2545796 38.7162 18.2545796 38.7162 18.5592883 37.7362 18.5592883 37.7362 19.3575132 38.8132 19.3575132 38.8132 19.6622219 37.3662 19.6622219"></polygon>
                                        <g id="Group-101" transform="translate(0.000000, 21.497859)">
                                            <mask id="mask-4" fill="white">
                                                <use xlink:href="#path-3"></use>
                                            </mask>
                                            <g id="Clip-100"></g>
                                            <path d="M1.2124,0.908798608 L0.6984,2.10893994 L1.7264,2.10893994 L1.2124,0.908798608 Z M1.0314,0.58352666 L1.4194,0.58352666 L2.5114,3.00437248 L2.1084,3.00437248 L1.8454,2.39215086 L0.5794,2.39215086 L0.3174,3.00437248 L-0.0716,3.00437248 L1.0314,0.58352666 Z" id="Fill-99" fill="#221F73" mask="url(#mask-4)"></path>
                                        </g>
                                        <polygon id="Fill-102" fill="#221F73" points="3.0873 22.0816657 4.4603 22.0816657 4.4603 22.3863745 3.4573 22.3863745 3.4573 24.5025116 3.0873 24.5025116"></polygon>
                                        <polygon id="Fill-104" fill="#221F73" points="5.0491 22.0816657 6.4961 22.0816657 6.4961 22.3863745 5.4191 22.3863745 5.4191 23.0948692 6.3991 23.0948692 6.3991 23.3995779 5.4191 23.3995779 5.4191 24.1978028 6.4961 24.1978028 6.4961 24.5025116 5.0491 24.5025116"></polygon>
                                        <polygon id="Fill-106" fill="#221F73" points="7.2135 22.0816657 7.5835 22.0816657 7.5835 23.0948692 8.8195 23.0948692 8.8195 22.0816657 9.1895 22.0816657 9.1895 24.5025116 8.8195 24.5025116 8.8195 23.3995779 7.5835 23.3995779 7.5835 24.5025116 7.2135 24.5025116"></polygon>
                                        <polygon id="Fill-108" fill="#221F73" points="10.5848 22.3859072 9.7818 22.3859072 9.7818 22.0811984 11.7578 22.0811984 11.7578 22.3859072 10.9548 22.3859072 10.9548 24.5029789 10.5848 24.5029789"></polygon>
                                        <path d="M14.0228,22.4862928 C13.8598,22.3965626 13.6748,22.3516975 13.4898,22.3516975 C13.2608,22.3516975 13.0308,22.4171258 12.8568,22.5451783 C12.6498,22.6975327 12.4988,22.9564416 12.4988,23.2919952 C12.4988,23.5864224 12.6128,23.7967275 12.7428,23.9350616 C12.9198,24.129477 13.1758,24.2322928 13.5268,24.2322928 C13.6528,24.2322928 13.8308,24.2089256 14.0338,24.1182607 L14.0558,24.4510102 C13.8418,24.52672 13.6678,24.5370016 13.5158,24.5370016 C13.1718,24.5370016 12.7648,24.4715733 12.4608,24.1808849 C12.2688,23.993947 12.1058,23.6826954 12.1058,23.2882564 C12.1058,23.0358903 12.1728,22.6106065 12.5868,22.3133753 C12.8538,22.1226986 13.1868,22.0469888 13.4898,22.0469888 C13.7708,22.0469888 13.9338,22.0983967 14.0518,22.1507393 L14.0228,22.4862928 Z" id="Fill-110" fill="#221F73"></path>
                                        <polygon id="Fill-112" fill="#221F73" points="15.3593 22.3859072 14.5563 22.3859072 14.5563 22.0811984 16.5323 22.0811984 16.5323 22.3859072 15.7293 22.3859072 15.7293 24.5029789 15.3593 24.5029789"></polygon>
                                        <path d="M17.4932,24.2187398 L17.7702,24.2187398 C17.9292,24.2187398 18.1742,24.2084582 18.3032,24.0841445 C18.3552,24.0318019 18.4032,23.9495493 18.4032,23.817758 C18.4032,23.6616649 18.3442,23.5448287 18.1812,23.4681842 C18.0482,23.40556 17.8852,23.3990171 17.7332,23.3990171 L17.4932,23.3990171 L17.4932,24.2187398 Z M17.4932,23.1158062 L17.6962,23.1158062 C17.8592,23.1158062 18.1262,23.1158062 18.2592,22.9942966 C18.3512,22.9120439 18.3592,22.7980118 18.3592,22.7391263 C18.3592,22.6213555 18.3252,22.5241478 18.2262,22.4549807 C18.1332,22.3895525 18.0002,22.3652505 17.8822,22.3652505 L17.4932,22.3652505 L17.4932,23.1158062 Z M17.1232,22.0820396 L17.8222,22.0820396 C18.0442,22.0820396 18.3222,22.1054069 18.5182,22.2474797 C18.6662,22.354969 18.7292,22.4998458 18.7292,22.6905225 C18.7292,22.794273 18.7102,22.9391499 18.5992,23.0606595 C18.5032,23.1672141 18.3362,23.2401199 18.1962,23.2672259 L18.1962,23.2747034 C18.3662,23.284985 18.5222,23.3504133 18.6212,23.4410782 C18.7252,23.5336124 18.7952,23.679424 18.7952,23.8551456 C18.7952,24.0878833 18.6952,24.2327602 18.5952,24.3122088 C18.3812,24.4851263 18.0182,24.5028854 17.8112,24.5028854 L17.1232,24.5028854 L17.1232,22.0820396 Z" id="Fill-114" fill="#221F73"></path>
                                        <path d="M19.9768,22.6278983 C19.8438,22.7867955 19.7588,23.0429004 19.7588,23.2915278 C19.7588,23.4962248 19.8178,23.7663501 19.9768,23.9560921 C20.1028,24.1084465 20.2988,24.2327602 20.6098,24.2327602 C20.9198,24.2327602 21.1168,24.1084465 21.2418,23.9560921 C21.4008,23.7663501 21.4608,23.4962248 21.4608,23.2915278 C21.4608,23.0429004 21.3758,22.7867955 21.2418,22.6278983 C21.1238,22.4858255 20.9128,22.3512302 20.6098,22.3512302 C20.3058,22.3512302 20.0948,22.4858255 19.9768,22.6278983 M21.5348,22.4138544 C21.7268,22.6176167 21.8528,22.9223255 21.8528,23.2915278 C21.8528,23.6691424 21.7198,23.9766552 21.5348,24.1738747 C21.3718,24.350531 21.0828,24.537469 20.6098,24.537469 C20.1358,24.537469 19.8478,24.350531 19.6848,24.1738747 C19.4998,23.9766552 19.3658,23.6691424 19.3658,23.2915278 C19.3658,22.9223255 19.4918,22.6176167 19.6848,22.4138544 C19.8948,22.1857901 20.1948,22.0474561 20.6098,22.0474561 C21.0238,22.0474561 21.3238,22.1857901 21.5348,22.4138544" id="Fill-116" fill="#221F73"></path>
                                        <path d="M24.001,23.2297449 L24.367,23.2297449 C24.508,23.2297449 24.667,23.1886185 24.759,23.1082352 C24.819,23.0568273 24.885,22.9596196 24.885,22.811004 C24.885,22.6661271 24.826,22.5661153 24.715,22.4894708 C24.582,22.3997406 24.43,22.3857202 24.315,22.3857202 L24.001,22.3857202 L24.001,23.2297449 Z M23.631,22.0819461 L24.308,22.0819461 C24.504,22.0819461 24.804,22.1025093 25.018,22.2576678 C25.144,22.3483327 25.277,22.5100339 25.277,22.7979183 C25.277,23.015701 25.196,23.1783369 25.103,23.2783487 C24.882,23.5204333 24.526,23.5344536 24.364,23.5344536 L24.001,23.5344536 L24.001,24.502792 L23.631,24.502792 L23.631,22.0819461 Z" id="Fill-118" fill="#221F73"></path>
                                        <path d="M26.4164,22.6278983 C26.2834,22.7867955 26.1984,23.0429004 26.1984,23.2915278 C26.1984,23.4962248 26.2574,23.7663501 26.4164,23.9560921 C26.5424,24.1084465 26.7384,24.2327602 27.0494,24.2327602 C27.3594,24.2327602 27.5564,24.1084465 27.6814,23.9560921 C27.8404,23.7663501 27.9004,23.4962248 27.9004,23.2915278 C27.9004,23.0429004 27.8154,22.7867955 27.6814,22.6278983 C27.5634,22.4858255 27.3524,22.3512302 27.0494,22.3512302 C26.7454,22.3512302 26.5344,22.4858255 26.4164,22.6278983 M27.9734,22.4138544 C28.1664,22.6176167 28.2924,22.9223255 28.2924,23.2915278 C28.2924,23.6691424 28.1594,23.9766552 27.9734,24.1738747 C27.8114,24.350531 27.5224,24.537469 27.0494,24.537469 C26.5754,24.537469 26.2864,24.350531 26.1244,24.1738747 C25.9394,23.9766552 25.8054,23.6691424 25.8054,23.2915278 C25.8054,22.9223255 25.9314,22.6176167 26.1244,22.4138544 C26.3344,22.1857901 26.6344,22.0474561 27.0494,22.0474561 C27.4634,22.0474561 27.7634,22.1857901 27.9734,22.4138544" id="Fill-120" fill="#221F73"></path>
                                        <path d="M30.805,22.4862928 C30.642,22.3965626 30.457,22.3516975 30.272,22.3516975 C30.043,22.3516975 29.813,22.4171258 29.639,22.5451783 C29.432,22.6975327 29.281,22.9564416 29.281,23.2919952 C29.281,23.5864224 29.395,23.7967275 29.525,23.9350616 C29.702,24.129477 29.958,24.2322928 30.309,24.2322928 C30.435,24.2322928 30.613,24.2089256 30.816,24.1182607 L30.838,24.4510102 C30.624,24.52672 30.45,24.5370016 30.298,24.5370016 C29.954,24.5370016 29.547,24.4715733 29.244,24.1808849 C29.051,23.993947 28.888,23.6826954 28.888,23.2882564 C28.888,23.0358903 28.955,22.6106065 29.37,22.3133753 C29.636,22.1226986 29.969,22.0469888 30.272,22.0469888 C30.553,22.0469888 30.716,22.0983967 30.835,22.1507393 L30.805,22.4862928 Z" id="Fill-122" fill="#221F73"></path>
                                        <path d="M33.1991,22.4862928 C33.0361,22.3965626 32.8511,22.3516975 32.6661,22.3516975 C32.4371,22.3516975 32.2071,22.4171258 32.0341,22.5451783 C31.8271,22.6975327 31.6751,22.9564416 31.6751,23.2919952 C31.6751,23.5864224 31.7891,23.7967275 31.9191,23.9350616 C32.0961,24.129477 32.3521,24.2322928 32.7031,24.2322928 C32.8291,24.2322928 33.0071,24.2089256 33.2101,24.1182607 L33.2321,24.4510102 C33.0181,24.52672 32.8441,24.5370016 32.6921,24.5370016 C32.3481,24.5370016 31.9411,24.4715733 31.6381,24.1808849 C31.4451,23.993947 31.2821,23.6826954 31.2821,23.2882564 C31.2821,23.0358903 31.3491,22.6106065 31.7641,22.3133753 C32.0301,22.1226986 32.3631,22.0469888 32.6661,22.0469888 C32.9471,22.0469888 33.1101,22.0983967 33.2291,22.1507393 L33.1991,22.4862928 Z" id="Fill-124" fill="#221F73"></path>
                                        <path d="M33.8879,22.0816657 L34.2579,22.0816657 L34.2579,23.7313927 L34.2469,24.0323627 L34.2649,24.0323627 C34.3539,23.865988 34.4059,23.7902782 34.4979,23.6519441 L35.5339,22.0816657 L35.9489,22.0816657 L35.9489,24.5025116 L35.5789,24.5025116 L35.5789,22.8527846 L35.5899,22.5518146 L35.5719,22.5518146 C35.4749,22.7424912 35.4159,22.8144623 35.3379,22.9322332 L34.3029,24.5025116 L33.8879,24.5025116 L33.8879,22.0816657 Z" id="Fill-126" fill="#221F73"></path>
                                        <path d="M36.7928,22.0816657 L37.1628,22.0816657 L37.1628,23.7313927 L37.1518,24.0323627 L37.1698,24.0323627 C37.2588,23.865988 37.3108,23.7902782 37.4028,23.6519441 L38.4388,22.0816657 L38.8538,22.0816657 L38.8538,24.5025116 L38.4838,24.5025116 L38.4838,22.8527846 L38.4948,22.5518146 L38.4758,22.5518146 C38.3798,22.7424912 38.3208,22.8144623 38.2428,22.9322332 L37.2068,24.5025116 L36.7928,24.5025116 L36.7928,22.0816657 Z" id="Fill-128" fill="#221F73"></path>
                                        <polygon id="Fill-130" fill="#FEFEFE" points="2.466 0.0901975375 11.269 0.0901975375 10.066 2.03902516 7.755 2.03902516 7.755 8.46501552 5.551 8.46501552 5.551 2.03902516 2.466 2.03902516"></polygon>
                                        <path d="M23.4653,2.03939904 C23.2153,2.03939904 23.0363,2.18427591 23.0363,2.42916456 L23.0363,6.13801253 C23.0363,6.38290118 23.2153,6.51656178 23.4653,6.51656178 L28.0273,6.51656178 L28.0273,8.4653894 L23.4653,8.4653894 C21.8693,8.4653894 20.8333,7.56341403 20.8333,6.13801253 L20.8333,2.42916456 C20.8333,1.01497934 21.8693,0.0905714133 23.4653,0.0905714133 L28.5753,0.0905714133 L27.3723,2.03939904 L23.4653,2.03939904 Z" id="Fill-132" fill="#FEFEFE"></path>
                                        <path d="M17.277,6.57684925 L14.093,6.57684925 C13.639,6.57684925 13.307,6.26653233 13.307,5.84124861 C13.307,5.40474861 13.639,5.093497 14.093,5.093497 L17.277,5.093497 L17.277,6.57684925 Z M16.86,0.0901040685 L12.739,0.0901040685 L11.535,2.03986638 L16.86,2.03986638 C17.122,2.03986638 17.277,2.18380857 17.277,2.42869722 L17.277,3.32039101 L13.823,3.32039101 C12.238,3.32039101 11.071,4.41117366 11.071,5.89265653 C11.071,7.3741394 12.238,8.46492206 13.823,8.46492206 L19.481,8.46492206 L19.481,2.42869722 C19.481,1.01451199 18.445,0.0901040685 16.86,0.0901040685 L16.86,0.0901040685 Z" id="Fill-134" fill="#FEFEFE"></path>
                                        <path d="M31.6429,2.03939904 C31.3929,2.03939904 31.2139,2.18427591 31.2139,2.42916456 L31.2139,6.13801253 C31.2139,6.38290118 31.3929,6.51656178 31.6429,6.51656178 L36.2049,6.51656178 L36.2049,8.4653894 L31.6429,8.4653894 C30.0469,8.4653894 29.0099,7.56341403 29.0099,6.13801253 L29.0099,2.42916456 C29.0099,1.01497934 30.0469,0.0905714133 31.6429,0.0905714133 L36.7529,0.0905714133 L35.5499,2.03939904 L31.6429,2.03939904 Z" id="Fill-136" fill="#FEFEFE"></path>
                                    </g>
                                </g>
                            </g>
                        </g>
                    </g>
                </g>
            </g>
        </g>
    </g>
</svg>