<?xml version="1.0" encoding="UTF-8" standalone="no"?>
<svg width="131px" height="46px" viewBox="0 0 131 46" version="1.1" xmlns="http://www.w3.org/2000/svg" xmlns:xlink="http://www.w3.org/1999/xlink">
    <!-- Generator: Sketch 3.8.3 (29802) - http://www.bohemiancoding.com/sketch -->
    <title>Group 8</title>
    <desc>Created with Sketch.</desc>
    <defs>
        <polygon id="path-1" points="0.340684536 9.88888889 87.4538804 9.88888889 87.4538804 0.0102166667 0.340684536 0.0102166667"></polygon>
    </defs>
    <g id="V2" stroke="none" stroke-width="1" fill="none" fill-rule="evenodd">
        <g id="Desktop-1240-Copy-3" transform="translate(-1055.000000, -1695.000000)">
            <g id="Group-11" transform="translate(-7.000000, 1523.000000)">
                <g id="Page-1" transform="translate(1062.000000, 121.000000)">
                    <g id="Group-8" transform="translate(0.000000, 51.611556)">
                        <path d="M32.6090351,0.0257333333 C25.3844165,0.0257333333 21.7523753,2.5084 21.7523753,11.7734833 C21.7523753,18.0318722 23.345901,21.31215 26.5465608,22.8025667 C31.250932,22.1097611 36.0709732,21.5476222 40.9440866,21.11615 C42.6165402,19.2609556 43.4398392,16.2950944 43.4398392,11.7734833 C43.4398392,2.5084 39.8472619,0.0257333333 32.6090351,0.0257333333 L32.6090351,0.0257333333 Z M32.6090351,19.9537611 C27.6052825,19.9537611 26.3642103,18.7124278 26.3642103,11.8388167 C26.3642103,4.93934444 27.6052825,3.91987222 32.6090351,3.91987222 C37.6127876,3.91987222 38.867468,4.93934444 38.867468,11.8388167 C38.867468,18.7124278 37.6127876,19.9537611 32.6090351,19.9537611 L32.6090351,19.9537611 Z M50.9379835,12.2702889 L50.9379835,4.24653889 L57.378767,4.24653889 C59.1437567,4.24653889 60.096334,5.59267778 60.096334,8.37615 C60.096334,10.9500111 59.0770763,12.2702889 57.2753443,12.2702889 L50.9379835,12.2702889 Z M50.9379835,20.4233444 L50.9379835,15.8636222 L58.5817361,15.8636222 C62.9703959,15.8636222 64.8388082,12.3356222 64.8388082,8.40201111 C64.8388082,3.95934444 63.2969938,0.587872222 58.4892,0.587872222 L46.6146433,0.587872222 L46.6146433,20.6846778 C48.0516742,20.5934833 49.4887052,20.5022889 50.9379835,20.4233444 L50.9379835,20.4233444 Z M72.3247052,0.587872222 L68.0136124,0.587872222 L68.0136124,20.0844278 C69.4506433,20.0966778 70.8876742,20.1102889 72.3247052,20.1497611 L72.3247052,0.587872222 Z M85.2334887,20.7636222 L77.8904784,11.0548167 L86.4868082,0.587872222 L81.2612412,0.587872222 L72.3641691,11.3420111 L79.562932,20.4233444 C81.4572,20.5145389 83.3392206,20.6329556 85.2334887,20.7636222 L85.2334887,20.7636222 Z M93.9863134,0.587872222 L89.6616124,0.587872222 L89.6616124,21.11615 C91.1122515,21.2468167 92.5492825,21.3774833 93.9863134,21.5340111 L93.9863134,0.587872222 Z M109.009819,23.5729556 L99.5384784,11.0548167 L108.148416,0.587872222 L102.909241,0.587872222 L94.0121691,11.3420111 L102.974561,22.6324278 C104.999468,22.9196222 107.010767,23.2326778 109.009819,23.5729556 L109.009819,23.5729556 Z" id="Fill-1" fill="#2D2646"></path>
                        <path d="M130.645163,33.3341639 C112.223678,28.5253583 89.6748124,25.7024139 65.3228536,25.7024139 C40.9708948,25.7024139 18.420668,28.5253583 0.000544329897,33.3341639 C37.8219464,21.9008306 92.8237608,21.9008306 130.645163,33.3341639" id="Fill-3" fill="#13488C"></path>
                        <g id="Group-7" transform="translate(21.412371, 35.388889)">
                            <mask id="mask-2" fill="white">
                                <use xlink:href="#path-1"></use>
                            </mask>
                            <g id="Clip-6"></g>
                            <path d="M2.09070515,0.101411111 C0.928560825,0.101411111 0.340684536,0.507022222 0.340684536,1.99607778 C0.340684536,3.51235556 0.914952577,3.93021667 2.09070515,3.93021667 C3.24060206,3.93021667 3.82847835,3.51235556 3.82847835,1.99607778 C3.82847835,0.507022222 3.24060206,0.101411111 2.09070515,0.101411111 L2.09070515,0.101411111 Z M59.8495505,8.88193889 C59.2875299,7.70593889 59.038499,7.53716111 58.7649732,7.43235556 C58.9078598,7.31393889 59.2739216,6.89607778 59.7842309,6.20327222 L59.0126433,6.20327222 C58.5812619,6.77902222 58.1893443,7.26221667 57.9811381,7.49768889 L57.9811381,6.20327222 L57.3279423,6.20327222 L57.3279423,8.88193889 L57.9811381,8.88193889 L57.9811381,7.64060556 C58.3199835,7.71955 58.634334,7.92916111 59.0915711,8.88193889 L59.8495505,8.88193889 Z M61.4036124,8.96088333 C62.252767,8.96088333 62.6841485,8.63421667 62.6841485,7.53716111 C62.6841485,6.43874444 62.252767,6.12568889 61.4036124,6.12568889 C60.5544577,6.12568889 60.1230763,6.43874444 60.1230763,7.53716111 C60.1230763,8.63421667 60.5408495,8.96088333 61.4036124,8.96088333 L61.4036124,8.96088333 Z M61.4036124,6.66060556 C61.8608495,6.66060556 62.0050969,6.77902222 62.0050969,7.53716111 C62.0050969,8.28168889 61.8608495,8.42460556 61.4036124,8.42460556 C60.9463753,8.42460556 60.8021278,8.28168889 60.8021278,7.53716111 C60.8021278,6.77902222 60.9463753,6.66060556 61.4036124,6.66060556 L61.4036124,6.66060556 Z M63.9646845,6.76541111 C64.0953237,6.71368889 64.3035299,6.68782778 64.4872412,6.68782778 C64.9444784,6.68782778 65.1009732,6.81849444 65.1009732,7.56302222 C65.1009732,8.21635556 64.9444784,8.39874444 64.4872412,8.39874444 C64.1987464,8.39874444 63.9646845,8.30755 63.9646845,8.15102222 L63.9646845,6.76541111 Z M63.3114887,9.88916111 L63.9646845,9.88916111 L63.9646845,8.80435556 C64.1075711,8.86968889 64.3035299,8.96088333 64.6042722,8.96088333 C65.3227876,8.96088333 65.7677773,8.63421667 65.7677773,7.53716111 C65.7677773,6.45235556 65.3622515,6.12568889 64.4872412,6.12568889 C64.0953237,6.12568889 63.5986227,6.20327222 63.3114887,6.32168889 L63.3114887,9.88916111 Z M67.0469526,6.77902222 L68.1056742,6.77902222 L68.1056742,8.88193889 L68.7588701,8.88193889 L68.7588701,6.20327222 L66.3937567,6.20327222 L66.3937567,8.88193889 L67.0469526,8.88193889 L67.0469526,6.77902222 Z M70.6667464,8.96088333 C71.5281485,8.96088333 71.9472825,8.63421667 71.9472825,7.53716111 C71.9472825,6.43874444 71.515901,6.12568889 70.6667464,6.12568889 C69.8175918,6.12568889 69.3862103,6.43874444 69.3862103,7.53716111 C69.3862103,8.63421667 69.8039835,8.96088333 70.6667464,8.96088333 L70.6667464,8.96088333 Z M70.6667464,6.66060556 C71.1239835,6.66060556 71.2668701,6.77902222 71.2668701,7.53716111 C71.2668701,8.28168889 71.1239835,8.42460556 70.6667464,8.42460556 C70.2095093,8.42460556 70.0652619,8.28168889 70.0652619,7.53716111 C70.0652619,6.77902222 70.2095093,6.66060556 70.6667464,6.66060556 L70.6667464,6.66060556 Z M73.2264577,6.76541111 C73.3570969,6.71368889 73.5666639,6.68782778 73.7490144,6.68782778 C74.2062515,6.68782778 74.3641072,6.81849444 74.3641072,7.56302222 C74.3641072,8.21635556 74.2062515,8.39874444 73.7490144,8.39874444 C73.4618804,8.39874444 73.2264577,8.30755 73.2264577,8.15102222 L73.2264577,6.76541111 Z M72.5732619,9.88916111 L73.2264577,9.88916111 L73.2264577,8.80435556 C73.3707052,8.86968889 73.5666639,8.96088333 73.8674062,8.96088333 C74.5859216,8.96088333 75.0295505,8.63421667 75.0295505,7.53716111 C75.0295505,6.45235556 74.6253856,6.12568889 73.7490144,6.12568889 C73.3570969,6.12568889 72.8617567,6.20327222 72.5732619,6.32168889 L72.5732619,9.88916111 Z M77.8913649,7.17102222 C77.8913649,6.37341111 77.5389113,6.12568889 76.741468,6.12568889 C76.3617979,6.12568889 75.957633,6.19102222 75.670499,6.26860556 L75.8011381,6.80488333 C76.0093443,6.72593889 76.3100866,6.68782778 76.6108289,6.68782778 C77.1592412,6.68782778 77.2762722,6.79127222 77.2762722,7.26221667 C77.0422103,7.21049444 76.8326433,7.18327222 76.6108289,7.18327222 C75.9834887,7.18327222 75.5521072,7.30168889 75.5521072,8.05982778 C75.5521072,8.76488333 75.8392412,8.96088333 76.6883959,8.96088333 C77.068066,8.96088333 77.564767,8.86968889 77.8913649,8.73902222 L77.8913649,7.17102222 Z M77.2762722,8.35927222 C77.1197773,8.41235556 76.9238186,8.45182778 76.741468,8.45182778 C76.3359423,8.45182778 76.244767,8.39874444 76.244767,8.03260556 C76.244767,7.69368889 76.3754062,7.65421667 76.741468,7.65421667 C76.9374268,7.65421667 77.1197773,7.66782778 77.2762722,7.69368889 L77.2762722,8.35927222 Z M80.9613856,8.30755 L80.9613856,6.20327222 L80.3081897,6.20327222 L80.3081897,8.30755 L79.2630763,8.30755 L79.2630763,6.20327222 L78.6098804,6.20327222 L78.6098804,8.88193889 L80.8824577,8.88193889 L80.8824577,9.62782778 L81.4050144,9.62782778 L81.5615093,8.30755 L80.9613856,8.30755 Z M83.6912,8.88193889 L84.3443959,8.88193889 L84.3443959,6.20327222 L83.6912,6.20327222 C83.3646021,6.77902222 82.9604371,7.44460556 82.5943753,7.90193889 L82.5943753,6.20327222 L81.9534268,6.20327222 L81.9534268,8.88193889 L82.5943753,8.88193889 C82.9726845,8.39874444 83.3646021,7.82435556 83.6912,7.24860556 L83.6912,8.88193889 Z M86.8006845,7.41874444 L86.0563134,7.41874444 C85.8467464,7.41874444 85.7297155,7.31393889 85.7297155,7.06621667 C85.7297155,6.81849444 85.834499,6.72593889 86.0427052,6.72593889 L86.8006845,6.72593889 L86.8006845,7.41874444 Z M85.7814268,7.71955 C85.4167258,7.77127222 85.2071588,7.95502222 84.8288495,8.88193889 L85.585468,8.88193889 C85.8739629,8.07207778 86.0563134,7.92916111 86.3965196,7.92916111 L86.8006845,7.92916111 L86.8006845,8.88193889 L87.4538804,8.88193889 L87.4538804,6.20327222 L85.8739629,6.20327222 C85.2330144,6.20327222 85.0248082,6.55716111 85.0248082,6.98727222 C85.0248082,7.36702222 85.2071588,7.70593889 85.7814268,7.71955 L85.7814268,7.71955 Z M2.09070515,3.30274444 C1.28101443,3.30274444 1.08505567,3.10674444 1.08505567,2.00968889 C1.08505567,0.899022222 1.28101443,0.728883333 2.09070515,0.728883333 C2.88814845,0.728883333 3.08410722,0.899022222 3.08410722,2.00968889 C3.08410722,3.10674444 2.88814845,3.30274444 2.09070515,3.30274444 L2.09070515,3.30274444 Z M5.05594227,2.57046667 C5.05594227,1.95660556 5.16072577,1.78646667 5.63157113,1.78646667 C6.04934433,1.78646667 6.19223093,1.93074444 6.19223093,2.57046667 C6.19223093,3.30274444 6.03573608,3.39393889 5.59210722,3.39393889 C5.22604536,3.39393889 5.05594227,3.21155 5.05594227,2.57046667 L5.05594227,2.57046667 Z M5.04369485,1.53874444 C5.10901443,1.04193889 5.20018969,0.820077778 5.73635464,0.768355556 C6.15412784,0.728883333 6.48072577,0.689411111 6.70254021,0.584605556 L6.70254021,0.0102166667 C6.41540619,0.127272222 6.08880825,0.180355556 5.70913814,0.206216667 C4.7552,0.2838 4.39049897,0.558744444 4.39049897,2.30913333 C4.39049897,3.62941111 4.82051959,3.93021667 5.57849897,3.93021667 C6.4548701,3.93021667 6.85903505,3.62941111 6.85903505,2.55821667 C6.85903505,1.49927222 6.46711753,1.22568889 5.77445773,1.22568889 C5.43561237,1.22568889 5.20018969,1.32913333 5.04369485,1.53874444 L5.04369485,1.53874444 Z M8.32192165,2.15260556 L8.32192165,1.18621667 L7.15977732,1.18621667 L7.15977732,1.74835556 L7.66872577,1.74835556 L7.66872577,3.86488333 L9.26361237,3.86488333 C9.81202474,3.86488333 10.0991588,3.62941111 10.0991588,3.00193889 C10.0991588,2.44116111 9.81202474,2.15260556 9.26361237,2.15260556 L8.32192165,2.15260556 Z M8.32192165,3.38168889 L8.32192165,2.64941111 L9.09350928,2.64941111 C9.30171546,2.64941111 9.40649897,2.75421667 9.40649897,3.00193889 C9.40649897,3.26327222 9.31532371,3.38168889 9.1057567,3.38168889 L8.32192165,3.38168889 Z M12.7377979,3.27688333 C12.5295918,3.32860556 12.1771381,3.38168889 11.9811794,3.38168889 C11.5239423,3.38168889 11.300767,3.26327222 11.2885196,2.68888333 L13.0262928,2.68888333 C13.0643959,1.39446667 12.6996948,1.10727222 11.8505402,1.10727222 C11.0789526,1.10727222 10.6081072,1.43393889 10.6081072,2.50513333 C10.6081072,3.60355 11.1306639,3.93021667 11.9022515,3.93021667 C12.1771381,3.93021667 12.5690557,3.87849444 12.8425814,3.78593889 L12.7377979,3.27688333 Z M11.8886433,1.61768889 C12.2683134,1.61768889 12.3989526,1.72113333 12.4248082,2.19207778 L11.300767,2.19207778 C11.3402309,1.74835556 11.4844784,1.61768889 11.8886433,1.61768889 L11.8886433,1.61768889 Z M14.1095093,1.18621667 C14.0714062,1.90488333 13.9271588,2.62355 13.7448082,3.29049444 L13.2603546,3.29049444 L13.4046021,4.5958 L13.940767,4.5958 L13.940767,3.86488333 L15.952066,3.86488333 L15.952066,4.5958 L16.4746227,4.5958 L16.6188701,3.29049444 L16.1085608,3.29049444 L16.1085608,1.18621667 L14.1095093,1.18621667 Z M15.4553649,1.74835556 L15.4553649,3.29049444 L14.4238598,3.29049444 C14.554499,2.78007778 14.6715299,2.20568889 14.7109938,1.74835556 L15.4553649,1.74835556 Z M18.7485608,3.86488333 L19.4017567,3.86488333 L19.4017567,1.18621667 L18.7485608,1.18621667 C18.4342103,1.76060556 18.0300454,2.42755 17.6639835,2.88488333 L17.6639835,1.18621667 L17.0107876,1.18621667 L17.0107876,3.86488333 L17.6639835,3.86488333 C18.0422928,3.38168889 18.4342103,2.80593889 18.7485608,2.21793889 L18.7485608,3.86488333 Z M21.8308289,2.72835556 L21.8308289,3.86488333 L22.4840247,3.86488333 L22.4840247,1.18621667 L21.8308289,1.18621667 L21.8308289,2.16621667 L20.7857155,2.16621667 L20.7857155,1.18621667 L20.1325196,1.18621667 L20.1325196,3.86488333 L20.7857155,3.86488333 L20.7857155,2.72835556 L21.8308289,2.72835556 Z M25.2410557,3.27688333 C25.0314887,3.32860556 24.6790351,3.38168889 24.4966845,3.38168889 C24.0258392,3.38168889 23.8040247,3.26327222 23.8040247,2.68888333 L25.5281897,2.68888333 C25.5812619,1.39446667 25.2152,1.10727222 24.3660454,1.10727222 C23.5822103,1.10727222 23.1249732,1.43393889 23.1249732,2.50513333 C23.1249732,3.60355 23.6475299,3.93021667 24.4177567,3.93021667 C24.6926433,3.93021667 25.0845608,3.87849444 25.3580866,3.78593889 L25.2410557,3.27688333 Z M24.4055093,1.61768889 C24.7702103,1.61768889 24.9144577,1.72113333 24.928066,2.19207778 L23.8040247,2.19207778 C23.8434887,1.74835556 23.9863753,1.61768889 24.4055093,1.61768889 L24.4055093,1.61768889 Z M27.8143753,2.72835556 L27.8143753,3.86488333 L28.4675711,3.86488333 L28.4675711,1.18621667 L27.8143753,1.18621667 L27.8143753,2.16621667 L26.7692619,2.16621667 L26.7692619,1.18621667 L26.116066,1.18621667 L26.116066,3.86488333 L26.7692619,3.86488333 L26.7692619,2.72835556 L27.8143753,2.72835556 Z M30.8980041,2.72835556 L30.8980041,3.86488333 L31.5512,3.86488333 L31.5512,1.18621667 L30.8980041,1.18621667 L30.8980041,2.16621667 L29.8528907,2.16621667 L29.8528907,1.18621667 L29.1996948,1.18621667 L29.1996948,3.86488333 L29.8528907,3.86488333 L29.8528907,2.72835556 L30.8980041,2.72835556 Z M34.5164371,2.14035556 C34.5164371,1.34274444 34.1503753,1.10727222 33.3665402,1.10727222 C32.9746227,1.10727222 32.5704577,1.17260556 32.2955711,1.25155 L32.4139629,1.78646667 C32.6357773,1.70888333 32.9365196,1.6558 33.2236536,1.6558 C33.7856742,1.6558 33.8890969,1.76060556 33.8890969,2.23155 C33.6672825,2.19207778 33.4590763,2.16621667 33.2236536,2.16621667 C32.6099216,2.16621667 32.1785402,2.28327222 32.1785402,3.04141111 C32.1785402,3.73421667 32.4656742,3.93021667 33.3012206,3.93021667 C33.6808907,3.93021667 34.1775918,3.85127222 34.5164371,3.72060556 L34.5164371,2.14035556 Z M33.8890969,3.34221667 C33.7326021,3.39393889 33.5502515,3.43341111 33.3542928,3.43341111 C32.9623753,3.43341111 32.8575918,3.38168889 32.8575918,3.01555 C32.8575918,2.67527222 32.9882309,2.62355 33.3665402,2.62355 C33.5502515,2.62355 33.7462103,2.64941111 33.8890969,2.67527222 L33.8890969,3.34221667 Z M36.9604784,2.38807778 L36.2147464,2.38807778 C36.0065402,2.38807778 35.8881485,2.28327222 35.8881485,2.0478 C35.8881485,1.78646667 35.992932,1.70888333 36.202499,1.70888333 L36.9604784,1.70888333 L36.9604784,2.38807778 Z M35.9412206,2.70249444 C35.5751588,2.75421667 35.3792,2.93660556 34.9995299,3.86488333 L35.7452619,3.86488333 C36.0460041,3.05502222 36.2147464,2.91074444 36.5549526,2.91074444 L36.9604784,2.91074444 L36.9604784,3.86488333 L37.6136742,3.86488333 L37.6136742,1.18621667 L36.0323959,1.18621667 C35.3928082,1.18621667 35.1832412,1.53874444 35.1832412,1.97021667 C35.1832412,2.34860556 35.3792,2.67527222 35.9412206,2.70249444 L35.9412206,2.70249444 Z M1.07144742,6.70007778 C1.21569485,6.64835556 1.41165361,6.62249444 1.59400412,6.62249444 C2.06484948,6.62249444 2.20773608,6.75316111 2.20773608,7.48407778 C2.20773608,8.15102222 2.06484948,8.33341111 1.60761237,8.33341111 C1.3068701,8.33341111 1.07144742,8.22860556 1.07144742,8.07207778 L1.07144742,6.70007778 Z M0.418251546,9.82382778 L1.07144742,9.82382778 L1.07144742,8.72541111 C1.22794227,8.80435556 1.41165361,8.88193889 1.71239588,8.88193889 C2.43091134,8.88193889 2.87454021,8.55527222 2.87454021,7.47182778 C2.87454021,6.37341111 2.48262268,6.06035556 1.59400412,6.06035556 C1.2020866,6.06035556 0.718993814,6.13793889 0.418251546,6.25635556 L0.418251546,9.82382778 Z M5.74860206,7.09207778 C5.74860206,6.29582778 5.38254021,6.06035556 4.58645773,6.06035556 C4.20678763,6.06035556 3.80262268,6.12568889 3.52773608,6.19102222 L3.64476701,6.72593889 C3.86794227,6.64835556 4.15507629,6.60888333 4.45581856,6.60888333 C5.01647835,6.60888333 5.12126186,6.71368889 5.12126186,7.18327222 C4.89944742,7.13155 4.68988041,7.10568889 4.45581856,7.10568889 C3.82847835,7.10568889 3.41070515,7.23635556 3.41070515,7.99449444 C3.41070515,8.68593889 3.69783918,8.88193889 4.53338557,8.88193889 C4.91305567,8.88193889 5.4097567,8.80435556 5.74860206,8.67368889 L5.74860206,7.09207778 Z M5.12126186,8.29393889 C4.96476701,8.34702222 4.76880825,8.38649444 4.58645773,8.38649444 C4.19454021,8.38649444 4.0897567,8.32116111 4.0897567,7.96727222 C4.0897567,7.61474444 4.22039588,7.57527222 4.58645773,7.57527222 C4.78241649,7.57527222 4.97837526,7.58888333 5.12126186,7.62835556 L5.12126186,8.29393889 Z M8.97511753,8.80435556 C8.41445773,7.62835556 8.1654268,7.45821667 7.90414845,7.35341111 C8.04839588,7.24860556 8.40084948,6.83074444 8.90979794,6.13793889 L8.13957113,6.13793889 C7.70818969,6.70007778 7.31627216,7.18327222 7.10806598,7.41874444 L7.10806598,6.13793889 L6.4548701,6.13793889 L6.4548701,8.80435556 L7.10806598,8.80435556 L7.10806598,7.56302222 C7.44691134,7.64060556 7.76126186,7.86382778 8.21849897,8.80435556 L8.97511753,8.80435556 Z M11.3796948,8.21635556 C11.1701278,8.28168889 10.8176742,8.33341111 10.6353237,8.33341111 C10.1644784,8.33341111 9.94266392,8.21635556 9.94266392,7.64060556 L11.6668289,7.64060556 C11.719901,6.34755 11.3538392,6.06035556 10.5046845,6.06035556 C9.72084948,6.06035556 9.26361237,6.38702222 9.26361237,7.45821667 C9.26361237,8.55527222 9.78616907,8.88193889 10.5563959,8.88193889 C10.8312825,8.88193889 11.2232,8.83021667 11.4844784,8.73902222 L11.3796948,8.21635556 Z M10.5441485,6.56941111 C10.9088495,6.56941111 11.0530969,6.67421667 11.0653443,7.14516111 L9.94266392,7.14516111 C9.98212784,6.70007778 10.1250144,6.56941111 10.5441485,6.56941111 L10.5441485,6.56941111 Z M13.4835299,6.70007778 L14.4102515,6.70007778 L14.4102515,6.13793889 L11.914499,6.13793889 L11.914499,6.70007778 L12.830334,6.70007778 L12.830334,8.80435556 L13.4835299,8.80435556 L13.4835299,6.70007778 Z M16.5004784,7.66782778 L16.5004784,8.80435556 L17.1536742,8.80435556 L17.1536742,6.13793889 L16.5004784,6.13793889 L16.5004784,7.11793889 L15.4553649,7.11793889 L15.4553649,6.13793889 L14.8021691,6.13793889 L14.8021691,8.80435556 L15.4553649,8.80435556 L15.4553649,7.66782778 L16.5004784,7.66782778 Z M19.0615505,8.88193889 C19.9243134,8.88193889 20.3420866,8.55527222 20.3420866,7.45821667 C20.3420866,6.36116111 19.9243134,6.06035556 19.0615505,6.06035556 C18.2123959,6.06035556 17.7946227,6.36116111 17.7946227,7.45821667 C17.7946227,8.55527222 18.2123959,8.88193889 19.0615505,8.88193889 L19.0615505,8.88193889 Z M19.0615505,6.58302222 C19.5323959,6.58302222 19.6752825,6.70007778 19.6752825,7.47182778 C19.6752825,8.20274444 19.5323959,8.34702222 19.0615505,8.34702222 C18.6043134,8.34702222 18.460066,8.20274444 18.460066,7.47182778 C18.460066,6.70007778 18.6043134,6.58302222 19.0615505,6.58302222 L19.0615505,6.58302222 Z M20.7598598,7.64060556 L22.0526433,7.64060556 L22.0526433,7.02674444 L20.7598598,7.02674444 L20.7598598,7.64060556 Z M25.0968082,8.80435556 C24.5361485,7.62835556 24.2871175,7.45821667 24.0122309,7.35341111 C24.1564784,7.24860556 24.5225402,6.83074444 25.0314887,6.13793889 L24.2612619,6.13793889 C23.8298804,6.70007778 23.4379629,7.18327222 23.2283959,7.41874444 L23.2283959,6.13793889 L22.5752,6.13793889 L22.5752,8.80435556 L23.2283959,8.80435556 L23.2283959,7.56302222 C23.5686021,7.64060556 23.8829526,7.86382778 24.3265814,8.80435556 L25.0968082,8.80435556 Z M26.6386227,8.88193889 C27.5013856,8.88193889 27.932767,8.55527222 27.932767,7.45821667 C27.932767,6.36116111 27.5013856,6.06035556 26.6386227,6.06035556 C25.8030763,6.06035556 25.3716948,6.36116111 25.3716948,7.45821667 C25.3716948,8.55527222 25.789468,8.88193889 26.6386227,8.88193889 L26.6386227,8.88193889 Z M26.6386227,6.58302222 C27.109468,6.58302222 27.2523546,6.70007778 27.2523546,7.47182778 C27.2523546,8.20274444 27.109468,8.34702222 26.6386227,8.34702222 C26.1813856,8.34702222 26.0507464,8.20274444 26.0507464,7.47182778 C26.0507464,6.70007778 26.1813856,6.58302222 26.6386227,6.58302222 L26.6386227,6.58302222 Z M30.4543753,8.19049444 C30.2842722,8.25582778 30.0624577,8.32116111 29.8392825,8.32116111 C29.3561897,8.32116111 29.1343753,8.17688333 29.1343753,7.47182778 C29.1343753,6.72593889 29.3561897,6.62249444 29.8392825,6.62249444 C30.0488495,6.62249444 30.2842722,6.67421667 30.4543753,6.73955 L30.5972619,6.17741111 C30.4013031,6.11207778 30.0488495,6.06035556 29.7875711,6.06035556 C28.9778804,6.06035556 28.4675711,6.36116111 28.4675711,7.45821667 C28.4675711,8.55527222 28.9778804,8.88193889 29.7875711,8.88193889 C30.0352412,8.88193889 30.3890557,8.83021667 30.5972619,8.75263333 L30.4543753,8.19049444 Z M32.6752412,7.71955 C32.452066,7.17102222 32.2302515,6.64835556 31.9825814,6.13793889 L31.0286433,6.13793889 L31.0286433,8.80435556 L31.6682309,8.80435556 L31.6682309,6.85660556 C31.9036536,7.37927222 32.1907876,8.12516111 32.3867464,8.64782778 L32.8712,8.64782778 C33.0671588,8.12516111 33.3665402,7.39288333 33.6155711,6.85660556 L33.6155711,8.80435556 L34.2551588,8.80435556 L34.2551588,6.13793889 L33.3542928,6.13793889 C33.1052619,6.64835556 32.8834474,7.15741111 32.6752412,7.71955 L32.6752412,7.71955 Z M36.7250557,8.80435556 L37.3782515,8.80435556 L37.3782515,6.13793889 L36.7250557,6.13793889 C36.3984577,6.70007778 35.992932,7.37927222 35.6404784,7.83660556 L35.6404784,6.13793889 L34.9872825,6.13793889 L34.9872825,8.80435556 L35.6404784,8.80435556 C36.0065402,8.32116111 36.3984577,7.74541111 36.7250557,7.17102222 L36.7250557,8.80435556 Z M37.9402722,6.77902222 C37.9402722,7.78488333 38.2791175,7.99449444 38.9064577,7.99449444 C39.1813443,7.99449444 39.4684784,7.90193889 39.6385814,7.81074444 L39.6385814,8.80435556 L40.2917773,8.80435556 L40.2917773,6.13793889 L39.6385814,6.13793889 L39.6385814,7.17102222 C39.6385814,7.32755 39.3895505,7.40649444 39.1282722,7.40649444 C38.7758186,7.40649444 38.593468,7.30168889 38.593468,6.72593889 L38.593468,6.13793889 L37.9402722,6.13793889 L37.9402722,6.77902222 Z M43.0610557,8.21635556 C42.8392412,8.28168889 42.4990351,8.33341111 42.3030763,8.33341111 C41.8335918,8.33341111 41.6104165,8.21635556 41.6104165,7.64060556 L43.3359423,7.64060556 C43.3876536,6.34755 43.0215918,6.06035556 42.1724371,6.06035556 C41.3886021,6.06035556 40.9313649,6.38702222 40.9313649,7.45821667 C40.9313649,8.55527222 41.4539216,8.88193889 42.2255093,8.88193889 C42.4990351,8.88193889 42.8909526,8.83021667 43.1658392,8.73902222 L43.0610557,8.21635556 Z M42.211901,6.56941111 C42.5779629,6.56941111 42.7208495,6.67421667 42.7344577,7.14516111 L41.6104165,7.14516111 C41.6634887,6.70007778 41.7941278,6.56941111 42.211901,6.56941111 L42.211901,6.56941111 Z M45.8180866,8.19049444 C45.6479835,8.25582778 45.4261691,8.32116111 45.2029938,8.32116111 C44.719901,8.32116111 44.4980866,8.17688333 44.4980866,7.47182778 C44.4980866,6.72593889 44.719901,6.62249444 45.2029938,6.62249444 C45.4125608,6.62249444 45.6479835,6.67421667 45.8180866,6.73955 L45.9609732,6.17741111 C45.7650144,6.11207778 45.4125608,6.06035556 45.1512825,6.06035556 C44.3415918,6.06035556 43.8312825,6.36116111 43.8312825,7.45821667 C43.8312825,8.55527222 44.3415918,8.88193889 45.1512825,8.88193889 C45.3989526,8.88193889 45.752767,8.83021667 45.9609732,8.75263333 L45.8180866,8.19049444 Z M48.9139629,8.80435556 C48.3519423,7.62835556 48.1042722,7.45821667 47.8429938,7.35341111 C47.973633,7.24860556 48.3396948,6.83074444 48.8486433,6.13793889 L48.0784165,6.13793889 C47.6470351,6.70007778 47.2551175,7.18327222 47.0455505,7.41874444 L47.0455505,6.13793889 L46.3923546,6.13793889 L46.3923546,8.80435556 L47.0455505,8.80435556 L47.0455505,7.56302222 C47.3857567,7.64060556 47.6987464,7.86382778 48.1559835,8.80435556 L48.9139629,8.80435556 Z M51.5267464,7.09207778 C51.5267464,6.29582778 51.1606845,6.06035556 50.3646021,6.06035556 C49.984932,6.06035556 49.580767,6.12568889 49.2922722,6.19102222 L49.4229113,6.72593889 C49.6460866,6.64835556 49.9332206,6.60888333 50.2339629,6.60888333 C50.7823753,6.60888333 50.8994062,6.71368889 50.8994062,7.18327222 C50.6639835,7.13155 50.4557773,7.10568889 50.2339629,7.10568889 C49.6066227,7.10568889 49.1888495,7.23635556 49.1888495,7.99449444 C49.1888495,8.68593889 49.4623753,8.88193889 50.3115299,8.88193889 C50.6912,8.88193889 51.1865402,8.80435556 51.5267464,8.67368889 L51.5267464,7.09207778 Z M50.8994062,8.29393889 C50.7429113,8.34702222 50.5469526,8.38649444 50.3646021,8.38649444 C49.9590763,8.38649444 49.867901,8.32116111 49.867901,7.96727222 C49.867901,7.61474444 49.9985402,7.57527222 50.3646021,7.57527222 C50.5605608,7.57527222 50.7429113,7.58888333 50.8994062,7.62835556 L50.8994062,8.29393889 Z M53.9694268,7.34116111 L53.2250557,7.34116111 C53.0032412,7.34116111 52.8984577,7.23635556 52.8984577,7.00088333 C52.8984577,6.73955 53.0032412,6.66060556 53.2128082,6.66060556 L53.9694268,6.66060556 L53.9694268,7.34116111 Z M52.9501691,7.65421667 C52.5718598,7.70593889 52.375901,7.88968889 51.9975918,8.80435556 L52.7419629,8.80435556 C53.0427052,7.99449444 53.2128082,7.86382778 53.5652619,7.86382778 L53.9694268,7.86382778 L53.9694268,8.80435556 L54.6226227,8.80435556 L54.6226227,6.13793889 L53.0290969,6.13793889 C52.3895093,6.13793889 52.1935505,6.49182778 52.1935505,6.92193889 C52.1935505,7.30168889 52.375901,7.62835556 52.9501691,7.65421667 L52.9501691,7.65421667 Z" id="Fill-5" fill="#13488C" mask="url(#mask-2)"></path>
                        </g>
                    </g>
                </g>
            </g>
        </g>
    </g>
</svg>