<?xml version="1.0" encoding="UTF-8" standalone="no"?>
<svg width="223px" height="45px" viewBox="0 0 223 45" version="1.1" xmlns="http://www.w3.org/2000/svg" xmlns:xlink="http://www.w3.org/1999/xlink">
    <!-- Generator: Sketch 3.8.3 (29802) - http://www.bohemiancoding.com/sketch -->
    <title>Page 1</title>
    <desc>Created with Sketch.</desc>
    <defs></defs>
    <g id="V2" stroke="none" stroke-width="1" fill="none" fill-rule="evenodd">
        <g id="Desktop-1240-Copy-3" transform="translate(-246.000000, -1691.000000)">
            <g id="Group-11" transform="translate(-7.000000, 1523.000000)">
                <g id="partners">
                    <g id="Group-14" transform="translate(0.000000, 59.000000)">
                        <g id="Group-85" transform="translate(253.000000, 61.000000)">
                            <g id="Page-1" transform="translate(0.000000, 47.982869)">
                                <g id="Group-29" transform="translate(0.000000, 0.596629)">
                                    <path d="M46.676014,22.3526184 C46.676014,34.3125267 36.3156781,44.007287 23.5387416,44.007287 C10.765698,44.007287 0.403415616,34.3125267 0.403415616,22.3526184 C0.403415616,10.3927102 10.765698,0.689749395 23.5387416,0.689749395 C36.3156781,0.689749395 46.676014,10.3927102 46.676014,22.3526184" id="Fill-1" fill="#FEFEFE"></path>
                                    <path d="M0.812086827,22.3526184 C0.812086827,10.6168559 11.0098886,1.0724373 23.5386442,1.0724373 C36.0742127,1.0724373 46.2661749,10.6168559 46.2661749,22.3526184 C46.2661749,34.0856474 36.0742127,43.6282438 23.5386442,43.6282438 C11.0098886,43.6282438 0.812086827,34.0856474 0.812086827,22.3526184 M0.000389303369,22.3526184 C0.000389303369,34.5029595 10.5602432,44.3872414 23.5386442,44.3872414 C36.5180185,44.3872414 47.0807922,34.5029595 47.0807922,22.3526184 C47.0807922,10.2004551 36.5180185,0.314350781 23.5386442,0.314350781 C10.5602432,0.314350781 0.000389303369,10.2004551 0.000389303369,22.3526184" id="Fill-3" fill="#00447B"></path>
                                    <path d="M38.5162154,20.1103406 C38.3390824,20.2506595 38.1502702,20.3873338 37.9361534,20.5367643 C36.6358801,21.4752608 34.5823049,22.2251469 31.7345507,22.935853 C25.8249256,24.4256024 21.5348025,24.6451923 16.6529382,25.7613654 C15.7079043,25.9754884 14.7103144,26.2770829 13.7905852,26.6278802 C14.7103144,27.0588596 15.6894124,27.4588596 16.6967349,27.8169462 C18.6714762,27.2875612 19.6320823,27.0442811 22.5002748,26.5896114 C23.593244,26.412846 26.9616914,25.8634155 29.3977573,25.381411 C33.7910458,24.5030511 40.2301235,22.6014567 38.5162154,20.1103406 M35.6850067,14.9376758 C34.7516518,14.5440539 33.5788754,14.1549879 32.3389442,13.8451929 C31.7841869,14.2597715 31.1379433,14.6251473 30.2143211,14.9622771 C31.7647217,15.2201359 32.9277656,15.6192247 34.2290121,15.9718443 C34.4645406,16.0820948 35.5195527,15.1545322 35.6850067,14.9376758 M14.1506908,20.4356254 C19.8929155,18.8602268 25.9222514,18.3736665 32.0245817,16.8574934 C29.6410719,16.2552156 28.3359323,15.9991791 25.8132465,16.27435 C22.1489285,16.6789057 18.1274247,17.4233248 14.6791701,18.3791334 C13.3292607,18.7618214 6.21279514,20.6433702 8.26539715,23.2839168 C8.26539715,23.3194521 9.48391669,21.7167187 14.1506908,20.4356254 M10.1914756,29.5089734 C10.1788232,29.9982672 10.4961054,30.436536 11.198798,30.9732102 C11.2844448,30.707151 11.4119416,30.5121624 11.6182724,30.2579483 C11.1316432,30.0283356 10.6528001,29.7732103 10.1914756,29.5089734 M12.8854549,29.2602263 C13.3156351,29.0205908 13.8353551,28.7809552 14.4309892,28.5613653 C13.6134522,28.2424587 12.7783964,27.8962172 11.9258221,27.5308414 C11.5433315,27.7531649 11.198798,27.9928004 10.9262857,28.2369917 C11.575449,28.5887001 12.2216926,28.9349416 12.8854549,29.2602263 M34.9599291,17.8369922 C33.8027249,18.3381312 32.138453,18.8584045 29.7598094,19.4196801 C27.8132925,19.8770833 23.0540589,20.5130741 17.9473719,21.5554431 C16.3230036,21.8825501 11.9491803,22.8529373 9.79438613,24.5659213 C10.3948866,25.0169463 10.765698,25.1299304 11.4352998,25.4779941 C12.3306976,24.9431422 13.5316985,24.4374475 15.3341731,23.9891559 C18.4729315,23.206468 20.8068052,22.8638713 23.6282813,22.4483815 C26.4332121,22.0383588 31.6917274,21.0078349 34.6095561,20.0283361 C35.5575098,19.7076072 36.4422017,19.2966733 37.1010977,18.8183134 C36.8976867,18.6060127 35.0231909,17.7595435 34.9599291,17.8369922 M36.6563186,16.8629604 C37.2276213,17.1262861 37.7415017,17.3212747 38.2407833,17.6502041 C38.5999156,17.0087463 38.3799592,16.5914342 37.6286037,15.9991791 C37.3453855,16.3217304 37.0115579,16.6005458 36.6563186,16.8629604 M9.91312366,26.5695658 C9.40605602,26.3044178 9.05470973,26.1176296 8.62550276,25.8388142 C8.392894,26.3071513 8.82794051,26.8246911 9.29023827,27.0743494 C9.48586321,26.8912059 9.71360568,26.7408642 9.91312366,26.5695658 M34.3535891,11.7303866 C34.2543168,12.098496 33.8348424,12.5185415 33.5448114,12.8064686 C34.4119846,13.0178581 35.2791579,13.3148968 36.1151869,13.6128467 C36.0159145,12.8957624 35.1205168,12.2005461 34.3535891,11.7303866 M7.33204232,16.3107964 C13.3496991,12.6187693 20.0028937,10.4656942 31.2829588,12.2871064 C31.9058442,11.9499766 32.2464847,11.6328923 32.4051258,10.9385871 C29.5894892,9.99189014 26.538324,9.65658264 22.5878681,9.71580815 C19.0374214,9.81056897 12.6508996,11.0433707 9.23962883,12.9312977 L10.2790688,11.7176304 C12.6645252,10.4128468 18.8807268,8.66888338 23.5387416,8.58050069 C26.8273818,8.52309751 28.5325305,8.69712939 32.4362701,9.68118401 C32.0966029,9.05430477 31.2829588,8.74177631 30.1043429,8.24428203 C26.3222606,6.65612722 19.258351,6.50760786 13.4713564,8.89302915 C14.2051933,8.44655993 14.9224848,8.02560323 15.8587594,7.62378093 C17.7653726,6.8110247 20.8846658,6.01649172 24.7942449,6.08027303 C27.9125649,6.12674228 31.6128934,7.1463322 33.8844786,9.25111569 C34.2611296,9.66751658 34.4781662,10.1103412 34.5745188,10.4656942 C36.3731004,11.3139857 37.4115671,12.1103411 38.0003885,13.0561269 C38.2378635,13.5308421 38.3429754,14.0647829 38.232024,14.6533933 C38.9794864,15.07435 39.3337525,15.4196803 39.7026174,15.8889286 C39.97221,16.2697941 40.1668617,16.7062406 40.2155246,17.1062406 C40.2943586,17.6338032 40.3547006,18.224236 39.7658792,18.9185412 C40.3838983,19.1973566 40.8656612,19.9937119 40.9396289,20.3463315 C41.2218738,21.6146686 40.3547006,22.8502038 39.2033359,23.8078348 C37.8826242,24.8948506 34.9696617,26.1804998 32.5958844,26.7481535 C27.8804474,27.8588596 23.7187944,28.3308414 20.4029029,28.9012286 C21.879336,29.2301579 23.9046867,29.681183 27.2059793,29.681183 C34.2348516,29.681183 40.4559194,26.5668323 40.4559194,26.5668323 C40.4559194,26.5668323 40.3138237,26.9768551 40.1785408,27.3331193 C35.7142044,29.861593 28.5967656,30.9312968 25.5689586,30.8010007 C22.4827562,30.6670599 19.8929155,30.2388139 17.3556308,29.5089734 C16.5750776,29.7012285 15.8091232,29.929019 15.0723665,30.2388139 C18.9362025,31.8816384 21.8511115,32.2533924 25.1572703,32.4757159 C28.5218247,32.7089732 34.0956757,31.9490644 38.8062464,30.3545315 C38.5921296,30.5531647 38.4802049,30.8729825 38.2602484,31.0597706 C35.8533804,32.2406361 30.7544795,33.4333468 28.1967564,33.5326634 C25.6526589,33.6292466 22.5382319,33.5426862 19.8432793,33.0643263 C17.5094056,32.6406361 15.6173913,31.9490644 13.6338906,31.1381305 C13.2679454,31.3823218 13.0888659,31.7130735 13.0246308,32.0638708 C20.7717679,35.8543034 28.0351955,35.9372191 36.2884269,33.5390415 L35.5312318,34.2196793 C26.4419714,37.6647816 19.3332919,36.3281075 13.8353551,33.8451919 C13.6572488,33.7713878 13.4372924,33.6875609 13.277678,33.5909778 C13.7818259,34.4210461 17.9872755,37.2930277 22.6803276,37.6538477 C25.9193317,37.903506 29.8727074,37.3832327 32.2163136,36.5085175 L30.8479123,37.1782213 C29.7072534,37.6975835 26.7028047,38.8811825 22.4885957,38.6215014 C16.885547,38.2679707 13.7292699,35.9508865 12.3151254,34.7335745 C11.6601225,34.1659208 11.3486798,33.5062397 11.1520816,32.6998616 C9.8839259,32.0757159 9.085854,31.4351692 8.42890456,30.4693378 C8.03668142,29.9035064 8.11551535,29.2711602 8.21673423,28.7372195 C8.24495872,28.5695657 8.2945949,28.4128459 8.36174973,28.2615931 C7.7515167,27.8479257 7.13836389,27.4051011 6.87266435,26.9604542 C6.31985356,26.0256023 6.66244053,25.2219577 7.04395783,24.5987231 C6.70818367,24.248837 6.40355379,23.8898393 6.26437783,23.5326639 C6.11644255,23.0962175 6.09113783,22.6916617 6.13104143,22.2360809 C6.23518008,21.4488372 6.68482547,20.7290194 7.26196771,20.1057848 C8.48924658,18.7855116 10.4124052,17.7558989 13.7156443,16.7317531 C16.9400495,15.7331199 18.2422692,15.5846006 20.6763885,15.0543045 C23.5192764,14.4347145 26.9198413,14.2406371 29.769542,13.3085187 C21.8365126,12.0019128 13.593987,13.186423 6.87655738,17.5153522 L7.33204232,16.3107964" id="Fill-5" fill="#00447B"></path>
                                    <path d="M76.7255624,18.5078806 L77.6297195,24.3948962 L75.8204321,24.3948962 L76.7255624,18.5078806 Z M69.6129899,31.9721168 L74.4676029,31.9721168 L75.0564243,28.6399985 L78.3956739,28.6399985 L78.9815755,31.9721168 L83.8332687,31.9721168 L79.736824,12.6828239 L73.7143009,12.6828239 L69.6129899,31.9721168 Z" id="Fill-7" fill="#00447B"></path>
                                    <path d="M88.4044689,20.1585411 C89.1762628,20.1585411 90.6059794,19.6892928 90.6059794,18.2724364 C90.6059794,16.5913431 88.9611727,16.4774479 88.4998482,16.4774479 C87.9528769,16.4774479 86.9075974,16.5585413 85.8652376,17.0205003 L85.8292271,12.8482909 C87.4516489,12.4583137 88.6185857,12.3425962 90.0025592,12.3480631 C93.907272,12.3480631 95.6688697,14.9157168 95.6688697,17.4068328 C95.6688697,19.8460126 94.1535064,21.3321173 92.7121106,21.8997711 L92.7121106,22.0865592 C94.0951108,22.4947597 95.9822589,23.7576297 95.9822589,26.7134383 C95.9822589,30.3498845 93.2658947,32.3617295 89.7991482,32.3617295 C87.9314653,32.3553514 86.7246248,32.1056931 85.275443,31.3576294 L85.3552502,27.3503403 C86.7051597,27.8943038 87.614183,27.9362172 88.5261262,27.9362172 C90.0629012,27.9362172 90.6780005,26.8874701 90.6780005,26.0984041 C90.6780005,25.0141217 89.9441637,24.2897482 88.3149291,24.2897482 L86.3625727,24.2897482 L86.3625727,20.1585411 L88.4044689,20.1585411" id="Fill-9" fill="#00447B"></path>
                                    <polygon id="Fill-11" fill="#00447B" points="98.2193907 12.6825506 111.263 12.6825506 111.263 31.9709323 106.485275 31.9709323 106.485275 17.3294752 102.999063 17.3294752 102.999063 31.9773104 98.2193907 31.9709323"></polygon>
                                    <path d="M118.779378,16.9325732 L119.91517,16.9325732 C121.0023,16.9325732 121.680661,17.5375845 121.680661,19.1394068 C121.680661,21.2287005 120.533189,21.3708417 119.91517,21.3708417 L118.779378,21.3708417 L118.779378,16.9325732 Z M113.993866,31.9722079 L118.779378,31.978586 L118.779378,25.6141217 L120.383307,25.6141217 C125.122103,25.615944 126.576151,21.6332563 126.576151,19.1038714 C126.576151,16.6072884 124.907986,12.6820039 120.383307,12.6874709 L113.993866,12.6820039 L113.993866,31.9722079 L113.993866,31.9722079 Z" id="Fill-13" fill="#00447B"></path>
                                    <path d="M135.430467,27.5459667 C133.750623,27.5459667 132.875663,25.7063312 132.875663,22.3058758 C132.875663,18.9063316 133.750623,17.0685185 135.430467,17.0685185 C137.115177,17.0685185 137.98527,18.9063316 137.98527,22.3058758 C137.98527,25.7063312 137.115177,27.5459667 135.430467,27.5459667 M135.430467,32.2111145 C141.096777,32.2111145 143.010203,27.2562173 143.010203,22.3058758 C143.010203,17.3564456 141.096777,12.4070153 135.430467,12.4070153 C129.764156,12.4070153 127.852677,17.3564456 127.852677,22.3058758 C127.852677,27.2562173 129.764156,32.2111145 135.430467,32.2111145" id="Fill-15" fill="#00447B"></path>
                                    <path d="M168.517555,28.1144405 L168.517555,23.7262858 L169.213434,23.7262858 C169.772085,23.7262858 171.284528,23.7545318 171.284528,25.7353973 C171.284528,27.7754883 169.772085,28.1144405 169.213434,28.1144405 L168.517555,28.1144405 Z M163.832289,31.972299 L169.545315,31.972299 C170.782327,31.972299 175.949356,31.493028 175.962008,25.6561262 C175.967848,20.724008 171.95413,19.8675161 169.36137,19.8675161 L168.517555,19.8675161 L168.517555,17.3162633 L174.842761,17.3162633 L174.842761,12.682095 L163.832289,12.682095 L163.832289,31.972299 L163.832289,31.972299 Z" id="Fill-17" fill="#00447B"></path>
                                    <polygon id="Fill-19" fill="#00447B" points="193.170385 12.6825506 197.851758 12.6825506 197.851758 19.6301584 201.192954 19.6301584 201.192954 12.6825506 205.867514 12.6825506 205.867514 31.9709323 201.192954 31.9709323 201.192954 24.259771 197.851758 24.259771 197.851758 31.9709323 193.170385 31.9709323"></polygon>
                                    <polygon id="Fill-21" fill="#00447B" points="209.011626 12.6825506 213.692025 12.6825506 213.682293 19.627425 214.697401 19.627425 217.384568 12.6825506 222.46887 12.6825506 218.817204 21.8397255 222.98275 31.9709323 217.479947 31.9709323 214.792781 24.2196798 213.682293 24.2196798 213.692025 31.9709323 209.011626 31.9709323"></polygon>
                                    <polygon id="Fill-23" fill="#00447B" points="60.3617793 12.6878353 70.1634649 12.6823684 70.1693044 17.498769 65.2309912 17.498769 65.2309912 31.9807728 60.3617793 31.9753059"></polygon>
                                    <polygon id="Fill-25" fill="#00447B" points="145.305244 12.6878353 149.365678 12.6878353 152.949216 17.2317987 156.560004 12.6878353 160.610706 12.6878353 160.610706 31.9780393 155.834927 31.9780393 155.834927 20.2067416 152.949216 23.5853291 150.084916 20.2067416 150.084916 31.9807728 145.305244 31.9780393"></polygon>
                                    <path d="M184.008033,18.543507 L184.91219,24.4277892 L183.102903,24.4277892 L184.008033,18.543507 Z M176.899353,32.0077432 L181.75202,32.0077432 L182.337921,28.6747138 L185.676198,28.6747138 L186.266966,32.0077432 L191.116712,32.0077432 L187.018321,12.7175392 L180.993852,12.7175392 L176.899353,32.0077432 Z" id="Fill-27" fill="#00447B"></path>
                                </g>
                                <text id="«Газпромбанк»-(Акционерное-общество)" font-family="PTSans-Regular, PT Sans" font-size="8.12898961" font-weight="normal" letter-spacing="-0.04362368" fill="#00447B">
                                    <tspan x="59.5014189" y="41.8596165">«</tspan>
                                    <tspan x="63.3434522" y="41.8596165" letter-spacing="-0.8278024">Г</tspan>
                                    <tspan x="65.2144744" y="41.8596165" letter-spacing="0.023">аз</tspan>
                                    <tspan x="72.8773376" y="41.8596165" letter-spacing="-0.00040832">п</tspan>
                                    <tspan x="77.2259387" y="41.8596165" letter-spacing="0.06441472">р</tspan>
                                    <tspan x="81.6881368" y="41.8596165" letter-spacing="0.023">о</tspan>
                                    <tspan x="86.0682753" y="41.8596165" letter-spacing="0.0635144">м</tspan>
                                    <tspan x="91.374988" y="41.8596165" letter-spacing="0.07881984">б</tspan>
                                    <tspan x="95.8109462" y="41.8596165" letter-spacing="0.00229264">а</tspan>
                                    <tspan x="99.8452177" y="41.8596165" letter-spacing="0.00139232">н</tspan>
                                    <tspan x="104.236264" y="41.8596165" letter-spacing="0.05721216">к</tspan>
                                    <tspan x="108.179134" y="41.8596165" letter-spacing="-0.18317328">»</tspan>
                                    <tspan x="111.881617" y="41.8596165" letter-spacing="-0.18497392"> </tspan>
                                    <tspan x="113.867084" y="41.8596165" letter-spacing="0.05181024">(</tspan>
                                    <tspan x="116.195011" y="41.8596165" letter-spacing="0.12023456">А</tspan>
                                    <tspan x="121.070705" y="41.8596165" letter-spacing="0.11843392">к</tspan>
                                    <tspan x="125.074795" y="41.8596165" letter-spacing="0.06171376">ц</tspan>
                                    <tspan x="129.591196" y="41.8596165" letter-spacing="0.03380384">и</tspan>
                                    <tspan x="134.063428" y="41.8596165" letter-spacing="0.023">о</tspan>
                                    <tspan x="138.443566" y="41.8596165" letter-spacing="0.03830544">н</tspan>
                                    <tspan x="142.871526" y="41.8596165" letter-spacing="0.01309648">е</tspan>
                                    <tspan x="147.014149" y="41.8596165" letter-spacing="0.03380384">рн</tspan>
                                    <tspan x="155.869195" y="41.8596165" letter-spacing="0.06891632">о</tspan>
                                    <tspan x="160.295249" y="41.8596165" letter-spacing="-0.1840736">е</tspan>
                                    <tspan x="164.240702" y="41.8596165" letter-spacing="-0.18317328"> </tspan>
                                    <tspan x="166.227969" y="41.8596165" letter-spacing="0.068016">о</tspan>
                                    <tspan x="170.653124" y="41.8596165" letter-spacing="0.023">б</tspan>
                                    <tspan x="175.033262" y="41.8596165" letter-spacing="0.0184984">щ</tspan>
                                    <tspan x="181.17289" y="41.8596165" letter-spacing="0.06441472">е</tspan>
                                    <tspan x="185.277412" y="41.8596165" letter-spacing="0.29039504">с</tspan>
                                    <tspan x="189.103918" y="41.8596165" letter-spacing="0.1490448">т</tspan>
                                    <tspan x="192.480172" y="41.8596165" letter-spacing="0.04370736">в</tspan>
                                    <tspan x="196.580245" y="41.8596165" letter-spacing="-0.20388064">о</tspan>
                                    <tspan x="200.733503" y="41.8596165" letter-spacing="0.023">)</tspan>
                                </text>
                            </g>
                        </g>
                    </g>
                </g>
            </g>
        </g>
    </g>
</svg>