<?xml version="1.0" encoding="UTF-8" standalone="no"?>
<svg width="54px" height="51px" viewBox="0 0 54 51" version="1.1" xmlns="http://www.w3.org/2000/svg" xmlns:xlink="http://www.w3.org/1999/xlink">
    <!-- Generator: Sketch 3.8.3 (29802) - http://www.bohemiancoding.com/sketch -->
    <title>Group 20</title>
    <desc>Created with Sketch.</desc>
    <defs>
        <polygon id="path-1" points="0.102589821 26.9534873 0.102589821 53.659965 57.684333 53.659965 57.684333 0.24717 0.102589821 0.24717 0.102589821 26.9534873 0.102589821 53.6598045 55.4577566 53.6598045 55.4577566 0.2470095 0.102589821 0.2470095 0.102589821 26.9534873"></polygon>
    </defs>
    <g id="V2" stroke="none" stroke-width="1" fill="none" fill-rule="evenodd">
        <g id="Desktop-1240-Copy-3" transform="translate(-1110.000000, -2095.000000)">
            <g id="Group-11" transform="translate(-7.000000, 1523.000000)">
                <g id="partners">
                    <g id="Group-14" transform="translate(0.000000, 59.000000)">
                        <g id="Group-62" transform="translate(1073.782609, 475.702479)">
                            <g id="Group-20" transform="translate(41.000000, 36.000000)">
                                <g id="Group-9">
                                    <mask id="mask-2" fill="white">
                                        <use xlink:href="#path-1"></use>
                                    </mask>
                                    <g id="Clip-8"></g>
                                    <path d="M38.8623067,0.2470095 C51.2275861,0.2470095 57.684333,9.5046495 54.7605231,22.9754145 C51.5529882,37.7061045 40.9301328,48.1594695 27.8595484,53.6598045 C11.350602,46.8000345 1.84501382,33.1719795 0.102589821,14.7610245 C7.39127604,13.5460395 13.1250853,8.4260895 12.7211378,0.2470095 L38.8623067,0.2470095" id="Fill-7" fill="#221F20" mask="url(#mask-2)"></path>
                                </g>
                                <path d="M52.8087517,22.5423855 C50.0372236,35.5621455 40.6358282,45.9593355 27.8682044,51.4821405 C12.8452074,45.0252255 4.1956031,32.2670805 2.30570624,16.2925155 C9.01251581,14.5815855 14.2189492,9.5242305 14.6854123,2.2118505 L38.952714,2.2118505 C50.8387066,2.1604905 55.2677015,11.5224555 52.8087517,22.5423855" id="Fill-10" fill="#FEFEFE"></path>
                                <path d="M51.07835,22.1600745 C48.3340723,34.8138945 39.5017298,44.2528995 27.8722118,49.5445845 C14.6637723,43.6574445 6.40208574,32.2474995 4.25250839,17.5697745 C10.4672074,15.4431495 15.2071778,10.6458045 16.2699442,4.0075245 L38.9567214,4.0075245 C49.7046082,3.9561645 53.2279273,12.3053745 51.07835,22.1600745" id="Fill-12" fill="#221F20"></path>
                                <path d="M42.7498198,19.050708 L25.4201548,19.050708 L30.3717166,11.701413 L33.5279566,10.613223 C33.9254921,10.475193 33.8116816,10.189503 33.6065019,10.189503 L30.6458238,10.189503 L30.3252306,6.973083 C30.3140098,6.801348 30.0399027,6.732333 29.9709751,6.961848 L28.9995778,10.189503 L25.9122653,10.189503 C25.6477759,10.189503 25.6141137,10.499268 25.9122653,10.613223 L28.7238676,11.630793 L22.1052212,19.050708 L8.10491648,19.050708 C7.55509916,19.050708 7.47655383,19.976793 8.10491648,20.023338 L20.2650162,21.557718 C19.853054,22.302438 19.1669846,23.023083 18.9249367,23.857683 C18.673271,24.729198 19.3481197,25.392063 20.0229684,25.242798 C21.1097793,25.003653 22.9051012,22.747023 23.6360537,21.843408 L23.9213816,21.398823 L42.7498198,19.988028 C43.4134477,19.954323 43.4006239,19.050708 42.7498198,19.050708" id="Fill-14" fill="#FEFEFE"></path>
                                <path d="M23.390319,33.497634 C23.2668906,33.961479 23.1610948,34.292109 23.0697258,34.545699 L23.0697258,30.751479 C23.4432169,30.733824 23.9625778,30.708144 23.9625778,30.708144 L24.0282994,29.430564 L24.0282994,27.209244 L18.7866007,27.209244 C18.7866007,27.209244 18.1919004,28.783749 18.0283978,29.220309 C17.8632923,28.783749 17.2701949,27.209244 17.2701949,27.209244 L11.9243035,27.209244 L11.9243035,30.704934 C11.9243035,30.704934 12.4917534,30.733824 12.8828771,30.751479 C12.8828771,30.801234 12.8812741,34.993494 12.8812741,35.030409 C12.5286216,35.049669 43.8938566,35.051274 43.5043358,35.032014 L43.5043358,30.751479 C43.8778269,30.733824 44.3971879,30.708144 44.3971879,30.708144 L44.4629095,29.430564 L44.4629095,27.209244 L33.1091016,27.209244 L33.1091016,30.706539 C33.1091016,30.706539 33.7102138,30.735429 34.0933227,30.753084 L34.0933227,34.831389 C33.9891299,34.616319 33.844863,34.189389 33.6284626,33.252069 L30.0009506,17.741349 L27.4009398,17.715669 C27.4009398,17.715669 23.3951279,33.475164 23.390319,33.497634 M28.4316469,34.375569 C28.4845448,34.629159 28.5246189,34.844229 28.5534723,35.027199 C28.3611164,35.033619 28.2601296,35.036829 28.0164787,35.046459 L28.0164787,35.014359 L26.9873746,35.014359 C27.0066102,34.938924 27.0707288,34.688544 27.1492741,34.375569 L28.4316469,34.375569" id="Fill-16" fill="#221F20"></path>
                                <path d="M29.2685554,32.0494425 L27.9477115,25.5411675 L26.3928345,32.0494425 L29.2685554,32.0494425 Z M37.2705615,34.0990275 L40.3274176,30.3641925 L40.3274176,30.2341875 C40.3274176,29.8184925 40.0933846,29.4300825 39.3431965,29.4300825 L39.3431965,28.5505425 L43.1245932,28.5505425 L43.1245932,29.4300825 C42.191667,29.4300825 42.1660195,29.7928125 42.1660195,30.7285275 L42.1660195,35.0588175 C42.1660195,36.0170025 42.2429619,36.3540525 43.1245932,36.3540525 L43.1245932,37.2095175 L39.3431965,37.2095175 L39.3431965,36.3540525 C40.1975774,36.3540525 40.3274176,36.0426825 40.3274176,35.0588175 L40.3274176,31.6867125 L37.2705615,35.4472275 L37.2705615,35.6029125 C37.2705615,36.1213275 37.5558895,36.3540525 38.2547826,36.3540525 L38.2547826,37.2095175 L28.8549902,37.2095175 L28.8549902,36.3540525 C29.526633,36.3540525 29.9674486,36.3026925 29.9674486,35.6269875 C29.9674486,35.2128975 29.7863134,34.1760675 29.5009855,33.0349125 L26.1091095,33.0349125 L25.6682939,34.7731275 C25.3573185,35.9142825 25.4615113,36.3540525 26.6781625,36.3540525 L26.6781625,37.2095175 L18.8316441,37.2095175 L18.8316441,36.3540525 C19.7629673,36.3540525 19.8671601,36.0426825 19.8671601,35.0588175 L19.8671601,31.0142175 L17.4851527,36.9254325 L15.0758948,30.8312475 L15.0758948,35.1358575 C15.0758948,35.9656425 15.1800876,36.3540525 16.0857634,36.3540525 L16.0857634,37.2095175 L13.184395,37.2095175 L13.184395,36.3540525 C14.1686161,36.3540525 14.219911,35.7585975 14.219911,34.9288125 L14.219911,30.7285275 C14.219911,29.9757825 14.219911,29.4300825 13.2629403,29.4300825 L13.2629403,28.5505425 L16.3438409,28.5505425 L18.0285581,33.0092325 L19.7116724,28.5505425 L22.6899831,28.5505425 L22.6899831,29.4300825 C21.757057,29.4300825 21.7314095,29.7928125 21.7314095,30.7285275 L21.7314095,35.0588175 C21.7314095,35.8869975 21.8099548,36.1470075 22.0680324,36.2256525 C22.6386882,36.4310925 23.6998517,36.3813375 24.0108271,35.7585975 C24.2176097,35.3701875 24.4500398,34.7217675 24.6840728,33.8406225 L28.6978996,18.0474225 L32.3238086,33.5549325 C32.7133293,35.2401825 32.9457594,35.6526675 33.3096326,36.0170025 C33.6719029,36.3283725 34.8613037,36.5627025 35.2764719,36.0956475 C35.3806646,35.9913225 35.4319596,35.8083525 35.4319596,35.0588175 L35.4319596,30.7285275 C35.4319596,29.7430575 35.3550172,29.4300825 34.4477385,29.4300825 L34.4477385,28.5505425 L38.2547826,28.5505425 L38.2547826,29.4300825 C37.3218564,29.4300825 37.2705615,29.8184925 37.2705615,30.7285275 L37.2705615,34.0990275 L37.2705615,34.0990275 Z" id="Fill-18" fill="#FEFEFE"></path>
                            </g>
                        </g>
                    </g>
                </g>
            </g>
        </g>
    </g>
</svg>