<?xml version="1.0" encoding="UTF-8" standalone="no"?>
<svg width="139px" height="43px" viewBox="0 0 139 43" version="1.1" xmlns="http://www.w3.org/2000/svg" xmlns:xlink="http://www.w3.org/1999/xlink">
    <!-- Generator: Sketch 3.8.3 (29802) - http://www.bohemiancoding.com/sketch -->
    <title>Group 30</title>
    <desc>Created with Sketch.</desc>
    <defs></defs>
    <g id="V2" stroke="none" stroke-width="1" fill="none" fill-rule="evenodd">
        <g id="Desktop-1240-Copy-3" transform="translate(-566.000000, -1856.000000)">
            <g id="Group-11" transform="translate(-7.000000, 1523.000000)">
                <g id="partners">
                    <g id="Group-14" transform="translate(0.000000, 59.000000)">
                        <g id="Group-72" transform="translate(571.000000, 214.819058)">
                            <g id="Group-33" transform="translate(2.000000, 0.000000)">
                                <g id="Group-30" transform="translate(0.000000, 58.950749)">
                                    <g id="Group-174" transform="translate(0.000000, 3.992246)">
                                        <path d="M59.8925,36.5856167 L59.9385,36.5014946 L60.0395,36.5454251 C60.1245,36.5828126 60.1775,36.5790739 60.2395,36.4641071 L60.7295,35.5649358 L59.5415,36.0892966 L59.5105,36.1453779 C59.4485,36.2603448 59.4775,36.2996017 59.5615,36.3369893 L59.6605,36.379985 L59.6155,36.4641071 L58.7635,36.0921006 L58.8095,36.0079786 L58.9085,36.0509743 C58.9925,36.0874272 59.0455,36.0836884 59.1075,35.9696563 L59.7175,34.8498983 C59.7805,34.7358662 59.7505,34.6956745 59.6665,34.6592216 L59.5675,34.6162259 L59.6135,34.5321039 L60.4655,34.9041103 L60.4195,34.9882323 L60.3205,34.9443019 C60.2365,34.907849 60.1835,34.9115878 60.1205,35.0265546 L59.6365,35.9145096 L60.8245,35.3901488 L60.8495,35.344349 C60.9115,35.2303169 60.8825,35.1901253 60.7985,35.1536724 L60.6965,35.109742 L60.7425,35.0256199 L61.5945,35.3976263 L61.5485,35.4817484 L61.4495,35.4387527 C61.3655,35.4013651 61.3125,35.4051039 61.2505,35.5200707 L60.6405,36.638894 C60.5775,36.7538608 60.6065,36.7931178 60.6915,36.8305054 L60.7905,36.8735011 L60.7445,36.9576231 L59.8925,36.5856167 Z" id="Fill-140" fill="#221F20"></path>
                                        <path d="M62.0981,37.4477743 C61.8291,37.3627176 61.4461,37.1496084 61.6001,36.7598428 C61.6341,36.6738514 61.7401,36.6280516 61.8371,36.6579617 C61.9331,36.6888064 61.9841,36.7841448 61.9501,36.8701362 C61.9201,36.9449113 61.8161,36.9991233 61.7221,36.9692133 C61.7151,36.9673439 61.7051,36.9636051 61.6981,36.9589317 C61.7181,37.1468043 61.8841,37.2683139 62.0791,37.3290687 C62.2941,37.3973011 62.5271,37.2851383 62.6161,37.0580088 C62.7091,36.822467 62.6131,36.6691779 62.4301,36.6112272 C62.3971,36.6009456 62.3031,36.5738396 62.1941,36.5551458 L62.2431,36.4298974 C62.3411,36.4766319 62.4341,36.5074767 62.4651,36.5177582 C62.6241,36.5682315 62.7801,36.4766319 62.8711,36.2448289 C62.9571,36.0279809 62.8681,35.8774959 62.7011,35.8242186 C62.5091,35.7634638 62.2821,35.8017861 62.0311,36.1943557 L61.9321,36.1625762 L62.2041,35.5681137 L62.2931,35.5961544 L62.2861,35.7643985 C62.4341,35.6989702 62.6231,35.6980355 62.8251,35.7615944 C63.2331,35.8905816 63.3921,36.1092989 63.2851,36.3784895 C63.2121,36.5654274 62.9931,36.6747861 62.6831,36.6271169 C63.0081,36.7738632 63.1241,36.9841683 63.0371,37.2038203 C62.9171,37.5075944 62.4751,37.5674146 62.0981,37.4477743" id="Fill-142" fill="#221F20"></path>
                                        <path d="M65.1198,36.5950571 C65.1408,36.5128044 65.1238,36.4847637 65.0528,36.4698087 L64.7048,36.3969029 C64.6108,36.3772744 64.5668,36.429617 64.5438,36.5184125 C64.4258,36.9679982 64.2748,37.3241149 64.1158,37.5802198 C64.0438,37.6979907 63.9668,37.7737005 63.8858,37.8157616 L64.6578,37.9783975 C64.7278,37.9933526 64.7568,37.9774628 64.7788,37.8952102 L65.1198,36.5950571 Z M65.2388,38.6644596 C65.2658,38.2672166 65.1588,38.1802905 64.9968,38.145707 L63.9348,37.9223162 C63.7658,37.886798 63.6248,37.9064264 63.4458,38.2868451 L63.3438,38.2653472 L63.5148,37.7372476 L63.7108,37.778374 C63.9148,37.7503333 64.1858,37.3549596 64.4128,36.4913065 C64.4458,36.3669928 64.3888,36.3305399 64.2978,36.3109115 L64.1878,36.2875442 L64.2118,36.1968793 L65.8508,36.5417798 L65.8268,36.6324446 L65.7178,36.6100121 C65.6258,36.5903836 65.5778,36.6053387 65.5448,36.7287177 L65.2228,37.9587691 C65.1938,38.0690624 65.2358,38.0999072 65.3218,38.1176663 L65.4498,38.1447723 L65.3408,38.6850228 L65.2388,38.6644596 Z" id="Fill-144" fill="#221F20"></path>
                                        <path d="M66.7574,37.7628581 L67.3574,37.8226783 L67.1424,37.1029673 L66.7574,37.7628581 Z M67.2344,38.4592018 L67.2454,38.3657329 L67.3844,38.3797532 C67.4514,38.386296 67.4904,38.3778838 67.4954,38.3302147 C67.4984,38.3087168 67.4914,38.2788067 67.4774,38.2367457 L67.3914,37.9376451 L66.6924,37.8675434 L66.5674,38.0890648 C66.5444,38.1255177 66.5284,38.1657093 66.5244,38.2012275 C66.5174,38.2554395 66.5504,38.2956312 66.6404,38.3040434 L66.7414,38.3152596 L66.7304,38.4077939 L66.1064,38.3451697 L66.1184,38.2517007 L66.1524,38.2554395 C66.2754,38.2675905 66.3594,38.2030969 66.4344,38.0759791 L67.2554,36.6814224 L67.4524,36.7010509 L67.9234,38.2816108 C67.9614,38.4087286 68.0184,38.4433121 68.1014,38.4517243 L68.1384,38.4554631 L68.1274,38.548932 L67.2344,38.4592018 Z" id="Fill-146" fill="#221F20"></path>
                                        <path d="M69.623,36.9353775 C69.537,36.9344428 69.504,36.9503325 69.502,37.0849278 L69.492,37.6279824 L69.69,37.6307865 C69.838,37.6335906 69.938,37.5868561 69.949,37.2933636 L70.049,37.295233 L70.034,38.0766334 L69.935,38.074764 C69.935,37.7784675 69.836,37.7298636 69.689,37.7270595 L69.49,37.7242555 L69.479,38.3299343 C69.477,38.457052 69.522,38.4822887 69.616,38.4832233 L69.908,38.4878968 C70.131,38.4907009 70.255,38.4907009 70.37,37.9317565 L70.474,37.9336259 L70.414,38.5888433 L68.777,38.5645413 L68.779,38.4710724 L68.889,38.4720071 C68.983,38.4738764 69.029,38.4505092 69.031,38.3233914 L69.054,37.078385 C69.056,36.9512672 69.011,36.9260306 68.917,36.9250959 L68.807,36.9232266 L68.809,36.8297576 L70.386,36.8531248 L70.419,37.4326323 L70.314,37.4316976 C70.229,36.9512672 70.095,36.942855 69.918,36.940051 L69.623,36.9353775 Z" id="Fill-148" fill="#221F20"></path>
                                        <path d="M72.7915,37.2957003 C72.6475,36.8358331 72.5505,36.7694701 72.3835,36.7853599 L72.2605,36.7975108 C72.1715,36.805923 72.1475,36.8255515 72.1635,36.9592121 L72.3105,38.1976757 C72.3245,38.3238588 72.3735,38.3434873 72.4665,38.3350751 L72.5765,38.3247935 L72.5865,38.4182624 L71.6445,38.5070579 L71.6335,38.413589 L71.7435,38.4042421 C71.8365,38.3948952 71.8795,38.3668545 71.8635,38.2397367 L71.7175,37.0012731 C71.7015,36.8676125 71.6755,36.8535922 71.5875,36.8620044 L71.4625,36.8732207 C71.2965,36.8891104 71.2145,36.9722978 71.1815,37.4489894 L71.0775,37.459271 L71.0535,36.818074 L72.7725,36.6545033 L72.8955,37.2863534 L72.7915,37.2957003 Z" id="Fill-150" fill="#221F20"></path>
                                        <path d="M74.6159,38.1338364 C74.1439,38.2263707 73.6679,38.0160655 73.5309,37.4524478 C73.3989,36.9075238 73.6579,36.4738278 74.1959,36.3691426 C74.3689,36.3354938 74.5669,36.371012 74.7199,36.4710238 L74.7469,36.2644574 L74.8409,36.2457636 L75.0419,36.9047197 L74.9379,36.9252829 C74.7089,36.4682197 74.4309,36.4214852 74.2579,36.455134 C73.9819,36.509346 73.8189,36.6953493 73.9769,37.3458931 C74.1099,37.8954906 74.3769,38.0525184 74.6569,37.9983064 C74.9399,37.9431597 75.1119,37.7244424 75.1079,37.3870195 L75.2089,37.367391 C75.2549,37.8814702 74.8969,38.0796244 74.6159,38.1338364" id="Fill-152" fill="#221F20"></path>
                                        <path d="M76.6861,36.0189145 C76.6411,35.9002089 76.5791,35.8917967 76.4991,35.9151639 L76.3651,35.9572249 C76.1741,36.014241 76.1301,36.1899626 76.2061,36.3909209 C76.2871,36.6049648 76.4441,36.7124541 76.6631,36.6460911 L76.8971,36.57412 L76.6861,36.0189145 Z M76.9851,37.5032014 L76.9521,37.4144059 L77.0561,37.3826264 C77.1471,37.3545858 77.1791,37.3190676 77.1341,37.1984926 L76.9301,36.6638502 L76.7531,36.7180622 C76.3531,36.8395718 76.8831,37.5396543 76.2571,37.7293963 C76.1041,37.7761307 75.9781,37.7125718 75.8691,37.4611404 L75.9681,37.4312303 C76.0381,37.5929316 76.0851,37.6265804 76.1461,37.6078866 C76.2881,37.5648909 75.9901,37.0405301 76.4831,36.7694701 C76.1211,36.8461147 75.8651,36.7386254 75.7811,36.519908 C75.6541,36.1834198 75.9341,35.9880697 76.3821,35.8525397 L77.2591,35.5852185 L77.2931,35.6749487 L77.1891,35.7057935 C77.0991,35.7328995 77.0641,35.7665483 77.1111,35.8899273 L77.5581,37.0695055 C77.6041,37.1900804 77.6561,37.1994273 77.7441,37.1723213 L77.8491,37.1414766 L77.8831,37.2302721 L76.9851,37.5032014 Z" id="Fill-154" fill="#221F20"></path>
                                        <path d="M80.5779,36.1278993 C80.1529,36.3344656 79.6299,36.252213 79.3229,35.7446766 C79.0259,35.2548993 79.1399,34.7725995 79.6239,34.5379924 C79.7789,34.4622825 79.9809,34.4463928 80.1589,34.5043436 L80.1209,34.2987119 L80.2049,34.2575855 L80.6039,34.8408318 L80.5099,34.8866316 C80.1469,34.5052783 79.8659,34.5295802 79.7099,34.60529 C79.4629,34.7249303 79.3639,34.945517 79.7189,35.5306327 C80.0179,36.0250834 80.3219,36.1092055 80.5749,35.9867611 C80.8299,35.8633821 80.9269,35.611016 80.8159,35.2866787 L80.9079,35.2427483 C81.1129,35.7250481 80.8299,36.0045202 80.5779,36.1278993" id="Fill-156" fill="#221F20"></path>
                                        <path d="M83.5499,34.0301756 C83.6369,34.1311221 83.6899,34.1245792 83.7639,34.0731713 L83.9739,33.9273597 L84.0389,34.0012002 L83.0739,34.6704379 L83.0109,34.5965974 L83.2209,34.4498512 C83.2949,34.3984433 83.3139,34.3545128 83.2279,34.2535664 L82.5139,33.4282355 C82.4409,33.3450482 82.4029,33.3282238 82.3579,33.3600032 C82.3479,33.366546 82.3409,33.3749582 82.3189,33.3927173 L82.1469,33.5675043 L82.0829,33.4927291 C82.4479,33.1057677 82.4559,32.9936049 82.4369,32.87303 L82.5069,32.8244261 L83.5499,34.0301756 Z" id="Fill-158" fill="#221F20"></path>
                                        <path d="M84.5254,32.5829024 C84.4864,32.7455383 84.4874,32.8866764 84.6064,32.9979045 C84.7844,33.168018 85.0214,33.1493242 85.2004,32.9969698 C85.3714,32.8520929 85.4034,32.7025426 85.2494,32.5576657 C85.0784,32.3959645 84.8104,32.5099966 84.5254,32.5829024 M84.5944,32.1725737 C84.6334,32.0033949 84.6174,31.858518 84.5244,31.7715919 C84.3604,31.6164334 84.1834,31.6341925 84.0334,31.7613103 C83.9124,31.8641261 83.8564,32.0445212 84.0034,32.1837899 C84.1494,32.322124 84.3604,32.2520223 84.5944,32.1725737 M84.7084,32.1361208 C84.9514,32.0585415 85.2034,32.0043296 85.4064,32.1959409 C85.6804,32.4539152 85.5544,32.8287257 85.2724,33.0689409 C84.9684,33.3269152 84.6484,33.3428049 84.4564,33.1614752 C84.3394,33.0511818 84.2694,32.8791989 84.4044,32.6090737 C84.2024,32.6483306 84.0014,32.6464612 83.8274,32.4828906 C83.5654,32.2351979 83.6764,31.9342278 83.9674,31.6884045 C84.2244,31.4696872 84.5064,31.4500587 84.6834,31.6173681 C84.8014,31.7285961 84.8384,31.9033831 84.7084,32.1361208" id="Fill-160" fill="#221F20"></path>
                                        <path d="M86.6005,30.9670111 C86.3935,30.8071792 86.1825,30.7679223 86.0525,30.9025176 C85.9155,31.0445904 86.0185,31.2576996 86.2135,31.4081846 C86.4695,31.6063388 86.6665,31.6371835 86.8025,31.4960454 C86.9135,31.3810786 86.9315,31.2231161 86.6005,30.9670111 M86.8845,31.5586696 C86.5315,31.9241332 86.0905,31.8147745 85.6705,31.4895026 C85.2355,31.1530143 85.0855,30.6623024 85.4485,30.2856225 C85.5815,30.1472884 85.8495,30.0173666 86.0375,30.1631782 C86.1275,30.2332799 86.1345,30.3463773 86.0605,30.4230218 C85.9905,30.4959276 85.8625,30.5071439 85.7775,30.4417156 C85.7145,30.3931118 85.6975,30.3099244 85.7385,30.2304758 C85.6395,30.2304758 85.5655,30.2931 85.5195,30.3407692 C85.3175,30.5501396 85.4795,30.8557831 85.9265,31.2016182 C85.8755,31.0642188 85.8845,30.8959747 86.0175,30.7585754 C86.3075,30.4576054 86.6385,30.5108827 86.8485,30.6725839 C87.1535,30.9090604 87.1425,31.2913484 86.8845,31.5586696" id="Fill-162" fill="#221F20"></path>
                                        <path d="M88.1557,29.6236754 C88.2717,29.6965812 88.3197,29.6769527 88.3747,29.6087203 L88.5267,29.4133702 L88.6117,29.4666475 L87.9137,30.3611454 L87.8277,30.3069334 L87.9797,30.112518 C88.0337,30.043351 88.0387,29.9956818 87.9217,29.922776 L86.9677,29.3245747 C86.8707,29.2638199 86.8287,29.2582118 86.7967,29.3002728 C86.7887,29.3096197 86.7857,29.3189666 86.7707,29.3413991 L86.6637,29.5535737 L86.5777,29.5002964 C86.7987,29.0338863 86.7687,28.9245276 86.7107,28.8142343 L86.7617,28.7497407 L88.1557,29.6236754 Z" id="Fill-164" fill="#221F20"></path>
                                        <path d="M50.5992,14.8857716 L50.7902,14.8222127 L50.8262,14.643687 C52.4732,6.65956927 60.3842,0.863559636 69.6392,0.861690257 C74.0162,0.861690257 78.1342,2.13006392 81.5492,4.53128126 L81.6962,4.63409711 L81.8752,4.58549325 C87.7702,2.97221916 95.9902,2.15343116 106.3062,2.15343116 C115.0952,2.15343116 125.0552,2.79743223 132.9512,3.87419454 C132.9512,3.87419454 133.1882,3.90690867 133.3842,3.93401467 C133.4732,4.36210246 137.2552,22.6885596 137.4392,23.5811881 C137.0172,23.4998701 136.5292,23.4054665 136.5292,23.4054665 C128.7852,21.9165061 117.0462,20.9920982 105.8942,20.9920982 C99.1142,20.9920982 93.0492,21.3313905 88.3552,21.9725875 L88.1272,22.0034322 L88.0642,22.2025211 C85.7832,29.4603851 78.2062,34.5292063 69.6392,34.5292063 C65.3832,34.5292063 61.3362,33.3066324 57.9352,30.9932759 L57.7652,30.8764397 L57.5702,30.956823 C47.3732,35.1404933 35.9512,37.2613037 23.6232,37.2613037 C16.7892,37.2613037 9.2542,36.547201 2.1822,35.2573294 C2.1822,35.2573294 1.9122,35.2077909 1.6882,35.1657299 L1.6882,16.8869419 C2.0162,16.9308723 2.3942,16.9794761 2.3942,16.9794761 C11.1642,18.1291442 18.6762,18.7226721 24.9932,18.7208027 C34.4432,18.7208027 42.8192,17.4664494 50.5992,14.8857716" id="Fill-166" fill="#FEFEFE"></path>
                                        <path d="M50.599,14.8857716 L50.79,14.8222127 L50.826,14.643687 C52.473,6.65956927 60.385,0.863559636 69.639,0.861690257 C74.016,0.861690257 78.135,2.13006392 81.549,4.53128126 L81.696,4.63409711 L81.875,4.58549325 C87.771,2.97221916 95.99,2.15343116 106.305,2.15343116 C115.094,2.15343116 125.055,2.79743223 132.952,3.87512923 C132.952,3.87512923 133.188,3.90690867 133.384,3.93401467 C133.473,4.36210246 137.254,22.6885596 137.439,23.5811881 C137.017,23.4998701 136.529,23.4054665 136.529,23.4054665 C128.785,21.9165061 117.046,20.9920982 105.894,20.9920982 C99.114,20.9920982 93.049,21.3313905 88.355,21.9725875 L88.128,22.0034322 L88.065,22.2025211 C85.784,29.4603851 78.206,34.5292063 69.639,34.5292063 C65.383,34.5292063 61.336,33.3066324 57.935,30.9932759 L57.765,30.8764397 L57.57,30.9577577 C47.373,35.1404933 35.951,37.2613037 23.623,37.2613037 C16.79,37.2613037 9.255,36.547201 2.182,35.2573294 C2.182,35.2573294 1.913,35.2077909 1.689,35.1657299 L1.689,16.8869419 C2.017,16.9308723 2.395,16.9794761 2.395,16.9794761 C11.164,18.1291442 18.676,18.7226721 24.993,18.7208027 C34.443,18.7208027 42.819,17.4664494 50.599,14.8857716 M50.171,14.339913 C42.522,16.8542277 34.286,18.0805404 24.993,18.0805404 L24.993,18.4114204 L24.993,18.0805404 C18.711,18.0824097 11.233,17.4898166 2.498,16.3457566 L0.972,16.1457331 L0.972,35.6882213 L2.038,35.8854408 C9.159,37.1846592 16.742,37.9025007 23.623,37.9025007 C35.983,37.9025007 47.441,35.7826249 57.686,31.6092363 C61.176,33.931005 65.299,35.1704033 69.639,35.1704033 C78.443,35.1704033 86.232,30.0034397 88.679,22.582005 C93.309,21.9632406 99.246,21.6332952 105.894,21.6332952 C116.999,21.6332952 128.68,22.552095 136.378,24.0317085 L138.339,24.4111924 L133.995,3.36852752 L133.059,3.24047505 C125.13,2.1581046 115.129,1.51223415 106.305,1.51223415 C96.016,1.51223415 87.791,2.3272834 81.84,3.92934122 C78.327,1.50569133 74.115,0.219558565 69.639,0.219558565 C60.113,0.222362634 51.966,6.15016349 50.171,14.339913" id="Fill-168" fill="#221F20"></path>
                                        <path d="M112.6244,9.4064348 C112.3154,9.37652473 112.1444,9.37652473 111.8024,9.37652473 L111.8024,10.971105 C111.1864,10.971105 110.8784,10.941195 110.2604,10.941195 L110.2604,4.86477848 C110.7744,4.86477848 111.1864,4.86477848 111.7344,4.89562323 L113.8924,8.36332131 L114.4424,8.39416606 L113.8924,4.18993266 C112.0074,4.06655364 110.0884,4.06655364 108.1704,4.06655364 C107.5194,4.06655364 106.8334,4.06655364 106.1834,4.09739839 L106.1834,4.83486842 L107.3134,4.83486842 L107.3134,18.8290397 L106.1834,18.8290397 L106.1834,19.5655751 C108.8214,19.5655751 111.4254,19.5954851 114.0294,19.7188641 L114.6454,14.6855611 C114.4424,14.6855611 114.3384,14.6855611 114.1324,14.6547164 L111.6994,18.8907292 L110.2604,18.8290397 L110.2604,12.2301318 C110.8784,12.2600419 111.1864,12.2600419 111.8024,12.2600419 L111.8024,13.8873363 C112.1444,13.8873363 112.3154,13.8873363 112.6594,13.918181 L112.6244,9.4064348 Z M49.9894,17.3550344 L50.9824,17.0176115 L50.9824,30.7668941 L49.8854,31.1033823 L49.8854,31.8408524 C52.0104,31.1959166 53.0734,30.8594284 55.2314,30.0612035 L55.2314,29.3246682 L53.9294,29.7845354 L53.9294,15.9436532 C54.3404,15.7903641 54.6154,15.6978299 55.0264,15.5146307 L57.3904,18.8589498 L57.8714,18.6439712 L57.2874,13.8256468 C54.3744,15.1145836 52.9004,15.6679198 49.9894,16.6203684 L49.9894,17.3550344 Z M127.7344,7.62678597 L129.5204,16.0053427 L125.9544,15.6978299 L127.7344,7.62678597 Z M117.1134,19.7188641 C119.2034,19.8104637 120.2654,19.9020633 122.3564,20.056287 L122.3564,19.2879723 C121.9094,19.2879723 121.6374,19.2580622 121.2254,19.2272175 L121.2254,5.23304615 L121.6014,5.2638909 L123.8974,8.88487805 L124.4124,8.91572281 L123.8644,4.68064465 C120.5404,4.40397655 117.2844,4.25162216 115.5714,4.21984272 L115.0234,8.39416606 L115.5364,8.42501081 L117.8334,5.01806756 L118.2454,5.01806756 L118.2454,19.0131736 C117.7644,19.0131736 117.5594,18.9823288 117.1134,18.9533534 L117.1134,19.7188641 Z M125.4744,5.57046906 L126.9814,5.72469283 L123.9344,19.412286 L122.5964,19.3197517 L122.5964,20.056287 L126.0914,20.3320204 L126.0914,19.5954851 L125.0624,19.5038855 L125.6454,16.9568566 L129.7914,17.3251243 L130.3394,19.9945975 L129.3814,19.9020633 L129.3814,20.6385986 L134.4864,21.1919348 L134.4864,20.4544648 L133.3204,20.3021104 L130.1004,5.23304615 C128.2494,5.04797762 127.3244,4.95731274 125.4744,4.83486842 L125.4744,5.57046906 Z M19.1164,28.0974209 C19.1164,32.1175204 18.4994,35.2160162 17.3004,35.2160162 C16.1024,35.2160162 15.5184,31.8408524 15.5184,27.9123524 C15.5184,23.861408 16.1024,20.8236671 17.3004,20.8236671 C18.4994,20.8236671 19.1164,24.1988309 19.1164,28.0974209 L19.1164,28.0974209 Z M22.0284,28.1899551 C22.0284,25.333544 21.0704,20.056287 17.0264,20.056287 C13.4614,20.056287 12.5714,25.08959 12.5714,27.666529 C12.5714,30.5210708 13.2914,35.9534862 17.5404,35.9534862 C21.4464,35.9534862 22.0284,30.7977389 22.0284,28.1899551 L22.0284,28.1899551 Z M38.3044,24.2605204 C38.3044,26.5009712 37.4474,28.4339091 36.3854,28.5881329 L36.3854,20.4862442 L36.5244,20.4862442 C37.5164,20.4862442 38.3044,22.0817592 38.3044,24.2605204 L38.3044,24.2605204 Z M22.0974,21.2844691 L23.1924,21.2844691 L23.1924,35.0935718 L22.0634,35.0935718 L22.0634,35.8310419 C24.0844,35.8310419 25.1134,35.8310419 27.1344,35.7375729 L27.1344,35.0019723 C26.6884,35.0019723 26.5184,35.0318823 26.0724,35.0318823 L26.0724,28.5264434 L26.6884,28.5264434 L28.6424,34.909438 L27.7864,34.9720622 L27.7864,35.7085975 C31.0414,35.4926843 34.3304,35.2160162 37.6524,34.6645494 L37.6524,33.9270793 C37.1404,34.0196136 36.9004,34.0504584 36.3854,34.1121479 L36.3854,29.3246682 C38.9544,28.9554658 41.0114,26.5626607 41.0114,23.708119 C41.0114,21.1601554 39.3324,19.6870847 37.1744,19.6870847 C36.9344,19.6870847 36.6934,19.7188641 36.4544,19.7487742 C34.8784,19.9637528 34.0904,20.056287 32.4794,20.2095761 L32.4794,20.9470461 L33.5414,20.8236671 L33.5414,34.4804155 C33.1314,34.542105 32.8564,34.5720151 31.5194,34.6944594 L29.8404,29.0171554 C29.5334,27.9431971 28.7114,27.3917303 27.9234,27.2375065 L30.8014,21.0685558 L31.8294,20.9769562 L31.8294,20.2404209 C30.4924,20.3628652 29.8074,20.3927753 28.4714,20.4544648 L28.4714,21.1919348 L29.3614,21.1601554 L26.5534,27.2375065 L26.0724,27.2375065 L26.0724,21.2844691 L27.1684,21.2844691 L27.1684,20.5161543 C25.9704,20.546999 25.1464,20.5769091 24.2214,20.5769091 C23.6044,20.5769091 22.9194,20.5769091 22.0974,20.546999 L22.0974,21.2844691 Z M103.0644,7.96420889 C103.0644,9.74385771 102.1734,11.1870183 101.0444,11.2487078 L101.0444,4.80308897 C102.2424,4.80308897 103.0644,6.18456006 103.0644,7.96420889 L103.0644,7.96420889 Z M103.0644,15.3295622 C103.0644,17.20268 102.1734,18.7365055 101.0444,18.7673502 L101.0444,12.0160879 C102.2424,12.0160879 103.0644,13.4573791 103.0644,15.3295622 L103.0644,15.3295622 Z M96.9314,4.98815749 L98.0624,4.92646799 L98.0624,18.9206393 L96.9314,18.9823288 L96.9314,19.7188641 C100.8724,19.5038855 105.8394,19.9020633 105.8394,15.2996521 C105.8394,13.3956896 104.7784,12.1067528 103.2014,11.5543513 C104.6064,10.941195 105.5664,9.71394764 105.5664,7.93336413 C105.5664,5.41717998 103.6494,4.03664358 101.2834,4.03664358 C99.4674,4.03664358 98.6454,4.12824315 96.9314,4.21984272 L96.9314,4.98815749 Z M9.2154,30.8902731 C9.2154,32.6390772 8.3914,34.0196136 7.3984,34.0196136 L7.2254,34.0196136 L7.2254,27.2375065 C8.3234,27.3917303 9.1794,29.0171554 9.2154,30.8902731 L9.2154,30.8902731 Z M3.1154,19.412286 L4.2444,19.5954851 L4.2444,33.5905911 L3.1154,33.4064573 L3.1154,34.1738374 C4.7244,34.4486361 5.5814,34.542105 7.2254,34.7879284 C7.5014,34.8178384 7.7754,34.8486832 8.0484,34.8486832 C10.2764,34.8486832 11.9214,33.5905911 11.9214,31.1959166 C11.9214,29.2938234 10.8594,27.9123524 9.3514,27.1150622 C10.7214,26.7159498 11.6454,25.6111468 11.6454,23.8006532 C11.6454,20.8535772 9.7274,19.7487742 7.2614,19.3496618 L3.1154,18.674816 L3.1154,19.412286 Z M9.1794,23.5239851 C9.1794,25.2120344 8.3914,26.5009712 7.4664,26.5009712 C7.3984,26.5009712 7.3284,26.5009712 7.2254,26.4710611 L7.2254,20.0254423 C8.3234,20.1787314 9.1794,21.7443363 9.1794,23.5239851 L9.1794,23.5239851 Z M92.4774,19.5655751 C91.3814,19.5655751 90.4904,16.5577442 90.4904,12.5067999 C90.4904,8.48670032 91.5184,4.98815749 92.9904,4.98815749 C93.6414,4.98815749 94.3274,5.32464572 94.4644,6.30700439 C93.2304,6.82856113 92.8884,7.78100974 92.8884,8.67083415 C92.8884,10.1121254 93.7454,11.0028845 94.7734,11.0028845 C95.8354,11.0028845 96.6234,9.77470246 96.6234,8.39416606 C96.6234,5.5396243 94.7044,4.25162216 93.0934,4.25162216 C88.7074,4.25162216 87.5084,9.98968105 87.5084,12.9666671 C87.5084,15.6062303 88.5724,20.3021104 92.2364,20.3021104 C94.1904,20.3021104 96.7254,17.8775258 96.7254,14.0415601 L93.9504,14.2247592 C93.9504,17.4167239 93.2654,19.5655751 92.4774,19.5655751 L92.4774,19.5655751 Z M45.1574,18.0308149 C43.1714,18.5215269 42.1764,18.7673502 40.1884,19.1655279 L40.1884,19.8712185 C40.6344,19.8104637 40.8744,19.7487742 41.3204,19.6581093 L43.2054,26.4710611 C43.4114,27.2375065 44.0614,28.1899551 44.9854,28.1899551 C45.3284,28.1899551 46.5284,27.8207528 46.9054,26.531816 C46.4934,29.0480001 46.2554,30.3369369 45.0544,31.718408 C45.0904,31.6866286 45.1234,31.5959637 45.1234,31.5342742 C45.1234,30.2453374 44.6434,29.355513 43.7524,29.355513 C42.7244,29.355513 41.8004,30.4285365 41.8004,31.7483181 C41.8004,32.7923663 42.5524,33.7130354 43.4784,33.7130354 C45.3984,33.7130354 46.6994,31.1959166 47.1784,29.9378245 C48.6184,25.9784798 48.4824,20.056287 48.6534,17.7541468 C48.9964,17.6625472 49.2004,17.6017924 49.5434,17.4784134 L49.5774,16.7418781 C48.2404,17.1709005 47.5904,17.3550344 46.2554,17.7242367 L46.2554,18.4598374 C46.7334,18.307483 46.9724,18.2457935 47.4534,18.1233491 C47.4184,20.1478866 47.3514,21.6826468 47.2824,22.8491393 C47.1454,25.1821243 46.8694,25.9485697 46.3914,25.9485697 C46.1164,25.9485697 45.8774,25.6111468 45.7044,24.8736768 L44.2334,18.9823288 C44.6094,18.8907292 44.7804,18.8589498 45.1574,18.7365055 L45.1574,18.0308149 Z" id="Fill-170" fill="#221F20"></path>
                                        <path d="M59.4807,13.7398423 C59.7687,13.5482309 60.4607,13.1117309 61.5337,12.5705457 C63.2097,11.7265211 65.8557,10.6777995 67.8467,10.1777406 C67.9937,10.1412877 68.1087,10.1104429 68.2037,10.0852063 C68.5517,10.9236228 69.1987,11.558277 70.0107,12.0321646 C69.3157,12.8696464 66.7227,16.2476142 64.8467,19.6031496 C62.4567,18.2300907 60.1497,15.8756078 59.4807,13.7398423 M60.6647,6.42215814 C61.1787,6.34738298 61.7517,6.27354251 62.3507,6.28756285 C65.9287,6.37075021 68.0457,7.21477484 68.3457,7.34189261 C68.1517,7.64379732 68.0257,7.97467741 67.9807,8.32985942 C67.9317,8.71121274 67.9497,9.06452537 68.0077,9.39914422 C67.4967,9.52626199 65.9337,9.935656 63.9967,10.6245222 C62.0027,11.3339515 59.8657,12.5808273 59.2307,12.9631153 C58.7057,11.0114836 58.8717,8.57474807 60.6647,6.42215814 M62.5697,27.7284055 C62.8997,26.2871142 63.6397,23.8718766 65.3267,20.8107684 C67.9927,22.1286806 71.5217,22.9474686 75.2107,22.5408787 C75.2187,22.539944 75.2307,22.5390093 75.2387,22.5380746 C75.2387,22.3801121 75.2397,22.226823 75.2387,22.0623177 C75.2377,21.9501549 75.2307,21.8342534 75.2277,21.7230254 C75.2077,21.7258294 70.6117,22.5231196 65.7407,20.0770372 C68.0837,15.9961828 70.1977,13.2238937 70.7987,12.461187 C70.8017,12.461187 70.8047,12.4630564 70.8047,12.4621217 C71.9427,12.9462909 73.1787,13.0836903 74.1207,12.96405 C74.1227,12.96405 74.1247,12.96405 74.1267,12.9631153 C74.0647,12.7060757 73.9927,12.4546442 73.9257,12.199474 C71.8857,12.4574483 68.5377,11.0198958 68.8927,8.36163887 C69.0477,7.2007545 70.1677,6.37261959 71.6547,6.18568169 C71.5537,6.01089475 71.4507,5.84358533 71.3477,5.68375343 C70.3147,5.82676092 69.4127,6.22400396 68.8017,6.7997727 C68.4757,6.66798148 66.6337,5.96135621 63.9517,5.74357355 C62.9237,5.6594515 62.0637,5.68001467 61.2507,5.80619775 C61.3507,5.70618597 63.3327,4.13123415 65.4477,3.50031874 C66.6797,3.13205107 67.7027,2.99745578 68.3287,2.93296221 C68.4717,2.92828876 68.6987,2.897444 68.9507,3.06381874 C69.6367,3.49284122 70.3427,4.13310353 71.3477,5.68375343 C71.4777,5.66599433 72.7837,5.3743712 74.7117,6.10903715 C76.0197,4.58362388 77.1747,4.30789047 77.6737,4.28171916 C77.8137,4.27517634 77.7577,4.21816028 77.6887,4.18638084 C75.3247,3.08251253 72.5527,2.43103394 69.7157,2.43103394 C69.4767,2.43103394 64.3797,2.20951253 60.5737,5.68281874 C60.4687,5.77909176 60.3887,5.83797719 60.2937,5.93705428 C57.4367,6.56236156 56.5817,7.87279625 56.4157,8.08403608 L56.5067,8.1532031 C57.3037,7.52696113 58.4867,6.90258854 59.7607,6.5773166 C57.1457,10.0478187 58.5637,13.6426346 58.6087,13.7847074 C59.1097,15.3989162 60.7647,18.2282213 64.4417,20.3368808 C63.7637,21.5697363 62.5017,23.9569333 61.7527,27.3470521 C58.4057,25.6066603 57.0077,23.9971249 56.4107,23.2867609 L56.4107,24.0709654 C57.6607,26.2422491 61.5707,28.0966731 61.6137,28.1172363 C61.4827,29.566005 61.6527,30.3287117 61.8197,30.8521378 C61.9527,30.9502802 62.3247,31.1643241 62.5397,31.2447074 C62.4557,30.806338 62.2847,29.6548005 62.4277,28.5013937 C67.3877,30.6895018 71.3317,30.6231389 73.8717,30.4474172 C73.9847,30.2399162 74.1397,29.8884729 74.2147,29.7183594 C74.2017,29.7192941 74.1897,29.7211635 74.1777,29.7220982 C70.6737,29.8866035 66.9277,29.6697556 62.5697,27.7284055 M85.4797,12.0330993 C85.4567,11.9882342 85.3987,11.9779526 85.4087,12.0349686 C85.5807,13.0285436 85.7097,15.5353808 83.6807,18.3450575 C85.2077,21.6332952 84.9507,23.7999055 84.6667,24.7112277 C84.6527,24.7626357 84.6977,24.8121742 84.7657,24.7018808 C84.9987,24.3289397 85.3377,23.6625061 85.5957,23.0044847 C86.2597,21.3098926 86.7067,19.5068766 86.7067,17.6038487 C86.7067,15.5914622 86.3237,13.7491892 85.4797,12.0330993 M73.9257,12.199474 C73.9357,12.1976046 73.9457,12.1976046 73.9547,12.1966699 C75.4997,11.9891688 76.7407,11.2629151 76.9217,9.94967634 C77.1637,8.19246006 75.5337,6.70443437 73.3447,6.25391403 C73.1997,6.22400396 72.4637,6.08940867 71.6547,6.18568169 C71.9097,6.62405107 72.1577,7.10448148 72.3917,7.64473201 C73.0077,9.07387227 73.5117,10.6142406 73.9257,12.199474 M77.1877,22.2062599 C76.0597,22.4614301 75.2477,22.5362052 75.2387,22.5380746 C75.2397,26.4516196 74.8937,28.1733177 74.2147,29.7183594 L74.2147,29.7192941 C74.2317,29.7174247 74.2477,29.7155554 74.2657,29.713686 C78.3757,29.4314097 81.3387,27.7919643 82.7767,26.63108 C83.1387,26.3385222 83.8657,25.6805007 84.0707,24.6859911 C84.1667,24.2186464 84.2317,23.7269997 84.2317,23.2334836 C84.2317,21.8211678 83.8737,20.423807 83.1627,18.9993401 C81.3617,20.9780778 78.8947,21.8202331 77.1877,22.2062599 M82.7867,18.295519 C82.4587,17.7150768 82.0847,17.1336999 81.6697,16.552323 C80.1347,14.4044065 77.5597,12.3976282 76.8087,11.8340104 C76.1627,12.4368851 75.2407,12.8173037 74.1427,12.9603112 C74.1367,12.9612459 74.1327,12.9621806 74.1267,12.9631153 C74.8217,15.869065 75.1817,18.9011978 75.2277,21.7230254 C80.6817,21.0435061 82.5977,18.5516239 82.7867,18.295519 M71.7717,32.5635543 C71.6567,32.6401988 71.7497,32.6691742 71.8087,32.6635661 C76.0727,32.2158498 79.7817,30.5707963 82.3287,27.7714012 C82.3867,27.7031688 82.3407,27.6826057 82.2927,27.7153198 C78.6827,30.2249611 73.9197,30.4446132 73.8717,30.4474172 C73.2917,31.541004 72.4437,32.1672459 71.7717,32.5635543 M75.5107,6.48104358 C76.4397,6.99418812 77.1377,7.69146649 77.4977,8.48034443 C81.1937,8.4747363 83.9087,9.92724379 84.6647,10.5581592 C84.7227,10.6002202 84.7707,10.5749836 84.7377,10.5189022 C83.3997,8.06253822 81.5967,6.211853 78.7207,4.74345578 C78.6587,4.70793758 78.5217,4.62942366 78.3627,4.65652966 C78.1257,4.697656 77.6647,4.77336585 77.1837,5.04349111 C76.4787,5.44073415 75.7357,6.21746113 75.5107,6.48104358 M83.9757,10.7647256 C83.0857,10.2618626 82.0697,9.86555428 80.8577,9.58888619 C79.3477,9.24398576 78.0157,9.19912066 77.7067,9.19725128 C77.7547,9.50102537 77.7817,9.8636849 77.7247,10.1777406 C77.6547,10.5609633 77.5177,10.9021249 77.3307,11.2087031 C78.1487,11.8330757 81.6767,14.6362095 83.3217,17.6346935 C84.7307,15.71858 84.9777,13.8005971 84.9307,12.4948359 C84.9267,12.0873112 84.7177,11.1834665 83.9757,10.7647256" id="Fill-172" fill="#221F20"></path>
                                    </g>
                                    <g id="Group-29" transform="translate(47.000000, 0.000000)" fill="#221F20">
                                        <polygon id="Fill-175" points="0.5656 16.2606999 0.4776 16.4990457 0.0956 16.3859483 0.4046 15.5484665 0.7786 15.6596945 0.6936 15.8896282 1.6676 15.9316892 0.7306 15.2288027 0.8336 14.9502652 2.0526 14.8904451 1.2426 14.4025372 1.1436 14.670793 0.7696 14.5604997 1.0786 13.7230179 1.4606 13.8361153 1.3726 14.0744611 2.6866 14.8923145 2.5686 15.212913 1.3636 15.2839494 2.2816 15.9896399 2.1666 16.3018262"></polygon>
                                        <polygon id="Fill-176" points="1.7224 13.3243728 1.5954 13.5477636 1.2364 13.3832582 1.6844 12.5990537 2.0344 12.7588857 1.9114 12.9757336 2.8684 13.1486512 2.0604 12.3270591 2.2094 12.065346 3.4254 12.1719006 2.7064 11.5802422 2.5634 11.8316737 2.2134 11.6709071 2.6604 10.8857679 3.0184 11.0502732 2.8914 11.2727293 4.0514 12.2606961 3.8804 12.5607315 2.6774 12.4681972 3.4654 13.2897893 3.2984 13.5832818"></polygon>
                                        <polygon id="Fill-177" points="3.361 10.5815264 3.198 10.7852888 2.871 10.5749836 3.445 9.85901146 3.764 10.0646431 3.606 10.2618626 4.523 10.561898 3.862 9.64029411 4.053 9.40194829 5.237 9.67113887 4.626 8.98975021 4.442 9.21874914 4.123 9.01311745 4.696 8.29714529 5.023 8.50745043 4.86 8.71121274 5.841 9.84312173 5.622 10.1169858 4.448 9.86275021 5.089 10.78155 4.875 11.0488712"></polygon>
                                        <path d="M6.1514,9.02938105 C5.9994,8.91067548 5.9844,8.70597848 6.1144,8.57418726 C6.2444,8.44052666 6.4724,8.42744101 6.6244,8.54614657 C6.7724,8.66204807 6.7874,8.86674507 6.6574,8.99947099 C6.5274,9.1321969 6.2994,9.14528255 6.1514,9.02938105" id="Fill-178"></path>
                                        <polygon id="Fill-180" points="5.9746 7.58397719 5.8156 7.72418062 5.5336 7.4680757 6.2296 6.85118062 6.4976 7.09419989 6.3016 7.26711745 7.3286 7.61295257 6.9546 6.68947934 6.7496 6.8708091 6.4816 6.62872452 7.1756 6.01463351 7.4586 6.27167313 7.2996 6.41187655 7.8456 7.87653501 7.6036 8.0915136"></polygon>
                                        <path d="M8.2739,5.17771253 C8.7709,4.82533458 9.3579,4.93375857 9.6889,5.30950375 C10.0149,5.67777141 9.9959,6.22549946 9.5059,6.57320396 C9.0079,6.92558191 8.4209,6.81622323 8.0899,6.44141274 C7.7649,6.07221039 7.7829,5.52541702 8.2739,5.17771253 M9.3049,5.58149839 C9.0879,5.33567505 8.7649,5.28520182 8.5209,5.45718469 C8.2769,5.63010225 8.2569,5.92359475 8.4739,6.16941809 C8.6909,6.41524143 9.0149,6.46571467 9.2589,6.2937318 C9.5019,6.12081424 9.5219,5.82732173 9.3049,5.58149839" id="Fill-181"></path>
                                        <polygon id="Fill-183" points="10.3661 5.49522655 10.6081 5.36156595 9.3411 3.52863983 9.0991 3.66230043 8.8871 3.35572227 9.5341 2.9968015 10.6651 4.63344283 10.8881 4.00252741 10.6611 4.1277758 10.4611 3.83802206 11.4241 3.30337966 11.6361 3.60995782 11.3351 3.77726724 11.1541 4.27452206 11.9581 4.61194497 12.2261 4.46332934 12.4341 4.76336467 11.9241 5.0456409 11.0011 4.64933255 10.8891 4.95591071 11.0181 5.14284861 11.2231 5.02975118 11.4261 5.32230899 10.5731 5.79526188"></polygon>
                                        <g id="Group-192" transform="translate(11.000000, 0.253488)">
                                            <path d="M1.573,4.0555243 L1.829,3.94523094 L1.344,3.04232088 L1.088,3.15261424 L0.913,2.82827698 L1.583,2.53945792 L1.771,2.8890318 C1.804,2.61797184 1.894,2.37027912 2.115,2.27494079 C2.328,2.18334122 2.497,2.25437762 2.571,2.39177698 C2.641,2.52263351 2.585,2.68059604 2.444,2.74228555 C2.314,2.79836692 2.191,2.76845685 2.117,2.71331017 C2.016,2.80490974 1.939,2.98530482 1.932,3.15354893 L2.258,3.76016242 L2.558,3.63117527 L2.728,3.9489697 L1.744,4.37331874 L1.573,4.0555243 Z" id="Fill-184"></path>
                                            <path d="M3.2485,2.25634047 L2.9805,2.34139722 L2.8465,2.00210493 L3.5625,1.77404069 L3.9625,2.78070128 C4.0325,2.9573576 4.1575,3.02558994 4.3305,2.97044325 C4.4865,2.92090471 4.6195,2.78724411 4.7215,2.63488972 L4.4225,1.88246467 L4.1425,1.97126017 L4.0075,1.63196788 L4.7365,1.39923019 L5.2465,2.68349358 L5.5135,2.59750214 L5.6455,2.93025161 L4.9455,3.15270771 L4.8435,2.8947334 C4.7305,3.10129979 4.5905,3.29945396 4.3275,3.38357602 C3.9645,3.49947752 3.6825,3.34805782 3.5535,3.02278587 L3.2485,2.25634047 Z" id="Fill-186"></path>
                                            <path d="M7.3165,2.31447816 C7.2075,2.46870193 7.0805,2.58740749 6.8335,2.63694604 C6.3595,2.73321906 5.8985,2.48552634 5.7725,1.98827152 C5.6525,1.51064518 5.9465,1.06199422 6.4335,0.96385182 C6.6715,0.915247966 6.8635,0.96478651 7.0115,1.03488822 L6.9735,0.886272591 L7.6995,0.739526338 L7.7875,1.09096959 L7.5105,1.14705096 L7.8455,2.47244069 C7.9685,2.9612833 7.6955,3.30151028 7.1625,3.40993426 C6.6595,3.51181542 6.2775,3.38469764 6.2185,3.15102527 C6.1885,3.0323197 6.2575,2.8986591 6.4115,2.86687966 C6.5565,2.83790428 6.6945,2.90613662 6.7265,3.0323197 C6.7315,3.05101349 6.7345,3.08279293 6.7345,3.09868266 C6.8165,3.10616017 6.9115,3.10709486 7.0225,3.08466231 C7.3035,3.02764625 7.4555,2.86501028 7.3775,2.55562805 L7.3165,2.31447816 Z M7.0725,1.34800921 C6.9425,1.29379722 6.7885,1.26949529 6.6215,1.30314411 C6.3355,1.36016017 6.1695,1.5714 6.2495,1.88825974 C6.3265,2.19390321 6.5785,2.31915161 6.8635,2.26120086 C7.0215,2.22942141 7.1465,2.13595246 7.2405,2.01257345 L7.0725,1.34800921 Z" id="Fill-188"></path>
                                            <path d="M9.2586,2.00846081 C9.4496,1.98883233 9.5986,1.91405717 9.5826,1.78880878 C9.5706,1.70375203 9.4816,1.66169101 9.1816,1.62243405 C8.6406,1.55233233 8.4046,1.46353683 8.3666,1.1719137 C8.3316,0.907396574 8.5386,0.605491863 9.0726,0.549410493 C9.4376,0.511088223 9.8356,0.631663169 9.8686,0.884029336 C9.8866,1.020494 9.8036,1.12330985 9.6646,1.13826488 C9.5126,1.1541546 9.3976,1.08405289 9.3806,0.955065739 C9.3776,0.927959743 9.3746,0.904592505 9.3796,0.880290578 C9.2986,0.861596788 9.2006,0.855988651 9.1056,0.865335546 C8.8926,0.887768094 8.7996,0.984041113 8.8116,1.07377131 C8.8236,1.17097901 8.9386,1.21023597 9.2386,1.24949293 C9.7086,1.31118244 9.9866,1.38502291 10.0266,1.69160107 C10.0736,2.04958715 9.7246,2.27858608 9.2956,2.32345118 C8.8046,2.3748591 8.4326,2.22063533 8.4006,1.97574668 C8.3846,1.85143298 8.4746,1.73553148 8.6226,1.71964176 C8.7526,1.7065561 8.8886,1.77104968 8.9076,1.91873062 C8.9106,1.94209786 8.9096,1.96639979 8.9086,1.98976702 C8.9996,2.01219957 9.1236,2.02248116 9.2586,2.00846081" id="Fill-190"></path>
                                        </g>
                                        <polygon id="Fill-193" points="21.5897 1.0734909 21.3667 1.07722966 21.3597 0.716439507 22.3397 0.702419165 22.3457 1.04264615 22.0707 1.04731959 22.5457 1.93340525 22.9887 1.03329925 22.7007 1.0379727 22.6937 0.696811028 23.6697 0.682790685 23.6757 1.04358084 23.4527 1.0463849 22.7167 2.44468041 22.3757 2.44935385"></polygon>
                                        <g id="Group-206" transform="translate(24.000000, 0.253488)">
                                            <path d="M1.7037,2.19764197 C1.4917,2.28550278 1.2427,2.31541285 0.9647,2.29111092 C0.3417,2.23783362 -0.0513,1.84900278 0.0057,1.31903383 C0.0577,0.835799358 0.4797,0.462858244 1.0677,0.514266167 C1.6767,0.566608779 1.9557,0.960113062 1.9067,1.41250278 C1.8997,1.47886574 1.8817,1.56392248 1.8627,1.62093854 L0.4867,1.50223298 C0.5237,1.77329293 0.7547,1.91069229 1.0727,1.93873298 C1.3027,1.95836146 1.5497,1.91256167 1.7837,1.81909272 L1.7037,2.19764197 Z M1.4417,1.2863197 C1.4577,1.05077794 1.3047,0.880664454 1.0267,0.856362527 C0.8177,0.838603426 0.5967,0.929268308 0.5147,1.2059364 L1.4417,1.2863197 Z" id="Fill-194"></path>
                                            <path d="M2.7363,1.10788747 L2.3713,1.04526328 L2.4473,0.691950642 L2.8123,0.754574839 L2.8873,0.400327516 L3.3893,0.299381049 L3.2753,0.834023448 L3.8463,0.932165846 L3.7703,1.28547848 L3.1993,1.18733608 L3.0323,1.97154058 C3.0033,2.10613587 3.0613,2.18838854 3.2163,2.21455985 C3.3363,2.23512302 3.4823,2.21642923 3.6043,2.18932323 L3.4883,2.54450525 C3.3463,2.58002345 3.1873,2.59591317 3.0163,2.56693779 C2.6893,2.51085642 2.4753,2.32672259 2.5513,1.97247527 L2.7363,1.10788747 Z" id="Fill-196"></path>
                                            <path d="M5.1548,2.82463169 C4.9708,2.89847216 4.7168,2.93866381 4.4688,2.87417024 C4.1538,2.79191756 3.9228,2.56385332 4.0228,2.25540578 C4.1238,1.94695824 4.4868,1.83759957 4.9238,1.95256638 C5.1128,2.00117024 5.2818,2.07033726 5.3758,2.11894111 L5.4188,1.98714989 C5.5018,1.73197966 5.3588,1.59644968 5.0988,1.52821734 C5.0188,1.50765418 4.9568,1.50298073 4.9098,1.50765418 C4.9108,1.5319561 4.9068,1.57214775 4.8988,1.5945803 C4.8588,1.718894 4.7208,1.78058351 4.5818,1.74413062 C4.4428,1.70767773 4.3658,1.59364561 4.4108,1.45905032 C4.4768,1.25528801 4.7778,1.10199893 5.2768,1.23192077 C5.8228,1.37492827 5.9998,1.68617987 5.8718,2.07781478 L5.6428,2.78070128 L5.9158,2.85173769 L5.8058,3.19102998 L5.0958,3.00502677 L5.1548,2.82463169 Z M5.3068,2.32924625 C5.2088,2.27970771 5.0838,2.23110385 4.9408,2.19371627 C4.7188,2.13483084 4.5548,2.18997752 4.5058,2.34046253 C4.4628,2.47225375 4.5488,2.57226552 4.7128,2.61526124 C4.8758,2.65825696 5.0548,2.64330193 5.2228,2.58908994 L5.3068,2.32924625 Z" id="Fill-198"></path>
                                            <path d="M6.2753,3.05475225 C6.3483,2.88650814 6.5573,2.80332077 6.7403,2.86687966 C6.9243,2.93043854 7.0173,3.11831113 6.9443,3.28655525 C6.8743,3.45012591 6.6643,3.53331328 6.4813,3.46975439 C6.2973,3.40713019 6.2043,3.2192576 6.2753,3.05475225" id="Fill-200"></path>
                                            <path d="M7.425,3.3854454 L7.682,3.49480407 L8.163,2.58908994 L7.906,2.47973126 L8.079,2.15445931 L8.751,2.4404743 L8.564,2.79098287 C8.822,2.64517131 9.093,2.55263704 9.315,2.64704069 C9.528,2.73677088 9.572,2.89940685 9.499,3.0377409 C9.43,3.16859743 9.257,3.22935225 9.114,3.16859743 C8.984,3.11345075 8.933,3.00876552 8.935,2.92277409 C8.792,2.90968844 8.586,2.96950857 8.436,3.07045503 L8.112,3.67800321 L8.412,3.80605567 L8.243,4.1247848 L7.256,3.70417452 L7.425,3.3854454 Z" id="Fill-202"></path>
                                            <path d="M10.0415,3.42703908 L9.7995,3.29337848 L10.0105,2.98680032 L10.6585,3.34385171 L10.0325,4.25517398 C9.9225,4.41500589 9.9415,4.54492773 10.0975,4.63185385 C10.2395,4.70943308 10.4385,4.71784529 10.6355,4.69354336 L11.1035,4.01215471 L10.8495,3.87288597 L11.0605,3.56537313 L11.7205,3.92896734 L10.9225,5.0907864 L11.1645,5.224447 L10.9585,5.52448233 L10.3245,5.17490846 L10.4855,4.94217077 C10.2345,4.992644 9.9745,5.01881531 9.7365,4.88795878 C9.4085,4.70662901 9.3625,4.41500589 9.5645,4.12151338 L10.0415,3.42703908 Z" id="Fill-204"></path>
                                        </g>
                                    </g>
                                </g>
                            </g>
                        </g>
                    </g>
                </g>
            </g>
        </g>
    </g>
</svg>