<?xml version="1.0" encoding="UTF-8" standalone="no"?>
<svg width="126px" height="56px" viewBox="0 0 126 56" version="1.1" xmlns="http://www.w3.org/2000/svg" xmlns:xlink="http://www.w3.org/1999/xlink">
    <!-- Generator: Sketch 3.8.3 (29802) - http://www.bohemiancoding.com/sketch -->
    <title>Page 1</title>
    <desc>Created with Sketch.</desc>
    <defs></defs>
    <g id="V2" stroke="none" stroke-width="1" fill="none" fill-rule="evenodd">
        <g id="Desktop-1240-Copy-3" transform="translate(-696.000000, -1689.000000)">
            <g id="Group-11" transform="translate(-7.000000, 1523.000000)">
                <g id="partners">
                    <g id="Group-14" transform="translate(0.000000, 59.000000)">
                        <g id="Group-87" transform="translate(701.000000, 61.000000)">
                            <g id="Group-18" transform="translate(2.000000, 46.000000)">
                                <g id="Page-1">
                                    <polygon id="Fill-1" fill="#221F20" points="53.810753 53.6209628 55.3049253 46.7762926 53.4936083 46.7762926 51.9988998 53.6209628 51.1498743 53.6209628 52.8142806 46.0120674 56.3247211 46.0120674 54.6597785 53.6209628"></polygon>
                                    <g id="Group-55" transform="translate(0.000000, 0.081298)">
                                        <path d="M57.2978298,51.9885405 C57.2978298,52.6842974 57.5017085,52.9812635 57.9207255,52.9812635 C58.2827745,52.9812635 58.6795404,52.5477659 58.8946787,52.0684877 L59.4604723,49.5130128 C59.415434,48.999568 59.0986915,48.5888932 58.7359723,48.5888932 C57.7849404,48.5888932 57.2978298,51.0072965 57.2978298,51.9885405 M59.6077851,48.8169858 L59.7777511,48.0300729 L60.5476915,48.0300729 L59.3360809,53.5396786 L58.5661404,53.5396786 L58.7245787,52.8323078 C58.3846468,53.4031471 57.988283,53.6770203 57.5810617,53.6770203 C56.8790809,53.6770203 56.4938426,53.0834933 56.4938426,52.0453949 C56.4938426,50.6880478 57.1842957,47.8925961 58.6114468,47.8925961 C59.0417234,47.8925961 59.4494809,48.1776782 59.6077851,48.8169858" id="Fill-2" fill="#221F20"></path>
                                        <g id="Group-6" transform="translate(60.319149, 47.806275)" fill="#221F20">
                                            <path d="M3.78395426,1.77492274 C3.78395426,1.07916588 3.58007553,0.783010061 3.16105851,0.783010061 C2.79860745,0.783010061 2.40224362,1.21596745 2.18710532,1.69484048 L1.62077553,4.25072058 C1.66635,4.76376023 1.98349468,5.17497522 2.34554362,5.17497522 C3.29684362,5.17497522 3.78395426,2.75603174 3.78395426,1.77492274 M1.47399894,4.94647744 L0.839843617,7.83267999 L0.081162766,7.83267999 L1.74570319,0.223784683 L2.51537553,0.223784683 L2.35693723,0.930615311 C2.69673511,0.360586255 3.09296489,0.0868480658 3.50072234,0.0868480658 C4.20270319,0.0868480658 4.58753936,0.679969983 4.58753936,1.71793334 C4.58753936,3.0760907 3.90807766,5.87073208 2.47033723,5.87073208 C2.03965851,5.87073208 1.64383085,5.5849748 1.47399894,4.94647744" id="Fill-4"></path>
                                        </g>
                                        <polygon id="Fill-7" fill="#221F20" points="65.9935723 53.5396651 67.0463426 48.7142023 66.1180979 48.7142023 66.2654106 48.0300594 68.9037702 48.0300594 68.7567255 48.7142023 67.8279447 48.7142023 66.7746383 53.5396651"></polygon>
                                        <polygon id="Fill-9" fill="#221F20" points="68.8354353 53.5396651 70.0360545 48.0300594 70.8055928 48.0300594 70.3078928 50.3231401 71.7681523 50.3231401 72.2783183 48.0300594 73.0478566 48.0300594 71.8476396 53.5396651 71.077163 53.5396651 71.6211077 51.0070129 70.16058 51.0070129 69.6055098 53.5396651"></polygon>
                                        <path d="M76.4897343,50.4596445 C76.5576938,50.1630836 76.6032683,49.8892103 76.6032683,49.6042633 C76.6032683,49.0338291 76.3767364,48.5430721 75.8785002,48.5430721 C75.1199534,48.5430721 74.7008023,49.6842106 74.5648832,50.4596445 L76.4897343,50.4596445 Z M73.6135832,51.7835002 C73.6135832,50.6880073 74.2476045,47.8926907 75.93453,47.8926907 C76.7956194,47.8926907 77.3277683,48.4176144 77.3277683,49.5930545 C77.3277683,50.0942101 77.226164,50.631288 77.1238896,51.0415576 L74.4514832,51.0415576 C74.3836577,51.3150257 74.3611385,51.5776902 74.3611385,51.8173968 C74.3611385,52.5015397 74.6438343,53.0265984 75.3005087,53.0265984 C75.6407087,53.0265984 76.0144194,52.7642041 76.2858555,52.4099785 L76.6371811,52.9008706 C76.217896,53.4143154 75.7086683,53.6769798 75.1986364,53.6769798 C74.2250853,53.6769798 73.6135832,53.0492861 73.6135832,51.7835002 L73.6135832,51.7835002 Z" id="Fill-11" fill="#221F20"></path>
                                        <g id="Group-15" transform="translate(77.342553, 47.806275)" fill="#221F20">
                                            <path d="M3.74402298,1.77492274 C3.74402298,1.07916588 3.54014426,0.783010061 3.12126128,0.783010061 C2.7590783,0.783010061 2.36271447,1.21596745 2.14757617,1.69484048 L1.58124638,4.25072058 C1.62682085,4.76376023 1.9435634,5.17497522 2.30614851,5.17497522 C3.2567783,5.17497522 3.74402298,2.75603174 3.74402298,1.77492274 M1.43393362,4.94647744 L0.800314468,7.83267999 L0.041633617,7.83267999 L1.70577191,0.223784683 L2.47584638,0.223784683 L2.31767617,0.930615311 C2.65720596,0.360586255 3.05343574,0.0868480658 3.46119319,0.0868480658 C4.16317404,0.0868480658 4.54841234,0.679969983 4.54841234,1.71793334 C4.54841234,3.0760907 3.86895064,5.87073208 2.43027191,5.87073208 C2.00039745,5.87073208 1.6043017,5.5849748 1.43393362,4.94647744" id="Fill-13"></path>
                                        </g>
                                        <path d="M86.8161179,50.3915949 C87.4387455,50.3915949 87.7329689,49.7522872 87.7329689,49.2958318 C87.7329689,48.8400517 87.4726583,48.6573345 86.9860838,48.6573345 L86.4647923,48.6573345 L86.0799562,50.3915949 L86.8161179,50.3915949 Z M86.2834328,52.912363 C86.9745562,52.912363 87.3028264,52.239699 87.2912987,51.6919526 C87.2912987,51.2469761 87.0199966,51.0303623 86.5893179,51.0303623 L85.944037,51.0303623 L85.5364136,52.912363 L86.2834328,52.912363 Z M84.63042,53.5396516 L85.830637,48.0296408 L87.20082,48.0296408 C88.0163349,48.0296408 88.5596094,48.406149 88.571003,49.1139249 C88.571003,49.7865889 88.2312051,50.4938247 87.4272179,50.7335313 C87.8577626,50.8819468 88.0842945,51.2357673 88.0842945,51.6688597 C88.0958221,52.5589477 87.5856562,53.5396516 86.419486,53.5396516 L84.63042,53.5396516 Z" id="Fill-16" fill="#221F20"></path>
                                        <g id="Group-20" transform="translate(90.612766, 47.806275)" fill="#221F20">
                                            <path d="M3.80070957,1.77492274 C3.80070957,1.07916588 3.59683085,0.783010061 3.17781383,0.783010061 C2.81576489,0.783010061 2.41953511,1.21596745 2.20412872,1.69484048 L1.63833511,4.25072058 C1.68310532,4.76376023 2.00038404,5.17497522 2.36256702,5.17497522 C3.31400106,5.17497522 3.80070957,2.75603174 3.80070957,1.77492274 M1.49075426,4.94647744 L0.856598936,7.83267999 L0.0980521277,7.83267999 L1.76245851,0.223784683 L2.53253298,0.223784683 L2.37396064,0.930615311 C2.71389255,0.360586255 3.11025638,0.0868480658 3.51747766,0.0868480658 C4.21999468,0.0868480658 4.60469681,0.679969983 4.60469681,1.71793334 C4.60469681,3.0760907 3.92523511,5.87073208 2.48709255,5.87073208 C2.05721809,5.87073208 1.66058617,5.5849748 1.49075426,4.94647744" id="Fill-18"></path>
                                        </g>
                                        <path d="M96.8025428,51.9885405 C96.8025428,52.6842974 97.0064215,52.9812635 97.4253045,52.9812635 C97.7880236,52.9812635 98.1838513,52.5477659 98.3989896,52.0684877 L98.9653194,49.5130128 C98.9197449,48.999568 98.6030023,48.5888932 98.2404172,48.5888932 C97.2892513,48.5888932 96.8025428,51.0072965 96.8025428,51.9885405 M99.112096,48.8169858 L99.2820619,48.0300729 L100.052002,48.0300729 L98.8403917,53.5396786 L98.0707194,53.5396786 L98.2292917,52.8323078 C97.8897619,53.4031471 97.49313,53.6770203 97.0853726,53.6770203 C96.3833917,53.6770203 95.9981534,53.0834933 95.9981534,52.0453949 C95.9981534,50.6880478 96.6891428,47.8925961 98.1157577,47.8925961 C98.5464364,47.8925961 98.9541938,48.1776782 99.112096,48.8169858" id="Fill-21" fill="#221F20"></path>
                                        <path d="M104.185097,49.1819206 C104.185097,50.0607998 103.573595,50.6649954 102.848827,50.7908583 C103.33567,50.904567 103.641421,51.4296258 103.641421,51.9084988 C103.641421,52.9919726 102.72457,53.6770608 101.705176,53.6770608 C100.969148,53.6770608 100.436865,53.3343142 100.210601,52.7753589 L100.731625,52.3650892 C100.901189,52.7985868 101.25238,53.0381583 101.705176,53.0381583 C102.339197,53.0381583 102.893865,52.5931819 102.893865,51.8516444 C102.893865,51.3954591 102.554201,51.0754002 102.078887,51.0754002 L101.32034,51.0754002 L101.456393,50.4254239 L102.225931,50.4254239 C102.758482,50.4254239 103.392638,50.1061752 103.392638,49.2957643 C103.392638,48.8285052 103.154444,48.5315392 102.678727,48.5315392 C102.123925,48.5315392 101.705176,48.8285052 101.376772,49.2391801 L101.014187,48.7599019 C101.456393,48.2465921 102.067359,47.8930418 102.791993,47.8930418 C103.766214,47.8930418 104.185097,48.4630708 104.185097,49.1819206" id="Fill-23" fill="#221F20"></path>
                                        <path d="M106.755202,50.3915949 C107.378098,50.3915949 107.672053,49.7522872 107.672053,49.2958318 C107.672053,48.8400517 107.412011,48.6573345 106.925034,48.6573345 L106.403877,48.6573345 L106.019041,50.3915949 L106.755202,50.3915949 Z M106.222919,52.912363 C106.913641,52.912363 107.242179,52.239699 107.230785,51.6919526 C107.230785,51.2469761 106.958947,51.0303623 106.528402,51.0303623 L105.883121,51.0303623 L105.475766,52.912363 L106.222919,52.912363 Z M104.56937,53.5396516 L105.769721,48.0296408 L107.139904,48.0296408 C107.955285,48.0296408 108.499096,48.406149 108.510087,49.1139249 C108.510087,49.7865889 108.170826,50.4938247 107.366704,50.7335313 C107.796579,50.8819468 108.022843,51.2357673 108.022843,51.6688597 C108.033968,52.5589477 107.524607,53.5396516 106.358839,53.5396516 L104.56937,53.5396516 Z" id="Fill-25" fill="#221F20"></path>
                                        <polygon id="Fill-27" fill="#221F20" points="108.906438 53.5396651 110.106521 48.0300594 110.876595 48.0300594 110.050089 51.8401115 112.280289 48.0300594 113.118725 48.0300594 111.918508 53.5396651 111.148568 53.5396651 111.986468 49.638457 109.710425 53.5396651"></polygon>
                                        <polygon id="Fill-29" fill="#221F20" points="113.978849 53.5396651 115.03162 48.7142023 114.103241 48.7142023 114.250554 48.0300594 116.889047 48.0300594 116.7416 48.7142023 115.813222 48.7142023 114.760317 53.5396651"></polygon>
                                        <polygon id="Fill-31" fill="#221F20" points="116.820699 53.5396651 118.020916 48.0300594 118.790856 48.0300594 117.963948 51.8401115 120.195086 48.0300594 121.03312 48.0300594 119.832769 53.5396651 119.062293 53.5396651 119.900863 49.638457 117.624954 53.5396651"></polygon>
                                        <polygon id="Fill-33" fill="#221F20" points="121.349876 53.5396651 122.549691 48.0300594 123.320168 48.0300594 122.493125 51.8401115 124.723995 48.0300594 125.562297 48.0300594 124.361678 53.5396651 123.592006 53.5396651 124.43004 49.638457 122.153863 53.5396651"></polygon>
                                        <path d="M60.4474277,28.8966108 C60.4474277,27.5714047 59.4604723,26.7670708 58.1452468,26.7670708 L54.5992851,26.7670708 L54.5992851,31.0264209 L58.1452468,31.0264209 C59.4604723,31.0264209 60.4474277,30.1981839 60.4474277,28.8966108 L60.4474277,28.8966108 Z M51.2640383,39.5919818 L51.2640383,23.8092939 L58.5920106,23.8092939 C61.9973617,23.8092939 63.8521085,26.1285735 63.8521085,28.8966108 C63.8521085,31.6414202 61.9740383,33.9831174 58.5920106,33.9831174 L54.5992851,33.9831174 L54.5992851,39.5919818 L51.2640383,39.5919818 Z" id="Fill-35" fill="#221F20"></path>
                                        <path d="M74.0208045,33.8653438 C74.0208045,32.0904346 72.964013,30.5528011 71.10873,30.5528011 C69.253447,30.5528011 68.2203811,32.0904346 68.2203811,33.8653438 C68.2203811,35.6632109 69.253447,37.2016546 71.10873,37.2016546 C72.964013,37.2016546 74.0208045,35.6632109 74.0208045,33.8653438 M65.120513,33.8653438 C65.120513,30.6237003 67.3752428,27.8787558 71.10873,27.8787558 C74.8664789,27.8787558 77.1210747,30.6237003 77.1210747,33.8653438 C77.1210747,37.1308905 74.8664789,39.8756999 71.10873,39.8756999 C67.3752428,39.8756999 65.120513,37.1308905 65.120513,33.8653438" id="Fill-37" fill="#221F20"></path>
                                        <path d="M79.0696647,33.8653438 C79.0696647,30.3637368 81.5826945,27.8787558 85.0820094,27.8787558 C87.4067094,27.8787558 88.8160328,28.8965973 89.5673413,29.9369915 L87.6176923,31.783205 C87.0776349,30.9787361 86.2566243,30.5528011 85.22262,30.5528011 C83.414386,30.5528011 82.1466115,31.8774671 82.1466115,33.8653438 C82.1466115,35.8530855 83.414386,37.2016546 85.22262,37.2016546 C86.2566243,37.2016546 87.0776349,36.7280484 87.6176923,35.9717909 L89.5673413,37.7935611 C88.8160328,38.8579935 87.4067094,39.8756999 85.0820094,39.8756999 C81.5826945,39.8756999 79.0696647,37.3900437 79.0696647,33.8653438" id="Fill-39" fill="#221F20"></path>
                                        <polygon id="Fill-41" fill="#221F20" points="94.5463385 39.5919413 94.5463385 30.7900499 91.3754279 30.7900499 91.3754279 28.1634057 100.722215 28.1634057 100.722215 30.7900499 97.5515726 30.7900499 97.5515726 39.5919413"></polygon>
                                        <path d="M107.744034,30.2686239 C105.888617,30.2686239 105.09093,31.6644591 104.949515,32.8001957 L110.539358,32.8001957 C110.468851,31.7126705 109.717007,30.2686239 107.744034,30.2686239 M101.873373,33.8648982 C101.873373,30.5524905 104.291768,27.8787153 107.744034,27.8787153 C111.126196,27.8787153 113.427707,30.4341902 113.427707,34.1734782 L113.427707,34.8361488 L104.996162,34.8361488 C105.184626,36.2793851 106.335113,37.4858859 108.260768,37.4858859 C109.223998,37.4858859 110.562011,37.0591406 111.289862,36.3502843 L112.60549,38.2895445 C111.478326,39.3311541 109.694219,39.8753893 107.931962,39.8753893 C104.480098,39.8753893 101.873373,37.5324767 101.873373,33.8648982" id="Fill-43" fill="#221F20"></path>
                                        <polygon id="Fill-45" fill="#221F20" points="122.609796 39.5919413 120.026394 35.7352984 117.420338 39.5919413 114.107879 39.5919413 118.123928 33.7231134 114.343526 28.1634057 117.677968 28.1634057 120.026394 31.6879706 122.35096 28.1634057 125.68634 28.1634057 121.881543 33.7231134 125.94397 39.5919413"></polygon>
                                        <polygon id="Fill-47" fill="#251B06" points="34.1202504 18.5483079 34.1202504 5.21589415 20.9624994 5.21589415 26.0861419 0.0537618022 39.2815589 0.0537618022 39.2815589 6.55055351 39.2815589 13.3487678"></polygon>
                                        <polygon id="Fill-49" fill="#251B06" points="39.2815321 39.6289439 26.0874555 39.6285388 20.9627406 34.4660013 34.1198215 34.4660013 34.1198215 21.1527641 39.2815321 26.3535196"></polygon>
                                        <polygon id="Fill-51" fill="#251B06" points="0.000522765958 13.3487138 0.000790851064 6.55063454 0.000522765958 0.0541129217 13.1951355 0.0541129217 18.3189121 5.21638032 5.16102702 5.21638032 5.16102702 18.548659"></polygon>
                                        <polygon id="Fill-53" fill="#251B06" points="0 26.3530874 5.16144255 21.1523319 5.16144255 34.4663794 18.3189255 34.4663794 13.1939426 39.6272964 0.000536170213 39.6289169"></polygon>
                                    </g>
                                </g>
                            </g>
                        </g>
                    </g>
                </g>
            </g>
        </g>
    </g>
</svg>