<?xml version="1.0" encoding="UTF-8" standalone="no"?>
<svg width="134px" height="28px" viewBox="0 0 134 28" version="1.1" xmlns="http://www.w3.org/2000/svg" xmlns:xlink="http://www.w3.org/1999/xlink">
    <!-- Generator: Sketch 3.8.3 (29802) - http://www.bohemiancoding.com/sketch -->
    <title>Page 1</title>
    <desc>Created with Sketch.</desc>
    <defs></defs>
    <g id="V2" stroke="none" stroke-width="1" fill="none" fill-rule="evenodd">
        <g id="Desktop-1240-Copy-3" transform="translate(-246.000000, -2221.000000)">
            <g id="Group-11" transform="translate(-7.000000, 1523.000000)">
                <g id="partners">
                    <g id="Group-14" transform="translate(0.000000, 59.000000)">
                        <g id="Group-61" transform="translate(252.000000, 597.000000)">
                            <g id="Page-1" transform="translate(1.000000, 42.000000)">
                                <g id="Group-126" transform="translate(0.000000, 0.173054)">
                                    <path d="M18.5868946,15.6016441 L12.8853261,15.6016441 L12.8853261,21.3564576 C13.2237215,19.9775763 13.9228096,18.7269322 14.9340609,17.7010339 C15.9571166,16.6632373 17.2070809,15.9466949 18.5868946,15.6016441 L18.5868946,15.6016441 Z" id="Fill-40" fill="#221F20"></path>
                                    <path d="M46.7071565,17.7092305 C47.721031,18.7377729 48.4214308,19.991061 48.7611377,21.3725864 L48.7611377,15.6045525 L43.0464531,15.6045525 C44.4302016,15.9522475 45.6827891,16.6687898 46.7071565,17.7092305" id="Fill-42" fill="#221F20"></path>
                                    <polygon id="Fill-44" fill="#221F20" points="30.8337904 0.234983051 25.067953 3.14081356 36.5996278 3.14081356"></polygon>
                                    <path d="M49.0702842,9.52332881 L49.0702842,15.2979729 L54.7993966,15.2979729 C54.7193884,12.1726847 52.1709302,9.60265085 49.0702842,9.52332881" id="Fill-46" fill="#221F20"></path>
                                    <path d="M6.85611738,15.2985017 L12.5852297,15.2985017 L12.5852297,9.52385763 C9.48458375,9.60450169 6.93612558,12.1732136 6.85611738,15.2985017" id="Fill-48" fill="#221F20"></path>
                                    <polygon id="Fill-50" fill="#221F20" points="0.822842681 21.3782712 6.55457824 21.3782712 6.55457824 15.6009831 0.822842681 15.6009831"></polygon>
                                    <polygon id="Fill-52" fill="#221F20" points="0.822842681 27.4569831 6.55457824 27.4569831 6.55457824 21.6796949 0.822842681 21.6796949"></polygon>
                                    <polygon id="Fill-53" fill="#221F20" points="6.85362532 21.3782712 12.5853609 21.3782712 12.5853609 15.6023051 6.85362532 15.6023051"></polygon>
                                    <polygon id="Fill-54" fill="#221F20" points="6.85362532 27.4569831 12.5853609 27.4569831 12.5853609 21.6796949 6.85362532 21.6796949"></polygon>
                                    <polygon id="Fill-55" fill="#221F20" points="12.884408 9.21952542 18.6161435 9.21952542 18.6161435 3.44223729 12.884408 3.44223729"></polygon>
                                    <polygon id="Fill-56" fill="#221F20" points="12.8857196 15.2995593 18.6161435 15.2995593 18.6161435 9.52359322 12.8857196 9.52359322"></polygon>
                                    <polygon id="Fill-57" fill="#221F20" points="18.9151906 9.21952542 24.6469262 9.21952542 24.6469262 3.44223729 18.9151906 3.44223729"></polygon>
                                    <polygon id="Fill-58" fill="#221F20" points="18.9151906 15.2995593 24.6469262 15.2995593 24.6469262 9.52359322 18.9151906 9.52359322"></polygon>
                                    <polygon id="Fill-59" fill="#221F20" points="24.9459732 9.22084746 30.6777088 9.22084746 30.6777088 3.44355932 24.9459732 3.44355932"></polygon>
                                    <polygon id="Fill-60" fill="#221F20" points="24.9459732 15.2995593 30.6777088 15.2995593 30.6777088 9.52359322 24.9459732 9.52359322"></polygon>
                                    <polygon id="Fill-61" fill="#221F20" points="30.9780675 9.21952542 36.7084914 9.21952542 36.7084914 3.44223729 30.9780675 3.44223729"></polygon>
                                    <polygon id="Fill-62" fill="#221F20" points="30.9780675 15.2995593 36.7084914 15.2995593 36.7084914 9.52359322 30.9780675 9.52359322"></polygon>
                                    <polygon id="Fill-63" fill="#221F20" points="37.0088501 9.21952542 42.7392741 9.21952542 42.7392741 3.44223729 37.0088501 3.44223729"></polygon>
                                    <polygon id="Fill-64" fill="#221F20" points="37.0088501 15.2995593 42.7392741 15.2995593 42.7392741 9.52359322 37.0088501 9.52359322"></polygon>
                                    <polygon id="Fill-65" fill="#221F20" points="43.0395016 9.22005424 48.7712371 9.2187322 48.7712371 3.4427661 43.0395016 3.4427661"></polygon>
                                    <polygon id="Fill-66" fill="#221F20" points="43.0396327 15.2995593 48.7700567 15.2995593 48.7700567 9.52359322 43.0396327 9.52359322"></polygon>
                                    <polygon id="Fill-67" fill="#221F20" points="54.8007082 15.6008508 51.936152 15.6008508 49.0702842 15.6008508 49.0702842 21.3768169 54.8007082 21.3768169"></polygon>
                                    <polygon id="Fill-68" fill="#221F20" points="49.0704154 27.4569831 54.8008393 27.4569831 54.8008393 21.6796949 49.0704154 21.6796949"></polygon>
                                    <polygon id="Fill-69" fill="#221F20" points="55.0998864 21.3769492 60.831622 21.3769492 60.831622 15.599661 55.0998864 15.599661"></polygon>
                                    <polygon id="Fill-70" fill="#221F20" points="55.0998864 27.4569831 60.831622 27.4569831 60.831622 21.6796949 55.0998864 21.6796949"></polygon>
                                    <polygon id="Fill-71" fill="#57585A" points="73.1433113 3.65521695 71.1824544 3.65521695 71.1824544 7.05284407 70.6735497 7.05284407 70.6735497 3.20043729 73.1433113 3.20043729"></polygon>
                                    <path d="M76.3201618,5.60878644 C76.3201618,6.07943051 76.1994936,6.45224407 75.9607806,6.72458305 C75.720756,6.99692203 75.3994116,7.13309153 74.9980589,7.13309153 C74.5914598,7.13309153 74.2701154,6.99692203 74.0314024,6.72458305 C73.7926894,6.45224407 73.6733328,6.07943051 73.6733328,5.60878644 C73.6733328,5.13814237 73.7926894,4.76532881 74.0314024,4.49298983 C74.2701154,4.21932881 74.5914598,4.08183729 74.9980589,4.08183729 C75.3994116,4.08183729 75.720756,4.21932881 75.9607806,4.49298983 C76.1994936,4.76532881 76.3201618,5.13814237 76.3201618,5.60878644 M75.82175,5.60878644 C75.82175,5.23465085 75.7496114,4.95570169 75.6040227,4.77458305 C75.458434,4.59214237 75.2564461,4.50092203 74.9980589,4.50092203 C74.7357369,4.50092203 74.5324374,4.59214237 74.3881603,4.77458305 C74.2438832,4.95570169 74.170433,5.23465085 74.170433,5.60878644 C74.170433,5.97102373 74.2438832,6.24600678 74.3894719,6.43241356 C74.5350606,6.62014237 74.7383601,6.71400678 74.9980589,6.71400678 C75.2551345,6.71400678 75.4558108,6.62146441 75.6027111,6.43505763 C75.7482998,6.24997288 75.82175,5.97498983 75.82175,5.60878644" id="Fill-72" fill="#57585A"></path>
                                    <path d="M79.4760265,6.87146102 C79.279285,6.96532542 79.1100873,7.02878305 78.9684335,7.06447797 C78.8280912,7.09885085 78.6877489,7.11735932 78.5474067,7.11735932 C78.3375491,7.11735932 78.146054,7.08695254 77.9716099,7.02613898 C77.7971657,6.96400339 77.6476422,6.87146102 77.5217277,6.74718983 C77.3971247,6.62291864 77.3000656,6.46559661 77.2305502,6.27654576 C77.1610349,6.08617288 77.1269331,5.86539322 77.1269331,5.61156271 C77.1269331,5.15017288 77.2541592,4.78264746 77.5072999,4.50766441 C77.7604407,4.23268136 78.1067057,4.09518983 78.5474067,4.09518983 C78.7126695,4.09518983 78.8753091,4.11766441 79.0353256,4.16525763 C79.195342,4.21152881 79.3422423,4.26837627 79.4760265,4.3358 L79.4760265,4.87651186 L79.4471711,4.87651186 C79.2884663,4.75356271 79.1323847,4.66366441 78.9763031,4.60417288 C78.8215331,4.54600339 78.6720096,4.51691864 78.5264209,4.51691864 C78.2404899,4.51691864 78.0188278,4.61342712 77.8627462,4.80644407 C77.7053531,4.99946102 77.6279681,5.2678339 77.6279681,5.61156271 C77.6279681,5.95396949 77.7053531,6.22102034 77.8614346,6.41139322 C78.0175162,6.60044407 78.2391783,6.69563051 78.5264209,6.69563051 C78.6274149,6.69563051 78.7284088,6.68241017 78.8280912,6.65729153 C78.9277735,6.63085085 79.0195862,6.5978 79.1009061,6.55549492 C79.1664866,6.52244407 79.2333787,6.48410508 79.302894,6.4378339 C79.3724093,6.39288475 79.4209389,6.35851186 79.4471711,6.33603729 L79.4760265,6.33603729 L79.4760265,6.87146102 Z" id="Fill-73" fill="#57585A"></path>
                                    <polygon id="Fill-74" fill="#57585A" points="82.8816218 4.16234915 81.2066959 8.11919661 80.6912331 8.11919661 81.2250584 6.91350169 80.0826461 4.16234915 80.6072901 4.16234915 81.4873804 6.3053661 82.3753403 4.16234915"></polygon>
                                    <path d="M86.3787675,7.74611864 L85.9288852,7.74611864 L85.9288852,7.04544068 L83.7725984,7.04544068 L83.7725984,7.74611864 L83.3240278,7.74611864 L83.3240278,6.63825424 L83.6348794,6.63825424 C83.8342441,6.30642373 83.9837676,5.92171186 84.0821384,5.48544068 C84.1805091,5.05049153 84.2290387,4.6089322 84.2290387,4.16208475 L86.0325024,4.16208475 L86.0325024,6.63825424 L86.3787675,6.63825424 L86.3787675,7.74611864 Z M85.54983,6.63825424 L85.54983,4.57191525 L84.6841674,4.57191525 C84.66187,5.00422034 84.5962895,5.39950847 84.4861143,5.75645763 C84.3772506,6.11340678 84.2513361,6.40822034 84.1096822,6.63825424 L85.54983,6.63825424 Z" id="Fill-75" fill="#57585A"></path>
                                    <path d="M89.5346322,7.05271186 L89.0545829,7.05271186 L89.0545829,6.74467797 C89.0126114,6.77376271 88.953589,6.81474576 88.8814504,6.86762712 C88.8093119,6.92050847 88.7371733,6.96281356 88.6689696,6.99322034 C88.5889614,7.03288136 88.4971487,7.0659322 88.3922199,7.09237288 C88.2872911,7.12013559 88.1653114,7.13335593 88.0249691,7.13335593 C87.766582,7.13335593 87.5475431,7.04610169 87.3678525,6.87423729 C87.188162,6.70237288 87.0989725,6.48159322 87.0989725,6.21454237 C87.0989725,5.99508475 87.1448788,5.8179322 87.2380031,5.68308475 C87.3311274,5.54691525 87.4649117,5.44115254 87.6380442,5.36315254 C87.8124883,5.28515254 88.0210343,5.23227119 88.2663054,5.20583051 C88.5115764,5.1780678 88.7738984,5.15691525 89.0545829,5.14369492 L89.0545829,5.06833898 C89.0545829,4.95728814 89.0349088,4.8660678 88.9968721,4.79335593 C88.9588354,4.7219661 88.9024362,4.66379661 88.8316093,4.62281356 C88.7620939,4.58315254 88.6807741,4.55671186 88.5850266,4.54216949 C88.4892791,4.52894915 88.3882851,4.52233898 88.2846679,4.52233898 C88.1574417,4.52233898 88.0170995,4.53952542 87.8610179,4.57257627 C87.7049363,4.60562712 87.5449199,4.65454237 87.3783454,4.71932203 L87.3521132,4.71932203 L87.3521132,4.22488136 C87.4465491,4.19844068 87.5829566,4.17067797 87.7600239,4.13894915 C87.9384029,4.10854237 88.1141586,4.09267797 88.2872911,4.09267797 C88.4892791,4.09267797 88.6650348,4.10986441 88.8145583,4.14291525 C88.9640819,4.1759661 89.0939312,4.23413559 89.2027949,4.31477966 C89.3103469,4.39410169 89.3929783,4.49722034 89.4493775,4.62281356 C89.5057768,4.74840678 89.5346322,4.90440678 89.5346322,5.09081356 L89.5346322,7.05271186 Z M89.0545829,6.34145763 L89.0545829,5.53633898 C88.9076826,5.54559322 88.7345501,5.55749153 88.5351854,5.57467797 C88.3358207,5.59186441 88.1771159,5.61698305 88.0603826,5.6500339 C87.9226635,5.68969492 87.8111767,5.75183051 87.7246104,5.83511864 C87.6393558,5.91840678 87.5960727,6.03342373 87.5960727,6.18016949 C87.5960727,6.34674576 87.6459138,6.47101695 87.7455962,6.55430508 C87.8439669,6.63759322 87.9961137,6.67989831 88.1994132,6.67989831 C88.3699225,6.67989831 88.5233809,6.64684746 88.6637232,6.58074576 C88.8040654,6.51332203 88.9339148,6.434 89.0545829,6.34145763 L89.0545829,6.34145763 Z" id="Fill-76" fill="#57585A"></path>
                                    <path d="M93.2505544,5.57243051 C93.2505544,5.80775254 93.2164525,6.02192203 93.1495604,6.21493898 C93.0826683,6.40927797 92.989544,6.5745322 92.8675643,6.70805763 C92.7547658,6.83629492 92.6222932,6.93544746 92.4688349,7.00551525 C92.3153765,7.07426102 92.1540485,7.10995593 91.9822276,7.10995593 C91.832704,7.10995593 91.6989198,7.09276949 91.5782517,7.06104068 C91.4575836,7.02798983 91.3342922,6.97643051 91.2096893,6.90768475 L91.2096893,8.1186678 L90.7270168,8.1186678 L90.7270168,4.16182034 L91.2096893,4.16182034 L91.2096893,4.4645661 C91.3382271,4.35615932 91.4825042,4.26493898 91.6425206,4.19222712 C91.8012254,4.11819322 91.9730463,4.08249831 92.1540485,4.08249831 C92.5003135,4.08249831 92.7691935,4.21337966 92.9620002,4.47646441 C93.1548069,4.73954915 93.2505544,5.10443051 93.2505544,5.57243051 M92.7521426,5.58565085 C92.7521426,5.2366339 92.6931202,4.97619322 92.5750753,4.80432881 C92.4570304,4.63114237 92.2760282,4.54521017 92.0307571,4.54521017 C91.8917265,4.54521017 91.7526958,4.57561695 91.6123535,4.63643051 C91.4720113,4.69592203 91.3382271,4.77524407 91.2096893,4.87439661 L91.2096893,6.51239661 C91.3460967,6.5745322 91.4641416,6.61683729 91.5625124,6.63798983 C91.6608831,6.66046441 91.77237,6.67236271 91.8969729,6.67236271 C92.165853,6.67236271 92.3757105,6.58114237 92.5265457,6.39870169 C92.6773808,6.21493898 92.7521426,5.94392203 92.7521426,5.58565085" id="Fill-77" fill="#57585A"></path>
                                    <path d="M96.4115344,6.87146102 C96.2147929,6.96532542 96.0455952,7.02878305 95.905253,7.06447797 C95.7635991,7.09885085 95.6232568,7.11735932 95.4829146,7.11735932 C95.273057,7.11735932 95.0815619,7.08695254 94.9071178,7.02613898 C94.7326737,6.96400339 94.5831501,6.87146102 94.4572356,6.74718983 C94.3339442,6.62291864 94.2355735,6.46559661 94.1660582,6.27654576 C94.0978544,6.08617288 94.062441,5.86539322 94.062441,5.61156271 C94.062441,5.15017288 94.1896671,4.78264746 94.4428079,4.50766441 C94.6959486,4.23268136 95.0422136,4.09518983 95.4829146,4.09518983 C95.6481774,4.09518983 95.8108171,4.11766441 95.9721451,4.16525763 C96.1308499,4.21152881 96.2790618,4.26837627 96.4115344,4.3358 L96.4115344,4.87651186 L96.382679,4.87651186 C96.2239742,4.75356271 96.0678926,4.66366441 95.9131226,4.60417288 C95.757041,4.54600339 95.6075175,4.51691864 95.4619288,4.51691864 C95.1759978,4.51691864 94.9543357,4.61342712 94.7982542,4.80644407 C94.640861,4.99946102 94.563476,5.2678339 94.563476,5.61156271 C94.563476,5.95396949 94.640861,6.22102034 94.7969426,6.41139322 C94.9530241,6.60044407 95.1746862,6.69563051 95.4619288,6.69563051 C95.5629228,6.69563051 95.6626051,6.68241017 95.7635991,6.65729153 C95.8632815,6.63085085 95.9550942,6.5978 96.036414,6.55549492 C96.1019945,6.52244407 96.1688866,6.48410508 96.2384019,6.4378339 C96.3079172,6.39288475 96.3564468,6.35851186 96.382679,6.33603729 L96.4115344,6.33603729 L96.4115344,6.87146102 Z" id="Fill-78" fill="#57585A"></path>
                                    <polygon id="Fill-79" fill="#57585A" points="99.444239 4.58949831 98.4067555 4.58949831 98.4067555 7.05244746 97.924083 7.05244746 97.924083 4.58949831 96.8865996 4.58949831 96.8865996 4.16248136 99.444239 4.16248136"></polygon>
                                    <path d="M102.574659,6.17818644 C102.574659,6.31832203 102.547115,6.44259322 102.492027,6.551 C102.435628,6.65940678 102.359554,6.75062712 102.261184,6.82201695 C102.15232,6.90398305 102.032964,6.96215254 101.903114,6.99784746 C101.774576,7.03486441 101.605379,7.05337288 101.39421,7.05337288 L100.208514,7.05337288 L100.208514,4.16208475 L101.316825,4.16208475 C101.530617,4.16208475 101.691945,4.17001695 101.800809,4.18455932 C101.909672,4.19910169 102.011978,4.23083051 102.107725,4.2810678 C102.215277,4.33791525 102.295286,4.41327119 102.345127,4.50449153 C102.394968,4.59571186 102.4212,4.70279661 102.4212,4.8270678 C102.4212,4.97116949 102.38054,5.09544068 102.300532,5.19988136 C102.219212,5.30564407 102.115595,5.38761017 101.98968,5.44577966 L101.98968,5.47222034 C102.158878,5.51320339 102.29922,5.59252542 102.409396,5.71150847 C102.519571,5.82916949 102.574659,5.98516949 102.574659,6.17818644 M101.925412,4.90242373 C101.925412,4.84028814 101.912295,4.78476271 101.886063,4.73452542 C101.859831,4.68428814 101.819171,4.64594915 101.764084,4.61818644 C101.691945,4.58116949 101.610625,4.56133898 101.521436,4.55737288 C101.430935,4.55340678 101.320759,4.55076271 101.188287,4.55076271 L100.68594,4.55076271 L100.68594,5.34266102 L101.289281,5.34266102 C101.415195,5.34266102 101.509631,5.33737288 101.569965,5.32811864 C101.630299,5.31886441 101.691945,5.2950678 101.753591,5.25672881 C101.819171,5.21574576 101.863766,5.16683051 101.888686,5.11130508 C101.912295,5.05445763 101.925412,4.98571186 101.925412,4.90242373 M102.077558,6.18083051 C102.077558,6.08564407 102.061819,6.0089661 102.03034,5.94947458 C102.000173,5.88998305 101.93197,5.83445763 101.828352,5.78422034 C101.762772,5.75381356 101.691945,5.73530508 101.617183,5.73001695 C101.542421,5.72340678 101.437493,5.72076271 101.303708,5.72076271 L100.68594,5.72076271 L100.68594,6.66469492 L101.14238,6.66469492 C101.333875,6.66469492 101.482087,6.65808475 101.585705,6.64486441 C101.689322,6.6329661 101.778511,6.60388136 101.853273,6.56157627 C101.929346,6.51794915 101.984434,6.4650678 102.022471,6.4029322 C102.059196,6.34079661 102.077558,6.26676271 102.077558,6.18083051" id="Fill-80" fill="#57585A"></path>
                                    <path d="M105.997961,5.65809831 L103.884957,5.65809831 C103.884957,5.83525085 103.911189,5.98992881 103.964965,6.1221322 C104.017429,6.25433559 104.09088,6.36274237 104.182692,6.44735254 C104.271882,6.52931864 104.378122,6.59277627 104.500102,6.63375932 C104.622082,6.67474237 104.757177,6.69589492 104.904078,6.69589492 C105.099508,6.69589492 105.296249,6.6562339 105.492991,6.5782339 C105.691044,6.49891186 105.832698,6.4222339 105.915329,6.34687797 L105.941561,6.34687797 L105.941561,6.87701356 C105.778922,6.94575932 105.612347,7.00392881 105.44315,7.0502 C105.273952,7.09647119 105.095573,7.1202678 104.909324,7.1202678 C104.434521,7.1202678 104.062024,6.99070847 103.795767,6.7302678 C103.528199,6.47114915 103.394415,6.10230169 103.394415,5.62372542 C103.394415,5.15175932 103.522953,4.77630169 103.778716,4.49867458 C104.03448,4.22104746 104.371564,4.0822339 104.788656,4.0822339 C105.175581,4.0822339 105.473317,4.19592881 105.683174,4.42331864 C105.893032,4.65070847 105.997961,4.97460678 105.997961,5.39369153 L105.997961,5.65809831 Z M105.528404,5.28528475 C105.527093,5.0301322 105.462824,4.83182712 105.336909,4.69301356 C105.210995,4.55287797 105.019499,4.48281017 104.762424,4.48281017 C104.505348,4.48281017 104.299426,4.55948814 104.145967,4.71284407 C103.992509,4.86752203 103.905943,5.05789492 103.884957,5.28528475 L105.528404,5.28528475 Z" id="Fill-81" fill="#57585A"></path>
                                    <polygon id="Fill-82" fill="#57585A" points="109.392669 7.05271186 108.909997 7.05271186 108.909997 5.75183051 107.475096 5.75183051 107.475096 7.05271186 106.992423 7.05271186 106.992423 4.16274576 107.475096 4.16274576 107.475096 5.33142373 108.909997 5.33142373 108.909997 4.16274576 109.392669 4.16274576"></polygon>
                                    <polygon id="Fill-83" fill="#57585A" points="113.006024 7.05271186 112.523351 7.05271186 112.523351 5.75183051 111.08845 5.75183051 111.08845 7.05271186 110.605778 7.05271186 110.605778 4.16274576 111.08845 4.16274576 111.08845 5.33142373 112.523351 5.33142373 112.523351 4.16274576 113.006024 4.16274576"></polygon>
                                    <path d="M116.482708,6.1571661 C116.482708,6.29730169 116.455164,6.42421695 116.398765,6.53791186 C116.343678,6.65160678 116.267604,6.74414915 116.171857,6.81421695 C116.059058,6.90147119 115.93839,6.96228475 115.809852,6.99797966 C115.682626,7.03499661 115.516052,7.05218305 115.315375,7.05218305 L114.218869,7.05218305 L114.218869,4.16221695 L114.701542,4.16221695 L114.701542,5.2872678 L115.32718,5.2872678 C115.543596,5.2872678 115.71017,5.2991661 115.829527,5.32164068 C115.948883,5.34411525 116.066928,5.39964068 116.184973,5.48689492 C116.284655,5.56092881 116.359417,5.65611525 116.407947,5.7711322 C116.457788,5.88747119 116.482708,6.01570847 116.482708,6.1571661 L116.482708,6.1571661 Z M115.985608,6.16509831 C115.985608,6.07784407 115.969869,5.99984407 115.939702,5.93374237 C115.909535,5.86764068 115.861005,5.81343729 115.792801,5.7711322 C115.720663,5.72882712 115.639343,5.70238644 115.54753,5.69445424 C115.455718,5.6852 115.324557,5.6812339 115.152736,5.6812339 L114.701542,5.6812339 L114.701542,6.66482712 L115.143555,6.66482712 C115.314064,6.66482712 115.446536,6.65689492 115.540972,6.64235254 C115.635408,6.62781017 115.716728,6.60004746 115.784932,6.55906441 C115.854447,6.51279322 115.9056,6.45991186 115.937079,6.39909831 C115.968557,6.33828475 115.985608,6.26028475 115.985608,6.16509831 L115.985608,6.16509831 Z M116.962758,7.05218305 L117.44543,7.05218305 L117.44543,4.16221695 L116.962758,4.16221695 L116.962758,7.05218305 Z" id="Fill-84" fill="#57585A"></path>
                                    <path d="M121.07413,7.05271186 L120.596704,7.05271186 L120.596704,4.8819322 L119.094911,7.05271186 L118.658145,7.05271186 L118.658145,4.16274576 L119.135571,4.16274576 L119.135571,6.30179661 L120.621625,4.16274576 L121.07413,4.16274576 L121.07413,7.05271186 Z M120.798692,3.02447458 C120.790822,3.27962712 120.710814,3.4779322 120.558667,3.6220339 C120.407832,3.76481356 120.187482,3.83620339 119.897616,3.83620339 C119.609062,3.83620339 119.388711,3.76481356 119.236565,3.6220339 C119.085729,3.4779322 119.005721,3.27962712 118.997852,3.02447458 L119.435929,3.02447458 C119.437241,3.20559322 119.477901,3.33647458 119.555286,3.41711864 C119.632671,3.49776271 119.748092,3.53874576 119.897616,3.53874576 C120.051074,3.53874576 120.165184,3.49908475 120.242569,3.41976271 C120.318643,3.34044068 120.359303,3.20823729 120.360614,3.02447458 L120.798692,3.02447458 Z" id="Fill-85" fill="#57585A"></path>
                                    <polygon id="Fill-86" fill="#57585A" points="72.9095824 13.8722915 70.6352507 13.8722915 70.6352507 10.9823254 71.1179231 10.9823254 71.1179231 13.4532068 72.5305271 13.4532068 72.5305271 10.9823254 73.0131995 10.9823254 73.0131995 13.4532068 73.3594646 13.4532068 73.3594646 14.5650373 72.9095824 14.5650373"></polygon>
                                    <path d="M76.6870191,12.4775458 L74.5740154,12.4775458 C74.5740154,12.6546983 74.6002476,12.8093763 74.6540236,12.9415797 C74.706488,13.0737831 74.7799382,13.1821898 74.8717509,13.2668 C74.9609404,13.3500881 75.0671808,13.4122237 75.1891605,13.4532068 C75.3111402,13.4941898 75.446236,13.5153424 75.5931364,13.5153424 C75.7885662,13.5153424 75.9853077,13.4756814 76.1820492,13.3976814 C76.3801023,13.3196814 76.5217562,13.2416814 76.6043876,13.1650034 L76.6306198,13.1650034 L76.6306198,13.696461 C76.4679802,13.7652068 76.3014057,13.8233763 76.1322081,13.8696475 C75.9630104,13.9159186 75.7846314,13.9397153 75.5983828,13.9397153 C75.1222684,13.9397153 74.7510828,13.8101559 74.4848259,13.5497153 C74.2172575,13.2905966 74.0834733,12.9217492 74.0834733,12.4431729 C74.0834733,11.9712068 74.2120111,11.5957492 74.467775,11.318122 C74.7235389,11.0404949 75.0606227,10.9016814 75.4777147,10.9016814 C75.8646396,10.9016814 76.1623751,11.0153763 76.3722327,11.2427661 C76.5820903,11.471478 76.6870191,11.7940542 76.6870191,12.213139 L76.6870191,12.4775458 Z M76.2174627,12.1047322 C76.2148395,11.8495797 76.1518822,11.6525966 76.0259676,11.512461 C75.9000531,11.3723254 75.708558,11.3022576 75.4527941,11.3022576 C75.1930953,11.3022576 74.9884842,11.3789356 74.8350258,11.5336136 C74.6815674,11.6869695 74.5950012,11.8773424 74.5740154,12.1047322 L76.2174627,12.1047322 Z" id="Fill-87" fill="#57585A"></path>
                                    <polygon id="Fill-88" fill="#57585A" points="80.081728 13.8722915 79.5990555 13.8722915 79.5990555 12.5714102 78.1641542 12.5714102 78.1641542 13.8722915 77.6814817 13.8722915 77.6814817 10.9823254 78.1641542 10.9823254 78.1641542 12.1510034 79.5990555 12.1510034 79.5990555 10.9823254 80.081728 10.9823254"></polygon>
                                    <polygon id="Fill-89" fill="#57585A" points="83.4020686 11.409078 82.3645851 11.409078 82.3645851 13.8720271 81.8832243 13.8720271 81.8832243 11.409078 80.8457408 11.409078 80.8457408 10.982061 83.4020686 10.982061"></polygon>
                                    <path d="M86.689619,12.3921424 C86.689619,12.6274644 86.6555172,12.8416339 86.5899367,13.0346508 C86.5230445,13.2289898 86.4286086,13.3942441 86.3066289,13.5277695 C86.1938304,13.6560068 86.0613578,13.7551593 85.9078995,13.8239051 C85.7544411,13.8939729 85.5918015,13.9296678 85.4212922,13.9296678 C85.2717686,13.9296678 85.1379844,13.9124814 85.0173163,13.8794305 C84.8953366,13.8477017 84.7733568,13.7961424 84.6487539,13.7273966 L84.6487539,14.9383797 L84.1660814,14.9383797 L84.1660814,10.9815322 L84.6487539,10.9815322 L84.6487539,11.284278 C84.7759801,11.1758712 84.9215688,11.0846508 85.0815852,11.011939 C85.24029,10.9379051 85.4121109,10.9022102 85.5931131,10.9022102 C85.9380665,10.9022102 86.2082582,11.0330915 86.4010648,11.2961763 C86.5925599,11.559261 86.689619,11.9241424 86.689619,12.3921424 M86.1912072,12.4053627 C86.1912072,12.0563458 86.1321848,11.7959051 86.0141399,11.6240407 C85.896095,11.4508542 85.7150928,11.364922 85.4698217,11.364922 C85.3307911,11.364922 85.1917604,11.3953288 85.0514182,11.4561424 C84.9110759,11.5156339 84.7759801,11.5949559 84.6487539,11.6941085 L84.6487539,13.3321085 C84.7851613,13.3942441 84.9032062,13.4352271 85.001577,13.4577017 C85.0999477,13.4801763 85.2114346,13.4920746 85.3360375,13.4920746 C85.6049176,13.4920746 85.8147752,13.4008542 85.9656103,13.2170915 C86.1164455,13.0346508 86.1912072,12.7636339 86.1912072,12.4053627" id="Fill-90" fill="#57585A"></path>
                                    <path d="M89.9325747,13.8722915 L89.4525254,13.8722915 L89.4525254,13.5642576 C89.4092423,13.5933424 89.3515314,13.6343254 89.2793929,13.6872068 C89.2059427,13.7400881 89.1364274,13.7823932 89.0682237,13.8128 C88.9869039,13.852461 88.8950912,13.8855119 88.7901624,13.9119525 C88.6852336,13.9397153 88.5632539,13.9529356 88.4229116,13.9529356 C88.1645244,13.9529356 87.9454856,13.8656814 87.765795,13.6938169 C87.5861044,13.5206305 87.4969149,13.3011729 87.4969149,13.034122 C87.4969149,12.8146644 87.5428213,12.6375119 87.6359456,12.5026644 C87.7290699,12.3664949 87.8628541,12.2607322 88.0359866,12.1827322 C88.2104308,12.1047322 88.4189768,12.0518508 88.6642478,12.0254102 C88.9095189,11.9976475 89.1718409,11.9764949 89.4525254,11.9632746 L89.4525254,11.8879186 C89.4525254,11.7768678 89.4328513,11.6856475 89.3948146,11.6129356 C89.3567779,11.5415458 89.3003787,11.4833763 89.2295517,11.4423932 C89.1600364,11.4027322 89.0787166,11.3762915 88.982969,11.3617492 C88.8872215,11.3485288 88.7875392,11.3419186 88.6826104,11.3419186 C88.5553842,11.3419186 88.4150419,11.3577831 88.2589603,11.3921559 C88.1028788,11.4265288 87.9415507,11.474122 87.7762879,11.5375797 L87.7500557,11.5375797 L87.7500557,11.044461 C87.8444916,11.0180203 87.980899,10.9902576 88.159278,10.9585288 C88.3363453,10.928122 88.5121011,10.9122576 88.6852336,10.9122576 C88.8872215,10.9122576 89.0629773,10.9294441 89.2125008,10.9624949 C89.3620243,10.9955458 89.4918737,11.0537153 89.6020489,11.1343593 C89.709601,11.2136814 89.7909208,11.3168 89.84732,11.4423932 C89.9037192,11.5679864 89.9325747,11.7253085 89.9325747,11.9103932 L89.9325747,13.8722915 Z M89.4525254,13.1610373 L89.4525254,12.3559186 C89.3056251,12.3651729 89.1324926,12.3770712 88.9331279,12.3942576 C88.7337631,12.4114441 88.5750583,12.4365627 88.4583251,12.4696136 C88.320606,12.5092746 88.2078076,12.5714102 88.1225529,12.6546983 C88.0372983,12.7393085 87.9940151,12.8530034 87.9940151,12.9997492 C87.9940151,13.1650034 88.0438563,13.2905966 88.1435387,13.3738847 C88.243221,13.4571729 88.3940562,13.499478 88.5973557,13.499478 C88.7665534,13.499478 88.9213234,13.4664271 89.0616656,13.4003254 C89.2020079,13.3329017 89.3331689,13.2535797 89.4525254,13.1610373 L89.4525254,13.1610373 Z" id="Fill-91" fill="#57585A"></path>
                                    <path d="M93.4379835,13.8722915 L92.955311,13.8722915 L92.955311,11.3908339 L91.8850373,11.3908339 C91.8797908,11.5336136 91.8745444,11.6724271 91.8692979,11.8046305 C91.8640515,11.9381559 91.8588051,12.057139 91.8535586,12.1642237 C91.8417541,12.4524271 91.82208,12.682461 91.7945362,12.8543254 C91.7669924,13.0248678 91.7315789,13.1689695 91.6869842,13.2826644 C91.6463242,13.3897492 91.6004179,13.4756814 91.5492651,13.5417831 C91.4994239,13.6092068 91.4443363,13.6686983 91.3866255,13.7215797 C91.3289146,13.774461 91.2633341,13.8128 91.1925072,13.8379186 C91.1216803,13.8643593 91.0442953,13.8775797 90.9603522,13.8775797 C90.9314968,13.8775797 90.8895253,13.8762576 90.8331261,13.8749356 C90.7780384,13.8736136 90.7413134,13.8722915 90.7242624,13.8722915 L90.7242624,13.4479186 L90.7504946,13.4479186 C90.7636107,13.4479186 90.7832849,13.4492407 90.8095171,13.4505627 C90.8344377,13.4518847 90.8554234,13.4532068 90.873786,13.4532068 C90.9144459,13.4532068 90.9564174,13.4465966 90.9997005,13.4346983 C91.0442953,13.4228 91.0810203,13.4003254 91.112499,13.3672746 C91.1990652,13.2813424 91.2698922,13.1359186 91.3223566,12.9310034 C91.374821,12.7247661 91.4115461,12.4286305 91.4272854,12.0399525 C91.435155,11.8984949 91.4404015,11.7305966 91.4469595,11.5362576 C91.4535176,11.3432407 91.458764,11.1581559 91.4640105,10.9823254 L93.4379835,10.9823254 L93.4379835,13.8722915 Z" id="Fill-92" fill="#57585A"></path>
                                    <path d="M96.9405067,12.976878 C96.9405067,13.1170136 96.9129629,13.2439288 96.8565637,13.3576237 C96.8014761,13.4713186 96.7254027,13.563861 96.6296552,13.6339288 C96.5168567,13.719861 96.3961886,13.7819966 96.2676508,13.8176915 C96.139113,13.8547085 95.9738502,13.8718949 95.7718622,13.8718949 L94.6504357,13.8718949 L94.6504357,10.9819288 L95.1331082,10.9819288 L95.1331082,12.1069797 L95.7849783,12.1069797 C96.001394,12.1069797 96.1679685,12.118878 96.287325,12.1413525 C96.4053699,12.1638271 96.5247264,12.2193525 96.6427713,12.3066068 C96.7424536,12.3806407 96.8159038,12.4758271 96.865745,12.5908441 C96.9155861,12.7071831 96.9405067,12.8354203 96.9405067,12.976878 M96.4420949,12.9848102 C96.4420949,12.8975559 96.4276672,12.8195559 96.3975002,12.7534542 C96.3673332,12.6873525 96.3188036,12.6331492 96.2505999,12.5908441 C96.1784613,12.548539 96.0958299,12.5220983 96.0053288,12.5141661 C95.9135161,12.5049119 95.7810435,12.5009458 95.6105342,12.5009458 L95.1331082,12.5009458 L95.1331082,13.484539 L95.6013529,13.484539 C95.7718622,13.484539 95.9043348,13.4766068 95.9987708,13.4620644 C96.0918951,13.447522 96.1745265,13.4197593 96.2427302,13.3774542 C96.3122455,13.3325051 96.3633983,13.2796237 96.394877,13.2188102 C96.4263556,13.1579966 96.4420949,13.0799966 96.4420949,12.9848102" id="Fill-93" fill="#57585A"></path>
                                    <polygon id="Fill-94" fill="#57585A" points="100.314755 13.8722915 99.8320821 13.8722915 99.8320821 12.5714102 98.3971808 12.5714102 98.3971808 13.8722915 97.9145083 13.8722915 97.9145083 10.9823254 98.3971808 10.9823254 98.3971808 12.1510034 99.8320821 12.1510034 99.8320821 10.9823254 100.314755 10.9823254"></polygon>
                                    <path d="M103.791833,12.976878 C103.791833,13.1170136 103.764289,13.2439288 103.70789,13.3576237 C103.652802,13.4713186 103.576729,13.563861 103.480981,13.6339288 C103.368183,13.719861 103.247514,13.7819966 103.118977,13.8176915 C102.990439,13.8547085 102.825176,13.8718949 102.623188,13.8718949 L101.526682,13.8718949 L101.526682,10.9819288 L102.009355,10.9819288 L102.009355,12.1069797 L102.636304,12.1069797 C102.85272,12.1069797 103.019294,12.118878 103.138651,12.1413525 C103.256696,12.1638271 103.376052,12.2193525 103.494097,12.3066068 C103.592468,12.3806407 103.66723,12.4758271 103.717071,12.5908441 C103.766912,12.7071831 103.791833,12.8354203 103.791833,12.976878 L103.791833,12.976878 Z M103.293421,12.9848102 C103.293421,12.8975559 103.278993,12.8195559 103.248826,12.7534542 C103.218659,12.6873525 103.170129,12.6331492 103.100614,12.5908441 C103.028476,12.548539 102.947156,12.5220983 102.855343,12.5141661 C102.764842,12.5049119 102.632369,12.5009458 102.46186,12.5009458 L102.009355,12.5009458 L102.009355,13.484539 L102.451367,13.484539 C102.623188,13.484539 102.755661,13.4766068 102.850097,13.4620644 C102.943221,13.447522 103.024541,13.4197593 103.094056,13.3774542 C103.163571,13.3325051 103.214724,13.2796237 103.246203,13.2188102 C103.277681,13.1579966 103.293421,13.0799966 103.293421,12.9848102 L103.293421,12.9848102 Z M104.271882,13.8718949 L104.754554,13.8718949 L104.754554,10.9819288 L104.271882,10.9819288 L104.271882,13.8718949 Z" id="Fill-95" fill="#57585A"></path>
                                    <path d="M108.38273,13.8722915 L107.905304,13.8722915 L107.905304,11.7015119 L106.40351,13.8722915 L105.966744,13.8722915 L105.966744,10.9823254 L106.44417,10.9823254 L106.44417,13.1213763 L107.931536,10.9823254 L108.38273,10.9823254 L108.38273,13.8722915 Z M108.107292,9.84405424 C108.099422,10.0992068 108.019414,10.2975119 107.868579,10.4416136 C107.716432,10.5843932 107.496081,10.6557831 107.207527,10.6557831 C106.917661,10.6557831 106.697311,10.5843932 106.546476,10.4416136 C106.394329,10.2975119 106.314321,10.0992068 106.306451,9.84405424 L106.744529,9.84405424 C106.747152,10.0238508 106.7865,10.1560542 106.863885,10.2366983 C106.942582,10.3173424 107.056692,10.3583254 107.207527,10.3583254 C107.359674,10.3583254 107.473784,10.3186644 107.551169,10.2393424 C107.628554,10.1600203 107.667902,10.0278169 107.669214,9.84405424 L108.107292,9.84405424 Z" id="Fill-96" fill="#57585A"></path>
                                    <polygon id="Fill-97" fill="#57585A" points="114.417841 13.8722915 113.940415 13.8722915 113.940415 11.590461 113.226899 13.0751051 112.867518 13.0751051 112.159248 11.590461 112.159248 13.8722915 111.706743 13.8722915 111.706743 10.9823254 112.289098 10.9823254 113.069506 12.5991729 113.824993 10.9823254 114.417841 10.9823254"></polygon>
                                    <polygon id="Fill-98" fill="#57585A" points="118.110547 10.9819288 116.436933 14.9387763 115.920159 14.9387763 116.453984 13.7330814 115.311572 10.9819288 115.836216 10.9819288 116.716306 13.1249458 117.604266 10.9819288"></polygon>
                                    <path d="M120.999762,13.0622814 C120.999762,13.2248915 120.961725,13.361061 120.888275,13.4734339 C120.813513,13.5858068 120.717766,13.6770271 120.601032,13.7457729 C120.485611,13.8131966 120.357073,13.8621119 120.216731,13.8925186 C120.076388,13.9242475 119.936046,13.9401119 119.795704,13.9401119 C119.597651,13.9401119 119.407467,13.9202814 119.227777,13.8832644 C119.048086,13.8449254 118.871019,13.7854339 118.696575,13.7061119 L118.696575,13.1733322 L118.730677,13.1733322 C118.85528,13.2843831 119.013984,13.3689932 119.208103,13.4298068 C119.400909,13.4906203 119.58847,13.5210271 119.769472,13.5210271 C119.856038,13.5210271 119.943916,13.5117729 120.034417,13.4959085 C120.124918,13.478722 120.203615,13.4536034 120.270507,13.4165864 C120.342645,13.3756034 120.399044,13.3253661 120.442328,13.2685186 C120.485611,13.2103492 120.506597,13.1310271 120.506597,13.0318746 C120.506597,12.9274339 120.485611,12.8454678 120.443639,12.7833322 C120.401668,12.7211966 120.345268,12.6736034 120.27313,12.6431966 C120.202303,12.6114678 120.11836,12.5929593 120.018678,12.5863492 C119.920307,12.579739 119.828494,12.5757729 119.745863,12.5757729 L119.328771,12.5757729 L119.328771,12.1566881 L119.618637,12.1566881 C119.68684,12.1566881 119.77603,12.1540441 119.886205,12.1487559 C119.997692,12.1434678 120.086881,12.1302475 120.155085,12.1077729 C120.244275,12.0786881 120.31379,12.0363831 120.366254,11.9835017 C120.418719,11.9292983 120.444951,11.8446881 120.444951,11.7270271 C120.444951,11.6463831 120.423965,11.5789593 120.383305,11.526078 C120.342645,11.4745186 120.291492,11.4335356 120.229847,11.4044508 C120.165578,11.3740441 120.096063,11.3542136 120.017366,11.3436373 C119.939981,11.3343831 119.870466,11.3290949 119.810132,11.3290949 C119.635687,11.3290949 119.465178,11.3528915 119.295981,11.4004847 C119.128094,11.4467559 118.986441,11.5155017 118.871019,11.6054 L118.838229,11.6054 L118.838229,11.0699763 C118.979883,11.0237051 119.132029,10.9853661 119.294669,10.9562814 C119.457309,10.9271966 119.619948,10.9113322 119.782588,10.9113322 C119.916372,10.9113322 120.048845,10.9245525 120.181317,10.9483492 C120.31379,10.9721458 120.438393,11.0144508 120.552503,11.0726203 C120.665301,11.1307898 120.758426,11.2114339 120.829253,11.3119085 C120.901391,11.4123831 120.938116,11.5366542 120.938116,11.6860441 C120.938116,11.838078 120.890898,11.9702814 120.797774,12.0852983 C120.70465,12.2003153 120.580047,12.2822814 120.421342,12.3325186 L120.421342,12.3510271 C120.598409,12.3933322 120.738751,12.4739763 120.842369,12.5929593 C120.947297,12.7106203 120.999762,12.8679424 120.999762,13.0622814" id="Fill-99" fill="#57585A"></path>
                                    <path d="M124.425031,12.4775458 L122.312028,12.4775458 C122.312028,12.6546983 122.33826,12.8093763 122.392036,12.9415797 C122.4445,13.0737831 122.51795,13.1821898 122.609763,13.2668 C122.698953,13.3500881 122.805193,13.4122237 122.927173,13.4532068 C123.049152,13.4941898 123.184248,13.5153424 123.331149,13.5153424 C123.526578,13.5153424 123.72332,13.4756814 123.920061,13.3976814 C124.118115,13.3196814 124.259768,13.2416814 124.3424,13.1650034 L124.368632,13.1650034 L124.368632,13.696461 C124.205992,13.7652068 124.039418,13.8233763 123.871532,13.8696475 C123.701023,13.9159186 123.522644,13.9397153 123.336395,13.9397153 C122.861592,13.9397153 122.489095,13.8101559 122.222838,13.5497153 C121.95527,13.2905966 121.821486,12.9217492 121.821486,12.4431729 C121.821486,11.9712068 121.950023,11.5957492 122.205787,11.318122 C122.461551,11.0404949 122.798635,10.9016814 123.215727,10.9016814 C123.602652,10.9016814 123.900387,11.0153763 124.110245,11.2427661 C124.320102,11.471478 124.425031,11.7940542 124.425031,12.213139 L124.425031,12.4775458 Z M123.955475,12.1047322 C123.954163,11.8495797 123.889894,11.6525966 123.76398,11.512461 C123.638065,11.3723254 123.44657,11.3022576 123.189495,11.3022576 C122.932419,11.3022576 122.726496,11.3789356 122.573038,11.5336136 C122.41958,11.6869695 122.333013,11.8773424 122.312028,12.1047322 L123.955475,12.1047322 Z" id="Fill-100" fill="#57585A"></path>
                                    <path d="M127.835086,13.8722915 L127.35766,13.8722915 L127.35766,11.7015119 L125.855867,13.8722915 L125.420412,13.8722915 L125.420412,10.9823254 L125.896527,10.9823254 L125.896527,13.1213763 L127.383892,10.9823254 L127.835086,10.9823254 L127.835086,13.8722915 Z M127.56096,9.84405424 C127.551778,10.0992068 127.47177,10.2975119 127.320935,10.4416136 C127.168788,10.5843932 126.948438,10.6557831 126.659884,10.6557831 C126.370018,10.6557831 126.149667,10.5843932 125.998832,10.4416136 C125.846685,10.2975119 125.766677,10.0992068 125.758807,9.84405424 L126.198197,9.84405424 C126.199508,10.0238508 126.238857,10.1560542 126.317553,10.2366983 C126.394938,10.3173424 126.509048,10.3583254 126.659884,10.3583254 C126.81203,10.3583254 126.92614,10.3186644 127.003525,10.2393424 C127.08091,10.1600203 127.120259,10.0278169 127.12157,9.84405424 L127.56096,9.84405424 Z" id="Fill-101" fill="#57585A"></path>
                                    <path d="M72.7810446,20.5107525 C72.5843031,20.6046169 72.4151054,20.6680746 72.2747631,20.7037695 C72.1331093,20.7394644 71.992767,20.7566508 71.8524247,20.7566508 C71.6425671,20.7566508 71.4510721,20.7262441 71.276628,20.6641085 C71.1021838,20.6032949 70.9526603,20.5107525 70.8280573,20.3864814 C70.7034544,20.2622102 70.6050836,20.1048881 70.5355683,19.9158373 C70.4673646,19.7254644 70.4319511,19.5046847 70.4319511,19.2508542 C70.4319511,18.7894644 70.5591773,18.421939 70.812318,18.1469559 C71.0654587,17.8719729 71.4117238,17.7344814 71.8524247,17.7344814 C72.0176876,17.7344814 72.1803272,17.7569559 72.3403436,17.8032271 C72.5016717,17.8508203 72.648572,17.9076678 72.7810446,17.9750915 L72.7810446,18.5158034 L72.7521892,18.5158034 C72.594796,18.3928542 72.4374028,18.3029559 72.2826328,18.2434644 C72.1265512,18.1852949 71.9770277,18.1562102 71.831439,18.1562102 C71.545508,18.1562102 71.3251575,18.2527186 71.1677643,18.4457356 C71.0116827,18.6387525 70.9329861,18.9071254 70.9329861,19.2508542 C70.9329861,19.593261 71.0116827,19.8603119 71.1664527,20.0493627 C71.3225343,20.2397356 71.5441964,20.334922 71.831439,20.334922 C71.9324329,20.334922 72.0321153,20.3217017 72.1331093,20.2965831 C72.2327916,20.2701424 72.3246043,20.2370915 72.4059241,20.1947864 C72.4715046,20.1617356 72.5383967,20.1220746 72.6079121,20.0771254 C72.6774274,20.0321763 72.725957,19.9978034 72.7521892,19.9753288 L72.7810446,19.9753288 L72.7810446,20.5107525 Z" id="Fill-102" fill="#57585A"></path>
                                    <path d="M76.1507018,19.2479458 C76.1507018,19.7185898 76.0313452,20.0900814 75.7913206,20.3637424 C75.551296,20.6360814 75.2299516,20.7722508 74.8285989,20.7722508 C74.4219998,20.7722508 74.1006554,20.6360814 73.8619424,20.3637424 C73.6232293,20.0900814 73.5038728,19.7185898 73.5038728,19.2479458 C73.5038728,18.7759797 73.6232293,18.4044881 73.8619424,18.1321492 C74.1006554,17.8584881 74.4219998,17.7209966 74.8285989,17.7209966 C75.2299516,17.7209966 75.551296,17.8584881 75.7913206,18.1321492 C76.0313452,18.4044881 76.1507018,18.7759797 76.1507018,19.2479458 M75.65229,19.2479458 C75.65229,18.8738102 75.5801514,18.594861 75.4345627,18.4137424 C75.288974,18.2313017 75.0869861,18.1400814 74.8285989,18.1400814 C74.5662769,18.1400814 74.3629774,18.2313017 74.2187003,18.4137424 C74.0744232,18.594861 74.0022846,18.8738102 74.0022846,19.2479458 C74.0022846,19.6101831 74.0744232,19.8851661 74.2200119,20.0715729 C74.3656006,20.2593017 74.5689001,20.3531661 74.8285989,20.3531661 C75.0856745,20.3531661 75.2863508,20.2606237 75.4332511,20.0742169 C75.5788398,19.8891322 75.65229,19.6141492 75.65229,19.2479458" id="Fill-103" fill="#57585A"></path>
                                    <path d="M79.5275728,19.8176102 C79.5275728,19.9577458 79.500029,20.0806949 79.4436297,20.1891017 C79.3885421,20.2975085 79.3111571,20.3887288 79.214098,20.4614407 C79.1052344,20.5420847 78.9858779,20.6015763 78.8560285,20.6372712 C78.7274907,20.6742881 78.5569814,20.6914746 78.3458122,20.6914746 L77.1601168,20.6914746 L77.1601168,17.8015085 L78.2697388,17.8015085 C78.4835312,17.8015085 78.6448593,17.8094407 78.7537229,17.822661 C78.8625865,17.8385254 78.9648921,17.8702542 79.0606396,17.9204915 C79.1681916,17.977339 79.2468882,18.0513729 79.298041,18.1425932 C79.3478822,18.2351356 79.3741144,18.3422203 79.3741144,18.4664915 C79.3741144,18.6092712 79.3334545,18.7335424 79.2521347,18.8393051 C79.1721265,18.9450678 79.0685093,19.0257119 78.9425947,19.0852034 L78.9425947,19.110322 C79.1117924,19.1526271 79.2508231,19.2319492 79.3623099,19.3496102 C79.4724852,19.4685932 79.5275728,19.6232712 79.5275728,19.8176102 M78.8783258,18.5418475 C78.8783258,18.4797119 78.8652097,18.4228644 78.8376659,18.3739492 C78.8114337,18.3237119 78.7707738,18.2840508 78.7169978,18.2562881 C78.6448593,18.2205932 78.5635395,18.2007627 78.47435,18.1954746 C78.3838489,18.1915085 78.272362,18.1901864 78.141201,18.1901864 L77.6375428,18.1901864 L77.6375428,18.9820847 L78.242195,18.9820847 C78.3681096,18.9820847 78.4612339,18.9767966 78.5228795,18.9675424 C78.5832136,18.9582881 78.6448593,18.9344915 78.7065049,18.8961525 C78.7707738,18.8551695 78.8153686,18.8062542 78.8402892,18.7507288 C78.8665214,18.6938814 78.8783258,18.6238136 78.8783258,18.5418475 M79.029161,19.8189322 C79.029161,19.7250678 79.0134217,19.6470678 78.9832546,19.5888983 C78.9530876,19.5280847 78.8848839,19.4738814 78.7799551,19.4236441 C78.7156862,19.3932373 78.6448593,19.3747288 78.5700975,19.3681186 C78.4953357,19.3615085 78.3904069,19.3588644 78.2566227,19.3588644 L77.6375428,19.3588644 L77.6375428,20.3041186 L78.0952947,20.3041186 C78.2867897,20.3041186 78.4336901,20.2975085 78.5373073,20.2842881 C78.6409244,20.2710678 78.7314255,20.2433051 78.8061873,20.199678 C78.8809491,20.1573729 78.9373483,20.1044915 78.9740734,20.0423559 C79.0107985,19.9802203 79.029161,19.9061864 79.029161,19.8189322" id="Fill-104" fill="#57585A"></path>
                                    <path d="M83.0739038,19.211722 C83.0739038,19.4470441 83.039802,19.6598915 82.9742215,19.8542305 C82.9073293,20.0485695 82.8128934,20.2125017 82.6909137,20.3473492 C82.5781152,20.4755864 82.4456426,20.574739 82.2921843,20.6434847 C82.1387259,20.7135525 81.9760863,20.7492475 81.805577,20.7492475 C81.6560534,20.7492475 81.5222692,20.732061 81.4016011,20.6990102 C81.280933,20.6672814 81.1576416,20.615722 81.0330387,20.5469763 L81.0330387,21.7579593 L80.5503662,21.7579593 L80.5503662,17.8011119 L81.0330387,17.8011119 L81.0330387,18.1038576 C81.1602649,17.9954508 81.3058536,17.9042305 81.4645584,17.8315186 C81.6258864,17.7574847 81.7963957,17.7217898 81.9773979,17.7217898 C82.3223513,17.7217898 82.592543,17.8526712 82.7853496,18.1157559 C82.9768447,18.3788407 83.0739038,18.743722 83.0739038,19.211722 M82.575492,19.2249424 C82.575492,18.8759254 82.5164696,18.6154847 82.3984247,18.4436203 C82.2803798,18.2704339 82.0993776,18.1845017 81.8541065,18.1845017 C81.7163875,18.1845017 81.5760452,18.2149085 81.435703,18.275722 C81.2953607,18.3352136 81.1602649,18.4145356 81.0330387,18.5136881 L81.0330387,20.1516881 C81.1694461,20.2125017 81.287491,20.2548068 81.3858618,20.2772814 C81.4842325,20.2997559 81.5957194,20.3116542 81.7203223,20.3116542 C81.9892024,20.3116542 82.19906,20.2204339 82.3498951,20.0366712 C82.5007303,19.8542305 82.575492,19.5832136 82.575492,19.2249424" id="Fill-105" fill="#57585A"></path>
                                    <path d="M86.489205,19.2971254 L84.3762014,19.2971254 C84.3762014,19.474278 84.4024336,19.6289559 84.4562096,19.7611593 C84.508674,19.8933627 84.5821241,20.0017695 84.6739368,20.0863797 C84.7631263,20.1696678 84.8680551,20.2304814 84.9913464,20.2727864 C85.1133262,20.3137695 85.248422,20.334922 85.3953223,20.334922 C85.5907522,20.334922 85.7874937,20.295261 85.9842352,20.217261 C86.1822883,20.139261 86.3239422,20.061261 86.4065736,19.9845831 L86.4328058,19.9845831 L86.4328058,20.5160407 C86.2701661,20.5847864 86.1035917,20.6429559 85.934394,20.6892271 C85.7651963,20.7354983 85.5868174,20.7592949 85.4005687,20.7592949 C84.9244543,20.7592949 84.5532687,20.6297356 84.2857003,20.3692949 C84.0194434,20.1101763 83.8856592,19.7413288 83.8856592,19.2640746 C83.8856592,18.7907864 84.014197,18.4153288 84.2699609,18.1377017 C84.5257249,17.8600746 84.8628086,17.721261 85.2799006,17.721261 C85.6668256,17.721261 85.964561,17.8349559 86.1744186,18.0623458 C86.3842762,18.2910576 86.489205,18.6136339 86.489205,19.0327186 L86.489205,19.2971254 Z M86.018337,18.9243119 C86.0170254,18.6691593 85.9540681,18.4721763 85.8281536,18.3320407 C85.702239,18.1919051 85.510744,18.1231593 85.2536684,18.1231593 C84.9952813,18.1231593 84.7906701,18.1985153 84.6372117,18.3518712 C84.4837534,18.5065492 84.3971871,18.696922 84.3762014,18.9243119 L86.018337,18.9243119 Z" id="Fill-106" fill="#57585A"></path>
                                    <polygon id="Fill-107" fill="#57585A" points="90.1946343 20.6916068 89.7172083 20.6916068 89.7172083 18.4097763 89.0036925 19.8944203 88.6443113 19.8944203 87.936042 18.4097763 87.936042 20.6916068 87.4835365 20.6916068 87.4835365 17.8016407 88.0658914 17.8016407 88.8476109 19.4184881 89.6017866 17.8016407 90.1946343 17.8016407"></polygon>
                                    <path d="M93.807464,19.2971254 L91.6944603,19.2971254 C91.6944603,19.474278 91.7206925,19.6289559 91.7744685,19.7611593 C91.8269329,19.8933627 91.9003831,20.0017695 91.9921958,20.0863797 C92.0813853,20.1696678 92.1876257,20.2304814 92.3096054,20.2727864 C92.4315851,20.3137695 92.566681,20.334922 92.7135813,20.334922 C92.9090112,20.334922 93.1057527,20.295261 93.3024942,20.217261 C93.5005473,20.139261 93.6408895,20.061261 93.7248326,19.9845831 L93.7510648,19.9845831 L93.7510648,20.5160407 C93.5884251,20.5847864 93.4218507,20.6429559 93.252653,20.6892271 C93.0834553,20.7354983 92.9050763,20.7592949 92.7188277,20.7592949 C92.2427133,20.7592949 91.8715277,20.6297356 91.6052709,20.3692949 C91.3377024,20.1101763 91.2039182,19.7413288 91.2039182,19.2640746 C91.2039182,18.7907864 91.332456,18.4153288 91.5882199,18.1377017 C91.8439839,17.8600746 92.1810676,17.721261 92.5981596,17.721261 C92.9850845,17.721261 93.28282,17.8349559 93.4926776,18.0623458 C93.7025352,18.2910576 93.807464,18.6136339 93.807464,19.0327186 L93.807464,19.2971254 Z M93.3379076,18.9243119 C93.3352844,18.6691593 93.2723271,18.4721763 93.1464126,18.3320407 C93.020498,18.1919051 92.829003,18.1231593 92.5719274,18.1231593 C92.3135402,18.1231593 92.1089291,18.1985153 91.9554707,18.3518712 C91.8020123,18.5065492 91.7154461,18.696922 91.6944603,18.9243119 L93.3379076,18.9243119 Z" id="Fill-108" fill="#57585A"></path>
                                    <polygon id="Fill-109" fill="#57585A" points="97.2021729 20.6916068 96.7195004 20.6916068 96.7195004 19.3907254 95.2845991 19.3907254 95.2845991 20.6916068 94.8019267 20.6916068 94.8019267 17.8016407 95.2845991 17.8016407 95.2845991 18.9703186 96.7195004 18.9703186 96.7195004 17.8016407 97.2021729 17.8016407"></polygon>
                                    <polygon id="Fill-110" fill="#57585A" points="100.815527 20.6916068 100.332855 20.6916068 100.332855 19.3907254 98.8979534 19.3907254 98.8979534 20.6916068 98.415281 20.6916068 98.415281 17.8016407 98.8979534 17.8016407 98.8979534 18.9703186 100.332855 18.9703186 100.332855 17.8016407 100.815527 17.8016407"></polygon>
                                    <path d="M104.472165,19.2479458 C104.472165,19.7185898 104.351497,20.0900814 104.112784,20.3637424 C103.872759,20.6360814 103.552726,20.7722508 103.150062,20.7722508 C102.743463,20.7722508 102.422118,20.6360814 102.183405,20.3637424 C101.944692,20.0900814 101.825336,19.7185898 101.825336,19.2479458 C101.825336,18.7759797 101.944692,18.4044881 102.183405,18.1321492 C102.422118,17.8584881 102.743463,17.7209966 103.150062,17.7209966 C103.552726,17.7209966 103.872759,17.8584881 104.112784,18.1321492 C104.351497,18.4044881 104.472165,18.7759797 104.472165,19.2479458 M103.973753,19.2479458 C103.973753,18.8738102 103.901614,18.594861 103.756026,18.4137424 C103.610437,18.2313017 103.408449,18.1400814 103.150062,18.1400814 C102.88774,18.1400814 102.68444,18.2313017 102.540163,18.4137424 C102.395886,18.594861 102.323748,18.8738102 102.323748,19.2479458 C102.323748,19.6101831 102.395886,19.8851661 102.541475,20.0715729 C102.687063,20.2593017 102.889051,20.3531661 103.150062,20.3531661 C103.407137,20.3531661 103.607814,20.2606237 103.754714,20.0742169 C103.900303,19.8891322 103.973753,19.6141492 103.973753,19.2479458" id="Fill-111" fill="#57585A"></path>
                                    <path d="M107.897434,20.6916068 L107.420008,20.6916068 L107.420008,18.5208271 L105.918215,20.6916068 L105.481449,20.6916068 L105.481449,17.8016407 L105.958875,17.8016407 L105.958875,19.9420136 L107.44624,17.8016407 L107.897434,17.8016407 L107.897434,20.6916068 Z M107.623308,16.6633695 C107.614126,16.918522 107.534118,17.1181492 107.383283,17.2609288 C107.231136,17.4037085 107.010786,17.4764203 106.722232,17.4764203 C106.432366,17.4764203 106.212015,17.4037085 106.06118,17.2609288 C105.909033,17.1181492 105.829025,16.918522 105.821155,16.6633695 L106.259233,16.6633695 C106.261856,16.8431661 106.301205,16.9753695 106.37859,17.0560136 C106.457286,17.1366576 106.571396,17.1776407 106.722232,17.1776407 C106.874378,17.1776407 106.988488,17.1379797 107.065873,17.0586576 C107.143258,16.9793356 107.182607,16.8471322 107.183918,16.6633695 L107.623308,16.6633695 Z" id="Fill-112" fill="#57585A"></path>
                                    <polygon id="Fill-113" fill="#57585A" points="113.63717 20.6916068 113.159744 20.6916068 113.159744 18.5208271 111.657951 20.6916068 111.221185 20.6916068 111.221185 17.8016407 111.698611 17.8016407 111.698611 19.9420136 113.185977 17.8016407 113.63717 17.8016407"></polygon>
                                    <path d="M116.996335,20.5107525 C116.799593,20.6046169 116.630396,20.6680746 116.488742,20.7037695 C116.348399,20.7394644 116.206746,20.7566508 116.067715,20.7566508 C115.857857,20.7566508 115.666362,20.7262441 115.491918,20.6641085 C115.317474,20.6032949 115.16795,20.5107525 115.042036,20.3864814 C114.917433,20.2622102 114.820374,20.1048881 114.750858,19.9158373 C114.682655,19.7254644 114.647241,19.5046847 114.647241,19.2508542 C114.647241,18.7894644 114.773156,18.421939 115.027608,18.1469559 C115.280749,17.8719729 115.627014,17.7344814 116.067715,17.7344814 C116.232978,17.7344814 116.395617,17.7569559 116.555634,17.8032271 C116.71565,17.8508203 116.862551,17.9076678 116.996335,17.9750915 L116.996335,18.5158034 L116.967479,18.5158034 C116.808775,18.3928542 116.651381,18.3029559 116.496611,18.2434644 C116.341841,18.1852949 116.192318,18.1562102 116.046729,18.1562102 C115.760798,18.1562102 115.539136,18.2527186 115.383054,18.4457356 C115.225661,18.6387525 115.148276,18.9071254 115.148276,19.2508542 C115.148276,19.593261 115.225661,19.8603119 115.381743,20.0493627 C115.536513,20.2397356 115.758175,20.334922 116.046729,20.334922 C116.147723,20.334922 116.248717,20.3217017 116.348399,20.2965831 C116.448082,20.2701424 116.538583,20.2370915 116.621214,20.1947864 C116.686795,20.1617356 116.753687,20.1220746 116.823202,20.0771254 C116.892718,20.0321763 116.941247,19.9978034 116.967479,19.9753288 L116.996335,19.9753288 L116.996335,20.5107525 Z" id="Fill-114" fill="#57585A"></path>
                                    <polygon id="Fill-115" fill="#57585A" points="120.02917 18.228261 118.991687 18.228261 118.991687 20.6912102 118.509015 20.6912102 118.509015 18.228261 117.471531 18.228261 117.471531 17.8012441 120.02917 17.8012441"></polygon>
                                    <path d="M123.23645,19.2479458 C123.23645,19.7185898 123.117094,20.0900814 122.877069,20.3637424 C122.637045,20.6360814 122.3157,20.7722508 121.914347,20.7722508 C121.50906,20.7722508 121.186404,20.6360814 120.947691,20.3637424 C120.708978,20.0900814 120.589621,19.7185898 120.589621,19.2479458 C120.589621,18.7759797 120.708978,18.4044881 120.947691,18.1321492 C121.186404,17.8584881 121.50906,17.7209966 121.914347,17.7209966 C122.3157,17.7209966 122.637045,17.8584881 122.877069,18.1321492 C123.117094,18.4044881 123.23645,18.7759797 123.23645,19.2479458 M122.738039,19.2479458 C122.738039,18.8738102 122.6659,18.594861 122.520311,18.4137424 C122.374723,18.2313017 122.172735,18.1400814 121.914347,18.1400814 C121.652025,18.1400814 121.448726,18.2313017 121.304449,18.4137424 C121.160172,18.594861 121.088033,18.8738102 121.088033,19.2479458 C121.088033,19.6101831 121.160172,19.8851661 121.30576,20.0715729 C121.451349,20.2593017 121.654649,20.3531661 121.914347,20.3531661 C122.171423,20.3531661 122.373411,20.2606237 122.519,20.0742169 C122.6659,19.8891322 122.738039,19.6141492 122.738039,19.2479458" id="Fill-116" fill="#57585A"></path>
                                    <path d="M126.770059,19.211722 C126.770059,19.4470441 126.735957,19.6598915 126.670376,19.8542305 C126.602173,20.0485695 126.509048,20.2125017 126.387069,20.3473492 C126.27427,20.4755864 126.141798,20.574739 125.988339,20.6434847 C125.834881,20.7135525 125.672241,20.7492475 125.501732,20.7492475 C125.352208,20.7492475 125.218424,20.732061 125.097756,20.6990102 C124.977088,20.6672814 124.853797,20.615722 124.729194,20.5469763 L124.729194,21.7579593 L124.246521,21.7579593 L124.246521,17.8011119 L124.729194,17.8011119 L124.729194,18.1038576 C124.857731,17.9954508 125.002009,17.9042305 125.162025,17.8315186 C125.32073,17.7574847 125.492551,17.7217898 125.673553,17.7217898 C126.019818,17.7217898 126.288698,17.8526712 126.481505,18.1157559 C126.674311,18.3788407 126.770059,18.743722 126.770059,19.211722 M126.271647,19.2249424 C126.271647,18.8759254 126.212625,18.6154847 126.09458,18.4436203 C125.976535,18.2704339 125.795533,18.1845017 125.550261,18.1845017 C125.411231,18.1845017 125.2722,18.2149085 125.131858,18.275722 C124.991516,18.3352136 124.857731,18.4145356 124.729194,18.5136881 L124.729194,20.1516881 C124.865601,20.2125017 124.983646,20.2548068 125.082017,20.2772814 C125.180387,20.2997559 125.291874,20.3116542 125.416477,20.3116542 C125.685357,20.3116542 125.895215,20.2204339 126.04605,20.0366712 C126.196885,19.8542305 126.271647,19.5832136 126.271647,19.2249424" id="Fill-117" fill="#57585A"></path>
                                    <polygon id="Fill-118" fill="#57585A" points="130.200706 20.6916068 129.72328 20.6916068 129.72328 18.5208271 128.221486 20.6916068 127.78472 20.6916068 127.78472 17.8016407 128.262146 17.8016407 128.262146 19.9420136 129.749512 17.8016407 130.200706 17.8016407"></polygon>
                                    <polygon id="Fill-119" fill="#57585A" points="133.829144 20.6916068 133.351718 20.6916068 133.351718 18.5208271 131.849924 20.6916068 131.413158 20.6916068 131.413158 17.8016407 131.890584 17.8016407 131.890584 19.9420136 133.37795 17.8016407 133.829144 17.8016407"></polygon>
                                    <path d="M73.1740029,24.8234915 C73.1740029,24.9940339 73.1451475,25.152678 73.0861251,25.2981017 C73.025791,25.4435254 72.9444712,25.5704407 72.8382308,25.6775254 C72.7057582,25.8097288 72.5509882,25.9088814 72.3712976,25.9763051 C72.1916071,26.0424068 71.9646985,26.0754576 71.6905721,26.0754576 L71.1816674,26.0754576 L71.1816674,27.5111864 L70.6740743,27.5111864 L70.6740743,23.6587797 L71.7115578,23.6587797 C71.939778,23.6587797 72.1338962,23.6772881 72.2939126,23.7169492 C72.4526174,23.7566102 72.5942713,23.8161017 72.7175627,23.8993898 C72.8631514,23.9972203 72.9759498,24.1201695 73.0546464,24.2669153 C73.1346546,24.413661 73.1740029,24.5987458 73.1740029,24.8234915 M72.6454241,24.8367119 C72.6454241,24.7031864 72.6218151,24.5868475 72.5759088,24.4890169 C72.5300024,24.3911864 72.4591755,24.3105424 72.3660512,24.2484068 C72.2834198,24.1955254 72.1889838,24.1558644 72.0853667,24.1333898 C71.9791262,24.1109153 71.8466536,24.0990169 71.6853256,24.0990169 L71.1816674,24.0990169 L71.1816674,25.6378644 L71.6105638,25.6378644 C71.8164866,25.6378644 71.9830611,25.6193559 72.1115989,25.582339 C72.2401366,25.545322 72.3437538,25.4858305 72.4250736,25.4051864 C72.5050818,25.3218983 72.5614811,25.2346441 72.5955829,25.1447458 C72.6283732,25.0522034 72.6454241,24.9504068 72.6454241,24.8367119" id="Fill-120" fill="#57585A"></path>
                                    <path d="M76.5125749,26.0673932 C76.5125749,26.5380373 76.3932184,26.9108508 76.1531938,27.1831898 C75.9131692,27.4555288 75.5931364,27.5916983 75.1904721,27.5916983 C74.783873,27.5916983 74.4625286,27.4555288 74.2238155,27.1831898 C73.9851025,26.9108508 73.865746,26.5380373 73.865746,26.0673932 C73.865746,25.5967492 73.9851025,25.2252576 74.2238155,24.9515966 C74.4625286,24.6779356 74.783873,24.5404441 75.1904721,24.5404441 C75.5931364,24.5404441 75.9131692,24.6779356 76.1531938,24.9515966 C76.3932184,25.2252576 76.5125749,25.5967492 76.5125749,26.0673932 M76.0154748,26.0673932 C76.0154748,25.6932576 75.9420246,25.4156305 75.7964359,25.2331898 C75.6508472,25.0507492 75.4488593,24.9608508 75.1904721,24.9608508 C74.9281501,24.9608508 74.7248506,25.0507492 74.5805735,25.2331898 C74.4362964,25.4156305 74.3641578,25.6932576 74.3641578,26.0673932 C74.3641578,26.4296305 74.4362964,26.7046136 74.5818851,26.8923424 C74.7274738,27.0787492 74.9307733,27.1726136 75.1904721,27.1726136 C75.4475477,27.1726136 75.648224,27.0800712 75.7951243,26.8936644 C75.9420246,26.7085797 76.0154748,26.4335966 76.0154748,26.0673932" id="Fill-121" fill="#57585A"></path>
                                    <path d="M79.6688332,27.3305966 C79.4720917,27.423139 79.302894,27.4879186 79.1612401,27.5236136 C79.0208978,27.5579864 78.879244,27.5764949 78.7389017,27.5764949 C78.5303557,27.5764949 78.3388607,27.5460881 78.1644165,27.4839525 C77.9899724,27.423139 77.8391373,27.3305966 77.7145343,27.2063254 C77.5899314,27.0820542 77.4928722,26.9247322 77.4233569,26.7356814 C77.3538416,26.5453085 77.3197397,26.3232068 77.3197397,26.0706983 C77.3197397,25.6093085 77.4469659,25.2417831 77.7001066,24.9668 C77.9532473,24.6918169 78.2995124,24.5543254 78.7389017,24.5543254 C78.9054762,24.5543254 79.0681158,24.5768 79.2281322,24.6243932 C79.3881486,24.6706644 79.535049,24.7275119 79.6688332,24.7949356 L79.6688332,25.3356475 L79.6399778,25.3356475 C79.4812729,25.2126983 79.3238798,25.1228 79.1691098,25.0633085 C79.0143398,25.005139 78.8635047,24.9760542 78.7192276,24.9760542 C78.4332966,24.9760542 78.2116345,25.0725627 78.0555529,25.2655797 C77.8994713,25.4585966 77.8207747,25.7269695 77.8207747,26.0706983 C77.8207747,26.4131051 77.8981597,26.6801559 78.0542413,26.8692068 C78.2090113,27.0595797 78.4306734,27.1547661 78.7192276,27.1547661 C78.8189099,27.1547661 78.9212155,27.1415458 79.0208978,27.1151051 C79.1205802,27.0899864 79.2123929,27.0556136 79.2937127,27.0146305 C79.3592932,26.9815797 79.4261853,26.9432407 79.4957007,26.8969695 C79.565216,26.8506983 79.6137456,26.8176475 79.6399778,26.7951729 L79.6688332,26.7951729 L79.6688332,27.3305966 Z" id="Fill-122" fill="#57585A"></path>
                                    <path d="M82.7403614,27.3305966 C82.5436199,27.423139 82.3744222,27.4879186 82.2327683,27.5236136 C82.0911145,27.5579864 81.9507722,27.5764949 81.8104299,27.5764949 C81.6018839,27.5764949 81.4103889,27.5460881 81.2359448,27.4839525 C81.0615006,27.423139 80.9106655,27.3305966 80.7860625,27.2063254 C80.6614596,27.0820542 80.5644005,26.9247322 80.4948851,26.7356814 C80.4253698,26.5453085 80.3912679,26.3232068 80.3912679,26.0706983 C80.3912679,25.6093085 80.5171825,25.2417831 80.7703232,24.9668 C81.0234639,24.6918169 81.3710406,24.5543254 81.8104299,24.5543254 C81.9770044,24.5543254 82.139644,24.5768 82.2996604,24.6243932 C82.4596769,24.6706644 82.6065772,24.7275119 82.7403614,24.7949356 L82.7403614,25.3356475 L82.711506,25.3356475 C82.5528012,25.2126983 82.395408,25.1228 82.240638,25.0633085 C82.085868,25.005139 81.9350329,24.9760542 81.7907558,24.9760542 C81.5048248,24.9760542 81.2831627,25.0725627 81.1257695,25.2655797 C80.9696879,25.4585966 80.8909913,25.7269695 80.8909913,26.0706983 C80.8909913,26.4131051 80.9696879,26.6801559 81.1257695,26.8692068 C81.2805395,27.0595797 81.5022016,27.1547661 81.7907558,27.1547661 C81.8904381,27.1547661 81.9914321,27.1415458 82.0911145,27.1151051 C82.1921084,27.0899864 82.2826095,27.0556136 82.3652409,27.0146305 C82.4308214,26.9815797 82.4964019,26.9432407 82.5672289,26.8969695 C82.6367442,26.8506983 82.6852738,26.8176475 82.711506,26.7951729 L82.7403614,26.7951729 L82.7403614,27.3305966 Z" id="Fill-123" fill="#57585A"></path>
                                    <polygon id="Fill-124" fill="#57585A" points="86.0807697 27.5114508 85.6033436 27.5114508 85.6033436 25.3406712 84.1015502 27.5114508 83.6647841 27.5114508 83.6647841 24.6214847 84.1422101 24.6214847 84.1422101 26.7605356 85.6282642 24.6214847 86.0807697 24.6214847"></polygon>
                                    <polygon id="Fill-125" fill="#57585A" points="89.7092075 27.5114508 89.2317815 27.5114508 89.2317815 25.3406712 87.729988 27.5114508 87.2932219 27.5114508 87.2932219 24.6214847 87.7706479 24.6214847 87.7706479 26.7605356 89.256702 24.6214847 89.7092075 24.6214847"></polygon>
                                </g>
                            </g>
                        </g>
                    </g>
                </g>
            </g>
        </g>
    </g>
</svg>