<svg xmlns="http://www.w3.org/2000/svg" xmlns:xlink="http://www.w3.org/1999/xlink" viewBox="3.2 102 400 400"><path d="M141.8 382.1L203 277.6l61.3 104.5 39.7-23.3-101.1-172.3L102 358.9"/><defs><path id="a" d="M3.2 102h400v400H3.2z"/></defs><clipPath id="b"><use xlink:href="#a" overflow="visible"/></clipPath><path clip-path="url(#b)" fill="#282828" d="M312.1 193.1c14.2 14.2 25.2 30.6 33 49 8 19 12.1 39.1 12.1 59.9s-4.1 41-12.1 59.9c-7.8 18.3-18.8 34.8-33 49-14.2 14.1-30.6 25.2-49 33-19 8-39.1 12.1-59.9 12.1s-41-4.1-59.9-12.1c-18.3-7.8-34.8-18.9-49-33-14.1-14.2-25.2-30.6-33-49-8-19-12.1-39.1-12.1-59.9s4.1-41 12.1-59.9c7.8-18.3 18.9-34.8 33-49 14.2-14.1 30.6-25.2 49-33 19-8 39.1-12.1 59.9-12.1s41 4.1 59.9 12.1c18.4 7.7 34.9 18.9 49 33M3.2 302c0 110.4 89.6 200 200 200s200-89.6 200-200-89.6-200-200-200-200 89.5-200 200"/></svg>