<svg xmlns="http://www.w3.org/2000/svg" xmlns:xlink="http://www.w3.org/1999/xlink" viewBox="0 0 20 20"><path fill="#3D21DE" d="M13.073 5.99l-3.06 5.228L6.946 5.99 4.96 7.155l5.056 8.616 5.044-8.616"/><defs><path id="a" d="M0 0h20v20H0z"/></defs><clipPath id="b"><use xlink:href="#a" overflow="visible"/></clipPath><path clip-path="url(#b)" fill="#3D21DE" d="M4.557 15.443c-.708-.707-1.263-1.53-1.65-2.447C2.504 12.048 2.3 11.04 2.3 10s.203-2.048.604-2.996c.388-.916.943-1.74 1.65-2.447.708-.708 1.532-1.263 2.448-1.65C7.952 2.504 8.96 2.3 10 2.3s2.048.203 2.996.604c.916.388 1.74.943 2.447 1.65.708.708 1.263 1.532 1.65 2.448.402.948.605 1.956.605 2.996s-.203 2.048-.604 2.996c-.388.916-.943 1.74-1.65 2.447-.708.708-1.532 1.263-2.448 1.65-.948.402-1.956.605-2.996.605s-2.048-.203-2.996-.604c-.916-.388-1.74-.943-2.447-1.65M20 10c0-5.523-4.477-10-10-10S0 4.477 0 10s4.477 10 10 10 10-4.477 10-10"/></svg>