<svg xmlns="http://www.w3.org/2000/svg" xmlns:xlink="http://www.w3.org/1999/xlink" viewBox="0 0 20 23.163"><defs><path id="a" d="M0 0h20v23.163H0z"/></defs><clipPath id="b"><use xlink:href="#a" overflow="visible"/></clipPath><path clip-path="url(#b)" fill="#3D21DE" d="M14.757 15.346c-.217.435-.508.793-.877 1.08-.434.34-.91.582-1.433.728-.52.145-1.18.217-1.982.217H5.838V5.813H9.92c.85 0 1.493.032 1.93.098.438.064.848.2 1.23.406.413.222.723.522.927.892.205.374.308.803.308 1.29 0 .565-.14 1.066-.424 1.506-.28.44-.67.763-1.165.973v.06c.713.152 1.285.457 1.714.92.43.464.644 1.09.644 1.874 0 .575-.11 1.082-.327 1.516M10 0L0 5.79v11.583l10 5.79 10-5.79V5.79L10 0z"/><path clip-path="url(#b)" fill="#3D21DE" d="M10.136 10.362c.2-.01.405-.064.617-.162.23-.108.392-.26.48-.45.088-.194.132-.416.132-.668 0-.188-.047-.38-.143-.575-.095-.196-.243-.34-.447-.427-.19-.085-.416-.13-.68-.137-.26-.008-.65-.01-1.167-.01h-.202v2.445h.366c.495 0 .845-.005 1.044-.016M11.225 12.482c-.175-.07-.42-.106-.726-.114-.308-.008-.722-.01-1.24-.01h-.534v2.893h.157c.755 0 1.277-.004 1.566-.015.287-.01.584-.08.883-.21.266-.113.456-.28.578-.5.123-.22.184-.47.184-.747 0-.358-.07-.636-.217-.838-.146-.204-.363-.355-.652-.458"/></svg>