<svg xmlns="http://www.w3.org/2000/svg" xmlns:xlink="http://www.w3.org/1999/xlink" viewBox="0 0 30 30"><defs><path id="a" d="M0 0h30v30H0z"/></defs><clipPath id="b"><use xlink:href="#a" overflow="visible"/></clipPath><path clip-path="url(#b)" fill="#F0F0F0" d="M30 15.132C29.926 23.417 23.15 30.072 14.867 30 6.585 29.927-.072 23.155 0 14.87.072 6.585 6.847-.07 15.13 0 23.414.074 30.07 6.848 30 15.133"/><path clip-path="url(#b)" fill="#C8C8C8" d="M21.986 10.75c-.513.223-1.064.372-1.64.435.59-.347 1.047-.902 1.266-1.566-.554.32-1.166.553-1.816.675-.515-.558-1.253-.91-2.074-.92-1.574-.012-2.86 1.253-2.875 2.828-.002.224.02.44.068.65-2.37-.14-4.46-1.293-5.85-3.03-.25.42-.394.907-.4 1.43-.008.99.488 1.866 1.25 2.384-.468-.02-.907-.15-1.29-.367v.035c-.012 1.382.96 2.542 2.263 2.816-.24.064-.492.097-.753.095-.183-.002-.362-.022-.535-.057.353 1.136 1.398 1.97 2.645 2.004-.982.756-2.215 1.2-3.55 1.19-.23-.003-.458-.018-.68-.046 1.254.82 2.75 1.305 4.36 1.32 5.242.044 8.148-4.275 8.18-8.043.002-.123 0-.246-.004-.368.56-.398 1.05-.896 1.436-1.464"/></svg>