<svg xmlns="http://www.w3.org/2000/svg" xmlns:xlink="http://www.w3.org/1999/xlink" viewBox="0 0 30 30"><defs><path id="a" d="M0 0h30v30H0z"/></defs><clipPath id="b"><use xlink:href="#a" overflow="visible"/></clipPath><path clip-path="url(#b)" fill="#F0F0F0" d="M30 15.132C29.926 23.417 23.15 30.072 14.87 30 6.584 29.927-.073 23.155 0 14.87.072 6.585 6.847-.07 15.13 0 23.415.074 30.07 6.848 30 15.133"/><path clip-path="url(#b)" fill="#C8C8C8" d="M20.732 18.7c-.42-.543-.78-.9-1.3-1.39-.238-.225-.55-.466-.564-.777-.02-.41.384-.817.58-1.07.493-.638.94-1.104 1.396-1.838.12-.193.507-.893.38-1.174-.154-.337-1.025-.21-1.512-.213-.594-.006-1.24-.13-1.647.02-.267.097-.43.648-.58.97-.365.778-.657 1.302-1.126 1.906-.215.275-.414.63-.78.665-.47-.32-.347-1.03-.322-1.717.023-.612.214-1.427-.05-1.883-.26-.448-1.204-.38-1.88-.386-.804-.006-1.47.036-1.72.524.292.176.58.184.737.477.164.31.175 1.034.154 1.616-.02.513-.057 1.313-.383 1.375-.336.066-.617-.442-.8-.71-.425-.624-.746-1.17-1.093-1.928-.152-.33-.34-.847-.53-.946-.32-.166-1.006-.076-1.446-.08-.517-.004-1.03-.097-1.346.157-.004.548.28 1.04.492 1.483.656 1.373 1.37 2.623 2.287 3.82.86 1.12 1.84 2.163 3.78 2.386.612.07 1.503.145 1.715-.22.263-.452-.035-1.514.586-1.61.438-.066.8.546 1.036.817.42.48.91.997 1.638 1.123h.067c.655-.192 2.585.34 2.695-.48.035-.263-.306-.707-.463-.912"/></svg>