<svg xmlns="http://www.w3.org/2000/svg" xmlns:xlink="http://www.w3.org/1999/xlink" viewBox="0 0 30 30"><defs><path id="a" d="M0 0h30v30H0z"/></defs><clipPath id="b"><use xlink:href="#a" overflow="visible"/></clipPath><path clip-path="url(#b)" fill="#F0F0F0" d="M30 15.132C29.926 23.417 23.15 30.072 14.87 30 6.584 29.927-.073 23.155 0 14.87.072 6.585 6.847-.07 15.13 0 23.415.074 30.07 6.848 30 15.133"/><path clip-path="url(#b)" fill="#C8C8C8" d="M13.602 20.376l.047-5.33-1.41-.013.016-1.92 1.41.013.014-1.64c.01-1.288.854-2.463 2.772-2.447.777.006 1.35.086 1.35.086l-.06 1.79s-.586-.01-1.225-.015c-.692-.005-.805.312-.81.842l-.012 1.4 2.083.02-.108 1.92-1.992-.02-.047 5.332-2.028-.018z"/></svg>