<svg xmlns="http://www.w3.org/2000/svg" xmlns:xlink="http://www.w3.org/1999/xlink" viewBox="0 270.8 400 58.4"><defs><path id="a" d="M0 270.8h400v58.4H0z"/></defs><clipPath id="b"><use xlink:href="#a" overflow="visible"/></clipPath><path clip-path="url(#b)" fill="#C7C7C7" d="M35.6 286.1h-4.1c-3.3 0-3.9 1.5-3.9 3.8v5h7.8l-1 7.8h-6.8v20.1h-8.1v-20.1h-6.8V295h6.8v-5.8c0-6.7 4.1-10.4 10.1-10.4 2.9 0 5.3.2 6.1.3v7zm-10.4-15.3L0 285.4v29.2l25.2 14.6 25.2-14.6v-29.2l-25.2-14.6z"/><defs><path id="c" d="M0 270.8h400v58.4H0z"/></defs><clipPath id="d"><use xlink:href="#c" overflow="visible"/></clipPath><path clip-path="url(#d)" fill="#C7C7C7" d="M176 287.8h-3.1c-.5 0-.9.4-.9.9v3.2c0 .5.4.9.9.9h3.1c.5 0 .9-.4.9-.9v-3.1c0-.6-.3-1-.9-1"/><defs><path id="e" d="M0 270.8h400v58.4H0z"/></defs><clipPath id="f"><use xlink:href="#e" overflow="visible"/></clipPath><path clip-path="url(#f)" fill="#C7C7C7" d="M179.6 294.7c0 .2 0 .2-.2.2H170.6c-.2 0-.3-.1-.5-.2-.4-.4-.8-.7-1.2-1-1.6-1-3.3-1.3-5.2-1-1.4.3-2.7.9-3.8 1.9-.1.1-.3.2-.5.2h-8.7c-.2 0-.2 0-.2-.2v-.8c0-1.1-.1-2.2 0-3.3.1-.7.2-1.3.5-1.9.4-.9 1.1-1.6 1.9-2.3v5.9c0 .2.1.2.2.2h.7c.1 0 .2-.1.2-.3v-.3-5.9-.1c0-.2 0-.2.2-.3.2-.1.4-.2.5-.2.1 0 .2 0 .2.2v6.7c0 .2.1.2.2.2h.6c.2 0 .3-.1.3-.3v-.3-3.1-3.1c0-.3 0-.3.3-.4h.3c.2 0 .2.2.2.3V292.1c0 .2.1.2.2.2h.7c.1 0 .2-.1.2-.2v-.3-1-5.4c0-.2 0-.3.2-.3h15.7c.4 0 .8 0 1.2.1 1.2.3 2.2.9 3 1.9.7.8 1.1 1.6 1.3 2.6.1.5.1 1.1.1 1.6.2 1.4.2 2.4.2 3.4m-20.3 5.4c0-3.2 2.6-5.7 5.8-5.7 3.2 0 5.7 2.6 5.7 5.7 0 3.2-2.6 5.7-5.8 5.7-3.1.1-5.7-2.5-5.7-5.7m20.3 0v8.8c0 1.4-.5 2.7-1.5 3.8-.9.9-1.9 1.5-3.2 1.8-.3.1-.6.1-1 .1h-17.7c-2.7 0-4.9-1.8-5.5-4.3-.1-.5-.2-1-.2-1.5v-8.2-4.2-.2c0-.2.1-.3.3-.3h8.2c-1.1 1.7-1.6 3.5-1.3 5.5.3 1.7 1.1 3.2 2.4 4.4 2.7 2.3 6.5 2.5 9.4.4 1.6-1.2 2.6-2.8 2.9-4.8.3-2-.2-3.8-1.3-5.4H179.4c.1 0 .2.1.2.2v3.9M165 270.8l-25.2 14.6v29.2l25.2 14.6 25.2-14.6v-29.2L165 270.8z"/><defs><path id="g" d="M0 270.8h400v58.4H0z"/></defs><clipPath id="h"><use xlink:href="#g" overflow="visible"/></clipPath><path clip-path="url(#h)" fill="#C7C7C7" d="M165.2 304.4c2.2-.1 4.1-2 4.1-4.2 0-2.3-1.8-4.3-4.3-4.3-2.3 0-4.2 2-4.2 4.3.1 2.4 2 4.2 4.4 4.2"/><g><defs><path id="i" d="M0 270.8h400v58.4H0z"/></defs><clipPath id="j"><use xlink:href="#i" overflow="visible"/></clipPath><path clip-path="url(#j)" fill="#C7C7C7" d="M107.1 309.5c-.5 1.1-1.3 2-2.2 2.7-1.1.9-2.3 1.5-3.6 1.8-1.3.4-3 .5-5 .5H84.6v-29.2h10.3c2.1 0 3.8.1 4.9.2 1.1.2 2.1.5 3.1 1 1 .6 1.8 1.3 2.3 2.3.5.9.8 2 .8 3.3 0 1.4-.4 2.7-1.1 3.8-.7 1.1-1.7 1.9-2.9 2.5v.2c1.8.4 3.2 1.2 4.3 2.3 1.1 1.2 1.6 2.7 1.6 4.7.1 1.5-.2 2.8-.8 3.9m-12-38.7l-25.2 14.6v29.2l25.2 14.6 25.2-14.6v-29.2l-25.2-14.6z"/></g><g><defs><path id="k" d="M0 270.8h400v58.4H0z"/></defs><clipPath id="l"><use xlink:href="#k" overflow="visible"/></clipPath><path clip-path="url(#l)" fill="#C7C7C7" d="M95.5 296.9c.5 0 1-.2 1.6-.4.6-.3 1-.7 1.2-1.1.2-.5.3-1 .3-1.7 0-.5-.1-1-.4-1.4s-.6-.9-1.1-1.1c-.5-.2-1-.3-1.7-.3H92v6.2h.9c1.2-.1 2.1-.1 2.6-.2"/></g><g><defs><path id="m" d="M0 270.8h400v58.4H0z"/></defs><clipPath id="n"><use xlink:href="#m" overflow="visible"/></clipPath><path clip-path="url(#n)" fill="#C7C7C7" d="M98.2 302.3c-.4-.2-1.1-.3-1.8-.3h-4.5v7.3h4.4c.7 0 1.5-.2 2.2-.5.7-.3 1.1-.7 1.5-1.3.3-.6.5-1.2.5-1.9 0-.9-.2-1.6-.5-2.1-.5-.6-1.1-1-1.8-1.2"/></g><g><defs><path id="o" d="M0 270.8h400v58.4H0z"/></defs><clipPath id="p"><use xlink:href="#o" overflow="visible"/></clipPath><path clip-path="url(#p)" fill="#C7C7C7" d="M248.9 313.6c-.4 1.5-1.6 2.7-3.1 2.8-3.6.4-7.2.4-10.8.4-3.6 0-7.2 0-10.8-.4-1.5-.2-2.8-1.3-3.1-2.8-.5-2.2-.5-4.6-.5-6.8 0-2.3 0-4.6.5-6.8.4-1.5 1.6-2.7 3.1-2.8 3.6-.4 7.2-.4 10.8-.4 3.6 0 7.2 0 10.8.4 1.5.2 2.8 1.3 3.1 2.8.5 2.2.5 4.6.5 6.8s0 4.6-.5 6.8m-21.6-31.7l1.4 5.1 1.3-5.1h2l-2.4 7.8v5.3h-2v-5.3c-.2-.9-.6-2.3-1.2-4.1-.4-1.2-.8-2.4-1.3-3.6h2.2zm4.7 6.5c0-1 .2-1.8.6-2.3.5-.7 1.2-1 2.1-1 .9 0 1.6.3 2.1 1 .4.5.5 1.3.5 2.3v3.4c0 1-.2 1.8-.5 2.3-.5.7-1.2 1-2.1 1-.9 0-1.6-.3-2.1-1-.4-.5-.6-1.3-.6-2.3v-3.4zm6.7-3.2h1.8v7.9c0 .3.2.4.4.4.4 0 .7-.3 1.1-.8v-7.4h1.8v9.7H242v-1.1c-.7.8-1.4 1.2-2 1.2-.6 0-1-.2-1.1-.7-.1-.3-.2-.8-.2-1.4v-7.8zm-3.7-14.4l-25.2 14.6v29.2l25.2 14.6 25.2-14.6v-29.2L235 270.8z"/></g><g><defs><path id="q" d="M0 270.8h400v58.4H0z"/></defs><clipPath id="r"><use xlink:href="#q" overflow="visible"/></clipPath><path clip-path="url(#r)" fill="#C7C7C7" d="M234.6 293.5c.6 0 .8-.5.8-1.4V288c0-.9-.3-1.3-.8-1.3-.6 0-.8.4-.8 1.3v4.1c0 .9.2 1.4.8 1.4"/></g><g><defs><path id="s" d="M0 270.8h400v58.4H0z"/></defs><clipPath id="t"><use xlink:href="#s" overflow="visible"/></clipPath><path clip-path="url(#t)" fill="#C7C7C7" d="M239 310.3c0 .9-.3 1.3-.8 1.3-.3 0-.6-.1-.9-.4v-5.9c.3-.3.6-.4.9-.4.5 0 .8.4.8 1.3v4.1zm.1-7c-.6 0-1.2.4-1.8 1v-4.2h-1.7V313h1.7v-.9c.6.7 1.2 1.1 1.8 1.1.7 0 1.2-.4 1.4-1.1.1-.4.2-1 .2-1.9v-3.8c0-.9-.1-1.5-.2-1.9-.2-.9-.7-1.2-1.4-1.2"/></g><g><defs><path id="u" d="M0 270.8h400v58.4H0z"/></defs><clipPath id="v"><use xlink:href="#u" overflow="visible"/></clipPath><path clip-path="url(#v)" fill="#C7C7C7" d="M245.5 307.1h-1.7v-.9c0-.9.3-1.3.9-1.3.6 0 .9.4.9 1.3l-.1.9zm-.8-3.8c-.9 0-1.6.3-2.1 1-.4.5-.5 1.2-.5 2.3v3.4c0 1 .2 1.8.6 2.3.5.7 1.2 1 2.1 1s1.6-.3 2.1-1c.2-.3.3-.7.4-1V309.9h-1.8v1.2c-.1.5-.4.7-.8.7-.6 0-.9-.4-.9-1.3v-1.7h3.5v-2c0-1-.2-1.8-.5-2.3-.5-.9-1.2-1.2-2.1-1.2"/></g><g><defs><path id="w" d="M0 270.8h400v58.4H0z"/></defs><clipPath id="x"><use xlink:href="#w" overflow="visible"/></clipPath><path clip-path="url(#x)" fill="#C7C7C7" d="M232.3 310.7c-.4.5-.8.8-1.1.8-.2 0-.4-.1-.4-.4v-7.8H229v7.6c0 .7.1 1.1.2 1.4.2.5.6.7 1.1.7.6 0 1.3-.4 2-1.2v1.1h1.7v-9.6h-1.7v7.4z"/></g><path fill="#C7C7C7" d="M222.7 301.9h2.1V313h1.9v-11.1h2.1v-1.8h-6.1"/><g><defs><path id="y" d="M0 270.8h400v58.4H0z"/></defs><clipPath id="z"><use xlink:href="#y" overflow="visible"/></clipPath><path clip-path="url(#z)" fill="#C7C7C7" d="M384.1 305.8c-2.2 1.4-5.3 2-7.3 2.2l1.7 1.7 6.2 6.2c.9.9.9 2.5 0 3.4l-.3.3c-.9.9-2.5.9-3.4 0l-6.2-6.2-6.2 6.2c-.9.9-2.5.9-3.4 0l-.3-.3c-.9-.9-.9-2.5 0-3.4l6.2-6.2 1.7-1.7c-2-.2-5.1-.7-7.4-2.2-2.7-1.7-3.8-2.7-2.8-4.8.6-1.2 2.2-2.2 4.4-.5 3 2.3 7.7 2.3 7.7 2.3s4.8 0 7.7-2.3c2.2-1.7 3.8-.7 4.4.5 1.2 2 0 3.1-2.7 4.8m-9.4-27.3c5.8 0 10.6 4.7 10.6 10.6 0 5.8-4.7 10.6-10.6 10.6s-10.6-4.7-10.6-10.6c.1-5.8 4.8-10.6 10.6-10.6m.1-7.7l-25.2 14.6v29.2l25.2 14.6 25.2-14.6v-29.2l-25.2-14.6z"/><g><defs><path id="A" d="M0 270.8h400v58.4H0z"/></defs><clipPath id="B"><use xlink:href="#A" overflow="visible"/></clipPath><path clip-path="url(#B)" fill="#C7C7C7" d="M374.7 294.3c2.9 0 5.2-2.3 5.2-5.2 0-2.9-2.3-5.2-5.2-5.2s-5.2 2.3-5.2 5.2c0 2.9 2.4 5.2 5.2 5.2"/></g><g><defs><path id="C" d="M0 270.8h400v58.4H0z"/></defs><clipPath id="D"><use xlink:href="#C" overflow="visible"/></clipPath><path clip-path="url(#D)" fill="#C7C7C7" d="M320.3 293.1v1c0 10.4-7.9 22.4-22.4 22.4-4.4 0-8.6-1.3-12-3.5.6.1 1.2.1 1.9.1 3.7 0 7.1-1.3 9.8-3.4-3.4-.1-6.3-2.4-7.3-5.5.5.1 1 .1 1.5.1.7 0 1.4-.1 2.1-.3-3.6-.7-6.3-3.9-6.3-7.7v-.1c1.1.6 2.3.9 3.6 1-2.1-1.4-3.5-3.8-3.5-6.5 0-1.4.4-2.8 1.1-3.9 3.9 4.8 9.7 7.9 16.2 8.2-.1-.6-.2-1.2-.2-1.8 0-4.4 3.5-7.9 7.9-7.9 2.3 0 4.3 1 5.7 2.5 1.8-.4 3.5-1 5-1.9-.6 1.8-1.8 3.4-3.5 4.4 1.6-.2 3.1-.6 4.5-1.2-1.2 1.6-2.6 2.9-4.1 4m-15.4-22.3l-25.2 14.6v29.2l25.2 14.6 25.2-14.6v-29.2l-25.2-14.6z"/></g></g></svg>