<?xml version="1.0" encoding="utf-8"?>
<!-- Generator: Adobe Illustrator 16.0.4, SVG Export Plug-In . SVG Version: 6.00 Build 0)  -->
<!DOCTYPE svg PUBLIC "-//W3C//DTD SVG 1.1//EN" "http://www.w3.org/Graphics/SVG/1.1/DTD/svg11.dtd">
<svg version="1.1" id="Layer_1" xmlns:sketch="http://www.bohemiancoding.com/sketch/ns"
	 xmlns="http://www.w3.org/2000/svg" xmlns:xlink="http://www.w3.org/1999/xlink" x="0px" y="0px" width="204px" height="32px"
	 viewBox="0 0 204 32" enable-background="new 0 0 204 32" xml:space="preserve">
<title>Group</title>
<desc>Created with Sketch.</desc>
<g id="Welcome" sketch:type="MSPage">
	<g id="Desktop-HD" transform="translate(-16.000000, -13.000000)" sketch:type="MSArtboardGroup">
		<g id="Group" transform="translate(16.000000, 13.000000)" sketch:type="MSLayerGroup">
			<path id="Fill-1" sketch:type="MSShapeGroup" fill="#00BCF0" d="M136.401,15.155h8.181v1.873h-8.181V15.155z"/>
			<path id="Fill-2" sketch:type="MSShapeGroup" fill="#00BCF0" d="M97.263,15.155h8.725v1.873h-8.725V15.155z"/>
			<path id="Fill-3" sketch:type="MSShapeGroup" fill="#00BCF0" d="M62.66,15.155h9.982v1.873H62.66V15.155z"/>
			<path id="Fill-4" sketch:type="MSShapeGroup" fill="#00BCF0" d="M26.212,15.155h10.532v1.873H26.212V15.155z"/>
			<path id="Fill-7" sketch:type="MSShapeGroup" fill="#00BCF0" d="M18.231,21.221h-1.986v-8.443h-4.117v8.443H10.14V10.96h8.091
				V21.221L18.231,21.221z M14.033,0.74L0.161,8.414v15.349l13.872,7.669l13.871-7.669V8.414L14.033,0.74L14.033,0.74z"/>
			<path id="Fill-8" sketch:type="MSShapeGroup" fill="#00BCF0" d="M49.643,21.336c-2.708,0-5.048-1.686-5.048-5.249
				c0-3.562,2.34-5.247,5.048-5.247c2.709,0,5.048,1.685,5.048,5.247C54.691,19.65,52.352,21.336,49.643,21.336 M49.734,2.703
				c-7.7,0-13.967,6.004-13.967,13.385c0,7.379,6.267,13.381,13.967,13.381c7.701,0,13.969-6.002,13.969-13.381
				C63.703,8.707,57.435,2.703,49.734,2.703"/>
			<path id="Fill-9" sketch:type="MSShapeGroup" fill="#00BCF0" d="M49.643,12.601c-1.605,0-3.031,1.054-3.031,3.486
				s1.426,3.489,3.031,3.489c1.607,0,3.03-1.057,3.03-3.489S51.25,12.601,49.643,12.601"/>
			<path id="Fill-10" sketch:type="MSShapeGroup" fill="#00BCF0" d="M88.548,21.219h-1.987v-8.443h-2.555l-0.091,1.95
				c-0.141,2.799-0.353,4.03-0.918,5.013c-0.613,1.055-1.499,1.554-2.785,1.554h-0.487v-1.874h0.366
				c0.564,0,1.189-0.426,1.435-1.232c0.292-0.982,0.399-2.288,0.522-4.221l0.167-3.007h6.334V21.219L88.548,21.219z M71.666,28.819
				h26.577V3.354H71.666V28.819z"/>
			<path id="Fill-11" sketch:type="MSShapeGroup" fill="#00BCF0" d="M123.494,21.219V14.3l-4.206,6.918h-2.097V10.958h1.992v6.919
				l4.205-6.919h2.092v10.261H123.494L123.494,21.219z M121.348,0.191l-16.59,15.895l16.59,15.896l16.588-15.896L121.348,0.191
				L121.348,0.191z"/>
			<path id="Fill-12" sketch:type="MSShapeGroup" fill="#00BCF0" d="M185.67,21.219l-2.537-3.794l-2.523,3.794h-2.234l3.686-5.334
				l-3.381-4.926h2.358l2.216,3.413l2.25-3.413h2.264l-3.443,4.926l3.672,5.334H185.67L185.67,21.219z M176.612,21.219h-6.854
				V10.958h6.7v1.76h-4.712v2.243h4.223v1.758h-4.223v2.74h4.866V21.219L176.612,21.219z M167.507,12.718h-3.122v8.501h-1.99v-8.501
				h-3.119v-1.76h8.231V12.718L167.507,12.718z M190.528,3.346H156.9c-7.328,0-13.297,5.722-13.297,12.745
				c0,7.026,5.969,12.742,13.297,12.742h33.628c7.335,0,13.298-5.716,13.298-12.742C203.826,9.067,197.863,3.346,190.528,3.346
				L190.528,3.346z"/>
		</g>
	</g>
</g>
</svg>
