<?xml version="1.0" encoding="UTF-8" standalone="no"?>
<svg width="34px" height="39px" viewBox="0 0 34 39" version="1.1" xmlns="http://www.w3.org/2000/svg" xmlns:xlink="http://www.w3.org/1999/xlink">
    <!-- Generator: Sketch 3.8.3 (29802) - http://www.bohemiancoding.com/sketch -->
    <title>Page 1</title>
    <desc>Created with Sketch.</desc>
    <defs>
        <polygon id="path-1" points="14.9195902 38.7234043 0 38.7234043 0 19.472783 0 0.222161702 14.9195902 0.222161702 14.9195902 38.7234043"></polygon>
    </defs>
    <g id="V1" stroke="none" stroke-width="1" fill="none" fill-rule="evenodd">
        <g id="Desktop-1240" transform="translate(-1187.000000, -660.000000)">
            <g id="Page-1" transform="translate(1187.000000, 660.000000)">
                <g id="Group-3" transform="translate(0.000000, 0.054489)">
                    <mask id="mask-2" fill="white">
                        <use xlink:href="#path-1"></use>
                    </mask>
                    <g id="Clip-2"></g>
                    <path d="M0,4.18135319 C0,3.04675745 0.319377049,2.10245957 0.958131148,1.35067234 C1.59604918,0.598055319 2.57954098,0.222161702 3.90972131,0.222161702 L11.0098689,0.222161702 C12.3394918,0.222161702 13.3238197,0.598055319 13.9617377,1.35067234 C14.6002131,2.10245957 14.9195902,3.04675745 14.9195902,4.18135319 L14.9195902,34.7645447 C14.9195902,35.8996936 14.6002131,36.8431617 13.9617377,37.5955021 C13.3238197,38.3472894 12.3394918,38.7234596 11.0098689,38.7234596 L3.90972131,38.7234596 C2.57954098,38.7234596 1.59604918,38.3472894 0.958131148,37.5955021 C0.319377049,36.8431617 0,35.8996936 0,34.7645447 L0,4.18135319 Z M6.34295082,5.25039574 C5.99681967,5.25039574 5.82459016,5.4351617 5.82459016,5.80441702 L5.82459016,33.1019277 C5.82459016,33.3129702 5.85747541,33.4648213 5.92380328,33.5569277 C5.99013115,33.6498638 6.14368852,33.6955021 6.38252459,33.6955021 L8.49665574,33.6955021 C8.73632787,33.6955021 8.88904918,33.6498638 8.95565574,33.5569277 C9.02198361,33.4648213 9.05570492,33.3129702 9.05570492,33.1019277 L9.05570492,5.80441702 C9.05570492,5.4351617 8.88208197,5.25039574 8.53706557,5.25039574 L6.34295082,5.25039574 Z" id="Fill-1" fill="#FEFEFE" mask="url(#mask-2)"></path>
                </g>
                <polygon id="Fill-4" fill="#FEFEFE" points="24.0144787 11.0496404 24.0144787 18.2651936 16.7443311 18.2651936 16.7443311 20.7891298 24.0144787 20.7891298 24.0144787 28.0049596 26.5572328 28.0049596 26.5572328 20.7891298 33.827659 20.7891298 33.827659 18.2651936 26.5572328 18.2651936 26.5572328 11.0496404"></polygon>
            </g>
        </g>
    </g>
</svg>