<?xml version="1.0" encoding="UTF-8" standalone="no"?>
<svg width="26px" height="30px" viewBox="0 0 26 30" version="1.1" xmlns="http://www.w3.org/2000/svg" xmlns:xlink="http://www.w3.org/1999/xlink">
    <!-- Generator: Sketch 3.8.3 (29802) - http://www.bohemiancoding.com/sketch -->
    <title>Fasebook</title>
    <desc>Created with Sketch.</desc>
    <defs></defs>
    <g id="V2" stroke="none" stroke-width="1" fill="none" fill-rule="evenodd">
        <g id="Desktop-1240-Copy-3" transform="translate(-880.000000, -2506.000000)" fill="#ED2124">
            <g id="Group-51" transform="translate(220.000000, 2506.000000)">
                <g id="social" transform="translate(660.000000, 0.000000)">
                    <g id="Social">
                        <path d="M17.6132172,8.54876517 L15.833849,8.54876517 C14.4384782,8.54876517 14.1680575,9.20859166 14.1680575,10.1885963 L14.1680575,12.3368182 L17.4953138,12.3368182 L17.0669674,15.6921982 L14.1680575,15.6921982 L14.1680575,24.3348436 L10.6904474,24.3348436 L10.6904474,15.6921982 L7.78396581,15.6921982 L7.78396581,12.3368182 L10.6936925,12.3368182 L10.6936925,9.85111123 C10.6936925,6.97383505 12.4492636,5.40214998 15.0182602,5.40214998 C16.2513786,5.40214998 17.3114277,5.49625638 17.6142989,5.54276874 L17.6142989,8.54984685 L17.6132172,8.54876517 Z M12.9516902,0 L0,7.49902862 L0,22.5009714 L12.9516902,30 L25.9033804,22.5009714 L25.9033804,7.49902862 L12.9516902,0 L12.9516902,0 Z" id="Fasebook"></path>
                    </g>
                </g>
            </g>
        </g>
    </g>
</svg>