<?xml version="1.0" encoding="UTF-8" standalone="no"?>
<svg width="27px" height="30px" viewBox="0 0 27 30" version="1.1" xmlns="http://www.w3.org/2000/svg" xmlns:xlink="http://www.w3.org/1999/xlink">
    <g id="V2" stroke="none" stroke-width="1" fill="none" fill-rule="evenodd">
        <g id="Desktop-1240-Copy-3" transform="translate(-962.000000, -2506.000000)" fill="#FFCE4F">
            <g id="Group-51" transform="translate(220.000000, 2506.000000)">
                <g id="social" transform="translate(660.000000, 0.000000)">
                    <g id="Social">
                        <path d="M102.915749,12.2937443 C102.915749,12.3766352 102.892436,12.3973579 102.80825,12.3999482 L102.756443,12.3999482 C101.27218,12.3999482 99.7905064,12.3999482 98.3062427,12.4025385 C98.2078099,12.4025385 98.1313949,12.3740448 98.0601606,12.306696 C97.8658852,12.1201917 97.6508872,11.9570004 97.4203471,11.8171221 C96.5953244,11.3210724 95.7081337,11.1475198 94.7587748,11.3210724 C94.0205284,11.4583603 93.3807149,11.7963994 92.8315633,12.3054009 C92.7577386,12.3727496 92.6800285,12.4038337 92.5803005,12.4025385 L88.1041963,12.4025385 C88.0135345,12.4025385 87.9915166,12.3805207 87.9915166,12.2885637 L87.994107,11.8870613 C87.9902215,11.3223676 87.9682036,10.7576739 88.0109442,10.1929802 C88.0368476,9.84976039 88.1145577,9.51949229 88.2609118,9.20865173 C88.4810905,8.73721021 88.8178345,8.36420153 89.2258127,8.04947546 L89.2491258,8.0391141 L89.2517161,8.0559513 C89.2517161,8.94702759 89.2517161,9.8368087 89.2491258,10.727885 C89.2491258,10.850926 89.2465354,10.9739671 89.2517161,11.0983033 C89.2556016,11.1811941 89.2905712,11.2148685 89.373462,11.2148685 C89.4848465,11.2174589 89.5975262,11.210983 89.7076156,11.1993265 C89.7827354,11.1928507 89.8190001,11.1475198 89.8280663,11.0698096 C89.8345422,11.0244787 89.8384277,10.9752623 89.8384277,10.927341 L89.8384277,7.90700686 C89.8384277,7.88628416 89.8384277,7.86426629 89.8358373,7.84224841 C89.8228856,7.74122523 89.8280663,7.72956871 89.9187281,7.68682813 C90.00939,7.64408755 90.1000518,7.60911799 90.201075,7.60005181 C90.2736045,7.59487113 90.2917368,7.6130035 90.2813755,7.68423779 C90.27749,7.71014117 90.2748996,7.73604455 90.2748996,7.76194793 L90.2748996,11.0944178 C90.2748996,11.1786038 90.3072788,11.2161637 90.3914648,11.218754 C90.500259,11.218754 90.6077581,11.218754 90.7152571,11.2096879 C90.8149851,11.2019169 90.8577257,11.1578811 90.8706774,11.0581531 C90.8784484,11.0024608 90.8810387,10.9454734 90.8810387,10.8897811 C90.8810387,10.3548763 90.8849242,9.81997151 90.8836291,9.28636187 C90.8836291,8.75534257 90.8797436,8.22691361 90.8771532,7.69718948 C90.8771532,7.55472089 90.8901049,7.53529336 91.0170315,7.50032379 L91.1918793,7.50032379 C91.2734749,7.52363683 91.2993783,7.58321461 91.2993783,7.65962958 L91.2993783,7.72956871 L91.2941976,9.13094159 L91.2941976,10.6696024 C91.2941976,10.812071 91.2903121,10.9519492 91.2941976,11.0931227 C91.296788,11.1786038 91.3330527,11.2161637 91.4159435,11.2174589 C91.5325087,11.2200492 91.649074,11.2122782 91.7630488,11.2019169 C91.8278073,11.1967362 91.871843,11.1539956 91.8834995,11.087942 C91.8899754,11.0439062 91.8964512,11.0011657 91.8964512,10.9584251 C91.8990416,10.7952338 91.8990416,10.6320425 91.8990416,10.4688512 L91.8990416,7.67387644 C91.8990416,7.57673876 91.8990416,7.52752234 92.0117213,7.50032379 L98.7893408,7.50032379 C98.8048828,7.5042093 98.8204248,7.50679964 98.8359668,7.50679964 L100.045655,7.50938998 C100.250291,7.50938998 100.452338,7.53011268 100.650499,7.57673876 C101.27736,7.7256832 101.794133,8.0559513 102.213768,8.54034451 C102.550512,8.92889522 102.77069,9.37184303 102.861352,9.87825411 C102.913159,10.1502396 102.917044,10.4222251 102.91834,10.6942106 C102.922225,11.2278202 102.91834,11.7614299 102.91834,12.2937443 L102.915749,12.2937443 Z M92.5051807,15.065406 C92.5051807,13.4464448 93.8340241,12.1279627 95.4633467,12.1292579 C97.0874887,12.1292579 98.4033804,13.4503303 98.4007901,15.0757674 C98.3981997,16.7076804 97.0861935,18.0106204 95.4478047,18.0106204 C93.8223676,18.0106204 92.5051807,16.689548 92.5051807,15.065406 L92.5051807,15.065406 Z M102.914454,15.0783577 C102.914454,16.58982 102.917044,18.1012822 102.911864,19.6140396 C102.909273,20.3561715 102.639878,20.9998705 102.139943,21.5438415 C101.699586,22.0256443 101.155615,22.3300091 100.514506,22.4478694 C100.35261,22.4789535 100.185533,22.4957907 100.019751,22.4957907 C96.9864655,22.4957907 93.9531796,22.5035617 90.9198938,22.4932004 C89.549605,22.4880197 88.4124466,21.578811 88.0834736,20.2732807 C88.0187152,20.0142469 87.9928118,19.7500324 87.9928118,19.4832276 L87.9928118,15.2506152 L87.9889263,13.0850926 C87.9889263,13.0540085 87.9889263,13.0203342 87.994107,12.9892501 C88.0044683,12.8985883 88.0459137,12.8597332 88.1365756,12.8545525 C88.2311229,12.8493718 88.3269654,12.850667 88.4241031,12.8519622 C89.7089108,12.8519622 90.9937184,12.8519622 92.2785261,12.8545525 L92.339399,12.8545525 C91.7604585,13.7171351 91.5143764,14.6496568 91.6840435,15.6754306 C91.8316928,16.5716876 92.2357855,17.3280663 92.9248154,17.9290247 C94.3041704,19.1257609 96.2831887,19.2047662 97.7298925,18.1129387 C98.55362,17.4938479 99.0483746,16.6675301 99.2089755,15.6521176 C99.3695765,14.6367051 99.1234944,13.7093641 98.5484393,12.8545525 L98.6002461,12.8545525 C99.8397228,12.8545525 101.0792,12.8545525 102.317381,12.8519622 L102.72795,12.8519622 C102.753853,12.8519622 102.779757,12.8519622 102.80566,12.8545525 C102.870418,12.8623235 102.905388,12.8934076 102.909273,12.958166 C102.917044,13.0436472 102.917044,13.1304235 102.917044,13.2171998 L102.914454,15.0757674 L102.914454,15.0783577 Z M95.4516902,0 L82.5,7.49902862 L82.5,22.5009714 L95.4516902,30 L108.40338,22.5009714 L108.40338,7.49902862 L95.4516902,0 Z M95.5242197,17.24129 C96.6769201,17.2102059 97.641821,16.2362388 97.6301645,15.1042611 C97.6366403,13.8997539 96.6976428,12.8843414 95.4322627,12.9024738 C94.231641,12.919311 93.2602642,13.9191815 93.2952338,15.1094418 C93.3340888,16.3113586 94.3028753,17.272374 95.5229245,17.24129 L95.5242197,17.24129 Z M101.085675,8.74239088 C100.557246,8.73980054 100.027522,8.73980054 99.4977982,8.74239088 C99.220632,8.74627639 99.0393084,8.92371454 99.0341277,9.19958555 C99.0276519,9.47416138 99.0341277,9.74873721 99.0341277,10.0246082 C99.0341277,10.3017744 99.028947,10.5815309 99.0341277,10.8574019 C99.0393084,11.1293874 99.2322886,11.3081207 99.5029789,11.3081207 C100.028818,11.310711 100.552066,11.310711 101.0792,11.3081207 C101.358956,11.3081207 101.555822,11.1164357 101.558412,10.8366792 L101.558412,9.22160342 C101.554527,8.93666623 101.368022,8.74627639 101.086971,8.74239088 L101.085675,8.74239088 Z" id="Instagram"></path>
                    </g>
                </g>
            </g>
        </g>
    </g>
</svg>