<?xml version="1.0" encoding="UTF-8" standalone="no"?>
<svg width="34px" height="39px" viewBox="0 0 34 39" version="1.1" xmlns="http://www.w3.org/2000/svg" xmlns:xlink="http://www.w3.org/1999/xlink">
    <!-- Generator: Sketch 3.8.3 (29802) - http://www.bohemiancoding.com/sketch -->
    <title>Group 7</title>
    <desc>Created with Sketch.</desc>
    <defs></defs>
    <g id="V2" stroke="none" stroke-width="1" fill="none" fill-rule="evenodd">
        <g id="Desktop-1240-Copy-3" transform="translate(-1295.000000, -56.000000)">
            <g id="Group-2" transform="translate(27.000000, 26.000000)">
                <g id="org" transform="translate(1266.000000, 0.000000)">
                    <g id="Group-7" transform="translate(2.810304, 30.271280)">
                        <path d="M27.2548103,19.8439609 C27.2548103,25.7645871 22.4680187,30.5644932 16.5638501,30.5644932 C10.6591194,30.5644932 5.87232787,25.7645871 5.87232787,19.8439609 C5.87232787,13.9236164 10.6591194,9.12371037 16.5638501,9.12371037 C22.4680187,9.12371037 27.2548103,13.9236164 27.2548103,19.8439609" id="Fill-3" fill="#FEFEFE"></path>
                        <path d="M33.0787728,10.3114427 C33.0734333,9.81491037 32.8157283,9.3333135 32.3559625,9.06673033 L17.350904,0.353462231 C16.8900141,0.0871608611 16.3442529,0.104350685 15.9123091,0.348953425 C15.9094988,0.350644227 15.9061265,0.351771429 15.9030351,0.353462231 L0.897976581,9.06673033 C0.438210773,9.3324681 0.180505855,9.81321957 0.174604215,10.3091883 C0.174042155,10.3139789 0.172918033,10.3190513 0.172918033,10.3235601 L0.172918033,27.7506599 C0.172918033,28.28129 0.458444965,28.7440063 0.881957845,28.9979084 C0.887016393,29.0007264 0.891793911,29.0046716 0.89741452,29.0074896 L0.923831382,29.0227068 C0.927203747,29.0246795 0.930295082,29.0263703 0.933667447,29.0286247 L15.9030351,37.7213213 C15.9066885,37.7232939 15.910904,37.7244211 15.9154005,37.7266755 C16.3470632,37.9707147 16.8914192,37.9873409 17.350904,37.7213213 L32.3559625,29.0080532 C32.3632693,29.0038262 32.3700141,28.9990356 32.3770398,28.9939632 C32.7977424,28.7400611 33.0793349,28.2795992 33.0793349,27.7506599 L33.0793349,10.3235601 C33.0793349,10.3196149 33.0787728,10.3156697 33.0787728,10.3114427 L33.0787728,10.3114427 Z M23.0766183,24.8472705 C23.0766183,25.6487108 22.4288431,26.2988243 21.6273443,26.2988243 C20.8292178,26.2988243 20.1800375,25.6487108 20.1800375,24.8472705 L20.1800375,14.6818849 L13.0736206,14.6818849 L13.0736206,24.8472705 C13.0736206,25.6487108 12.4252834,26.2988243 11.6249087,26.2988243 C10.8259391,26.2988243 10.1767588,25.6487108 10.1767588,24.8472705 L10.1761967,13.2292039 C10.1761967,12.4274818 10.825377,11.7776501 11.6249087,11.7776501 L21.6293115,11.7776501 C22.428281,11.7776501 23.0766183,12.4274818 23.0766183,13.2292039 L23.0766183,24.8472705 Z" id="Fill-5" fill="#221F20"></path>
                    </g>
                </g>
            </g>
        </g>
    </g>
</svg>