<?xml version="1.0" encoding="UTF-8" standalone="no"?>
<svg width="39px" height="39px" viewBox="0 0 39 39" version="1.1" xmlns="http://www.w3.org/2000/svg" xmlns:xlink="http://www.w3.org/1999/xlink">
    <!-- Generator: Sketch 3.8.3 (29802) - http://www.bohemiancoding.com/sketch -->
    <title>Group 47</title>
    <desc>Created with Sketch.</desc>
    <defs></defs>
    <g id="V2" stroke="none" stroke-width="1" fill="none" fill-rule="evenodd">
        <g id="Desktop-1240-Copy-3" transform="translate(-1331.000000, -56.000000)">
            <g id="Group-2" transform="translate(27.000000, 26.000000)">
                <g id="org" transform="translate(1266.000000, 0.000000)">
                    <g id="Group-47" transform="translate(38.000000, 30.000000)">
                        <polygon id="Fill-8" fill="#FEFEFE" points="0.58323185 38.0829746 38.1398595 38.0829746 38.1398595 0.423452055 0.58323185 0.423452055"></polygon>
                        <polygon id="Fill-9" fill="#221F20" points="6.05995316 12.7987162 32.6622951 12.7987162 32.6622951 11.7047671 6.05995316 11.7047671"></polygon>
                        <path d="M26.4403653,14.79871 L23.4991007,14.79871 L23.4991007,25.0277824 L22.0925433,25.0277824 L22.0925433,18.0873205 C22.0925433,17.5062481 22.0579766,17.1387804 21.9483747,16.7794849 C21.7359157,16.0620211 21.240178,15.2946787 20.6188197,14.9869526 C20.243363,14.79871 19.8088899,14.7220603 19.356993,14.7220603 C18.8286557,14.7220603 18.3334801,14.8333714 17.916993,15.089528 C17.3625199,15.4228978 16.9359157,16.1468431 16.7400375,16.8482442 C16.6470164,17.1734419 16.6211616,17.531892 16.6211616,18.0873205 L16.6211616,25.0277824 L15.2157283,25.0277824 L15.2157283,14.79871 L12.2741827,14.79871 L12.2741827,25.0277824 L10.8842061,25.0277824 L10.8673443,14.79871 L8.02022482,14.79871 L8.02022482,25.0277824 L6.62266042,25.0277824 L6.62266042,14.79871 L6.05975644,14.79871 L6.05975644,13.7047609 L32.6623794,13.7047609 L32.6623794,14.79871 L32.1003185,14.79871 L32.1003185,25.0277824 L30.702192,25.0277824 L30.702192,14.79871 L27.8382108,14.79871 L27.8382108,25.0277824 L26.4403653,25.0277824 L26.4403653,14.79871 Z" id="Fill-10" fill="#221F20"></path>
                        <polygon id="Fill-12" fill="#221F20" points="6.50367213 9.79869746 7.3211897 8.70446654 8.13140047 9.79869746 7.3211897 10.8923648"></polygon>
                        <g id="Group-17" transform="translate(6.402810, 8.443491)" fill="#221F20">
                            <path d="M3.75754567,20.9176204 C4.23445433,21.1224892 4.64363466,21.6184579 4.64363466,22.3364853 C4.64363466,23.2596634 4.14030913,23.848908 3.50180796,24.0286967 C3.10920843,24.1473346 2.70030913,24.1473346 2.32485246,24.1473346 L0.0485058548,24.1473346 L0.0485058548,17.89982 L2.46171429,17.89982 C2.76016862,17.89982 3.09290867,17.9091194 3.42508665,17.9942231 C3.99698361,18.1480861 4.52419672,18.6263014 4.52419672,19.5072094 C4.52419672,20.3187945 4.06386885,20.7124697 3.75754567,20.8750685 L3.75754567,20.9176204 Z M2.50443091,20.6090489 C2.72616393,20.6090489 2.93047307,20.5834051 3.10049649,20.4813933 C3.34808431,20.3447202 3.51838876,20.054184 3.51838876,19.6179569 C3.51838876,19.1907476 3.31407963,18.909229 3.01506323,18.80609 C2.87117564,18.7466301 2.69187822,18.7288767 2.46171429,18.7288767 L1.03829508,18.7288767 L1.03829508,20.6090489 L2.50443091,20.6090489 Z M3.6119719,22.3364853 C3.6119719,21.8827867 3.39080094,21.6266301 3.12635129,21.5156008 C2.95520375,21.4471233 2.76016862,21.4299335 2.58930211,21.4299335 L1.03829508,21.4299335 L1.03829508,23.3275773 L2.57244028,23.3275773 C2.76016862,23.3275773 2.93946604,23.3103875 3.08419672,23.2596634 C3.41637471,23.1314442 3.6119719,22.8318904 3.6119719,22.3364853 L3.6119719,22.3364853 Z" id="Fill-13"></path>
                            <path d="M5.0095644,1.31214716 C4.79654333,1.23493386 4.64366276,1.03880078 4.64366276,0.799834051 C4.64366276,0.500280235 4.88281967,0.261031703 5.18970492,0.261031703 C5.48759719,0.261031703 5.72703513,0.500280235 5.72703513,0.799834051 C5.72703513,1.03880078 5.58118033,1.23493386 5.36759719,1.30369315 L5.88806557,2.36410802 L4.49022014,2.36410802 L5.0095644,1.31214716 Z" id="Fill-15"></path>
                        </g>
                        <path d="M18.9571148,31.6770317 L18.2921967,32.591474 L12.0356159,32.591474 L15.4279344,26.3431139 L17.5078407,26.3431139 L17.5078407,31.7032391 L18.9571148,31.6770317 Z M16.5363185,31.7449456 L16.5363185,27.103975 L15.8888244,27.103975 L13.4253115,31.7449456 L16.5363185,31.7449456 Z" id="Fill-18" fill="#221F20"></path>
                        <polygon id="Fill-19" fill="#221F20" points="15.215644 10.8075147 23.5001405 10.8075147 23.5001405 9.71300196 15.215644 9.71300196"></polygon>
                        <polygon id="Fill-20" fill="#221F20" points="17.6785948 8.8072955 21.0363466 8.8072955 21.0363466 7.71306458 17.6785948 7.71306458"></polygon>
                        <polygon id="Fill-21" fill="#221F20" points="18.1209368 4.90323288 20.5931616 4.90323288 20.5931616 3.81745597 18.1209368 3.81745597"></polygon>
                        <polygon id="Fill-22" fill="#221F20" points="18.444993 5.75937065 20.2691616 5.75937065 19.3569368 6.98971115"></polygon>
                        <polygon id="Fill-23" fill="#221F20" points="25.4699391 26.3431703 25.4699391 32.5912485 24.480993 32.5912485 24.480993 29.6943405 21.3191194 29.6943405 21.3191194 32.5912485 20.3380422 32.5912485 20.3380422 26.3431703 21.3191194 26.3431703 21.3191194 28.8390763 24.480993 28.8390763 24.480993 26.3431703"></polygon>
                        <path d="M26.9519251,9.7472407 C26.738904,9.67848141 26.5938923,9.48234834 26.5938923,9.2430998 C26.5938923,8.94354599 26.8322061,8.70457926 27.1309415,8.70457926 C27.4378267,8.70457926 27.6764215,8.94354599 27.6764215,9.2430998 C27.6764215,9.48234834 27.5226979,9.67848141 27.3102389,9.75569472 L27.8295831,10.8076556 L26.4320187,10.8076556 L26.9519251,9.7472407 Z" id="Fill-24" fill="#221F20"></path>
                        <polygon id="Fill-26" fill="#221F20" points="29.8752881 30.0448438 28.1624075 32.591474 27.1731803 32.591474 29.4065293 29.3690865 27.2757564 26.3431139 28.4611429 26.3431139 30.0118689 28.5490474 31.4861546 26.3431139 32.440815 26.3431139 30.4719157 29.2155053 32.8415644 32.591474 31.6648899 32.591474"></polygon>
                        <polygon id="Fill-27" fill="#221F20" points="30.5916066 9.79869746 31.4009742 8.70446654 32.2196159 9.79869746 31.4009742 10.8923648"></polygon>
                    </g>
                </g>
            </g>
        </g>
    </g>
</svg>