<?xml version="1.0" encoding="UTF-8" standalone="no"?>
<svg width="27px" height="30px" viewBox="0 0 27 30" version="1.1" xmlns="http://www.w3.org/2000/svg" xmlns:xlink="http://www.w3.org/1999/xlink">
    <!-- Generator: Sketch 3.8.3 (29802) - http://www.bohemiancoding.com/sketch -->
    <title>YouTube</title>
    <desc>Created with Sketch.</desc>
    <defs></defs>
    <g id="V2" stroke="none" stroke-width="1" fill="none" fill-rule="evenodd">
        <g id="Desktop-1240-Copy-3" transform="translate(-1003.000000, -2506.000000)" fill="#FFCE4F">
            <g id="Group-51" transform="translate(220.000000, 2506.000000)">
                <g id="social" transform="translate(660.000000, 0.000000)">
                    <g id="Social">
                        <path d="M143.880812,21.9790183 C143.699488,22.766481 143.051904,23.3480119 142.277393,23.4347882 C140.438253,23.6420153 138.573209,23.6420153 136.721118,23.6420153 C134.866436,23.6420153 133.003983,23.6420153 131.164843,23.4347882 C130.387741,23.3480119 129.742747,22.766481 129.561423,21.9777231 C129.30239,20.850926 129.30239,19.6256962 129.30239,18.467815 C129.30239,17.3112291 129.306275,16.0847041 129.565309,14.9617925 C129.746633,14.1717394 130.391627,13.5915037 131.168728,13.5047274 C133.007868,13.2975003 134.870321,13.2975003 136.725003,13.2975003 C138.577095,13.2975003 140.442138,13.2975003 142.281278,13.5047274 C143.05838,13.5915037 143.702079,14.1730346 143.883402,14.9617925 C144.142436,16.0859992 144.142436,17.3112291 144.142436,18.4691102 C144.142436,19.6269913 144.139846,20.8522212 143.880812,21.9790183 L143.880812,21.9790183 Z M132.75531,5.6896775 L133.467653,8.32405129 L134.154093,5.6896775 L135.16821,5.6896775 L133.959817,9.68268359 L133.959817,12.3999482 L132.954766,12.3999482 L132.954766,9.68397876 C132.864104,9.20217588 132.663353,8.49630877 132.340856,7.55990157 C132.128448,6.93822044 131.90827,6.3126538 131.695862,5.69097267 L132.754015,5.69097267 L132.75531,5.6896775 Z M135.177276,9.03121357 C135.177276,8.4950136 135.267938,8.10387256 135.462213,7.85260977 C135.710886,7.50938998 136.064467,7.33842766 136.515186,7.33842766 C136.968495,7.33842766 137.322076,7.50938998 137.573339,7.8513146 C137.762434,8.10387256 137.854391,8.4950136 137.854391,9.0299184 L137.854391,10.7809869 C137.854391,11.3120062 137.763729,11.7057376 137.573339,11.9570004 C137.322076,12.2976298 136.96979,12.4685922 136.515186,12.4685922 C136.064467,12.4685922 135.712181,12.2976298 135.460918,11.9570004 C135.266643,11.7057376 135.175981,11.3120062 135.175981,10.7809869 L135.175981,9.03121357 L135.177276,9.03121357 Z M138.600408,7.39930061 L139.503141,7.39930061 L139.503141,11.080171 C139.503141,11.2938739 139.503141,11.4039632 139.513502,11.4337521 C139.53552,11.5723352 139.606754,11.6448647 139.7285,11.6448647 C139.909824,11.6448647 140.100214,11.5023961 140.298375,11.2200492 L140.298375,7.39930061 L141.204993,7.39930061 L141.204993,12.398653 L140.298375,12.398653 L140.298375,11.854682 C139.939613,12.2665458 139.595098,12.467297 139.26483,12.467297 C138.973417,12.467297 138.772665,12.3507318 138.682004,12.0955835 C138.630197,11.946639 138.601703,11.7070328 138.601703,11.3534516 L138.601703,7.40059578 L138.600408,7.39930061 Z M136.70169,0 L123.75,7.49902862 L123.75,22.5009714 L136.70169,30 L149.65338,22.5009714 L149.65338,7.49902862 L136.70169,0 Z M136.515186,11.647455 C136.807894,11.647455 136.947772,11.4143246 136.947772,10.9532444 L136.947772,8.84988991 C136.947772,8.3862194 136.807894,8.15697449 136.515186,8.15697449 C136.222478,8.15697449 136.082599,8.3862194 136.082599,8.84988991 L136.082599,10.9532444 C136.082599,11.4156197 136.222478,11.647455 136.515186,11.647455 Z M138.845195,16.6714156 C138.513632,16.6714156 138.206677,16.8527393 137.917854,17.2089108 L137.917854,15.0369123 L137.020302,15.0369123 L137.020302,21.6811294 L137.916559,21.6811294 L137.916559,21.2019169 C138.214448,21.57104 138.522698,21.7484782 138.841309,21.7484782 C139.198776,21.7484782 139.437087,21.5606787 139.558833,21.1915555 C139.618411,20.9843285 139.649495,20.6527652 139.649495,20.1942754 L139.649495,18.2256184 C139.649495,17.7567673 139.618411,17.4290895 139.558833,17.2283383 C139.438382,16.8592151 139.198776,16.6714156 138.841309,16.6714156 L138.845195,16.6714156 Z M138.754533,20.2655096 C138.754533,20.712343 138.625016,20.9338169 138.365982,20.9338169 C138.217038,20.9338169 138.068094,20.8625826 137.917854,20.7136381 L137.917854,17.6958943 C138.066798,17.5495402 138.215743,17.4783059 138.363392,17.4783059 C138.622426,17.4783059 138.751943,17.7075508 138.751943,18.1543841 L138.751943,20.2655096 L138.754533,20.2655096 Z M140.626052,17.1791219 C140.435662,17.4290895 140.348886,17.816345 140.348886,18.344774 L140.348886,20.0777101 C140.348886,20.6035488 140.447319,20.9946898 140.637709,21.2433623 C140.896743,21.5801062 141.251619,21.7484782 141.72047,21.7484782 C142.189321,21.7484782 142.557149,21.57104 142.805822,21.2122782 C142.913321,21.0529724 142.984555,20.8729439 143.013049,20.6747831 C143.02341,20.5841212 143.033772,20.3859604 143.033772,20.0971377 L143.033772,19.9676208 L142.118087,19.9676208 C142.118087,20.3263826 142.107726,20.5245435 142.09866,20.5737599 C142.046853,20.8133661 141.919926,20.9338169 141.697157,20.9338169 C141.390202,20.9338169 141.241258,20.7045719 141.241258,20.2473773 L141.241258,19.3692527 L143.033772,19.3692527 L143.033772,18.3460692 C143.033772,17.8150499 142.94311,17.4290895 142.756605,17.180417 C142.505343,16.8397876 142.147876,16.6714156 141.698452,16.6714156 C141.242553,16.6714156 140.885086,16.8397876 140.626052,17.1791219 Z M142.13881,18.6245305 L141.242553,18.6245305 L141.242553,18.1660407 C141.242553,17.7075508 141.391497,17.4796011 141.691976,17.4796011 C141.989865,17.4796011 142.13881,17.7075508 142.13881,18.1660407 L142.13881,18.6232353 L142.13881,18.6245305 Z M135.346943,20.5154773 C135.147487,20.7952338 134.958393,20.9338169 134.779659,20.9338169 C134.660504,20.9338169 134.59186,20.8625826 134.569842,20.7239995 C134.562071,20.6980961 134.562071,20.5867116 134.562071,20.3768942 L134.562071,16.7335837 L133.665814,16.7335837 L133.665814,20.6449942 C133.665814,20.9946898 133.695603,21.2304106 133.743524,21.3806502 C133.834186,21.631913 134.033642,21.7484782 134.322465,21.7484782 C134.652733,21.7484782 134.990772,21.5503173 135.345648,21.1397487 L135.345648,21.6811294 L136.244496,21.6811294 L136.244496,16.7335837 L135.346943,16.7335837 L135.346943,20.5154773 L135.346943,20.5154773 Z M130.409759,15.9733195 L131.464027,15.9733195 L131.464027,21.6798342 L132.461307,21.6798342 L132.461307,15.9720243 L133.536297,15.9720243 L133.536297,15.0369123 L130.409759,15.0369123 L130.409759,15.9733195 Z" id="YouTube"></path>
                    </g>
                </g>
            </g>
        </g>
    </g>
</svg>