<?xml version="1.0" encoding="utf-8"?>
<!-- Generator: Adobe Illustrator 18.0.0, SVG Export Plug-In . SVG Version: 6.00 Build 0)  -->
<!DOCTYPE svg PUBLIC "-//W3C//DTD SVG 1.1//EN" "http://www.w3.org/Graphics/SVG/1.1/DTD/svg11.dtd">
<svg version="1.1" id="Слой_1" xmlns="http://www.w3.org/2000/svg" xmlns:xlink="http://www.w3.org/1999/xlink" x="0px" y="0px"
	 viewBox="0 0 120 50.342" enable-background="new 0 0 120 50.342" xml:space="preserve">
<g>
	<defs>
		<rect id="SVGID_1_" y="0" width="120" height="50.342"/>
	</defs>
	<clipPath id="SVGID_2_">
		<use xlink:href="#SVGID_1_"  overflow="visible"/>
	</clipPath>
	<path clip-path="url(#SVGID_2_)" fill="#282828" d="M99.114,27.689c-1.388,2.401-4.461,3.22-6.86,1.835
		c-2.403-1.386-3.226-4.456-1.84-6.858c1.386-2.4,4.458-3.223,6.858-1.836C99.674,22.216,100.5,25.286,99.114,27.689"/>
	<path clip-path="url(#SVGID_2_)" fill="#282828" d="M45.879,35.245c0,1.389,0.49,2.576,1.473,3.557
		c0.983,0.983,2.167,1.474,3.559,1.474c1.389,0,2.576-0.491,3.559-1.474c0.981-0.981,1.473-2.168,1.473-3.557
		c0-1.39-0.492-2.577-1.473-3.56c-0.983-0.981-2.17-1.474-3.559-1.474c-1.392,0-2.576,0.493-3.559,1.474
		C46.369,32.668,45.879,33.855,45.879,35.245 M35.814,15.114c0-2.06,0.396-4.015,1.185-5.859c0.792-1.845,1.87-3.451,3.236-4.817
		s2.97-2.445,4.817-3.236c1.844-0.791,3.798-1.185,5.859-1.185c2.059,0,4.015,0.394,5.859,1.185c1.845,0.791,3.451,1.87,4.817,3.236
		s2.445,2.972,3.236,4.817c0.791,1.844,1.185,3.799,1.185,5.859H55.943c0-1.389-0.492-2.576-1.473-3.56
		c-0.983-0.98-2.17-1.474-3.559-1.474c-1.392,0-2.576,0.494-3.559,1.474c-0.983,0.984-1.473,2.171-1.473,3.56v5.968
		c0.813-0.29,1.628-0.515,2.445-0.683c0.813-0.168,1.676-0.253,2.587-0.253c2.059,0,4.015,0.395,5.859,1.187
		c1.845,0.791,3.451,1.87,4.817,3.236c1.366,1.366,2.445,2.972,3.236,4.817c0.791,1.844,1.185,3.797,1.185,5.859
		c0,2.061-0.394,4.014-1.185,5.859c-0.791,1.844-1.87,3.451-3.236,4.817c-1.366,1.366-2.972,2.444-4.817,3.234
		c-1.844,0.791-3.8,1.187-5.859,1.187c-2.061,0-4.015-0.396-5.859-1.187c-1.847-0.79-3.451-1.868-4.817-3.234
		c-1.366-1.366-2.444-2.973-3.236-4.817c-0.789-1.845-1.185-3.798-1.185-5.859V15.114z"/>
	<path clip-path="url(#SVGID_2_)" fill="#282828" d="M114.768,30.875c2.406,1.389,3.23,4.466,1.838,6.872
		c-1.389,2.41-4.468,3.23-6.874,1.843c-2.404-1.392-3.227-4.466-1.838-6.877C109.281,30.309,112.362,29.488,114.768,30.875"/>
	<path clip-path="url(#SVGID_2_)" fill="#282828" d="M107.901,32.696l8.718,5.034c2.136-3.698,3.377-7.974,3.381-12.551
		l-10.072-0.002C109.926,27.92,109.182,30.479,107.901,32.696"/>
	<path clip-path="url(#SVGID_2_)" fill="#282828" d="M114.96,20.148c2.779-0.002,5.029,2.251,5.029,5.029
		c0.003,2.783-2.257,5.034-5.033,5.034c-2.777,0-5.03-2.251-5.032-5.035C109.924,22.399,112.18,20.146,114.96,20.148"/>
	<path clip-path="url(#SVGID_2_)" fill="#282828" d="M109.922,25.156h10.067c0.003-4.272-1.059-8.595-3.348-12.557l-8.721,5.034
		C109.288,20.007,109.922,22.599,109.922,25.156"/>
	<path clip-path="url(#SVGID_2_)" fill="#282828" d="M109.76,10.761c2.408-1.391,5.481-0.566,6.872,1.84
		c1.389,2.411,0.562,5.487-1.845,6.876c-2.404,1.388-5.478,0.564-6.874-1.844C106.526,15.229,107.354,12.15,109.76,10.761"/>
	<path clip-path="url(#SVGID_2_)" fill="#282828" d="M107.905,17.618l8.714-5.036c-2.131-3.7-5.212-6.912-9.176-9.199l-5.038,8.721
		C104.78,13.476,106.624,15.401,107.905,17.618"/>
	<path clip-path="url(#SVGID_2_)" fill="#282828" d="M100.565,5.232c1.389-2.406,4.464-3.232,6.872-1.841
		c2.408,1.39,3.232,4.468,1.84,6.875c-1.389,2.406-4.461,3.231-6.874,1.84C100.001,10.716,99.176,7.636,100.565,5.232"/>
	<path clip-path="url(#SVGID_2_)" fill="#282828" d="M102.388,12.097l5.027-8.719C103.72,1.242,99.446,0,94.869,0l-0.002,10.07
		C97.609,10.071,100.171,10.816,102.388,12.097"/>
	<path clip-path="url(#SVGID_2_)" fill="#282828" d="M94.848,10.076L94.844,0.008c-4.27-0.002-8.591,1.06-12.553,3.349l5.03,8.723
		C89.702,10.71,92.291,10.076,94.848,10.076"/>
	<path clip-path="url(#SVGID_2_)" fill="#282828" d="M80.451,10.238c-1.389-2.404-0.564-5.483,1.842-6.87
		c2.409-1.394,5.485-0.564,6.874,1.843c1.388,2.406,0.564,5.48-1.846,6.874C84.917,13.472,81.84,12.644,80.451,10.238"/>
	<path clip-path="url(#SVGID_2_)" fill="#282828" d="M87.308,12.095l-5.034-8.717c-3.702,2.134-6.914,5.215-9.201,9.179l8.721,5.033
		C83.168,15.218,85.091,13.374,87.308,12.095"/>
	<path clip-path="url(#SVGID_2_)" fill="#282828" d="M74.922,19.433c-2.406-1.387-3.232-4.464-1.84-6.87
		c1.391-2.41,4.47-3.232,6.874-1.844c2.408,1.391,3.229,4.465,1.838,6.878C80.409,19.999,77.326,20.824,74.922,19.433"/>
	<path clip-path="url(#SVGID_2_)" fill="#282828" d="M81.787,17.612l-8.716-5.03c-2.139,3.698-3.381,7.972-3.377,12.547
		l10.066,0.004C79.766,22.39,80.508,19.829,81.787,17.612"/>
	<path clip-path="url(#SVGID_2_)" fill="#282828" d="M100.531,5.257c1.389-2.406,4.466-3.23,6.87-1.838
		c2.41,1.387,3.231,4.467,1.844,6.874c-1.391,2.404-4.465,3.227-6.876,1.838C99.965,10.742,99.142,7.663,100.531,5.257"/>
	<path clip-path="url(#SVGID_2_)" fill="#282828" d="M102.35,12.125l5.034-8.719c-3.698-2.138-7.974-3.378-12.548-3.38
		l-0.002,10.072C97.574,10.099,100.135,10.842,102.35,12.125"/>
	<path clip-path="url(#SVGID_2_)" fill="#282828" d="M94.812,10.104V0.036c-4.272-0.002-8.593,1.06-12.555,3.349l5.032,8.721
		C89.663,10.736,92.255,10.104,94.812,10.104"/>
	<path clip-path="url(#SVGID_2_)" fill="#282828" d="M80.419,10.265c-1.391-2.408-0.566-5.483,1.84-6.872
		c2.409-1.391,5.485-0.564,6.874,1.842c1.387,2.407,0.566,5.481-1.844,6.875C84.885,13.499,81.806,12.671,80.419,10.265"/>
	<path clip-path="url(#SVGID_2_)" fill="#282828" d="M87.274,12.121L82.24,3.407c-3.7,2.129-6.914,5.212-9.199,9.176l8.718,5.038
		C83.132,15.246,85.057,13.402,87.274,12.121"/>
	<path clip-path="url(#SVGID_2_)" fill="#282828" d="M74.89,19.461c-2.408-1.389-3.232-4.464-1.843-6.872
		c1.392-2.408,4.471-3.232,6.875-1.842c2.406,1.391,3.231,4.463,1.84,6.876C80.375,20.025,77.294,20.85,74.89,19.461"/>
	<path clip-path="url(#SVGID_2_)" fill="#282828" d="M81.753,17.637l-8.717-5.029c-2.138,3.697-3.378,7.971-3.378,12.548
		l10.067,0.002C79.73,22.416,80.474,19.854,81.753,17.637"/>
	<path clip-path="url(#SVGID_2_)" fill="#282828" d="M79.734,25.177l-10.068,0.004c-0.002,4.27,1.06,8.593,3.349,12.555l8.721-5.032
		C80.366,30.326,79.732,27.736,79.734,25.177"/>
	<path clip-path="url(#SVGID_2_)" fill="#282828" d="M79.896,39.574c-2.406,1.392-5.483,0.566-6.87-1.84
		c-1.393-2.409-0.564-5.487,1.84-6.874c2.407-1.39,5.481-0.566,6.875,1.844C83.128,35.108,82.3,38.185,79.896,39.574"/>
	<path clip-path="url(#SVGID_2_)" fill="#282828" d="M81.751,32.717l-8.716,5.036c2.134,3.7,5.214,6.912,9.178,9.199l5.036-8.721
		C84.874,36.857,83.032,34.936,81.751,32.717"/>
	<path clip-path="url(#SVGID_2_)" fill="#282828" d="M89.089,45.104c-1.387,2.409-4.463,3.232-6.87,1.84
		c-2.408-1.389-3.231-4.469-1.842-6.873c1.389-2.409,4.464-3.23,6.876-1.839C89.655,39.619,90.481,42.7,89.089,45.104"/>
	<path clip-path="url(#SVGID_2_)" fill="#282828" d="M87.268,38.238l-5.029,8.716c3.697,2.141,7.972,3.383,12.546,3.379
		l0.004-10.068C92.046,40.261,89.485,39.518,87.268,38.238"/>
	<path clip-path="url(#SVGID_2_)" fill="#282828" d="M6.399,15.101c-2.731,0-5.033-2.302-5.033-5.034
		c0-1.006,0.359-1.942,0.719-2.589C4.027,4.17,8.411,0,15.097,0c8.269,0,15.1,6.831,15.1,15.101c0,3.883-1.511,7.406-3.883,10.065
		c2.372,2.732,3.883,6.255,3.883,10.068c0,8.268-6.831,15.099-15.1,15.099C6.831,50.333,0,43.502,0,35.234h10.064
		c0,2.732,2.302,5.031,5.033,5.031c2.734,0,5.034-2.299,5.034-5.031c0-2.734-2.3-5.034-5.034-5.034
		c-2.731,0-5.033-2.302-5.033-5.034s2.302-5.034,5.033-5.034c2.734,0,5.034-2.299,5.034-5.031c0-2.734-2.3-5.034-5.034-5.034
		c-1.867,0-3.522,1.079-4.384,2.587C9.85,14.165,8.197,15.101,6.399,15.101"/>
</g>
</svg>
