<?xml version="1.0" encoding="utf-8"?>
<!-- Generator: Adobe Illustrator 18.0.0, SVG Export Plug-In . SVG Version: 6.00 Build 0)  -->
<!DOCTYPE svg PUBLIC "-//W3C//DTD SVG 1.1//EN" "http://www.w3.org/Graphics/SVG/1.1/DTD/svg11.dtd">
<svg version="1.1" id="Layer_1" xmlns="http://www.w3.org/2000/svg" xmlns:xlink="http://www.w3.org/1999/xlink" x="0px" y="0px"
	 viewBox="0 0 401.4 90" enable-background="new 0 0 401.4 90" xml:space="preserve">
<g>
	<defs>
		<rect id="SVGID_1_" x="-199.3" y="-255" width="800" height="600"/>
	</defs>
	<clipPath id="SVGID_2_">
		<use xlink:href="#SVGID_1_"  overflow="visible"/>
	</clipPath>
	<path clip-path="url(#SVGID_2_)" fill="#C8C8C8" d="M59.6,32.3c0-6.1-5.1-8.7-10.8-8.7H2.6l0,8.6h35.1c2.7,0,4.9,1,4.9,4.2l0,1.6
		H9.2C3.4,38,0,42.2,0,46.8v10.3c0,4.2,3.2,9.2,9.2,9.2h50.4L59.6,32.3z M16.8,51c0-2.3,1.3-4.2,4.9-4.2h21V57H21.8
		c-4.1,0-5-2.5-5-3.8V51z"/>
	<path clip-path="url(#SVGID_2_)" fill="#C8C8C8" d="M401.5,32.3c0-6.1-5.1-8.7-10.8-8.7h-46.2l0,8.6h35.1c2.7,0,4.9,1,4.9,4.2
		l0,1.6H351c-5.8,0-9.2,4.2-9.2,8.9v10.3c0,4.2,3.2,9.2,9.2,9.2h50.4L401.5,32.3z M358.7,51c0-2.3,1.3-4.2,4.9-4.2h21V57h-20.9
		c-4.1,0-5-2.5-5-3.8V51z"/>
	<path clip-path="url(#SVGID_2_)" fill="#C8C8C8" d="M213.7,44.7v21.6l17.6,0V23.7h-17.6l-25.3,27.9c0,0,0.1-2.2,0.1-5V23.7h-17.6
		v42.6h17.6l25.3-28.1C213.8,38.2,213.7,42.5,213.7,44.7"/>
</g>
<polygon fill="#C8C8C8" points="333.8,23.7 316.3,23.7 316.3,57 295.7,57 295.7,23.7 278.2,23.7 278.2,57 257.6,57 257.6,23.7 
	240,23.7 240,66.3 333.8,66.3 "/>
<g>
	<defs>
		<rect id="SVGID_3_" x="-199.3" y="-255" width="800" height="600"/>
	</defs>
	<clipPath id="SVGID_4_">
		<use xlink:href="#SVGID_3_"  overflow="visible"/>
	</clipPath>
	<path clip-path="url(#SVGID_4_)" fill="#C8C8C8" d="M146,52.7c0,3.1-2.2,4.6-4.9,4.6h-16.9V32.1H141c2.7,0,4.9,1.4,4.9,4.6V52.7z
		 M106.6,57.3H89.7c-2.7,0-4.9-1.4-4.9-4.6V36.7c0-3.2,2.2-4.6,4.9-4.6h16.9V57.3z M152.1,23.5h-28V0h-17.6v23.5h-28
		c-5.7,0-10.8,2.6-10.8,8.7v25c0,6.1,5.1,9.3,10.8,9.3h28V90h17.6V66.5h28c5.7,0,10.8-3.2,10.8-9.3v-25
		C162.9,26.1,157.8,23.5,152.1,23.5"/>
</g>
</svg>
