<?xml version="1.0" encoding="utf-8"?>
<!-- Generator: Adobe Illustrator 18.0.0, SVG Export Plug-In . SVG Version: 6.00 Build 0)  -->
<!DOCTYPE svg PUBLIC "-//W3C//DTD SVG 1.1//EN" "http://www.w3.org/Graphics/SVG/1.1/DTD/svg11.dtd">
<svg version="1.1" id="Слой_1" xmlns="http://www.w3.org/2000/svg" xmlns:xlink="http://www.w3.org/1999/xlink" x="0px" y="0px"
	 viewBox="0 0 120 50.4" enable-background="new 0 0 120 50.4" xml:space="preserve">
<g>
	<defs>
		<rect id="SVGID_1_" y="0" width="120" height="50.4"/>
	</defs>
	<clipPath id="SVGID_2_">
		<use xlink:href="#SVGID_1_"  overflow="visible"/>
	</clipPath>
	<path clip-path="url(#SVGID_2_)" fill="#2E2B2B" d="M35.9,15.1c0-2.1,0.4-4,1.2-5.9c0.8-1.8,1.9-3.5,3.2-4.8c1.4-1.4,3-2.4,4.8-3.2
		C46.9,0.4,48.9,0,51,0c2.1,0,4,0.4,5.9,1.2c1.8,0.8,3.5,1.9,4.8,3.2c1.4,1.4,2.4,3,3.2,4.8c0.8,1.8,1.2,3.8,1.2,5.9H56
		c0-1.4-0.5-2.6-1.5-3.6c-1-1-2.2-1.5-3.6-1.5c-1.4,0-2.6,0.5-3.6,1.5c-1,1-1.5,2.2-1.5,3.6v6c0.8-0.3,1.6-0.5,2.4-0.7
		c0.8-0.2,1.7-0.3,2.6-0.3c2.1,0,4,0.4,5.9,1.2c1.8,0.8,3.5,1.9,4.8,3.2c1.4,1.4,2.4,3,3.2,4.8c0.8,1.8,1.2,3.8,1.2,5.9
		c0,2.1-0.4,4-1.2,5.9C64.1,43,63,44.6,61.7,46c-1.4,1.4-3,2.4-4.8,3.2C55,50,53,50.4,51,50.4c-2.1,0-4-0.4-5.9-1.2
		c-1.8-0.8-3.5-1.9-4.8-3.2c-1.4-1.4-2.4-3-3.2-4.8c-0.8-1.8-1.2-3.8-1.2-5.9V15.1z M45.9,35.3c0,1.4,0.5,2.6,1.5,3.6
		c1,1,2.2,1.5,3.6,1.5c1.4,0,2.6-0.5,3.6-1.5c1-1,1.5-2.2,1.5-3.6c0-1.4-0.5-2.6-1.5-3.6c-1-1-2.2-1.5-3.6-1.5
		c-1.4,0-2.6,0.5-3.6,1.5C46.4,32.7,45.9,33.9,45.9,35.3"/>
	<path clip-path="url(#SVGID_2_)" fill="#2E2B2B" d="M6.4,15.1c-2.7,0-5-2.3-5-5c0-1,0.4-1.9,0.7-2.6C4,4.2,8.4,0,15.1,0
		c8.3,0,15.1,6.8,15.1,15.1c0,3.9-1.5,7.4-3.9,10.1c2.4,2.7,3.9,6.3,3.9,10.1c0,8.3-6.8,15.1-15.1,15.1C6.8,50.4,0,43.5,0,35.3h10.1
		c0,2.7,2.3,5,5,5c2.7,0,5-2.3,5-5c0-2.7-2.3-5-5-5c-2.7,0-5-2.3-5-5c0-2.7,2.3-5,5-5c2.7,0,5-2.3,5-5c0-2.7-2.3-5-5-5
		c-1.9,0-3.5,1.1-4.4,2.6C9.9,14.2,8.2,15.1,6.4,15.1"/>
	<path clip-path="url(#SVGID_2_)" fill="#2E2B2B" d="M99.9,25.2c0,2.8-2.3,5-5,5c-2.8,0-5-2.3-5-5s2.3-5,5-5
		C97.6,20.1,99.9,22.4,99.9,25.2"/>
	<path clip-path="url(#SVGID_2_)" fill="#3D21DE" d="M99.2,27.7c-0.9,1.5-2.5,2.5-4.3,2.5c-2.8,0-5-2.3-5-5s2.2-5,5-5
		c2.8,0,5-2.2,5-5c0-2.8-2.3-5-5-5c-8.3,0-15.1,6.8-15.1,15.1c0,8.3,6.8,15.1,15.1,15.1c5.6,0,10.4-3,13-7.5L99.2,27.7z"/>
	<path clip-path="url(#SVGID_2_)" fill="#2E2B2B" d="M94.9,0C81,0,69.7,11.3,69.7,25.2C69.7,39,81,50.3,94.9,50.3V40.2
		c-8.3,0-15.1-6.8-15.1-15.1c0-8.3,6.8-15.1,15.1-15.1s15.1,6.8,15.1,15.1c0,2.7-0.7,5.3-2,7.5l8.7,5c2.1-3.7,3.4-8,3.4-12.6
		C120,11.3,108.7,0,94.9,0"/>
</g>
</svg>
