<?xml version="1.0" encoding="utf-8"?>
<!-- Generator: Adobe Illustrator 18.0.0, SVG Export Plug-In . SVG Version: 6.00 Build 0)  -->
<!DOCTYPE svg PUBLIC "-//W3C//DTD SVG 1.1//EN" "http://www.w3.org/Graphics/SVG/1.1/DTD/svg11.dtd">
<svg version="1.1" id="Слой_1" xmlns="http://www.w3.org/2000/svg" xmlns:xlink="http://www.w3.org/1999/xlink" x="0px" y="0px"
	 viewBox="0 0 797.978 807.115" enable-background="new 0 0 797.978 807.115" xml:space="preserve">
<g>
	<defs>
		<rect id="SVGID_1_" width="797.978" height="807.115"/>
	</defs>
	<clipPath id="SVGID_2_">
		<use xlink:href="#SVGID_1_"  overflow="visible"/>
	</clipPath>
	<path clip-path="url(#SVGID_2_)" fill="#FF3B29" d="M687.768,792.1h60.06v-20.02h-40.04v-20.02h20.02v-20.02h-20.02v-20.02h40.04
		V692h-60.06V792.1z M609.733,792.1h60.06v-20.02h-40.04v-20.02h30.03v-20.02h-30.03v-20.02h40.04V692h-60.06V792.1z M491.502,792.1
		h80.08v15.015h20.02V772.08h-10.01V692h-20.02v80.08h-15.015V692h-20.02v80.08h-15.015V692h-20.02V792.1z M446.787,752.06
		c3.432,0,6.864-0.572,10.01-1.716v11.726c0,5.434-4.576,10.01-10.01,10.01s-10.01-4.576-10.01-10.01
		C436.777,756.636,441.353,752.06,446.787,752.06 M456.797,722.03c0,5.434-4.576,10.01-10.01,10.01s-10.01-4.576-10.01-10.01V692
		h-20.02v30.03c0,7.722,2.86,14.729,7.722,20.02c-4.862,5.291-7.722,12.441-7.722,20.02c0,16.445,13.585,30.03,30.03,30.03
		s30.03-13.585,30.03-30.03V692h-20.02V722.03z M349.377,772.08l22.022-55.055v55.055H349.377z M361.389,692l-32.032,80.08h-8.008
		v35.035h20.02V792.1h40.04v15.015h20.02V772.08h-10.01V692H361.389z M282.74,792.1L322.78,692h-20.02l-15.015,37.609L272.73,692
		h-20.02l25.025,62.634L262.72,792.1H282.74z M207.45,752.06c5.434,0,10.01,4.576,10.01,10.01c0,5.434-4.576,10.01-10.01,10.01
		h-10.01v-20.02H207.45z M177.42,792.1h30.03c16.445,0,30.03-13.585,30.03-30.03s-13.585-30.03-30.03-30.03h-10.01v-20.02h35.035
		V692H177.42V792.1z M70.171,692h-20.02v100.1h20.02l20.02-50.05v50.05h20.02V692h-20.02l-20.02,50.05V692z"/>
	<path clip-path="url(#SVGID_2_)" fill="#FF3B29" d="M767.948,539.02c5.434,0,10.01,4.576,10.01,10.01
		c0,5.434-4.576,10.01-10.01,10.01h-10.01v-20.02H767.948z M737.918,619.1h20.02v-40.04h10.01c16.445,0,30.03-13.585,30.03-30.03
		c0-16.445-13.585-30.03-30.03-30.03h-30.03V619.1z M703.657,619.1h20.02V519h-20.02l-10.01,50.05h10.01V619.1z M683.637,519h-20.02
		v100.1h20.02l10.01-50.05h-10.01V519z M624.85,619.1h20.02V519h-30.03l-10.01,50.05L594.82,519h-30.03v100.1h20.02v-50.05
		l10.01,50.05h20.02l10.01-50.05V619.1z M437.52,539.02h20.02v80.08h20.02v-80.08h20.02V519h-60.06V539.02z M410.093,569.05
		l-12.012,30.03h-6.006l-12.012-30.03l12.012-30.03h6.006L410.093,569.05z M380.063,619.1h30.03l20.02-50.05L410.093,519h-30.03
		l-20.02,50.05V519h-20.02v100.1h20.02l10.01-25.025L380.063,619.1z M281.308,549.03c0-5.434,4.576-10.01,10.01-10.01h10.01v20.02
		h-10.01C285.884,559.04,281.308,554.464,281.308,549.03 M321.348,519h-30.03c-16.445,0-30.03,13.585-30.03,30.03
		c0,7.722,2.86,14.729,7.722,20.02c-4.862,5.434-7.722,12.441-7.722,20.02v30.03h20.02v-30.03c0-5.434,4.576-10.01,10.01-10.01
		h10.01v40.04h20.02V519z M220.004,619.1h20.02V519h-20.02v40.04h-20.02V519h-20.02v100.1h20.02v-40.04h20.02V619.1z M101.93,619.1
		h60.06v-20.02h-40.04v-20.02h30.03v-20.02h-30.03v-20.02h40.04V519h-60.06V619.1z M60.06,619.1h20.02V519H50.05l-10.01,50.05
		L30.03,519H0v100.1h20.02v-50.05l10.01,50.05h20.02l10.01-50.05V619.1z"/>
	<path clip-path="url(#SVGID_2_)" fill="#FF3B29" d="M614.531,406.06h-4.004l2.002-10.01L614.531,406.06z M602.519,446.1
		l4.004-20.02h12.012l4.004,20.02h20.02L622.539,346h-20.02l-20.02,100.1H602.519z M548.938,346l-20.02,50.05V346h-20.02v100.1
		h20.02l13.299-33.319l6.721,33.319h20.02l-10.01-50.05h-10.01l20.02-50.05H548.938z M453.143,446.1l40.04-100.1h-20.02
		l-15.015,37.609L443.133,346h-20.02l25.025,62.634L433.123,446.1H453.143z M376.668,376.03c0-5.434,4.576-10.01,10.01-10.01
		s10.01,4.576,10.01,10.01c0,5.434-4.576,10.01-10.01,10.01S376.668,381.464,376.668,376.03 M416.708,446.1v-30.03
		c0-7.579-3.003-14.586-7.722-20.02c4.719-5.291,7.722-12.298,7.722-20.02c0-16.445-13.585-30.03-30.03-30.03
		s-30.03,13.585-30.03,30.03c0,7.722,2.86,14.729,7.722,20.02c-4.862,5.434-7.722,12.441-7.722,20.02v30.03h20.02v-30.03
		c0-5.434,4.433-10.01,10.01-10.01c5.434,0,10.01,4.576,10.01,10.01v30.03H416.708z M317.724,446.1h20.019V346h-20.019v40.04
		h-20.021V346h-20.02v100.1h20.02v-40.04h20.021V446.1z M170.434,346h-20.02v100.1h20.02l20.02-50.05v50.05h20.02V346h-20.02
		l-20.02,50.05V346z"/>
	<path clip-path="url(#SVGID_2_)" fill="#FF3B29" d="M758.91,273.1h20.021V173H758.91l-10.01,50.05h10.01V273.1z M738.891,173
		h-20.02v100.1h20.02l10.009-50.05h-10.009V173z M660.155,173h-20.02v100.1h20.02l20.02-50.05v50.05h20.02V173h-20.02l-20.02,50.05
		V173z M567.106,273.1h20.02v-80.08h35.035V173h-55.055V273.1z M526.109,243.07c0,5.434-4.577,10.01-10.01,10.01
		c-5.434,0-10.01-4.576-10.01-10.01v-40.04c0-5.434,4.576-10.01,10.01-10.01c5.433,0,10.01,4.576,10.01,10.01V243.07z
		 M546.129,203.03c0-16.445-13.585-30.03-30.03-30.03c-16.445,0-30.03,13.585-30.03,30.03v40.04c0,16.445,13.585,30.03,30.03,30.03
		c16.445,0,30.03-13.585,30.03-30.03V203.03z M440.066,173l-40.04,100.1h20.02l25.025-62.491V273.1h20.02V173H440.066z
		 M366.822,243.07c0,5.434-4.576,10.01-10.01,10.01c-5.434,0-10.01-4.576-10.01-10.01v-40.04c0-5.434,4.576-10.01,10.01-10.01
		c5.434,0,10.01,4.576,10.01,10.01V243.07z M386.842,203.03c0-16.445-13.585-30.03-30.03-30.03s-30.03,13.585-30.03,30.03v40.04
		c0,16.445,13.585,30.03,30.03,30.03s30.03-13.585,30.03-30.03V203.03z M285.784,273.1h20.02V173h-20.02v40.04h-20.02V173h-20.02
		v100.1h20.02v-40.04h20.02V273.1z M185.484,273.1l10.01-25.025l10.01,25.025h20.02l-20.02-50.05l20.02-50.05h-20.02l-10.01,25.025
		L185.484,173h-20.02l20.02,50.05l-20.02,50.05H185.484z M132.947,173l-6.006,30.03h20.02l6.006-30.03H132.947z M124.939,243.07
		l-12.012,30.03l8.008-40.04h22.022v-20.02h-26.026L132.947,173h-20.02l-24.024,60.06h12.012l-8.008,40.04h40.04l12.012-30.03
		H124.939z M19.048,193.02h20.02v80.08h20.02v-80.08h20.02V173h-60.06V193.02z"/>
	<path clip-path="url(#SVGID_2_)" fill="#FF3B29" d="M444.734,100.1h20.02V60.06h9.009l16.016,40.04h20.02l-20.02-50.05L509.799,0
		h-20.02l-16.016,40.04h-9.009V0h-20.02V100.1z M402.25,60.06l4.004-10.01v10.01H402.25z M366.214,80.08h8.008l-8.008,20.02h20.02
		l8.008-20.02h12.012v20.02h20.02V0h-20.02L382.23,60.06h-16.016V80.08z M318.209,60.06c5.434,0,10.01,4.576,10.01,10.01v30.03
		h20.02V70.07c0-7.579-3.003-14.586-7.722-20.02c4.719-5.291,7.722-12.298,7.722-20.02V0h-20.02v30.03
		c0,5.434-4.576,10.01-10.01,10.01h-10.01V0h-20.02v100.1h20.02V60.06H318.209z"/>
</g>
</svg>
