<?xml version="1.0" encoding="utf-8"?>
<!-- Generator: Adobe Illustrator 18.0.0, SVG Export Plug-In . SVG Version: 6.00 Build 0)  -->
<!DOCTYPE svg PUBLIC "-//W3C//DTD SVG 1.1//EN" "http://www.w3.org/Graphics/SVG/1.1/DTD/svg11.dtd">
<svg version="1.1" id="Слой_1" xmlns="http://www.w3.org/2000/svg" xmlns:xlink="http://www.w3.org/1999/xlink" x="0px" y="0px"
	 viewBox="0 0 543.4 580.4" enable-background="new 0 0 543.4 580.4" xml:space="preserve">
<g>
	<defs>
		<rect id="SVGID_1_" width="543.4" height="580.4"/>
	</defs>
	<clipPath id="SVGID_2_">
		<use xlink:href="#SVGID_1_"  overflow="visible"/>
	</clipPath>
	<path clip-path="url(#SVGID_2_)" fill="#FF3B29" d="M523.4,420.3h20v-20h-20V420.3z M501.7,320.2h-20l-20,50l-20-50h-20v100.1h20
		v-50.1l20,50.1l20-50.1v50.1h20V320.2z M377.8,420.3h20V320.2h-20l-10,50h10V420.3z M357.8,320.2h-20v100.1h20l10-50.1h-10V320.2z
		 M257.1,320.2v20h0.7c5.1,0.4,9.3,4.9,9.3,10v70.1h20v-70.1c0-3.4-0.7-6.9-1.9-10h31.9v-20H257.1z M175.1,420.3h10
		c16.4,0,30-13.6,30-30v-7.4l25-62.6h-20l-15,37.6l-15-37.6h-20l25,62.6v7.4c0,5.4-4.6,10-10,10h-10V420.3z M129.2,340.2
		c5.4,0,10,4.6,10,10c0,5.4-4.6,10-10,10h-10v-20H129.2z M99.1,420.3h20v-40h10c16.4,0,30-13.6,30-30c0-16.4-13.6-30-30-30h-30
		V420.3z M41,340.2h9v60.1H29L41,340.2z M25,320.2L9,400.3H0v35h20v-15h40v15h20v-35h-10v-80.1H25z"/>
	<path clip-path="url(#SVGID_2_)" fill="#FF3B29" d="M426.3,180.1h25v80.1h20v-80.1h25v-20h-70.1V180.1z M392.9,160.1l-6,30h20l6-30
		H392.9z M384.9,230.2l-12,30l8-40h22v-20h-26l16-40h-20l-24,60.1h12l-8,40h40l12-30H384.9z M313.1,260.2h20V160.1h-20v40h-20v-40
		h-20v100.1h20v-40h20V260.2z M224.9,220.2h-4l2-10L224.9,220.2z M212.8,260.2l4-20h12l4,20h20l-20-100.1h-20l-20,100.1H212.8z
		 M114.4,180.1h25v80.1h20v-80.1h25v-20h-70.1V180.1z M87.1,230.2c0,5.4-4.6,10-10,10s-10-4.6-10-10v-40c0-5.4,4.6-10,10-10
		s10,4.6,10,10h20c0-16.4-13.6-30-30-30s-30,13.6-30,30v40c0,16.4,13.6,30,30,30s30-13.6,30-30H87.1z"/>
	<path clip-path="url(#SVGID_2_)" fill="#FF3B29" d="M366.9,30c0-5.4,4.6-10,10-10s10,4.6,10,10s-4.6,10-10,10S366.9,35.5,366.9,30
		 M366.9,70.1c0-5.4,4.6-10,10-10c16.4,0,30-13.6,30-30s-13.6-30-30-30s-30,13.6-30,30c0,7.7,2.9,14.7,7.7,20
		c-4.9,5.4-7.7,12.4-7.7,20v30h20V70.1z M276.1,80.1h13l17-42.5v62.5h20V0h-20v20h-13l-17,42.6V0h-20v100.1h20V80.1z M234.1,0h-20
		l-20,50.1L174.1,0h-20v100.1h20v-50l20,50l20-50v50h20V0z"/>
	<path clip-path="url(#SVGID_2_)" fill="#FF3B29" d="M444.6,480.3h-20v100.1h20l20-50v50h20V480.3h-20l-20,50.1V480.3z M371.1,510.3
		c0-5.4,4.6-10,10-10c5.4,0,10,4.6,10,10c0,5.4-4.6,10-10,10C375.6,520.3,371.1,515.8,371.1,510.3 M371.1,550.4c0-5.4,4.6-10,10-10
		c16.4,0,30-13.6,30-30s-13.6-30-30-30s-30,13.6-30,30c0,7.7,2.9,14.7,7.7,20c-4.9,5.4-7.7,12.4-7.7,20v30h20V550.4z M267.5,500.3
		h25v80.1h20v-80.1h25v-20h-70.1V500.3z M235.4,550.4c0,5.4-4.6,10-10,10c-5.4,0-10-4.6-10-10v-40c0-5.4,4.6-10,10-10
		c5.4,0,10,4.6,10,10V550.4z M195.3,510.3v50l20,20h20l20-20v-50c0-16.4-13.6-30-30-30S195.3,493.9,195.3,510.3 M156.4,580.4h20
		V480.3h-30l-10,50.1l-10-50.1h-30v100.1h20v-50l10,50h20l10-50V580.4z M57.1,550.4c0,5.4-4.6,10-10,10s-10-4.6-10-10v-40
		c0-5.4,4.6-10,10-10s10,4.6,10,10h20c0-16.4-13.6-30-30-30s-30,13.6-30,30v40c0,16.4,13.6,30,30,30s30-13.6,30-30H57.1z"/>
</g>
<path fill="#FF3B29" d="M506.3,580.4h20v-20h-20V580.4z M506.3,480.3v20l10,50.1l10-50.1v-20H506.3z"/>
</svg>
