<?xml version="1.0" encoding="utf-8"?>
<!-- Generator: Adobe Illustrator 18.0.0, SVG Export Plug-In . SVG Version: 6.00 Build 0)  -->
<!DOCTYPE svg PUBLIC "-//W3C//DTD SVG 1.1//EN" "http://www.w3.org/Graphics/SVG/1.1/DTD/svg11.dtd">
<svg version="1.1" id="Слой_1" xmlns="http://www.w3.org/2000/svg" xmlns:xlink="http://www.w3.org/1999/xlink" x="0px" y="0px"
	 viewBox="0 86.4 400 427.2" enable-background="new 0 86.4 400 427.2" xml:space="preserve">
<g>
	<g>
		<defs>
			<rect id="SVGID_1_" y="86.4" width="400" height="427.2"/>
		</defs>
		<clipPath id="SVGID_2_">
			<use xlink:href="#SVGID_1_"  overflow="visible"/>
		</clipPath>
		<path clip-path="url(#SVGID_2_)" fill="#FF3B29" d="M385.3,395.8H400V381h-14.7V395.8z M369.3,322.1h-14.7l-14.7,36.8l-14.7-36.8
			h-14.7v73.7h14.7v-36.9l14.7,36.9l14.7-36.9v36.9h14.7V322.1z M278.1,395.8h14.7v-73.7h-14.7l-7.4,36.8h7.4V395.8z M263.4,322.1
			h-14.7v73.7h14.7l7.4-36.9h-7.4V322.1z M189.3,322.1v14.7h0.5c3.8,0.3,6.8,3.6,6.8,7.4v51.6h14.7v-51.6c0-2.5-0.5-5.1-1.4-7.4
			h23.5v-14.7H189.3z M128.9,395.8h7.4c12.1,0,22.1-10,22.1-22.1v-5.4l18.4-46.1H162l-11,27.7l-11-27.7h-14.7l18.4,46.1v5.4
			c0,4-3.4,7.4-7.4,7.4h-7.4V395.8z M95.1,336.8c4,0,7.4,3.4,7.4,7.4s-3.4,7.4-7.4,7.4h-7.4v-14.7H95.1z M72.9,395.8h14.7v-29.4H95
			c12.1,0,22.1-10,22.1-22.1c0-12.1-10-22.1-22.1-22.1H72.9C72.9,322.2,72.9,395.8,72.9,395.8z M30.2,336.8h6.6V381H21.3L30.2,336.8
			z M18.4,322.1L6.6,381H0v25.8h14.7v-11h29.4v11h14.7V381h-7.4v-59L18.4,322.1L18.4,322.1z"/>
	</g>
	<g>
		<defs>
			<rect id="SVGID_3_" y="86.4" width="400" height="427.2"/>
		</defs>
		<clipPath id="SVGID_4_">
			<use xlink:href="#SVGID_3_"  overflow="visible"/>
		</clipPath>
		<path clip-path="url(#SVGID_4_)" fill="#FF3B29" d="M313.8,219h18.4v59h14.7v-59h18.4v-14.7h-51.6L313.8,219L313.8,219z
			 M289.2,204.2l-4.4,22.1h14.7l4.4-22.1H289.2z M283.3,255.8l-8.8,22.1l5.9-29.4h16.2v-14.7h-19.1l11.8-29.4h-14.7l-17.7,44.2h8.8
			l-5.9,29.4h29.4l8.8-22.1L283.3,255.8L283.3,255.8z M230.5,277.9h14.7v-73.7h-14.7v29.4h-14.7v-29.4H201v73.7h14.7v-29.4h14.7
			V277.9z M165.6,248.5h-2.9l1.5-7.4L165.6,248.5z M156.6,277.9l2.9-14.7h8.8l2.9,14.7h14.7l-14.7-73.7h-14.7l-14.7,73.7H156.6z
			 M84.2,219h18.4v59h14.7v-59h18.4v-14.7H84.1L84.2,219L84.2,219z M64.1,255.8c0,4-3.4,7.4-7.4,7.4s-7.4-3.4-7.4-7.4v-29.4
			c0-4,3.4-7.4,7.4-7.4s7.4,3.4,7.4,7.4h14.7c0-12.1-10-22.1-22.1-22.1s-22.1,10-22.1,22.1v29.4c0,12.1,10,22.1,22.1,22.1
			s22.1-10,22.1-22.1H64.1L64.1,255.8z"/>
	</g>
	<g>
		<defs>
			<rect id="SVGID_5_" y="86.4" width="400" height="427.2"/>
		</defs>
		<clipPath id="SVGID_6_">
			<use xlink:href="#SVGID_5_"  overflow="visible"/>
		</clipPath>
		<path clip-path="url(#SVGID_6_)" fill="#FF3B29" d="M270.1,108.5c0-4,3.4-7.4,7.4-7.4c4,0,7.4,3.4,7.4,7.4c0,4-3.4,7.4-7.4,7.4
			C273.5,115.8,270.1,112.5,270.1,108.5 M270.1,138c0-4,3.4-7.4,7.4-7.4c12.1,0,22.1-10,22.1-22.1s-10-22.1-22.1-22.1
			c-12.1,0-22.1,10-22.1,22.1c0,5.7,2.1,10.8,5.7,14.7c-3.6,4-5.7,9.1-5.7,14.7v22.1h14.7V138z M203.2,145.3h9.6l12.5-31.3v46H240
			V86.4h-14.7v14.7h-9.6l-12.5,31.4V86.4h-14.7v73.7h14.7V145.3z M172.3,86.4h-14.7l-14.7,36.9l-14.7-36.9h-14.7v73.7h14.7v-36.8
			l14.7,36.8l14.7-36.8v36.8h14.7V86.4z"/>
	</g>
	<g>
		<defs>
			<rect id="SVGID_7_" y="86.4" width="400" height="427.2"/>
		</defs>
		<clipPath id="SVGID_8_">
			<use xlink:href="#SVGID_7_"  overflow="visible"/>
		</clipPath>
		<path clip-path="url(#SVGID_8_)" fill="#FF3B29" d="M327.3,439.9h-14.7v73.7h14.7l14.7-36.8v36.8h14.7v-73.7H342l-14.7,36.9V439.9
			z M273.2,462c0-4,3.4-7.4,7.4-7.4s7.4,3.4,7.4,7.4s-3.4,7.4-7.4,7.4C276.5,469.4,273.2,466.1,273.2,462 M273.2,491.5
			c0-4,3.4-7.4,7.4-7.4c12.1,0,22.1-10,22.1-22.1s-10-22.1-22.1-22.1c-12.1,0-22.1,10-22.1,22.1c0,5.7,2.1,10.8,5.7,14.7
			c-3.6,4-5.7,9.1-5.7,14.7v22.1h14.7V491.5z M196.9,454.7h18.4v59H230v-59h18.4v-14.7h-51.6L196.9,454.7L196.9,454.7z M173.3,491.5
			c0,4-3.4,7.4-7.4,7.4c-4,0-7.4-3.4-7.4-7.4v-29.4c0-4,3.4-7.4,7.4-7.4c4,0,7.4,3.4,7.4,7.4V491.5z M143.8,462v36.8l14.7,14.7h14.7
			l14.7-14.7V462c0-12.1-10-22.1-22.1-22.1S143.8,449.9,143.8,462 M115.1,513.6h14.7v-73.7h-22.1l-7.4,36.9L93,439.9H71v73.7h14.7
			v-36.8l7.4,36.8h14.7l7.4-36.8V513.6z M42,491.5c0,4-3.4,7.4-7.4,7.4s-7.4-3.4-7.4-7.4v-29.4c0-4,3.4-7.4,7.4-7.4s7.4,3.4,7.4,7.4
			h14.7c0-12.1-10-22.1-22.1-22.1s-22.1,10-22.1,22.1v29.4c0,12.1,10,22.1,22.1,22.1s22.1-10,22.1-22.1H42z"/>
	</g>
</g>
<rect x="372.7" y="498.9" fill="#FF3B29" width="14.7" height="14.7"/>
</svg>
