<svg xmlns="http://www.w3.org/2000/svg" viewBox="0 0 358.29 115.135"><path d="M314.164 79.445s.657-1.307 1.136-2.347c.78-1.712 1.112-3.814 1.112-3.814h10.263V84.82s.098 3.127 3.42 3.127c3.32 0 3.42-1.467 3.42-3.518 0-2.055.396-6.356-2.147-10.46-2.54-4.106-8.893-12.217-10.07-13.39-1.17-1.172-2.247-2.348-2.247-2.348s.194-4.253-.293-10.704c-.49-6.455-3.42-13.34-3.42-13.34s3.323-6.064 14.758-6.064c11.44 0 16.034 5.28 16.034 10.264v12.12h-12.614V39.567s.296-3.425-3.32-3.425c-3.616 0-3.616 2.248-3.616 3.227v4.792s-.1 2.44 1.758 4.788c1.857 2.345 11.34 14.074 12.61 15.933 1.27 1.855 5.182 6.743 5.276 12.61.097 5.863 0 7.82 0 7.82s.097 10.848-15.05 10.848c-13.593 0-16.716-4.692-16.91-9.286-.2-4.593-.1-7.427-.1-7.427zM0 72.587h12.415v11.21c0 2.456 1.196 3.685 3.59 3.685s3.59-1.23 3.59-3.685c0-6.015-2.445-12.063-7.324-18.142-4.883-6.077-8.15-9.987-9.798-11.713C.822 52.212 0 49.845 0 46.836v-8.05c0-7.634 5.336-11.45 16.007-11.45 10.668 0 16.004 3.816 16.004 11.45V49.89H19.598V38.786c0-2.457-1.197-3.69-3.59-3.69-2.395 0-3.59 1.233-3.59 3.69-.128 4.458.436 7.4 1.696 8.823s4.558 5.517 9.894 12.272c5.338 6.757 8.004 12.03 8.004 15.814v8.1c0 7.953-5.335 11.928-16.003 11.928C5.337 95.724 0 91.75 0 83.797v-11.21zM90.22 95.244H77.804V38.787c0-2.457-1.195-3.69-3.584-3.69-2.396 0-3.594 1.233-3.594 3.69v56.457H58.21V38.787c0-2.457-1.198-3.69-3.592-3.69-2.39 0-3.584 1.233-3.584 3.69v56.457h-12.42V27.337h12.42v2.425c2.39-1.618 5.704-2.425 9.94-2.425 3.204 0 6.42 1.294 9.653 3.876 2.392-2.582 5.397-3.876 9.022-3.876 2.39 0 4.752.73 7.077 2.182 2.332 1.455 3.495 4.544 3.495 9.267v56.457zM129.365 95.244h-12.417V93.06c-.97 1.973-3.896 2.96-8.78 2.96-7.21 0-10.815-2.845-10.815-8.538v-21.78c0-2.522.836-4.717 2.503-6.593 1.66-1.878 5.26-4.224 10.788-7.036 3.85-1.618 5.948-2.912 6.305-3.884v-9.403c0-2.457-1.197-3.69-3.588-3.69-2.395 0-3.59 1.233-3.59 3.69v10.375h-12.42V38.787c0-7.635 5.335-11.45 16.01-11.45 10.67 0 16.003 3.815 16.003 11.45v56.457zm-12.417-11.447V59.06c-4.816.777-7.21 2.2-7.176 4.268v20.47c0 2.456 1.194 3.685 3.59 3.685 2.39 0 3.586-1.23 3.586-3.686zM168.43 59.12h-12.414V38.786c0-2.457-1.193-3.69-3.59-3.69-2.395 0-3.588 1.233-3.588 3.69v56.457H136.42V27.337h12.418v2.33c2.396-1.552 5.71-2.33 9.943-2.33 2.49 0 4.72 1.052 6.696 3.155 1.97 2.1 2.955 4.866 2.955 8.295V59.12zM195.685 35.128h-9.61V80.69c0 4.528 1.198 6.792 3.59 6.792h6.02v7.762h-6.02c-6.013 0-10.186-1.175-12.514-3.518-2.325-2.343-3.49-6.02-3.49-11.035V35.13h-3.687v-7.76h3.687V12.814h12.416v14.552h9.61v7.76zM225.64 58.132c.14-7.415 1.725-14.673 3.025-21.712.674-3.14 1.166-4.87 1.386-6.535.804-6.233-4.003-11.458-11.24-8.14-3.004 1.378-8.198 6.132-8.198 6.132l-.004-4.407.043-10.74h-12.46v82.252h12.61l.035-2.558s3.796 1.603 5.48 2.193c1.687.585 3.27.98 4.646 1.48 8.178 2.98 12.08-1.12 10.332-6.094-2.31-6.577-6.018-12.657-5.652-31.87zm-15.995 20.282c-6.33-15.197-3.26-32.914-3.26-32.914s.688-4.2 1.628-7.828c.865-3.335 2.777-5.646 4.794-5.467 3.655.325 1.626 7.753 1.082 12.195-.58 4.74-1.97 14.95 1.02 28.52 1.656 7.47 3.088 11.35 1.078 12.425-.624.336-4.13-1.623-6.343-6.93zM280.73 34.68c-.84-11.696-8.074-19.236-26.444-19.676-18.368-.44-20.974 15.703-21.13 16.86-.754 5.43-1.703 13.453-1.703 13.453l17.586-.256s.135-11.58.135-13.633c0-2.056-.136-6.453 5.39-6.307 5.522.146 4.277 5.28 4.417 8.648.138 3.374-.574 10.842-.574 10.842s.023-.136-2.188 1.772c-2.207 1.906-8.425 4.397-14.917 8.354-6.49 3.96-9.443 9.202-9.443 15.647 0 5.302 2.262 16.17 4.195 24.526 1.934 8.356 11.05 10.85 17.27 10.556 3.723-.176 6.63-1.76 6.63-1.76v1.612s4.418.294 7.317.294c2.9 0 7.457-.584 7.457-.584s4.918-17.194 5.818-28.445c1.212-15.05 1.473-23.918.182-41.902zM259.394 94.47c0 .607.138 3.96-3.865 3.96-4.006 0-5.986-3.32-6.54-7.835-1.013-8.277-1.285-14.727-1.1-18.766.136-3.08.73-8.587 5.843-9.762 4.19-.96 4.478-1.385 4.478-1.385s.033 9.988.506 17.3c.558 8.59.678 13.22.678 16.488z"/><path d="M293.027 102.317c6.837-13.925 12.026-30.356 12.026-46.85 0-16.635-5.546-33.03-12.093-46.927l-.807-.617s-2.49-1.53-7-3.463c-3.572-1.53-5.085-1.863-6.228-2.006 0 0 8.383 22.21 8.383 55.247 0 30.887-8.666 47.94-8.666 47.94s6.337-1.177 9.72-1.956c3.38-.785 4.656-1.357 4.656-1.357l.01-.01z"/><path d="M314.535 42.812c-2.358-10.333-7.415-19.64-14.384-27.137a2.683 2.683 0 0 0-.22-.18 93.67 93.67 0 0 1-1.73-1.273c5.98 12.864 9.91 27.242 9.91 42.36 0 14.546-3.676 28.325-9.244 40.806.234-.14.568-.345.942-.59a59.158 59.158 0 0 0 14.01-24.713 59.22 59.22 0 0 0 2.194-16.03 59.5 59.5 0 0 0-1.477-13.243zM262.718 111.246c-19.003.353-31.24-5.61-43.957-13.66 10.524 10.824 25.245 17.55 41.534 17.55a57.7 57.7 0 0 0 34.303-11.24c-9.808 4.12-20.582 7.142-31.88 7.35zM341.523 20.493c0 4.626 3.763 8.385 8.386 8.385s8.38-3.76 8.38-8.385c0-4.62-3.758-8.383-8.38-8.383s-8.387 3.763-8.387 8.383zm1.12 0c0-4.004 3.26-7.266 7.266-7.266 4.004 0 7.265 3.262 7.265 7.266 0 4.01-3.26 7.27-7.266 7.27-4.007 0-7.267-3.26-7.267-7.27z"/><path d="M346.314 15.754h4.296c1.054 0 3.218.154 3.218 2.605 0 1.095-.612 2.19-1.664 2.398v.04c1.304.474 1.373 1.345 1.4 2.347.04 1.34-.015 1.756.39 2.313h-1.374c-.347-.43-.347-.79-.36-2.052-.015-1-.083-2.064-1.83-2.064h-2.77v4.117h-1.306v-9.706zm1.307 4.493h2.91c.62 0 1.915-.237 1.915-1.747 0-1.277-.893-1.646-2.112-1.646h-2.712v3.393zM257.63.104c-15.75.91-29.746 7.722-39.995 18.155l-.034.01s-.146.162-.395.433a61.28 61.28 0 0 0-2.985 3.336c-.83.95-1.593 1.857-1.994 2.413-1.166 1.613-2.017 3.226-2.017 3.226l-.538 1.03.894-.717s2.014-2.907 5.735-6.363c.877-.813 1.915-1.613 2.897-2.313 13.72-9.08 28.96-14.61 46.995-16.655 4.227-.478 8.44-.415 12.564-.082A60.874 60.874 0 0 0 257.63.104z"/></svg>