<?xml version="1.0" encoding="utf-8"?>
<!-- Generator: Adobe Illustrator 18.0.0, SVG Export Plug-In . SVG Version: 6.00 Build 0)  -->
<!DOCTYPE svg PUBLIC "-//W3C//DTD SVG 1.1//EN" "http://www.w3.org/Graphics/SVG/1.1/DTD/svg11.dtd">
<svg version="1.1" id="Слой_1" xmlns="http://www.w3.org/2000/svg" xmlns:xlink="http://www.w3.org/1999/xlink" x="0px" y="0px"
	 viewBox="0 0 215.846 248" enable-background="new 0 0 215.846 248" xml:space="preserve">
<g>
	<defs>
		<rect id="SVGID_1_" width="215.846" height="248"/>
	</defs>
	<clipPath id="SVGID_2_">
		<use xlink:href="#SVGID_1_"  overflow="visible"/>
	</clipPath>
	<path clip-path="url(#SVGID_2_)" fill="#3D21DE" d="M133.994,109.163l-17.385,9.894c0.832,1.458,1.314,3.143,1.314,4.943
		c0,5.522-4.477,10-10,10c-5.523,0-10-4.478-10-10c0-5.523,4.477-10,10-10c0.056,0,0.109,0.01,0.165,0.011v-0.02
		c5.446-0.089,9.835-4.524,9.835-9.991c0-5.468-4.389-9.903-9.835-9.992v-0.003c-0.055,0-0.109-0.006-0.165-0.006
		c-16.569,0-30,13.432-30,30.001c0,16.568,13.431,30,30,30s30-13.432,30-30C137.923,118.601,136.49,113.54,133.994,109.163"/>
	<path clip-path="url(#SVGID_2_)" fill="#282828" d="M117.923,124c0,5.523-4.477,10-10,10c-5.523,0-10-4.477-10-10
		c0-5.523,4.477-10,10-10C113.446,114,117.923,118.477,117.923,124"/>
	<path clip-path="url(#SVGID_2_)" fill="#FF3B29" d="M168.65,89.198l-17.35,9.943c4.206,7.325,6.624,15.807,6.624,24.859
		c0,27.614-22.386,50-50.001,50c-8.974,0-17.388-2.376-24.669-6.516l-0.012,0.02c-1.542-0.971-3.362-1.542-5.319-1.542
		c-5.523,0-10,4.477-10,10c0,3.89,2.226,7.253,5.468,8.906l-0.006,0.01C83.579,190.674,95.359,194,107.923,194
		c38.661,0,70.001-31.34,70.001-70C177.924,111.327,174.539,99.452,168.65,89.198"/>
	<path clip-path="url(#SVGID_2_)" fill="#282828" d="M7.998,63.999c0,2.208-1.79,3.999-3.999,3.999S0,66.208,0,63.999
		c0-2.209,1.79-3.999,3.999-3.999S7.998,61.79,7.998,63.999"/>
	<path clip-path="url(#SVGID_2_)" fill="#282828" d="M7.998,184.001c0,2.209-1.79,3.999-3.999,3.999S0,186.21,0,184.001
		c0-2.208,1.79-3.999,3.999-3.999S7.998,181.793,7.998,184.001"/>
	<path clip-path="url(#SVGID_2_)" fill="#282828" d="M215.846,184.001c0,2.209-1.79,3.999-3.999,3.999s-3.999-1.79-3.999-3.999
		c0-2.208,1.79-3.999,3.999-3.999S215.846,181.793,215.846,184.001"/>
	<path clip-path="url(#SVGID_2_)" fill="#282828" d="M215.846,63.999c0,2.208-1.79,3.999-3.999,3.999s-3.999-1.791-3.999-3.999
		c0-2.209,1.79-3.999,3.999-3.999S215.846,61.79,215.846,63.999"/>
	<path clip-path="url(#SVGID_2_)" fill="#282828" d="M111.922,244.001c0,2.208-1.79,3.999-3.999,3.999s-3.999-1.791-3.999-3.999
		c0-2.209,1.79-3.999,3.999-3.999S111.922,241.792,111.922,244.001"/>
	<path clip-path="url(#SVGID_2_)" fill="#282828" d="M111.922,3.999c0,2.209-1.79,3.999-3.999,3.999s-3.999-1.79-3.999-3.999
		c0-2.208,1.79-3.999,3.999-3.999S111.922,1.791,111.922,3.999"/>
	<path clip-path="url(#SVGID_2_)" fill="#282828" d="M197.924,124c0-49.706-40.295-90.001-90.001-90.001S17.922,74.294,17.922,124
		s40.295,90.001,90.001,90.001c0.055,0,0.11-0.003,0.165-0.003v-20c-0.055,0-0.11,0.003-0.165,0.003c-38.66,0-70-31.341-70-70.001
		s31.34-70.001,70-70.001c38.661,0,70.001,31.341,70.001,70.001c0,12.872-3.49,24.923-9.552,35.285l0.012,0.007
		c-0.75,1.404-1.178,3.006-1.178,4.708c0,5.523,4.477,10,10,10c3.547,0,6.656-1.852,8.431-4.637l0.022,0.013
		C193.452,156.053,197.924,140.55,197.924,124"/>
	<path clip-path="url(#SVGID_2_)" fill="#FAAB17" d="M107.923,74.023c-27.615,0-50,22.374-50,49.989
		c0,27.614,22.385,49.994,50,49.994c0.055,0,0.11-0.003,0.165-0.003v-20.006c-0.055,0.001-0.11,0.004-0.165,0.004
		c-16.569,0-30-13.432-30-30.001c0-16.568,13.431-30,30-30s30,13.431,30,30c0,5.462-1.467,10.578-4.017,14.989l0.01,0.006
		c-0.854,1.473-1.352,3.179-1.352,5.005c0,5.523,4.477,10.188,10,10.188c3.708,0,6.936-1.909,8.663-4.831h0.001
		c0.005,0,0.01-0.206,0.015-0.215c0.06-0.104,0.119-0.301,0.175-0.407c4.131-7.275,6.505-15.724,6.505-24.688
		C157.923,96.432,135.538,74.023,107.923,74.023"/>
</g>
</svg>
