<?xml version="1.0" encoding="utf-8"?>
<!-- Generator: Adobe Illustrator 18.0.0, SVG Export Plug-In . SVG Version: 6.00 Build 0)  -->
<!DOCTYPE svg PUBLIC "-//W3C//DTD SVG 1.1//EN" "http://www.w3.org/Graphics/SVG/1.1/DTD/svg11.dtd">
<svg version="1.1" id="Слой_1" xmlns="http://www.w3.org/2000/svg" xmlns:xlink="http://www.w3.org/1999/xlink" x="0px" y="0px"
	 viewBox="0 0 120 19.59" enable-background="new 0 0 120 19.59" xml:space="preserve">
<g>
	<defs>
		<rect id="SVGID_1_" y="0" width="120" height="19.59"/>
	</defs>
	<clipPath id="SVGID_2_">
		<use xlink:href="#SVGID_1_"  overflow="visible"/>
	</clipPath>
	<path clip-path="url(#SVGID_2_)" fill="#282828" d="M112.011,17.62c4.596,0,7.989-3.885,7.989-7.825
		c0-4.323-3.393-7.825-7.88-7.825H92.367c-4.159,0-7.552,3.174-7.825,7.223h-3.94L71.409,0l-9.193,9.193h-4.432V1.97h-15.65v7.223
		h-4.706C37.1,4.925,33.543,1.587,29.22,1.587s-7.934,3.338-8.208,7.606h-4.651V5.089L8.208,0.383L0,5.089v9.412l8.208,4.706
		l8.153-4.706v-4.104h4.651c0.329,4.213,3.885,7.606,8.208,7.606s7.88-3.393,8.208-7.606h4.706v7.223h15.65v-7.223h4.432
		l9.193,9.193l9.193-9.193h3.94c0.273,4.049,3.666,7.223,7.825,7.223H112.011z M93.735,6.621h4.979v1.095h-1.915v5.253H95.65V7.716
		h-1.915V6.621z M103.803,6.621v1.095h-2.736v1.532h2.681v1.094h-2.681v1.532h2.845v1.095h-3.994V6.621H103.803z M109.767,6.621
		l-1.641,2.9l1.97,3.448h-1.314l-1.313-2.298l-1.313,2.298h-1.259l1.97-3.448l-1.696-2.9h1.313l0.985,1.806l1.04-1.806H109.767z
		 M6.019,6.731h4.597v6.292H9.412V7.825H7.168v5.198H6.019V6.731z M48.208,6.621h3.885v6.348h-1.204V7.77h-1.587l-0.054,3.119
		c-0.055,1.861-0.985,2.08-2.189,2.08V11.82c0.547,0,1.039-0.055,1.039-0.876L48.208,6.621z M70.041,6.731v4.158l2.298-4.158h1.259
		v6.292h-1.204V8.865l-2.298,4.158h-1.259V6.731H70.041z M27.414,9.795c0,1.477,0.876,2.134,1.806,2.134
		c0.93,0,1.806-0.657,1.806-2.134S30.15,7.661,29.22,7.661C28.29,7.661,27.414,8.318,27.414,9.795 M32.175,9.795
		c0,2.189-1.368,3.228-2.955,3.228s-2.955-1.039-2.955-3.228s1.368-3.228,2.955-3.228S32.175,7.606,32.175,9.795"/>
</g>
</svg>
