<?xml version="1.0" encoding="utf-8"?>
<!-- Generator: Adobe Illustrator 18.0.0, SVG Export Plug-In . SVG Version: 6.00 Build 0)  -->
<!DOCTYPE svg PUBLIC "-//W3C//DTD SVG 1.1//EN" "http://www.w3.org/Graphics/SVG/1.1/DTD/svg11.dtd">
<svg version="1.1" id="Слой_1" xmlns="http://www.w3.org/2000/svg" xmlns:xlink="http://www.w3.org/1999/xlink" x="0px" y="0px"
	 viewBox="0 0 60 70.571" enable-background="new 0 0 60 70.571" xml:space="preserve">
<g>
	<defs>
		<rect id="SVGID_1_" y="0" width="60" height="70.571"/>
	</defs>
	<clipPath id="SVGID_2_">
		<use xlink:href="#SVGID_1_"  overflow="visible"/>
	</clipPath>
	<path clip-path="url(#SVGID_2_)" fill="#C8C8C8" d="M46.023,4.331C50.681,2.886,55.34,1.444,59.999,0
		c-0.001,1.555,0.003,3.111-0.002,4.665c-1.551,0.478-3.1,0.959-4.652,1.438v28.023c-1.555,0.483-3.111,0.965-4.667,1.445
		c-0.001-9.339,0.002-18.679-0.002-28.019c-1.551,0.48-3.102,0.962-4.653,1.441C46.022,7.439,46.022,5.885,46.023,4.331"/>
	<path clip-path="url(#SVGID_2_)" fill="#C8C8C8" d="M38.779,29.977c1.026-0.316,2.052-0.631,3.079-0.948
		c-0.529-3.6-1.059-7.199-1.588-10.799C39.772,22.146,39.276,26.062,38.779,29.977 M37.926,6.837c1.56-0.481,3.119-0.964,4.68-1.444
		c1.549,10.41,3.101,20.82,4.651,31.231c-1.583,0.494-3.165,0.987-4.748,1.479c-0.16-1.481-0.321-2.962-0.482-4.444
		c-1.178,0.366-2.355,0.732-3.532,1.1c-0.157,1.578-0.313,3.155-0.471,4.733c-1.583,0.492-3.165,0.986-4.748,1.478
		C34.825,29.592,36.377,18.215,37.926,6.837"/>
	<path clip-path="url(#SVGID_2_)" fill="#C8C8C8" d="M17.605,13.142c4.66-1.444,9.32-2.888,13.98-4.332c0.001,1.559,0,3.117,0,4.674
		c-3.108,0.963-6.218,1.922-9.326,2.884c0,1.554-0.001,3.108,0.001,4.662c3.108-0.961,6.216-1.925,9.324-2.887
		c0.002,1.556,0,3.11,0.001,4.666c-3.108,0.966-6.217,1.929-9.325,2.895c-0.002,1.555-0.001,3.11,0,4.666
		c3.108-0.962,6.216-1.926,9.325-2.887v4.662c-3.11,0.959-6.218,1.925-9.326,2.889v4.673c3.109-0.961,6.217-1.924,9.326-2.884v4.66
		c-4.66,1.445-9.32,2.887-13.98,4.33C17.604,34.922,17.605,24.032,17.605,13.142"/>
	<path clip-path="url(#SVGID_2_)" fill="#C8C8C8" d="M4.745,40.45c-0.001,1.555-0.001,3.109,0,4.663
		c0.812-0.252,1.626-0.499,2.439-0.753c0.791-0.257,1.42-0.873,1.84-1.576c0.381-0.649,0.539-1.471,0.277-2.19
		c-0.289-0.755-1.192-1.133-1.953-0.935C6.475,39.903,5.613,40.191,4.745,40.45 M7.234,30.356c-0.833,0.242-1.66,0.506-2.49,0.758
		v4.663c0.719-0.221,1.439-0.444,2.158-0.664c1.304-0.334,2.361-1.529,2.517-2.868c0.051-0.531-0.058-1.119-0.459-1.501
		C8.517,30.299,7.825,30.181,7.234,30.356 M7.181,21.03c-0.814,0.241-1.623,0.5-2.436,0.746c-0.002,1.553-0.001,3.106,0,4.66
		c0.81-0.249,1.619-0.502,2.431-0.745c0.537-0.167,1.006-0.51,1.377-0.927c0.511-0.566,0.886-1.295,0.885-2.072
		c0.015-0.501-0.153-1.028-0.546-1.356C8.432,20.924,7.756,20.862,7.181,21.03 M6.239,16.656c1.015-0.324,2.055-0.657,3.135-0.613
		c1.712,0.023,3.41,1.005,4.188,2.547c0.576,1.147,0.651,2.48,0.488,3.734c-0.201,1.488-0.837,2.889-1.695,4.111
		c0.993,0.793,1.592,2.006,1.721,3.262c0.263,2.159-0.481,4.334-1.734,6.077c0.948,0.762,1.548,1.903,1.704,3.103
		c0.261,1.864-0.211,3.785-1.17,5.392c-0.791,1.321-1.817,2.517-3.064,3.426c-0.874,0.637-1.859,1.116-2.895,1.426
		c-2.291,0.704-4.582,1.408-6.872,2.111C0.038,40.34,0.05,29.448,0.056,18.556C2.117,17.922,4.178,17.289,6.239,16.656"/>
	<path clip-path="url(#SVGID_2_)" fill="#C8C8C8" d="M54.416,49.835c-0.899,1.008-2.305,1.45-3.629,1.326
		c-0.004-0.941,0.002-1.882-0.002-2.821c0.365,0.407,0.93,0.682,1.482,0.544c0.417-0.1,0.851-0.462,0.803-0.928
		c-0.016-0.313-0.325-0.47-0.579-0.574c-0.587-0.26-1.218-0.58-1.52-1.179c-0.35-0.706-0.239-1.54,0.001-2.263
		c0.354-1.07,1.136-2.025,2.194-2.456c0.665-0.281,1.414-0.357,2.122-0.214c0.002,0.912-0.004,1.824,0.004,2.735
		c-0.366-0.411-0.959-0.698-1.507-0.5c-0.331,0.133-0.663,0.471-0.574,0.857c0.138,0.378,0.576,0.475,0.902,0.63
		c0.588,0.228,1.168,0.643,1.334,1.285C55.757,47.538,55.282,48.899,54.416,49.835 M42.214,53.979
		c-0.085-1.881-0.14-3.764-0.242-5.643c-0.289,2.019-0.673,4.022-1.029,6.029c-0.67,0.205-1.34,0.408-2.009,0.611
		c-0.279-1.758-0.56-3.516-0.836-5.275c-0.002-0.064-0.031-0.11-0.086-0.139c0.094,1.919-0.132,3.838-0.204,5.756
		c-0.884,0.27-1.767,0.538-2.651,0.806c0.354-3.118,0.708-6.236,1.063-9.353c1.025-0.311,2.05-0.623,3.076-0.934
		c0.243,1.539,0.458,3.082,0.717,4.618c0.194-1.711,0.554-3.396,0.843-5.092c1.013-0.31,2.027-0.617,3.041-0.925
		c0.295,2.921,0.59,5.841,0.884,8.761C43.925,53.459,43.07,53.72,42.214,53.979 M29.369,57.885c-1.44,0.437-2.88,0.875-4.321,1.313
		c-0.001-3.01,0-6.021-0.001-9.03c0.823-0.251,1.646-0.501,2.469-0.751c0.002,2.3,0,4.599,0.001,6.898
		c0.618-0.186,1.235-0.375,1.852-0.562V57.885z M18.268,61.26c-0.823,0.249-1.646,0.5-2.469,0.749c-0.001-3.009,0-6.019,0-9.029
		c0.823-0.25,1.646-0.501,2.469-0.75C18.268,55.239,18.268,58.25,18.268,61.26 M9.006,57.177c-0.629,0.192-1.259,0.38-1.888,0.574
		c0.001,0.435-0.001,0.87,0.001,1.305c0.588-0.18,1.177-0.359,1.767-0.537c0,0.711,0.001,1.421-0.001,2.132
		c-0.589,0.178-1.178,0.357-1.766,0.537v3.46C6.296,64.9,5.473,65.149,4.65,65.4c-0.002-3.011-0.001-6.02-0.001-9.031
		c1.452-0.442,2.905-0.883,4.357-1.324C9.007,55.755,9.006,56.466,9.006,57.177 M59.891,35.799
		C39.929,41.876,19.964,47.946,0,54.022c0.001,5.516-0.001,11.032,0.001,16.549c19.963-6.075,39.927-12.146,59.889-18.222
		C59.891,46.833,59.888,41.316,59.891,35.799"/>
</g>
</svg>
