<?xml version="1.0" encoding="utf-8"?>
<!-- Generator: Adobe Illustrator 18.0.0, SVG Export Plug-In . SVG Version: 6.00 Build 0)  -->
<!DOCTYPE svg PUBLIC "-//W3C//DTD SVG 1.1//EN" "http://www.w3.org/Graphics/SVG/1.1/DTD/svg11.dtd">
<svg version="1.1" id="Слой_1" xmlns="http://www.w3.org/2000/svg" xmlns:xlink="http://www.w3.org/1999/xlink" x="0px" y="0px"
	 viewBox="0 0 160 26.119" enable-background="new 0 0 160 26.119" xml:space="preserve">
<g>
	<defs>
		<rect id="SVGID_1_" y="0" width="160" height="26.119"/>
	</defs>
	<clipPath id="SVGID_2_">
		<use xlink:href="#SVGID_1_"  overflow="visible"/>
	</clipPath>
	<path clip-path="url(#SVGID_2_)" fill="#C8C8C8" d="M149.348,23.493c6.128,0,10.652-5.18,10.652-10.433
		c0-5.764-4.524-10.433-10.506-10.433h-26.339c-5.545,0-10.068,4.231-10.433,9.63h-5.253L95.212,0L82.955,12.257h-5.91v-9.63H56.179
		v9.63h-6.275c-0.438-5.69-5.18-10.141-10.944-10.141S28.381,6.567,28.016,12.257h-6.201V6.785L10.944,0.511L0,6.785v12.55
		l10.944,6.274l10.871-6.274v-5.472h6.201c0.438,5.617,5.18,10.141,10.944,10.141s10.506-4.524,10.944-10.141h6.275v9.63h20.866
		v-9.63h5.91L95.212,26.12l12.257-12.257h5.253c0.365,5.399,4.888,9.63,10.433,9.63H149.348z M124.979,8.828h6.64v1.46h-2.554v7.004
		h-1.532v-7.004h-2.554V8.828z M138.404,8.828v1.46h-3.648v2.042h3.575v1.46h-3.575v2.042h3.794v1.46h-5.326V8.828H138.404z
		 M146.356,8.828l-2.188,3.867l2.626,4.597h-1.751l-1.751-3.065l-1.751,3.065h-1.678l2.627-4.597l-2.262-3.867h1.751l1.313,2.408
		l1.386-2.408H146.356z M8.025,8.974h6.129v8.391h-1.605v-6.932H9.558v6.932H8.025V8.974z M64.277,8.828h5.18v8.464h-1.605v-6.931
		h-2.116l-0.073,4.158C65.59,17,64.35,17.292,62.745,17.292V15.76c0.73,0,1.386-0.073,1.386-1.168L64.277,8.828z M93.388,8.974
		v5.545l3.064-5.545h1.678v8.391h-1.605V11.82l-3.064,5.545h-1.678V8.974H93.388z M36.553,13.06c0,1.97,1.167,2.845,2.407,2.845
		c1.241,0,2.408-0.875,2.408-2.845s-1.167-2.845-2.408-2.845C37.72,10.215,36.553,11.09,36.553,13.06 M42.9,13.06
		c0,2.918-1.824,4.305-3.94,4.305s-3.94-1.387-3.94-4.305s1.824-4.305,3.94-4.305S42.9,10.142,42.9,13.06"/>
</g>
</svg>
