<?xml version="1.0" encoding="utf-8"?>
<!-- Generator: Adobe Illustrator 18.0.0, SVG Export Plug-In . SVG Version: 6.00 Build 0)  -->
<!DOCTYPE svg PUBLIC "-//W3C//DTD SVG 1.1//EN" "http://www.w3.org/Graphics/SVG/1.1/DTD/svg11.dtd">
<svg version="1.1" id="Слой_1" xmlns="http://www.w3.org/2000/svg" xmlns:xlink="http://www.w3.org/1999/xlink" x="0px" y="0px"
	 viewBox="0 0 45.9 45.9" enable-background="new 0 0 45.9 45.9" xml:space="preserve">
<path fill-rule="evenodd" clip-rule="evenodd" d="M22.9,0c12.7,0,22.9,10.3,22.9,22.9c0,12.7-10.3,22.9-22.9,22.9S0,35.6,0,22.9
	C0,10.3,10.3,0,22.9,0 M19.5,22.9c0.1,0.1,0,0.7,0,0.8l0,12.3h5.4c0-3.2,0-6.6,0-9.8c0,0,0-3.2,0-3.2c0,0,0,0,0-0.1c0,0,3.4,0,3.5,0
	l0.1,0l0.5-4.5h-4.1c0-0.7,0-1.3,0-2c0-0.6,0-1.4,0.3-1.7l3.7-0.4l0-4.5c-0.7,0-1.5,0-2.2,0c-0.7,0-1.5,0-2.2,0
	c-1.4,0.1-2.5,0.5-3.3,1.2c-1.2,1.9-1.6,0.3-1.6,7.4l-2.7,0l0,4.5L19.5,22.9z"/>
</svg>
