<?xml version="1.0" encoding="utf-8"?>
<!-- Generator: Adobe Illustrator 18.0.0, SVG Export Plug-In . SVG Version: 6.00 Build 0)  -->
<!DOCTYPE svg PUBLIC "-//W3C//DTD SVG 1.1//EN" "http://www.w3.org/Graphics/SVG/1.1/DTD/svg11.dtd">
<svg version="1.1" id="Слой_1" xmlns="http://www.w3.org/2000/svg" xmlns:xlink="http://www.w3.org/1999/xlink" x="0px" y="0px"
	 viewBox="0 0 43.7 30.3" enable-background="new 0 0 43.7 30.3" xml:space="preserve">
<path d="M0.7,20.3h31.7v9.2H0.7V20.3z M6.3,10.7H43v8.9H6.3V10.7z M0.8,0.7h38.7v9.2L0.8,10V0.7z M0,0v10.7h5.6v8.9H0v10.7h33.2v-10
	h10.6V9.9h-3.5V0H0z"/>
<polygon points="12.4,4 11,4 11,6.2 11.4,6.2 11.4,4.4 12.4,4.4 "/>
<g>
	<defs>
		<rect id="SVGID_1_" width="43.7" height="30.3"/>
	</defs>
	<clipPath id="SVGID_2_">
		<use xlink:href="#SVGID_1_"  overflow="visible"/>
	</clipPath>
	<path clip-path="url(#SVGID_2_)" d="M12.9,4.9c0.2,0,0.4,0.2,0.4,0.5c0,0.3-0.2,0.5-0.4,0.5c-0.2,0-0.4-0.2-0.4-0.5
		C12.5,5.1,12.7,4.9,12.9,4.9 M12.9,4.6c-0.5,0-0.8,0.4-0.8,0.8c0,0.4,0.3,0.8,0.8,0.8c0.5,0,0.8-0.4,0.8-0.8
		C13.7,5,13.4,4.6,12.9,4.6"/>
	<path clip-path="url(#SVGID_2_)" d="M15.1,5.6c-0.1,0.1-0.3,0.3-0.4,0.3c-0.2,0-0.4-0.2-0.4-0.5c0-0.3,0.2-0.5,0.4-0.5
		c0.1,0,0.3,0.1,0.4,0.2l0,0L15.3,5l0,0c-0.1-0.2-0.4-0.4-0.6-0.4c-0.5,0-0.8,0.3-0.8,0.8c0,0.4,0.3,0.8,0.8,0.8
		c0.3,0,0.5-0.1,0.6-0.4l0,0L15.1,5.6L15.1,5.6z"/>
	<path clip-path="url(#SVGID_2_)" d="M16.2,5.6L16.2,5.6L16.2,5.6l-0.4-0.9h-0.4L16,6c0,0,0,0.1-0.1,0.2c-0.1,0.1-0.1,0.1-0.2,0.2
		c-0.1,0-0.2,0-0.2,0v0.3c0,0,0.1,0.1,0.2,0.1c0.1,0,0.4-0.1,0.5-0.4l0.6-1.6h-0.4L16.2,5.6z"/>
	<path clip-path="url(#SVGID_2_)" d="M31.2,15.3L31.2,15.3L31.2,15.3l-0.4-0.9h-0.4l0.5,1.4c0,0,0,0.1-0.1,0.2
		c-0.1,0.1-0.1,0.1-0.2,0.2c-0.1,0-0.2,0-0.2,0v0.3c0,0,0.1,0.1,0.2,0.1c0.1,0,0.4-0.1,0.5-0.4l0.6-1.6h-0.4L31.2,15.3z"/>
	<path clip-path="url(#SVGID_2_)" d="M16.3,25.4L16.3,25.4L16.3,25.4l-0.4-0.9h-0.4l0.5,1.4c0,0,0,0.1-0.1,0.2
		c-0.1,0.1-0.1,0.1-0.2,0.2c-0.1,0-0.2,0-0.2,0v0.3c0,0,0.1,0.1,0.2,0.1c0.1,0,0.4-0.1,0.5-0.4l0.6-1.6h-0.4L16.3,25.4z"/>
	<path clip-path="url(#SVGID_2_)" d="M18,5v0.9h-0.6c0.1-0.2,0.2-0.6,0.2-0.9H18z M18.3,4.7h-1.1c0,0.2,0,0.3,0,0.4
		c0,0.4-0.1,0.6-0.2,0.8h-0.1v0.7h0.3V6.2h1v0.4h0.3V5.9h-0.2V4.7z"/>
	<path clip-path="url(#SVGID_2_)" d="M19.7,5.4v0.3c0,0-0.1,0.1-0.2,0.2l0,0c-0.1,0-0.1,0-0.2,0c-0.1,0-0.2-0.1-0.2-0.2
		c0-0.1,0.1-0.2,0.2-0.3C19.5,5.4,19.6,5.4,19.7,5.4 M20.2,5.9c0,0-0.1,0-0.1-0.2l0-0.5c0-0.5-0.3-0.6-0.6-0.6h0
		c-0.2,0-0.4,0.1-0.6,0.2l0,0l0.2,0.2c0,0,0.2-0.2,0.4-0.2c0,0,0,0,0,0c0.2,0,0.2,0.1,0.2,0.2l0,0c-0.1,0-0.3,0-0.4,0.1
		c-0.4,0.1-0.5,0.3-0.5,0.6c0,0.2,0.1,0.4,0.5,0.4c0.1,0,0.1,0,0.2,0c0.1,0,0.2-0.1,0.3-0.2c0,0.1,0.1,0.2,0.3,0.2
		c0.1,0,0.2,0,0.2,0L20.2,5.9C20.2,5.9,20.2,5.9,20.2,5.9"/>
	<path clip-path="url(#SVGID_2_)" d="M28.4,15.2v0.3c0,0-0.1,0.1-0.2,0.2l0,0c-0.1,0-0.1,0-0.2,0c-0.1,0-0.2-0.1-0.2-0.2
		c0-0.1,0.1-0.2,0.2-0.3C28.1,15.2,28.3,15.2,28.4,15.2 M28.8,15.6c0,0-0.1,0-0.1-0.2l0-0.5c0-0.5-0.3-0.6-0.6-0.6h0
		c-0.2,0-0.4,0.1-0.6,0.2l0,0l0.2,0.2c0,0,0.2-0.2,0.4-0.2c0,0,0,0,0,0c0.2,0,0.2,0.1,0.2,0.2l0,0c-0.1,0-0.3,0-0.4,0.1
		c-0.4,0.1-0.5,0.3-0.5,0.6c0,0.2,0.1,0.4,0.5,0.4c0.1,0,0.1,0,0.2,0c0.1,0,0.2-0.1,0.3-0.2c0,0.1,0.1,0.2,0.3,0.2
		c0.1,0,0.2,0,0.2,0L28.8,15.6C28.8,15.6,28.8,15.7,28.8,15.6"/>
	<path clip-path="url(#SVGID_2_)" d="M21.3,4.9c0.2,0,0.4,0.2,0.4,0.5c0,0.3-0.1,0.5-0.4,0.5c-0.2,0-0.4-0.2-0.4-0.5
		C20.9,5.1,21.1,4.9,21.3,4.9 M21.3,4.6c-0.2,0-0.3,0.1-0.4,0.1V4.7h-0.3v2h0.4V6.1c0.1,0.1,0.2,0.1,0.4,0.1c0.5,0,0.7-0.4,0.7-0.8
		C22,5,21.8,4.6,21.3,4.6"/>
	<path clip-path="url(#SVGID_2_)" d="M23.4,5.6c-0.1,0.1-0.2,0.2-0.4,0.2c-0.2,0-0.4-0.2-0.4-0.5c0-0.3,0.2-0.5,0.4-0.5
		c0.1,0,0.3,0.1,0.4,0.2l0,0L23.6,5l0,0c-0.1-0.2-0.4-0.4-0.6-0.4c-0.5,0-0.8,0.3-0.8,0.8c0,0.4,0.3,0.8,0.8,0.8
		c0.3,0,0.5-0.1,0.6-0.4l0,0L23.4,5.6L23.4,5.6z"/>
	<polygon clip-path="url(#SVGID_2_)" points="23.8,5 24.2,5 24.2,6.2 24.6,6.2 24.6,5 25.1,5 25.1,4.7 23.8,4.7 	"/>
	<path clip-path="url(#SVGID_2_)" d="M25.7,5.5H26c0.1,0,0.3,0,0.3,0.2c0,0.1,0,0.2-0.3,0.2h-0.3V5.5z M26,5.2h-0.3V5H26
		c0.2,0,0.2,0.1,0.2,0.1C26.2,5.2,26.1,5.2,26,5.2 M26.5,5.3c0.1-0.1,0.1-0.2,0.1-0.3c0-0.3-0.2-0.4-0.5-0.4h-0.7v1.5H26
		c0.4,0,0.6-0.2,0.6-0.5C26.7,5.5,26.6,5.4,26.5,5.3"/>
	<path clip-path="url(#SVGID_2_)" d="M27.3,5.2c0-0.1,0.1-0.3,0.4-0.3c0.2,0,0.3,0.2,0.3,0.3H27.3z M27.7,5.9
		c-0.2,0-0.4-0.1-0.4-0.4h1.1l0,0c0-0.3,0-0.5-0.2-0.7c-0.1-0.1-0.3-0.2-0.5-0.2c-0.5,0-0.7,0.4-0.7,0.8c0,0.4,0.2,0.8,0.8,0.8
		c0.5,0,0.7-0.4,0.7-0.4l-0.2-0.2C28.1,5.7,28,5.9,27.7,5.9"/>
	<path clip-path="url(#SVGID_2_)" d="M24.3,15c0-0.1,0.1-0.3,0.4-0.3c0.2,0,0.3,0.2,0.3,0.3H24.3z M24.7,15.7
		c-0.2,0-0.4-0.1-0.4-0.4h1.1l0,0c0-0.3,0-0.5-0.2-0.7c-0.1-0.1-0.3-0.2-0.5-0.2c-0.5,0-0.7,0.4-0.7,0.8c0,0.4,0.2,0.8,0.8,0.8
		c0.5,0,0.7-0.4,0.7-0.4l-0.2-0.2C25.2,15.4,25,15.7,24.7,15.7"/>
	<path clip-path="url(#SVGID_2_)" d="M19.1,25.1c0-0.1,0.1-0.3,0.4-0.3c0.2,0,0.3,0.2,0.3,0.3H19.1z M19.4,25.8
		c-0.2,0-0.4-0.1-0.4-0.4h1.1l0,0c0-0.3,0-0.5-0.2-0.7c-0.1-0.1-0.3-0.2-0.5-0.2c-0.5,0-0.7,0.4-0.7,0.8c0,0.4,0.2,0.8,0.8,0.8
		c0.5,0,0.7-0.4,0.7-0.4l-0.2-0.2C19.9,25.5,19.7,25.8,19.4,25.8"/>
	<polygon clip-path="url(#SVGID_2_)" points="29.6,5.2 29,5.2 29,4.7 28.6,4.7 28.6,6.2 29,6.2 29,5.5 29.6,5.5 29.6,6.2 30,6.2 
		30,4.7 29.6,4.7 	"/>
	<polygon clip-path="url(#SVGID_2_)" points="31.3,5.2 30.7,5.2 30.7,4.7 30.4,4.7 30.4,6.2 30.7,6.2 30.7,5.5 31.3,5.5 31.3,6.2 
		31.7,6.2 31.7,4.7 31.3,4.7 	"/>
	<path clip-path="url(#SVGID_2_)" d="M32.8,5.9h-0.3V5.4h0.3c0.2,0,0.3,0.1,0.3,0.2C33,5.8,32.9,5.9,32.8,5.9 M32.8,5.1h-0.3V4.7
		h-0.4v1.5h0.7c0.5,0,0.6-0.3,0.6-0.5C33.4,5.3,33.2,5.1,32.8,5.1"/>
	<rect x="33.5" y="4.7" clip-path="url(#SVGID_2_)" width="0.4" height="1.5"/>
	<path clip-path="url(#SVGID_2_)" d="M34.5,4.3c0.1,0.1,0.2,0.2,0.4,0.2c0.2,0,0.4-0.1,0.4-0.2c0-0.1,0.1-0.1,0.1-0.2l0,0h-0.3v0
		c0,0.1,0,0.1-0.2,0.1c-0.1,0-0.2-0.1-0.2-0.1v0l-0.3,0l0,0C34.5,4.1,34.5,4.2,34.5,4.3"/>
	<polygon clip-path="url(#SVGID_2_)" points="35.3,4.7 35.3,4.8 34.6,5.5 34.6,4.7 34.3,4.7 34.3,6.2 34.6,6.2 34.6,6 35.3,5.3 
		35.3,6.2 35.6,6.2 35.6,4.7 	"/>
	<path clip-path="url(#SVGID_2_)" d="M38,14c0.1,0.1,0.2,0.2,0.4,0.2c0.2,0,0.4-0.1,0.4-0.2c0-0.1,0.1-0.1,0.1-0.2l0,0h-0.3v0
		c0,0.1,0,0.1-0.2,0.1c-0.1,0-0.2-0.1-0.2-0.1v0l-0.3,0l0,0C38,13.9,38,14,38,14"/>
	<polygon clip-path="url(#SVGID_2_)" points="38.8,14.4 38.8,14.6 38.1,15.3 38.1,14.4 37.8,14.4 37.8,15.9 38.1,15.9 38.1,15.7 
		38.8,15.1 38.8,15.9 39.1,15.9 39.1,14.4 	"/>
	<path clip-path="url(#SVGID_2_)" d="M20.7,24.1c0.1,0.1,0.2,0.2,0.4,0.2c0.2,0,0.4-0.1,0.4-0.2c0-0.1,0.1-0.1,0.1-0.2l0,0h-0.3v0
		c0,0.1,0,0.1-0.2,0.1c-0.1,0-0.2-0.1-0.2-0.1v0l-0.3,0l0,0C20.6,24,20.6,24.1,20.7,24.1"/>
	<polygon clip-path="url(#SVGID_2_)" points="21.4,24.5 21.4,24.7 20.8,25.3 20.8,24.5 20.4,24.5 20.4,26 20.8,26 20.8,25.8 
		21.4,25.2 21.4,26 21.8,26 21.8,24.5 	"/>
	<polygon clip-path="url(#SVGID_2_)" points="21.9,14.6 21.2,15.2 21.2,14.4 20.9,14.4 20.9,15.9 21.2,15.9 21.2,15.7 21.9,15.1 
		21.9,15.9 22.2,15.9 22.2,14.4 21.9,14.4 	"/>
	<polygon clip-path="url(#SVGID_2_)" points="22.5,14.7 23,14.7 23,15.9 23.3,15.9 23.3,14.7 23.8,14.7 23.8,14.4 22.5,14.4 	"/>
	<path clip-path="url(#SVGID_2_)" d="M26.4,14.7c0.2,0,0.4,0.2,0.4,0.5c0,0.3-0.1,0.5-0.4,0.5c-0.2,0-0.4-0.2-0.4-0.5
		C26,14.8,26.2,14.7,26.4,14.7 M26.4,14.4c-0.2,0-0.3,0.1-0.4,0.1v-0.1h-0.3v2H26v-0.6c0.1,0.1,0.2,0.1,0.4,0.1
		c0.5,0,0.7-0.4,0.7-0.8C27.1,14.8,26.9,14.4,26.4,14.4"/>
	<polygon clip-path="url(#SVGID_2_)" points="29,14.7 29.4,14.7 29.4,15.9 29.8,15.9 29.8,14.7 30.3,14.7 30.3,14.4 29,14.4 	"/>
	<path clip-path="url(#SVGID_2_)" d="M32.9,14.7c0.2,0,0.4,0.2,0.4,0.5c0,0.3-0.1,0.5-0.4,0.5c-0.2,0-0.4-0.2-0.4-0.5
		C32.5,14.8,32.7,14.7,32.9,14.7 M32.9,14.4c-0.2,0-0.3,0.1-0.4,0.1v-0.1h-0.3v2h0.4v-0.6c0.1,0.1,0.2,0.1,0.4,0.1
		c0.5,0,0.7-0.4,0.7-0.8C33.6,14.8,33.4,14.4,32.9,14.4"/>
	<polygon clip-path="url(#SVGID_2_)" points="34.8,15 34.3,15 34.3,14.4 33.9,14.4 33.9,15.9 34.3,15.9 34.3,15.3 34.8,15.3 
		34.8,15.9 35.2,15.9 35.2,14.4 34.8,14.4 	"/>
	<rect x="37" y="14.4" clip-path="url(#SVGID_2_)" width="0.4" height="1.5"/>
	<path clip-path="url(#SVGID_2_)" d="M36.3,15.6H36v-0.4h0.3c0.2,0,0.3,0.1,0.3,0.2C36.5,15.6,36.4,15.6,36.3,15.6 M36.3,14.9H36
		v-0.5h-0.4v1.5h0.7c0.5,0,0.6-0.3,0.6-0.5C36.9,15,36.7,14.9,36.3,14.9"/>
	<path clip-path="url(#SVGID_2_)" d="M18.3,25.2c0.1-0.1,0.1-0.2,0.1-0.3c0-0.3-0.2-0.5-0.6-0.5c0,0-0.1,0-0.1,0
		c-0.4,0-0.6,0.4-0.6,0.4l0.3,0.2c0,0,0.2-0.3,0.4-0.3c0.1,0,0.1,0,0.2,0.1c0,0,0,0.1,0,0.1c0,0.1-0.2,0.2-0.2,0.2h-0.3v0.3h0.3
		c0.1,0,0.3,0,0.3,0.2c0,0,0,0.1,0,0.1c-0.1,0.1-0.1,0.1-0.2,0.1c0,0,0,0-0.1,0c-0.3-0.1-0.4-0.2-0.4-0.2L17,25.7
		c0,0,0.3,0.4,0.8,0.4c0.4,0,0.6-0.2,0.6-0.5C18.5,25.4,18.4,25.3,18.3,25.2"/>
	<polygon clip-path="url(#SVGID_2_)" points="2.8,2.8 2.8,3.6 3.3,3.6 3.3,7.1 2.8,7.1 2.8,7.9 5.6,7.9 5.6,7.1 5.1,7.1 5.1,3.6 
		6.5,3.6 7.2,4.7 8,4.7 8,2.8 	"/>
	<polygon clip-path="url(#SVGID_2_)" points="9.4,26.7 9.4,23.2 9.9,23.2 9.9,22.4 7.6,22.4 7.6,22.4 7.6,22.4 6.3,24.2 4.8,22.4 
		2.8,22.4 2.8,23.2 3.3,23.2 3.3,26.7 2.8,26.7 2.8,27.5 4.5,27.5 4.5,26.7 4,26.7 4,23.9 5.7,26.1 7.6,23.7 7.6,26.7 7.1,26.7 
		7.1,27.5 9.9,27.5 9.9,26.7 	"/>
	<path clip-path="url(#SVGID_2_)" d="M15.2,16.9v-3.6h0.5v-0.7h-5.2v0.7h0.7c0,0.8-0.2,2.2-0.4,3H9.2c-0.1,0.6,0.3,1.4,1.1,1.4
		c0.1,0,0.3,0,0.4-0.1c0.2-0.1,0.5-0.3,0.7-0.7c0.4-0.9,0.6-2.8,0.6-3.6h1.5v3.6H13v0.7h2.8v-0.7H15.2z"/>
	<path clip-path="url(#SVGID_2_)" d="M19.3,14.4c0,0,0,0.4,0,0.5c0,0.6-0.1,0.7-0.4,0.7l0,0v0.3l0,0c0.1,0,0.1,0,0.2,0
		c0.4,0,0.5-0.3,0.6-1c0-0.2,0-0.2,0-0.2h0.4v1.2h0.4v-1.5H19.3z"/>
	<polygon clip-path="url(#SVGID_2_)" points="14.9,24.5 14.4,25.4 13.9,24.5 13.4,24.5 13.4,26 13.8,26 13.8,25 14.2,25.8 
		14.5,25.8 14.9,25.1 14.9,26 15.3,26 15.3,24.5 	"/>
</g>
</svg>
