<?xml version="1.0" encoding="utf-8"?>
<!-- Generator: Adobe Illustrator 18.0.0, SVG Export Plug-In . SVG Version: 6.00 Build 0)  -->
<!DOCTYPE svg PUBLIC "-//W3C//DTD SVG 1.1//EN" "http://www.w3.org/Graphics/SVG/1.1/DTD/svg11.dtd">
<svg version="1.1" id="Слой_1" xmlns="http://www.w3.org/2000/svg" xmlns:xlink="http://www.w3.org/1999/xlink" x="0px" y="0px"
	 viewBox="0 0 45.6 46" enable-background="new 0 0 45.6 46" xml:space="preserve">
<path fill-rule="evenodd" clip-rule="evenodd" d="M19.5,18.8c0.3-0.7,0.4-1.3,0.4-2c-0.1-1.8-0.6-3.3-2-4.5
	c-0.6-0.6-1.4-0.9-2.3-0.8c-1.1,0.1-1.8,0.8-2.3,1.8c-0.4,1-0.5,2.1-0.3,3.1c0.3,1.5,0.9,2.7,2.1,3.6C16.8,21.1,18.7,20.6,19.5,18.8
	"/>
<path fill-rule="evenodd" clip-rule="evenodd" d="M19.8,26.9c-1.2-0.6-2.5-0.8-3.8-0.6c-1.4,0.2-2.6,0.7-3.6,1.6
	c-1.6,1.5-1.5,3.6,0.1,5c1.1,0.9,2.5,1.3,3.9,1.3c0.1,0,0.2,0,0.3,0c1.6-0.1,3-0.5,4.2-1.7c1-0.9,1.4-2.1,1-3.4
	C21.6,28,20.8,27.3,19.8,26.9"/>
<path fill-rule="evenodd" clip-rule="evenodd" d="M22.8,0C10.2,0,0,10.3,0,23s10.2,23,22.8,23c12.6,0,22.8-10.3,22.8-23
	S35.4,0,22.8,0 M21.9,34.3c-1.2,0.8-2.5,1.2-3.9,1.4c-2,0.3-4,0.2-5.9-0.4c-1.3-0.4-2.5-1.1-3.2-2.4c-1-1.8-0.8-4.7,1.7-6.2
	c1.3-0.8,2.7-1.2,4.1-1.3c0.8-0.1,1.6-0.1,2.4-0.2c0.1,0,0.1,0,0.2,0c0-0.5-0.2-0.9-0.6-1.1c-0.3-0.2-0.4-0.5-0.4-0.8
	c0-0.4,0-0.8,0-1.3c-0.5,0-0.9,0-1.4,0c-1.2-0.1-2.4-0.5-3.3-1.3c-0.8-0.6-1.2-1.4-1.4-2.4c-0.3-1.3-0.3-2.6,0.1-3.8
	c0.5-1.4,1.5-2.4,2.8-3.1c1.5-0.8,3-1.1,4.7-1.2c2.2,0,4.3,0,6.5,0h0.2c0,0.3-0.2,0.4-0.4,0.5c-0.5,0.1-0.9,0.2-1.4,0.3
	c-0.4,0.1-0.8,0.1-1.3,0.2c-0.1,0-0.2,0.1-0.3,0.2c0.1,0.1,0.1,0.1,0.2,0.1c1,0.5,1.6,1.3,1.8,2.4c0.2,1,0.2,2.1,0.1,3.1
	c-0.2,1.1-0.7,2-1.5,2.7c-0.4,0.4-0.9,0.8-1.3,1.2c0,0-0.1,0.1-0.1,0.1c-0.8,0.8-0.8,1.5,0,2.2c0.7,0.6,1.4,1.2,2.1,1.8
	c0.8,0.7,1.5,1.5,1.9,2.5C24.9,29.6,24.3,32.8,21.9,34.3 M37.3,16.3c-1.5,0-3.1,0-4.6,0c-0.6,0-0.5-0.1-0.5,0.5c0,1.4,0,2.8,0,4.2
	v0.3h-1v-0.7c0-1.3,0-2.7,0-4c0-0.2-0.1-0.3-0.3-0.3c-1.4,0-2.9,0-4.3,0h-0.4v-1.2h5v-4.8h1c0,0.1,0,0.3,0,0.4c0,1.4,0,2.7,0,4.1
	c0,0.2,0.1,0.3,0.3,0.3c1.6,0,3.1,0,4.7,0c0.1,0,0.1,0,0.2,0V16.3z"/>
<polyline fill="none" points="-183.2,0 45.6,0 45.6,46 -183.2,46 "/>
</svg>
