<?xml version="1.0" encoding="utf-8"?>
<!-- Generator: Adobe Illustrator 18.0.0, SVG Export Plug-In . SVG Version: 6.00 Build 0)  -->
<!DOCTYPE svg PUBLIC "-//W3C//DTD SVG 1.1//EN" "http://www.w3.org/Graphics/SVG/1.1/DTD/svg11.dtd">
<svg version="1.1" id="Слой_1" xmlns="http://www.w3.org/2000/svg" xmlns:xlink="http://www.w3.org/1999/xlink" x="0px" y="0px"
	 viewBox="0 0 87.4 28.3" enable-background="new 0 0 87.4 28.3" xml:space="preserve">
<polygon fill="#FFFFFF" points="28.4,20.1 28.4,20.1 28.4,20.1 27.5,20.1 27.5,19.9 28.6,19.9 28.6,20.1 27.7,20.5 28.6,20.8 
	28.6,21 27.5,21 27.5,20.9 28.4,20.9 28.4,20.9 28.4,20.9 27.5,20.5 27.5,20.4 "/>
<polygon fill="#FFFFFF" points="28.4,21.4 28.4,21.4 28.4,21.4 27.5,21.4 27.5,21.3 28.6,21.3 28.6,21.5 27.7,21.8 28.6,22.1 
	28.6,22.4 27.5,22.4 27.5,22.2 28.4,22.2 28.4,22.2 28.4,22.2 27.5,21.9 27.5,21.8 "/>
<g>
	<defs>
		<rect id="SVGID_1_" width="87.4" height="28.3"/>
	</defs>
	<clipPath id="SVGID_2_">
		<use xlink:href="#SVGID_1_"  overflow="visible"/>
	</clipPath>
	<path clip-path="url(#SVGID_2_)" fill="#FFFFFF" d="M27.6,23.1c0,0.1,0,0.4,0.4,0.4c0.2,0,0.4-0.1,0.4-0.4c0-0.3-0.3-0.4-0.4-0.4
		C27.9,22.7,27.6,22.8,27.6,23.1 M28.6,23.1c0,0.2-0.1,0.5-0.6,0.5c-0.6,0-0.6-0.4-0.6-0.5c0-0.1,0-0.5,0.6-0.5
		C28.4,22.5,28.6,22.8,28.6,23.1"/>
	<polygon clip-path="url(#SVGID_2_)" fill="#FFFFFF" points="28.4,23.9 28.4,23.9 28.4,23.9 27.5,23.9 27.5,23.7 28.6,23.7 28.6,24 
		27.7,24.3 28.6,24.6 28.6,24.8 27.5,24.8 27.5,24.7 28.4,24.7 28.4,24.7 28.4,24.7 27.5,24.3 27.5,24.2 	"/>
	<path clip-path="url(#SVGID_2_)" fill="#FFFFFF" d="M27.9,25.2l0.5,0.2l-0.5,0.2V25.2z M27.5,25.1l0.3,0.1v0.4l-0.3,0.1v0.2
		l1.1-0.4v-0.1L27.5,25V25.1z"/>
	<rect x="27.5" y="26.1" clip-path="url(#SVGID_2_)" fill="#FFFFFF" width="0.2" height="0.1"/>
	<path clip-path="url(#SVGID_2_)" fill="#FFFFFF" d="M28.1,26.6v0.3c0,0.1,0,0.2,0.2,0.2c0.1,0,0.2-0.1,0.2-0.2v-0.3H28.1z
		 M28.6,26.5V27c0,0.1,0,0.3-0.3,0.3c-0.1,0-0.2-0.1-0.3-0.2h0c-0.1,0.1-0.1,0.1-0.3,0.2c-0.1,0-0.2,0-0.3,0v-0.1c0,0,0.1,0,0.2,0
		c0.1,0,0.2,0,0.2-0.2v-0.3h-0.4v-0.1H28.6z"/>
	<path clip-path="url(#SVGID_2_)" fill="#FFFFFF" d="M28.6,27.6h-0.6c-0.1,0-0.3,0-0.3,0.3c0,0.2,0.1,0.3,0.3,0.3h0.6v0.1h-0.6
		c-0.4,0-0.4-0.3-0.4-0.4c0-0.4,0.3-0.4,0.4-0.4h0.6V27.6z"/>
	<path clip-path="url(#SVGID_2_)" fill="#FFFFFF" d="M85.7,9.1c0-0.6-0.3-1.1-1-1.1c-0.8,0-1,0.6-1,1.1c0,0.6,0.3,1.1,1,1.1
		C85.4,10.2,85.7,9.6,85.7,9.1 M85.3,9.1c0,0.8-0.5,0.9-0.6,0.9c-0.2,0-0.6,0-0.6-0.9s0.5-0.9,0.6-0.9C84.8,8.2,85.3,8.2,85.3,9.1
		 M82.6,8.3h1.1V8h-1.4v2.1h0.4V8.3z M81.9,9.1c0-0.6-0.3-1.1-1-1.1c-0.8,0-1,0.6-1,1.1c0,0.6,0.3,1.1,1,1.1
		C81.6,10.2,81.9,9.6,81.9,9.1 M81.5,9.1c0,0.8-0.5,0.9-0.6,0.9c-0.2,0-0.6,0-0.6-0.9s0.5-0.9,0.6-0.9C81,8.2,81.5,8.2,81.5,9.1
		 M80.5,2.9h0.4V0.8h-0.4l-1.1,1.7V0.8H79v2.1h0.4l1.1-1.7V2.9z M80.6,0h-0.3c0,0.2-0.2,0.3-0.4,0.3c-0.1,0-0.1,0-0.2,0
		c-0.1,0-0.1-0.1-0.1-0.1C79.5,0.1,79.5,0,79.5,0h-0.3c0,0,0,0.1,0,0.1c0.1,0.2,0.3,0.4,0.7,0.4c0.1,0,0.1,0,0.2,0
		C80.5,0.5,80.6,0.2,80.6,0 M78.2,2.9h0.4V0.8h-0.4l-1.1,1.7V0.8h-0.4v2.1h0.4l1.1-1.7V2.9z M76.5,2.9l-1-1.1l1-1h-0.4l-0.9,0.9V0.8
		h-0.4v2.1h0.4v-1l0.9,1H76.5z M73,1.8C73,1.3,73.1,1,73.6,1c0.1,0,0.5,0,0.6,0.5h0.3c0-0.4-0.3-0.7-0.9-0.7c-0.8,0-1,0.6-1,1.1
		c0,1.1,0.8,1.1,1,1.1c0.7,0,0.9-0.6,0.9-0.8h-0.3c0,0.2-0.1,0.6-0.6,0.6C73.2,2.7,73,2.3,73,1.8 M71.9,1.8L71.9,1.8
		c0.1,0,0.4-0.1,0.4-0.5c0-0.5-0.5-0.5-0.7-0.5h-1v2.1h1c0.3,0,0.8-0.1,0.8-0.5C72.4,2.1,72.3,1.9,71.9,1.8 M71.5,1.7H71V1h0.5
		c0.1,0,0.4,0,0.4,0.3C72,1.5,71.9,1.7,71.5,1.7 M72,2.3c0,0.3-0.3,0.3-0.5,0.3H71V1.9h0.5C71.7,1.9,72,1.9,72,2.3 M70.9,8h-0.5v2.1
		h0.4V8.6l0-0.1h0l0.7,1.7h0.3l0.7-1.7h0l0,0.1v1.6h0.4V8h-0.5l-0.7,1.7L70.9,8z M70,6.5h0.4V4.4h-0.4l-1.1,1.7V4.4h-0.4v2.1h0.4
		L70,4.8V6.5z M69.1,3.8C69,3.7,69,3.7,69,3.6h-0.3c0,0,0,0.1,0,0.1C68.8,4,69,4.2,69.4,4.2c0.1,0,0.1,0,0.2,0
		c0.4-0.1,0.5-0.4,0.5-0.5h-0.3c0,0.2-0.2,0.3-0.4,0.3c-0.1,0-0.1,0-0.2,0C69.2,3.9,69.1,3.9,69.1,3.8 M70.3,1.8
		c0-0.6-0.3-1.1-1-1.1s-1,0.6-1,1.1c0,0.6,0.3,1.1,1,1.1S70.3,2.4,70.3,1.8 M70,1.8c0,0.8-0.5,0.9-0.6,0.9c-0.2,0-0.6,0-0.6-0.9
		C68.7,1,69.2,1,69.3,1C69.5,1,70,1,70,1.8 M67.3,1.8l1-1h-0.4L67,1.7V0.8h-0.4v2.1H67v-1l0.9,1h0.4L67.3,1.8z M67.1,4.3
		c-1,0-1,0.8-1,1.1c0,0.2,0,1.1,1.1,1.1c0.6,0,0.9-0.4,0.9-0.7h-0.3c0,0.2-0.2,0.4-0.6,0.4c-0.5,0-0.7-0.4-0.7-0.8h1.6
		c0,0,0-0.1,0-0.1C68.1,5,68,4.3,67.1,4.3 M67.1,4.6c0.5,0,0.6,0.4,0.6,0.7h-1.2C66.5,5,66.6,4.6,67.1,4.6 M64.8,1.8
		C64.8,1.3,65,1,65.4,1c0.1,0,0.5,0,0.6,0.5h0.3c0-0.4-0.3-0.7-0.9-0.7c-0.8,0-1,0.6-1,1.1c0,1.1,0.8,1.1,1,1.1
		c0.7,0,0.9-0.6,0.9-0.8H66c0,0.2-0.1,0.6-0.6,0.6C65,2.7,64.8,2.3,64.8,1.8 M65,4.3c-0.2,0-0.8,0-0.9,0.7h0.3
		c0-0.1,0.1-0.4,0.5-0.4c0.4,0,0.5,0.3,0.5,0.4c0,0.3-0.3,0.3-0.4,0.3h-0.3v0.3h0.3c0.1,0,0.5,0,0.5,0.4c0,0.3-0.2,0.4-0.5,0.4
		c-0.4,0-0.6-0.2-0.6-0.5h-0.3c0,0.2,0.1,0.7,0.9,0.7c0.7,0,0.9-0.4,0.9-0.6c0-0.3-0.2-0.5-0.4-0.5v0c0.1,0,0.4-0.1,0.4-0.5
		C65.8,4.8,65.8,4.3,65,4.3 M64.2,1.8c0-0.6-0.3-1.1-1-1.1c-0.8,0-1,0.6-1,1.1c0,0.6,0.3,1.1,1,1.1C63.9,3,64.2,2.4,64.2,1.8
		 M63.8,1.8c0,0.8-0.5,0.9-0.6,0.9s-0.6,0-0.6-0.9C62.5,1,63,1,63.1,1S63.8,1,63.8,1.8 M62,4.4l0.9,2.1l0,0.2
		C62.8,6.8,62.8,7,62.6,7c0,0-0.1,0-0.2,0v0.3c0.1,0,0.2,0,0.3,0c0.4,0,0.5-0.3,0.5-0.5l0.8-2.3h-0.4l-0.6,1.7l-0.7-1.7H62z
		 M62.5,7.9c-0.8,0-1,0.6-1,1.1c0,0.6,0.3,1.1,1,1.1c0.8,0,1-0.6,1-1.1C63.5,8.5,63.2,7.9,62.5,7.9 M62.5,8.2c0.2,0,0.6,0,0.6,0.9
		S62.6,10,62.5,10c-0.2,0-0.6,0-0.6-0.9S62.3,8.2,62.5,8.2 M61.4,6.5h0.4V4.4h-0.5l-0.7,1.7l-0.7-1.7h-0.5v2.1h0.4V4.9l0-0.1h0
		l0.7,1.7h0.3l0.7-1.7h0l0,0.1V6.5z M61.4,2.9h0.4V0.8h-0.5l-0.7,1.7l-0.7-1.7h-0.5v2.1h0.4V1.3l0-0.1h0l0.7,1.7h0.3l0.7-1.7h0
		l0,0.1V2.9z M59.2,9.1c0,1.1,0.8,1.1,1,1.1c0.7,0,0.9-0.6,0.9-0.8h-0.3c0,0.2-0.1,0.6-0.6,0.6c-0.5,0-0.6-0.4-0.6-0.9
		c0-0.5,0.2-0.9,0.6-0.9c0.1,0,0.5,0,0.6,0.5h0.3c0-0.4-0.3-0.7-0.9-0.7C59.4,7.9,59.2,8.6,59.2,9.1 M59.2,27.7
		c0,0.4,0.3,0.6,0.7,0.6c0.3,0,0.6-0.1,0.7-0.4c0,0.3,0.2,0.3,0.4,0.3c0.1,0,0.1,0,0.2,0V28C61,28,61,27.9,61,27.7l0-1
		c0-0.6-0.5-0.7-0.8-0.7c-0.7,0-0.9,0.4-0.9,0.7h0.3c0-0.4,0.4-0.4,0.5-0.4c0.5,0,0.5,0.3,0.5,0.4c0,0.3-0.1,0.3-0.4,0.3
		C59.4,27.1,59.2,27.3,59.2,27.7 M59.6,27.7c0-0.3,0.3-0.4,0.6-0.4c0.2,0,0.4,0,0.5-0.1l0,0.2c0,0.6-0.4,0.7-0.6,0.7
		C59.8,28.1,59.6,27.9,59.6,27.7 M61.3,23.6c0-0.6-0.3-1.1-1-1.1c-0.8,0-1,0.6-1,1.1c0,0.6,0.3,1.1,1,1.1
		C61,24.7,61.3,24.1,61.3,23.6 M60.9,23.6c0,0.8-0.5,0.9-0.6,0.9c-0.2,0-0.6,0-0.6-0.9c0-0.8,0.5-0.9,0.6-0.9
		C60.4,22.7,60.9,22.7,60.9,23.6 M61.8,22.5h-0.4v0.3h0.4v1.8h0.4v-1.8h0.5v-0.3h-0.5v-0.3c0-0.1,0-0.3,0.2-0.3c0,0,0.1,0,0.3,0
		v-0.3c-0.1,0-0.2,0-0.3,0c-0.4,0-0.6,0.2-0.6,0.5V22.5z M61.9,26.1h-0.4v2.1h0.4v-1v-0.1c0,0,0-0.1,0-0.1c0-0.5,0.3-0.7,0.8-0.7V26
		l-0.1,0c-0.3,0-0.6,0.2-0.7,0.5h0V26.1z M63.2,18.9h-0.4v1.4c0,0.3,0.1,0.8,0.7,0.8c0.1,0,0.5,0,0.7-0.4h0V21h0.4v-2.1h-0.4V20
		c0,0.1,0,0.8-0.6,0.8c-0.3,0-0.4-0.1-0.4-0.6V18.9z M63.2,26.1h-0.4v0.3h0.4v1.4c0,0.2,0,0.5,0.4,0.5c0.1,0,0.3,0,0.4-0.1V28
		c-0.1,0-0.1,0-0.2,0c-0.2,0-0.2-0.1-0.2-0.3v-1.3H64v-0.3h-0.4v-0.6h-0.4V26.1z M64.1,24.6v-1.2c0-0.4,0.3-0.7,0.6-0.7
		c0.3,0,0.4,0.3,0.4,0.6v1.3h0.4v-1.2c0-0.5,0.3-0.7,0.6-0.7c0.4,0,0.4,0.4,0.4,0.6v1.3h0.4v-1.4c0-0.2,0-0.8-0.7-0.8
		c-0.4,0-0.7,0.3-0.7,0.4c-0.1-0.2-0.2-0.4-0.6-0.4c-0.3,0-0.5,0.1-0.6,0.4l0,0v-0.3h-0.4v2.1H64.1z M66.9,16.3c0,1.1,0.8,1.1,1,1.1
		c0.7,0,0.9-0.6,0.9-0.8h-0.3c0,0.2-0.1,0.6-0.6,0.6c-0.5,0-0.6-0.4-0.6-0.9c0-0.5,0.2-0.9,0.6-0.9c0.1,0,0.5,0,0.6,0.5h0.3
		c0-0.4-0.3-0.7-0.9-0.7C67.1,15.2,66.9,15.8,66.9,16.3 M67,19.9c0,0.2,0,1.1,1.1,1.1c0.6,0,0.9-0.4,0.9-0.7h-0.3
		c0,0.2-0.2,0.4-0.6,0.4c-0.5,0-0.7-0.4-0.7-0.8h1.6c0,0,0-0.1,0-0.1c0-0.5-0.1-1.1-1-1.1C67,18.8,67,19.7,67,19.9 M67.3,19.8
		c0-0.3,0.1-0.7,0.6-0.7c0.5,0,0.6,0.4,0.6,0.7H67.3z M67.1,23.6c0,0.6,0.3,1.1,1,1.1c0.8,0,1-0.6,1-1.1c0-0.6-0.3-1.1-1-1.1
		C67.4,22.4,67.1,23,67.1,23.6 M67.5,23.6c0-0.8,0.5-0.9,0.6-0.9c0.2,0,0.6,0,0.6,0.9c0,0.8-0.5,0.9-0.6,0.9
		C68,24.4,67.5,24.4,67.5,23.6 M69.6,18.9h-0.4v1.4c0,0.3,0.1,0.8,0.7,0.8c0.1,0,0.5,0,0.7-0.4h0V21H71v-2.1h-0.4V20
		c0,0.1,0,0.8-0.6,0.8c-0.3,0-0.4-0.1-0.4-0.6V18.9z M69.4,23.6c0,0.7,0.3,1.1,1,1.1c0.4,0,0.6-0.2,0.7-0.4h0v0.3h0.3v-2.9h-0.4v1.1
		c-0.2-0.3-0.4-0.4-0.7-0.4C69.6,22.4,69.4,23.1,69.4,23.6 M69.8,23.6c0-0.6,0.3-0.9,0.6-0.9c0.3,0,0.6,0.3,0.6,0.9
		c0,0.6-0.3,0.9-0.6,0.9C70.3,24.4,69.8,24.3,69.8,23.6 M71.8,18.9h-0.4V21h0.4v-1.2c0-0.4,0.3-0.7,0.6-0.7c0.3,0,0.4,0.3,0.4,0.6
		V21h0.4v-1.2c0-0.5,0.3-0.7,0.6-0.7c0.4,0,0.4,0.4,0.4,0.6V21h0.4v-1.4c0-0.2,0-0.8-0.7-0.8c-0.4,0-0.7,0.3-0.7,0.4
		c-0.1-0.2-0.2-0.4-0.6-0.4c-0.3,0-0.5,0.1-0.6,0.4l0,0V18.9z M71.8,23.6c0,0.2,0,1.1,1.1,1.1c0.6,0,0.9-0.4,0.9-0.7h-0.3
		c0,0.2-0.2,0.4-0.6,0.4c-0.5,0-0.7-0.4-0.7-0.8h1.6c0,0,0-0.1,0-0.1c0-0.5-0.1-1.1-1-1.1C71.9,22.4,71.8,23.3,71.8,23.6 M72.2,23.4
		c0-0.3,0.1-0.7,0.6-0.7c0.5,0,0.6,0.4,0.6,0.7H72.2z M74.6,22.5h-0.4v2.1h0.4v-1v-0.1c0,0,0-0.1,0-0.1c0-0.5,0.3-0.7,0.8-0.7v-0.3
		l-0.1,0c-0.3,0-0.6,0.2-0.7,0.5h0V22.5z M73.2,9.1c0,0.2,0,1.1,1.1,1.1c0.6,0,0.9-0.4,0.9-0.7h-0.3c0,0.2-0.2,0.4-0.6,0.4
		c-0.5,0-0.7-0.4-0.7-0.8h1.6c0,0,0-0.1,0-0.1c0-0.5-0.1-1.1-1-1.1C73.3,7.9,73.2,8.8,73.2,9.1 M73.6,8.9c0-0.3,0.1-0.7,0.6-0.7
		c0.5,0,0.6,0.4,0.6,0.7H73.6z M73.6,11.7h-1.8v0.3h0.7v1.8h0.4v-1.8h0.7V11.7z M72.1,16.9l-0.5-1.7h-0.4l0.7,2.1h0.4l0.4-1.7
		l0.4,1.7h0.4l0.7-2.1h-0.4l-0.5,1.7l-0.4-1.7h-0.4L72.1,16.9z M68.1,9.1c0,0.2,0,1.1,1.1,1.1c0.6,0,0.9-0.4,0.9-0.7h-0.3
		c0,0.2-0.2,0.4-0.6,0.4c-0.5,0-0.7-0.4-0.7-0.8h1.6c0,0,0-0.1,0-0.1c0-0.5-0.1-1.1-1-1.1C68.2,7.9,68.1,8.8,68.1,9.1 M68.5,8.9
		c0-0.3,0.1-0.7,0.6-0.7c0.5,0,0.6,0.4,0.6,0.7H68.5z M69.1,16.3c0,0.6,0.3,1.1,1,1.1s1-0.6,1-1.1s-0.3-1.1-1-1.1
		S69.1,15.8,69.1,16.3 M69.5,16.3c0-0.8,0.5-0.9,0.6-0.9c0.2,0,0.6,0,0.6,0.9s-0.5,0.9-0.6,0.9C70,17.2,69.5,17.2,69.5,16.3
		 M67.6,12.7c0,1.1,0.8,1.1,1,1.1c0.7,0,0.9-0.6,0.9-0.8h-0.3c0,0.2-0.1,0.6-0.6,0.6c-0.5,0-0.6-0.4-0.6-0.9c0-0.5,0.2-0.9,0.6-0.9
		c0.1,0,0.5,0,0.6,0.5h0.3c0-0.4-0.3-0.7-0.9-0.7C67.8,11.6,67.6,12.2,67.6,12.7 M66.2,8h-0.3v2.9h0.4V9.8c0.2,0.4,0.6,0.4,0.7,0.4
		c0.5,0,0.9-0.3,0.9-1.1c0-0.8-0.4-1.1-0.9-1.1c-0.2,0-0.5,0.1-0.7,0.4h0V8z M66.2,9.1c0-0.8,0.4-0.9,0.6-0.9c0.4,0,0.6,0.3,0.6,0.9
		c0,0.7-0.3,0.9-0.6,0.9C66.6,10,66.2,9.7,66.2,9.1 M65.9,11.7h-0.4l0.9,2.1l0,0.2c-0.1,0.2-0.1,0.4-0.3,0.4c0,0-0.1,0-0.2,0v0.3
		c0.1,0,0.2,0,0.3,0c0.4,0,0.5-0.3,0.5-0.5l0.8-2.3h-0.4l-0.6,1.7L65.9,11.7z M64.9,16.7c0,0.4,0.3,0.7,0.9,0.7c0.1,0,0.9,0,0.9-0.7
		c0-0.4-0.3-0.5-0.7-0.6c-0.3-0.1-0.6-0.1-0.6-0.4c0-0.3,0.4-0.3,0.4-0.3c0.4,0,0.5,0.3,0.5,0.4h0.3c0-0.2-0.1-0.6-0.8-0.6
		c-0.4,0-0.8,0.1-0.8,0.6c0,0.4,0.3,0.5,0.7,0.6l0.2,0c0.4,0.1,0.4,0.2,0.4,0.3c0,0.1,0,0.4-0.5,0.4c-0.3,0-0.6-0.1-0.6-0.4H64.9z
		 M65.4,19.4c0-0.3,0.4-0.3,0.4-0.3c0.4,0,0.5,0.3,0.5,0.4h0.3c0-0.2-0.1-0.6-0.8-0.6c-0.4,0-0.8,0.1-0.8,0.6c0,0.4,0.3,0.5,0.7,0.6
		l0.2,0c0.4,0.1,0.4,0.2,0.4,0.3c0,0.1,0,0.4-0.5,0.4c-0.3,0-0.6-0.1-0.6-0.4h-0.4c0,0.4,0.3,0.7,0.9,0.7c0.1,0,0.9,0,0.9-0.7
		c0-0.4-0.3-0.5-0.7-0.6C65.7,19.7,65.4,19.7,65.4,19.4 M64.1,11.7h-0.4v2.1h0.4v-1l0.9,1h0.4l-1-1.1l1-1H65l-0.9,0.9V11.7z
		 M63.7,15.2c-0.8,0-1,0.6-1,1.1s0.3,1.1,1,1.1c0.8,0,1-0.6,1-1.1S64.5,15.2,63.7,15.2 M63.7,15.4c0.2,0,0.6,0,0.6,0.9
		s-0.5,0.9-0.6,0.9c-0.2,0-0.6,0-0.6-0.9S63.5,15.4,63.7,15.4 M59.7,21v-1.2c0-0.4,0.3-0.7,0.6-0.7c0.3,0,0.4,0.3,0.4,0.6V21H61
		v-1.2c0-0.5,0.3-0.7,0.6-0.7c0.4,0,0.4,0.4,0.4,0.6V21h0.4v-1.4c0-0.2,0-0.8-0.7-0.8c-0.4,0-0.7,0.3-0.7,0.4
		c-0.1-0.2-0.2-0.4-0.6-0.4c-0.3,0-0.5,0.1-0.6,0.4l0,0v-0.3h-0.4V21H59.7z M60.9,13.7h0.4v-2.1h-0.4l-1.1,1.7v-1.7h-0.4v2.1h0.4
		l1.1-1.7V13.7z M61.7,15.2c-0.4,0-0.7,0.3-0.7,0.4c-0.1-0.2-0.2-0.4-0.6-0.4c-0.3,0-0.5,0.1-0.6,0.4l0,0v-0.3h-0.4v2.1h0.4v-1.2
		c0-0.4,0.3-0.7,0.6-0.7c0.3,0,0.4,0.3,0.4,0.6v1.3H61v-1.2c0-0.5,0.3-0.7,0.6-0.7c0.4,0,0.4,0.4,0.4,0.6v1.3h0.4V16
		C62.4,15.8,62.3,15.2,61.7,15.2 M61.9,12.7c0-0.5,0.2-0.9,0.6-0.9c0.1,0,0.5,0,0.6,0.5h0.3c0-0.4-0.3-0.7-0.9-0.7
		c-0.8,0-1,0.6-1,1.1c0,1.1,0.8,1.1,1,1.1c0.7,0,0.9-0.6,0.9-0.8h-0.3c0,0.2-0.1,0.6-0.6,0.6C62.1,13.6,61.9,13.2,61.9,12.7 M65.1,9
		L65.1,9c0.1,0,0.4-0.1,0.4-0.5C65.4,8.1,65,8,64.8,8h-1v2.1h1c0.3,0,0.8-0.1,0.8-0.5C65.5,9.4,65.5,9.1,65.1,9 M64.7,8.9h-0.5V8.3
		h0.5c0.1,0,0.4,0,0.4,0.3C65.1,8.7,65,8.9,64.7,8.9 M65.2,9.5c0,0.3-0.3,0.3-0.5,0.3h-0.5V9.2h0.5C64.8,9.2,65.2,9.2,65.2,9.5
		 M70.2,12.7c0-0.5,0.2-0.9,0.6-0.9c0.1,0,0.5,0,0.6,0.5h0.3c0-0.4-0.3-0.7-0.9-0.7c-0.8,0-1,0.6-1,1.1c0,1.1,0.8,1.1,1,1.1
		c0.7,0,0.9-0.6,0.9-0.8h-0.3c0,0.2-0.1,0.6-0.6,0.6C70.3,13.6,70.2,13.2,70.2,12.7 M74.8,13.7c0.3,0,0.8-0.1,0.8-0.5
		c0-0.2,0-0.4-0.5-0.5v0c0.1,0,0.4-0.1,0.4-0.5c0-0.5-0.5-0.5-0.7-0.5h-1v2.1H74.8z M74.7,12.5h-0.5v-0.6h0.5c0.1,0,0.4,0,0.4,0.3
		C75.1,12.3,75,12.5,74.7,12.5 M74.7,13.5h-0.5v-0.7h0.5c0.2,0,0.5,0,0.5,0.4C75.2,13.5,74.9,13.5,74.7,13.5 M76,8h-0.4v2.1H76v-1h1
		v1h0.4V8H77v0.9h-1V8z M76,22.5h-0.4v2.1H76v-1.1c0-0.7,0.4-0.8,0.6-0.8c0.4,0,0.4,0.4,0.4,0.6v1.3h0.4v-1.4c0-0.4-0.1-0.8-0.7-0.8
		c-0.3,0-0.6,0.2-0.7,0.4V22.5z M77.7,13.8c0.1,0,0.1,0,0.2,0v-0.3c-0.2,0-0.2-0.1-0.2-0.2l0-1c0-0.6-0.5-0.7-0.8-0.7
		c-0.7,0-0.9,0.4-0.9,0.7h0.3c0-0.4,0.4-0.4,0.5-0.4c0.5,0,0.5,0.3,0.5,0.4c0,0.3-0.1,0.3-0.4,0.3c-0.8,0.1-1,0.3-1,0.7
		c0,0.4,0.3,0.6,0.7,0.6c0.3,0,0.6-0.1,0.7-0.4C77.3,13.7,77.5,13.8,77.7,13.8 M77.3,12.7l0,0.2c0,0.6-0.4,0.7-0.6,0.7
		c-0.2,0-0.4-0.1-0.4-0.4c0-0.3,0.3-0.4,0.6-0.4C77,12.7,77.2,12.8,77.3,12.7 M78.1,10.1v-1h1v1h0.4V8h-0.4v0.9h-1V8h-0.4v2.1H78.1z
		"/>
	<path clip-path="url(#SVGID_2_)" fill="#FFFFFF" d="M39.1,2.2l0.4,0.4c1.6,1.6,3.9,2,5.5,0.8l1.2,1.3L33,17.9l-1.8-1.8l10-10l-3-3
		L39.1,2.2z"/>
	<path clip-path="url(#SVGID_2_)" fill="#FFFFFF" d="M40,18.2c-0.8,1-1.7,3.1,0.4,5.1c0.9,0.9,3.3,2.9,6.4-0.2
		c2.4-2.3,1.7-4.6,0.2-6c-0.9-0.9-2.5-1.7-3.8-1.4l-1.7-1.7l7.9-6.1l7.2,7.2l-1.5,1.5l-5.9-5.9l-4.5,3.4c1.6,0.1,2.8,0.8,4,2
		c2.4,2.4,2.4,5.9-0.4,8.7c-2.7,2.7-6.2,3.2-9.5,0c-3.4-3.4-2-6.6-0.7-8.3L40,18.2z"/>
	<rect y="0.6" clip-path="url(#SVGID_2_)" fill="#FFFFFF" width="1" height="27.7"/>
	<rect x="28.8" y="0.6" clip-path="url(#SVGID_2_)" fill="#FFFFFF" width="1" height="27.7"/>
	<rect x="57.6" y="0.6" clip-path="url(#SVGID_2_)" fill="#FFFFFF" width="1" height="27.7"/>
	<rect x="86.4" y="0.6" clip-path="url(#SVGID_2_)" fill="#FFFFFF" width="1" height="27.7"/>
</g>
</svg>
