<?xml version="1.0" encoding="utf-8"?>
<!-- Generator: Adobe Illustrator 18.0.0, SVG Export Plug-In . SVG Version: 6.00 Build 0)  -->
<!DOCTYPE svg PUBLIC "-//W3C//DTD SVG 1.1//EN" "http://www.w3.org/Graphics/SVG/1.1/DTD/svg11.dtd">
<svg version="1.1" id="Layer_1" xmlns="http://www.w3.org/2000/svg" xmlns:xlink="http://www.w3.org/1999/xlink" x="0px" y="0px"
	 viewBox="0 0 371.2 60.5" enable-background="new 0 0 371.2 60.5" xml:space="preserve">
<g>
	<rect x="248.3" y="28.5" width="14.9" height="3.6"/>
	<rect x="177" y="28.5" width="15.9" height="3.6"/>
	<rect x="113.9" y="28.5" width="18.2" height="3.6"/>
	<rect x="47.5" y="28.5" width="19.2" height="3.6"/>
	<path d="M347,6h-61.3c-13.4,0-24.2,10.9-24.2,24.2c0,13.4,10.9,24.2,24.2,24.2H347c13.4,0,24.2-10.9,24.2-24.2
		C371.2,16.9,360.4,6,347,6z M305.4,23.8H300V40h-3.6V23.8H291v-3.3h14.4V23.8z M321.5,40h-12.3V20.5h12.1v3.3h-8.4v4.1h6.8v3.3
		h-6.8v5.4h8.7V40z M336.6,40l-4-7l-4,7h-4l6.1-10.5l-5.2-9h4l3.2,5.5l3.2-5.5h4l-5.2,9l6.1,10.5H336.6z"/>
	<g>
		<path d="M25.3,1L0,15.6v29.2l25.3,14.6l25.3-14.6V15.6L25.3,1z M33.3,40.2h-3.6v-16h-7v16H19V20.7h14.3V40.2z"/>
	</g>
	<path d="M130.3,6v48.4h48.4V6H130.3z M161.1,40h-3.6V24h-4.9l-0.8,10.8c-0.3,3.7-2.4,5.3-6.2,5.3v-3.5c1.6,0,2.5-0.1,2.6-2.1
		l1-13.9h11.8V40z"/>
	<path d="M220.9,0l-30.2,30.2l30.2,30.2l30.2-30.2L220.9,0z M224,40.2V27.4l-7.2,12.9H213V20.7h3.6v12.9l7.2-12.9h3.8v19.5H224z"/>
	<g>
		<path d="M90.4,23.6c-2.9,0-5.5,2-5.5,6.6c0,4.6,2.6,6.6,5.5,6.6c2.9,0,5.5-2,5.5-6.6C95.9,25.6,93.3,23.6,90.4,23.6z"/>
		<path d="M90.4,4.8c-14,0-25.5,11.4-25.5,25.5c0,14,11.4,25.5,25.5,25.5c14,0,25.5-11.4,25.5-25.5C115.8,16.2,104.4,4.8,90.4,4.8z
			 M90.4,40.2c-4.9,0-9.2-3.2-9.2-10c0-6.8,4.3-10,9.2-10c4.9,0,9.2,3.2,9.2,10C99.6,37,95.3,40.2,90.4,40.2z"/>
	</g>
</g>
</svg>
